<svg width="325" height="216" viewBox="0 0 325 216" fill="none" xmlns="http://www.w3.org/2000/svg">
<path fill-rule="evenodd" clip-rule="evenodd" d="M148.268 19.1275C125.807 38.5915 127.251 77.3693 151.879 105.79C176.507 134.21 214.685 141.156 237.146 121.692C242.226 117.29 246.08 111.909 248.722 105.887C257.777 85.2412 252.583 57.0103 233.535 35.0295C208.907 6.6092 170.729 -0.336429 148.268 19.1275ZM150.998 106.553C126.118 77.8423 124.382 38.2839 147.505 18.2464C170.628 -1.79106 209.537 5.55504 234.417 34.266C253.693 56.5109 259.063 85.2125 249.789 106.355C247.082 112.527 243.127 118.052 237.91 122.573C214.787 142.61 175.878 135.264 150.998 106.553Z" fill="#BFEDC3"/>
<path d="M233.976 34.6478C253.138 56.7606 258.419 85.2269 249.255 106.121C292.215 34.3119 208.745 -34.0506 147.886 18.687C170.678 -1.06371 209.222 6.08216 233.976 34.6478Z" fill="#BFEDC3"/>
<path d="M240.834 5.0945C234.531 3.4186 227.45 5.73813 223.855 6.95262L225.968 8.04568C235.296 5.13091 239.984 6.66117 240.834 7.31699C240.834 7.31699 243.759 13.2017 246.663 16.3528C249.6 19.5396 255.845 23.4211 255.845 23.4211C255.845 23.4211 256.61 29.105 254.315 36.829C254.786 37.9712 255.48 39.3066 255.48 39.3066C257.929 34.8761 259.093 23.7955 258.395 22.1094C255.772 15.7699 244.745 6.13445 240.834 5.0945Z" fill="#BFEDC3"/>
<path d="M212.77 166.165C204.644 181.184 189.144 188.238 170.994 189.641C152.837 191.045 132.104 186.781 113.689 179.242C95.2664 171.7 79.233 160.91 70.4322 149.324C66.0343 143.533 63.4663 137.576 63.2702 131.748C63.0748 125.938 65.2338 120.194 70.4083 114.801C81.3138 104.504 97.3956 98.8697 115.004 97.1624C132.61 95.4553 151.689 97.6809 168.522 103.049C185.363 108.42 199.901 116.92 208.482 127.715C217.035 138.476 219.686 151.53 212.77 166.165Z" fill="#E7F9E3" stroke="#BFEDC3"/>
<ellipse cx="141.773" cy="155.815" rx="2.31643" ry="1.44805" transform="rotate(9.8791 141.773 155.815)" fill="#BFEDC3"/>
<path d="M198.714 133.837C204.25 141.392 226.942 158.509 273.423 166.527L273.64 166.557L273.816 166.39C279.143 154.921 281.619 154.081 283.684 152.271C285.728 151.304 288.061 150.861 290.536 150.797L301.73 152.468C311.305 155.188 319.885 160.259 319.885 160.259L320.416 155.256L301.73 152.468C298.001 151.408 294.12 150.705 290.536 150.797L285.583 150.058L283.179 148.033L198.714 133.837Z" fill="#BFEDC3"/>
<path d="M198.715 133.837C204.251 141.392 226.943 158.509 273.424 166.527C273.424 166.527 276.59 158.126 280.619 154.344C283.224 151.9 286.711 150.896 290.537 150.797L301.73 152.468C311.306 155.188 319.885 160.259 319.885 160.259L320.417 155.256L301.73 152.468C298.001 151.408 294.12 150.705 290.537 150.797L285.583 150.058L283.179 148.033L198.715 133.837Z" fill="#BFEDC3"/>
<path fill-rule="evenodd" clip-rule="evenodd" d="M290.536 150.797C294.12 150.705 298.001 151.408 301.73 152.468L320.416 155.256L319.885 160.259C319.885 160.259 311.305 155.188 301.73 152.468L290.536 150.797ZM259.193 144.001L269.927 145.805L275.584 161.708L259.193 144.001ZM259.899 163.801C262.117 164.316 264.401 164.811 266.75 165.283L247.109 151.393L253.742 152.251L235.207 139.97L213.702 136.355L236.931 147.858L229.371 148.379L259.899 163.801ZM206.208 135.096L215.25 147.028C206.387 141.866 201.039 137.009 198.714 133.837L206.208 135.096Z" fill="#BFEDC3"/>
<path fill-rule="evenodd" clip-rule="evenodd" d="M273.424 166.527C226.943 158.509 204.251 141.393 198.715 133.837L202.191 134.489L207.026 139.984L214.431 143.564L222.703 149.13L233.607 152.616L242.381 156.978L252.563 158.468L260.685 161.853L270.09 162.666L273.424 166.527Z" fill="#BFEDC3"/>
<path d="M299.324 160.799C314.097 161.612 315.344 163.786 318.469 164.63C323.33 165.942 325.518 157.205 323.81 154.145L320.364 161.906L316.117 159.642L301.069 158.56L280.291 155.947C280.291 155.947 280.187 157.223 280.629 157.667C281.071 158.112 286.596 160.098 299.324 160.799Z" fill="#BFEDC3"/>
<path d="M280.293 155.974C280.143 153.793 282.076 148.985 283.595 147.712C296.808 148.652 322.474 151.199 323.846 154.143C325.217 157.087 322.259 163.967 319.067 163.237C316.597 161.304 306.276 159.93 301.425 159.485C296.05 159.505 285.098 157.152 280.293 155.974Z" fill="#BFEDC3"/>
<ellipse rx="1.67599" ry="1.44785" transform="matrix(-0.949828 -0.312773 -0.312773 0.949828 316.739 156.797)" fill="#E7F9E3"/>
<ellipse rx="1.67599" ry="1.44785" transform="matrix(-0.996064 -0.0886324 -0.0886324 0.996064 302.901 154.242)" fill="#E7F9E3"/>
<ellipse rx="1.3345" ry="1.15285" transform="matrix(-0.996064 -0.0886324 -0.0886324 0.996064 288.935 152.576)" fill="#E7F9E3"/>
<path d="M183.985 156.065C184.947 157.718 186.297 162.564 180.075 163.647L179.186 165.315C178.724 165.426 178.266 165.543 177.814 165.666L179.206 163.361C178 161.742 177.03 157.873 182.807 155.351C182.451 155.865 181.564 157.427 181.453 157.763C182.064 157.607 183.135 157.043 183.985 156.065Z" fill="#BFEDC3"/>
<path d="M172.333 155.739C175.04 157.19 176.874 161.876 171.144 164.636L169.872 168.498C169.236 168.781 168.636 169.06 168.079 169.332C168.672 167.921 169.854 164.967 169.841 164.441C168.608 163.641 166.937 161.173 170.12 157.698C169.92 158.289 169.549 159.61 169.667 160.158C170.54 159.55 172.018 157.189 172.333 155.739Z" fill="#BFEDC3"/>
<path d="M198.273 166.501C196.681 167.701 192.424 168.365 188.254 165.035C186.544 164.985 183.448 165.234 179.685 166.144C179.104 166.284 178.508 166.44 177.898 166.613C176.019 167.147 174.015 167.842 171.963 168.737C170.275 169.474 168.554 170.346 166.844 171.376L165.246 170.85C165.979 170.41 166.94 169.888 168.079 169.332C168.636 169.06 169.236 168.781 169.872 168.498C172.137 167.495 174.87 166.463 177.814 165.666C178.266 165.543 178.724 165.426 179.186 165.315C182.101 164.616 185.176 164.176 188.177 164.233C188.964 162.659 191.967 160.684 197.681 165.374L194.016 163.53C194.75 164.036 196.397 165.215 198.273 166.501Z" fill="#BFEDC3"/>
<path d="M183.536 168.469C181.694 167.551 179.147 166.724 177.898 166.613C178.508 166.44 179.104 166.284 179.685 166.144C179.982 166.241 182.219 166.9 183.64 167.446C187.818 166.926 190.494 169.038 190.4 172.343C189.086 170.295 188.312 169.75 188.09 169.734C188.995 170.343 189.245 171.683 189.177 172.189C184.812 171.933 183.605 169.517 183.536 168.469Z" fill="#BFEDC3"/>
<path d="M166.844 171.376C168.554 170.346 170.275 169.474 171.963 168.737L176.618 170.089C179.333 169.802 184.486 170.915 183.383 177.66C183.457 176.865 183.253 174.801 181.845 172.897C181.862 173.711 182.07 175.628 182.769 176.79C180.792 176.393 176.725 174.71 176.267 171.154C174.631 170.605 170.455 169.88 166.844 171.376Z" fill="#BFEDC3"/>
<path d="M109.475 121.099L107.034 120.088L104.593 119.077L104.593 124.738L106.59 122.418L109.475 121.099Z" fill="#BFEDC3"/>
<path d="M115.65 129.318L112.244 127.907L112.244 133.272L115.65 129.318Z" fill="#BFEDC3"/>
<path d="M125.407 127.47L127.582 128.371L127.582 124.944L125.407 127.47Z" fill="#BFEDC3"/>
<path d="M123.843 127.051L121.668 126.15L118.262 130.104L112.244 127.611L112.244 127.907L115.65 129.318L112.244 133.272L118.262 135.765L121.668 131.811L123.843 132.712L127.582 128.371L125.407 127.47L127.582 124.944L127.582 122.71L123.843 127.051Z" fill="#BFEDC3"/>
<path d="M136.189 109.292L132.595 113.464L136.189 114.952L136.189 109.292Z" fill="#BFEDC3"/>
<path fill-rule="evenodd" clip-rule="evenodd" d="M121.668 126.15L118.262 130.104L112.244 127.611L112.244 127.907L104.593 124.738L106.59 122.418L109.475 121.099L115.65 123.657L111.528 121.357L109.91 120.901L107.034 120.088L104.593 119.077L106.59 116.758L129.228 106.409L136.189 109.292C135.191 110.356 133.837 111.823 132.42 113.391C129.472 116.654 126.252 120.36 125.407 121.809L132.595 113.464L136.189 114.952L127.582 124.944L127.582 122.71L123.843 127.051L123.369 126.531L121.668 126.15ZM124.782 114.102L125.543 113.313L125.471 113.283L115.582 117.739L116.234 118.009L119.643 119.421L124.782 114.102Z" fill="#BFEDC3"/>
<path d="M137.714 137.954C138.934 138.057 140.163 138.011 141.363 137.81C140.23 138.333 138.929 138.349 137.714 137.954Z" fill="#BFEDC3"/>
<path d="M128.65 133.268C128.202 132.512 127.939 131.695 127.886 130.837L127.877 136.104C127.89 135.194 128.138 134.241 128.65 133.268Z" fill="#BFEDC3"/>
<path fill-rule="evenodd" clip-rule="evenodd" d="M156.46 124.53C156.971 123.563 157.221 122.617 157.237 121.712V124.782V125.151C157.22 125.389 157.172 125.68 157.081 126.015C156.952 125.5 156.742 125.003 156.46 124.53ZM157.182 126.516C157.214 126.736 157.233 126.959 157.237 127.184V126.36C157.219 126.412 157.201 126.464 157.182 126.516Z" fill="#BFEDC3"/>
<path fill-rule="evenodd" clip-rule="evenodd" d="M145.925 119.789C146.322 119.783 146.72 119.792 147.116 119.818C146.76 119.763 146.344 119.759 145.925 119.789Z" fill="#BFEDC3"/>
<path fill-rule="evenodd" clip-rule="evenodd" d="M151.827 115.245C146.679 113.113 140.111 113.942 136.193 118.491L129.919 125.775C128.618 127.285 127.977 128.778 127.887 130.178C127.873 130.4 127.873 130.62 127.886 130.837C127.939 131.695 128.202 132.512 128.65 133.268C128.138 134.241 127.89 135.194 127.877 136.104C127.839 138.81 129.878 141.141 133.209 142.521C138.466 144.698 144.997 143.854 148.916 139.305L155.19 132.02C156.626 130.353 157.264 128.708 157.237 127.184C157.233 126.959 157.214 126.736 157.182 126.516C156.285 128.977 154.413 130.692 153.574 131.249C155.78 129.186 156.738 127.286 157.081 126.015C156.952 125.5 156.742 125.003 156.46 124.53C156.141 125.133 155.72 125.745 155.19 126.36L148.916 133.644C147.378 135.43 145.437 136.645 143.328 137.33C144.615 136.712 147.481 135.082 148.655 133.508C149.829 131.934 153.419 127.885 155.068 126.057C155.383 125.709 155.872 125.07 156.309 124.29C156.74 123.52 157.122 122.613 157.237 121.712C157.238 121.648 157.238 121.585 157.237 121.522C157.189 118.89 155.157 116.624 151.827 115.245ZM142.279 126.794L137.581 132.248C139.431 132.899 141.507 132.595 142.891 130.987L147.541 125.589C145.734 124.916 143.64 125.214 142.279 126.794ZM137.714 137.954C138.934 138.057 140.163 138.011 141.363 137.81C140.23 138.333 138.929 138.349 137.714 137.954ZM147.116 119.818C147.158 119.821 147.2 119.823 147.242 119.826C146.115 119.479 144.902 119.504 143.837 119.973C143.262 120.227 142.73 120.609 142.279 121.133L136.184 128.209C134.725 129.904 135.432 131.367 137.281 132.133C134.929 130.377 135.735 128.869 136.431 128.335L142.516 121.357C142.73 121.071 143.326 120.433 143.991 120.173C144.422 120.005 145.177 119.843 145.925 119.789C146.322 119.783 146.72 119.792 147.116 119.818Z" fill="#BFEDC3"/>
<path d="M153.869 142.598L151.428 141.587L148.986 140.575L148.986 146.236L150.984 143.917L153.869 142.598Z" fill="#BFEDC3"/>
<path d="M160.044 150.816L156.638 149.405L156.638 154.77L160.044 150.816Z" fill="#BFEDC3"/>
<path d="M169.801 148.968L171.976 149.869L171.976 146.443L169.801 148.968Z" fill="#BFEDC3"/>
<path d="M168.237 148.549L166.062 147.648L162.656 151.603L156.638 149.11L156.638 149.405L160.044 150.816L156.638 154.77L162.656 157.263L166.062 153.309L168.237 154.21L171.976 149.869L169.801 148.968L171.976 146.443L171.976 144.208L168.237 148.549Z" fill="#BFEDC3"/>
<path d="M180.583 130.79L176.989 134.962L180.583 136.451L180.583 130.79Z" fill="#BFEDC3"/>
<path fill-rule="evenodd" clip-rule="evenodd" d="M162.656 151.603L166.062 147.648L167.763 148.029C168.012 147.518 170.676 145.269 171.976 144.208L171.976 146.443L180.583 136.451L176.989 134.962L169.801 143.307C170.646 141.858 173.866 138.153 176.814 134.89C178.231 133.321 179.585 131.854 180.583 130.79L173.622 127.907L150.984 138.256L148.986 140.575L151.428 141.587L154.304 142.399L155.922 142.856L160.044 145.155L153.869 142.598L150.984 143.917L148.986 146.236L156.638 149.405L156.638 149.11L162.656 151.603ZM169.937 134.812L169.175 135.6L164.037 140.92L160.628 139.508L159.976 139.238L169.865 134.782L169.937 134.812Z" fill="#BFEDC3"/>
<path d="M41.2754 62.0053L9.66575 46.6827C7.69506 45.7274 5.32126 46.4694 4.2455 48.377C3.07944 50.4448 3.88411 53.0675 6.00917 54.1255L37.4551 69.7813C39.5231 70.8109 42.035 70.0366 43.1646 68.0216C44.384 65.8462 43.5194 63.0931 41.2754 62.0053Z" fill="#BFEDC3"/>
<path d="M65.858 82.063L40.3341 68.4326L42.2244 65.1182L67.4625 79.2669C68.8513 76.6495 71.1544 75.9939 73.0576 76.9435C80.4009 80.6073 90.9263 86.5489 92.9234 87.6809C93.1175 87.791 93.1878 88.0259 93.0967 88.2295C93.0017 88.4418 92.756 88.5413 92.5401 88.4549L77.7287 82.5292C77.3313 82.3702 76.8796 82.5575 76.7113 82.951C76.5574 83.3107 76.6906 83.7287 77.0241 83.9331L90.0719 91.928C90.2953 92.065 90.3772 92.3499 90.2604 92.5845C90.1412 92.8242 89.856 92.9295 89.6097 92.8247L75.3585 86.7643C74.9286 86.5815 74.4324 86.7871 74.2579 87.2204C74.1066 87.5961 74.2468 88.0261 74.5905 88.2404L86.9419 95.9393C87.1844 96.0905 87.2723 96.4012 87.1449 96.657C87.0127 96.9225 86.695 97.0369 86.4239 96.9167L67.2481 88.4145C64.97 87.4044 64.3087 84.5778 65.858 82.063Z" fill="#BFEDC3"/>
<ellipse cx="13.5543" cy="53.0634" rx="1.95989" ry="1.6931" transform="rotate(20.1 13.5543 53.0634)" fill="#E7F9E3"/>
<ellipse cx="37.0886" cy="64.199" rx="1.56055" ry="1.34813" transform="rotate(20.1 37.0886 64.199)" fill="#E7F9E3"/>
<path d="M123.238 143.233C121.653 148.334 118.207 153.783 115.546 156.256C117.327 156.224 120.089 154.492 120.522 153.378C120.014 153.378 119.336 153.738 119.047 153.743C120.036 153.145 121.536 151.926 122.472 150.159C121.814 150.32 121.581 150.339 121.172 150.571C122.105 149.841 123.67 147.751 123.773 145.878C123.187 146.103 122.774 146.448 122.774 146.448C123.18 146.169 123.612 144.541 123.238 143.233Z" fill="#BFEDC3"/>
<path d="M80.6411 135.065C79.3155 135.714 77.2769 135.16 76.4233 134.803C76.9339 133.135 78.6618 131.93 79.4619 131.537C79.3276 131.273 78.5923 131.086 78.2415 131.025C80.0039 128.885 82.5598 128.092 83.6174 127.962L82.2713 127.751C83.9273 125.416 86.5737 124.968 87.6899 125.036C87.6707 124.632 86.9487 124.372 86.5901 124.292C91.7997 122.637 94.3943 124.921 94.7409 126.226C89.8181 126.704 86.9851 129.468 86.4833 130.833C90.2697 126.681 96.6528 128.062 99.7338 129.354L99.7102 130.308C97.4094 129.344 96.6337 129.474 96.0491 129.503C96.4604 135.649 89.5714 136.879 90.1211 136.521C90.5609 136.235 90.8135 135.486 90.8848 135.147C88.4939 137.485 84.3109 137.308 84.7922 136.946C85.1773 136.655 85.2712 136.064 85.2701 135.805C82.3001 137.336 78.7635 136.066 79.5746 135.982C80.2235 135.915 80.556 135.343 80.6411 135.065Z" fill="#BFEDC3"/>
<ellipse cx="164.792" cy="125.152" rx="1.04658" ry="0.697714" transform="rotate(27.5361 164.792 125.152)" fill="#BFEDC3"/>
<ellipse cx="157.011" cy="113.873" rx="0.854555" ry="0.531412" fill="#BFEDC3"/>
</svg>
