<svg width="52" height="70" viewBox="0 0 52 70" fill="none" xmlns="http://www.w3.org/2000/svg">
<path d="M20.9187 20.5331L29.5592 11.8519L39.9012 22.1687C37.4842 27.7216 31.9667 31.6049 25.552 31.6049C19.9368 31.6049 15.0091 28.6294 12.2468 24.163L18.602 18.2056L20.9187 20.5331Z" fill="#2A6458"/>
<path d="M22.1234 13.4321C23.2345 13.4321 24.0987 12.5679 24.0987 11.4568C24.0987 10.3457 23.2345 9.48148 22.1234 9.48148C21.0123 9.48148 20.1481 10.3457 20.1481 11.4568C20.1481 12.5679 21.074 13.4321 22.1234 13.4321Z" fill="#2A6458"/>
<path d="M9.87646 15.8025C9.87646 6.86132 16.7378 0 25.6789 0C34.6201 0 41.4799 6.86137 41.4799 15.8025C41.4799 16.6166 41.4198 17.4169 41.3035 18.1993L40.597 17.5026C40.6583 16.9444 40.6898 16.3771 40.6898 15.8025C40.6898 7.29764 34.1837 0.790123 25.6789 0.790123C17.1742 0.790123 10.6666 7.29769 10.6666 15.8025C10.6666 16.3734 10.6977 16.9369 10.7582 17.4915L10.0529 18.1993C9.93665 17.4169 9.87646 16.6166 9.87646 15.8025Z" fill="#2A6458"/>
<path fill-rule="evenodd" clip-rule="evenodd" d="M34.7656 69.6289H35.1633C35.3676 69.6289 35.5587 69.5503 35.702 69.4168C35.787 69.3377 35.8551 69.2394 35.8992 69.1267L36.0844 68.6531H38.139L38.3242 69.1267C38.3803 69.2699 38.4752 69.39 38.594 69.4768C38.7264 69.5736 38.8886 69.6289 39.0601 69.6289H39.5064L37.6045 64.8882H36.6675L34.7656 69.6289ZM37.8197 67.8364L37.1117 66.0094L36.4037 67.8364H37.8197Z" fill="#2A6458"/>
<path d="M32.0118 64.8882L31.2107 66.2031C31.1279 66.3396 31.0482 66.4496 30.9717 66.5333C30.9162 66.594 30.8623 66.6408 30.8101 66.6737C30.6857 66.7476 30.5016 66.7845 30.2575 66.7845H30.1816V64.8882H29.2354V69.6289H30.1816V67.6288H30.2713C30.3772 67.6288 30.4762 67.6242 30.5683 67.615C30.665 67.6057 30.7571 67.5896 30.8446 67.5665L31.8707 69.25C31.954 69.3868 32.0753 69.4926 32.2164 69.5572C32.318 69.6037 32.43 69.6289 32.5454 69.6289H33.186L31.6181 67.0613C31.7102 66.9552 31.8046 66.8329 31.9013 66.6945C32.0026 66.5515 32.1108 66.3854 32.2259 66.1962L33.0271 64.8882H32.0118Z" fill="#2A6458"/>
<path fill-rule="evenodd" clip-rule="evenodd" d="M26.7055 67.4454C26.8705 67.3464 27.0053 67.2253 27.1101 67.0821C27.2686 66.8652 27.3479 66.6092 27.3479 66.3139C27.3479 65.8848 27.1714 65.541 26.8186 65.2827C26.4708 65.0197 26.0105 64.8882 25.4378 64.8882H23.7041V69.6289H24.732V67.8157H25.4761L26.2951 69.2084C26.3627 69.3234 26.4592 69.4192 26.5742 69.4902C26.7179 69.579 26.8904 69.6289 27.0711 69.6289H27.6547L26.4273 67.5804C26.528 67.5412 26.6208 67.4962 26.7055 67.4454ZM26.0668 65.9055C25.9501 65.8116 25.7979 65.7559 25.6099 65.7385C25.5672 65.7345 25.5226 65.7325 25.4761 65.7325H24.732V66.9783H25.4761C25.5226 66.9783 25.5672 66.9764 25.6099 66.9726C25.7979 66.9558 25.9501 66.9024 26.0668 66.8122C26.2151 66.6968 26.2893 66.5446 26.2893 66.3554C26.2893 66.1662 26.2151 66.0163 26.0668 65.9055Z" fill="#2A6458"/>
<path fill-rule="evenodd" clip-rule="evenodd" d="M21.4449 68.9565C20.9921 69.4048 20.4283 69.6289 19.7537 69.6289C19.079 69.6289 18.5153 69.4048 18.0625 68.9565C17.6097 68.5037 17.3833 67.9388 17.3833 67.2619C17.3833 66.585 17.6097 66.0201 18.0625 65.5674C18.5153 65.1146 19.079 64.8882 19.7537 64.8882C20.4283 64.8882 20.9921 65.1146 21.4449 65.5674C21.8976 66.0201 22.124 66.585 22.124 67.2619C22.124 67.9388 21.8976 68.5037 21.4449 68.9565ZM18.7417 66.1726C19.0134 65.8812 19.3507 65.7355 19.7537 65.7355C20.1567 65.7355 20.4917 65.8812 20.7589 66.1726C21.0306 66.4639 21.1664 66.8271 21.1664 67.2619C21.1664 67.6968 21.0306 68.0599 20.7589 68.3513C20.4917 68.6382 20.1567 68.7816 19.7537 68.7816C19.3507 68.7816 19.0134 68.6382 18.7417 68.3513C18.4745 68.0599 18.341 67.6968 18.341 67.2619C18.341 66.8271 18.4745 66.4639 18.7417 66.1726Z" fill="#2A6458"/>
<path d="M13.503 65.736C13.088 65.736 12.7406 65.8816 12.4609 66.173C12.1858 66.4644 12.0482 66.8276 12.0482 67.2624C12.0482 67.6973 12.1858 68.0604 12.4609 68.3518C12.7406 68.6387 13.088 68.7821 13.503 68.7821C13.8154 68.7821 14.0859 68.7014 14.3143 68.5401C14.5428 68.3742 14.7014 68.15 14.79 67.8676H14.259C13.7739 67.8676 13.3981 67.4888 13.3981 67.0472H15.7831C15.8728 67.7372 15.6543 68.4613 15.1397 68.9771C14.7014 69.412 14.1558 69.6294 13.503 69.6294C12.8082 69.6294 12.2277 69.4053 11.7614 68.957C11.2952 68.5042 11.062 67.9393 11.062 67.2624C11.062 66.5855 11.2952 66.0206 11.7614 65.5678C12.2277 65.1151 12.8082 64.8887 13.503 64.8887C14.1558 64.8887 14.755 65.1352 15.2306 65.6015L14.6431 66.2201C14.3107 65.9006 13.9364 65.736 13.503 65.736Z" fill="#2A6458"/>
<path d="M51.3562 43.7137V39.605H35.6064V43.7137H41.427V50.5615C41.427 52.4524 42.9599 53.9853 44.8509 53.9853H45.5357V43.7137H51.3562Z" fill="#2A6458"/>
<path d="M45.5379 56.0396H41.4292V60.1482H45.5379V56.0396Z" fill="#2A6458"/>
<path d="M21.9107 60.1482C23.0453 60.1482 23.965 59.2284 23.965 58.0939C23.965 56.9593 23.0453 56.0396 21.9107 56.0396C20.7762 56.0396 19.8564 56.9593 19.8564 58.0939C19.8564 59.2284 20.7762 60.1482 21.9107 60.1482Z" fill="#2A6458"/>
<path d="M35.6069 60.1487H32.8372C31.7769 60.1487 30.7763 59.6574 30.128 58.8184L25.3354 52.6162H29.8319L35.6069 60.1487Z" fill="#2A6458"/>
<path d="M33.8942 46.6239C33.8942 48.2763 32.867 51.5885 29.8297 52.6157C29.2251 52.8486 28.416 52.9581 27.7313 52.9581C27.0465 52.9581 25.3346 52.6157 25.3346 52.6157C28.2109 52.0206 29.7857 49.1918 29.7857 46.7951C29.7857 45.0832 28.5873 43.7136 26.8753 43.7136C25.3346 43.7136 23.965 44.9548 23.965 46.6239V53.9852H23.2803C21.3894 53.9852 19.8564 52.4523 19.8564 50.5613V46.6239C19.8564 46.3157 19.8907 45.2201 19.9592 44.912C20.6906 42.0471 23.5126 39.605 26.5329 39.605C26.7269 39.605 26.8525 39.605 27.0465 39.605C30.9925 39.6927 33.8942 42.8398 33.8942 46.6239Z" fill="#2A6458"/>
<path d="M18.4889 60.1482H16.612C15.2556 60.1482 14.027 59.3474 13.4795 58.1064L9.24431 48.507L5.0094 58.1063C4.46188 59.3474 3.23331 60.1482 1.87683 60.1482H0L8.9022 39.605H9.58696L18.4889 60.1482Z" fill="#2A6458"/>
<path d="M9.24475 56.0396L7.19043 60.1482H11.2991L9.24475 56.0396Z" fill="#2A6458"/>
</svg>
