<svg width="91" height="32" viewBox="0 0 91 32" fill="none" xmlns="http://www.w3.org/2000/svg">
<path d="M11.0422 20.5331L19.6827 11.8519L30.0247 22.1687C27.6078 27.7216 22.0903 31.6049 15.6755 31.6049C10.0603 31.6049 5.13267 28.6294 2.37037 24.163L8.72553 18.2056L11.0422 20.5331Z" fill="#2A6458"/>
<path d="M12.2469 13.4321C13.358 13.4321 14.2222 12.5679 14.2222 11.4568C14.2222 10.3457 13.358 9.48148 12.2469 9.48148C11.1358 9.48148 10.2716 10.3457 10.2716 11.4568C10.2716 12.5679 11.1975 13.4321 12.2469 13.4321Z" fill="#2A6458"/>
<path d="M0 15.8025C0 6.86132 6.86132 0 15.8025 0C24.7437 0 31.6035 6.86137 31.6035 15.8025C31.6035 16.6166 31.5433 17.4169 31.4271 18.1993L30.7205 17.5026C30.7819 16.9444 30.8134 16.3771 30.8134 15.8025C30.8134 7.29764 24.3072 0.790123 15.8025 0.790123C7.29769 0.790123 0.790123 7.29769 0.790123 15.8025C0.790123 16.3734 0.821209 16.9369 0.881754 17.4915L0.176413 18.1993C0.0601879 17.4169 0 16.6166 0 15.8025Z" fill="#2A6458"/>
<path fill-rule="evenodd" clip-rule="evenodd" d="M74.2725 30.0239H74.6702C74.8744 30.0239 75.0656 29.9453 75.2089 29.8119C75.2938 29.7328 75.3619 29.6344 75.406 29.5217L75.5913 29.0481H77.6458L77.8311 29.5217C77.8871 29.665 77.982 29.7851 78.1009 29.8719C78.2333 29.9686 78.3955 30.0239 78.5669 30.0239H79.0132L77.1114 25.2832H76.1743L74.2725 30.0239ZM77.3265 28.2315L76.6185 26.4044L75.9106 28.2315H77.3265Z" fill="#2A6458"/>
<path d="M71.5187 25.2832L70.7175 26.5982C70.6347 26.7346 70.5551 26.8446 70.4785 26.9283C70.423 26.989 70.3691 27.0358 70.3169 27.0688C70.1926 27.1426 70.0084 27.1795 69.7644 27.1795H69.6884V25.2832H68.7422V30.0239H69.6884V28.0238H69.7782C69.8841 28.0238 69.9831 28.0192 70.0752 28.01C70.1719 28.0008 70.264 27.9846 70.3514 27.9615L71.3775 29.645C71.4609 29.7818 71.5821 29.8876 71.7232 29.9522C71.8249 29.9988 71.9368 30.0239 72.0522 30.0239H72.6928L71.125 27.4563C71.2171 27.3502 71.3115 27.2279 71.4082 27.0895C71.5095 26.9465 71.6177 26.7804 71.7328 26.5912L72.5339 25.2832H71.5187Z" fill="#2A6458"/>
<path fill-rule="evenodd" clip-rule="evenodd" d="M66.2124 27.8404C66.3773 27.7414 66.5122 27.6203 66.6169 27.4771C66.7754 27.2602 66.8547 27.0042 66.8547 26.7089C66.8547 26.2798 66.6783 25.9361 66.3254 25.6777C65.9776 25.4147 65.5174 25.2832 64.9446 25.2832H63.2109V30.0239H64.2389V28.2107H64.983L65.8019 29.6034C65.8696 29.7184 65.9661 29.8142 66.081 29.8852C66.2247 29.974 66.3972 30.0239 66.5779 30.0239H67.1615L65.9342 27.9754C66.0349 27.9362 66.1276 27.8912 66.2124 27.8404ZM65.5736 26.3006C65.457 26.2066 65.3047 26.1509 65.1168 26.1335C65.074 26.1295 65.0294 26.1275 64.983 26.1275H64.2389V27.3733H64.983C65.0294 27.3733 65.074 27.3714 65.1168 27.3676C65.3047 27.3509 65.457 27.2974 65.5736 27.2072C65.7219 27.0918 65.7961 26.9396 65.7961 26.7504C65.7961 26.5612 65.7219 26.4113 65.5736 26.3006Z" fill="#2A6458"/>
<path fill-rule="evenodd" clip-rule="evenodd" d="M60.9512 29.3515C60.4984 29.7998 59.9347 30.0239 59.26 30.0239C58.5854 30.0239 58.0216 29.7998 57.5688 29.3515C57.116 28.8987 56.8896 28.3339 56.8896 27.6569C56.8896 26.98 57.116 26.4152 57.5688 25.9624C58.0216 25.5096 58.5854 25.2832 59.26 25.2832C59.9347 25.2832 60.4984 25.5096 60.9512 25.9624C61.404 26.4152 61.6304 26.98 61.6304 27.6569C61.6304 28.3339 61.404 28.8987 60.9512 29.3515ZM58.248 26.5676C58.5197 26.2762 58.857 26.1305 59.26 26.1305C59.663 26.1305 59.9981 26.2762 60.2652 26.5676C60.5369 26.859 60.6727 27.2221 60.6727 27.6569C60.6727 28.0918 60.5369 28.4549 60.2652 28.7463C59.9981 29.0332 59.663 29.1767 59.26 29.1767C58.857 29.1767 58.5197 29.0332 58.248 28.7463C57.9809 28.4549 57.8473 28.0918 57.8473 27.6569C57.8473 27.2221 57.9809 26.859 58.248 26.5676Z" fill="#2A6458"/>
<path d="M53.0094 26.1305C52.5944 26.1305 52.247 26.2762 51.9672 26.5676C51.6921 26.859 51.5546 27.2221 51.5546 27.6569C51.5546 28.0918 51.6921 28.4549 51.9672 28.7463C52.247 29.0332 52.5944 29.1767 53.0094 29.1767C53.3218 29.1767 53.5922 29.096 53.8207 28.9346C54.0492 28.7687 54.2077 28.5446 54.2963 28.2621H53.7654C53.2803 28.2621 52.9044 27.8833 52.9044 27.4418H55.2895C55.3792 28.1317 55.1606 28.8558 54.646 29.3717C54.2077 29.8065 53.6622 30.0239 53.0094 30.0239C52.3146 30.0239 51.7341 29.7998 51.2678 29.3515C50.8015 28.8987 50.5684 28.3339 50.5684 27.6569C50.5684 26.98 50.8015 26.4152 51.2678 25.9624C51.7341 25.5096 52.3146 25.2832 53.0094 25.2832C53.6622 25.2832 54.2613 25.5298 54.7369 25.996L54.1494 26.6146C53.8171 26.2951 53.4427 26.1305 53.0094 26.1305Z" fill="#2A6458"/>
<path d="M90.8621 4.10868V0H75.1123V4.10868H80.9329V10.9565C80.9329 12.8474 82.4658 14.3804 84.3567 14.3804H85.0415V4.10868H90.8621Z" fill="#2A6458"/>
<path d="M85.0432 16.4346H80.9346V20.5432H85.0432V16.4346Z" fill="#2A6458"/>
<path d="M61.4166 20.5432C62.5512 20.5432 63.4709 19.6235 63.4709 18.4889C63.4709 17.3543 62.5512 16.4346 61.4166 16.4346C60.282 16.4346 59.3623 17.3543 59.3623 18.4889C59.3623 19.6235 60.282 20.5432 61.4166 20.5432Z" fill="#2A6458"/>
<path d="M75.1123 20.5433H72.3426C71.2822 20.5433 70.2817 20.0519 69.6333 19.2129L64.8408 13.0107H69.3373L75.1123 20.5433Z" fill="#2A6458"/>
<path d="M73.4 7.01891C73.4 8.67132 72.3729 11.9835 69.3355 13.0107C68.731 13.2436 67.9219 13.3531 67.2371 13.3531C66.5523 13.3531 64.8404 13.0107 64.8404 13.0107C67.7167 12.4156 69.2915 9.58683 69.2915 7.19012C69.2915 5.47819 68.0932 4.10864 66.3812 4.10864C64.8404 4.10863 63.4709 5.34979 63.4709 7.01892V14.3802H62.7862C60.8952 14.3802 59.3623 12.8473 59.3623 10.9564V7.01891C59.3623 6.71077 59.3965 5.61513 59.465 5.30698C60.1965 2.44208 63.0185 0 66.0388 0C66.2328 0 66.3583 0 66.5523 0C70.4984 0.0876907 73.4 3.23477 73.4 7.01891Z" fill="#2A6458"/>
<path d="M57.9948 20.5432H56.1179C54.7614 20.5432 53.5329 19.7424 52.9853 18.5014L48.7502 8.90206L44.5153 18.5013C43.9677 19.7424 42.7392 20.5432 41.3827 20.5432H39.5059L48.4081 0H49.0928L57.9948 20.5432Z" fill="#2A6458"/>
<path d="M48.7506 16.4346L46.6963 20.5432H50.8049L48.7506 16.4346Z" fill="#2A6458"/>
</svg>
