<svg width="235" height="235" viewBox="0 0 235 235" fill="none" xmlns="http://www.w3.org/2000/svg">
<ellipse cx="117.5" cy="117.5" rx="117.5" ry="117.5" fill="#E7F9E3"/>
<path d="M117.597 214.664C112.97 214.664 108.419 214.34 103.965 213.713C103.601 213.592 102.765 213.264 102.329 212.916C107.302 213.707 112.402 214.118 117.597 214.118C122.145 214.118 127.096 213.417 131.492 212.795L131.724 212.762C131.077 212.958 131.177 213.839 131.818 213.751C127.364 214.378 122.224 214.664 117.597 214.664Z" fill="#2A6458"/>
<path fill-rule="evenodd" clip-rule="evenodd" d="M22.4611 133.897C22.0309 134.447 22.9292 139.058 22.9292 139.058C29.8688 169.723 51.2959 194.883 79.6282 206.949C79.7197 206.882 80.0559 206.82 80.6694 207.107C81.2829 207.394 82.1463 207.683 82.5013 207.793C82.1809 207.604 81.9942 207.393 81.9408 207.311C62.5426 199.588 46.2376 185.749 35.4011 168.173C34.1449 166.136 32.9621 164.048 31.8565 161.914C27.3726 153.257 24.1585 143.836 22.4611 133.897ZM99.5997 212.441C94.7795 211.531 90.0859 210.263 85.5475 208.664C85.6806 208.824 86.0278 209.196 86.3526 209.401C86.6774 209.606 87.1167 209.776 87.2958 209.836C92.6497 211.595 98.2092 212.901 103.929 213.708C103.002 213.571 100.665 212.81 99.5997 212.441ZM83.7443 208.591C83.3093 208.429 82.8758 208.264 82.4438 208.096C83.0657 208.089 83.5699 208.423 83.7443 208.591ZM212.614 137.52L212.61 137.54C211.836 141.255 210.852 144.892 209.67 148.438C209.408 149.225 209.137 150.006 208.855 150.784C204.275 163.435 197.155 174.86 188.107 184.435C187.181 185.415 186.234 186.376 185.268 187.317C171.254 200.963 153.125 210.386 132.883 213.538C132.659 213.573 132.513 213.608 132.37 213.643C132.215 213.68 132.062 213.717 131.818 213.751C131.177 213.839 131.077 212.958 131.724 212.762C132.04 212.717 132.201 212.718 132.567 212.719L132.661 212.719L132.781 212.719C145.067 210.835 156.56 206.65 166.816 200.615L168.516 200.062L170.183 198.538C175.505 195.102 180.461 191.154 184.983 186.761C185.946 185.826 186.889 184.871 187.812 183.896C200.604 170.384 209.494 153.131 212.748 133.897C212.403 136.142 212.121 137.837 212.614 137.52ZM83.1745 207.793C83.0381 207.777 82.7808 207.769 82.8421 207.858C82.8899 207.927 83.2618 208.065 83.4715 208.141C83.3137 208.052 83.2103 207.88 83.1745 207.793ZM83.4715 208.141C83.4784 208.145 83.4855 208.149 83.4926 208.153C83.5028 208.158 83.5131 208.162 83.5237 208.167C83.5376 208.172 83.5518 208.177 83.5664 208.182C83.5952 208.19 83.61 208.194 83.6135 208.194C83.6202 208.195 83.5842 208.182 83.5245 208.16L83.5231 208.16L83.4715 208.141ZM85.492 209.035C85.6965 209.035 84.8047 208.62 84.3332 208.412C84.1571 208.412 83.9208 208.448 84.3844 208.591C84.6665 208.678 84.8759 208.786 85.0461 208.873C85.2253 208.965 85.3609 209.035 85.492 209.035Z" fill="#2A6458"/>
<path fill-rule="evenodd" clip-rule="evenodd" d="M85.5475 208.664C85.6806 208.824 86.0278 209.196 86.3526 209.401C86.6774 209.606 87.1167 209.776 87.2958 209.836C86.1016 209.443 84.9175 209.028 83.7443 208.591C83.5699 208.423 83.0657 208.089 82.4438 208.096C81.498 207.728 80.5594 207.345 79.6282 206.949C79.7197 206.882 80.0559 206.82 80.6694 207.107C81.2829 207.394 82.1463 207.683 82.5013 207.793C82.1809 207.604 81.9942 207.393 81.9408 207.311C82.3507 207.474 82.7619 207.635 83.1745 207.793C83.0381 207.777 82.7808 207.769 82.8421 207.858C82.8899 207.927 83.2618 208.065 83.4715 208.141C83.4784 208.145 83.4855 208.149 83.4926 208.153C83.5028 208.158 83.5131 208.162 83.5237 208.167C83.5376 208.172 83.5518 208.177 83.5664 208.182C83.5952 208.19 83.61 208.194 83.6135 208.194C83.6202 208.195 83.5842 208.182 83.5245 208.16L83.5231 208.16L83.4715 208.141C83.3137 208.052 83.2103 207.88 83.1745 207.793C83.9606 208.093 84.7517 208.383 85.5475 208.664ZM85.492 209.035C85.6965 209.035 84.8047 208.62 84.3332 208.412C84.1571 208.412 83.9208 208.448 84.3844 208.591C84.6665 208.678 84.8759 208.786 85.0461 208.873C85.2253 208.965 85.3609 209.035 85.492 209.035Z" fill="#2A6458"/>
<path d="M102.329 212.916C102.765 213.264 103.601 213.592 103.965 213.713C103.953 213.711 103.941 213.71 103.929 213.708C103.002 213.571 100.665 212.81 99.5997 212.441C100.505 212.612 101.415 212.77 102.329 212.916Z" fill="#2A6458"/>
<path d="M170.183 198.538L168.516 200.062L166.816 200.615C167.954 199.945 169.077 199.253 170.183 198.538Z" fill="#2A6458"/>
<path d="M167.776 30.4189L167.179 33.2291L169.667 34.6656L166.81 34.966L166.212 37.7762L165.044 35.1516L162.187 35.4519L164.322 33.5295L163.153 30.9049L165.641 32.3413L167.776 30.4189Z" fill="#2A6458"/>
<path d="M188.601 46.3987L187.297 48.9586L189.329 50.9901L186.491 50.5407L185.187 53.1005L184.737 50.2629L181.9 49.8135L184.459 48.5091L184.01 45.6715L186.042 47.703L188.601 46.3987Z" fill="#2A6458"/>
<path d="M204.581 67.2241L202.659 69.3592L204.095 71.8472L201.471 70.6787L199.548 72.8137L199.849 69.9565L197.224 68.7879L200.034 68.1906L200.334 65.3334L201.771 67.8214L204.581 67.2241Z" fill="#2A6458"/>
<path d="M214.626 91.4753L212.217 93.04L212.961 95.8151L210.728 94.0071L208.318 95.5718L209.348 92.8897L207.115 91.0816L209.984 91.232L211.014 88.5499L211.757 91.3249L214.626 91.4753Z" fill="#2A6458"/>
<path d="M218.053 117.5L215.32 118.388V121.261L213.632 118.937L210.899 119.824L212.588 117.5L210.899 115.176L213.632 116.064L215.32 113.739V116.612L218.053 117.5Z" fill="#2A6458"/>
<path d="M67.2239 30.4189L67.8212 33.2291L65.3331 34.6656L68.1904 34.966L68.7877 37.7762L69.9563 35.1516L72.8135 35.4519L70.6785 33.5295L71.847 30.9049L69.3589 32.3413L67.2239 30.4189Z" fill="#2A6458"/>
<path d="M46.3986 46.3987L47.703 48.9586L45.6714 50.9901L48.5091 50.5407L49.8134 53.1005L50.2628 50.2629L53.1004 49.8135L50.5406 48.5092L50.99 45.6715L48.9585 47.703L46.3986 46.3987Z" fill="#2A6458"/>
<path d="M30.4189 67.2241L32.3413 69.3592L30.9048 71.8472L33.5294 70.6787L35.4518 72.8137L35.1515 69.9565L37.7761 68.7879L34.9659 68.1906L34.6656 65.3334L33.2291 67.8214L30.4189 67.2241Z" fill="#2A6458"/>
<path d="M20.3735 91.4753L22.783 93.04L22.0394 95.8151L24.2722 94.0071L26.6817 95.5718L25.6521 92.8897L27.8848 91.0816L25.0158 91.232L23.9862 88.5498L23.2426 91.3249L20.3735 91.4753Z" fill="#2A6458"/>
<path d="M16.9473 117.5L19.6796 118.388L19.6796 121.261L21.3683 118.937L24.1007 119.824L22.412 117.5L24.1007 115.176L21.3683 116.064L19.6796 113.739L19.6796 116.612L16.9473 117.5Z" fill="#2A6458"/>
<path fill-rule="evenodd" clip-rule="evenodd" d="M109.388 43.2067L109.336 44.3672L110.194 44.5042L110.119 43.2821L110.614 42.5182C110.614 42.5182 111.083 42.6153 111.612 42.4564C112.142 42.2975 112.586 41.6677 112.67 41.5717C112.67 41.2595 113.13 40.7915 113.36 40.5965C113.36 40.5965 112.879 40.4602 112.548 40.5965C112.248 40.7201 111.479 40.2481 111.769 40.2364C112.971 40.1879 113.404 39.7554 113.404 39.7554L111.469 39.6963C111.469 39.6963 111.769 39.6407 113.63 39.1712C114.023 39.072 113.678 38.9081 113.678 38.9081C113.678 38.9081 112.027 39.0052 110.614 38.8411C110.388 38.8149 113.36 38.3697 113.36 38.3697L113.48 38.256C113.48 38.256 113.016 38.1755 112.548 38.0696C110.614 38.3697 109.662 37.7909 109.662 37.7909C111.586 37.6812 112.971 37.0457 112.971 37.0457C112.971 37.0457 112.734 36.8549 112.159 36.9133C111.118 37.0192 109.511 36.8458 109.511 36.8458C109.962 36.1895 111.718 36.419 111.718 36.419C111.525 36.0988 110.703 35.9423 109.384 35.7656C109.395 35.5763 108.882 34.9525 108.694 34.9273C108.36 34.9325 107.839 34.9405 107.839 34.9405C107.839 34.9405 107.278 34.9273 107.278 35.4039C106.157 35.9247 106.811 36.4238 106.413 36.5008C106.016 36.5779 104.719 37.1957 105.318 37.9561C105.318 37.9561 104.952 40.1603 105.783 41.0617C106.377 41.7058 107.839 41.9619 107.839 41.9619C107.839 41.9619 108.082 42.4676 108.334 42.712C108.699 43.066 109.388 43.2067 109.388 43.2067ZM107.57 35.8629C107.508 36.3748 107.245 36.6957 106.775 36.8458C105.513 37.2487 105.937 37.9561 105.937 37.9561C105.937 37.9561 105.937 39.8437 106.669 41.0088C106.413 40.8676 106.411 40.8385 106.254 40.7175C105.557 40.1791 105.734 37.9107 105.734 37.9107C105.734 37.9107 105.425 37.1251 106.59 36.7191C107.07 36.5518 107.389 36.3748 107.57 35.8629ZM110.05 42.4564L110.194 41.4967C110.318 41.5717 110.484 41.7705 110.43 41.8474C110.31 42.0154 110.165 42.3414 110.05 42.4564ZM108.694 42.0818C108.694 42.0818 109.229 42.7256 109.504 42.5976C109.504 42.5976 109.504 42.0239 109.504 41.6917C109.273 42.0818 108.694 42.0818 108.694 42.0818Z" fill="#2A6458"/>
<path d="M110.614 34.4552C109.799 34.4452 107.839 34.9405 107.839 34.9405C107.839 34.9405 108.36 34.9325 108.694 34.9273C109.239 34.9189 110.523 34.5655 110.523 34.5655C111.518 34.9456 113.558 36.8278 114.17 38.6161C114.295 39.1258 114.404 40.2114 113.84 40.4765C113.276 40.7415 113.285 40.6669 113.36 40.5965C113.13 40.7915 112.67 41.2595 112.67 41.5717C112.775 41.4516 113.27 41.1516 113.975 40.7315C114.539 40.3954 114.51 39.1812 114.425 38.6161C113.885 36.7197 111.699 34.8902 110.614 34.4552Z" fill="#2A6458"/>
<path d="M122.543 38.8895C122.482 39.2316 122.182 39.4913 121.823 39.4913C121.482 39.4913 121.196 39.2591 121.114 38.9445C121.503 38.9696 122.334 38.9938 122.543 38.8895Z" fill="#2A6458"/>
<path d="M122.513 38.5286C122.513 38.2373 122.139 38.0271 121.823 38.0271C121.482 38.0271 121.196 38.2593 121.114 38.5739C121.22 38.5711 121.355 38.5686 121.499 38.5658C121.918 38.5578 122.417 38.5483 122.513 38.5286Z" fill="#2A6458"/>
<path fill-rule="evenodd" clip-rule="evenodd" d="M124.41 34.1218L125.126 33.8945L125.85 34.0093L125.978 35.5717L127.068 35.6247C127.288 35.7354 127.501 35.8484 127.704 35.9601H124.526L124.676 36.0748H127.911C127.988 36.1183 128.063 36.1613 128.136 36.2038L124.914 36.2866L125.126 36.4014L128.357 36.333C128.458 36.3929 128.554 36.4509 128.645 36.5065L125.311 36.6221L125.62 36.8074L128.992 36.7231C129.34 36.9442 129.548 37.0899 129.548 37.0899L125.788 37.0457L125.978 37.3811H129.636L129.734 37.7049L127.911 37.7872V38.0553L127.704 37.7872H126.097L126.22 38.0961L129.826 38.0092L129.935 38.3684H129.107V38.6256L128.921 38.3684L128.153 38.4711L126.371 38.5739L126.503 39.0593L130.115 38.964L130.226 39.3318H128.833L128.921 39.7466L128.418 39.3847L126.609 39.4376L126.777 39.8966H130.413L130.563 40.4451H129.433V41.6367L123.025 43.0566V40.9205H120.677V43.6745L118.409 44.5395V40.4484L119.38 37.0457L121.092 36.2038L119.142 37.0457L118.144 40.4484H117.279C117.667 39.3186 118.409 36.8604 118.409 36.8604C118.409 36.8604 120.994 35.6247 121.807 35.6247L124.588 37.1428L125.62 40.4451L126.273 40.4484C126.273 40.4484 125.832 39.376 125.126 37.0899C124.226 36.7103 122.319 35.5717 122.319 35.5717H124.279L124.41 34.1218ZM125.686 34.2035L125.219 34.358V34.4375L125.576 34.358L125.686 35.3907L125.744 35.4481L125.686 34.2035ZM122.875 38.7139C122.875 39.3372 122.446 39.7908 121.823 39.7908C121.017 39.8217 120.757 39.3054 120.757 38.7592C120.757 38.1358 121.225 37.69 121.823 37.6305C122.606 37.6901 122.759 37.9818 122.875 38.7139Z" fill="#2A6458"/>
<path d="M120.845 41.4722V43.1183L121.556 42.1915L120.845 41.4722Z" fill="#2A6458"/>
<path d="M122.562 41.1853L121.692 41.94L120.845 41.1589L122.562 41.1853Z" fill="#2A6458"/>
<path d="M121.776 42.2886L120.933 43.3434V43.6127L122.522 43.1183L121.776 42.2886Z" fill="#2A6458"/>
<path d="M121.895 42.1209L122.646 42.7476V41.3795L121.895 42.1209Z" fill="#2A6458"/>
<path d="M100.005 42.41V42.9742H99.4058V42.3216C98.965 42.3216 98.1047 42.1453 98.1893 41.44C98.2951 40.5585 99.5997 40.3472 99.8995 40.2767C100.139 40.2203 100.933 40.4241 101.169 40.929C101.332 41.2783 101.197 41.5637 101.169 41.9163C101.141 42.2689 100.381 42.3924 100.005 42.41Z" fill="#2A6458"/>
<path d="M102.885 42.7466V43.2507L103.308 43.3081V42.6841C103.619 42.6841 104.227 42.5596 104.167 42.0617C104.092 41.4393 103.474 41.1117 103.262 41.0619C103.093 41.0221 102.458 41.1468 102.291 41.5033C102.176 41.7499 102.043 42.0131 102.063 42.2621C102.083 42.5111 102.619 42.7341 102.885 42.7466Z" fill="#2A6458"/>
<path d="M146.03 41.2408V41.9359L146.614 42.015V41.1547C147.043 41.1547 147.881 40.9831 147.798 40.2965C147.695 39.4383 146.843 38.9867 146.551 38.9181C146.318 38.8631 145.442 39.0351 145.213 39.5267C145.054 39.8667 144.87 40.2296 144.898 40.5729C144.925 40.9162 145.664 41.2236 146.03 41.2408Z" fill="#2A6458"/>
<path fill-rule="evenodd" clip-rule="evenodd" d="M131.97 40.8509C131.97 40.8509 131.624 40.9425 131.459 40.7856C131.294 40.6288 131.781 39.5364 131.459 38.6143C131.947 38.8449 131.947 38.6143 132.264 38.7076C132.869 38.075 132.768 37.5727 133.136 37.2497C133.369 37.0458 136.511 36.8745 137.295 37.0703C137.344 37.1319 137.785 37.4367 137.866 37.9876C137.458 38.7711 137.845 39.4972 137.825 39.8868C137.952 40.0299 137.967 40.3625 137.986 40.4513C137.94 40.56 137.843 40.2419 137.843 40.2419C137.853 40.1005 137.843 40.0461 137.825 39.8868C137.826 39.7945 137.605 39.1131 137.606 38.3746C137.587 38.7692 137.568 38.9898 137.646 39.4511L137.791 39.9481L137.606 40.9273H137.269L137.421 40.0461C137.359 40.0184 137.276 39.9759 137.188 39.921L136.921 40.9273H136.551L136.779 40.0461C136.641 39.9663 136.351 39.724 136.29 39.3933L135.58 39.647L134.519 39.624L134.712 40.2419L134.843 41.1558H134.462L134.277 40.4051L133.929 39.785L133.828 40.4677L133.592 41.1558H133.189L133.373 40.4677L133.422 39.785C133.422 39.785 133.136 39.8038 132.982 39.7197C132.795 40.4584 131.97 40.8509 131.97 40.8509ZM132.781 38.7076C132.719 39.0296 132.456 39.2801 132.264 39.3933C132.134 39.1753 132.516 39.14 132.781 38.7076ZM136.94 37.3235C136.621 37.2796 134.907 37.2497 133.929 37.5438C134.669 37.1956 136.616 37.1192 137.117 37.228C137.295 37.4434 137.486 37.8374 137.421 38.0877C137.421 37.9862 137.278 37.3701 136.94 37.3235Z" fill="#2A6458"/>
<path fill-rule="evenodd" clip-rule="evenodd" d="M142.722 41.0812L143.013 41.044C143.044 40.7236 143.049 39.9354 142.896 39.7916C142.803 39.8601 142.604 39.7771 142.555 39.8598C142.493 39.5973 142.335 39.0613 142.201 39.0166C142.034 38.9608 140.062 38.843 139.616 38.9546C139.169 39.0662 139.355 40.6535 139.306 40.8829C139.266 41.0664 139.289 40.98 139.306 40.9139C139.343 40.575 139.415 39.8092 139.405 39.4569C139.459 39.6388 139.555 40.0682 139.51 40.3311L139.405 40.5667L139.51 41.1247H139.703L139.616 40.6225C139.651 40.6067 139.698 40.5825 139.749 40.5512L139.901 41.1247H140.112L139.982 40.6225C140.06 40.577 140.226 40.439 140.261 40.2505L140.744 40.4365L141.408 40.3807L141.16 40.7341L141.085 41.2549H141.302L141.408 40.8271L141.606 40.4737L141.798 41.2549H142.028L141.922 40.4737L142.145 40.4365L142.722 41.0812ZM142.282 39.8598C142.327 39.9632 142.445 40.186 142.555 40.2505C142.664 40.315 142.418 40.0169 142.282 39.8598ZM139.789 39.1966C139.928 39.0874 141.058 39.1511 141.606 39.1966C141.184 38.9982 140.075 38.9546 139.789 39.0166C139.561 39.0662 139.579 39.3639 139.616 39.5065C139.616 39.4487 139.651 39.3057 139.789 39.1966Z" fill="#2A6458"/>
<path d="M141.606 39.1966C141.058 39.1511 139.928 39.0874 139.789 39.1966C139.651 39.3057 139.616 39.4487 139.616 39.5065C139.579 39.3639 139.561 39.0662 139.789 39.0166C140.075 38.9546 141.184 38.9982 141.606 39.1966Z" fill="#2A6458"/>
<path d="M142.282 39.8598C142.327 39.9632 142.445 40.186 142.555 40.2505C142.664 40.315 142.418 40.0169 142.282 39.8598Z" fill="#2A6458"/>
<path d="M133.823 41.3861C132.472 41.444 131.107 41.5382 129.733 41.6921C129.996 41.7506 130.352 41.8106 130.779 41.8587C132.287 42.0291 134.673 42.0504 136.919 41.3248C135.907 41.3214 134.873 41.3412 133.823 41.3861Z" fill="#2A6458"/>
<path d="M117.279 44.9085C117.279 44.9257 117.279 44.9427 117.277 44.9596C117.435 44.8799 117.593 44.8016 117.751 44.7245C117.614 44.7031 117.62 44.2509 117.641 44.0275C117.335 44.3945 117.286 44.7621 117.279 44.9085Z" fill="#2A6458"/>
<path d="M116.441 43.6038C116.836 44.5218 116.872 45.0398 116.84 45.1841C116.986 45.1081 117.131 45.0333 117.277 44.9596C117.277 44.9483 117.278 44.931 117.279 44.9085C117.271 44.4336 116.723 43.8457 116.441 43.6038Z" fill="#2A6458"/>
<path fill-rule="evenodd" clip-rule="evenodd" d="M113.711 46.0647C114.833 45.8708 115.93 45.6812 116.84 45.1841C116.986 45.1081 117.131 45.0333 117.277 44.9596C117.435 44.8799 117.593 44.8016 117.751 44.7245C121.91 42.7009 126.224 41.5914 130.369 41.0978C131.008 41.2965 132.589 41.5194 133.799 40.8217C137.251 40.6738 140.493 40.9148 143.346 41.361C143.346 41.361 144.174 41.2559 144.227 40.9382C144.447 41.1721 144.545 41.5642 144.545 41.5642C147.198 42.0498 149.463 42.7034 151.176 43.3576C150.846 43.5084 150.503 43.4058 150.211 43.3182C149.991 43.2525 149.8 43.1953 149.664 43.2596C149.24 43.1759 148.445 42.9465 147.584 42.6977C146.405 42.357 145.1 41.98 144.447 41.8914C142.138 41.5781 139.688 41.334 136.919 41.3248C135.907 41.3214 134.873 41.3412 133.823 41.3861C132.472 41.444 131.107 41.5382 129.733 41.6921C127.274 41.9675 125.253 42.663 122.893 43.4753C121.252 44.04 119.447 44.6611 117.217 45.2367C117.143 45.2761 117.082 45.3261 117.013 45.3833C116.804 45.5553 116.516 45.7927 115.54 46.0046C114.376 46.4076 113.425 46.4912 112.493 46.5731C111.955 46.6203 111.424 46.667 110.862 46.7742C111.761 46.4018 112.745 46.2316 113.711 46.0647Z" fill="#2A6458"/>
<path d="M97.711 42.8641C102.132 42.9684 106.937 43.5085 111.478 44.8143C112.853 45.228 113.724 45.3848 115.028 45.9516C114.137 46.4106 111.042 44.6916 111.78 45.8458C109.968 45.6752 105.534 45.1819 101.17 45.1396C101.753 44.5747 109.344 45.0336 109.11 44.8747C105.149 43.845 100.13 42.9998 91.5494 43.5155C88.7184 43.2238 86.0593 44.2569 83.6055 43.9978C84.5069 43.8081 85.5968 43.6186 86.8391 43.4496C88.0019 43.2914 89.4076 43.0606 90.808 42.9551C92.9393 42.7946 95.202 42.8049 97.711 42.8641Z" fill="#2A6458"/>
<path d="M86.8391 43.4496C88.0019 43.2914 89.4076 43.0606 90.808 42.9551C89.1529 42.1935 87.4359 42.9976 86.8391 43.4496Z" fill="#2A6458"/>
<path fill-rule="evenodd" clip-rule="evenodd" d="M129.57 44.0286C129.395 44.1062 129.101 44.1863 128.89 44.1863C128.601 44.1863 126.203 44.407 125.249 44.6542C126.326 43.5123 128.622 43.6214 128.89 43.6214C129 43.6214 129.215 43.5681 129.34 43.5123C129.845 43.2879 131.758 43.3214 133.533 43.6217C130.911 43.7627 130.198 43.7493 129.57 44.0286Z" fill="#2A6458"/>
<path fill-rule="evenodd" clip-rule="evenodd" d="M121.398 46.4949C119.129 47.6075 114.504 47.6425 114.01 48.2957C114.01 47.8808 115.434 47.4245 115.537 47.3072C118.856 46.8126 120.55 45.9476 121.398 46.4949Z" fill="#2A6458"/>
<path d="M127.278 46.1751C127.396 46.2898 126.989 46.3714 126.926 46.2606C126.494 46.317 125.96 46.1677 125.559 46.3227C125.563 46.0688 125.26 45.5576 125.108 45.3338C125.302 46.19 125.108 46.4156 125.108 46.4156C125.108 46.4156 124.695 46.2755 124.429 46.2606C124.658 46.4022 123.552 46.9541 123.552 46.9541C123.552 46.9541 123.661 46.446 123.431 45.8597C123.278 46.6755 122.957 47.0758 123.039 47.1236C122.028 47.465 121.842 48.0524 119.071 48.2957C119.662 48.2957 121.329 48.406 121.578 48.2957C121.99 48.1125 122.851 47.5253 123.278 47.3777C123.729 47.2214 124.463 47.0947 124.92 46.9541C125.439 46.7942 126.104 47.1043 126.607 46.897C126.911 46.7719 127.189 46.8962 127.486 46.7311C127.971 46.1529 128.563 46.7664 128.921 46.2129C128.36 45.9895 127.474 46.0666 127.278 46.1751Z" fill="#2A6458"/>
<path fill-rule="evenodd" clip-rule="evenodd" d="M130.181 46.0366C131.257 46.0763 132.539 45.6881 133.304 45.6881C133.894 45.6881 138.498 45.648 139.39 46.0366C137.986 46.2131 133.911 46.253 133.304 46.253C132.54 46.253 131.292 46.253 130.181 46.0366Z" fill="#2A6458"/>
<path d="M142.454 46.2275C142.088 46.1982 142.556 46.0234 142.556 45.688C142.909 45.9662 143.444 46.0287 143.786 46.0687L143.789 46.069C144.013 46.0952 144.277 46.1337 144.277 45.9793C144.882 46.1867 145.651 46.4598 146.254 46.5513C146.552 46.5964 146.821 46.7102 147.119 46.7465C147.353 46.775 147.525 46.9017 147.741 46.9524C147.882 46.9853 148.023 46.9813 148.162 47.0283C148.411 47.1123 148.654 47.226 148.908 47.2957C145.067 46.6017 143.016 46.2723 142.454 46.2275Z" fill="#2A6458"/>
<path d="M97.7574 45.9344L97.7808 45.9354C97.8799 45.9398 98.0075 45.9455 98.1298 45.9726C98.6434 46.0868 99.1789 46.0573 99.6985 46.1498C100.083 46.2183 102.007 46.7152 102.007 46.7152C102.007 46.7152 99.3779 46.6093 98.7786 46.6093C98.5366 46.6093 98.2428 46.5764 98.0073 46.5241C97.9348 46.508 97.8534 46.5043 97.7391 46.4991L97.7316 46.4987C97.6252 46.4938 97.4851 46.4873 97.3501 46.45C96.5601 46.2321 95.441 46.336 94.658 46.481C93.5519 46.6858 87.9752 47.3138 87.9752 47.3138C87.9752 47.3138 93.5122 46.0333 94.5551 45.9255C95.6211 45.7281 96.689 45.8856 97.7574 45.9344Z" fill="#2A6458"/>
<path fill-rule="evenodd" clip-rule="evenodd" d="M87.3038 45.281C86.2989 45.4057 85.3796 45.6341 84.8183 45.6987C89.1927 43.9569 90.8609 44.8749 90.8609 44.8749C90.8609 44.8749 88.6642 45.112 87.3038 45.281Z" fill="#2A6458"/>
<path fill-rule="evenodd" clip-rule="evenodd" d="M94.3828 44.4423C95.2301 44.8572 95.7615 45.6251 95.8607 45.8614C95.8661 45.8744 95.8716 45.8873 95.877 45.9002C95.9374 46.044 95.8698 46.2096 95.7259 46.27C95.5821 46.3304 95.4165 46.2628 95.3561 46.119C95.3513 46.1074 95.3465 46.096 95.3417 46.0845C95.2425 45.8483 95.0183 45.4222 94.3828 44.4423Z" fill="#2A6458"/>
<path fill-rule="evenodd" clip-rule="evenodd" d="M96.9866 44.0716C96.6249 44.7376 96.4701 45.5129 96.1095 46.1488C96.0325 46.2844 95.8601 46.3321 95.7244 46.2551C95.5887 46.1781 95.5411 46.0058 95.6181 45.8701C95.993 45.2091 96.4865 44.6535 96.9866 44.0716Z" fill="#2A6458"/>
<path fill-rule="evenodd" clip-rule="evenodd" d="M139.972 44.1968C139.35 44.1968 138.75 44.4087 138.136 44.4087C137.234 44.4087 136.351 44.4777 135.441 44.4321C137.152 43.985 137.218 44.0821 138.136 43.8438C138.748 43.8438 139.351 43.6319 139.972 43.6319H141.014C141.612 43.6319 142.199 43.7732 142.797 43.7732C143.713 43.7732 143.468 44.0115 145.257 44.0115C145.624 44.1744 146.606 44.2366 147.173 44.4797C147.528 44.7044 147.665 44.6293 148.907 45.4027C148.247 45.3002 147.173 44.5905 146.222 44.9118C146.222 44.647 145.918 44.6327 145.257 44.5905C144.441 44.5383 143.615 44.1968 142.797 44.1968C142.199 44.1968 141.611 44.1968 141.014 44.1968H139.972Z" fill="#2A6458"/>
<path fill-rule="evenodd" clip-rule="evenodd" d="M139.553 42.7581C139.948 43.3495 140.085 43.387 140.341 43.6204C140.271 43.7599 140.008 43.8984 139.869 43.8286C139.82 43.6492 139.582 43.3826 139.553 42.7581Z" fill="#2A6458"/>
<path fill-rule="evenodd" clip-rule="evenodd" d="M144.754 43.0874C144.359 43.6788 144.222 43.7163 143.966 43.9497C144.036 44.0893 144.299 44.2277 144.438 44.158C144.487 43.9786 144.725 43.7119 144.754 43.0874Z" fill="#2A6458"/>
<path fill-rule="evenodd" clip-rule="evenodd" d="M145.056 43.376C144.668 43.6452 144.452 44.0247 144.452 44.1704C144.522 44.3099 144.776 44.324 144.915 44.2542C144.889 43.9585 144.889 43.6981 145.056 43.376Z" fill="#2A6458"/>
<path fill-rule="evenodd" clip-rule="evenodd" d="M140.149 43.7157C140.317 43.8102 140.529 43.9005 140.665 43.7157C140.861 43.4499 140.72 43.3054 140.837 42.8861C140.595 43.0626 140.599 43.5415 140.149 43.7157Z" fill="#2A6458"/>
<path fill-rule="evenodd" clip-rule="evenodd" d="M94.3651 42.9462H97.3397C97.3397 42.9462 97.1456 40.8102 94.5417 40.3042C94.4729 40.2908 94.4152 40.3851 94.2732 40.3042C94.1312 40.2232 94.0843 40.1407 93.9856 40.1305C91.865 40.1305 90.7197 43.1448 90.7197 43.1448C90.7197 43.1448 92.2446 42.9462 94.3651 42.9462ZM96.7924 42.5976C95.7474 41.27 94.93 40.6557 94.3651 40.6557C94.9035 40.7352 95.3978 41.6973 95.6626 42.2004C95.3714 41.3265 96.7924 42.5976 96.7924 42.5976Z" fill="#2A6458"/>
<path d="M110.597 44.7689C110.597 44.7689 111.689 45.475 112.663 45.475C113.637 45.475 114.34 45.9693 113.104 44.7689C112.691 44.3674 112.663 43.9745 111.974 43.6215C111.003 43.851 110.597 44.7689 110.597 44.7689Z" fill="#2A6458"/>
<path fill-rule="evenodd" clip-rule="evenodd" d="M122.725 177.674C122.655 177.808 122.582 177.944 122.507 178.08C122.343 178.392 122.185 178.709 122.032 179.032C121.311 180.533 120.859 181.927 120.675 183.212C120.655 183.35 120.685 183.082 120.675 183.212C120.59 184.296 120.791 185.516 121.368 186.07C121.807 186.462 122.459 186.794 123.322 187.065C124.173 187.326 124.974 187.255 125.725 186.851C129.476 184.426 131.932 181.084 133.483 177.008C133.568 176.785 134.257 175.515 134.06 175.689C133.206 177.425 130.287 181.624 128.495 183.063C128.846 182.626 130.006 181.09 130.432 180.134C129.368 181.437 127.967 182.761 126.935 183.636C125.903 184.511 125.108 184.954 124.549 184.967C124.228 184.927 124.078 184.641 124.1 184.11C124.134 183.567 124.25 182.973 124.447 182.328C124.645 181.684 124.834 181.178 125.014 180.812C127.805 180.89 129.689 177.785 130.283 176.222L130.807 175.798C129.429 180.385 126.371 181.052 125.014 180.812C128.019 181.708 130.377 178.446 131.389 175.798C131.766 174.845 131.935 173.978 131.967 173.584C132.001 173.074 131.735 172.694 131.169 172.444C130.959 172.355 130.763 172.271 130.578 172.19C129.951 171.878 129.419 171.867 128.913 171.769C128.406 171.672 127.858 171.798 127.269 172.147C126.391 172.715 125.476 173.633 124.523 174.899C123.875 175.754 123.284 176.665 122.748 177.632C122.745 177.639 122.741 177.645 122.738 177.652C122.74 177.655 122.739 177.661 122.725 177.674ZM127.779 175.922C128.312 175.213 128.749 174.716 129.089 174.433C129.017 174.993 128.819 175.654 128.495 176.418C128.184 177.168 127.782 177.838 127.288 178.428C126.794 179.006 126.262 179.302 125.691 179.315C125.707 179.13 125.925 178.695 126.347 178.011C126.781 177.326 127.258 176.63 127.779 175.922Z" fill="#E11F1F"/>
<path d="M116.398 180.369C117.677 179.494 118.096 178.481 118.404 177.736C118.413 177.715 118.421 177.694 118.429 177.674C118.406 177.947 118.258 178.888 117.636 179.607C117.248 179.975 116.918 180.143 116.398 180.369Z" fill="#E11F1F"/>
<path fill-rule="evenodd" clip-rule="evenodd" d="M140.16 178.796C141.231 178.501 142.714 177.709 143.425 176.923C143.698 176.59 143.707 176.013 143.673 175.81C143.171 176.457 142.525 176.713 142.264 176.76C142.311 176.738 142.365 176.714 142.422 176.687C142.851 176.463 143.398 175.995 143.642 175.765C143.514 175.645 143.294 175.637 142.985 175.852C142.168 176.482 140.98 176.928 139.897 177.143C138.815 177.347 137.769 177.258 136.807 176.976C137.403 175.525 138.229 174.062 139.284 172.587C140.34 171.113 141.49 169.879 142.735 168.886C143.051 168.559 143.261 168.067 142.959 167.634C142.466 167.992 140.444 169.738 139.055 171.8C141.415 168.188 142.735 167.009 142.735 167.009L141.528 166.695C140.889 166.56 140.429 166.574 140.065 166.803C138.908 167.74 137.866 169.006 136.692 170.897C135.518 172.776 134.434 174.817 133.44 177.018C132.434 179.221 131.604 181.275 130.95 183.182C130.284 185.078 129.874 186.524 129.72 187.518C129.595 188.257 129.613 188.978 129.774 189.681C129.923 190.397 130.455 190.824 131.37 190.962C132.186 191.055 132.919 191.01 133.567 190.825C134.227 190.651 134.805 190.212 135.301 189.507C135.734 188.891 136.188 188.094 136.664 187.116C137.14 186.139 137.524 185.121 137.816 184.063C138.12 182.993 138.218 182.022 138.109 181.152C138.013 180.269 137.61 179.608 136.898 179.168C138.001 179.214 139.088 179.09 140.16 178.796ZM134.853 185.432C134.283 186.788 133.557 187.834 132.898 188.662C132.865 188.023 132.999 187.403 133.143 186.735C133.161 186.651 133.179 186.567 133.198 186.482C133.36 185.704 133.572 184.955 133.833 184.233C133.924 183.958 134.061 183.568 134.244 183.063C134.427 182.547 134.615 182.041 134.81 181.546C135.005 181.04 135.167 180.658 135.296 180.401C135.609 180.879 135.756 181.371 135.734 181.879C135.729 182.878 135.435 184.062 134.853 185.432Z" fill="#E11F1F"/>
<path fill-rule="evenodd" clip-rule="evenodd" d="M101.732 178.449C101.126 179.053 98.3183 182.604 98.3183 182.604C98.3183 182.604 100.63 179.074 101.664 177.064C101.784 176.83 101.899 176.606 102.011 176.389L102.012 176.388C102.859 174.745 103.47 173.561 104.073 172.115C104.369 171.404 104.479 170.659 103.498 170.837C102.576 170.973 100.422 172.614 99.9652 173.565C99.7231 174.069 99.5091 174.497 99.2971 174.921C98.8245 175.867 98.3619 176.792 97.6207 178.498C96.4309 181.263 95.5098 183.558 94.8574 185.384C94.7262 185.791 94.7514 186.121 94.9329 186.373C95.1268 186.625 95.3902 186.804 95.7231 186.912C96.0063 187.025 96.2972 187.052 96.5958 186.992C96.8945 186.932 97.2023 186.704 97.5193 186.309C97.8241 185.903 98.3498 185.275 99.0965 184.425C99.8558 183.561 100.709 182.669 101.655 181.747C102.614 180.824 103.545 180.065 104.448 179.47C105.352 178.864 106.085 178.706 106.712 178.706C107.591 178.767 107.823 179.9 107.298 180.285C105.304 181.533 103.092 183.232 100.66 185.383C98.2294 187.523 96.2631 189.673 94.7616 191.835C93.7668 193.393 93.4106 194.597 93.6932 195.445C93.9757 196.294 94.7128 196.684 95.9043 196.615C97.0959 196.547 98.5454 195.919 100.253 194.73C102.941 192.776 105.313 190.472 107.369 187.817C109.437 185.16 110.677 182.704 111.089 180.449C111.465 179.432 112.915 177.405 113.817 177.046C113.123 177.297 112.368 177.618 111.673 177.966C111.385 178.094 111.085 178.229 110.773 178.371C110.386 177.8 109.855 177.338 109.179 176.986C108.516 176.633 107.825 176.455 107.105 176.453C108.025 175.64 108.902 174.774 109.737 173.87C110.647 172.884 111.36 171.814 111.877 170.659C112.189 169.805 112.136 168.986 111.716 168.2C111.308 167.402 110.675 166.758 109.816 166.268C108.969 165.777 108.037 165.555 107.019 165.602C105.541 165.74 103.938 166.296 102.209 167.269C100.481 168.231 98.8172 169.414 97.2175 170.819C95.6181 172.212 94.2849 173.623 93.2179 175.053C92.151 176.483 91.5524 177.723 91.4222 178.772C91.3662 179.835 91.6998 180.597 92.4232 181.057C93.1469 181.506 93.9064 181.675 94.702 181.565C95.5099 181.452 96.0126 181.074 96.2101 180.43C95.0647 180.687 94.5428 180.403 94.6443 179.575C94.746 178.736 95.3302 177.607 96.3969 176.189C98.9556 172.822 102.412 170.03 106.188 168.391C107.376 167.864 108.228 167.683 108.746 167.848C109.324 168.12 109.445 168.667 109.108 169.49C108.783 170.311 108.183 171.263 107.308 172.348C106.446 173.431 105.503 174.519 104.479 175.61C103.456 176.691 102.54 177.637 101.732 178.449ZM100.001 191.077C98.6137 192.421 97.5002 193.329 96.661 193.801C96.9884 192.819 97.7157 191.667 98.8427 190.344C99.9824 189.008 101.239 187.721 102.612 186.482C103.986 185.232 105.194 184.249 106.236 183.534C105.912 184.309 105.142 185.421 103.926 186.869C102.71 188.318 101.402 189.72 100.001 191.077ZM97.2516 190.165C98.8512 188.22 102.631 184.054 105.386 182.38C103.458 183.532 99.5964 186.407 97.2516 190.165ZM95.4176 185.374L100.66 173.64C101.154 173.069 101.575 172.779 102.012 172.61L95.4176 185.374Z" fill="#E11F1F"/>
<path fill-rule="evenodd" clip-rule="evenodd" d="M116.398 180.369C116.891 180.155 117.299 179.895 117.636 179.607C118.258 178.888 118.406 177.947 118.429 177.674C118.421 177.694 118.413 177.715 118.404 177.736C118.096 178.481 117.677 179.494 116.398 180.369Z" fill="#E11F1F"/>
<path fill-rule="evenodd" clip-rule="evenodd" d="M120.365 183.922C118.833 185.674 117.265 187.069 115.659 188.108C114.908 188.511 114.107 188.582 113.256 188.321C112.393 188.05 111.741 187.719 111.302 187.326C110.656 186.706 110.425 185.754 110.609 184.469C110.793 183.183 111.245 181.79 111.966 180.288C112.035 180.142 112.106 179.996 112.177 179.852C112.669 178.862 113.215 177.926 113.817 177.046C114.024 176.742 114.237 176.446 114.457 176.156C115.41 174.889 116.267 173.971 117.145 173.403C117.734 173.054 118.34 172.928 118.847 173.026C119.353 173.123 119.793 173.272 120.42 173.584C120.42 173.584 120.57 173.649 120.715 174.037C120.804 173.724 121.18 173.593 121.487 173.832C121.794 174.07 121.97 174.431 121.936 174.94C121.904 175.335 121.7 176.101 121.323 177.055C120.594 178.961 117.089 183.446 114.948 182.068C114.389 183.206 114.041 184.151 113.964 185.374C113.942 185.904 114.162 186.183 114.483 186.223C115.042 186.211 115.916 185.809 116.948 184.934C117.981 184.059 119.047 182.981 120.111 181.678C121.065 180.5 121.862 179.254 122.507 178.08C122.343 178.392 122.185 178.709 122.032 179.032C121.311 180.533 120.859 181.927 120.675 183.212C120.642 183.251 120.627 183.309 120.607 183.386C120.574 183.513 120.528 183.692 120.365 183.922ZM119.023 175.689C118.683 175.973 118.246 176.469 117.713 177.178C117.192 177.886 116.715 178.582 116.281 179.268C115.86 179.951 115.641 180.386 115.625 180.572C115.891 180.565 116.149 180.498 116.398 180.369C116.918 180.143 117.248 179.975 117.636 179.607C119.098 178.355 119.204 176.57 119.023 175.689ZM115.236 176.156C115.818 175.364 117.489 173.764 118.558 173.481C117.94 173.2 116.703 173.854 115.236 176.156Z" fill="#E11F1F"/>
<path fill-rule="evenodd" clip-rule="evenodd" d="M60.8154 132.805H74.938V137.324H66.4645V141.843H72.6784V142.973L73.8082 144.103L72.6784 145.233V146.362H66.4645V156.531H61.9452V145.233L60.8154 144.103L61.9452 142.973V137.934C61.9474 137.923 61.9496 137.912 61.9519 137.901C62.0058 137.64 62.0981 137.192 62.3513 137.05C62.4107 137.017 62.1581 137.042 61.9452 137.077V134.499C61.9452 133.704 60.8154 132.805 60.8154 132.805ZM68.1856 134.702C68.1856 134.702 73.7556 135.05 73.8346 135.082C67.4 135.241 64.4873 135.347 64.4873 135.347V143.644C64.4873 143.644 65.3347 143.538 72.1135 144.103C67.8768 144.385 64.4873 144.385 64.4873 144.385C64.4873 144.385 64.8933 149.593 64.2224 154.218C64.1858 154.034 64.0329 152.718 63.8972 151.55C63.7929 150.652 63.6988 149.842 63.6753 149.699C64.1166 146.963 63.9224 144.385 63.9224 144.385H62.5102C62.0248 144.54 61.9982 143.966 62.3425 143.966L62.6557 144.032C62.6557 144.032 62.5526 143.911 62.5102 143.82C62.4148 143.616 62.4544 143.632 62.6081 143.694C62.8298 143.785 63.289 143.972 63.9224 143.732C64.0224 142.852 63.8939 141.225 63.7629 139.569C63.605 137.573 63.4436 135.532 63.6753 134.702C66.7998 134.923 68.1856 134.702 68.1856 134.702ZM69.1477 143.22C68.6534 143.22 68.6475 142.926 68.7063 142.779C68.8829 142.729 69.2536 142.645 69.3242 142.708C69.4125 142.788 69.7655 143.22 69.1477 143.22ZM65.1404 145.771C65.0815 145.918 65.7281 146.684 65.5817 146.212C65.4732 145.863 65.6396 145.789 65.725 145.752C65.7637 145.735 65.7857 145.725 65.7582 145.7C65.6876 145.637 65.3169 145.721 65.1404 145.771Z" fill="#2A6458"/>
<path fill-rule="evenodd" clip-rule="evenodd" d="M156.284 142.973V132.805H160.803L168.147 146.927V146.534C168.294 146.943 168.589 147.641 168.836 147.81C168.812 147.339 168.673 146.239 168.306 145.603C168.239 145.487 168.187 145.423 168.147 145.399V132.805H173.796C173.796 132.805 172.666 133.704 172.666 134.499V142.973L173.796 144.103L172.666 145.233V156.531H168.147L160.803 142.408V156.531H156.284V145.233L155.154 144.103L156.284 142.973ZM158.941 134.252C158.57 133.529 158.021 134.104 157.979 134.499C157.837 135.832 157.915 137.57 158.003 139.504C158.018 139.839 158.135 140.227 158.259 140.636C158.529 141.525 158.828 142.512 158.164 143.273C157.89 143.588 157.317 143.926 157.317 143.926C157.317 143.926 157.855 144.834 157.864 145.197C157.881 145.838 157.896 146.442 157.91 147.01C157.985 150.037 158.036 152.089 158.208 153.715C158.222 153.841 158.187 153.971 158.138 154.153C158.116 154.233 158.091 154.324 158.067 154.43C157.971 154.847 158.111 155.039 158.208 155.171C158.401 155.435 158.914 155.41 159.012 155.171C159.091 154.977 159.103 154.918 159.126 154.804C159.137 154.746 159.152 154.674 159.179 154.562C159.206 154.455 159.174 154.346 159.142 154.234C159.112 154.128 159.081 154.019 159.1 153.909C158.473 150.07 158.932 145.197 158.932 145.197C158.932 145.197 159.012 144.518 159.268 144.138C159.426 144.067 159.426 143.653 159.426 143.653C159.426 143.653 158.253 138.109 158.826 135.03C158.99 135.082 159.361 135.661 159.884 136.606C159.939 136.594 160.114 136.658 160.373 137.005C159.885 136.08 159.405 135.158 158.941 134.252ZM160.771 137.756L160.618 137.553C160.609 137.64 160.623 137.835 160.75 137.915C160.878 137.996 160.818 137.843 160.771 137.756ZM160.712 138.155C161.199 139.087 161.757 140.181 162.362 141.367C164.681 145.914 167.697 151.828 170.124 155.308C170.319 155.48 170.628 155.382 170.654 155.171C170.981 152.545 171.019 148.603 170.948 144.827C171.062 144.527 171.332 143.926 171.501 143.926C171.609 143.926 171.496 143.764 171.335 143.535C171.181 143.316 170.984 143.035 170.899 142.776C170.762 138 170.495 133.97 170.495 133.97C170.495 133.97 170.358 135.077 170.283 135.788C169.864 139.754 170.094 144.642 170.266 148.312C170.395 151.043 170.416 153.388 170.186 153.565C168.659 152.312 164.764 145.208 161.152 138.469C160.927 138.442 160.775 138.265 160.712 138.155ZM160.203 137.005C160.23 137.132 160.323 137.419 160.486 137.553C160.648 137.688 160.365 137.244 160.203 137.005ZM162.074 138.63L162.059 138.591C161.729 137.778 161.005 135.994 160.373 135.629C160.705 136.434 161.778 138.289 162.074 138.63ZM168.624 139.778C168.628 140.027 168.766 140.422 168.924 140.449C168.981 140.458 169.102 140.248 169.008 140.051L168.624 139.778ZM168.955 139.217C168.84 138.893 169.391 139.036 169.228 139.416C169.187 139.386 169.146 139.371 169.109 139.357C169.044 139.333 168.989 139.313 168.955 139.217ZM168.836 138.048C168.732 138.288 168.638 138.668 168.624 138.948C168.764 138.863 170.283 137.915 168.836 138.048Z" fill="#2A6458"/>
<path fill-rule="evenodd" clip-rule="evenodd" d="M134.784 146.927L135.52 146.191C135.825 141.545 139.075 137.889 143.823 137.889C148.57 137.889 151.795 141.545 152.099 146.191L152.861 146.927L152.099 147.689C151.795 152.335 148.57 155.966 143.823 155.966C139.075 155.966 135.825 152.335 135.52 147.689L134.784 146.927ZM134.972 147.935L133.992 146.921L134.973 145.94C135.379 141.149 138.802 137.324 143.823 137.324C148.844 137.324 152.239 141.148 152.647 145.934L153.667 146.92L152.647 147.94C152.242 152.73 148.844 156.531 143.823 156.531C138.802 156.531 135.376 152.729 134.972 147.935ZM146.857 143.458C146.167 142.613 145.154 142.084 143.823 142.084C142.491 142.084 141.471 142.614 140.774 143.459C140.067 144.316 139.665 145.533 139.665 146.927C139.665 148.322 140.067 149.546 140.775 150.409C141.473 151.262 142.493 151.796 143.823 151.796C145.152 151.796 146.165 151.262 146.856 150.411C147.558 149.548 147.955 148.324 147.955 146.927C147.955 145.531 147.558 144.314 146.857 143.458ZM148.52 146.927C148.52 143.931 146.819 141.519 143.823 141.519C140.827 141.519 139.1 143.931 139.1 146.927C139.1 149.923 140.827 152.361 143.823 152.361C146.819 152.361 148.52 149.923 148.52 146.927Z" fill="#2A6458"/>
<path fill-rule="evenodd" clip-rule="evenodd" d="M137.626 145.796C137.882 142.32 140.736 140.078 143.84 140.078C145.517 140.078 148.006 141.208 148.182 141.968C148.391 142.585 148.712 143.157 149.034 143.73C149.411 144.402 149.791 145.077 149.993 145.833C150.087 146.184 149.869 147.148 149.869 147.148C149.869 147.148 150.115 147.691 150.061 148.051C149.575 151.333 147.293 153.494 144.176 153.494C143.794 153.028 143.199 153.329 142.949 153.537C140.88 153.13 138.013 150.73 137.618 148.042C137.565 147.685 137.723 146.945 137.723 146.945C137.723 146.945 137.317 146.177 137.626 145.796ZM148.52 146.927C148.52 143.931 146.819 141.519 143.823 141.519C140.827 141.519 139.1 143.931 139.1 146.927C139.1 149.923 140.827 152.361 143.823 152.361C146.819 152.361 148.52 149.923 148.52 146.927Z" fill="#2A6458"/>
<path fill-rule="evenodd" clip-rule="evenodd" d="M135.52 146.191C135.825 141.545 139.075 137.889 143.823 137.889C148.57 137.889 151.795 141.545 152.099 146.191L152.861 146.927L152.099 147.689C151.795 152.335 148.57 155.966 143.823 155.966C139.075 155.966 135.825 152.335 135.52 147.689L134.784 146.927L135.52 146.191ZM137.054 145.796C137.001 146.173 136.735 146.945 136.735 146.945C136.735 146.945 136.999 147.684 137.048 148.042C137.489 151.266 139.848 153.835 142.855 154.301C143.211 155.145 143.66 154.703 143.84 154.377C147.303 154.377 150.139 151.615 150.632 148.051C150.682 147.69 150.972 146.901 150.972 146.901C150.972 146.901 150.682 146.198 150.632 145.833C150.396 144.115 149.625 142.546 148.507 141.378C148.292 141.251 148.052 141.095 147.791 140.925C146.717 140.227 145.295 139.301 143.84 139.301C140.389 139.301 137.561 142.217 137.054 145.796ZM145.959 139.442C146.522 139.719 147.819 140.427 148.507 141.049C148.23 140.553 147.332 139.537 145.959 139.442Z" fill="#2A6458"/>
<path fill-rule="evenodd" clip-rule="evenodd" d="M104.137 142.852C103.931 141.003 105.448 138.421 108.944 137.889H109.407C111.644 137.864 113.598 138.649 115.063 140.016L112.775 142.852C112.644 142.715 112.505 142.587 112.359 142.468C111.526 141.795 110.444 141.42 109.176 141.484C107.942 141.763 107.967 142.522 108.07 142.927C108.218 143.638 109.462 144.224 110.918 144.911C111.746 145.301 112.642 145.723 113.444 146.219C113.649 146.345 113.855 146.472 114.061 146.624L115.5 146.953L115.269 147.839C115.68 148.396 115.938 149.004 115.989 149.687C116.143 151.586 115.423 155.586 109.793 155.915C107.35 156.067 103.468 155.181 102.106 150.75L105.705 149.333C106.785 151.839 108.07 152.396 109.587 152.32C111.181 152.219 112.132 151.105 112.03 150.042C111.874 148.946 110.651 148.478 109.217 147.929C108.761 147.754 108.284 147.572 107.813 147.358L105.551 147.079L105.808 146.143C104.959 145.409 104.317 144.371 104.137 142.852ZM105.172 146.324C104.354 145.518 103.754 144.421 103.576 142.918L103.575 142.914C103.331 140.721 105.109 137.901 108.859 137.331L108.902 137.325H109.404C111.781 137.298 113.875 138.135 115.449 139.603L115.833 139.962L112.812 143.706L112.368 143.243C111.618 142.461 110.561 141.993 109.254 142.046C108.785 142.161 108.665 142.334 108.629 142.407C108.58 142.508 108.581 142.642 108.618 142.788L108.621 142.8L108.623 142.813C108.637 142.88 108.719 143.032 109.033 143.266C109.332 143.488 109.75 143.717 110.265 143.972C110.532 144.104 110.824 144.241 111.13 144.386C111.967 144.78 112.909 145.224 113.74 145.738L113.747 145.742C113.919 145.848 114.107 145.964 114.298 146.099L116.194 146.532L115.881 147.73C116.255 148.299 116.498 148.933 116.552 149.643C116.636 150.675 116.486 152.29 115.528 153.706C114.55 155.152 112.789 156.306 109.827 156.479C107.251 156.639 103.037 155.7 101.566 150.917L101.412 150.417L106.007 148.607L106.224 149.109C106.74 150.308 107.276 150.968 107.802 151.329C108.315 151.681 108.88 151.789 109.555 151.756C110.909 151.668 111.524 150.769 111.468 150.109C111.404 149.693 111.078 149.361 110.331 148.999C109.964 148.822 109.54 148.658 109.065 148.476C109.047 148.469 109.029 148.462 109.01 148.455C108.583 148.291 108.12 148.114 107.659 147.908L104.833 147.56L105.172 146.324Z" fill="#2A6458"/>
<path fill-rule="evenodd" clip-rule="evenodd" d="M108.944 137.889H109.407C111.644 137.864 113.598 138.649 115.063 140.016L112.775 142.852C111.901 141.94 110.667 141.408 109.176 141.484C107.942 141.763 107.967 142.522 108.07 142.927C108.218 143.638 109.462 144.224 110.918 144.911C111.746 145.301 112.642 145.723 113.444 146.219C113.649 146.345 113.855 146.472 114.061 146.624L115.5 146.953L115.269 147.839C115.68 148.396 115.938 149.004 115.989 149.687C116.143 151.586 115.423 155.586 109.793 155.915C107.35 156.067 103.468 155.181 102.106 150.75L105.705 149.333C106.785 151.839 108.07 152.396 109.587 152.32C111.181 152.219 112.132 151.105 112.03 150.042C111.874 148.946 110.651 148.478 109.217 147.929C108.761 147.754 108.284 147.572 107.813 147.358L105.551 147.079L105.808 146.143C104.959 145.409 104.317 144.371 104.137 142.852C103.931 141.003 105.448 138.421 108.944 137.889ZM110.411 138.842C110.709 138.748 111.25 138.507 111.038 138.295C110.773 138.03 110.253 138.302 110.411 138.842ZM110.06 139.263C111.302 139.465 112.264 140.268 112.95 140.841C113.055 140.928 113.153 141.01 113.245 141.084C112.597 140.564 111.272 140.033 109.969 139.82C109.323 139.715 108.678 139.744 108.092 139.987C107.51 140.228 106.813 140.559 106.369 141.358C105.911 142.181 106.107 142.99 106.434 143.59C106.775 144.215 109.308 145.268 109.308 145.268C109.308 145.268 109.308 145.968 110.57 146.724C110.891 146.879 111.247 147.024 111.595 147.166C112.175 147.402 112.729 147.628 113.045 147.867C114.158 148.712 114.55 150.335 114.057 151.782C113.552 153.262 112.142 154.516 109.491 154.518C107.751 154.593 105.173 153.489 104.136 152.082C103.271 150.908 104.189 150.89 104.895 151.645C106.059 152.889 107.669 154.036 109.472 153.953L109.478 153.953H109.485C111.949 153.953 113.345 152.854 113.757 151.645C114.181 150.402 113.6 148.998 112.703 148.317C112.255 147.977 111.288 147.35 110.411 146.927C109.56 146.516 107.732 145.968 107.732 145.968C107.732 145.968 106.349 144.614 105.938 143.861C105.514 143.083 105.477 142.197 106.025 141.211C106.523 140.315 107.164 139.76 107.876 139.465C108.585 139.172 109.341 139.145 110.06 139.263ZM111.885 153.353L110.085 153.794C110.02 153.794 109.929 153.748 110.085 153.565C110.24 153.381 111.35 153.347 111.885 153.353Z" fill="#2A6458"/>
<path fill-rule="evenodd" clip-rule="evenodd" d="M120.427 142.852C120.221 141.003 121.738 138.421 125.234 137.889H125.697C127.934 137.864 129.888 138.649 131.353 140.016L129.065 142.852C128.934 142.715 128.795 142.587 128.649 142.468C127.816 141.795 126.734 141.42 125.466 141.484C124.232 141.763 124.258 142.522 124.36 142.927C124.508 143.638 125.753 144.224 127.208 144.911C128.036 145.301 128.932 145.723 129.734 146.219C129.939 146.345 130.145 146.472 130.351 146.624L131.791 146.953L131.559 147.839C131.971 148.396 132.228 149.004 132.279 149.687C132.433 151.586 131.713 155.586 126.083 155.915C123.64 156.067 119.758 155.181 118.396 150.75L121.995 149.333C123.075 151.839 124.36 152.396 125.877 152.32C127.471 152.219 128.423 151.105 128.32 150.042C128.164 148.946 126.941 148.478 125.507 147.929C125.051 147.754 124.574 147.572 124.103 147.358L121.841 147.079L122.098 146.143C121.249 145.409 120.607 144.371 120.427 142.852ZM121.462 146.324C120.644 145.518 120.044 144.421 119.866 142.918L119.865 142.914C119.621 140.721 121.399 137.901 125.15 137.331L125.192 137.325H125.694C128.071 137.298 130.165 138.135 131.739 139.603L132.123 139.962L129.102 143.706L128.658 143.243C127.908 142.461 126.852 141.993 125.544 142.046C125.075 142.161 124.955 142.334 124.919 142.407C124.87 142.508 124.871 142.642 124.908 142.788L124.911 142.8L124.913 142.813C124.927 142.88 125.009 143.032 125.324 143.266C125.622 143.488 126.04 143.717 126.555 143.972C126.822 144.104 127.114 144.241 127.421 144.386C128.257 144.78 129.199 145.224 130.03 145.738L130.037 145.742C130.209 145.848 130.397 145.964 130.588 146.099L132.484 146.532L132.171 147.73C132.545 148.299 132.788 148.933 132.842 149.643C132.926 150.675 132.776 152.29 131.818 153.706C130.84 155.152 129.079 156.306 126.117 156.479C123.541 156.639 119.327 155.7 117.856 150.917L117.702 150.417L122.297 148.607L122.514 149.109C123.03 150.308 123.566 150.968 124.092 151.329C124.605 151.681 125.17 151.789 125.845 151.756C127.199 151.668 127.814 150.769 127.759 150.109C127.694 149.693 127.368 149.361 126.621 148.999C126.254 148.822 125.83 148.658 125.355 148.476C125.337 148.469 125.319 148.462 125.3 148.455C124.873 148.291 124.41 148.114 123.949 147.908L121.123 147.56L121.462 146.324Z" fill="#2A6458"/>
<path fill-rule="evenodd" clip-rule="evenodd" d="M125.234 137.889H125.697C127.934 137.864 129.888 138.649 131.353 140.016L129.065 142.852C128.191 141.94 126.957 141.408 125.466 141.484C124.232 141.763 124.258 142.522 124.36 142.927C124.411 143.169 124.588 143.396 124.857 143.618C124.819 143.658 124.777 143.697 124.728 143.732C124.779 143.716 124.84 143.69 124.905 143.657C125.432 144.073 126.277 144.471 127.208 144.911C128.036 145.301 128.932 145.723 129.734 146.219C129.939 146.345 130.145 146.472 130.351 146.624L131.791 146.953L131.559 147.839C131.971 148.396 132.228 149.004 132.279 149.687C132.433 151.586 131.713 155.586 126.083 155.915C123.64 156.067 119.758 155.181 118.396 150.75L121.995 149.333C123.075 151.839 124.36 152.396 125.877 152.32C127.471 152.219 128.423 151.105 128.32 150.042C128.164 148.946 126.941 148.478 125.507 147.929C125.051 147.754 124.574 147.572 124.103 147.358L121.841 147.079L122.098 146.143C121.249 145.409 120.607 144.371 120.427 142.852C120.221 141.003 121.738 138.421 125.234 137.889ZM126.423 139.089C127.624 139.285 128.596 140.116 129.288 140.707C129.42 140.82 129.542 140.924 129.653 141.014C129.005 140.494 127.725 139.849 126.423 139.636C125.776 139.531 124.969 139.745 124.383 139.987C123.801 140.228 123.103 140.56 122.659 141.358C122.201 142.181 122.397 142.99 122.724 143.591C123.065 144.215 125.108 145.724 125.108 145.724C125.108 145.724 126.234 146.103 127.358 146.645C128.033 146.97 128.506 147.347 128.923 147.679C129.034 147.768 129.141 147.853 129.247 147.934C130.36 148.779 131.188 150.318 130.695 151.764C130.19 153.245 128.433 154.516 125.781 154.518C124.042 154.593 121.463 153.489 120.426 152.082C119.561 150.908 120.227 150.891 120.933 151.645C122.097 152.89 123.965 154.23 125.768 154.148C128.232 154.148 129.635 152.854 130.047 151.645C130.471 150.402 129.891 148.999 128.993 148.317C128.545 147.977 127.578 147.35 126.702 146.927C125.85 146.517 123.863 146.645 123.863 146.645C123.863 146.645 122.639 144.614 122.229 143.861C121.804 143.084 121.767 142.197 122.315 141.212C122.814 140.315 123.454 139.76 124.167 139.465C124.875 139.172 125.703 138.972 126.423 139.089ZM123.228 155.189L122.892 154.659C122.322 154.659 122.348 154.525 122.504 154.342C122.579 154.252 122.913 154.448 123.298 154.674C123.705 154.913 124.17 155.186 124.446 155.189H123.228Z" fill="#2A6458"/>
<path fill-rule="evenodd" clip-rule="evenodd" d="M94.2563 137.324H98.7755V145.797L100.282 146.927L98.7755 148.057V156.531H94.2563V148.057L92.7499 146.927L94.2563 145.797V137.324ZM94.8212 146.08L93.6914 146.927L94.8212 147.775V155.966H98.2106V147.775L99.3404 146.927L98.2106 146.08V137.889H94.8212V146.08Z" fill="#2A6458"/>
<path fill-rule="evenodd" clip-rule="evenodd" d="M94.8212 146.08V137.889H98.2106L98.2105 144.325L98.0869 144.244C98.0511 144.455 98.0432 144.857 98.2105 145.13L98.2106 146.08L99.3404 146.927L98.2106 147.775V155.966H94.8212V147.775L93.6914 146.927L94.8212 146.08ZM96.1379 150.793C96.0883 152.166 96.0385 153.547 96.0569 154.659C96.0627 155.013 96.5336 154.827 96.5336 154.827C96.5336 154.827 96.8546 154.636 96.8664 154.395C96.9259 153.182 96.902 151.769 96.8778 150.337C96.8615 149.374 96.845 148.401 96.8536 147.475C96.8565 147.172 97.0807 146.645 97.0807 146.645C97.0807 146.645 96.8653 145.742 96.8664 145.338C96.8766 141.816 96.4628 139.001 96.4628 139.001C96.4628 139.001 96.2352 141.717 96.2248 145.233C96.2235 145.669 95.9509 146.645 95.9509 146.645C95.9509 146.645 96.2216 147.171 96.2218 147.475C96.2221 148.462 96.1801 149.625 96.1379 150.793Z" fill="#2A6458"/>
<path fill-rule="evenodd" clip-rule="evenodd" d="M77.5742 137.324H84.3531C88.2172 137.324 91.1366 140.327 91.1366 144.103C91.1366 146.684 89.8121 149.131 87.4913 150.311L91.6201 156.531H86.0237L82.3518 150.882H82.0935V156.531H77.5742V148.057L76.0678 146.927L77.5742 145.797V137.324ZM78.1391 146.08L77.0093 146.927L78.1391 147.775V155.966H81.5286V150.317H82.6584L86.3303 155.966H90.567L86.6506 150.066C86.8314 149.998 87.0068 149.921 87.1765 149.837C89.3238 148.774 90.5717 146.519 90.5717 144.103C90.5717 140.634 87.9011 137.889 84.3531 137.889H78.1391V146.08ZM84.3531 141.843H82.0935V146.362H84.3531C85.4802 146.362 86.3303 145.368 86.3303 144.103C86.3303 142.837 85.4802 141.843 84.3531 141.843ZM81.5286 141.278V146.927H84.3531C85.87 146.927 86.8952 145.596 86.8952 144.103C86.8952 142.609 85.87 141.278 84.3531 141.278H81.5286Z" fill="#2A6458"/>
<path fill-rule="evenodd" clip-rule="evenodd" d="M80.1517 139.866V148.375L83.4617 148.278C83.4617 148.278 83.5637 148.525 84.2357 148.605C84.9078 148.684 86.7717 147.864 87.3725 147.067C87.8754 146.4 88.1984 145.54 88.2846 144.645C88.2952 144.535 88.3282 144.42 88.3602 144.309C88.3802 144.239 88.3999 144.171 88.4134 144.106L88.3932 144.053C88.343 143.92 88.2966 143.798 88.2846 143.67C88.1985 142.748 87.8757 141.855 87.3627 141.168C86.7723 140.377 85.939 139.805 84.9181 139.804C84.5165 139.804 84.0217 139.818 83.5003 139.833C82.9218 139.849 82.3107 139.866 81.7582 139.866L80.8931 139.76L80.1517 139.866ZM84.3531 141.278H81.5286V146.927H84.3531C85.87 146.927 86.8952 145.596 86.8952 144.103C86.8952 142.609 85.87 141.278 84.3531 141.278Z" fill="#2A6458"/>
<path fill-rule="evenodd" clip-rule="evenodd" d="M78.1391 146.08V137.889H84.3531C87.9011 137.889 90.5717 140.634 90.5717 144.103C90.5717 146.71 89.1188 149.13 86.6506 150.066L90.567 155.966H86.3303L82.6584 150.317H81.5286V155.966H78.1391V147.775L77.0093 146.927L78.1391 146.08ZM81.7581 139.301C82.8085 139.301 84.0707 139.301 84.9181 139.301C86.1499 139.301 87.1395 139.924 87.8154 140.83C88.391 141.601 88.8639 142.566 89.0225 143.573C89.0389 143.678 89.0915 143.783 89.146 143.893C89.1805 143.962 89.2158 144.033 89.2431 144.106C89.2208 144.156 89.196 144.205 89.1712 144.255C89.1078 144.38 89.0445 144.506 89.0225 144.645C88.8931 145.462 88.555 146.285 88.1224 146.973C87.8895 147.023 87.5544 147.283 87.416 147.407H87.8235C87.1379 148.316 85.4533 148.764 84.2357 148.764V148.94C84.2871 149.383 85.4622 151.218 86.5977 152.99C86.8884 153.444 87.1765 153.894 87.4425 154.315C87.665 154.668 88.0162 155.216 88.0162 155.216L87.4425 154.854C87.4425 154.854 84.4149 150.599 83.5637 148.94C82.2083 149.028 80.1517 148.94 80.1517 148.94C80.1517 148.94 80.3019 152.1 80.1517 154.801C80.1395 155.021 79.6202 155.019 79.5868 154.801C79.5027 154.251 79.472 153.255 79.4693 152.151C79.5088 152.392 79.555 152.634 79.5868 152.788L79.4783 150.768C79.5059 148.792 79.4783 147.131 79.4783 147.131C79.3779 147.095 79.31 147.059 79.243 147.023C79.0878 146.94 78.9379 146.86 78.4014 146.804C78.5161 146.566 78.8158 146.457 79.1516 146.566C79.2726 146.605 79.4783 146.566 79.4783 146.566C79.4783 146.566 79.6927 140.158 79.4676 139.301C80.2673 139.093 81.5816 139.39 81.5816 139.39L81.7581 139.301ZM79.1808 141.543L79.2425 144.447V144.641L79.0307 144.403C79.0336 144.333 79.0678 143.662 79.1808 141.543ZM85.6593 149.646C86.0388 150.14 86.489 149.982 86.2772 149.77C86.0124 149.505 85.5005 149.106 85.6593 149.646Z" fill="#2A6458"/>
<path d="M47.4521 137.271H58.7502V142.356L57.0555 144.05L58.7502 145.772V150.829H47.4521C47.4521 150.829 48.005 150.206 48.6641 149.269C50.3974 148.937 51.4065 148.57 51.4065 148.57H49.1341C49.2588 148.375 49.3837 148.172 49.506 147.964C50.7197 147.69 51.4065 147.44 51.4065 147.44H49.7992C49.9329 147.189 50.0601 146.933 50.1769 146.672C50.9696 146.469 51.4065 146.31 51.4065 146.31H50.3316C50.6384 145.551 50.8416 144.775 50.8416 144.05C50.8416 143.326 50.6386 142.55 50.332 141.792H51.4065C51.4065 141.792 50.9698 141.633 50.1775 141.43C50.0607 141.169 49.9334 140.913 49.7998 140.662H51.4065C51.4065 140.662 50.72 140.412 49.5067 140.138C49.3845 139.929 49.2596 139.727 49.1348 139.532H51.4065C51.4065 139.532 50.3978 139.165 48.665 138.833C48.0055 137.895 47.4521 137.271 47.4521 137.271Z" fill="#2A6458"/>
<path d="M187.548 137.271H176.25V142.356L177.945 144.05L176.25 145.745V150.829H187.548C187.548 150.829 186.995 150.206 186.336 149.269C184.603 148.937 183.594 148.57 183.594 148.57H185.866C185.741 148.375 185.617 148.172 185.494 147.964C184.281 147.69 183.594 147.44 183.594 147.44H185.201C185.067 147.189 184.94 146.933 184.823 146.672C184.031 146.469 183.594 146.31 183.594 146.31H184.669C184.362 145.551 184.159 144.775 184.159 144.05C184.159 143.326 184.362 142.55 184.668 141.792H183.594C183.594 141.792 184.03 141.633 184.823 141.43C184.94 141.169 185.067 140.913 185.2 140.662H183.594C183.594 140.662 184.28 140.412 185.493 140.138C185.616 139.929 185.741 139.727 185.865 139.532H183.594C183.594 139.532 184.602 139.165 186.335 138.833C186.995 137.895 187.548 137.271 187.548 137.271Z" fill="#2A6458"/>
<path d="M173.796 123.766H60.8154C61.8003 123.292 64.943 122.622 67.4072 122.16C67.3348 120.692 68.0258 119.332 68.424 118.787C68.1216 119.896 68.4712 121.218 68.7506 121.917C68.793 121.91 68.8349 121.902 68.8763 121.895L69.2007 119.105L69.7991 121.742C70.2778 119.388 69.5997 117.426 69.2007 116.74C70.0261 117.293 71.5649 119.002 71.6202 121.637C71.8415 121.656 72.1203 121.675 72.5942 121.669C72.6272 120.687 72.342 118.079 69.5185 112.962C70.9629 114.383 73.8345 118.1 73.7909 121.624C74.116 121.61 74.4424 121.598 74.7695 121.586C74.6031 120.029 75.3481 118.55 75.7677 117.975C75.6067 118.8 75.414 120.472 75.6915 121.558C79.1 121.465 82.5489 121.499 85.5737 121.561C86.2577 120.735 88.9747 118.88 93.1738 119.088C91.0838 119.38 89.5818 120.425 88.3093 121.625C89.2019 121.649 90.0324 121.671 90.7843 121.69C91.6527 120.804 92.629 119.934 93.774 119.476C93.1738 120.659 92.3441 121.236 91.9911 121.718C92.5937 121.731 93.2384 121.736 93.9192 121.734C94.2112 120.721 95.098 119.282 95.098 119.282L95.0443 121.727C95.167 121.726 95.2906 121.725 95.4152 121.723C95.5779 120.421 95.8458 117.078 95.098 112.627C96.4762 116.944 96.8444 118.604 96.7462 121.702C96.7992 121.701 96.8524 121.7 96.9057 121.699L97.8166 118.681L97.5827 121.685C98.0099 121.675 98.4449 121.664 98.8868 121.653C98.9209 120.333 98.6923 118.271 98.3462 117.41C99.314 118.198 99.7034 120.264 99.9646 121.624C99.9697 121.624 99.9749 121.624 99.98 121.624C99.8428 119.959 100.306 117.289 100.394 116.175C100.475 117.34 100.408 119.899 100.733 121.602C100.858 121.599 100.984 121.595 101.11 121.591C101.186 119.589 101.928 117.414 102.159 116.634C101.998 118.384 101.912 120.309 101.973 121.566C102.16 121.56 102.348 121.554 102.537 121.549L102.442 120.447L103.202 121.528C104.947 121.475 106.744 121.421 108.546 121.376C108.678 119.273 110.104 115.647 110.227 115.187C109.795 117.589 109.634 119.4 109.692 120.783C110.924 119.276 110.832 117.641 110.739 116.846C111.286 118.452 111.255 120.115 111.123 121.32C111.393 121.315 111.662 121.311 111.931 121.307C112.179 119.215 112.089 116.328 111.798 115.045C113.103 117.164 112.978 119.7 112.702 121.296C112.878 121.294 113.054 121.292 113.23 121.29C113.132 119.565 113.575 117.451 113.669 116.634C113.823 117.616 113.862 119.842 114.181 121.282C114.28 121.281 114.379 121.281 114.478 121.28C114.377 118.433 115.03 115.124 115.47 113.633C114.824 115.867 115.666 119.197 115.502 121.278C115.63 121.278 115.759 121.278 115.887 121.279C115.54 119.259 116.095 116.627 116.282 115.575C116.282 115.575 117.043 119.492 117.306 120.024C117.429 118.135 118.524 118.417 117.906 112.892C119.445 116.182 118.336 118.855 118.541 120.723C118.854 120.088 119.113 119.557 119.106 119.371C119.127 119.946 119.103 120.72 119.05 121.321C119.197 121.325 119.343 121.329 119.489 121.333C119.507 119.638 119.712 117.678 119.848 116.846C119.734 118.62 120.001 120.335 120.197 121.357C120.269 121.359 120.341 121.362 120.413 121.365C120.671 121.375 120.93 121.384 121.187 121.393C121.348 119.193 120.934 115.356 120.66 113.633C121.434 115.107 121.879 119.139 122.053 121.419C122.368 121.427 122.682 121.434 122.995 121.441L122.496 117.022C122.822 117.902 123.306 119.841 123.385 121.448C125.853 121.489 128.247 121.461 130.526 121.375C130.47 119.48 131.561 115.577 132.17 113.986C131.627 116.553 131.691 119.74 131.826 121.319C132.218 121.3 132.607 121.279 132.991 121.257C132.692 119.23 133.815 116.152 134.066 115.244C134.081 115.178 134.096 115.112 134.112 115.045C134.106 115.089 134.09 115.157 134.066 115.244C133.23 118.907 133.551 120.502 133.7 121.213C133.856 121.203 134.013 121.193 134.168 121.182C134.224 119.907 134.16 118.712 134.112 118.406C134.395 118.915 134.683 120.215 134.873 121.132C135.053 121.118 135.233 121.104 135.412 121.09C135.366 119.942 135.455 118.193 135.524 117.41C135.579 118.362 135.646 119.999 135.649 121.071C135.865 121.053 136.08 121.035 136.293 121.016C136.294 120.112 136.337 118.979 136.371 118.406L136.745 120.975C136.786 120.971 136.826 120.967 136.867 120.963C137.08 118.726 137.25 115.565 137.325 113.986C137.805 115.222 137.947 118.597 137.965 120.854C138.287 120.82 138.604 120.785 138.917 120.748C139.18 118.941 139.126 117.089 139.055 116.528C139.424 117.963 139.622 119.659 139.71 120.653C139.894 120.629 140.076 120.606 140.256 120.582C140.136 119.252 140.201 117.713 140.275 116.986C140.277 116.934 140.282 116.887 140.29 116.846C140.285 116.888 140.28 116.935 140.275 116.986C140.25 117.686 140.793 119.324 141.129 120.461C141.36 120.428 141.587 120.394 141.811 120.359C141.693 118.489 141.027 115.435 140.631 114.065C141.957 115.96 142.297 118.86 142.311 120.28C142.566 120.239 142.816 120.197 143.061 120.154L143.397 117.269V120.094C144.273 117.693 144.562 115.092 144.598 114.374C145.244 116.058 144.96 118.516 144.616 119.944C144.726 119.937 144.836 119.931 144.946 119.926C145.006 119.085 145.334 117.927 146.292 117.022C146.062 117.35 145.71 118.522 145.707 119.913C146.103 119.917 146.504 119.936 146.909 119.968C147.477 118.305 148.156 115.123 147.775 112.291C148.037 113.685 148.393 117.324 147.968 120.079C152.66 120.679 157.692 122.698 160.962 122.619C162.657 121.037 162.586 116.593 162.339 115.134C162.723 116.031 163.219 118.544 162.948 120.775C163.368 119.752 163.894 118.911 164.21 118.735C163.616 119.763 163.321 121.662 163.205 122.655C163.405 122.664 163.608 122.674 163.814 122.686C163.978 122.073 164.405 120.564 164.493 119.476V122.728C164.782 122.747 165.075 122.768 165.371 122.791C165.089 121.803 164.958 120.027 165.799 119.053C165.693 119.547 165.545 121.855 165.799 122.619C165.825 122.697 165.846 122.767 165.861 122.831C165.975 122.84 166.09 122.85 166.204 122.86C166.434 121.772 166.569 119.19 166.611 118.382C167.272 120.243 167.291 122.238 167.193 122.951C167.566 122.987 167.938 123.024 168.306 123.063V120.853C168.803 121.232 169.02 122.561 169.092 123.149C170.955 123.357 172.66 123.588 173.796 123.766Z" fill="#2A6458"/>
<path fill-rule="evenodd" clip-rule="evenodd" d="M149.841 98.505C146.134 101.718 139.408 104.79 139.408 104.79C138.696 105.314 137.907 106.038 137.572 106.837C137.572 106.837 137.514 106.501 137.254 106.59C137.006 106.675 136.954 107.19 136.954 107.19C136.954 107.19 136.46 107.084 136.283 106.414C136.054 107.19 135.63 107.19 135.63 107.19C135.63 107.19 135.462 105.974 134.959 105.443C134.629 105.094 134.235 104.79 134.235 104.79C134.235 104.79 131.733 104.997 128.612 105.401C128.652 104.825 128.728 103.641 128.728 102.777C128.506 102.416 128.289 102.083 128.085 101.769C127.498 100.868 127.019 100.132 126.862 99.3777L127.633 103.166V105.531L127.634 105.531C127.627 105.532 127.619 105.534 127.611 105.535C127.681 105.964 127.762 106.39 127.844 106.816C128.155 108.451 128.472 110.108 128.233 112.133C127.668 116.935 130.229 122.019 130.229 122.019H124.35C124.35 122.019 125.444 117.641 121.737 112.981C121.519 111.455 120.586 109.256 119.522 107.131C119.509 107.136 119.495 107.142 119.482 107.147C118.763 106.482 118.347 105.479 117.77 104.086L117.77 104.086C117.446 103.305 117.072 102.4 116.564 101.365C113.225 98.3231 109.662 91.232 109.662 89.5019C109.486 93.774 112.487 98.2932 115.987 101.236C117.182 103.449 118.414 107.367 118.259 108.144C118.241 108.233 118.238 108.298 118.247 108.342C118.104 108.596 117.975 108.875 117.84 109.167C117.776 109.306 117.711 109.447 117.641 109.591C117.43 108.97 116.935 108.144 116.476 107.879C116.801 108.418 117.456 109.732 117.273 110.453C117.112 110.849 116.943 111.283 116.812 111.621C116.812 111.092 116.476 110.756 116.476 110.756C116.476 110.756 116.682 111.805 116.3 112.151C116.057 112.371 115.488 112.469 115.488 112.469C114.117 112.64 112.62 112.677 111.05 112.558C109.916 112.411 105.598 111.811 103.802 110.952C105.885 111.295 108.736 110.645 109.644 108.519C108.779 109.238 107.12 109.238 107.12 109.238C106.933 110.055 106.263 110.961 103.388 110.797C102.357 110.395 101.329 109.92 100.318 109.37C100.318 109.37 100.992 108.509 101.449 107.489C101.51 107.409 101.564 107.327 101.612 107.243C101.599 107.227 101.585 107.212 101.572 107.196C101.58 107.177 101.587 107.157 101.595 107.137C101.583 107.153 101.572 107.168 101.561 107.184C101.076 106.634 100.626 106.488 100.172 106.34C99.6873 106.183 99.1993 106.025 98.6641 105.372C97.2166 106.378 96.5045 103.218 96.5045 103.218C96.5045 103.218 96.1044 106.731 99.6351 107.243C99.3964 109.153 97.0166 109.136 96.5469 109.133L96.5045 109.132C95.1158 106.52 92.8424 105.627 92.8424 105.627C92.8424 105.627 95.9455 108.444 95.5395 110.35C96.5647 110.068 99.1292 109.357 100.652 108.243C98.9968 109.919 96.8478 110.933 94.6022 111.833C94.6022 111.833 94.8067 110.929 94.4274 110.668C94.4274 111.109 94.0566 112.133 94.0566 112.133C93.6835 113.501 93.2029 115.088 92.1942 116.485C92.2185 116.629 91.9206 117.262 91.9206 117.262C91.9206 117.262 91.7617 116.555 91.6117 116.864C91.4616 117.173 91.4616 117.906 91.4616 117.906C91.4616 117.906 91.1124 117.593 91.0114 117.694C90.9549 117.751 90.9101 117.821 90.8666 117.893L90.6584 118.18C90.5693 118.233 90.4647 118.298 90.3464 118.371C89.5268 118.877 88.0525 119.787 86.5715 120.183C86.5715 120.183 86.9897 119.609 86.8894 119.23C86.5715 119.795 85.8131 120.359 85.8131 120.359L83.8884 122.659H80.8278C80.9318 122.363 81.0193 122.028 81.0487 121.687C80.7917 121.397 80.3848 121.057 80.1282 121.031C79.9243 121.009 79.737 121.122 79.5331 121.245C79.3758 121.339 79.2085 121.44 79.0161 121.49C79.3157 121.263 79.8681 120.487 79.9061 119.728C79.8264 119.695 79.7416 119.664 79.6516 119.635C78.0496 119.131 77.0513 119.847 76.6341 120.375C76.6179 120.22 76.6176 120.062 76.6343 119.903L77.2737 113.823C77.3519 113.079 77.2953 112.328 77.1066 111.604L76.0003 107.364C76.364 106.867 77.186 106.215 78.0981 106.485C79.6516 106.944 81.4699 105.602 81.717 104.578C81.7356 104.501 81.7534 104.424 81.7711 104.348L81.7711 104.348L81.7712 104.348L81.7712 104.348L81.7712 104.348C81.9894 103.408 82.1951 102.521 83.6412 102.001C85.2219 101.432 85.1608 100.4 85.1054 99.4641C85.0989 99.3547 85.0925 99.2467 85.0888 99.1408C84.0462 100.246 83.4526 99.9128 82.9706 99.6424C82.6365 99.4549 82.3562 99.2976 82.0172 99.6705C81.0419 100.743 77.9716 101.876 76.5264 101.139C76.6907 100.936 76.8676 100.741 77.039 100.563L75.6973 99.5642C74.8323 98.964 75.1676 96.263 78.416 96.8456C78.416 96.8456 76.6152 97.9931 76.4916 98.7698C76.8271 98.2932 77.5686 97.9931 77.5686 97.9931L79.0837 98.2932C79.0864 98.2903 79.0891 98.2875 79.0918 98.2846C79.107 98.2877 79.123 98.2906 79.1396 98.2933C79.8458 98.4063 81.3993 98.2933 81.5228 98.0289C81.1452 98.0289 80.6538 97.9729 80.1967 97.9208L80.1967 97.9208C79.9652 97.8944 79.7426 97.869 79.5479 97.8524C80.8249 96.7458 82.7586 95.7511 82.7586 95.7511C83.1147 95.6099 84.1215 95.3698 85.3007 95.5393C85.0385 95.2669 84.2681 94.7297 83.2833 94.76L85.3007 90.9494C85.3007 90.5839 85.4196 90.5146 85.5328 90.4486C85.6027 90.4078 85.6705 90.3683 85.7066 90.2609C85.7846 90.0295 85.6537 89.8991 85.4595 89.7843C85.6464 89.5946 86.1718 89.0323 86.2804 88.7869C86.7399 88.5653 86.5662 88.2064 86.4118 87.8875C86.4002 87.8634 86.3886 87.8395 86.3775 87.816C86.2804 87.7189 86.3775 87.3393 86.7747 87.4717C86.9367 87.1071 86.9203 87.0028 86.8823 86.7628L86.8771 86.7298L86.8718 86.695C87.3105 85.8777 87.8167 85.0261 88.3774 84.1615C88.4041 84.1944 88.4736 84.2118 88.611 84.2118C89.1667 84.2118 89.6171 83.7326 89.6171 83.2939C89.6171 83.1373 89.6609 83.025 89.692 82.9454C89.748 82.8018 89.7627 82.7643 89.4053 82.7643C89.3766 82.7643 89.3487 82.765 89.3217 82.7665C92.8439 77.7721 97.9262 72.7222 102.145 71.6048C100.988 72.6881 99.323 75.1044 97.9404 80.0751C101.025 75.2736 102.947 74.4512 104.842 73.6404L104.842 73.6404C105.176 73.4973 105.51 73.3546 105.849 73.1903C106.055 72.9758 105.933 72.6717 105.819 72.3849C105.701 72.0905 105.59 71.8143 105.849 71.6722C108.893 70.0015 114.738 71.2936 117.518 72.0429C116.274 71.2171 114.875 70.3456 113.652 69.8715C117.374 70.5603 119.269 71.645 120.595 72.4042L120.595 72.4044C120.696 72.4624 120.794 72.5186 120.89 72.5725C121.048 71.3015 122.799 70.5708 124.032 70.9484C129.91 72.749 132.082 74.1792 132.082 74.1792C132.082 74.1792 128.408 71.3837 128.339 69.8715C128.294 68.8661 131.148 68.2861 133.507 67.9789C133.866 67.944 134.223 67.9087 134.58 67.8734C135.549 67.8001 136.3 67.7324 136.566 67.6825C136.566 67.6825 136.484 67.6873 136.337 67.6974C136.378 67.6933 136.419 67.6892 136.46 67.6851C140.093 67.3196 143.759 66.9507 148.288 66.6586L157.608 64.9639C160.81 65.4346 167.381 69.5961 166.929 77.9566C166.838 79.6402 166.696 81.2065 166.508 82.6791C166.459 83.034 166.408 83.4053 166.355 83.7911C166.173 85.134 165.948 86.5951 165.711 88.1332L165.711 88.1342C164.948 93.0878 164.063 98.8396 164.063 104.01C164.063 104.01 164.422 106.131 165.199 111.003C164.717 110.697 163.84 109.706 163.293 107.376C163.575 109.706 163.469 111.286 163.469 111.286C162.904 109.543 162.893 109.077 162.852 107.237C162.847 107.009 162.841 106.76 162.834 106.484C162.463 107.817 162.392 109.785 163.469 112.663C162.735 111.78 160.733 107.376 162.834 103.21C162.824 100.685 163.056 98.7234 163.455 95.3368L163.54 94.6176C163.383 95.0379 163.237 95.4375 163.094 95.8252L163.092 95.8313L163.091 95.8326C162.568 97.2565 162.102 98.5221 161.421 100.076L159.85 103.801L161.651 101.012C161.656 101.154 161.566 101.492 161.473 101.839C161.37 102.222 161.265 102.618 161.28 102.777C161.342 103.413 161.379 103.958 161.243 104.523L156.479 115.982L155.679 118.029L155.678 117.998L154.36 122.019H148.076L150.829 116.511C150.829 116.511 152.56 106.547 152.56 105.849C152.531 105.73 152.503 105.612 152.475 105.495C152.057 103.756 151.659 102.103 151.659 97.3928V95.9982C151.659 95.9982 150.794 97.8202 150.794 99.0699C150.794 100.32 151.119 103.476 152.56 105.849C151.7 105.131 150.993 104.379 150.418 103.65L149.717 103.271L149.027 101.517L148.852 101.877L148.541 100.473C148.541 100.473 149.413 99.3207 149.841 98.505ZM155.684 118.121L155.914 122.796H161.068L160.982 119.812L160.539 119.018L160.909 117.27L160.292 116.953L160.841 114.938L160.632 107.7C159.848 110.508 156.655 116.847 156.655 116.847L156.479 117.571C156.228 117.778 155.827 118.032 155.684 118.121ZM106.526 69.2006C106.512 69.2006 106.498 69.2006 106.485 69.2006L106.457 69.2174C106.48 69.2117 106.503 69.2061 106.526 69.2006ZM103.724 111.849C103.653 112.61 103.643 113.367 103.731 114.11C104.296 118.912 102.248 122.584 102.248 122.584H107.633C107.633 122.584 107.226 118.065 110.74 113.546C110.782 113.257 110.848 112.944 110.937 112.611C108.875 112.681 105.429 112.342 103.724 111.849ZM162.586 68.2298C162.586 68.2298 159.191 66.4306 153.477 66.4998C154.666 66.4288 155.319 66.1351 155.886 65.8805C156.448 65.6282 156.924 65.4144 157.75 65.4935C160.274 66.0937 162.586 68.2298 162.586 68.2298ZM131.727 85.7848C132.392 84.1746 132.505 82.9487 132.505 81.395C132.281 83.5518 131.596 86.0908 131.596 86.0908C132.302 85.1375 133.282 82.95 133.484 81.6775L131.727 85.7848ZM130.431 87.6266C131.067 86.3379 131.848 84.6762 131.964 82.7501C131.283 85.6074 131.05 86.1556 130.691 87.001C130.613 87.1862 130.528 87.3856 130.431 87.6266ZM130.139 92.0852C128.68 93.3486 127.836 94.9791 127.199 96.2672C127.332 96.0439 127.438 95.8555 127.538 95.6806L127.538 95.6805C127.991 94.8815 128.284 94.3635 130.139 92.0852ZM127.802 94.2449C128.759 92.593 130.601 90.7558 131.87 89.7844C130.294 91.2737 127.71 94.4084 127.71 94.4084C128.038 93.2682 129.179 91.1605 130.066 90.2264L127.802 94.2449ZM126.521 95.1687C126.54 95.1165 126.559 95.0327 126.583 94.9227C126.696 94.4093 126.936 93.3255 127.933 92.2206C127.884 92.7714 127.175 94.058 126.521 95.1687ZM84.3374 107.627L84.3373 107.627C84.1841 107.845 84.0274 108.068 83.8667 108.288C83.1714 109.242 82.6666 109.594 82.1807 109.829C83.0373 109.903 84.0431 109.645 84.8153 108.554C85.2043 108.004 85.4105 107.269 85.573 106.689C85.6885 106.277 85.782 105.943 85.9034 105.811C85.4173 106.09 84.9016 106.824 84.3374 107.627ZM85.6609 109.891C85.1578 110.827 83.6536 110.409 83.4262 110.007C84.2167 109.824 85.1048 109.212 85.2961 108.396C85.2961 108.396 86.164 108.956 85.6609 109.891ZM115.488 76.3503C112.394 76.636 110.809 77.5163 109.915 78.0128C109.538 78.2218 109.284 78.3628 109.092 78.3628C108.613 78.8569 107.586 80.2598 107.317 81.9183C107.18 82.4407 106.951 82.9593 106.596 83.4604C106.596 83.4604 108.477 82.1493 109.092 80.2744C109.707 78.3994 111.145 77.0741 115.488 76.3503ZM109.813 76.1468L109.821 76.1384C108.084 76.7881 107.532 79.2454 107.473 80.3929C107.304 77.7943 108.473 75.8736 109.08 75.2381C108.203 76.0266 106.654 78.1615 107.473 80.3929C108.116 77.8381 109.615 76.3442 109.813 76.1468ZM121.446 97.7824L120.081 94.1194C120.081 94.1194 119.569 93.7158 119.309 93.3157C118.843 92.599 117.924 90.5258 117.924 90.5258C117.924 90.5258 118.387 92.3959 118.644 93.4545C118.808 94.1305 119.303 95.4736 119.53 95.9295C119.993 96.8614 121.446 97.7824 121.446 97.7824ZM114.287 95.0097C114.568 95.9239 118.1 98.1871 118.1 98.1871C118.1 98.1871 114.998 93.3927 114.075 90.6316C113.871 90.9866 113.818 91.7385 113.869 92.5757C113.884 93.0853 114.484 94.2932 114.782 94.8334L114.095 94.2506C114.151 94.5206 114.216 94.7774 114.287 95.0097ZM121.914 94.3565C121.66 93.7779 121.789 93.1333 121.913 92.507C122.05 91.8235 122.182 91.1618 121.808 90.6316C122.955 91.7154 123.344 93.493 123.061 94.3565C122.638 95.6507 122.214 96.669 122.214 96.669C122.214 96.669 122.259 95.144 121.914 94.3565ZM119.309 85.3356C119.018 87.9487 119.842 91.3499 120.466 92.3267C120.96 90.2648 120.813 87.9369 120.678 87.0307C120.559 88.2396 120.37 90.6065 120.414 91.7966C120.337 91.2808 120.183 90.5477 120.014 89.7424C119.69 88.1982 119.309 86.3885 119.309 85.3356ZM158.544 94.6569C161.077 91.6989 162.69 89.6252 164.458 84.0294C164.678 83.5353 163.902 83.1557 163.681 83.8352C163.273 83.9501 162.931 84.7003 163.273 85.1662C162.221 88.7651 159.858 92.8523 158.747 94.3868C159.405 93.4219 160.329 91.2886 160.786 89.8326C161.41 87.842 161.863 84.2694 161.863 84.2694C161.863 84.2694 160.592 88.6195 160.345 89.4845C160.214 89.942 159.985 90.2995 159.733 90.693C159.223 91.4902 158.619 92.4349 158.544 94.6569ZM146.073 92.2842C148.934 92.2842 151.423 84.9766 151.423 84.9766C151.423 84.9766 150.277 87.5675 148.135 89.5964C147.716 89.9934 147.204 90.1245 146.716 90.2493C146.306 90.3543 145.913 90.4549 145.607 90.7056C144.455 91.6483 138.984 96.3983 138.984 96.3983C138.984 96.3983 144.662 92.2842 146.073 92.2842ZM138.984 95.7804C140.626 94.2034 143.987 90.9222 144.298 90.4138C144.609 89.9054 146.052 86.742 146.734 85.2238L143.804 90.202L138.984 95.7804ZM138.826 95.7804L143.804 88.4014C142.756 89.5429 140.633 91.8543 140.52 91.9673C140.407 92.0803 139.343 94.5565 138.826 95.7804ZM122.125 112.274C121.992 111.577 121.743 111.082 121.539 110.675C121.232 110.062 121.024 109.649 121.459 109.044C122.059 110.509 123.154 109.944 123.154 109.944C123.838 110.333 123.776 111.174 123.643 111.498C123.511 111.821 123.339 112.054 123.154 112.206L122.408 111.374L122.695 112.423C122.483 112.458 122.281 112.403 122.125 112.274ZM125.974 100.094L126.927 102.848L126.362 105.637V102.848L125.974 100.094ZM118.1 101.683C118.1 102.577 118.51 104.768 120.148 106.378C120.068 106.296 119.819 105.664 119.508 104.878L119.508 104.877L119.508 104.877C119.056 103.735 118.477 102.268 118.1 101.683ZM114.252 105.99C113.663 106.013 113.198 106.017 112.817 106.019C111.273 106.031 111.129 106.032 109.847 107.279C109.123 107.983 107.411 108.668 106.754 108.519C106.059 108.361 105.939 107.961 105.802 107.508C105.693 107.145 105.574 106.748 105.143 106.414C104.394 105.832 102.177 103.589 102.177 103.589C102.177 103.589 104.64 105.558 105.514 104.896C105.814 105.081 107.657 105.845 108.462 105.831C107.973 105.676 106.838 105.217 106.21 104.627C108.469 104.959 109.308 104.649 109.856 104.448C110.073 104.368 110.244 104.305 110.44 104.305C110.526 104.305 110.614 104.306 110.701 104.307C111.893 104.321 113.026 104.334 112.187 101.718C112.398 102.202 112.685 102.504 112.978 102.812C113.54 103.403 114.124 104.018 114.252 105.99ZM96.7799 77.4102C95.8473 78.4919 90.7385 84.4177 89.5374 87.8778C89.8843 85.1988 91.2144 83.4596 92.0497 82.3674C92.7445 81.4589 93.0969 80.9981 92.256 80.8165C93.3488 79.8034 96.9247 77.2407 96.9247 77.2407C96.9152 77.2532 96.8655 77.3109 96.7815 77.4083L96.7811 77.4088L96.7811 77.4088L96.7805 77.4095L96.7804 77.4096L96.7802 77.4098L96.7799 77.4102ZM90.5084 113.139C89.9259 113.378 88.109 113.384 87.0627 113.006C87.0627 112.769 87.5672 112.366 88.0987 112.645L88.1245 112.659C88.4183 112.814 89.0347 113.139 90.5084 113.139ZM89.878 111.505C89.535 111.471 89.2601 111.443 89.0255 111.551C88.6948 111.702 88.3111 112.029 88.3111 112.029C88.3111 112.029 89.3305 112.331 89.9713 112.258C90.7416 112.171 91.1765 111.85 91.7517 111.425C91.8139 111.379 91.8777 111.332 91.9437 111.284C91.0452 111.621 90.3867 111.555 89.878 111.505ZM91.4087 97.1281C91.4087 97.1281 90.9225 97.3385 90.6309 97.6703C90.1937 98.0671 89.2292 99.422 89.1963 101.4C88.8136 100.959 88.8618 99.4618 88.9902 99.3524C88.5121 99.7597 88.0187 100.011 87.4908 100.28C87.1159 100.471 86.7235 100.67 86.3069 100.941C88.0382 99.8156 89.6873 97.8714 90.4092 96.962C90.9749 96.2493 92.3151 96.1158 92.5208 97.128C92.9174 99.0797 92.8606 102.295 90.9497 102.724C90.5162 102.821 89.7392 102.556 89.6559 101.824C90.9497 102.053 91.5583 100.374 91.5583 100.374C91.5583 100.374 90.5358 100.516 90.2267 100.516C90.726 100.374 91.701 98.7092 91.701 98.7092C91.701 98.7092 91.273 98.6856 90.5358 99.0988C91.193 98.3196 91.2952 97.7419 91.3642 97.3514C91.3789 97.2686 91.392 97.1942 91.4087 97.1281ZM89.6559 103.833C89.3052 103.939 88.7166 103.898 88.3183 103.473C87.92 103.048 87.9359 102.643 88.0033 102.375C88.0033 102.375 88.1647 102.747 88.3183 102.954C88.6916 103.455 89.6559 103.833 89.6559 103.833ZM103.587 95.7846C103.45 96.8371 104.054 97.7517 104.777 98.8453C105 99.1827 105.234 99.5371 105.461 99.9178C106.223 101.194 106.167 102.336 106.167 102.336C106.594 100.739 106.696 99.2358 106.771 98.1323C106.81 97.5567 106.842 97.0898 106.908 96.7752C106.266 97.3534 106.24 99.2597 106.22 100.819C106.212 101.402 106.205 101.937 106.167 102.336C106.274 101.041 105.02 97.8146 103.587 95.7846ZM130.191 82.4835C129.679 84.2927 129.662 85.5719 130.191 86.8559C131.46 84.1725 131.088 81.1658 130.648 79.9428C130.648 79.9428 130.597 81.0537 130.191 82.4835ZM128.251 88.0223C128.137 87.4165 127.908 87.0697 127.697 86.7521C127.384 86.279 127.113 85.8705 127.333 84.7672C127.973 81.5533 127.14 78.8886 127.14 78.8886C127.875 79.96 128.796 85.1048 128.251 88.0223ZM103.236 98.1185C104.523 99.7181 105.081 101.17 105.096 102.686C103.443 101.7 101.1 97.5871 101.947 93.3505C101.947 93.3505 102.219 96.8544 103.236 98.1185ZM99.8931 87.4555L99.8932 87.4555C100.357 86.424 100.798 85.4436 101.14 84.7525L99.4868 87.1078C99.4868 87.1078 99.0963 87.5006 98.7058 87.9965C97.6423 89.3467 95.7865 94.1795 95.7865 94.1795L97.5442 92.2257C98.0729 91.5021 99.0234 89.3891 99.8931 87.4555ZM96.1133 91.2304L96.0665 91.3473L96.0281 91.4435C95.6789 92.3174 95.145 93.6534 94.5154 94.6914C94.8685 93.3144 95.0921 92.4312 95.2746 91.3475C95.2987 91.2045 95.3208 91.0665 95.3422 90.933C95.5451 89.6663 95.6838 88.8003 96.8457 87.8245C97.2213 87.5091 97.6433 87.1051 98.0434 86.7221L98.0434 86.7221C98.5353 86.2512 98.994 85.8119 99.2928 85.608C97.4279 87.9423 97.0178 88.968 96.1133 91.2304ZM103.872 82.4049C102.67 84.8293 100.112 89.8828 99.4868 90.702C100.537 88.3129 102.883 83.3089 103.872 82.4049ZM154.078 103.906C155.142 101.646 155.233 99.7123 155.346 97.2838C155.447 95.1216 155.566 92.5675 156.408 89.0427C153.593 95.4002 153.853 99.9569 154.042 103.265C154.055 103.484 154.067 103.698 154.078 103.906ZM158.369 78.1942C158.762 79.6886 159.082 80.9063 158.579 82.9171C159.144 81.7167 159.578 79.5412 158.579 77.0739C157.58 74.6066 158.067 73.6401 158.067 73.6401C158.067 73.6401 157.502 74.1611 157.979 76.5619C158.098 77.1637 158.238 77.6944 158.369 78.1942ZM159.621 74.9025C159.179 73.5432 159.833 71.619 159.833 71.619C159.833 71.619 159.727 74.0728 160.609 74.4435C161.492 74.8142 161.916 75.3085 162.004 76.3148C162.163 78.1325 161.606 79.4636 160.973 80.974L160.973 80.9745C160.853 81.261 160.73 81.5539 160.609 81.8579C160.924 78.9144 160.42 77.3628 159.665 75.0389L159.621 74.9025ZM163.523 76.3471C163.712 74.65 164.082 71.3263 163.222 70.0479C163.125 70.5598 163.302 75.3968 163.443 77.1445C164.205 75.591 164.458 73.1107 164.255 72.1751L164.243 72.2666L164.243 72.2669C164.122 73.1882 163.743 76.0676 163.443 77.1445C163.455 76.9646 163.485 76.6888 163.523 76.3471ZM163.505 81.0105C163.699 80.578 163.964 79.2363 164.105 78.0183C164.246 76.8004 165.199 75.7499 165.199 75.7499C165.224 75.9849 165.145 76.6362 165.066 77.2774C165.034 77.5353 165.003 77.7915 164.979 78.0183C164.911 78.6454 164.246 79.7598 163.797 80.5112C163.68 80.7074 163.578 80.8789 163.505 81.0105Z" fill="#2A6458"/>
<path d="M84.144 25.9524L81.3107 24.3876L80.8174 24.5581L82.6304 29.8056C83.0864 29.6481 83.5423 29.4905 83.9983 29.333L83.1925 27.0007L84.7017 27.7846L84.8512 27.733L85.5621 26.1821L86.3679 28.5143C86.8239 28.3567 87.2799 28.1992 87.7359 28.0417L85.9229 22.7942L85.4445 22.9594L84.144 25.9524Z" fill="#2A6458"/>
<path d="M88.876 27.4603L88.9298 27.6587L90.4564 27.245L90.9463 25.4243L91.6562 25.2319L92.0823 26.8044C92.5403 26.6803 93.006 26.5541 93.4487 26.4341C92.9667 24.6556 92.4847 22.877 92.0007 21.0908C91.2297 21.2997 90.4359 21.5148 89.6573 21.7258C87.5602 22.3023 87.8632 24.9324 89.4625 25.4823L88.876 27.4603ZM90.3461 24.2677C89.6057 24.4684 89.2117 23.1658 89.9882 22.9472C90.3068 22.8527 90.6447 22.7693 90.9653 22.6824C91.0832 23.1175 91.2073 23.5755 91.3232 24.003L90.3461 24.2677Z" fill="#2A6458"/>
<path d="M94.448 23.3162C94.8296 25.1594 96.4133 25.8068 97.7914 25.5194C98.9463 25.2854 100.041 24.4342 99.9313 22.8587C99.4584 22.9545 99.0321 23.0409 98.5671 23.1351C98.5376 23.7463 98.1245 24.1366 97.5354 24.256C96.7122 24.4148 96.0438 23.824 95.882 23.0256C95.6998 22.1265 96.1105 21.4058 96.9244 21.2408C97.5057 21.123 97.9668 21.2878 98.2721 21.7989C98.7449 21.7031 99.1635 21.6182 99.6363 21.5224C99.1333 20.1154 97.7923 19.7496 96.6684 19.9774C95.2887 20.257 94.0819 21.4698 94.448 23.3162Z" fill="#2A6458"/>
<path d="M105.66 18.5934C105.182 18.6583 104.704 18.7231 104.226 18.788L104.496 20.7786L102.803 21.0082L102.533 19.0176C102.055 19.0825 101.569 19.1484 101.099 19.2122L101.843 24.698C102.313 24.6342 102.799 24.5683 103.277 24.5035L102.979 22.3013L104.671 22.0716L104.97 24.2738C105.448 24.209 105.926 24.1441 106.404 24.0793L105.66 18.5934Z" fill="#2A6458"/>
<path d="M111.372 23.6666L112.752 23.5653L112.737 23.3602L109.849 18.1561L109.241 18.2007L107.153 23.7702L107.168 23.9753L108.548 23.874L108.82 23.1561L110.997 22.9963L111.372 23.6666ZM110.451 21.8231L109.189 21.9158L109.706 20.4187L110.451 21.8231Z" fill="#2A6458"/>
<path d="M113.384 23.3318L113.387 23.5374L114.968 23.5129L115.892 21.8693L116.628 21.858L116.653 23.4869C117.127 23.4796 117.61 23.4722 118.068 23.4651C118.04 21.6226 118.011 19.7801 117.983 17.9297C117.184 17.942 116.362 17.9547 115.555 17.9672C113.381 18.0087 113.026 20.6322 114.44 21.5595L113.384 23.3318ZM115.596 20.6004C114.829 20.6123 114.768 19.2528 115.575 19.2324C115.907 19.2194 116.255 19.2219 116.587 19.2168C116.594 19.6675 116.601 20.142 116.608 20.5848L115.596 20.6004Z" fill="#2A6458"/>
<path d="M127.57 21.1884C127.506 21.9766 126.891 22.1329 126.313 22.1178L126.478 20.0761C127.083 20.1491 127.634 20.4001 127.57 21.1884ZM123.913 20.8914C123.977 20.1032 124.561 19.9443 125.17 19.9699L125.004 22.0115C124.431 21.9333 123.849 21.6797 123.913 20.8914ZM124.845 23.776L126.185 23.8848L126.223 23.4197C127.653 23.4882 128.873 23.0239 129.013 21.3055C129.152 19.5949 128.03 18.9484 126.607 18.7853L126.645 18.3202L125.289 18.2102L125.251 18.6752C123.82 18.6067 122.609 19.0638 122.47 20.7743C122.331 22.4928 123.46 23.1478 124.883 23.3109L124.845 23.776Z" fill="#2A6458"/>
<path d="M134.536 19.3236C133.253 19.1344 132.385 19.0064 131.117 18.8196C130.85 20.6348 130.58 22.4656 130.31 24.2965C131.578 24.4833 132.516 24.6217 133.8 24.8108C133.861 24.3962 133.923 23.9736 133.983 23.5668C133.161 23.4457 132.692 23.3765 131.886 23.2577C131.935 22.9291 131.981 22.6161 132.028 22.2953L133.89 22.5698C133.951 22.1552 134.012 21.7405 134.073 21.3258L132.211 21.0513L132.325 20.2767C133.131 20.3955 133.538 20.4555 134.352 20.5754C134.414 20.1529 134.476 19.7304 134.536 19.3236Z" fill="#2A6458"/>
<path d="M136.595 25.3318L136.882 23.9454L137.881 24.1519C140.475 24.688 141.308 20.6605 138.715 20.1167C137.917 19.9519 137.111 19.7854 136.329 19.6238C135.955 21.4361 135.582 23.2407 135.209 25.0453C135.666 25.1398 136.131 25.2358 136.595 25.3318ZM138.131 22.9033L137.139 22.6985C137.231 22.257 137.368 21.5909 137.459 21.1495C137.777 21.2151 138.127 21.2793 138.451 21.3543C139.255 21.5285 138.89 23.0601 138.131 22.9033Z" fill="#2A6458"/>
<path d="M144.569 23.9861L143.128 21.0878L142.626 20.9475L141.133 26.2949C141.597 26.4246 142.062 26.5543 142.527 26.684L143.19 24.3074L143.986 25.8104L144.138 25.8529L145.605 24.9815L144.942 27.3581C145.406 27.4878 145.871 27.6175 146.336 27.7472L147.828 22.3998L147.341 22.2637L144.569 23.9861Z" fill="#2A6458"/>
<path d="M151.367 29.4643L152.672 29.9261L152.741 29.7322L152.187 23.8063L151.613 23.6031L147.462 27.864L147.394 28.0578L148.698 28.5196L149.236 27.9717L151.294 28.7L151.367 29.4643ZM151.265 27.4063L150.072 26.9841L151.147 25.8207L151.265 27.4063Z" fill="#2A6458"/>
</svg>
