<svg xmlns="http://www.w3.org/2000/svg" xmlns:xlink="http://www.w3.org/1999/xlink" width="1400" height="182" fill="none" xmlns:v="https://vecta.io/nano"><style><![CDATA[.B{fill:#c0edc3}.C{fill-rule:evenodd}]]></style><mask id="A" maskUnits="userSpaceOnUse" x="0" y="0" width="1400" height="182" mask-type="alpha"><path d="M0 0H1400V182H0V0Z" fill="#e7f9e3"/></mask><g mask="url(#A)" class="B"><use xlink:href="#C"/><path d="M574.309 115.057c1.729-.245 9.351-.416 11.106-.513 1.721-.111 3.429-.19 5.141-.251l5.141-.114a66.59 66.59 0 0 1 5.269.118c-1.596.621-3.291 1.08-5.042 1.365-1.728.295-3.6-.06-5.368 0s-4.718.168-6.475 0c-1.774-.16-5.876.243-7.546-.244l-2.226-.361zM451.818 153.73c1.73-.245 9.352-.416 11.106-.513 1.722-.11 2.769-.679 4.481-.74s4.08.39 5.801.375c1.758-.03 4.342.114 5.579.878-2.226.361-3.828.077-5.579.361-1.728.295-3.372.184-5.141.243s-4.717.169-6.474 0c-1.774-.159-5.876.244-7.546-.243l-2.227-.361z"/><use xlink:href="#D"/><use xlink:href="#D" x="-139.289" y="34.507"/><path d="M669.016 34.887l3.982.476 7.793.285 9.613.118 5.269-.118c-1.596-.622-3.518-.814-5.269-1.098-1.728-.295-3.601.059-5.369 0s-5.312-.656-7.069-.488c-1.774.159-5.282.244-6.951.731l-1.999.094zM498.467 92.434l3.982.476 7.793.285 9.613.118 5.27-.118c-1.597-.622-3.519-.814-5.27-1.098-1.728-.295-3.6.059-5.369 0s-5.312-.656-7.069-.488c-1.774.159-5.281.244-6.951.731l-1.999.094z"/><use xlink:href="#C" x="-15.958" y="-35.452"/><path d="M545.832 49.482l6.828-.49 6.789-.095 6.789.224a62.77 62.77 0 0 1 6.808.741 63.59 63.59 0 0 1-6.803.76l-6.824.182-6.823-.315a51 51 0 0 1-6.764-1.007h0zm285.17-13.075c4.824-.753 4.736-.899 9.587-.308 2.261.284 9.596-.083 11.844 0 .415.003 2.897.678 3.309.637-.67.454-6.429.439-7.303.583a18.47 18.47 0 0 1-2.578.274l-2.439.095a61.16 61.16 0 0 1-2.504.034 46.78 46.78 0 0 1-4.998-.319 28.34 28.34 0 0 1-4.918-.996zm78.179 63.32c4.824-.753 4.735-.899 9.587-.308 2.26.284 9.595-.083 11.844 0 .415.003 2.897.678 3.309.637-.671.454-6.43.439-7.303.583-.847.151-1.71.242-2.578.274l-2.44.095c-.836.03-1.667.038-2.503.034-1.674-.018-3.344-.124-4.998-.32a28.3 28.3 0 0 1-4.918-.995zM576.645 28.99c1.077-.382 2.369-.253 3.538-.411l4.075-.403c1.147-.027 1.704-.11 2.842 0l5.791.692c-1.109.317-4.827.331-5.999.452l-3.432.224a39.46 39.46 0 0 1-3.431-.076 22.92 22.92 0 0 1-3.384-.478zm-68.409 22.349c1.078-.382 2.37-.253 3.539-.411l4.075-.403c1.146-.027 1.704-.11 2.842 0l5.791.691c-1.109.317-4.827.331-5.999.452l-3.432.224a39.49 39.49 0 0 1-3.431-.076 22.95 22.95 0 0 1-3.385-.478zm43.225-21.426c.849-.483 3.246-.748 4.24-1.022.961-.271 3.87-.229 4.883-.342s2.879-.203 3.897-.133c1.068.063 3.154 0 6.061.737-1.917.285-5.057.083-6.061.285-.946.204-2.925.365-3.897.475-.983.112-3.583.004-4.577 0h-4.546zM538.286 40.15l7.674-.886 7.692-.464 7.77-.046c2.626.056 5.236.268 7.79.635l-7.68.859-7.686.448-7.732.057c-2.636-.05-5.258-.252-7.828-.604zm43.614 9.387c2.219-.517 1.651-.597 3.95-.822 2.281-.233 5.927-.243 8.226-.292l8.372-.314c2.311.108 10.581-.064 12.843.313-2.261.365-4.315.969-6.618 1.114-2.28.158-10.76.321-13.037.372s-4.554.056-6.84.015a86.66 86.66 0 0 1-6.896-.387zm58.938 65.133c-2.219-.517-1.65-.597-3.95-.822-2.28-.233-5.927-.243-8.226-.292l-8.372-.314c-2.311.108-10.581-.064-12.843.314 2.261.365 4.316.968 6.618 1.114 2.28.157 10.76.321 13.038.372a169.45 169.45 0 0 0 6.839.015 87.06 87.06 0 0 0 6.896-.387zm150.28-67.633c2.219-.517 1.65-.597 3.95-.822 2.28-.233 5.927-.242 8.226-.292l8.372-.314c2.311.108 10.581-.064 12.843.313-2.261.365-4.316.969-6.618 1.114-2.28.158-10.76.321-13.038.372a169.08 169.08 0 0 1-6.839.015 86.12 86.12 0 0 1-6.896-.387zm-213.511-7.498c2.219-.517 1.651-.597 3.95-.822 2.281-.233 5.927-.243 8.226-.292l8.372-.313c2.311.107 10.581-.064 12.843.313-2.261.365-4.315.969-6.618 1.114-2.28.157-10.76.321-13.037.372a168.95 168.95 0 0 1-6.84.015 86.66 86.66 0 0 1-6.896-.387zM717.701 1.941c2.219-.517 1.65-.597 3.95-.822 2.28-.233 5.927-.243 8.226-.292l8.372-.314c2.311.107 10.581-.064 12.843.313-2.261.365-4.316.969-6.618 1.114-2.28.158-10.76.322-13.038.372a168.97 168.97 0 0 1-6.839.015 86.12 86.12 0 0 1-6.896-.387zM551.96 64.776l8.302-.822c2.766-.175 5.6.272 8.371.219l8.254-.54 8.349.54-8.289.956c-2.764.203-5.536-.052-8.314 0l-8.335.316-8.338-.669zm5.283 57.936l8.302-.823c2.765-.175 5.599.273 8.37.22l8.254-.541 8.349.541-8.289.956c-2.764.203-5.536-.052-8.314 0l-8.335.316-8.337-.669zm-83.586-15.36l8.302-.822c2.765-.175 5.599.272 8.37.22l8.254-.541 8.349.54-8.289.957c-2.764.203-5.536-.053-8.314 0l-8.335.316-8.337-.67zm118.069-36.915l9.896-.912 9.896-.57 4.948-.148 5.022.106 4.914.198c1.643.049 4.599 0 6.671.428-1.948.499-4.911.318-6.587.499l-5.003.38-4.898.201-4.948.243-9.941.163-9.97-.589z"/><path d="M906.547 115.814l9.896-.912 9.896-.57 4.948-.149 5.022.107 4.914.197c1.644.049 4.599 0 6.671.429-1.948.499-4.91.318-6.587.499l-5.003.38-4.898.201-4.948.244-9.941.163c-3.337-.027-6.667-.224-9.97-.589zM768.867 9.561l9.896-.912c3.306-.255 11.628 0 11.628 0l5.907-.312c1.643-.027 3.38.03 5.022.106l4.914.198c1.644.049 4.599 0 6.671.429-1.948.499-4.91.318-6.587.499a59.95 59.95 0 0 1-5.003.38l-4.898.201c-1.603.103-5.991-.232-7.639-.163-3.305.133-6.62.201-9.94.163-3.337-.027-6.668-.224-9.971-.589zM559.977 70.83c1.348-.48 2.741-1.171 4.181-1.171l6.91.283c1.458-.17 6.442-.309 7.917-.283 2.105.036 5.551.536 6.989.901-1.396.368-6.525.027-7.967.27-1.405.243-4.643-.156-6.073 0-1.439.166-6.03.269-7.484.3-1.502.045-3.005-.056-4.473-.3zm316.181 45.822c1.348-.481 2.741-1.171 4.181-1.171l6.91.283c1.459-.17 6.442-.309 7.917-.283 2.105.036 5.552.535 6.989.901-1.396.367-6.524.027-7.966.27-1.405.243-4.644-.156-6.074 0-1.439.166-6.029.269-7.484.3-1.501.045-3.004-.056-4.473-.3zm-362.199-9.133c1.348-.481 2.741-1.171 4.181-1.171l6.91.283c1.459-.17 6.442-.309 7.917-.283 2.105.036 5.552.535 6.989.901-1.396.368-6.525.027-7.966.27-1.406.243-4.644-.156-6.074 0-1.439.166-6.029.269-7.484.3a23.03 23.03 0 0 1-4.473-.3zm-20.576 45.637c1.348-.48 2.741-1.171 4.181-1.171l6.91.284c1.459-.17 6.442-.309 7.917-.284 2.105.037 5.552.536 6.989.902-1.396.367-6.525.027-7.966.269-1.406.244-4.644-.155-6.074 0-1.439.167-6.03.27-7.484.301-1.502.045-3.005-.056-4.473-.301zm34.183-23.88c1.349-.481 2.742-1.171 4.182-1.171l6.91.283c1.458-.17 6.441-.309 7.916-.283 2.106.036 5.552.535 6.99.901-1.397.367-6.525.027-7.967.27-1.405.243-4.644-.156-6.074 0-1.439.166-6.029.269-7.484.3-1.501.045-3.004-.056-4.473-.3zM763.467 1.307c1.348-.48 2.741-1.171 4.181-1.171l6.91.283c1.459-.17 6.442-.309 7.917-.283 2.105.036 5.552.536 6.989.901-1.396.368-6.525.027-7.966.27-1.406.243-4.644-.156-6.074 0-1.439.166-6.03.269-7.484.3a23.03 23.03 0 0 1-4.473-.3zM869.48 45.643c1.349-.48 2.742-1.171 4.182-1.171l6.91.283c1.458-.17 6.441-.309 7.916-.283 2.106.036 5.552.536 6.99.901-1.397.368-6.525.027-7.967.27-1.405.243-4.644-.156-6.074 0-1.439.166-6.029.269-7.483.3a23.12 23.12 0 0 1-4.474-.3zM562.47 78.667c1.834-.472 2.1-.938 4.02-1.121 1.902-.193 5.937.017 7.855 0 1.906-.023 4.287-.493 6.185-.356 1.923.131 4.689.867 6.556 1.242-1.866.373-6.985.264-8.906.397l-6.216.19h-5.721l-3.773-.352zm6.272 59.385c1.835-.471 2.101-.938 4.021-1.121 1.901-.193 5.936.017 7.855 0 1.906-.023 4.287-.493 6.185-.356 1.922.13 4.688.866 6.556 1.242-1.867.372-6.986.264-8.907.397l-6.216.19h-5.721l-3.773-.352zM736.271 10.13c1.835.472 2.101.938 4.021 1.121 1.901.193 5.937-.017 7.855 0 1.906.023 4.287.493 6.185.356 1.923-.131 4.689-.867 6.556-1.242-1.866-.373-6.986-.264-8.906-.397l-6.216-.19c-1.891-.023-3.827-.095-5.722 0l-3.773.352zm-157.04-.549c1.835-.361 2.101-.718 4.021-.859 1.901-.148 5.937.013 7.855 0 1.906-.017 14.535 0 17.627-.546 1.923.1 5.06.937 6.928 1.224-1.867.285-6.986.202-8.907.304-1.895.108-16.139.128-18.029.146s-3.827.073-5.722 0c-1.927-.064-1.874-.062-3.773-.269zm234.663 98.856c1.834-.361 2.1-.719 4.02-.859 1.902-.148 5.937.013 7.855 0 1.906-.017 14.535 0 17.627-.546 1.923.1 5.06.937 6.928 1.224-1.867.286-6.986.202-8.907.304-1.895.108-16.139.128-18.029.146s-3.826.073-5.722 0c-1.927-.064-1.874-.062-3.772-.269zm-222.045-30.09l16.402-1.247 16.423-1.053c5.493-.258 11.015-.38 16.537-.251a119.57 119.57 0 0 1 16.447 1.411c-5.512-.099-10.98-.072-16.442.072l-16.388.665-16.458.631a187.1 187.1 0 0 1-16.521-.228zm-170.585 38.198l16.403-1.247 16.422-1.054c5.493-.258 11.015-.38 16.537-.251 5.526.093 11.03.565 16.447 1.411-5.512-.099-10.98-.072-16.442.072l-16.388.666-16.458.631a187.29 187.29 0 0 1-16.521-.228zM563.599 84.97c2.36-.469 2.694-.435 5.118-.635l8.69-.384c2.411-.041 7.787-.107 10.206 0 2.431.103 5.682.874 8.071 1.237-2.381.379-7.978-.151-10.402 0-2.401.165-5.685-.043-8.091 0s-6.062.214-8.474.145c-2.428-.058-2.713-.097-5.118-.363zm-66.923 53.179c2.36-.469 2.694-.435 5.118-.635l8.69-.383c2.411-.041 7.787-.108 10.206 0 2.431.102 5.682.874 8.071 1.236-2.381.38-7.978-.151-10.402 0-2.401.165-5.685-.042-8.091 0s-6.062.214-8.474.145c-2.428-.057-2.713-.097-5.118-.363zm-5.256-.291c-2.361-.469-2.694-.435-5.119-.635l-8.69-.383c-2.41-.041-7.786-.108-10.205 0-2.432.102-5.683.874-8.072 1.236 2.382.38 7.979-.151 10.403 0 2.401.165 5.685-.042 8.091 0s6.061.214 8.473.145c2.429-.057 2.714-.097 5.119-.363zm.185-23.423c2.36-.469 2.694-.435 5.118-.635l8.69-.383c2.411-.041 7.787-.108 10.206 0 2.431.103 5.682.874 8.071 1.236-2.381.38-7.978-.151-10.403 0-2.401.166-5.685-.042-8.09 0s-6.062.214-8.474.145c-2.429-.057-2.713-.097-5.118-.363zm339.313-68.622c2.36-.469 2.694-.435 5.119-.635l8.69-.383c2.41-.041 7.786-.107 10.205 0 2.432.103 5.683.874 8.072 1.237-2.382.379-7.979-.151-10.403 0-2.401.165-5.685-.043-8.091 0s-6.061.213-8.473.145c-2.429-.058-2.714-.097-5.119-.363zm-196.994-1.314c2.36-.469 2.694-.435 5.118-.635 2.408-.207 12.403-.561 14.814-.602s11.25.256 13.669.363c2.431.103 5.682.874 8.071 1.237-2.381.379-7.978-.151-10.402 0-2.402.165-9.149-.406-11.555-.363l-14.597.364c-2.428-.058-2.713-.097-5.118-.363zm-148.01 13.796c2.36-.469 2.694-.435 5.118-.635 2.408-.207 12.403-.561 14.814-.602s11.25.256 13.669.363c2.431.103 5.682.874 8.071 1.237-2.381.379-7.978-.151-10.402 0-2.401.165-9.149-.406-11.555-.363l-14.597.364c-2.428-.058-2.713-.097-5.118-.364zm6.99 20.364c2.36-.469 2.694-.435 5.118-.635 2.408-.207 7.95-.561 10.36-.602s11.25.256 13.669.363c2.432.103 5.683.874 8.072 1.237-2.382.379-7.978-.151-10.403 0-2.401.165-9.148-.406-11.554-.363s-7.732.432-10.144.364c-2.428-.058-2.713-.097-5.118-.363zm326.943-18.745c2.36-.469 2.694-.435 5.118-.635 2.408-.207 12.218-.198 14.628-.239s11.776.131 14.195.239c2.432.103 7.136-.362 9.525 0-2.382.379-9.432 1.086-11.856 1.237-2.401.165-9.674-.281-12.08-.239s-12 .069-14.412 0c-2.428-.058-2.713-.097-5.118-.363zm100.638 6.447c-2.361-.469-2.695-.435-5.119-.635-2.408-.207-12.403-.561-14.813-.602s-11.25.256-13.669.363c-2.432.103-5.683.874-8.072 1.237 2.382.379 7.979-.151 10.403 0 2.401.165 9.148-.406 11.554-.363l14.597.364c2.429-.058 2.714-.097 5.119-.364zm-95.201 6.653c2.36-.469 2.694-.435 5.119-.635 2.407-.207 12.402-.561 14.813-.602s11.25.256 13.669.363c2.431.103 5.682.874 8.071 1.237-2.381.379-7.978-.151-10.402 0-2.401.165-9.149-.406-11.555-.363l-14.596.364c-2.429-.058-2.714-.097-5.119-.363zM601.127 84.946c1.314-.466 3.123-.732 4.484-.732h4.847a39.37 39.37 0 0 1 4.25-.205 22.12 22.12 0 0 1 4.325.41c-1.32.452-2.275.267-3.68.527-1.369.265-3.496.145-4.895.285-1.406.145-3.831 0-5.249 0-1.458.009-2.562-.285-4.082-.285zm-76.571 61.027c1.313-.466 3.123-.732 4.484-.732h4.846a39.39 39.39 0 0 1 4.251-.205 22.11 22.11 0 0 1 4.324.41c-1.32.452-2.274.267-3.68.527-1.368.265-3.495.145-4.895.285s-3.83.001-5.248 0c-1.458.009-2.562-.285-4.082-.285zm25.729 8.119c-1.103-.387-2.622-.608-3.765-.608-1.532 0-2.48-.03-4.069 0l-5.853.267c-1.225-.004-2.445.11-3.631.341 1.108.375 1.91.221 3.09.437 1.149.22 5.219.431 5.219.431l5.582-.632c1.224.008 2.151-.236 3.427-.236zM681.039 44.619c1.314-.466 3.124-.732 4.484-.732h4.847a39.37 39.37 0 0 1 4.25-.205 22.12 22.12 0 0 1 4.325.41c-1.32.452-2.275.267-3.68.527-1.369.265-3.495.145-4.895.285-1.406.145-3.831.001-5.249 0-1.457.009-2.562-.285-4.082-.285zm143.881 87.334c1.314-.467 3.123-.733 4.484-.733h4.847c1.408-.144 2.829-.213 4.25-.205 1.458-.005 2.912.133 4.325.411-1.321.452-2.275.266-3.68.527-1.369.264-3.496.144-4.895.285-1.406.144-3.831 0-5.249 0-1.458.009-2.562-.285-4.082-.285zm-320.774-67.24c1.313-.466 3.123-.732 4.484-.732h4.846c1.409-.145 2.829-.213 4.251-.205a22.12 22.12 0 0 1 4.324.41c-1.32.452-2.274.267-3.68.527-1.369.265-3.495.145-4.895.285s-3.83 0-5.248 0c-1.458.009-2.562-.285-4.082-.285zm9.43 6.735c1.314-.466 3.124-.732 4.484-.732h4.847a39.37 39.37 0 0 1 4.25-.205 22.12 22.12 0 0 1 4.325.41c-1.32.452-2.275.267-3.68.527-1.369.265-3.495.145-4.895.285-1.406.145-3.83.001-5.249 0-1.457.009-2.562-.285-4.082-.285zm359.794-4.969c-1.313-.466-3.123-.732-4.484-.732h-4.847c-1.408-.145-2.829-.213-4.25-.205a22.13 22.13 0 0 0-4.325.41c1.321.452 2.275.267 3.68.527 1.369.265 3.496.145 4.895.285 1.406.145 3.831.001 5.249 0 1.458.009 2.562-.285 4.082-.285zm-.971 6.654c1.314-.466 3.124-.732 4.485-.732h4.846c1.409-.145 2.829-.213 4.251-.205a22.12 22.12 0 0 1 4.324.41c-1.32.452-2.275.267-3.68.527-1.369.265-3.495.145-4.895.285s-3.83 0-5.248 0c-1.458.009-2.562-.285-4.083-.285zm-19.044 13.496c1.314-.466 3.124-.732 4.485-.732h4.846c1.409-.145 2.829-.213 4.251-.205a22.12 22.12 0 0 1 4.324.41c-1.32.452-2.275.267-3.68.527-1.369.265-3.495.145-4.895.285s-3.83.001-5.248 0c-1.458.009-2.562-.285-4.083-.285zm-247.156 3.862c1.905-.371 2.438-.214 4.392-.38 1.923-.175 5.336.048 7.276 0s4.514-.526 6.455-.426c1.969.089 3.219.057 5.133.426a54.56 54.56 0 0 1-5.789.806l-5.799.335a76.4 76.4 0 0 1-5.829-.076c-1.97-.09-3.924-.319-5.839-.684zm-28.139.55c1.21-.361 3.006-.353 4.295-.474l3.958-.214c1.228-.029 4.866.174 6.092.214h6.216c-1.082.584-7.864.533-9.154.76-1.249.239-2.644-.019-3.932 0-1.269.025-2.458-.14-3.713-.286-1.284-.141-2.556.366-3.762 0zm-20.839 57.126c1.21-.36 3.006-.352 4.295-.474l3.958-.214c1.228-.029 4.866.175 6.092.214h6.216c-1.082.584-7.864.533-9.153.76-1.25.239-2.645-.019-3.933 0-1.269.025-2.458-.14-3.713-.286-1.284-.14-2.556.366-3.762 0zm30.918-18.446l6.195-.287 6.115-.192 6.166-.094 6.264.16-6.081.646-6.195.315c-2.09.057-4.188.048-6.274-.026a59.63 59.63 0 0 1-6.19-.522h0zm-57.893-14.727c1.979-.586 4.698-1.273 6.742-1.354h6.803l7.546-.499c2.095-.014 3.306.211 5.381.332l-6.081.646-6.195.315-6.712.18c-2.106-.069-5.134.024-7.484.38zm-59.625 31.035l6.989-.74c2.044-.081 19.758-.003 21.802-.054s6.251.004 8.32 0c2.094-.014 3.305.211 5.38.332a92.68 92.68 0 0 1-6.081.645c-2.048.157-5.541.256-7.619.31-2.09.057-18.973-.185-21.06-.26-2.106-.069-5.504.263-7.731-.233zm156.885-16.781c1.946-.457 3.107-1.063 5.117-1.311 1.99-.258 3.513.137 5.538 0 2.013-.139 5.334.017 7.36 0l7.211.253c-1.957.456-5.192.449-7.211.698-1.991.257-3.867.219-5.872.353l-6.022.235c-2.045.029-4.09-.047-6.121-.228zm-5.864 6.93c1.098-.248 2.532-.524 3.689-.639 1.125-.117 1.507.181 2.647.146h2.781c1.18.063 2.534.073 3.645.32a27.96 27.96 0 0 1-3.392.546l-3.401.227c-1.148.033-2.299.015-3.443-.052-1.18-.062-1.415-.303-2.526-.548zm-162.544-14.055l3.689-.639c1.125-.116 1.507.181 2.647.147h2.781c1.18.062 2.534.072 3.645.319a27.96 27.96 0 0 1-3.392.546l-3.401.227c-1.148.033-2.299.016-3.443-.051-1.18-.063-1.414-.303-2.526-.549zm447.923-36.498c1.099-.248 2.532-.524 3.69-.639 1.125-.117 1.507.181 2.647.147h2.78c1.18.062 2.535.072 3.646.32-1.099.248-2.235.431-3.392.546l-3.401.227a39.51 39.51 0 0 1-3.444-.051c-1.179-.062-1.414-.303-2.526-.548zm-281.682-1.358a15.18 15.18 0 0 1 2.907-.645c.941-.122 1.894.012 2.849 0h4.545l5.474.645c-.89.389-3.762.48-4.763.646-.953.164-4.279-.012-5.256 0-.984.011-1.926.35-2.89.2a10.66 10.66 0 0 1-2.866-.845zm-132.998 8.256c-.93-.307-1.906-.523-2.906-.645-.942-.122-1.894.012-2.849 0h-4.545l-5.474.645c.89.389 3.762.48 4.763.646.953.164 4.279-.012 5.256 0 .983.011 1.926.35 2.89.2 1.012-.152 1.981-.438 2.865-.845zm213.714-48.298c2.137-.266 2.478-.276 4.549-.302l5.969-.368 8.365.713c-2.165.309-6.87.437-7.871.603-.953.164-5.288 0-6.463 0-1.582 0-3.108-.27-4.549-.646zm148.566 87.707c2.136-.266 2.477-.275 4.548-.301l5.969-.369 8.365.713c-2.165.309-6.869.437-7.87.603-.954.164-5.289 0-6.464 0-1.582 0-3.108-.27-4.548-.646zm-156.73-21.456a29.5 29.5 0 0 1 4.549-.301l5.969-.369 8.365.713c-2.165.309-6.87.437-7.871.603-.953.164-5.288 0-6.463 0-1.582 0-3.108-.27-4.549-.646zm55.17-91.499c2.137-.266 2.478-.276 4.549-.302l5.968-.368 8.366.713c-2.165.309-6.87.437-7.871.603-.953.164-5.288 0-6.463 0-1.582 0-3.108-.27-4.549-.646zm-79.169 84.587c2.137-.266 2.478-.275 4.549-.302l5.968-.368 8.366.713c-2.165.309-6.87.437-7.871.603-.953.164-5.288 0-6.463 0-1.582 0-3.108-.27-4.549-.646zm205.204-17.518c2.136-.266 2.477-.276 4.548-.302l5.969-.368 8.365.713c-2.165.309-6.87.437-7.871.603-.953.164-5.288 0-6.463 0-1.582 0-3.108-.27-4.548-.646zM589.623 63.637c1.927-.436 3.393-.403 5.38-.627 2.629.185 3.681-.113 5.66-.219l9.002-.26c2.013.025 4.02.185 5.997.479a53.42 53.42 0 0 1-5.874 1.015c-1.979.236-6.221-.103-8.201 0l-5.962.106a45.12 45.12 0 0 1-6.002-.494zm8.499 58.683c1.927-.436 3.393-.402 5.38-.627 2.629.185 3.681-.113 5.66-.219l9.002-.26c2.013.025 4.02.185 5.997.479a53.49 53.49 0 0 1-5.874 1.015c-1.979.236-6.221-.102-8.201 0l-5.962.107c-2.015-.032-4.024-.197-6.002-.495zm-127.005-22.075c1.927-.436 3.393-.402 5.381-.627 2.628.185 3.68-.113 5.659-.219l9.002-.26c2.013.025 4.02.185 5.997.479a53.47 53.47 0 0 1-5.874 1.015c-1.979.236-6.221-.103-8.2 0l-5.963.107a45.15 45.15 0 0 1-6.002-.495zm324.1-63.251c1.927-.436 3.393-.402 5.38-.627 2.629.185 3.68-.113 5.66-.219l9.001-.26a44.52 44.52 0 0 1 5.997.479c-1.924.445-3.886.784-5.873 1.015-1.979.236-6.222-.103-8.201 0l-5.962.106a45.09 45.09 0 0 1-6.002-.494zm90.054 94.834c1.927-.436 3.394-.402 5.381-.627 2.628.185 3.68-.113 5.659-.219l9.002-.26c2.013.025 4.02.185 5.997.479-1.924.445-3.887.784-5.873 1.015-1.98.236-6.222-.103-8.201 0l-5.962.106c-2.016-.031-4.024-.196-6.003-.494zm-158.72-96.86c-1.73-.245-9.352-.416-11.106-.513-1.722-.11-3.429-.19-5.141-.251l-5.141-.114a66.67 66.67 0 0 0-5.27.118 24.89 24.89 0 0 0 5.042 1.365c1.728.295 3.6-.059 5.369 0s4.717.169 6.474 0c1.774-.159 5.876.244 7.546-.243l2.227-.361z"/><use xlink:href="#E"/><use xlink:href="#E" x="-139.289" y="34.506"/><path d="M716.479 25.305c-1.73-.245-9.352-.416-11.106-.513-1.722-.11-3.429-.19-5.141-.251l-5.142-.114a66.6 66.6 0 0 0-5.269.118c1.596.622 3.291 1.081 5.042 1.365 1.728.295 3.6-.059 5.369 0s4.717.168 6.474 0c1.774-.159 5.876.244 7.546-.243l2.227-.361zm144.731 75.699c-1.73-.245-9.352-.416-11.106-.513-1.722-.11-3.429-.19-5.141-.251l-5.141-.114c-1.758-.03-3.517.009-5.27.118 1.596.622 3.291 1.081 5.042 1.365 1.728.295 3.601-.059 5.369 0s4.717.168 6.475 0c1.774-.159 5.876.244 7.545-.243l2.227-.362zm-65.81-6.847c-1.729-.245-9.351-.416-11.106-.513-1.722-.11-3.429-.19-5.141-.251l-5.141-.114a66.59 66.59 0 0 0-5.269.118c1.596.622 3.291 1.081 5.042 1.365 1.728.295 3.6-.059 5.368 0s4.718.168 6.475 0c1.774-.159 5.876.244 7.546-.243l2.226-.361zm58.806-65.652c-1.73-.245-9.352-.416-11.106-.513-1.722-.11-3.429-.19-5.141-.251l-5.141-.114a66.72 66.72 0 0 0-5.27.118c1.596.622 3.292 1.081 5.042 1.365 1.728.295 3.601-.059 5.369 0s4.717.168 6.475 0c1.774-.159 5.876.244 7.545-.243l2.227-.361zm-3.635 38.24c-1.729-.245-9.351-.416-11.106-.513-1.722-.11-3.429-.19-5.141-.251l-5.141-.114a66.59 66.59 0 0 0-5.269.118 24.89 24.89 0 0 0 5.042 1.365c1.728.295 3.6-.059 5.368 0s4.717.168 6.475 0c1.774-.159 5.876.244 7.546-.243l2.226-.361zM622.398 9.521l7.119-.585h6.499H656.7c2.503-.089 9.967-.275 12.211.095a63.64 63.64 0 0 1-6.803.76c-2.273.139-23.816.755-26.092.737s-3.93-.369-6.789-.369c-2.213 0-3.731-.638-6.829-.638zm49.857 44.524c-4.824-.753-4.736-.899-9.587-.308-2.261.284-9.596-.083-11.844 0-.416.003-2.898.678-3.309.637.67.454 6.429.439 7.303.583a18.44 18.44 0 0 0 2.578.274l2.439.095c.836.03 1.668.038 2.504.034a46.76 46.76 0 0 0 4.997-.319 28.35 28.35 0 0 0 4.919-.996zm-10.639 35.979c-4.824-.753-4.735-.899-9.587-.308-2.261.284-9.596-.083-11.844 0-.415.003-2.897.678-3.309.637.67.454 6.429.439 7.303.583a18.47 18.47 0 0 0 2.578.274l2.44.095c.836.03 1.667.038 2.503.034 1.674-.017 3.344-.124 4.998-.319a28.35 28.35 0 0 0 4.918-.996zm-65.808 7.971c-4.825-.753-4.736-.899-9.587-.308-2.261.284-9.596-.083-11.845 0-.415.003-2.897.678-3.309.637.671.454 6.43.438 7.304.583.846.151 1.709.243 2.578.274l2.439.095a61.11 61.11 0 0 0 2.504.034 46.76 46.76 0 0 0 4.997-.319 28.36 28.36 0 0 0 4.919-.996zm58.597 22.797c-4.824-.753-4.735-.898-9.587-.308-2.261.284-9.596-.083-11.844 0-.415.003-2.897.678-3.309.638.67.453 6.429.438 7.303.582.847.151 1.71.243 2.578.274l2.44.095c.836.03 1.667.038 2.503.034 1.674-.017 3.344-.124 4.998-.319 1.683-.189 3.333-.523 4.918-.996zm232.597-42.511c4.824-.753 4.736-.899 9.587-.308 2.261.284 9.596-.083 11.844 0 .415.003 2.897.678 3.309.637-.67.454-6.429.439-7.303.583-.847.151-1.71.243-2.578.274l-2.439.095a61.16 61.16 0 0 1-2.504.034 46.78 46.78 0 0 1-4.998-.319 28.35 28.35 0 0 1-4.918-.996zM664.504 34.542c-1.078-.382-2.37-.253-3.539-.411l-4.075-.403c-1.146-.027-1.704-.11-2.842 0l-5.79.691c1.108.317 4.826.331 5.998.452l3.432.224 3.432-.076c1.145-.076 2.278-.236 3.384-.478zM508.545 71.523c-1.078-.382-2.37-.253-3.539-.411l-4.075-.403c-1.146-.027-1.704-.11-2.842 0l-5.79.692c1.108.317 4.826.331 5.998.452l3.432.224 3.432-.076a22.89 22.89 0 0 0 3.384-.478zm201.492-54.044c-1.078-.382-2.37-.252-3.539-.411-1.132-.162-9.243.022-10.394 0s-1.704-.11-2.842 0c-1.173.106-4.684.374-5.791.691 1.109.316 4.827.331 5.999.452 1.137.129 4.409-.02 5.558 0s6.484-.18 7.625-.255a23.03 23.03 0 0 0 3.384-.477zm89.808 1.077c-1.078-.382-2.37-.252-3.539-.411-1.133-.162-9.243.022-10.395 0-1.146-.027-1.704-.11-2.842 0-1.172.106-4.684.374-5.79.691 1.108.316 4.826.33 5.998.452 1.137.129 4.41-.02 5.558 0s6.484-.18 7.625-.255a22.91 22.91 0 0 0 3.385-.478zm-79.169 84.59c-1.078-.382-2.37-.253-3.539-.411-1.133-.162-9.243.023-10.395 0-1.146-.026-1.704-.11-2.842 0-1.172.106-4.684.375-5.79.691 1.108.317 4.826.331 5.998.452 1.137.129 4.41-.02 5.558 0s6.484-.18 7.625-.255a22.82 22.82 0 0 0 3.385-.477zm160.6-66.194c-.849-.483-3.246-.748-4.24-1.022-.961-.271-3.87-.229-4.883-.342s-2.879-.203-3.896-.133c-1.069.063-3.155 0-6.062.737 1.918.285 5.057.083 6.062.285.946.204 2.924.365 3.896.475.983.112 3.584.004 4.577 0h4.546zM713.2 54.733l-7.673-.886-7.693-.464-7.77-.046a64.58 64.58 0 0 0-7.789.635l7.68.859 7.686.448 7.731.057a67.13 67.13 0 0 0 7.828-.604zm-75.829 43.578l-7.673-.886-7.693-.464-7.77-.046a64.56 64.56 0 0 0-7.789.635l7.679.859 7.687.448 7.731.057a67.13 67.13 0 0 0 7.828-.604zm-102.391 2.043l-7.673-.885-7.693-.464-7.77-.046a64.58 64.58 0 0 0-7.789.635l7.68.859 7.686.449 7.731.057a67.13 67.13 0 0 0 7.828-.605zm24.362 37.713l-5.968-.689c-2.004-.166-4.563.097-6.567.032l-6.043-.035c-2.042.043-4.072.209-6.058.494l5.973.668 5.978.349c2.002.075 4.593-.304 6.597-.349 2.05-.039 4.089-.196 6.088-.47zm320.732 8.155c1.364-.301 2.748-.534 4.144-.696l4.154-.364 4.196-.036c1.419.044 2.828.211 4.207.499l-4.147.675-4.151.352-4.175.045a25.13 25.13 0 0 1-4.228-.475zm-31.338-67.139c2.452-.372 5.089-.29 7.599-.491l7.504-.546c2.511-.094 5.774.292 8.288.356l7.236.378-7.454.834c-2.502.199-5.575-.085-8.07 0l-7.504.055c-2.56-.049-5.105-.245-7.599-.587zM682.094 9.328c2.218-.517 1.65-.597 3.95-.822 2.28-.233 5.926-.243 8.226-.292l8.372-.314c2.31.107 10.581-.064 12.843.313-2.261.365-4.316.969-6.618 1.114-2.281.158-10.761.321-13.038.372a168.98 168.98 0 0 1-6.84.015 86.62 86.62 0 0 1-6.895-.387zm100.792 60.353l-8.332-.618c-2.771-.107-5.585.41-8.357.425s-5.501-.477-8.272-.337l-8.322.746 8.324.752c2.772.135 5.531-.189 8.31-.204l8.343.111 8.306-.874zm67.087 24.379l8.332-.618c2.772-.107 5.585.41 8.358.425l8.272-.337 8.322.746-8.324.752c-2.772.135-5.531-.189-8.31-.204s-5.572.282-8.344.111l-8.306-.874zm-102.089-8.445c2.762-.316 6.628.095 9.417 0 2.771-.107 2.794-.633 5.567-.618l9.978.088 8.322.746-8.324.752c-2.772.135-5.531-.189-8.31-.204s-5.572.282-8.344.111l-8.306-.874zM869.73 58.984l8.332-.618c2.771-.107 5.585.41 8.357.425l8.273-.337 8.322.746-8.325.752c-2.771.135-5.531-.189-8.309-.205s-5.572.282-8.344.111l-8.306-.874zm-163.837 3.389l-9.945-.517-9.921-.175-4.951.049-5.009.306-4.893.393c-1.639.114-10.269 1.043-11.907.93 1.563.5 8.704.605 10.391.72 1.668.13 4.839-.53 6.516-.54l4.905.006c1.608.039 3.308.043 4.958.046a192.79 192.79 0 0 0 9.938-.232 97.54 97.54 0 0 0 9.918-.985zM529.246 85.755l-9.944-.517-9.922-.175-4.951.049-5.008.306-4.894.393c-1.638.114-10.268 1.043-11.907.93 1.563.5 8.705.605 10.391.72 1.669.13 4.839-.53 6.516-.54l4.906.006a225.14 225.14 0 0 0 4.958.046 192.48 192.48 0 0 0 9.938-.233c3.33-.16 6.643-.489 9.917-.985zm-6.303 43.174l-9.945-.517-9.921-.176-4.952.049c-1.642.039-5.844-.19-7.48-.049l-5.937.484c-1.638.114-6.753 1.307-8.391 1.194 1.563.501 8.704.606 10.391.72 1.668.13 4.839-.53 6.516-.539l4.905.006c1.608.038 4.35-.009 6-.006 3.31.001 8.191.176 11.504.006 3.331-.16 4.036-.676 7.31-1.172zm12.86-7.771l-9.945-.517-9.921-.175-4.951.049-5.009.306-4.893.393c-1.638.114-10.269 1.043-11.907.93 1.563.5 8.704.605 10.391.72 1.668.129 4.839-.531 6.516-.54l4.905.006c1.608.039 3.308.043 4.958.046 3.31.001 6.625-.062 9.939-.232a97.75 97.75 0 0 0 9.917-.986zm208.24-58.276c-1.344-.486-2.732-1.183-4.172-1.189-2.519-.011-5.469.424-6.912.254-1.458-.176-6.44-.336-7.915-.317-2.105.027-5.556.512-6.995.872 1.393.374 6.524.055 7.964.304 1.403.249 4.645-.136 6.074.026 1.437.172 6.027.295 7.481.332 1.501.052 3.005-.043 4.475-.281zM663.39 1.768c-1.345-.486-2.733-1.183-4.173-1.189-2.518-.011-5.468.424-6.912.254-1.457-.176-6.439-.336-7.914-.317-2.106.027-5.556.512-6.996.872 1.394.374 6.525.055 7.965.304 1.403.249 4.644-.136 6.073.026 1.438.172 6.028.295 7.482.332 1.501.052 3.005-.043 4.475-.281zm170.261 17.11c-1.345-.486-2.733-1.183-4.173-1.189-2.518-.011-5.468.424-6.912.254-1.457-.176-6.439-.336-7.915-.317-2.105.027-5.555.512-6.995.872 1.393.374 6.524.055 7.964.304 1.404.249 4.645-.136 6.074.026 1.438.172 6.027.295 7.482.332a23.05 23.05 0 0 0 4.475-.281zm-79.169 84.588c-1.345-.486-2.733-1.183-4.173-1.189-2.518-.01-5.468.424-6.912.254-1.457-.175-6.439-.336-7.915-.316-2.105.027-5.555.512-6.995.871 1.393.374 6.524.055 7.964.304 1.404.249 4.645-.136 6.074.025 1.438.173 6.027.295 7.482.333 1.501.051 3.005-.043 4.475-.282zm-49.378-33.403c-1.841-.456-2.113-.92-4.036-1.087-1.904-.177-5.936.067-7.854.066-1.906-.007-4.294-.457-6.19-.304-1.921.147-4.676.906-6.538 1.297 1.871.357 6.989.205 8.911.322l6.219.138 5.721-.048 3.767-.383zm184.798 24.236c1.841-.456 2.113-.921 4.036-1.087 1.904-.177 5.936.067 7.854.066 1.906-.007 4.294-.457 6.19-.304 1.921.147 4.676.906 6.538 1.297-1.872.357-6.989.205-8.912.322l-6.218.138c-1.89.007-3.827.063-5.721-.048l-3.767-.383zm-45-7.936c-1.841-.456-2.114-.921-4.036-1.088-1.904-.177-19.91.131-21.828.13-1.906-.007-4.047.178-5.943.331-1.921.147-4.923.271-6.785.662 1.872.357 6.989.206 8.912.323 1.897.125 4.328.131 6.218.138l19.694-.112c1.927-.1 1.874-.097 3.768-.383zm-11.385 30.59c1.841-.456 3.818-.627 6.076-.627h22.637c1.907-.006 1.908-.152 3.804 0l6.075.661c-1.872.357-6.989.206-8.912.323-1.897.124-5.292-.33-7.183-.323l-18.73.349-3.767-.383zM678.183 18.025c-1.835-.361-2.101-.718-4.021-.859-1.901-.148-5.937.013-7.855 0-1.906-.018-14.535 0-17.627-.546-1.923.1-5.06.937-6.928 1.224 1.867.285 6.986.202 8.907.304 1.895.108 16.139.128 18.03.146s3.826.073 5.721 0c1.927-.064 1.874-.062 3.773-.269zm256.675 54.841c-1.834-.361-2.1-.718-4.02-.859-1.902-.148-5.937.013-7.855 0-1.906-.017-14.535 0-17.627-.546-1.923.1-5.06.937-6.928 1.224 1.867.285 6.986.202 8.907.304 1.895.108 16.139.128 18.029.145s3.826.073 5.721 0c1.928-.064 1.875-.062 3.773-.269zM789.277 53.555l-16.402 1.247c-5.443.414-11.179-.346-16.671-.087s-11.015.38-16.537.251c-5.526-.092-12.267.683-17.683-.163 5.512.099 12.216-1.175 17.678-1.319s10.921-.407 16.388-.665 11.204.624 16.706.51a187.1 187.1 0 0 1 16.521.228zm3.835 69.827l16.403 1.247c5.443.414 11.179-.346 16.671-.088s11.014.381 16.536.251c5.527-.092 12.267.683 17.684-.163-5.381-1.32-12.216-1.175-17.679-1.32l-16.388-.665c-5.467-.259-11.203.624-16.705.509a186.93 186.93 0 0 0-16.522.229zm-157.719-18.434l-16.403 1.247c-5.443.415-11.179-.346-16.671-.087s-11.015.38-16.537.251c-5.526-.093-12.266.682-17.683-.164 5.512.099 12.216-1.175 17.678-1.319l16.389-.666c5.467-.258 11.203.624 16.705.51 5.508-.167 11.025-.091 16.522.228z"/><use xlink:href="#F"/><use xlink:href="#F" x="78.922" y="68.851"/><path d="M754.889 28.53l14.176.087c5.443.414 11.178-.346 16.671-.087s11.019.085 16.541-.044l17.684-.163c-3.84-.816-12.85-1.336-18.313-1.481s-15.995.924-21.462.665c-3.371.285-7.979 0-14.102 0-4.607 0-5.698.704-11.195 1.023zm112.939 95.877l14.176.088c5.443.414 11.179-.346 16.671-.088s11.02.086 16.542-.043l17.683-.164c-3.839-.815-12.85-1.336-18.313-1.48s-15.994.923-21.462.665c-3.371.285-7.979 0-14.102 0-4.607 0-5.698.703-11.195 1.022zm-90.133-46.42c-2.36-.469-2.694-.435-5.118-.635l-8.69-.383c-2.411-.041-7.787-.107-10.206 0-2.431.103-5.682.874-8.071 1.237 2.381.379 7.978-.151 10.402 0 2.401.165 5.685-.043 8.091 0s6.062.213 8.474.145c2.428-.058 2.713-.097 5.118-.363zm133.722 30.444c-2.361-.469-2.694-.435-5.119-.635l-8.69-.383c-2.41-.041-7.786-.108-10.205 0-2.432.103-5.682.874-8.072 1.236 2.382.38 7.979-.15 10.403 0 2.401.166 5.685-.042 8.091.001s6.061.213 8.473.144c2.429-.057 2.714-.097 5.119-.363zm-9.525-6.942c-2.361-.469-2.695-.435-5.119-.635l-8.69-.384c-2.411-.04-7.787-.107-10.205 0-2.432.103-5.683.875-8.072 1.237 2.382.379 7.978-.151 10.403 0 2.401.165 5.685-.042 8.09 0s6.062.214 8.474.145c2.429-.058 2.714-.097 5.119-.363zM740.167 77.962c-1.314-.466-3.123-.732-4.484-.732h-4.847a39.37 39.37 0 0 0-4.25-.205 22.12 22.12 0 0 0-4.325.41c1.32.452 2.275.267 3.68.527 1.369.265 3.495.145 4.895.285 1.406.145 3.831.001 5.249 0 1.457.009 2.562-.285 4.082-.285zm133.722 30.443c-1.314-.466-3.124-.732-4.485-.732h-4.846c-1.409-.145-2.829-.214-4.251-.206-1.458-.005-2.911.133-4.324.411 1.32.452 2.275.266 3.68.527 1.369.265 3.495.145 4.895.285s3.83 0 5.249 0c1.457.009 2.561-.285 4.082-.285zm-131.618 2.625c-1.314-.466-3.124-.732-4.485-.732h-4.846c-1.409-.145-2.829-.214-4.251-.206-1.458-.005-2.911.133-4.324.411 1.32.452 2.274.266 3.68.527 1.369.265 3.495.145 4.895.285s3.83 0 5.248 0c1.458.009 2.562-.285 4.083-.285zm120.608 34.163c-1.314-.467-3.401-.509-4.762-.509-1.824 0-3.855-.523-5.257-.667-1.409-.144-5.356.248-6.778.256-1.458-.005-2.911.133-4.324.411 1.32.453 2.274.267 3.68.528 1.369.264 6.71.126 8.11.266 1.406.145 3.831.001 5.249 0 1.457.009 2.562-.285 4.082-.285zm-167.121-28.181c1.905-.371 2.438-.214 4.391-.38 1.923-.175 5.337.048 7.276 0l13.631-.426c1.97.089 3.219.057 5.133.426-1.903.371-3.837.64-5.789.806-1.93.175-11.038.287-12.975.335a77.1 77.1 0 0 1-5.828-.076 41.12 41.12 0 0 1-5.839-.685zm65.497-.484c-1.21-.361-3.007-.353-4.295-.475l-3.959-.213c-1.228-.029-4.865.174-6.092.213-1.272.035-4.956-.135-6.216.001 1.083.583 7.865.532 9.154.76 1.25.238 2.645-.02 3.932-.001 1.269.025 2.459-.139 3.714-.285 1.283-.141 2.556.365 3.762 0zm10.952 5.734l-5.266-.244-5.199-.163-5.24-.081c-1.781-.011-3.561.034-5.325.137l5.169.549 5.266.268 5.333-.023a50.36 50.36 0 0 0 5.262-.443h0zm-300.843 39.639l-5.266-.243-5.198-.163-5.241-.081a81.98 81.98 0 0 0-5.325.137l5.169.549 5.266.268 5.333-.023c1.791-.059 3.558-.208 5.262-.444h0zm430.916-22.967l-4.824-.488c-1.737-.068-10.937-.043-12.674-.087s-3.474.191-5.232.188c-1.781-.012-3.897.284-5.661.387 1.688.236 3.751.17 5.505.298 1.741.134 3.491-.045 5.258 0 1.776.049 10.593.209 12.367.145 1.79-.058 3.557-.207 5.261-.443zM691.398 77.902c-1.946-.457-3.107-1.063-5.116-1.311-1.99-.258-3.514.137-5.538 0-2.013-.139-5.334.016-7.36 0a81.25 81.25 0 0 0-7.212.253c1.957.456 5.193.449 7.212.698 1.99.258 3.867.219 5.871.354l6.022.235a59.18 59.18 0 0 0 6.121-.228zm100.199 25.86c-1.946-.456-3.108-1.063-5.117-1.31-1.99-.258-3.514.137-5.538 0-2.013-.139-5.334.016-7.36 0-2.035-.029-5.191.068-7.212.253 1.957.456 5.193.449 7.212.697 1.99.258 3.867.219 5.872.354l6.022.235c2.044.029 4.089-.047 6.121-.229zm77.946 35.667c-1.946-.457-3.107-1.063-5.117-1.31-1.99-.258-3.513.137-5.538 0-2.013-.139-11.729-.236-13.755-.253a81.38 81.38 0 0 0-7.211.253c1.956.456 5.192.449 7.211.697 1.99.258 3.867.219 5.872.354s10.412.471 12.417.487c2.045.03 4.09-.047 6.121-.228zm-164.362-17.407c-1.099-.248-1.77-.18-2.927-.296-1.125-.116-2.509.035-3.649 0-1.149-.035-2.227-.411-3.371-.343-1.18.062-1.705.219-2.816.466 1.099.248 2.235.431 3.392.546l3.401.227 3.444-.052c1.179-.062 1.414-.302 2.526-.548zm10.774-44.74a15.18 15.18 0 0 0-2.907-.645c-.942-.122-1.894.012-2.849 0h-4.545l-5.474.645c.89.389 3.762.48 4.763.646.953.164 4.279-.012 5.256 0 .984.01 1.926.35 2.89.2a10.66 10.66 0 0 0 2.866-.845zm65.22 33.426a15.14 15.14 0 0 0-2.906-.646c-.942-.122-1.895.013-2.85 0-.961-.013-12.096-.11-13.047 0-1.011.105-11.043.315-11.968.646.89.389 3.761.479 4.762.645.954.164 19.277-.012 20.253 0 .984.011 1.927.35 2.891.2 1.011-.152 1.981-.438 2.865-.845zM691.71 1.436a15.15 15.15 0 0 0-2.907-.645c-.942-.122-1.894.012-2.849 0h-4.545l-5.474.645c.89.389 3.762.48 4.763.646.953.164 4.279-.012 5.256 0 .983.011 1.926.35 2.89.2a10.66 10.66 0 0 0 2.866-.845zm48.662 68.075c-1.945-.388-3.409-.319-5.404-.495-2.62.249-3.683-.022-5.666-.08l-9.008-.038a44.36 44.36 0 0 0-5.974.626c1.942.398 3.918.688 5.913.87 1.988.187 6.214-.256 8.196-.202l5.964-.04c2.013-.081 4.014-.296 5.979-.642zm79.131 24.875c1.945-.388 3.409-.319 5.404-.495 2.62.249 3.683-.022 5.666-.08l9.008-.038a44.36 44.36 0 0 1 5.974.626c-1.942.398-3.918.688-5.913.87-1.988.187-6.214-.256-8.196-.202a81.87 81.87 0 0 1-5.964-.04c-2.013-.081-4.014-.296-5.979-.642zm116.784 43.735c-1.944-.389-3.409-.319-5.404-.495-2.62.249-3.683-.022-5.666-.08l-9.008-.038a44.36 44.36 0 0 0-5.974.626 53.58 53.58 0 0 0 5.913.87c1.988.187 6.214-.255 8.196-.201l5.964-.041c2.013-.081 4.014-.295 5.979-.641zM837.862 79.01c-1.944-.388-3.408-.319-5.404-.495-2.62.249-3.683-.022-5.666-.08l-9.008-.038a44.36 44.36 0 0 0-5.974.626c1.942.398 3.918.688 5.913.87 1.988.187 6.214-.256 8.197-.202l5.963-.04c2.014-.081 4.014-.296 5.979-.642z"/><path d="M671.844 157.881l-.207 4.637 3.414.548-.299-4.883 1.969-3.052s1.864.388 3.971-.247 3.871-3.152 4.205-3.535c0-1.247 1.831-3.117 2.746-3.897 0 0-1.914-.544-3.23 0-1.194.494-4.251-1.391-3.096-1.438 4.781-.194 6.501-1.922 6.501-1.922l-7.695-.236s1.194-.222 8.594-2.098c1.564-.397.19-1.052.19-1.052s-6.566.388-12.186-.267c-.9-.105 10.922-1.884 10.922-1.884l.477-.454s-1.846-.322-3.707-.745c-7.692 1.199-11.481-1.113-11.481-1.113 7.654-.439 13.166-2.978 13.166-2.978s-.947-.762-3.23-.529c-4.143.423-10.533-.269-10.533-.269 1.79-2.623 8.777-1.706 8.777-1.706-.77-1.279-4.037-1.904-9.284-2.61.045-.757-1.998-3.249-2.745-3.35l-3.402.053s-2.229-.053-2.229 1.852c-4.459 2.08-1.86 4.075-3.44 4.382s-6.741 2.777-4.357 5.815c0 0-1.457 8.807 1.85 12.408 2.363 2.574 8.176 3.597 8.176 3.597s.967 2.02 1.969 2.997c1.452 1.415 4.194 1.976 4.194 1.976zm-7.234-29.341c-.245 2.045-1.289 3.327-3.159 3.927-5.021 1.609-3.335 4.436-3.335 4.436s0 7.542 2.913 12.197c-1.017-.564-1.027-.68-1.65-1.164-2.773-2.151-2.071-11.215-2.071-11.215s-1.229-3.138 3.405-4.761c1.909-.668 3.178-1.375 3.897-3.42zm9.867 26.344l.574-3.835c.49.3 1.154 1.094.936 1.401-.478.672-1.052 1.974-1.51 2.434zm-5.394-1.497s2.129 2.572 3.222 2.061v-3.62c-.918 1.559-3.222 1.559-3.222 1.559z" class="C"/><path d="M676.721 122.915c-3.242-.04-11.04 1.939-11.04 1.939l3.402-.053c2.168-.033 7.275-1.445 7.275-1.445 3.959 1.518 12.072 9.039 14.507 16.184.498 2.036.931 6.374-1.313 7.433s-2.208.761-1.909.479c-.915.78-2.746 2.65-2.746 3.897.418-.48 2.388-1.679 5.192-3.357 2.244-1.343 2.129-6.194 1.791-8.452-2.149-7.577-10.842-14.887-15.159-16.625zm47.451 17.717c-.245 1.367-1.435 2.405-2.866 2.405-1.354 0-2.492-.928-2.818-2.185 1.548.1 4.852.197 5.684-.22zm-.119-1.442c0-1.163-1.489-2.003-2.747-2.003-1.354 0-2.492.927-2.818 2.184l1.532-.032 4.033-.149z"/><path d="M731.509 120.903l3.306.465 2.817-.465.202 6.473 4.336.212 2.533 1.34h-12.645l.597.458h12.868l.898.516-12.818.331.843.458 12.852-.273 1.145.693-13.26.462 1.229.74 13.412-.337 2.212 1.466-14.957-.176.755 1.34h14.553l.389 1.293-7.253.329v1.071l-1.335-1.071h-5.88l.492 1.234 14.342-.347.433 1.435-3.078.187v2.293l-.954-2.293-3.057.224-7.09.41.527 1.94 14.368-.381.443 1.47-5.191.211.281 2.045s-.542-1.834-2.285-2.045c-2.547-.059-7.195.211-7.195.211l.668 1.834h14.465l.597 2.192h-4.494v4.761l-25.49 5.673v-8.535h-9.34v11.004l-9.023 3.456v-16.346l3.804-13.208 6.869-3.751-7.759 3.364-3.967 13.595h-3.441c1.545-4.514 3.441-8.311 4.494-14.336 7.082-2.623 11.412-4.479 13.517-4.937 0 0 5.812 3.523 11.06 6.065l4.108 13.195 2.598.013s-1.873-3.44-4.564-13.419c-4.36-1.869-11.165-6.066-11.165-6.066h7.794l.434-6.473zm5.628.682l-2.01.357v.403l1.5-.108.217 4.513.293.093v-5.258zm-11.644 18.345c0 2.491-1.708 4.303-4.187 4.303-3.204.124-4.24-1.939-4.24-4.121 0-2.491 1.861-4.272 4.24-4.51 3.116.238 3.726 1.404 4.187 4.328z" class="C"/><path d="M717.417 150.951v6.578l2.827-3.703-2.827-2.875zm6.829-1.146l-3.458 3.015-3.371-3.12 6.829.105zm-3.125 4.408l-3.353 4.215v1.076l6.32-1.975-2.967-3.316zm.474-.67l2.985 2.504v-5.466l-2.985 2.962zm-87.074 1.155v2.254h-2.384v-2.607c-1.754 0-5.176-.704-4.839-3.522.42-3.522 5.61-4.367 6.802-4.648.954-.226 4.111.589 5.05 2.606.649 1.396.112 2.536 0 3.945s-3.133 1.902-4.629 1.972zm11.454 1.345v2.014l1.683.23v-2.493c1.238 0 3.655-.498 3.417-2.487-.297-2.487-2.756-3.796-3.598-3.995-.673-.159-3.199.339-3.862 1.764-.459.985-.988 2.037-.909 3.032s2.212 1.885 3.269 1.935zm171.624-6.016v2.777l2.321.316v-3.437c1.707 0 5.039-.686 4.711-3.429-.409-3.429-3.8-5.233-4.96-5.508-.929-.219-4.411.468-5.325 2.432-.632 1.359-1.362 2.809-1.253 4.18s3.05 2.6 4.506 2.669z"/><path d="M761.672 148.469s-1.378.366-2.034-.261 1.28-4.991 0-8.675c1.94.921 1.94 0 3.202.373 2.406-2.528 2.002-4.535 3.469-5.825.927-.815 13.426-1.5 16.542-.717.194.246 1.949 1.464 2.274 3.665-1.623 3.13-.084 6.031-.165 7.588.505.572.565 1.901.642 2.255-.184.435-.569-.836-.569-.836.037-.565 0-.783-.073-1.419.004-.369-.874-3.091-.871-6.042-.076 1.577-.151 2.458.161 4.301l.575 1.986-.736 3.912h-1.341l.606-3.521a7.65 7.65 0 0 1-.929-.5l-1.062 4.021h-1.472l.909-3.521c-.548-.318-1.705-1.286-1.947-2.608l-2.824 1.014-4.218-.092.767 2.469.519 3.651h-1.515l-.735-2.999-1.385-2.478-.402 2.728-.94 2.749h-1.601l.733-2.749.194-2.728s-1.137.075-1.749-.261c-.745 2.952-4.025 4.52-4.025 4.52zm3.223-8.563c-.246 1.286-1.293 2.287-2.055 2.739-.517-.871 1.002-1.012 2.055-2.739zm16.064-4.651s-7.608-1.174-11.497 0c2.943-1.391 10.972-1.791 12.963-1.356.709.86 1.188 2.53.929 3.53 0-.406-2.395-2.174-2.395-2.174zm23.48 14.134l1.159-.149c.123-1.279.143-4.429-.468-5.003-.371.273-1.16-.058-1.357.272-.247-1.049-.873-3.19-1.406-3.369-.666-.223-8.508-.693-10.284-.248s-1.035 6.788-1.233 7.705c-.157.733-.065.388 0 .124.148-1.354.434-4.414.395-5.822.214.727.597 2.443.419 3.493l-.419.941.419 2.23h.765l-.346-2.007a4.38 4.38 0 0 0 .529-.284l.606 2.291h.838l-.517-2.007c.312-.181.971-.733 1.109-1.486l1.924.743 2.639-.223-.987 1.412-.296 2.081h.863l.42-1.709.789-1.412.764 3.121h.913l-.419-3.121.887-.149 2.294 2.576zm-1.751-4.88c.181.413.651 1.304 1.085 1.561s-.543-.933-1.085-1.561zm-9.914-2.65c.552-.436 5.047-.182 7.226 0-1.677-.793-6.092-.967-7.226-.719-.908.198-.839 1.388-.691 1.958 0-.232.139-.803.691-1.239z" class="C"/><path d="M800 141.859c-2.179-.182-6.674-.436-7.226 0s-.691 1.007-.691 1.239c-.148-.57-.217-1.76.691-1.958 1.134-.248 5.549-.074 7.226.719zm2.688 2.65c.181.413.651 1.304 1.085 1.561s-.543-.933-1.085-1.561zm-33.645 6.098c-5.375.232-10.805.608-16.271 1.223 1.047.234 2.464.473 4.159.666 6 .681 15.489.766 24.424-2.134a267.44 267.44 0 0 0-12.312.245zm-65.812 14.074l-.005.204 1.886-.939c-.547-.085-.521-1.892-.44-2.785-1.217 1.467-1.411 2.935-1.441 3.52z"/><path d="M699.897 159.468c1.573 3.668 1.715 5.738 1.59 6.314l1.739-.897.005-.204c-.029-1.898-2.209-4.246-3.334-5.213z"/><path d="M689.04 169.301c4.462-.775 8.826-1.533 12.447-3.519l1.739-.897 1.886-.939c16.543-8.085 33.701-12.518 50.19-14.491 2.542.794 8.831 1.685 13.644-1.103a192.59 192.59 0 0 1 37.975 2.155s3.293-.42 3.504-1.689c.877.934 1.264 2.501 1.264 2.501 10.557 1.94 19.565 4.552 26.377 7.165-1.31.603-2.674.193-3.838-.157-.873-.262-1.634-.491-2.175-.234-1.688-.334-4.848-1.251-8.273-2.245-4.691-1.361-9.88-2.868-12.478-3.222-9.186-1.252-18.929-2.227-29.947-2.264a267.44 267.44 0 0 0-12.312.245c-5.375.232-10.805.608-16.271 1.223-9.781 1.1-17.82 3.879-27.208 7.125-6.527 2.256-13.707 4.738-22.577 7.037-.296.158-.537.358-.813.586-.831.687-1.977 1.636-5.858 2.483-4.631 1.61-8.414 1.944-12.12 2.271-2.14.189-4.253.375-6.489.803 3.575-1.488 7.49-2.167 11.333-2.834z" class="C"/><path d="M582.149 158.852l3.369-.478c3.854-.556 8.143-1.174 12.418-1.498-6.583-3.043-13.413.17-15.787 1.976z"/><path d="M752.122 161.165c-.695.311-1.866.63-2.704.63-1.148 0-10.688.882-14.481 1.87 4.284-4.562 13.414-4.127 14.481-4.127.437 0 1.293-.213 1.791-.435 2.009-.897 9.619-.763 16.677.437-10.429.563-13.265.509-15.764 1.625zm-32.507 9.854c-9.024 4.446-27.42 4.586-29.386 7.196-.001-1.658 5.665-3.481 6.074-3.95 13.201-1.976 19.942-5.432 23.312-3.246z" class="C"/><path d="M743.007 169.742c.467.458-1.148.784-1.399.341-1.719.226-3.846-.371-5.439.249.017-1.015-1.189-3.057-1.794-3.952.773 3.421 0 4.323 0 4.323s-1.644-.56-2.703-.62c.913.566-3.487 2.771-3.487 2.771s.432-2.03-.481-4.373c-.611 3.26-1.885 4.859-1.56 5.051-4.02 1.364-4.759 3.711-15.784 4.683 2.352 0 8.984.44 9.971 0 1.639-.732 5.066-3.079 6.762-3.668 1.796-.625 4.714-1.131 6.532-1.693 2.066-.638 4.709.6 6.712-.228 1.208-.5 2.314-.003 3.497-.663 1.931-2.31 4.283.141 5.709-2.07-2.233-.893-5.759-.585-6.536-.151z"/><path d="M754.555 169.188c4.277.159 9.378-1.392 12.423-1.392 2.346 0 20.66-.16 24.206 1.392-5.582.706-21.792.865-24.206.865-3.041 0-8.006 0-12.423-.865z" class="C"/><path d="M803.375 169.951c-4.164 0-5.151 0 .404-2.156 1.404 1.112 3.532 1.362 4.893 1.522l.011.001c.891.105 2.584.311 3.839.156 2.406.829 3.569 1.405 5.967 1.771 1.185.18 2.253.635 3.441.78.931.114 1.613.62 2.474.822.56.132 1.12.116 1.674.304l2.966 1.068-25.669-4.268zM625.58 168.78l.093.004c.394.018.901.04 1.388.149 2.043.456 4.173.338 6.24.708 1.531.274 9.183 2.259 9.183 2.259l-12.842-.424c-.963 0-2.132-.131-3.068-.34-.289-.064-.612-.079-1.067-.1l-.03-.001c-.423-.02-.98-.046-1.518-.195-3.142-.87-7.593-.455-10.708.124-4.4.818-29.813 2.852-29.813 2.852l29.404-5.071c4.24-.789 8.488-.16 12.738.035z"/><path d="M583.997 166.169l-20.351 2.764c17.4-6.96 34.501-4.386 34.501-4.386l-14.15 1.622zm28.159-3.351c3.371 1.658 5.484 4.726 5.879 5.67l.065.155a1.13 1.13 0 0 1-.601 1.478 1.12 1.12 0 0 1-1.471-.604l-.058-.137c-.394-.944-1.286-2.647-3.814-6.562z" class="C"/><path d="M622.514 161.337c-1.439 2.661-2.055 5.759-3.49 8.299a1.12 1.12 0 0 1-1.531.425 1.13 1.13 0 0 1-.423-1.538c1.491-2.641 3.454-4.861 5.444-7.186zm170.987.501c-2.474 0-4.86.846-7.303.846-3.59 0-7.101.276-10.719.094 6.805-1.787 7.068-1.399 10.719-2.351 2.435 0 4.832-.846 7.303-.846h4.143c2.378 0 4.716.564 7.092.564 3.643 0 2.669.952 9.789.952 1.457.651 5.362.899 7.618 1.871 1.413.897 1.957.598 6.901 3.688-2.627-.41-6.901-3.245-10.684-1.962 0-1.058-1.208-1.115-3.835-1.283-3.248-.209-6.535-1.573-9.789-1.573h-7.092-4.143z" class="C"/><path d="M791.834 156.089c1.571 2.363 2.115 2.513 3.133 3.445-.277.558-1.323 1.111-1.878.832-.193-.716-1.141-1.782-1.255-4.277zm20.688 1.316c-1.571 2.363-2.115 2.513-3.133 3.445.277.558 1.323 1.111 1.878.832.194-.717 1.141-1.782 1.255-4.277z" class="C"/><path d="M813.725 158.558c-1.545 1.075-2.405 2.592-2.405 3.174.277.557 1.288.614 1.843.335-.105-1.182-.105-2.222.562-3.509zm-19.521 1.357c.669.378 1.512.739 2.054 0 .778-1.062.219-1.639.684-3.314-.965.705-.948 2.618-2.738 3.314zm-182.118-3.074h11.832s-.772-8.535-11.13-10.556c-.274-.054-.503.323-1.068 0s-.751-.653-1.144-.694c-8.435 0-12.991 12.043-12.991 12.043s6.066-.793 14.501-.793zm9.655-1.393c-4.157-5.304-7.408-7.759-9.655-7.759 2.142.318 4.108 4.162 5.161 6.172-1.159-3.492 4.494 1.587 4.494 1.587z" class="C"/><path d="M676.654 164.123s4.342 2.822 8.216 2.822 6.671 1.975 1.755-2.822c-1.644-1.604-1.755-3.174-4.494-4.584-3.862.917-5.477 4.584-5.477 4.584zm55.412-43.499l2.749.388 2.322-.295-2.322-.372-2.749.279z"/><path d="M680.156 164.305c-18.06-5.218-37.174-7.375-54.761-7.792-9.98-.237-18.981-.278-27.459.363-4.275.324-8.564.942-12.418 1.498l-3.369.478c-3.071.42-28.399 4.295-49.073 7.598l1.113.558c3.902-.579 8.984-.8 13.117-1.423 22.769-3.434 47.245-7.125 53.58-6.47 34.132-2.06 54.097 1.317 69.851 5.431.317.216-2.977.146-7.551.049-8.853-.189-22.502-.479-24.03 1.009 15.168.148 30.546 1.672 38.996 2.509l3.207.313c-1.567-2.461 1.21-1.652 4.678-.642 3.03.883 6.589 1.92 8.242 1.065-3.691-1.612-6.511-2.394-9.802-3.307l-4.321-1.237zm194.878 10.629l-3.557 1.954-6.71 3.411-2.399 1.302c-5.968 3.325-13 5.495-19.4 7.807-.863.312-1.771.638-2.54 1.152-.653.437-1.122 1.027-1.885 1.32-.689.265-1.44.405-2.045.523-.649.127-1.49.205-2.025.634-4.581 3.676-11.233 4.339-16.397 7.177-.599.329-4.398 1.858-4.398 1.858l8.442-5.272c5.039-2.769 7.104-1.91 11.566-5.49.888-.712 1.883-1.69 2.969-1.902.665-.13.588.315 1.003.156.86-.331 2.292-.929 3.142-1.353.645-.322 1.411-.633 2.168-.906 2.28-.824 3.835-1.357 6.075-2.291 2.175-.907 3.925-2.33 6.206-3.005 3.099-.918 3.215-.884 6.549-2.265 2.845-1.178 4.113-1.275 7.7-3.601 2.505-.806 5.536-1.209 5.536-1.209zm59.934-10.237c-7.195-.16-12.216-.526-20.968.808-9.699 2.559-18.705 3.166-28.296 6.016l-5.072 1.551s.464-2.73 5.505-4.404c6.805-2.26 7.035-.685 12.113-1.774 5.091-1.092 11.854-1.917 15.157-3.457 2.356-.165 17.819-.258 21.561-1.282 3.638.081 6.765 3.797 10.397 3.995 4.751.258 6.087 1.147 10.793 1.147.684 0 15.342 3.417 15.342 3.417l-12-1.504c-4.791 0-7.945-1.624-12.681-1.882-3.636-.198-8.256-2.551-11.851-2.631zm-39.969 21.522c-4.497 1.539-9.324 1.788-13.68 3.73-7.925 1.981-17.826 7.368-24.439 10.17-.45.19-2.335 1.142-2.781 1.332-3.564 1.52-6.664 1.686-9.867 3.785-.572.375-2.505.776-2.505.776l2.659-1.675c3.403-2.23 4.777-2.509 8.35-4.032.454-.194 2.95-1.05 3.402-1.241 6.274-2.658 11.195-5.707 19.761-9.115 4.051 0 4.732-1.275 9.401-2.733 4.451-1.984 5.278-1.286 9.866-2.853.682-.234 1.32-.156 2.01-.342 5.72-1.542 11.188-2.118 16.947-3.722 2.783-1.209 4.422-1.581 6.556-1.581 3.12 0 6.573.373 9.742 0 3.138-.37 5.517-1.83 8.813-1.83l12.123 1.147c2.287 0 2.314-.867 4.423-.62 2.132.249 4.174 1.241 4.174 1.241s-.553.248-1.237.248c-2.237 0-.072.245-2.164 0-2.131-.25-1.309.186-3.433.186-19.51.741-39.466.742-58.121 7.129z" class="C"/><path d="M894.999 179.989l.167 4.374c.682-.234 1.32-.156 2.01-.342-.08-1.403-1.775-3.536-2.177-4.032z"/><path d="M985.667 177.578c3.045.154 2.697-1.181 6.537 1.143 0 0 3.984 1.022 7.646 2.774 3.68 1.759 7.03 4.248 7.82 4.407 1.58.318 1.77 1.106 2.88 1.861-5.08-1.864-8.15-4.001-11.224-5.306-4.452-1.887-8.363-2.784-13.659-4.879zM956 179.141c3.015-.45 2.412-1.691 6.633-.171 0 0 4.106.215 8.041 1.21 3.95.998 7.73 2.775 8.535 2.775 1.608 0 1.954.735 3.186 1.256-5.348-.824-8.771-2.314-12.046-2.985-4.735-.97-8.746-1.077-14.349-2.085zm-30.846-5.901l-.732 5.291-.696.682c-.234.644-.278 1.075-1.253 1.075-.757 0-.77-1.085-.68-1.277l.495-.883c.233-.644.448-2.187 2.866-4.888zm25.669-1.159c0 2.542.996 4.3 1.328 4.899l.666 1.254c.331.599 1.085.814 1.682.482s1.014-.284.682-.883c0 0-.31-1.3-.682-2.062-.894-1.829-1.682-1.613-3.676-3.69zm-197.557 11.307c-.261.631.36 2.431.36 2.431s.896.152 1.151-.465c.338-.816.68-2.481.68-2.481s.421-2.326 1.256-3.783c-2.443 1.861-3.087 2.58-3.447 4.298z" class="C"/><path d="M753.617 185.929s.405-.181.405-1.039c0-2.124-1.02-1.768-3.834-5.179 1.979 4.683 3.429 6.218 3.429 6.218zm213.111 49.734l-.557-3.908-.619-4.28-.927-4.653c-.557 3.35-6.49 6.641-11.628 7.01-36.704 2.639-60.55-3.753-81.742-9.434-9.199-2.466-17.898-4.797-26.93-6.198-.662-.103-1.267-.473-1.871-.843-.598-.366-1.194-.731-1.84-.832-.924-.144-2.077-.157-3.225-.17-1.141-.013-2.276-.027-3.175-.168l-71.901-11.944c-4.847-.855-9.423-1.88-13.858-2.874-4.098-.918-8.077-1.809-12.04-2.515l-58.234-10.043c1.193-1.821-4.274-1.501-7.156-1.113-2.8-2.439-15.586-3.007-21.629-2.986-54.564-6.639-94.624-3.679-201.264 10.255l-.697 2.593c107.4-14.046 147.257-17.004 201.663-10.385 11.762 1.431 24.203 3.31 38.151 5.622l2.943 1.623h6.684l39.072 6.871.003.001h.002l26.36 4.677 27.647 4.938 43.28 7.692c10.048 1.751 19.893 3.99 30.31 6.36 26.464 6.019 56.622 12.879 103.178 14.704z" class="C"/><path d="M421.967 194.423L393 199.463c8.777-1.169 46.44-4.857 54.435-5.903l.697-2.593-26.165 3.456zm459.53-32.578c-8.695 2.961-19.938 7.072-28.933 10.717l-17.065 4.68 16.15-6.458 15.564-6.499c1.409-.551 1.107-1.279.78-1.573-1.404-.327-3.143-.612-5.051-.867-1.052.137-3.31.235-3.928-.462-6.458-.681-13.522-1.113-16.112-1.585l-3.835-1.179c2.487.454 7.338.77 14.662 1.07 1.505-.585 5.405-1.338 8.967.325l15.754.494c4.15-1.41 8.24-2.701 12.337-3.829 1.497-1.379 5.953-3.858 11.796-2.742l2.294-1.583 3.747.616a113.67 113.67 0 0 1 4.445-.506l3.807-1.475 3.647 1.029c9.289-.244 74.118 7.632 130.317 46.411a2.34 2.34 0 0 0 .27.107c1.63.603 3.46.496 0 0l-.79-.107c-47.43-26.705-85.065-40.847-135.073-43.949-13.404-.832-29.027 5.757-33.75 7.365zm-44.161 18.051c-23.757 10.536-34.822 15.012-67.449 17.617-.804 0 5.104-1.19 5.536-1.489 21.279-2.231 44.057-7.94 46.512-11.91 1.461-2.363 8.721-2.977 15.401-4.218z"/><path d="M531.588 165.843c-2.66-1.217-5.347-2.447-8.269-2.447-1.239 0-1.855.372-2.507.766-.42.253-.854.516-1.479.695l-1.805.612c-2.284.827-5.022 1.819-7.322.794-3.875-1.727-6.78-1.875-11.133-1.875-.16 0-.324-.001-.489-.002-1.854-.014-3.982-.029-5.201 1.601-.258.346-.728.884-1.303 1.542-2.322 2.66-6.362 7.288-5.13 9.142l47.254-9.677a62.71 62.71 0 0 1-2.616-1.151zm-33.257-.4c2.577-.145 8.214-.037 10.143 1.551-1.958-.166-6.729-.708-10.143-1.551z" class="C"/><path d="M871.415 153.471c.712.837.557 2.047 1.423 7.009-.908.333-2.474 0-2.474 0s-.275-4.51 1.051-7.009z"/><path d="M875.838 156.417c.183 0 .343-.299.483-.789 1.25-4.376-3.097-8.577-7.387-7.091-1.552.538-2.253 2.157-2.373 3.798l-.126 1.718c-.092 1.251.608 2.426 1.75 2.937l2.736 1.226c1.484 0 3.432-1.799 4.917-1.799z"/><path d="M450.739 189.056c21.712-9.587 54.128-23.899 107.03-20.574-28.547.306-57.942 7.37-81.265 14.453-1.023.311-.879 1.696.188 1.761 6.139.372 15.221.301 26.525-.644l-55.093 6.901.269-.863 2.346-1.034z" class="C"/></g><defs ><path id="C" d="M570.635 56.372c1.729-.245 9.351-.416 11.106-.513a180.77 180.77 0 0 1 5.141-.251l5.141-.114c1.758-.03 3.517.009 5.269.118-1.596.622-3.291 1.081-5.042 1.365-1.728.295-3.6-.059-5.368 0s-4.717.168-6.475 0c-1.774-.159-5.876.244-7.546-.243l-2.226-.361z"/><path id="D" d="M813.005 52.786l3.982-.476 7.793-.285 9.613-.118 5.27.118c-1.597.622-3.519.814-5.27 1.098-1.728.295-3.6-.059-5.369 0s-5.312.656-7.069.488c-1.774-.159-5.281-.244-6.951-.731l-1.999-.094z"/><path id="E" d="M881.003 52.017c-1.73.245-9.352.416-11.106.513-1.722.11-8.534.19-10.246.251l-5.141.114a66.72 66.72 0 0 1-5.27-.118c1.596-.622 3.291-1.081 5.042-1.365 1.728-.295 3.6.059 5.369 0s9.822-.168 11.579 0c1.775.159 5.876-.244 7.546.243l2.227.361z"/><path id="F" d="M612.384 25.602l14.176.087c5.443.414 11.178-.346 16.671-.087s11.019.085 16.541-.044l17.684-.163c-5.201-.407-12.216-1.174-17.679-1.319l-22.127-.442c-3.371.285-7.889 1.278-13.391 1.164-5.508-.167-6.378.485-11.875.804z"/></defs></svg>