<svg xmlns="http://www.w3.org/2000/svg" xmlns:xlink="http://www.w3.org/1999/xlink" width="628" height="202" fill="none" xmlns:v="https://vecta.io/nano"><style><![CDATA[.B{fill:#c0edc3}.C{fill-rule:evenodd}]]></style><mask id="A" maskUnits="userSpaceOnUse" x="0" y="0" width="628" height="202" mask-type="alpha"><path d="M0 0H628V202H0V0Z" fill="#e7f9e3"/></mask><g mask="url(#A)" class="B"><path d="M161.634 62.566c1.73-.272 9.352-.462 11.106-.57a165.54 165.54 0 0 1 5.141-.279l5.141-.127a60.11 60.11 0 0 1 5.27.131 22.96 22.96 0 0 1-5.042 1.515c-1.728.327-3.6-.066-5.369 0s-4.717.187-6.474 0c-1.774-.177-5.876.271-7.546-.27l-2.227-.401zm3.675 65.134c1.729-.272 9.351-.463 11.106-.57a162.34 162.34 0 0 1 5.141-.279l5.141-.126a59.73 59.73 0 0 1 5.269.131c-1.596.69-3.291 1.199-5.042 1.515-1.728.327-3.6-.066-5.368 0s-4.718.186-6.475 0c-1.774-.177-5.876.27-7.546-.271l-2.226-.4zM42.818 170.623c1.73-.272 9.352-.462 11.106-.569 1.722-.123 2.768-.754 4.48-.821s4.08.433 5.802.416c1.758-.034 4.342.126 5.579.974-2.227.401-3.828.085-5.579.401-1.728.327-3.373.204-5.141.27s-4.717.187-6.475 0c-1.774-.177-5.876.27-7.546-.27l-2.227-.401zM404.005 58.587c1.73-.272 2.228-.42 3.982-.528l7.793-.316 9.613-.131 5.27.131c-1.597.69-3.519.903-5.27 1.218-1.728.327-3.6-.066-5.369 0s-5.312.728-7.069.541c-1.774-.177-5.281-.271-6.951-.812l-1.999-.105zM264.716 96.885c1.73-.272 2.228-.42 3.982-.528l7.793-.316 9.613-.131 5.27.131c-1.597.69-3.519.903-5.27 1.219-1.728.327-3.6-.066-5.369 0s-5.312.728-7.069.541c-1.774-.177-5.281-.271-6.951-.811l-1.999-.105zm-4.7-58.165c1.729.272 2.228.42 3.982.528l7.793.316 9.613.131 5.269-.131c-1.596-.69-3.518-.903-5.269-1.218-1.728-.327-3.601.066-5.369 0s-5.312-.728-7.069-.541c-1.774.177-5.282.271-6.951.811l-1.999.105zM89.467 102.59c1.73.272 2.228.42 3.982.528l7.793.316 9.613.13 5.27-.13c-1.597-.69-3.519-.904-5.27-1.219-1.728-.327-3.6.066-5.369 0s-5.312-.728-7.069-.541c-1.774.176-5.281.27-6.951.811l-1.999.105zm56.21-79.372c1.729-.272 9.351-.462 11.106-.57a162.49 162.49 0 0 1 5.141-.278l5.141-.127a60.12 60.12 0 0 1 5.269.131 22.96 22.96 0 0 1-5.042 1.515c-1.728.327-3.6-.066-5.368 0s-4.717.187-6.475 0c-1.774-.177-5.876.271-7.546-.27l-2.226-.401zm-8.845 31.701l6.828-.544 6.789-.105 6.789.249a56.76 56.76 0 0 1 6.808.823 57.55 57.55 0 0 1-6.803.844l-6.824.203-6.823-.35c-2.288-.206-4.551-.58-6.764-1.118h0zm285.169-14.512c4.825-.835 4.736-.997 9.587-.342 2.261.315 9.596-.092 11.845 0 .415.003 2.897.753 3.309.707-.671.504-6.43.487-7.304.647a16.69 16.69 0 0 1-2.578.304l-2.439.105c-.836.034-1.667.042-2.504.038a42.17 42.17 0 0 1-4.997-.354 25.92 25.92 0 0 1-4.919-1.105zm78.18 70.277c4.824-.835 4.735-.997 9.587-.341 2.26.315 9.595-.093 11.844 0 .415.003 2.897.752 3.309.707-.671.504-6.43.487-7.303.647a16.72 16.72 0 0 1-2.578.303l-2.44.106c-.836.034-1.667.042-2.503.038a42.32 42.32 0 0 1-4.998-.354c-1.683-.211-3.333-.581-4.918-1.106zm-332.537-78.51c1.078-.424 2.37-.28 3.539-.456l4.075-.447c1.146-.029 1.704-.122 2.842 0l5.79.768c-1.108.351-4.826.367-5.998.502a32.23 32.23 0 0 1-3.432.249c-1.149.022-2.291-.001-3.432-.084a20.78 20.78 0 0 1-3.384-.531zM99.236 56.98c1.078-.424 2.37-.28 3.539-.456l4.075-.447c1.146-.029 1.704-.122 2.842 0l5.791.768c-1.109.351-4.827.367-5.999.502-1.137.143-2.283.227-3.432.249s-2.29-.001-3.431-.084a20.77 20.77 0 0 1-3.385-.53zM142.46 33.2c.85-.536 3.246-.83 4.241-1.134.961-.301 3.87-.254 4.882-.38s2.879-.225 3.897-.148c1.069.07 3.154 0 6.061.818-1.917.316-5.057.092-6.061.316-.946.226-2.925.405-3.897.528-.982.125-3.583.004-4.577 0h-4.546zm-13.174 11.362l7.674-.983 7.692-.515 7.77-.051a58.35 58.35 0 0 1 7.79.704l-7.68.953-7.686.498-7.732.063c-2.636-.056-5.258-.28-7.828-.671zM172.9 54.981c2.218-.574 1.65-.663 3.95-.912 2.28-.259 5.926-.269 8.226-.324l8.372-.348c2.31.119 10.581-.071 12.843.348-2.261.405-4.316 1.075-6.618 1.237-2.281.175-10.761.357-13.038.413s-4.554.062-6.84.016a78.11 78.11 0 0 1-6.895-.429zm58.938 72.29c-2.219-.574-1.65-.663-3.95-.913-2.28-.258-5.927-.269-8.226-.324l-8.372-.348c-2.311.12-10.581-.071-12.843.348 2.261.405 4.316 1.075 6.618 1.237 2.28.175 10.76.356 13.038.413a152.84 152.84 0 0 0 6.839.016 78.15 78.15 0 0 0 6.896-.429zm150.28-75.066c2.219-.574 1.65-.663 3.95-.912 2.28-.259 5.927-.269 8.226-.324l8.372-.348c2.311.119 10.581-.071 12.843.348-2.261.405-4.316 1.075-6.618 1.236-2.28.175-10.76.357-13.038.413a152.24 152.24 0 0 1-6.839.016 78.15 78.15 0 0 1-6.896-.429zm-213.51-8.322c2.218-.574 1.65-.663 3.95-.912 2.28-.259 5.926-.269 8.226-.324l8.372-.348c2.31.119 10.581-.071 12.843.348-2.261.405-4.316 1.075-6.618 1.236-2.281.175-10.761.357-13.038.413s-4.554.062-6.84.016a78.15 78.15 0 0 1-6.895-.429zm140.094-41.73c2.218-.574 1.65-.663 3.949-.912 2.281-.259 5.927-.269 8.227-.324l8.372-.348c2.31.119 10.581-.071 12.843.348-2.261.405-4.316 1.075-6.619 1.237-2.28.175-10.76.357-13.037.413a152.27 152.27 0 0 1-6.84.016 78.12 78.12 0 0 1-6.895-.429zM142.96 71.893l8.302-.912c2.765-.194 5.599.302 8.371.243s5.478-.68 8.253-.6l8.349.6-8.288 1.061c-2.765.225-5.536-.058-8.314 0l-8.335.351a78.12 78.12 0 0 1-8.338-.743zm5.282 64.303l8.302-.913c2.766-.194 5.599.303 8.371.244s5.478-.68 8.254-.6l8.349.6-8.289 1.061c-2.765.226-5.536-.058-8.314 0l-8.335.351c-2.795-.099-5.58-.347-8.338-.743zm-83.585-17.048l8.302-.912c2.765-.195 5.599.302 8.371.243s5.478-.68 8.254-.6l8.349.6-8.289 1.061c-2.765.226-5.536-.058-8.314 0l-8.335.351a78.16 78.16 0 0 1-8.338-.743zm118.069-40.972l9.896-1.012 9.896-.633 4.948-.165 5.022.118 4.914.219c1.643.054 4.599 0 6.671.476-1.948.554-4.911.353-6.587.554l-5.003.422-4.898.224-4.948.27-9.941.181a88.54 88.54 0 0 1-9.97-.654zm314.821 50.364l9.896-1.013 9.896-.632 4.948-.165 5.022.118 4.914.219c1.644.055 4.599 0 6.671.476-1.948.554-4.91.353-6.587.554l-5.003.422-4.898.223-4.948.27-9.941.182c-3.337-.031-6.667-.249-9.97-.654zM359.867 10.611l9.896-1.012c3.305-.283 11.628 0 11.628 0s4.264-.316 5.907-.346 3.379.034 5.022.118 3.285.198 4.913.219c1.644.054 4.6 0 6.672.476-1.949.554-4.911.353-6.588.554a54.23 54.23 0 0 1-5.002.422l-4.899.224c-1.603.114-5.991-.257-7.638-.181-3.306.148-6.621.224-9.941.181a88.47 88.47 0 0 1-9.97-.654zM150.976 78.613c1.348-.533 2.741-1.3 4.181-1.3l6.91.314c1.459-.188 6.442-.343 7.917-.314 2.105.04 5.552.595 6.989 1-1.396.408-6.524.03-7.966.3-1.405.27-4.644-.173-6.074 0-1.439.185-6.029.299-7.484.333-1.501.05-3.004-.062-4.473-.333zm316.182 50.857c1.348-.533 2.741-1.3 4.181-1.3l6.91.315c1.459-.189 6.442-.343 7.917-.315 2.105.041 5.552.595 6.989 1.001-1.396.408-6.524.03-7.966.299-1.405.27-4.644-.173-6.074 0-1.439.185-6.029.299-7.484.333a20.73 20.73 0 0 1-4.473-.333zm-362.199-10.138c1.348-.533 2.741-1.299 4.181-1.299l6.91.314c1.459-.188 6.442-.343 7.917-.314 2.105.04 5.552.594 6.989 1-1.396.408-6.525.03-7.966.299-1.406.27-4.644-.173-6.074 0-1.439.185-6.029.299-7.484.334-1.502.05-3.004-.062-4.473-.334zm-20.576 50.654c1.348-.534 2.741-1.3 4.181-1.3l6.91.314c1.459-.188 6.442-.342 7.917-.314 2.105.04 5.552.595 6.989 1-1.396.408-6.525.03-7.966.3-1.406.27-4.644-.173-6.074 0-1.439.184-6.029.298-7.484.333a20.85 20.85 0 0 1-4.473-.333zm34.183-26.505c1.349-.533 2.742-1.3 4.182-1.3l6.91.314c1.458-.188 6.441-.342 7.916-.314 2.106.04 5.552.595 6.99 1-1.397.408-6.525.031-7.967.3-1.405.27-4.644-.173-6.074 0-1.439.184-6.029.299-7.484.333-1.501.05-3.004-.062-4.473-.333zM354.466 1.45c1.348-.533 2.742-1.3 4.181-1.3l6.91.314c1.459-.188 6.442-.343 7.917-.314 2.106.04 5.552.595 6.989 1-1.396.408-6.524.03-7.966.3-1.405.27-4.644-.173-6.074 0-1.439.185-6.029.299-7.484.333-1.501.05-3.004-.062-4.473-.333z"/><path d="M460.48 50.659c1.348-.533 2.741-1.3 4.181-1.3l6.91.314c1.459-.188 6.442-.343 7.917-.314 2.105.04 5.552.595 6.989 1-1.396.408-6.525.03-7.966.3-1.406.27-4.644-.173-6.074 0-1.439.184-6.029.299-7.484.333a20.85 20.85 0 0 1-4.473-.333zM153.47 87.311c1.834-.523 2.1-1.041 4.02-1.244 1.902-.214 5.937.019 7.855 0 1.906-.025 4.287-.547 6.185-.395 1.923.145 4.689.962 6.556 1.378-1.866.414-6.985.293-8.906.441l-6.216.211h-5.721c-1.928-.093-1.875-.09-3.773-.39zm6.272 65.911c1.834-.523 2.1-1.041 4.02-1.244 1.902-.214 5.937.019 7.855 0 1.906-.026 4.287-.547 6.185-.396 1.923.145 4.689.962 6.556 1.379-1.866.413-6.985.293-8.906.44l-6.216.211h-5.721c-1.928-.093-1.875-.09-3.773-.39zm167.53-141.979c1.835.523 2.1 1.041 4.02 1.244 1.902.214 5.937-.019 7.855 0 1.906.025 4.288.547 6.185.395 1.923-.145 4.689-.962 6.557-1.378-1.867-.414-6.986-.293-8.907-.441l-6.216-.211c-1.89-.025-3.826-.105-5.721 0-1.928.093-1.875.09-3.773.39zm-157.041-.61c1.835-.401 2.101-.797 4.021-.953 1.901-.164 5.937.015 7.855 0 1.906-.019 14.535 0 17.627-.606 1.923.111 5.06 1.04 6.928 1.358-1.867.317-6.986.224-8.907.338-1.895.119-16.139.142-18.029.162s-3.827.081-5.722 0c-1.927-.072-1.874-.069-3.773-.299zm234.663 109.719c1.834-.401 2.1-.798 4.02-.953 1.902-.164 5.937.014 7.855 0 1.906-.02 14.535 0 17.627-.606 1.923.111 5.06 1.04 6.928 1.358-1.867.317-6.986.225-8.907.338-1.895.12-16.139.142-18.029.162s-3.826.08-5.722 0c-1.927-.072-1.874-.069-3.772-.299zM182.849 86.956l16.402-1.384 16.423-1.169c5.493-.287 11.015-.422 16.537-.278 5.526.103 11.03.627 16.447 1.566a333.51 333.51 0 0 0-16.442.08c-5.463.16-10.921.452-16.388.739l-16.458.701a168.56 168.56 0 0 1-16.521-.253zM12.264 129.35l16.403-1.384 16.423-1.169c5.492-.287 11.014-.422 16.536-.278 5.526.102 11.031.626 16.447 1.565a333.53 333.53 0 0 0-16.442.081c-5.463.16-10.92.451-16.388.738l-16.457.701a168.6 168.6 0 0 1-16.522-.254zm142.335-35.044c2.36-.52 2.694-.483 5.118-.704l8.69-.426c2.411-.045 7.787-.119 10.206 0 2.431.114 5.682.97 8.071 1.373-2.381.421-7.978-.167-10.402 0-2.401.183-5.685-.047-8.091 0s-6.062.237-8.474.161c-2.428-.064-2.713-.108-5.118-.403zm-66.923 59.023c2.361-.521 2.694-.483 5.119-.705l8.69-.425c2.411-.046 7.787-.119 10.206 0 2.431.114 5.682.97 8.071 1.372-2.381.421-7.978-.167-10.402 0-2.401.183-5.685-.047-8.091 0s-6.062.237-8.474.161c-2.429-.064-2.714-.108-5.119-.403zm-5.256-.323c-2.361-.52-2.694-.482-5.118-.704l-8.69-.426c-2.411-.045-7.787-.119-10.205 0-2.432.115-5.682.971-8.071 1.373 2.381.421 7.978-.168 10.402 0 2.401.183 5.685-.047 8.091 0s6.062.237 8.474.161c2.429-.064 2.713-.108 5.118-.404zm.185-25.997c2.361-.52 2.694-.482 5.119-.704l8.69-.426c2.411-.045 7.787-.119 10.206 0 2.431.114 5.682.971 8.071 1.373-2.381.421-7.978-.168-10.403 0-2.401.183-5.684-.047-8.09 0s-6.062.237-8.474.161c-2.429-.064-2.713-.108-5.118-.404zm339.313-76.163c2.36-.521 2.694-.483 5.119-.704l8.69-.426c2.41-.045 7.786-.119 10.205 0 2.432.114 5.683.97 8.072 1.373-2.382.421-7.979-.167-10.403 0-2.401.183-5.685-.047-8.091 0s-6.061.237-8.473.161c-2.429-.064-2.714-.108-5.119-.403zm-196.994-1.458c2.36-.52 2.694-.482 5.118-.704 2.408-.229 12.403-.623 14.814-.668s11.25.284 13.669.403c2.431.114 5.682.97 8.071 1.373-2.381.421-7.978-.167-10.402 0-2.402.183-9.149-.451-11.555-.403l-14.597.404c-2.428-.064-2.713-.108-5.118-.403zM76.914 64.7c2.361-.52 2.694-.483 5.118-.704 2.408-.229 12.403-.623 14.813-.668s11.25.284 13.669.403c2.431.114 5.682.97 8.071 1.373-2.381.421-7.978-.167-10.402 0-2.401.183-9.149-.451-11.555-.403l-14.597.403c-2.429-.064-2.713-.108-5.118-.403zm6.99 22.602c2.361-.52 2.694-.483 5.118-.704 2.408-.229 7.949-.623 10.36-.668s11.25.284 13.669.403c2.432.114 5.683.97 8.072 1.372-2.382.421-7.978-.167-10.403 0-2.401.183-9.148-.451-11.554-.403s-7.732.48-10.144.403c-2.429-.064-2.713-.108-5.118-.403zm326.943-20.805c2.36-.52 2.694-.483 5.118-.704 2.408-.229 12.218-.22 14.628-.265s11.776.146 14.195.265c2.432.114 7.136-.402 9.525 0-2.382.421-9.432 1.205-11.856 1.373-2.401.183-9.674-.312-12.08-.265s-12 .076-14.412 0c-2.428-.064-2.713-.108-5.118-.403zm100.638 7.155c-2.36-.52-2.694-.483-5.118-.704-2.408-.229-12.403-.623-14.814-.668s-11.25.284-13.669.403c-2.431.114-5.682.97-8.071 1.373 2.381.421 7.978-.168 10.402 0 2.401.183 9.149-.451 11.555-.403l14.597.404c2.428-.064 2.713-.108 5.118-.403zm-95.201 7.385c2.36-.52 2.694-.483 5.118-.704 2.408-.229 12.403-.623 14.813-.668s11.251.284 13.669.403c2.432.114 5.683.97 8.072 1.373-2.382.421-7.978-.168-10.403 0-2.401.183-9.148-.451-11.554-.403l-14.597.403c-2.429-.064-2.713-.108-5.118-.403zM192.127 94.28c1.314-.518 3.123-.813 4.484-.813h4.847a35.51 35.51 0 0 1 4.25-.228 19.94 19.94 0 0 1 4.325.455c-1.32.502-2.275.296-3.68.585-1.369.294-3.496.161-4.895.316-1.406.161-3.831.001-5.249 0-1.458.01-2.562-.316-4.082-.316zm-76.571 67.734c1.313-.518 3.123-.813 4.484-.813h4.846c1.409-.161 2.83-.237 4.251-.228 1.458-.005 2.912.148 4.324.456-1.32.502-2.274.296-3.68.585-1.368.294-3.495.16-4.895.316s-3.83.001-5.248 0c-1.458.01-2.562-.316-4.082-.316zm25.73 9.01c-1.103-.429-2.623-.674-3.765-.674-1.532 0-2.481-.033-4.069 0l-5.854.296a17.04 17.04 0 0 0-3.631.378c1.109.417 1.91.246 3.09.486 1.149.244 5.219.477 5.219.477l5.582-.7c1.224.008 2.151-.263 3.428-.263zM272.039 49.521c1.314-.518 3.124-.813 4.484-.813h4.847a35.51 35.51 0 0 1 4.25-.228 19.94 19.94 0 0 1 4.325.455c-1.32.502-2.275.296-3.68.585-1.369.294-3.495.161-4.895.316-1.406.161-3.831 0-5.249 0-1.457.01-2.562-.316-4.082-.316zm143.881 96.931c1.314-.517 3.123-.812 4.484-.812h4.847c1.408-.161 2.829-.237 4.25-.228 1.458-.006 2.912.147 4.325.455-1.321.502-2.275.296-3.68.585-1.369.294-3.496.161-4.895.317-1.406.16-3.831 0-5.249 0-1.458.01-2.562-.317-4.082-.317zM95.146 71.824c1.314-.517 3.124-.813 4.484-.813h4.846c1.409-.161 2.829-.237 4.251-.228a19.94 19.94 0 0 1 4.324.455c-1.32.502-2.274.296-3.68.585-1.369.294-3.495.161-4.895.316-1.405.161-3.83.001-5.248 0-1.458.01-2.562-.316-4.082-.316zm9.43 7.474c1.314-.518 3.124-.813 4.484-.813h4.847a35.49 35.49 0 0 1 4.25-.228 19.96 19.96 0 0 1 4.325.455c-1.32.502-2.275.296-3.68.585-1.369.294-3.495.161-4.895.316-1.406.161-3.83.001-5.249 0-1.457.01-2.562-.316-4.082-.316zm359.794-5.515c-1.313-.518-3.123-.813-4.484-.813h-4.847a35.5 35.5 0 0 0-4.25-.228c-1.458-.006-2.912.147-4.325.455 1.321.502 2.275.296 3.68.585 1.369.294 3.496.161 4.895.316 1.406.161 3.831.001 5.249 0 1.458.01 2.562-.316 4.082-.316zm-.971 7.386c1.314-.517 3.124-.813 4.485-.813h4.846c1.409-.161 2.829-.237 4.251-.228a19.95 19.95 0 0 1 4.324.455c-1.32.502-2.275.296-3.68.585-1.369.294-3.495.161-4.895.316-1.405.161-3.83.001-5.248 0-1.458.01-2.562-.316-4.083-.316zm-19.044 14.979c1.314-.518 3.123-.813 4.484-.813h4.847a35.49 35.49 0 0 1 4.25-.228 19.96 19.96 0 0 1 4.325.455c-1.321.502-2.275.296-3.68.585-1.369.294-3.496.161-4.895.316-1.406.161-3.831.001-5.249 0-1.458.01-2.562-.316-4.082-.316zm-247.156 4.286c1.905-.411 2.438-.237 4.391-.422 1.923-.194 5.337.054 7.276 0s4.515-.583 6.455-.472c1.97.099 3.22.063 5.134.472a49.43 49.43 0 0 1-5.79.895l-5.799.371a68.73 68.73 0 0 1-5.829-.084c-1.969-.099-3.924-.354-5.838-.76zm-28.139.611c1.21-.4 3.007-.391 4.295-.526 1.232-.141 2.716-.211 3.959-.237 1.228-.033 4.865.193 6.092.237h6.216c-1.083.648-7.865.591-9.154.844-1.25.265-2.645-.022-3.933 0-1.268.027-2.458-.156-3.713-.317-1.283-.157-2.556.405-3.762-.001zm-20.839 63.404c1.21-.401 3.006-.392 4.295-.527 1.231-.141 2.716-.211 3.958-.237 1.228-.032 4.866.194 6.092.237h6.216c-1.082.648-7.864.592-9.153.844-1.25.265-2.645-.022-3.933 0-1.269.027-2.458-.155-3.713-.317-1.284-.157-2.556.406-3.762 0zm30.917-20.473l6.195-.319 6.116-.212 6.165-.106 6.265.179-6.082.716-6.195.35a89.28 89.28 0 0 1-6.274-.029c-2.106-.077-4.185-.271-6.19-.579h0zm-57.892-16.347c1.979-.65 4.698-1.413 6.742-1.502h6.803l7.546-.554c2.095-.015 3.306.234 5.381.368l-6.081.717-6.195.35-6.712.2c-2.106-.077-5.134.026-7.484.421zm-59.625 34.447l6.989-.822c2.044-.089 19.758-.002 21.801-.06s6.252.005 8.32 0c2.094-.015 3.305.234 5.38.369a83.81 83.81 0 0 1-6.081.716c-2.048.174-5.541.284-7.62.343-2.09.064-18.972-.204-21.059-.288-2.106-.076-5.505.292-7.731-.258zm156.885-18.625c1.947-.508 3.108-1.181 5.117-1.455 1.99-.286 3.514.152 5.538 0 2.013-.154 5.334.018 7.36 0 2.035-.032 5.191.075 7.212.281-1.957.506-5.193.498-7.212.774-1.99.286-3.867.243-5.871.392l-6.023.261c-2.044.032-4.089-.052-6.121-.253zm-5.864 7.691c1.098-.275 2.532-.582 3.689-.709 1.125-.13 1.507.2 2.647.162h2.781c1.18.069 2.534.081 3.645.355a25.52 25.52 0 0 1-3.392.606l-3.401.251c-1.148.037-2.299.018-3.443-.057-1.18-.069-1.415-.336-2.526-.608zM50.098 135.543c1.099-.275 2.532-.581 3.689-.709 1.125-.129 1.507.201 2.647.163h2.78c1.18.069 2.535.08 3.646.354a25.55 25.55 0 0 1-3.392.606l-3.401.252c-1.148.036-2.299.017-3.443-.057-1.18-.07-1.414-.337-2.526-.609zm447.923-40.508c1.099-.275 2.532-.581 3.69-.709 1.125-.129 1.507.201 2.647.163h2.78c1.18.069 2.535.08 3.646.355-1.099.275-2.235.478-3.392.606l-3.401.252a35.64 35.64 0 0 1-3.444-.057c-1.179-.069-1.414-.336-2.526-.608zM216.34 93.526c.93-.34 1.906-.581 2.906-.716.942-.136 1.894.013 2.849 0h4.545c1.012.116 4.549.349 5.474.716-.89.432-3.761.532-4.762.717-.954.182-4.28-.013-5.257 0-.983.012-1.926.388-2.89.222a9.88 9.88 0 0 1-2.865-.938zM83.341 102.69a13.89 13.89 0 0 0-2.906-.716c-.942-.136-1.894.013-2.849 0-.961-.016-3.594-.122-4.545 0-1.011.116-4.548.349-5.474.716.89.432 3.762.532 4.763.717.954.181 4.279-.014 5.256 0 .983.011 1.926.388 2.89.221 1.012-.169 1.981-.486 2.865-.938zm213.714-53.605c2.137-.295 2.478-.306 4.549-.335.961-.015 5.018-.531 5.969-.409l8.365.791c-2.165.343-6.87.485-7.871.669-.953.182-5.288 0-6.463 0-1.582 0-3.108-.3-4.549-.717zM445.62 146.43c2.137-.296 2.478-.306 4.549-.335.961-.016 5.018-.531 5.968-.409l8.366.791c-2.165.343-6.87.485-7.871.669-.953.182-5.288 0-6.463 0-1.582 0-3.108-.3-4.549-.716zm-156.729-23.815c2.137-.295 2.478-.306 4.549-.335.961-.015 5.018-.531 5.969-.409l8.365.791c-2.165.343-6.87.485-7.871.67-.953.181-5.288 0-6.463 0-1.582 0-3.108-.3-4.549-.717zm55.17-101.553c2.137-.295 2.478-.306 4.549-.335.961-.015 5.017-.531 5.968-.409l8.366.791c-2.165.343-6.87.485-7.871.669-.953.182-5.288 0-6.463 0-1.582 0-3.108-.3-4.549-.716zm-79.169 93.882c2.137-.295 2.478-.306 4.549-.335.961-.015 5.018-.531 5.968-.409l8.366.791c-2.165.343-6.87.485-7.871.67-.953.181-5.288 0-6.463 0-1.582 0-3.108-.3-4.549-.717zm205.204-19.443c2.136-.295 2.477-.306 4.548-.335.961-.015 5.018-.531 5.969-.409l8.365.791c-2.165.343-6.87.485-7.871.669-.953.182-5.288 0-6.463 0-1.582 0-3.108-.3-4.548-.716zM180.624 70.628c1.926-.484 3.393-.447 5.38-.696 2.629.205 3.68-.125 5.659-.243l9.002-.288a40.22 40.22 0 0 1 5.997.532 48.64 48.64 0 0 1-5.873 1.127c-1.98.262-6.222-.114-8.201 0l-5.962.118a40.74 40.74 0 0 1-6.002-.549zm8.498 65.133c1.927-.484 3.393-.447 5.38-.696 2.629.205 3.681-.125 5.66-.244l9.002-.288c2.013.027 4.02.205 5.997.532-1.924.494-3.887.87-5.874 1.126-1.979.262-6.221-.114-8.201 0l-5.962.119c-2.015-.035-4.024-.219-6.002-.549zM62.117 111.26c1.927-.484 3.393-.447 5.38-.696 2.629.205 3.68-.125 5.659-.244l9.002-.288a40.06 40.06 0 0 1 5.997.532c-1.924.494-3.887.87-5.873 1.126-1.979.262-6.222-.114-8.201 0l-5.962.119c-2.016-.035-4.024-.219-6.002-.549zm324.099-70.202c1.927-.484 3.393-.447 5.381-.696 2.628.205 3.68-.125 5.659-.243l9.002-.288a40.22 40.22 0 0 1 5.997.532 48.62 48.62 0 0 1-5.873 1.127c-1.98.262-6.222-.114-8.201 0l-5.963.118a40.68 40.68 0 0 1-6.002-.549zm90.055 105.256c1.927-.484 3.393-.447 5.38-.697 2.629.205 3.68-.125 5.66-.243l9.002-.288c2.013.027 4.02.205 5.997.531-1.924.494-3.887.871-5.874 1.127-1.979.262-6.221-.114-8.201 0l-5.962.118c-2.015-.035-4.024-.218-6.002-.548zM317.551 38.81c-1.73-.272-9.352-.462-11.106-.57a165.54 165.54 0 0 0-5.141-.279 172.08 172.08 0 0 0-5.141-.127 60.11 60.11 0 0 0-5.27.131 22.96 22.96 0 0 0 5.042 1.515c1.728.327 3.6-.066 5.369 0s4.717.187 6.474 0c1.774-.177 5.876.271 7.546-.27l2.227-.401zm154.452 18.924c-1.73.272-9.352.462-11.106.57-1.722.122-8.534.211-10.246.279a172.08 172.08 0 0 1-5.141.127 60.11 60.11 0 0 1-5.27-.131 22.96 22.96 0 0 1 5.042-1.515c1.728-.327 3.6.066 5.369 0s9.822-.187 11.579 0c1.775.177 5.876-.271 7.546.27l2.227.401zM332.714 96.031c-1.729.272-9.351.462-11.106.57-1.722.122-8.534.211-10.246.278s-3.419.11-5.141.127a60.11 60.11 0 0 1-5.27-.131 23 23 0 0 1 5.043-1.515c1.728-.327 3.6.066 5.368 0s9.823-.187 11.58 0c1.774.177 5.876-.271 7.546.27l2.226.401zm-25.235-67.945c-1.73-.272-9.352-.462-11.106-.57a165.54 165.54 0 0 0-5.141-.279 172.08 172.08 0 0 0-5.141-.127 60.11 60.11 0 0 0-5.27.131 22.96 22.96 0 0 0 5.042 1.515c1.728.327 3.601-.066 5.369 0s4.717.187 6.475 0c1.774-.177 5.876.271 7.545-.27l2.227-.401zm144.731 84.018c-1.729-.272-9.351-.462-11.105-.57-1.722-.122-3.43-.211-5.142-.278a172.08 172.08 0 0 0-5.141-.127 60.13 60.13 0 0 0-5.269.131c1.596.69 3.291 1.199 5.042 1.515 1.728.327 3.6-.066 5.368 0s4.718.187 6.475 0c1.774-.177 5.876.271 7.546-.27l2.226-.401zm-65.809-7.601c-1.73-.272-9.352-.462-11.106-.569-1.722-.123-3.429-.211-5.141-.279a172.08 172.08 0 0 0-5.141-.127c-1.758-.033-3.517.011-5.27.131a22.96 22.96 0 0 0 5.042 1.515c1.728.328 3.6-.066 5.369 0s4.717.187 6.474 0c1.774-.176 5.876.271 7.546-.27l2.227-.401zm58.805-72.865c-1.73-.272-9.352-.462-11.106-.57a165.54 165.54 0 0 0-5.141-.279 172.08 172.08 0 0 0-5.141-.127 60.11 60.11 0 0 0-5.27.131 23.03 23.03 0 0 0 5.042 1.515c1.728.327 3.601-.066 5.369 0s4.717.187 6.475 0c1.774-.177 5.876.271 7.545-.27l2.227-.401zm-3.634 42.442c-1.73-.272-9.352-.462-11.106-.57a165.54 165.54 0 0 0-5.141-.279 172.08 172.08 0 0 0-5.141-.127 60.11 60.11 0 0 0-5.27.131 22.98 22.98 0 0 0 5.042 1.515c1.728.327 3.6-.066 5.369 0s4.717.187 6.474 0c1.774-.177 5.876.271 7.546-.27l2.227-.401zM213.399 10.567l7.118-.65h6.499 20.685c2.503-.099 9.967-.305 12.211.105-2.243.415-4.516.697-6.804.844-2.273.155-23.816.838-26.092.818-2.271-.025-3.93-.41-6.789-.41-2.212 0-3.73-.708-6.828-.708zm49.856 49.417c-4.824-.836-4.736-.997-9.587-.342-2.261.315-9.596-.092-11.844 0-.416.003-2.898.753-3.309.707.67.504 6.429.487 7.303.647.847.168 1.709.269 2.578.304l2.439.105c.836.034 1.668.042 2.504.038a42.21 42.21 0 0 0 4.997-.354 25.92 25.92 0 0 0 4.919-1.105zm-10.638 39.933c-4.825-.835-4.736-.997-9.587-.342-2.261.315-9.596-.092-11.845 0-.415.003-2.897.753-3.309.707.671.504 6.43.487 7.304.647a16.69 16.69 0 0 0 2.578.304l2.439.105c.836.034 1.668.043 2.504.038 1.673-.019 3.343-.137 4.997-.354a25.92 25.92 0 0 0 4.919-1.105zm-65.809 8.847c-4.825-.835-4.736-.997-9.587-.341-2.261.315-9.596-.093-11.845 0-.415.003-2.897.752-3.309.707.671.504 6.43.487 7.304.647.846.167 1.709.269 2.578.304l2.439.105c.836.034 1.667.042 2.504.038 1.673-.019 3.343-.138 4.997-.354 1.683-.211 3.333-.581 4.919-1.106z"/><path d="M245.405 134.066c-4.824-.835-4.735-.997-9.587-.341-2.261.315-9.596-.093-11.844 0-.415.003-2.897.752-3.309.707.67.504 6.429.487 7.303.647a16.72 16.72 0 0 0 2.578.303l2.44.106c.836.033 1.667.042 2.503.038a42.11 42.11 0 0 0 4.998-.355c1.683-.21 3.333-.581 4.918-1.105zm232.597-47.181c4.824-.835 4.736-.997 9.587-.342 2.261.315 9.596-.092 11.844 0 .415.003 2.897.752 3.309.707-.67.504-6.429.487-7.303.647a16.72 16.72 0 0 1-2.578.304l-2.439.105a55.05 55.05 0 0 1-2.504.038c-1.674-.019-3.343-.138-4.998-.354a25.89 25.89 0 0 1-4.918-1.105zM255.504 38.337c-1.077-.424-2.369-.28-3.538-.456l-4.075-.447c-1.147-.029-1.704-.122-2.842 0l-5.791.767c1.109.351 4.827.367 5.999.502a32.39 32.39 0 0 0 3.431.249l3.432-.084c1.145-.084 2.279-.262 3.384-.531zM99.545 79.382c-1.078-.424-2.37-.28-3.539-.456l-4.075-.447c-1.146-.029-1.704-.122-2.842 0l-5.791.768c1.109.351 4.827.367 5.999.502a32.38 32.38 0 0 0 3.432.249l3.432-.084a20.77 20.77 0 0 0 3.384-.53zM301.038 19.4c-1.078-.424-2.37-.28-3.539-.456-1.133-.18-9.243.025-10.395 0-1.146-.029-1.704-.122-2.842 0-1.173.117-4.684.416-5.791.767 1.109.351 4.827.367 5.999.502 1.137.143 4.409-.022 5.558 0s6.484-.2 7.625-.283a20.83 20.83 0 0 0 3.385-.53zm89.807 1.196c-1.078-.424-2.37-.28-3.539-.456-1.133-.18-9.243.025-10.395 0-1.146-.03-1.704-.122-2.842 0-1.172.117-4.684.415-5.79.767 1.108.351 4.826.367 5.998.502 1.137.143 4.41-.022 5.558 0 1.145.027 6.484-.199 7.625-.282a20.85 20.85 0 0 0 3.385-.53zm-79.169 93.884c-1.078-.424-2.37-.281-3.539-.456-1.133-.18-9.243.025-10.395 0-1.146-.03-1.704-.122-2.842 0-1.172.117-4.684.415-5.79.767 1.108.351 4.826.366 5.998.501 1.137.144 4.41-.022 5.558 0s6.484-.199 7.625-.282a20.85 20.85 0 0 0 3.385-.53zm160.6-73.469c-.849-.536-3.246-.83-4.24-1.134-.961-.301-3.87-.254-4.883-.38s-2.879-.225-3.896-.148c-1.069.07-3.155 0-6.062.818 1.918.317 5.057.092 6.062.317.946.226 2.924.405 3.896.527.983.125 3.584.004 4.577 0h4.546zM304.201 60.749l-7.674-.983-7.692-.515-7.77-.051a58.47 58.47 0 0 0-7.79.704l7.68.953 7.686.498 7.732.063a60.51 60.51 0 0 0 7.828-.671zm-75.83 48.364l-7.673-.983-7.693-.515-7.77-.05c-2.626.062-5.236.298-7.789.704l7.679.953 7.687.498 7.731.063c2.637-.055 5.259-.28 7.828-.67zm-102.391 2.268l-7.673-.983-7.693-.514-7.77-.051a58.29 58.29 0 0 0-7.789.705l7.68.953 7.686.498 7.731.063c2.637-.055 5.259-.28 7.828-.671zm24.362 41.859l-5.967-.765c-2.005-.184-4.563.108-6.567.036l-6.043-.039a45.22 45.22 0 0 0-6.058.548l5.973.741 5.977.388c2.002.083 4.593-.337 6.597-.388 2.051-.043 4.09-.218 6.088-.521zm320.733 9.049c1.364-.334 2.748-.592 4.144-.772l4.154-.405c1.397-.084 2.797-.098 4.196-.039 1.418.048 2.827.234 4.206.553a38.49 38.49 0 0 1-4.147.75l-4.151.391-4.175.05c-1.424-.044-2.84-.221-4.227-.528zm-31.339-74.516c2.452-.413 5.089-.322 7.599-.545l7.504-.606c2.511-.104 5.774.324 8.288.396 2.549.06 4.758.025 7.236.42l-7.454.925c-2.502.221-5.575-.094-8.07 0l-7.504.061a58.88 58.88 0 0 1-7.599-.651zm-166.642-77.42c2.218-.574 1.65-.663 3.95-.912 2.28-.259 5.926-.269 8.226-.324l8.372-.348c2.31.119 10.581-.071 12.843.348-2.261.405-4.316 1.075-6.618 1.236-2.281.175-10.761.357-13.038.413s-4.554.062-6.84.016a78.11 78.11 0 0 1-6.895-.429zm100.793 66.985l-8.332-.685c-2.772-.119-5.585.455-8.358.472s-5.501-.53-8.272-.374l-8.322.828 8.324.834c2.772.15 5.531-.209 8.31-.227l8.344.123a77.87 77.87 0 0 0 8.306-.97zm67.086 27.058l8.332-.686c2.772-.118 5.585.455 8.358.472s5.501-.529 8.272-.374l8.322.828-8.324.834c-2.772.15-5.531-.209-8.31-.227s-5.572.313-8.344.123a77.87 77.87 0 0 1-8.306-.97zm-102.089-9.372c2.762-.351 6.628.106 9.417 0 2.771-.119 2.794-.703 5.567-.685l9.978.098 8.322.828c-2.753.417-5.533.695-8.324.835-2.772.15-5.531-.209-8.31-.227s-5.572.313-8.344.123a77.87 77.87 0 0 1-8.306-.97zm121.847-29.56l8.332-.685c2.771-.119 5.585.455 8.357.472s5.501-.53 8.272-.374l8.322.828c-2.753.417-5.533.695-8.324.835-2.772.15-5.531-.209-8.31-.227s-5.571.313-8.344.123a77.88 77.88 0 0 1-8.305-.97zm-163.838 3.764l-9.944-.574-9.922-.195-4.951.054-5.008.34-4.894.436c-1.638.127-10.268 1.157-11.907 1.032 1.563.555 8.704.672 10.391.799 1.668.144 4.839-.588 6.516-.599l4.906.007c1.608.043 3.307.048 4.957.051 3.31.001 6.626-.069 9.939-.258a88.2 88.2 0 0 0 9.917-1.093zM120.247 95.179l-9.945-.574-9.921-.195-4.951.054-5.008.34-4.894.436c-1.638.127-10.269 1.157-11.907 1.032 1.563.555 8.704.672 10.391.799 1.668.144 4.839-.588 6.516-.599l4.906.007c1.608.043 3.308.048 4.958.051 3.31.002 6.625-.069 9.938-.258 3.331-.178 6.644-.543 9.918-1.093zm-6.304 47.918l-9.945-.574-9.921-.195-4.951.054c-1.642.043-5.845-.211-7.48-.054-5.319.195-4.313.445-5.938.538-1.638.126-6.753 1.45-8.391 1.325 1.563.555 8.704.672 10.391.799 1.668.144 4.839-.589 6.516-.599l4.906.007c1.608.043 4.35-.01 6-.007 3.31.001 8.191.196 11.504.007 3.331-.178 4.036-.75 7.31-1.301zm12.86-8.624l-9.945-.574-9.921-.195-4.951.054-5.009.34-4.894.436c-1.638.127-10.269 1.158-11.907 1.033 1.563.555 8.704.672 10.391.798 1.668.144 4.839-.588 6.516-.599l4.905.007c1.608.043 3.308.048 4.958.051 3.31.002 6.625-.069 9.939-.258a88.34 88.34 0 0 0 9.917-1.093zm208.241-64.681c-1.345-.54-2.733-1.313-4.173-1.319-2.518-.012-5.468.47-6.912.282-1.457-.195-6.439-.373-7.914-.352-2.106.03-5.556.569-6.996.967 1.393.415 6.524.061 7.964.337 1.404.277 4.645-.151 6.074.028 1.438.191 6.027.327 7.482.368 1.501.057 3.005-.048 4.475-.312zM254.39 1.962c-1.345-.54-2.733-1.313-4.173-1.319-2.518-.012-5.468.47-6.912.282-1.457-.195-6.439-.373-7.914-.352-2.106.03-5.556.569-6.996.967 1.394.415 6.525.061 7.965.337 1.403.277 4.644-.151 6.073.029 1.438.191 6.028.327 7.482.368 1.501.057 3.005-.048 4.475-.312zm170.261 18.991c-1.344-.54-2.733-1.313-4.172-1.319-2.519-.012-5.469.47-6.912.282-1.458-.195-6.44-.373-7.915-.351-2.106.03-5.556.569-6.996.967 1.394.415 6.525.061 7.965.337 1.403.277 4.645-.151 6.073.029 1.438.191 6.028.327 7.482.369 1.501.057 3.005-.048 4.475-.312zm-79.169 93.882c-1.345-.539-2.733-1.312-4.173-1.319-2.518-.012-5.468.47-6.912.282-1.457-.195-6.439-.373-7.915-.352-2.105.031-5.555.569-6.995.968 1.393.414 6.524.061 7.964.337 1.404.276 4.645-.152 6.074.028 1.438.192 6.027.327 7.482.369 1.501.057 3.005-.048 4.475-.313zm-49.377-37.074c-1.841-.506-2.114-1.022-4.036-1.207-1.904-.196-5.937.074-7.855.073-1.906-.008-4.294-.507-6.19-.338-1.92.163-4.676 1.005-6.538 1.439 1.872.396 6.989.228 8.912.358l6.218.153 5.721-.053c1.926-.111 1.873-.108 3.768-.425zm184.797 26.901c1.841-.507 2.114-1.022 4.036-1.207 1.904-.197 5.936.074 7.855.073 1.906-.008 4.294-.508 6.189-.338 1.921.163 4.677 1.005 6.539 1.439-1.872.396-6.99.228-8.912.358l-6.218.153c-1.891.008-3.828.07-5.721-.053-1.927-.111-1.874-.108-3.768-.425zm-45-8.808c-1.841-.507-2.114-1.022-4.036-1.207-1.904-.197-19.91.145-21.828.144-1.906-.008-4.047.198-5.943.368-1.921.163-4.923.3-6.785.734 1.872.396 6.989.228 8.912.358 1.897.138 4.328.145 6.218.153l19.694-.124c1.927-.111 1.874-.108 3.768-.425zm-11.385 33.951c1.841-.506 3.819-.695 6.076-.695h22.638c1.906-.008 1.908-.17 3.804 0l6.074.733c-1.871.397-6.989.228-8.911.358-1.897.139-5.293-.365-7.183-.358s-16.836.51-18.73.387c-1.926-.111-1.873-.107-3.768-.425zm-155.334-109.8c-1.834-.401-2.1-.797-4.02-.953-1.902-.164-5.937.015-7.855 0-1.906-.019-14.535 0-17.628-.606-1.922.111-5.06 1.04-6.927 1.358 1.866.317 6.986.224 8.906.338 1.896.12 16.14.142 18.03.162s3.826.081 5.721 0c1.928-.071 1.875-.069 3.773-.299zm256.675 60.868c-1.834-.401-2.1-.797-4.02-.953-1.902-.164-5.937.015-7.855 0-1.906-.019-14.535 0-17.627-.606-1.923.111-5.06 1.04-6.928 1.358 1.867.317 6.986.225 8.907.338 1.895.12 16.139.142 18.029.162s3.826.081 5.721 0c1.928-.072 1.875-.069 3.773-.299zM380.277 59.441l-16.402 1.384c-5.443.46-11.179-.384-16.671-.097s-11.015.422-16.537.279c-5.526-.103-12.267.758-17.683-.181 5.512.11 12.216-1.304 17.678-1.464s10.921-.452 16.388-.739 11.204.692 16.706.566a168.59 168.59 0 0 1 16.521.253zm3.835 77.499l16.403 1.384c5.443.46 11.179-.384 16.671-.097s11.014.422 16.536.279c5.527-.103 12.267.757 17.684-.182-5.381-1.464-12.216-1.304-17.679-1.464s-10.92-.452-16.388-.739-11.203.692-16.705.566a168.61 168.61 0 0 0-16.522.253zm-157.719-20.459l-16.403 1.384c-5.443.46-11.179-.384-16.671-.097s-11.015.422-16.537.279c-5.526-.103-12.266.757-17.683-.182 5.512.11 12.216-1.304 17.678-1.464s10.921-.452 16.389-.739 11.203.692 16.705.566a168.61 168.61 0 0 1 16.522.253z"/><use xlink:href="#C"/><use xlink:href="#C" x="78.922" y="76.418"/><path d="M345.889 31.664l14.176.097c5.443.46 11.178-.384 16.671-.097s11.019.095 16.541-.049l17.684-.181c-3.84-.905-12.85-1.483-18.313-1.643s-15.995 1.025-21.462.738c-3.371.316-7.979 0-14.102 0-4.607 0-5.698.781-11.195 1.135zm112.94 106.414l14.176.097c5.443.46 11.178-.384 16.671-.097s11.019.095 16.541-.048l17.684-.182c-3.84-.905-12.85-1.483-18.313-1.643s-15.995 1.025-21.462.738c-3.371.316-7.979 0-14.102 0-4.608 0-5.698.781-11.195 1.135zm-90.133-51.522c-2.361-.52-2.695-.483-5.119-.704l-8.69-.425c-2.41-.046-7.786-.119-10.205 0-2.432.114-5.683.97-8.072 1.373 2.382.421 7.979-.167 10.403 0 2.401.183 5.685-.047 8.091 0s6.061.237 8.473.161c2.429-.064 2.714-.108 5.119-.403zm133.721 33.79c-2.36-.52-2.694-.482-5.118-.704l-8.69-.426c-2.411-.045-7.787-.119-10.206 0-2.431.114-5.682.971-8.071 1.373 2.381.421 7.978-.168 10.402 0 2.402.183 5.685-.047 8.091 0s6.062.237 8.474.161c2.429-.064 2.713-.108 5.118-.404zm-9.525-7.705c-2.36-.52-2.694-.482-5.118-.704l-8.691-.426c-2.41-.045-7.786-.119-10.205 0-2.432.114-5.682.97-8.071 1.373 2.381.421 7.978-.168 10.402 0 2.401.183 5.685-.047 8.091 0s6.061.237 8.474.161c2.428-.064 2.713-.108 5.118-.404zM331.167 86.529c-1.314-.517-3.123-.813-4.484-.813h-4.847a35.51 35.51 0 0 0-4.25-.228 19.96 19.96 0 0 0-4.325.456c1.32.502 2.275.296 3.68.585 1.369.294 3.495.161 4.895.316 1.406.161 3.831.001 5.249 0 1.457.01 2.562-.316 4.082-.316zm133.722 33.789c-1.313-.518-3.123-.813-4.484-.813h-4.847c-1.408-.161-2.829-.237-4.25-.228a19.88 19.88 0 0 0-4.325.456c1.321.502 2.275.296 3.68.585 1.369.293 3.496.16 4.895.316 1.406.16 3.831 0 5.249 0 1.458.01 2.562-.316 4.082-.316zm-131.618 2.913c-1.314-.518-3.124-.813-4.485-.813h-4.846c-1.409-.161-2.829-.237-4.251-.228a20 20 0 0 0-4.324.456c1.32.502 2.274.296 3.68.585 1.369.293 3.495.16 4.895.316s3.83 0 5.248 0c1.458.01 2.562-.316 4.083-.316zm120.608 37.918c-1.313-.518-3.401-.565-4.761-.565-1.825 0-3.856-.58-5.258-.74-1.408-.161-5.356.275-6.777.284-1.459-.005-2.912.148-4.325.456 1.32.502 2.275.296 3.68.586 1.369.294 6.711.14 8.111.295 1.405.161 3.83.001 5.248 0 1.458.011 2.562-.316 4.082-.316zm-167.121-31.278c1.905-.412 2.438-.238 4.392-.422 1.923-.194 5.336.053 7.276 0s11.69-.584 13.63-.473c1.97.099 3.22.064 5.134.473a49.66 49.66 0 0 1-5.789.895c-1.93.194-11.039.317-12.975.371s-3.884.029-5.829-.084a37.29 37.29 0 0 1-5.839-.76zm65.497-.538c-1.21-.401-3.007-.392-4.295-.527-1.232-.141-2.716-.211-3.959-.237-1.228-.032-4.865.193-6.092.237-1.272.038-4.956-.15-6.216 0 1.083.648 7.865.591 9.154.844 1.25.265 2.645-.022 3.932 0 1.269.027 2.459-.155 3.714-.317 1.283-.157 2.556.405 3.762 0zm10.952 6.363l-5.266-.27-5.199-.181-5.24-.09c-1.781-.013-3.561.038-5.325.152l5.169.609 5.266.298 5.333-.025c1.791-.065 3.558-.231 5.262-.493h0zM62.364 179.693l-5.266-.271-5.199-.181-5.241-.09c-1.781-.013-3.561.038-5.325.152l5.169.609 5.266.298 5.333-.025a45.86 45.86 0 0 0 5.262-.492h0zm430.917-25.492l-4.825-.541c-1.737-.076-10.936-.048-12.673-.096s-3.475.212-5.233.208c-1.781-.013-3.897.315-5.66.429 1.687.263 3.751.189 5.504.332 1.741.148 3.492-.05 5.258 0 1.777.054 10.593.232 12.367.161a45.66 45.66 0 0 0 5.262-.493zM282.398 86.463c-1.946-.507-3.107-1.18-5.116-1.454-1.99-.286-3.514.152-5.538 0-2.013-.154-5.334.018-7.36 0a73.2 73.2 0 0 0-7.212.281c1.957.506 5.193.499 7.212.774 1.99.286 3.867.243 5.871.392l6.022.26a53.42 53.42 0 0 0 6.121-.253zm100.199 28.702c-1.946-.507-3.107-1.18-5.116-1.454-1.991-.286-3.514.151-5.539 0-2.013-.154-5.334.018-7.36 0-2.034-.032-5.19.075-7.211.28 1.957.507 5.192.499 7.211.775 1.991.286 3.868.243 5.872.392l6.022.261a53.42 53.42 0 0 0 6.121-.254zm77.946 39.587c-1.946-.507-3.107-1.18-5.116-1.454-1.99-.286-3.514.151-5.538 0-2.013-.154-11.729-.262-13.755-.281a73.2 73.2 0 0 0-7.212.281c1.957.506 5.193.498 7.212.774 1.99.286 3.867.243 5.871.392s10.413.522 12.417.541a53.42 53.42 0 0 0 6.121-.253zm-164.362-19.321c-1.099-.275-1.77-.2-2.927-.328-1.125-.129-2.509.038-3.649 0-1.149-.039-2.227-.456-3.371-.381-1.18.069-1.705.243-2.816.517 1.099.275 2.235.478 3.392.606l3.401.252 3.444-.057c1.179-.07 1.414-.336 2.526-.609zm10.774-49.656c-.93-.34-1.906-.581-2.906-.716-.942-.136-1.894.013-2.849 0h-4.545c-1.012.116-4.549.35-5.474.716.89.432 3.761.532 4.762.717.954.182 4.28-.013 5.257 0 .983.012 1.926.388 2.89.222 1.011-.169 1.981-.486 2.865-.938zm65.22 37.099a13.89 13.89 0 0 0-2.906-.716c-.942-.136-1.895.013-2.85 0-.961-.016-12.096-.123-13.047 0-1.011.116-11.043.349-11.968.716.89.431 3.761.532 4.762.716.954.182 19.277-.013 20.253 0 .984.012 1.927.388 2.891.222 1.011-.169 1.981-.486 2.865-.938zM282.71 1.593a13.9 13.9 0 0 0-2.907-.716c-.942-.136-1.894.013-2.849 0h-4.545c-1.011.116-4.548.349-5.474.716.89.432 3.762.533 4.763.717.953.182 4.279-.013 5.256 0 .983.012 1.926.388 2.89.222a9.89 9.89 0 0 0 2.866-.938zm48.662 75.557c-1.944-.431-3.408-.354-5.404-.549-2.619.277-3.683-.024-5.665-.089l-9.008-.042c-2.012.082-4.011.315-5.974.695 1.941.441 3.917.764 5.912.966 1.988.207 6.214-.284 8.197-.224l5.964-.045a40.61 40.61 0 0 0 5.978-.712zm79.131 27.608c1.945-.431 3.409-.354 5.404-.549 2.62.277 3.683-.024 5.666-.088l9.008-.043a40.19 40.19 0 0 1 5.974.695c-1.942.442-3.918.764-5.913.966-1.988.208-6.214-.284-8.196-.224s-3.963.057-5.964-.044c-2.013-.09-4.014-.329-5.979-.713zm116.784 48.54c-1.944-.431-3.409-.354-5.404-.549-2.62.277-3.683-.024-5.666-.088l-9.008-.043a40.19 40.19 0 0 0-5.974.695c1.942.442 3.918.764 5.913.966 1.988.208 6.214-.284 8.196-.224l5.964-.044c2.013-.09 4.014-.329 5.979-.713zm-98.425-65.605c-1.944-.431-3.408-.354-5.404-.549-2.62.277-3.683-.025-5.666-.089l-9.008-.043a40.11 40.11 0 0 0-5.974.695 48.9 48.9 0 0 0 5.913.966c1.988.208 6.214-.284 8.197-.224l5.963-.045c2.014-.09 4.014-.328 5.979-.712z"/><path d="M262.844 175.231l-.207 5.146 3.414.608-.299-5.419 1.969-3.388s1.864.43 3.971-.274 3.871-3.498 4.205-3.924c0-1.384 1.831-3.459 2.746-4.324 0 0-1.914-.604-3.23 0-1.194.548-4.251-1.545-3.096-1.597 4.781-.215 6.501-2.133 6.501-2.133l-7.695-.262s1.194-.247 8.594-2.328c1.564-.441.19-1.167.19-1.167s-6.566.43-12.186-.297c-.9-.117 10.922-2.091 10.922-2.091l.477-.504s-1.846-.357-3.707-.827c-7.692 1.331-11.481-1.235-11.481-1.235 7.654-.487 13.166-3.305 13.166-3.305s-.947-.846-3.23-.587c-4.143.469-10.533-.3-10.533-.3 1.79-2.91 8.777-1.892 8.777-1.892-.77-1.42-4.037-2.114-9.284-2.898.045-.839-1.998-3.606-2.745-3.717l-3.402.058s-2.229-.058-2.229 2.055c-4.459 2.31-1.86 4.523-3.44 4.865s-6.741 3.081-4.357 6.453c0 0-1.457 9.774 1.85 13.772 2.363 2.856 8.176 3.992 8.176 3.992s.967 2.242 1.969 3.326c1.452 1.57 4.194 2.194 4.194 2.194zm-7.234-32.566c-.245 2.27-1.289 3.693-3.159 4.358-5.021 1.787-3.335 4.924-3.335 4.924s0 8.371 2.913 13.537c-1.017-.626-1.027-.755-1.65-1.291-2.773-2.388-2.071-12.447-2.071-12.447s-1.229-3.484 3.405-5.285c1.909-.741 3.178-1.526 3.897-3.796zm9.867 29.239l.574-4.256c.49.333 1.154 1.214.936 1.555-.478.745-1.052 2.191-1.51 2.701zm-5.394-1.662s2.129 2.856 3.222 2.288v-4.017c-.918 1.729-3.222 1.729-3.222 1.729z" class="C"/><path d="M267.721 136.422c-3.242-.044-11.04 2.152-11.04 2.152l3.402-.058c2.168-.038 7.275-1.605 7.275-1.605 3.959 1.686 12.072 10.032 14.507 17.963.498 2.26.931 7.074-1.313 8.25s-2.208.844-1.909.532c-.915.865-2.746 2.94-2.746 4.324.418-.532 2.388-1.862 5.192-3.725 2.244-1.491 2.129-6.875 1.791-9.381-2.149-8.41-10.842-16.523-15.159-18.452zm47.451 19.664c-.245 1.518-1.435 2.669-2.866 2.669-1.354 0-2.492-1.03-2.818-2.425 1.548.112 4.852.219 5.684-.244zm-.119-1.6c0-1.292-1.489-2.224-2.747-2.224-1.354 0-2.492 1.03-2.818 2.425l1.532-.036 4.033-.165z"/><path d="M322.509 134.189l3.306.516 2.817-.516.202 7.184 4.336.235 2.533 1.488h-12.645l.597.508h12.868l.898.572-12.818.368.843.509 12.852-.304 1.145.77-13.26.512 1.229.822 13.412-.374 2.212 1.627-14.957-.196.755 1.487h14.553l.389 1.436-7.253.365v1.189l-1.335-1.189h-5.88l.492 1.37 14.342-.386.433 1.593-3.078.208v2.545l-.954-2.545-3.057.248-7.09.456.527 2.152 14.368-.422.443 1.631-5.191.234.281 2.27s-.542-2.035-2.285-2.27c-2.547-.065-7.195.235-7.195.235l.668 2.035h14.465l.597 2.433h-4.494v5.284l-25.49 6.296v-9.472h-9.34v12.213l-9.023 3.836v-18.143l3.804-14.658 6.869-4.165-7.759 3.734-3.967 15.089h-3.441c1.545-5.01 3.441-9.224 4.494-15.911 7.082-2.912 11.412-4.971 13.517-5.48 0 0 5.812 3.911 11.06 6.733l4.108 14.644 2.598.014s-1.873-3.818-4.564-14.893c-4.36-2.075-11.165-6.733-11.165-6.733h7.794l.434-7.184zm5.628.757l-2.01.396v.448l1.5-.121.217 5.009.293.103v-5.835zm-11.644 20.361c0 2.765-1.708 4.776-4.187 4.776-3.204.137-4.24-2.153-4.24-4.575 0-2.764 1.861-4.741 4.24-5.005 3.116.264 3.726 1.558 4.187 4.804z" class="C"/><path d="M308.417 167.539v7.3l2.827-4.11-2.827-3.19zm6.829-1.272l-3.458 3.347-3.371-3.464 6.829.117zm-3.125 4.893l-3.353 4.677v1.195l6.32-2.193-2.967-3.679zm.474-.744l2.985 2.779v-6.067l-2.985 3.288zm-87.074 1.282v2.502h-2.384v-2.894c-1.754 0-5.176-.782-4.839-3.909.42-3.909 5.61-4.847 6.802-5.159.954-.25 4.111.654 5.05 2.893.649 1.549.112 2.814 0 4.378s-3.133 2.111-4.629 2.189zm11.454 1.493v2.235l1.683.255v-2.767c1.238 0 3.655-.552 3.417-2.76-.297-2.761-2.756-4.213-3.598-4.434-.673-.177-3.199.376-3.862 1.957-.459 1.094-.988 2.261-.909 3.365s2.212 2.093 3.269 2.149zm171.624-6.678v3.083l2.321.35v-3.814c1.707 0 5.039-.762 4.711-3.806-.409-3.806-3.8-5.809-4.96-6.113-.929-.244-4.411.519-5.325 2.699-.632 1.508-1.362 3.117-1.253 4.639s3.05 2.886 4.506 2.962z"/><path d="M352.672 164.784s-1.378.406-2.034-.289 1.28-5.54 0-9.629c1.94 1.022 1.94 0 3.202.414 2.406-2.806 2.002-5.033 3.469-6.465.927-.905 13.426-1.664 16.542-.796.194.273 1.949 1.625 2.274 4.068-1.623 3.474-.084 6.694-.165 8.422.505.634.565 2.109.642 2.503-.184.482-.569-.928-.569-.928.037-.628 0-.869-.073-1.575.004-.41-.874-3.431-.871-6.706-.076 1.75-.151 2.728.161 4.774l.575 2.204-.736 4.342h-1.341l.606-3.908c-.249-.123-.577-.311-.929-.555l-1.062 4.463h-1.472l.909-3.908c-.548-.354-1.705-1.428-1.947-2.895l-2.824 1.126-4.218-.103.767 2.741.519 4.052h-1.515l-.735-3.329-1.385-2.75-.402 3.028-.94 3.051h-1.601l.733-3.051.194-3.028s-1.137.084-1.749-.289c-.745 3.276-4.025 5.016-4.025 5.016zm3.223-9.504c-.246 1.428-1.293 2.539-2.055 3.04-.517-.967 1.002-1.123 2.055-3.04zm16.064-5.161s-7.608-1.304-11.497 0c2.943-1.544 10.972-1.989 12.963-1.506.709.955 1.188 2.808.929 3.918 0-.45-2.395-2.412-2.395-2.412zm23.48 15.686l1.159-.165c.123-1.42.143-4.916-.468-5.553-.371.304-1.16-.064-1.357.302-.247-1.164-.873-3.541-1.406-3.739-.666-.247-8.508-.77-10.284-.275s-1.035 7.534-1.233 8.551c-.157.814-.065.431 0 .138.148-1.503.434-4.899.395-6.461.214.806.597 2.71.419 3.876l-.419 1.045.419 2.474h.765l-.346-2.227a4.25 4.25 0 0 0 .529-.316l.606 2.543h.838l-.517-2.227c.312-.201.971-.813 1.109-1.649l1.924.825 2.639-.248-.987 1.567-.296 2.31h.863l.42-1.897.789-1.568.764 3.465h.913l-.419-3.465.887-.164 2.294 2.858zm-1.751-5.416c.181.458.651 1.447 1.085 1.733s-.543-1.036-1.085-1.733zm-9.914-2.941c.552-.484 5.047-.202 7.226 0-1.677-.88-6.092-1.073-7.226-.798-.908.22-.839 1.54-.691 2.173 0-.257.139-.891.691-1.375z" class="C"/><path d="M391 157.448c-2.179-.202-6.674-.484-7.226 0s-.691 1.118-.691 1.375c-.148-.633-.217-1.953.691-2.173 1.134-.275 5.549-.082 7.226.798zm2.688 2.941c.181.458.651 1.447 1.085 1.733s-.543-1.036-1.085-1.733zm-33.645 6.769c-5.375.256-10.805.674-16.271 1.357 1.047.259 2.464.525 4.159.738 6 .756 15.489.85 24.424-2.367a238.84 238.84 0 0 0-12.312.272zm-65.812 15.62l-.005.226 1.886-1.042c-.547-.095-.521-2.1-.44-3.091-1.217 1.628-1.411 3.258-1.441 3.907z"/><path d="M290.897 176.992c1.573 4.071 1.715 6.368 1.59 7.008l1.739-.996.005-.226c-.029-2.106-2.209-4.713-3.334-5.786z"/><path d="M280.04 187.905c4.462-.86 8.826-1.701 12.447-3.905l1.739-.996 1.886-1.042c16.543-8.974 33.701-13.894 50.19-16.083 2.542.881 8.831 1.87 13.644-1.224a173.88 173.88 0 0 1 37.975 2.391s3.293-.466 3.504-1.875c.877 1.037 1.264 2.777 1.264 2.777 10.557 2.153 19.565 5.051 26.377 7.952-1.31.669-2.674.214-3.838-.175-.873-.291-1.634-.545-2.175-.259-1.688-.371-4.848-1.389-8.273-2.492-4.691-1.511-9.88-3.183-12.478-3.575-9.186-1.39-18.929-2.472-29.947-2.513a238.84 238.84 0 0 0-12.312.272c-5.375.256-10.805.674-16.271 1.357-9.781 1.221-17.82 4.305-27.208 7.907-6.527 2.504-13.707 5.259-22.577 7.811-.296.175-.537.397-.813.65-.831.763-1.977 1.816-5.858 2.756-4.631 1.787-8.414 2.157-12.12 2.52-2.14.21-4.253.417-6.489.892 3.575-1.651 7.49-2.406 11.333-3.146z" class="C"/><path d="M173.149 176.308l3.369-.53c3.854-.617 8.143-1.303 12.418-1.662-6.583-3.378-13.413.188-15.787 2.192z"/><path d="M343.122 178.876c-.695.344-1.866.699-2.704.699-1.148 0-10.688.979-14.481 2.075 4.284-5.064 13.414-4.58 14.481-4.58.437 0 1.293-.236 1.791-.484 2.009-.995 9.619-.846 16.677.485-10.429.626-13.265.566-15.764 1.805zm-32.507 10.937c-9.024 4.934-27.42 5.089-29.386 7.985-.001-1.839 5.665-3.863 6.074-4.383 13.201-2.193 19.942-6.029 23.312-3.602z" class="C"/><path d="M334.007 188.395c.467.508-1.148.87-1.399.379-1.719.25-3.846-.412-5.439.275.017-1.126-1.189-3.393-1.794-4.385.773 3.797 0 4.797 0 4.797s-1.644-.621-2.703-.687c.913.627-3.487 3.075-3.487 3.075s.432-2.253-.481-4.853c-.611 3.617-1.885 5.393-1.56 5.605-4.02 1.514-4.759 4.119-15.784 5.197 2.352 0 8.984.49 9.971 0 1.639-.812 5.066-3.416 6.762-4.07 1.796-.693 4.714-1.256 6.532-1.879 2.066-.709 4.709.666 6.712-.253 1.208-.555 2.314-.004 3.497-.736 1.931-2.564 4.283.157 5.709-2.298-2.233-.991-5.759-.649-6.536-.167z"/><path d="M345.555 187.781c4.277.176 9.378-1.546 12.423-1.546 2.346 0 20.66-.178 24.206 1.545-5.582.783-21.792.96-24.206.96-3.041 0-8.006 0-12.423-.959z" class="C"/><path d="M394.375 188.627c-4.164 0-5.151 0 .404-2.393 1.404 1.234 3.532 1.511 4.893 1.689l.011.001c.891.116 2.584.345 3.839.173 2.406.92 3.569 1.56 5.967 1.966 1.185.2 2.253.704 3.441.866.931.126 1.613.688 2.474.912.56.146 1.12.129 1.674.337l2.966 1.186c-15.277-3.078-23.434-4.538-25.669-4.737zm-177.795-1.3l.093.005c.394.019.901.044 1.388.165 2.043.506 4.173.375 6.24.785 1.531.304 9.183 2.508 9.183 2.508l-12.842-.47c-.963 0-2.132-.146-3.068-.378-.289-.071-.612-.088-1.067-.111l-.03-.001c-.423-.022-.98-.051-1.518-.216-3.142-.967-7.593-.506-10.708.137-4.4.908-29.813 3.166-29.813 3.166l29.404-5.629c4.24-.876 8.488-.177 12.738.039z"/><path d="M174.997 184.429l-20.351 3.068c17.4-7.725 34.501-4.868 34.501-4.868l-14.15 1.8zm28.159-3.718c3.371 1.839 5.484 5.245 5.879 6.293l.065.172c.24.637-.029 1.372-.601 1.639s-1.231-.032-1.471-.669l-.058-.153c-.394-1.048-1.286-2.937-3.814-7.282z" class="C"/><path d="M213.514 179.067c-1.439 2.953-2.055 6.391-3.49 9.211-.306.601-.991.813-1.531.471s-.729-1.105-.423-1.707c1.491-2.931 3.454-5.395 5.444-7.975zm170.987.555c-2.474 0-4.86.939-7.303.939-3.59 0-7.101.306-10.719.104 6.805-1.982 7.068-1.552 10.719-2.609 2.435 0 4.832-.939 7.303-.939h4.143c2.378 0 4.716.626 7.092.626 3.643 0 2.669 1.057 9.789 1.057 1.457.722 5.362.998 7.618 2.076 1.413.997 1.957.664 6.901 4.094-2.627-.455-6.901-3.602-10.684-2.178 0-1.174-1.208-1.237-3.835-1.424-3.248-.232-6.535-1.746-9.789-1.746h-7.092-4.143z" class="C"/><path d="M382.834 173.242c1.571 2.622 2.115 2.788 3.133 3.824-.277.618-1.323 1.232-1.878.923-.193-.796-1.141-1.978-1.255-4.747zm20.688 1.46c-1.571 2.623-2.115 2.789-3.133 3.824.277.619 1.323 1.233 1.878.924.194-.796 1.141-1.978 1.255-4.748z" class="C"/><path d="M404.725 175.982c-1.545 1.194-2.405 2.877-2.405 3.522.277.619 1.288.682 1.843.372-.105-1.311-.105-2.466.562-3.894zm-19.521 1.506c.669.419 1.512.82 2.054 0 .778-1.178.219-1.819.684-3.679-.965.783-.948 2.907-2.738 3.679zm-182.118-3.412h11.832s-.772-9.473-11.13-11.716c-.274-.06-.503.359-1.068 0s-.751-.725-1.144-.77c-8.435 0-12.991 13.367-12.991 13.367s6.066-.881 14.501-.881zm9.655-1.546c-4.157-5.887-7.408-8.611-9.655-8.611 2.142.352 4.108 4.618 5.161 6.849-1.159-3.875 4.494 1.762 4.494 1.762z" class="C"/><path d="M267.654 182.159s4.342 3.131 8.216 3.131 6.671 2.192 1.755-3.131c-1.644-1.781-1.755-3.523-4.494-5.089-3.862 1.018-5.477 5.089-5.477 5.089zm55.412-48.28l2.749.43 2.322-.327-2.322-.413-2.749.31z"/><path d="M271.156 182.36c-18.06-5.791-37.174-8.186-54.761-8.648-9.98-.263-18.981-.309-27.459.404-4.275.359-8.564 1.045-12.418 1.662l-3.369.53c-3.071.466-28.399 4.767-49.073 8.433l1.113.62c3.902-.643 8.984-.889 13.117-1.58 22.769-3.811 47.245-7.908 53.58-7.181 34.132-2.286 54.097 1.462 69.851 6.028.317.24-2.977.162-7.551.054-8.853-.209-22.502-.531-24.03 1.12 15.168.165 30.546 1.855 38.996 2.785l3.207.348c-1.567-2.732 1.21-1.835 4.678-.713 3.03.98 6.589 2.131 8.242 1.182-3.691-1.789-6.511-2.657-9.802-3.671l-4.321-1.373zm194.878 11.796l-3.557 2.169-6.71 3.787-2.399 1.444c-5.968 3.691-13 6.099-19.4 8.665-.863.346-1.771.708-2.54 1.279-.653.485-1.122 1.14-1.885 1.465-.689.294-1.44.449-2.045.581-.649.141-1.49.227-2.025.703-4.581 4.08-11.233 4.816-16.397 7.966-.599.365-4.398 2.062-4.398 2.062l8.442-5.852c5.039-3.073 7.104-2.119 11.566-6.093.888-.79 1.883-1.875 2.969-2.111.665-.144.588.35 1.003.173.86-.367 2.292-1.031 3.142-1.501a19.63 19.63 0 0 1 2.168-1.006c2.28-.914 3.835-1.506 6.075-2.543 2.175-1.007 3.925-2.585 6.206-3.335 3.099-1.019 3.215-.981 6.549-2.514 2.845-1.308 4.113-1.414 7.7-3.996 2.505-.895 5.536-1.343 5.536-1.343zm59.933-11.36c-7.194-.178-12.215-.584-20.967.896-9.699 2.841-18.705 3.514-28.297 6.678l-5.072 1.721s.464-3.03 5.505-4.888c6.805-2.508 7.036-.76 12.114-1.969 5.09-1.212 11.853-2.127 15.157-3.837 2.356-.183 17.818-.287 21.56-1.422 3.638.09 6.765 4.213 10.398 4.433 4.751.287 6.086 1.273 10.793 1.273.683 0 15.342 3.793 15.342 3.793l-12-1.67c-4.791 0-7.945-1.802-12.682-2.088-3.635-.22-8.255-2.831-11.851-2.92zM486 206.683c-4.497 1.709-9.325 1.985-13.681 4.14-7.924 2.199-17.825 8.178-24.438 11.287-.451.212-2.335 1.268-2.781 1.479-3.565 1.687-6.664 1.871-9.868 4.201-.572.416-2.505.861-2.505.861l2.66-1.859c3.403-2.475 4.777-2.785 8.35-4.475.453-.215 2.95-1.165 3.401-1.377 6.275-2.951 11.195-6.335 19.762-10.117 4.051 0 4.731-1.416 9.401-3.034 4.451-2.201 5.277-1.427 9.865-3.167.683-.258 1.321-.172 2.01-.378 5.72-1.712 11.189-2.351 16.947-4.131 2.784-1.343 4.423-1.756 6.557-1.756 3.119 0 6.573.415 9.741 0 3.138-.41 5.517-2.031 8.814-2.031l12.123 1.274c2.287 0 2.313-.962 4.422-.689 2.133.277 4.175 1.377 4.175 1.377s-.554.276-1.237.276c-2.238 0-.072.271-2.165 0-2.131-.277-1.309.206-3.433.206-19.51.823-39.465.824-58.12 7.913z" class="C"/><path d="M486 199.769l.166 4.853c.683-.258 1.321-.172 2.01-.378-.079-1.558-1.775-3.926-2.176-4.475z"/><path d="M576.667 197.092c3.045.171 2.697-1.311 6.537 1.268 0 0 3.984 1.134 7.646 3.079 3.676 1.952 7.033 4.715 7.823 4.892 1.577.352 1.771 1.227 2.876 2.065-5.081-2.069-8.145-4.441-11.223-5.889-4.452-2.094-8.363-3.09-13.659-5.415zM547 198.827c3.015-.499 2.412-1.876 6.633-.189 0 0 4.106.238 8.041 1.342 3.95 1.108 7.73 3.081 8.535 3.081 1.608 0 1.954.815 3.186 1.394-5.348-.915-8.771-2.568-12.046-3.313-4.735-1.077-8.746-1.196-14.349-2.315zm-30.846-6.55l-.732 5.872-.696.757c-.234.715-.278 1.194-1.253 1.194-.757 0-.77-1.205-.68-1.417l.495-.981c.233-.715.448-2.427 2.866-5.425zm25.669-1.286c0 2.822.996 4.773 1.328 5.438l.666 1.391c.331.665 1.085.904 1.682.535s1.014-.315.682-.98c0 0-.31-1.443-.682-2.289-.894-2.03-1.682-1.79-3.676-4.095zM344.267 203.54c-.262.7.359 2.699.359 2.699s.897.168 1.152-.517c.337-.906.68-2.753.68-2.753s.42-2.582 1.255-4.199c-2.443 2.065-3.087 2.863-3.446 4.77z" class="C"/><path d="M344.617 206.361s.405-.201.405-1.154c0-2.358-1.02-1.962-3.834-5.748 1.979 5.198 3.429 6.902 3.429 6.902zm213.111 55.2l-.557-4.337-.619-4.751-.927-5.163c-.557 3.717-6.49 7.369-11.628 7.779-36.704 2.929-60.55-4.165-81.742-10.47-9.199-2.737-17.898-5.325-26.93-6.879-.662-.114-1.267-.526-1.871-.936-.598-.406-1.194-.812-1.84-.923-.924-.16-2.077-.175-3.225-.189-1.141-.015-2.276-.029-3.175-.186l-71.901-13.257c-4.847-.949-9.423-2.087-13.858-3.189-4.098-1.02-8.077-2.009-12.04-2.792l-58.234-11.147c1.193-2.021-4.274-1.666-7.156-1.235-2.8-2.707-15.586-3.338-21.629-3.314-54.564-7.368-94.624-4.083-201.264 11.381l-.697 2.879c107.4-15.59 147.257-18.873 201.663-11.527 11.762 1.589 24.203 3.674 38.151 6.241l2.943 1.8h6.684l39.072 7.627h.003l.002.001 26.36 5.19 27.647 5.481 43.28 8.538c10.048 1.943 19.893 4.428 30.31 7.058 26.464 6.681 56.622 14.295 103.178 16.32z" class="C"/><path d="M12.968 215.789L-16 221.383c8.777-1.297 46.44-5.39 54.435-6.551l.697-2.879-26.165 3.836zm459.529-36.158c-8.695 3.287-19.938 7.849-28.933 11.894l-17.065 5.195 16.15-7.168c6.367-2.863 10.043-4.858 15.564-7.213 1.409-.612 1.107-1.419.78-1.746-1.404-.363-3.143-.68-5.051-.962-1.052.151-3.31.261-3.928-.513-6.458-.756-13.522-1.235-16.112-1.759l-3.835-1.309c2.487.504 7.338.855 14.662 1.187 1.505-.648 5.405-1.484 8.967.362l15.754.548c4.15-1.565 8.24-2.998 12.337-4.25 1.497-1.531 5.953-4.282 11.796-3.044l2.294-1.756 3.747.683a103.12 103.12 0 0 1 4.445-.561l3.807-1.637 3.647 1.141c9.289-.271 74.118 8.472 130.313 51.512a5.36 5.36 0 0 0 .269.119c1.635.669 3.463.551 0 0l-.785-.119c-47.43-29.64-85.065-45.336-135.073-48.779-13.404-.923-29.027 6.39-33.75 8.175zm-44.161 20.034c-23.757 11.694-34.822 16.662-67.449 19.553-.804 0 5.104-1.321 5.536-1.652 21.279-2.476 44.057-8.813 46.512-13.219 1.461-2.622 8.721-3.305 15.401-4.682z"/><path d="M122.588 184.068c-2.66-1.351-5.347-2.717-8.269-2.717-1.239 0-1.855.413-2.507.851-.42.281-.854.572-1.479.771-.552.175-1.161.42-1.805.679-2.284.918-5.022 2.019-7.322.881-3.875-1.917-6.78-2.08-11.133-2.08-.16 0-.324-.002-.49-.003-1.853-.015-3.981-.032-5.201 1.777-.258.384-.728.981-1.303 1.712-2.322 2.952-6.362 8.088-5.13 10.146l47.254-10.741c-.874-.391-1.743-.833-2.616-1.276zm-33.257-.445c2.577-.161 8.214-.041 10.144 1.721-1.959-.183-6.729-.785-10.144-1.721z" class="C"/><path d="M462.415 170.335c.712.93.557 2.272 1.423 7.78-.908.369-2.474 0-2.474 0s-.275-5.005 1.051-7.78z"/><path d="M466.838 173.606c.183 0 .343-.332.483-.876 1.25-4.857-3.097-9.519-7.387-7.87-1.552.596-2.253 2.393-2.373 4.215l-.126 1.907c-.092 1.389.608 2.692 1.75 3.26l2.736 1.36c1.484 0 3.432-1.996 4.917-1.996z"/><path d="M41.739 209.831c21.712-10.64 54.128-26.525 107.03-22.834-28.547.339-57.942 8.179-81.265 16.041-1.023.345-.879 1.882.188 1.954 6.14.413 15.221.334 26.526-.714l-55.094 7.659.269-.958 2.346-1.148z" class="C"/></g><defs ><path id="C" d="M203.384 28.415l14.176.097c5.443.46 11.179-.384 16.671-.097s11.02.095 16.542-.049l17.683-.181c-5.2-.451-12.216-1.303-17.678-1.464l-22.128-.49c-3.371.316-7.888 1.418-13.39 1.292-5.509-.186-6.379.538-11.876.892z"/></defs></svg>