<svg xmlns="http://www.w3.org/2000/svg" xmlns:xlink="http://www.w3.org/1999/xlink" width="712" height="182" fill="none" xmlns:v="https://vecta.io/nano"><style><![CDATA[.B{fill:#c0edc3}.C{fill-rule:evenodd}]]></style><mask id="A" maskUnits="userSpaceOnUse" x="0" y="0" width="712" height="182" mask-type="alpha"><path d="M0 0H712V182H0V0Z" fill="#e7f9e3"/></mask><g mask="url(#A)" class="B"><path d="M229.635 54.295c1.729-.236 9.351-.401 11.106-.495a187.56 187.56 0 0 1 5.141-.242l5.141-.11a69.17 69.17 0 0 1 5.269.114 25.66 25.66 0 0 1-5.042 1.316c-1.728.284-3.6-.057-5.368 0s-4.717.162-6.475 0c-1.774-.154-5.876.235-7.546-.235l-2.226-.348zm3.674 56.523c1.729-.237 9.351-.402 11.106-.495a185.8 185.8 0 0 1 5.141-.242l5.141-.11c1.758-.029 3.517.009 5.269.114a25.66 25.66 0 0 1-5.042 1.315c-1.728.285-3.6-.057-5.368 0s-4.718.163-6.475 0c-1.774-.153-5.876.236-7.546-.234l-2.226-.348zm-122.491 37.248c1.73-.236 9.352-.401 11.106-.495 1.722-.106 2.769-.653 4.481-.712s4.08.376 5.801.361c1.758-.029 4.342.11 5.579.846-2.226.347-3.828.074-5.579.347-1.728.284-3.372.178-5.141.235s-4.717.162-6.474 0c-1.774-.154-5.876.234-7.546-.235l-2.227-.347zm361.187-97.224l3.982-.459 7.793-.274 9.613-.114 5.27.114c-1.597.599-3.519.785-5.27 1.058-1.728.284-3.6-.057-5.369 0s-5.312.633-7.069.47c-1.774-.154-5.281-.235-6.951-.705l-1.999-.091zM332.716 84.077l3.982-.459 7.793-.274 9.613-.114 5.27.114c-1.597.599-3.519.785-5.27 1.058-1.728.284-3.6-.057-5.369 0s-5.312.633-7.069.47c-1.774-.153-5.281-.235-6.951-.705l-1.999-.091zm-4.7-50.477l3.982.459 7.793.274 9.613.114 5.269-.114c-1.596-.599-3.518-.785-5.269-1.058-1.728-.284-3.601.057-5.369 0s-5.312-.633-7.069-.47c-1.774.153-5.282.235-6.951.705l-1.999.091zM157.467 89.026l3.982.459 7.793.274 9.613.114 5.27-.114c-1.597-.599-3.519-.784-5.27-1.058-1.728-.284-3.6.057-5.369 0s-5.312-.633-7.069-.47c-1.774.153-5.281.235-6.951.705l-1.999.091zm56.21-68.877c1.729-.236 9.351-.402 11.106-.495l5.141-.242 5.141-.11a69.17 69.17 0 0 1 5.269.114 25.66 25.66 0 0 1-5.042 1.316c-1.728.284-3.6-.057-5.368 0s-4.717.162-6.475 0c-1.774-.154-5.876.235-7.546-.235l-2.226-.348zm-8.845 27.509l6.828-.472 6.789-.091 6.789.216a65.02 65.02 0 0 1 6.808.714c-2.242.36-4.515.605-6.803.732l-6.824.176-6.823-.304a52.79 52.79 0 0 1-6.764-.97h0zm285.17-12.593c4.824-.725 4.736-.866 9.587-.297 2.261.274 9.596-.08 11.844 0 .415.003 2.897.653 3.309.614-.67.437-6.429.423-7.303.561a19.13 19.13 0 0 1-2.578.264l-2.439.091a63.38 63.38 0 0 1-2.504.033 48.53 48.53 0 0 1-4.998-.307 29.3 29.3 0 0 1-4.918-.959zm78.179 60.986c4.824-.725 4.735-.866 9.587-.297 2.26.274 9.595-.08 11.844 0 .415.003 2.897.653 3.309.614-.671.437-6.43.422-7.303.561a19.15 19.15 0 0 1-2.578.264l-2.44.091c-.836.029-1.667.037-2.503.033a48.51 48.51 0 0 1-4.998-.308 29.27 29.27 0 0 1-4.918-.959zM235.645 27.922c1.077-.368 2.369-.244 3.538-.396l4.075-.389c1.147-.026 1.704-.106 2.842 0l5.791.667c-1.109.305-4.827.319-5.999.436l-3.432.216c-1.144.024-2.29-.001-3.431-.073a23.67 23.67 0 0 1-3.384-.461zm-68.409 21.526c1.078-.368 2.37-.243 3.539-.396l4.075-.389c1.146-.026 1.704-.106 2.842 0l5.791.667c-1.109.305-4.827.319-5.999.436l-3.432.216c-1.145.024-2.29-.001-3.431-.073a23.69 23.69 0 0 1-3.385-.461zm43.225-20.636c.849-.465 3.246-.721 4.24-.985.961-.261 3.87-.22 4.883-.33s2.879-.195 3.897-.128c1.068.061 3.154 0 6.061.71-1.917.275-5.057.08-6.061.275-.946.196-2.925.352-3.897.458-.983.108-3.583.003-4.577 0h-4.546zm-13.175 9.859l7.674-.853 7.692-.447 7.77-.044a67.29 67.29 0 0 1 7.79.611l-7.68.827-7.686.432-7.732.055c-2.636-.048-5.258-.243-7.828-.582zm43.614 9.043c2.219-.498 1.65-.576 3.95-.792 2.28-.225 5.927-.234 8.226-.282l8.372-.303c2.311.103 10.581-.062 12.843.301-2.261.352-4.315.934-6.618 1.074-2.28.152-10.76.31-13.037.359a175.41 175.41 0 0 1-6.84.014c-2.306-.036-4.608-.16-6.896-.372zm58.938 62.732c-2.218-.498-1.65-.575-3.95-.792-2.28-.225-5.926-.234-8.226-.282l-8.372-.302c-2.311.103-10.581-.062-12.843.301 2.261.352 4.316.934 6.618 1.074 2.28.152 10.76.31 13.038.36a175.21 175.21 0 0 0 6.84.014c2.305-.036 4.607-.16 6.895-.373zm150.28-65.141c2.218-.498 1.65-.576 3.95-.792 2.28-.225 5.926-.234 8.226-.282l8.372-.303c2.311.104 10.581-.062 12.843.302-2.261.352-4.316.934-6.618 1.074-2.28.152-10.76.31-13.038.359a175.21 175.21 0 0 1-6.84.014c-2.305-.036-4.607-.16-6.895-.372zm-213.511-7.221c2.219-.498 1.65-.576 3.95-.792 2.28-.225 5.927-.234 8.226-.282l8.372-.303c2.311.103 10.581-.062 12.843.301-2.26.352-4.315.934-6.618 1.074-2.28.152-10.76.31-13.037.359a175.41 175.41 0 0 1-6.84.014c-2.306-.036-4.608-.16-6.896-.372zM376.701 1.87c2.218-.498 1.65-.576 3.95-.792 2.28-.225 5.927-.234 8.226-.282l8.372-.302c2.311.103 10.581-.062 12.843.302-2.261.352-4.316.934-6.618 1.074-2.28.152-10.76.31-13.038.359a175.21 175.21 0 0 1-6.84.014 89.85 89.85 0 0 1-6.895-.372zM210.96 62.39l8.302-.793c2.766-.169 5.6.262 8.371.211l8.254-.521 8.349.521-8.289.922c-2.765.196-5.536-.05-8.314 0l-8.335.305-8.338-.645zm5.282 55.801l8.303-.793c2.765-.169 5.599.262 8.37.211l8.254-.521 8.349.521-8.289.922c-2.764.195-5.536-.051-8.314 0l-8.335.305-8.338-.645zm-83.585-14.794l8.302-.792c2.765-.169 5.599.262 8.37.211l8.254-.521 8.349.52-8.289.922c-2.764.196-5.536-.05-8.314 0l-8.335.305-8.337-.645zm118.069-35.556l9.896-.879 9.896-.549 4.948-.143 5.022.102 4.914.19c1.643.047 4.599 0 6.671.413-1.948.481-4.911.306-6.587.481l-5.003.366-4.898.194-4.948.234-9.941.157-9.97-.567zm314.821 43.705l9.896-.878 9.896-.55 4.948-.142 5.022.102 4.914.191c1.644.047 4.599 0 6.671.412-1.948.481-4.91.306-6.587.481l-5.003.366-4.898.194-4.948.234-9.941.158-9.97-.568zM427.867 9.209l9.896-.879c3.306-.245 11.628 0 11.628 0l5.907-.3c1.643-.026 3.38.029 5.022.103l4.914.19c1.644.047 4.599 0 6.671.413-1.948.48-4.91.306-6.587.48a62.35 62.35 0 0 1-5.003.366l-4.898.194c-1.603.099-5.991-.223-7.639-.157-3.305.128-6.62.194-9.94.157a101.92 101.92 0 0 1-9.971-.567zm-208.89 59.012c1.348-.463 2.741-1.129 4.181-1.129l6.91.273c1.458-.164 6.442-.298 7.917-.273 2.105.035 5.551.516 6.989.869-1.396.355-6.525.026-7.967.26-1.405.235-4.643-.15-6.073 0-1.439.16-6.03.26-7.484.29-1.502.044-3.005-.054-4.473-.29zm316.181 44.134c1.348-.464 2.741-1.129 4.181-1.129l6.91.273c1.459-.164 6.442-.298 7.917-.273 2.105.035 5.552.516 6.989.868-1.396.355-6.524.027-7.966.261-1.405.234-4.644-.151-6.074 0-1.439.16-6.029.259-7.484.289-1.501.044-3.004-.053-4.473-.289zm-362.199-8.798c1.348-.463 2.741-1.129 4.181-1.129l6.91.273c1.459-.163 6.442-.297 7.917-.273 2.105.035 5.552.517 6.989.869-1.396.355-6.525.026-7.966.26-1.406.235-4.644-.15-6.074 0-1.439.161-6.029.26-7.484.29-1.502.043-3.004-.054-4.473-.29zm-20.576 43.957c1.348-.463 2.741-1.129 4.181-1.129l6.91.273c1.459-.164 6.442-.298 7.917-.273 2.105.035 5.552.516 6.989.869-1.396.354-6.525.026-7.966.26-1.406.234-4.644-.151-6.074 0-1.439.16-6.03.259-7.484.289-1.502.044-3.005-.053-4.473-.289zm34.183-23.001c1.349-.463 2.742-1.129 4.182-1.129l6.91.273c1.458-.164 6.441-.298 7.916-.273 2.106.035 5.552.516 6.99.869-1.397.354-6.525.026-7.967.26-1.405.234-4.644-.15-6.074 0-1.439.16-6.029.259-7.484.289-1.501.044-3.004-.053-4.473-.289zM422.467 1.259C423.815.796 425.208.13 426.648.13l6.91.273C435.017.24 440 .106 441.475.13c2.105.035 5.552.516 6.989.869-1.396.355-6.525.026-7.966.26-1.406.235-4.644-.15-6.074 0-1.439.16-6.03.259-7.484.29a23.87 23.87 0 0 1-4.473-.29zM528.48 43.962c1.349-.463 2.742-1.129 4.182-1.129l6.91.273c1.458-.164 6.441-.298 7.916-.273 2.106.035 5.552.517 6.99.869-1.397.355-6.525.026-7.967.26-1.405.235-4.644-.15-6.074 0-1.439.16-6.029.259-7.483.29a23.85 23.85 0 0 1-4.474-.29zM221.47 75.768c1.834-.454 2.1-.904 4.02-1.08 1.902-.186 5.937.017 7.855 0 1.906-.022 4.287-.475 6.185-.343 1.923.126 4.689.835 6.556 1.196-1.866.359-6.985.254-8.906.383l-6.216.183h-5.721l-3.773-.339zm6.272 57.197c1.835-.454 2.101-.904 4.021-1.08 1.901-.186 5.936.016 7.855 0 1.906-.022 4.287-.475 6.185-.343 1.922.125 4.688.834 6.556 1.196-1.867.359-6.986.254-8.907.382l-6.216.183h-5.721l-3.773-.338zM395.271 9.756c1.835.454 2.101.904 4.021 1.08 1.901.186 5.937-.017 7.855 0 1.906.022 4.287.475 6.185.343 1.923-.126 4.689-.835 6.556-1.196-1.866-.359-6.986-.254-8.906-.383l-6.216-.183c-1.891-.022-3.827-.092-5.722 0l-3.773.339zm-157.04-.526c1.835-.348 2.101-.693 4.021-.828 1.901-.142 5.937.013 7.855 0 1.906-.017 14.535 0 17.627-.526 1.923.097 5.06.903 6.928 1.18-1.867.275-6.986.195-8.907.293-1.895.104-16.139.123-18.029.14s-3.827.07-5.722 0c-1.927-.062-1.874-.06-3.773-.26zm234.663 95.212c1.834-.348 2.1-.692 4.02-.827 1.902-.143 5.937.012 7.855 0 1.906-.017 14.535 0 17.627-.527 1.923.097 5.06.903 6.928 1.18-1.867.276-6.986.195-8.907.294-1.895.103-16.139.123-18.029.14s-3.826.07-5.722 0c-1.927-.062-1.874-.06-3.772-.26zM250.849 75.461l16.402-1.202 16.423-1.015c5.493-.249 11.015-.366 16.537-.242a124.02 124.02 0 0 1 16.447 1.359c-5.512-.095-10.98-.07-16.442.07l-16.388.641-16.458.608a194.15 194.15 0 0 1-16.521-.22zm-170.585 36.79l16.403-1.202 16.423-1.015c5.493-.249 11.015-.366 16.537-.242 5.526.089 11.03.544 16.447 1.36-5.512-.095-10.98-.07-16.442.069l-16.388.642-16.458.608a194.08 194.08 0 0 1-16.522-.22zm142.334-30.41c2.361-.452 2.695-.419 5.119-.612l8.69-.37c2.411-.04 7.787-.104 10.206-.001 2.431.099 5.682.842 8.071 1.192-2.381.366-7.978-.145-10.402 0-2.402.159-5.685-.041-8.091 0s-6.062.206-8.474.14c-2.429-.055-2.714-.094-5.119-.35zm-66.922 51.219c2.36-.452 2.694-.419 5.118-.612l8.69-.37c2.411-.04 7.787-.104 10.206 0 2.432.099 5.682.842 8.071 1.191-2.381.366-7.978-.145-10.402 0-2.401.16-5.685-.04-8.091.001s-6.062.206-8.474.14c-2.429-.056-2.713-.094-5.118-.35zm-5.256-.281c-2.36-.452-2.694-.419-5.119-.612l-8.69-.37c-2.41-.039-7.786-.104-10.205 0-2.432.099-5.683.842-8.072 1.191 2.382.366 7.979-.145 10.403.001 2.401.159 5.685-.041 8.091 0s6.061.206 8.474.14c2.428-.055 2.713-.094 5.118-.35zm.184-22.56c2.361-.452 2.695-.419 5.119-.611l8.69-.37c2.411-.04 7.787-.104 10.206-.001 2.431.099 5.682.843 8.071 1.192-2.381.365-7.978-.145-10.403 0-2.401.159-5.685-.041-8.09.001s-6.062.205-8.474.139c-2.429-.055-2.714-.093-5.119-.35zm339.314-66.094c2.36-.452 2.694-.419 5.118-.612l8.691-.37c2.41-.04 7.786-.104 10.205-.001 2.432.099 5.683.842 8.072 1.191-2.382.366-7.979-.145-10.403 0-2.401.159-5.685-.041-8.091 0s-6.062.206-8.474.14c-2.428-.055-2.713-.094-5.118-.35zM292.923 42.86c2.361-.452 2.695-.419 5.119-.612 2.408-.199 12.403-.541 14.814-.581s11.25.246 13.669.35c2.431.099 5.682.842 8.071 1.191-2.381.366-7.978-.145-10.402.001-2.402.159-9.149-.391-11.555-.35l-14.597.351c-2.429-.056-2.714-.094-5.119-.35zM144.914 56.148c2.36-.452 2.694-.419 5.118-.612 2.408-.199 12.403-.541 14.814-.581s11.25.246 13.669.35c2.431.099 5.682.842 8.071 1.191-2.381.366-7.978-.145-10.402 0-2.401.159-9.149-.391-11.555-.35l-14.597.351c-2.428-.056-2.713-.094-5.118-.35zm6.989 19.614c2.361-.452 2.695-.419 5.119-.612 2.408-.199 7.95-.541 10.36-.581s11.251.246 13.669.35c2.432.099 5.683.842 8.072 1.191-2.382.366-7.978-.145-10.403.001-2.401.159-9.148-.391-11.554-.35s-7.732.417-10.144.351c-2.429-.056-2.714-.094-5.119-.35zm326.944-18.056c2.36-.452 2.694-.419 5.118-.611 2.408-.199 12.218-.191 14.628-.23s11.776.126 14.195.23c2.432.099 7.136-.349 9.525 0-2.382.365-9.432 1.046-11.856 1.191-2.401.159-9.674-.271-12.08-.23s-12 .066-14.412 0c-2.428-.055-2.713-.094-5.118-.35zm100.638 6.211c-2.361-.452-2.695-.419-5.119-.612-2.408-.199-12.403-.541-14.813-.581s-11.25.246-13.669.35c-2.432.099-5.683.842-8.072 1.191 2.382.366 7.979-.145 10.403.001 2.401.159 9.148-.391 11.554-.35l14.597.351c2.429-.055 2.714-.094 5.119-.35zm-95.201 6.408c2.36-.452 2.694-.419 5.118-.612 2.408-.199 12.403-.541 14.814-.581s11.25.246 13.669.35c2.432.099 5.682.842 8.071 1.191-2.381.366-7.978-.145-10.402.001-2.401.159-9.149-.391-11.555-.35l-14.597.351c-2.428-.055-2.713-.094-5.118-.35zM260.127 81.816c1.314-.45 3.123-.706 4.484-.706h4.847a40.8 40.8 0 0 1 4.25-.198 22.85 22.85 0 0 1 4.325.396c-1.32.436-2.275.257-3.68.508-1.369.255-3.496.14-4.895.275-1.406.14-3.831.001-5.249 0-1.458.009-2.562-.275-4.082-.275zm-76.571 58.779c1.313-.45 3.123-.706 4.484-.706h4.846c1.409-.14 2.83-.206 4.251-.198 1.458-.005 2.912.128 4.324.396-1.32.436-2.274.257-3.68.508-1.368.256-3.495.14-4.895.275s-3.83.001-5.248 0c-1.458.009-2.562-.275-4.082-.275zm25.729 7.82c-1.103-.373-2.622-.586-3.765-.586-1.532 0-2.48-.029-4.069 0l-5.853.257c-1.225-.004-2.445.107-3.631.329 1.108.362 1.91.213 3.09.422 1.149.211 5.219.414 5.219.414l5.582-.608c1.224.007 2.151-.228 3.427-.228zm130.754-105.44c1.314-.45 3.124-.706 4.484-.706h4.847a40.8 40.8 0 0 1 4.25-.198 22.86 22.86 0 0 1 4.325.396c-1.32.436-2.275.257-3.68.508-1.369.255-3.495.14-4.895.275-1.406.14-3.831.001-5.249 0-1.457.009-2.562-.275-4.082-.275zm143.881 84.117c1.314-.45 3.123-.706 4.484-.706h4.847c1.408-.14 2.829-.206 4.25-.198 1.458-.005 2.912.128 4.325.395-1.321.437-2.275.258-3.68.509-1.369.255-3.496.139-4.895.275-1.406.139-3.831 0-5.249 0-1.458.008-2.562-.275-4.082-.275zM163.146 62.33c1.313-.45 3.123-.706 4.484-.706h4.846c1.409-.14 2.829-.206 4.251-.198 1.458-.005 2.911.128 4.324.396-1.32.436-2.274.257-3.68.508-1.369.255-3.495.14-4.895.275s-3.83.001-5.248 0c-1.458.009-2.562-.275-4.082-.275zm9.43 6.486c1.314-.45 3.124-.706 4.484-.706h4.847a40.8 40.8 0 0 1 4.25-.198 22.86 22.86 0 0 1 4.325.396c-1.32.436-2.275.257-3.68.508-1.369.255-3.495.14-4.895.275-1.406.139-3.83.001-5.249 0-1.457.009-2.562-.275-4.082-.275zM532.37 64.03c-1.313-.45-3.123-.706-4.484-.706h-4.847c-1.408-.14-2.829-.206-4.25-.198a22.87 22.87 0 0 0-4.325.396c1.321.436 2.275.257 3.68.508 1.369.255 3.496.14 4.895.275 1.406.14 3.831.001 5.249 0 1.458.009 2.562-.275 4.082-.275zm-.971 6.41c1.314-.45 3.124-.706 4.485-.706h4.846c1.409-.14 2.829-.206 4.251-.198 1.458-.005 2.911.128 4.324.396-1.32.436-2.275.257-3.68.508-1.369.255-3.495.14-4.895.275s-3.83.001-5.248 0c-1.458.009-2.562-.275-4.083-.275zm-19.044 12.998c1.314-.45 3.124-.706 4.485-.706h4.846c1.409-.14 2.829-.206 4.251-.198a22.85 22.85 0 0 1 4.324.396c-1.32.436-2.275.257-3.68.508-1.369.255-3.495.14-4.895.275s-3.83.001-5.248 0c-1.458.009-2.562-.275-4.083-.275zm-247.156 3.719c1.905-.358 2.438-.207 4.392-.367 1.923-.169 5.336.046 7.276 0l6.455-.411c1.969.086 3.219.055 5.133.411-1.903.357-3.838.617-5.789.777l-5.799.323a79.28 79.28 0 0 1-5.829-.073c-1.97-.086-3.924-.307-5.839-.66zm-28.139.531c1.21-.348 3.006-.34 4.295-.458l3.958-.206c1.228-.028 4.866.168 6.092.206h6.216c-1.082.563-7.864.514-9.154.733-1.25.23-2.644-.019-3.932 0-1.269.024-2.459-.135-3.714-.275-1.283-.136-2.555.353-3.761 0zm-20.839 55.021c1.21-.348 3.006-.34 4.295-.458l3.958-.206c1.228-.028 4.866.168 6.092.206h6.217c-1.083.562-7.865.514-9.155.733-1.249.23-2.644-.019-3.932 0-1.269.024-2.458-.135-3.713-.275-1.284-.136-2.556.352-3.762 0z"/><path d="M247.139 124.941l6.195-.276 6.115-.185 6.166-.092 6.264.155-6.081.622-6.195.304a103.33 103.33 0 0 1-6.274-.025l-6.19-.503h0zm-57.893-14.184c1.979-.565 4.698-1.227 6.742-1.305h6.803l7.546-.48c2.095-.014 3.306.203 5.381.32l-6.081.621-6.195.304-6.712.173c-2.106-.066-5.134.023-7.484.367zm-59.625 29.892l6.989-.714c2.044-.077 19.758-.002 21.802-.051s6.251.004 8.32 0c2.094-.014 3.305.203 5.38.319-1.985.269-4.018.477-6.081.623-2.048.151-5.541.247-7.619.298-2.09.055-18.973-.178-21.06-.25-2.106-.067-5.504.253-7.731-.225zm156.885-16.162c1.946-.441 3.107-1.025 5.117-1.264 1.99-.248 3.513.132 5.538 0 2.013-.134 5.334.016 7.36 0l7.211.244c-1.957.44-5.192.433-7.211.672-1.991.249-3.867.212-5.872.341l-6.022.227c-2.045.028-4.09-.045-6.121-.22zm-5.864 6.674l3.689-.617c1.125-.112 1.507.175 2.647.142h2.781c1.18.06 2.534.069 3.645.308a28.97 28.97 0 0 1-3.392.526l-3.401.219c-1.148.032-2.299.015-3.443-.05-1.18-.06-1.415-.292-2.526-.528zm-162.544-13.537l3.689-.616c1.125-.113 1.507.174 2.647.141h2.781c1.18.06 2.534.07 3.645.308a28.97 28.97 0 0 1-3.392.527l-3.401.218c-1.148.032-2.299.016-3.443-.049-1.18-.06-1.414-.292-2.526-.529zm447.923-35.153l3.69-.617c1.125-.112 1.507.175 2.647.141h2.78c1.18.06 2.535.07 3.646.308a29.25 29.25 0 0 1-3.392.527l-3.401.219a40.94 40.94 0 0 1-3.444-.05c-1.179-.06-1.414-.292-2.526-.529zm-281.682-1.309c.931-.295 1.907-.504 2.907-.622.941-.118 1.894.012 2.849 0h4.545l5.474.621c-.89.375-3.762.462-4.763.622-.953.158-4.279-.011-5.256 0-.984.01-1.926.337-2.89.193a10.98 10.98 0 0 1-2.866-.814zm-132.998 7.952a15.65 15.65 0 0 0-2.906-.622c-.942-.118-1.894.012-2.849 0h-4.545l-5.474.621c.89.375 3.762.462 4.763.622.953.158 4.279-.011 5.256 0 .983.01 1.926.337 2.89.192 1.012-.147 1.981-.422 2.865-.814zm213.714-46.518c2.137-.256 2.478-.265 4.549-.291l5.969-.355 8.365.687c-2.165.298-6.87.421-7.871.581-.953.158-5.288 0-6.463 0-1.582 0-3.108-.26-4.549-.622zm148.566 84.475c2.136-.256 2.477-.265 4.548-.291l5.969-.355 8.365.687c-2.165.297-6.869.421-7.87.581-.954.157-5.289 0-6.464 0-1.582 0-3.108-.26-4.548-.622zm-156.73-20.666c2.137-.256 2.478-.265 4.549-.291l5.969-.355 8.365.687c-2.165.297-6.87.421-7.871.581-.953.157-5.288 0-6.463 0-1.582 0-3.108-.26-4.549-.622zm55.17-88.127a30.6 30.6 0 0 1 4.549-.291l5.968-.355 8.366.686c-2.165.298-6.87.421-7.871.581-.953.158-5.288 0-6.463 0-1.582 0-3.108-.26-4.549-.622zm-79.169 81.47c2.137-.257 2.478-.266 4.549-.291l5.968-.355 8.366.686c-2.165.298-6.87.421-7.871.581-.953.158-5.288 0-6.463 0-1.582 0-3.108-.26-4.549-.622zm205.203-16.873c2.137-.256 2.478-.265 4.549-.291l5.969-.355 8.365.686c-2.165.298-6.87.421-7.871.581-.953.158-5.288 0-6.463 0-1.582 0-3.108-.26-4.549-.622zM248.623 61.292c1.927-.42 3.393-.388 5.38-.605 2.629.178 3.681-.109 5.66-.211l9.002-.251c2.013.024 4.02.179 5.997.462a55.24 55.24 0 0 1-5.874.979c-1.979.227-6.221-.099-8.201 0l-5.962.103a46.68 46.68 0 0 1-6.002-.477zm8.499 56.522c1.927-.421 3.393-.388 5.38-.605 2.629.178 3.681-.109 5.66-.211l9.002-.251c2.013.024 4.02.178 5.997.462a55.39 55.39 0 0 1-5.874.979c-1.979.227-6.221-.099-8.201 0l-5.962.102a46.68 46.68 0 0 1-6.002-.476zM130.117 96.553c1.927-.42 3.393-.388 5.381-.605 2.628.178 3.68-.109 5.659-.211l9.002-.251c2.013.024 4.02.178 5.997.462a55.24 55.24 0 0 1-5.874.979c-1.979.227-6.221-.099-8.2 0l-5.963.103a46.77 46.77 0 0 1-6.002-.477zm324.1-60.922c1.927-.42 3.393-.388 5.38-.605 2.629.178 3.68-.109 5.66-.211l9.001-.251c2.014.024 4.02.178 5.997.462a55.22 55.22 0 0 1-5.873.979c-1.979.227-6.222-.099-8.201 0l-5.962.103a46.74 46.74 0 0 1-6.002-.476zm90.054 91.34c1.927-.42 3.394-.388 5.381-.604 2.628.178 3.68-.109 5.659-.212l9.002-.25c2.013.024 4.02.178 5.997.462a55.16 55.16 0 0 1-5.873.978c-1.98.228-6.222-.099-8.201 0l-5.962.103c-2.016-.03-4.024-.19-6.003-.477zM385.551 33.68c-1.73-.236-9.352-.401-11.106-.495a189.98 189.98 0 0 0-5.141-.242l-5.141-.11a69.21 69.21 0 0 0-5.27.114 25.66 25.66 0 0 0 5.042 1.316c1.728.284 3.6-.057 5.369 0s4.717.162 6.474 0c1.774-.154 5.876.235 7.546-.235l2.227-.348zM540.003 50.1c-1.73.236-9.352.401-11.106.495-1.722.106-8.534.183-10.246.242l-5.141.11a69.21 69.21 0 0 1-5.27-.114 25.62 25.62 0 0 1 5.042-1.316c1.728-.284 3.6.057 5.369 0s9.822-.162 11.579 0c1.775.153 5.876-.235 7.546.235l2.227.348zM400.714 83.334c-1.73.236-9.352.401-11.106.495-1.722.106-8.534.183-10.246.242l-5.141.11a69.21 69.21 0 0 1-5.27-.114 25.59 25.59 0 0 1 5.042-1.316c1.728-.284 3.6.057 5.369 0s9.822-.162 11.579 0c1.775.153 5.876-.235 7.546.235l2.227.348zm-25.235-58.961c-1.73-.236-9.352-.401-11.106-.495a189.98 189.98 0 0 0-5.141-.242l-5.142-.11a69.18 69.18 0 0 0-5.269.114 25.66 25.66 0 0 0 5.042 1.316c1.728.284 3.6-.057 5.369 0s4.717.162 6.474 0c1.774-.153 5.876.235 7.546-.235l2.227-.348zM520.21 97.284c-1.73-.236-9.352-.401-11.106-.495a189.98 189.98 0 0 0-5.141-.242l-5.141-.11a69.21 69.21 0 0 0-5.27.114 25.62 25.62 0 0 0 5.042 1.316c1.728.284 3.601-.057 5.369 0s4.717.162 6.475 0c1.774-.153 5.876.235 7.545-.235l2.227-.348zm-65.81-6.596c-1.729-.236-9.351-.401-11.106-.495a189.98 189.98 0 0 0-5.141-.242l-5.141-.11a69.17 69.17 0 0 0-5.269.114 25.62 25.62 0 0 0 5.042 1.316c1.728.284 3.6-.057 5.368 0s4.718.162 6.475 0c1.774-.154 5.876.235 7.546-.235l2.226-.348zm58.806-63.232c-1.73-.236-9.352-.401-11.106-.495a187.56 187.56 0 0 0-5.141-.242l-5.141-.11c-1.758-.029-3.517.009-5.27.114a25.65 25.65 0 0 0 5.042 1.316c1.728.284 3.601-.057 5.369 0s4.717.162 6.475 0c1.774-.153 5.876.235 7.545-.235l2.227-.348zm-3.635 36.83c-1.729-.236-9.351-.401-11.106-.495a187.56 187.56 0 0 0-5.141-.242l-5.141-.11a69.17 69.17 0 0 0-5.269.114 25.66 25.66 0 0 0 5.042 1.316c1.728.284 3.6-.057 5.368 0s4.717.162 6.475 0c1.774-.153 5.876.235 7.546-.235l2.226-.348zM281.398 9.171l7.119-.564h6.499H315.7c2.503-.086 9.967-.265 12.211.092a65.9 65.9 0 0 1-6.803.733c-2.273.134-23.816.728-26.092.711s-3.93-.356-6.789-.356c-2.213 0-3.731-.615-6.829-.615zm49.857 42.883c-4.824-.725-4.736-.866-9.587-.297-2.261.274-9.596-.08-11.844 0-.416.003-2.898.653-3.309.614.67.437 6.429.422 7.303.561a19.05 19.05 0 0 0 2.578.264l2.439.091a63.55 63.55 0 0 0 2.504.033 48.51 48.51 0 0 0 4.997-.308c1.683-.182 3.333-.504 4.919-.959zm-10.639 34.653c-4.824-.725-4.735-.866-9.587-.297-2.261.274-9.596-.08-11.844 0-.415.003-2.897.653-3.309.614.67.437 6.429.423 7.303.561a19.13 19.13 0 0 0 2.578.264l2.44.091c.836.029 1.667.037 2.503.033a48.54 48.54 0 0 0 4.998-.308 29.3 29.3 0 0 0 4.918-.959zm-65.808 7.678c-4.825-.725-4.736-.866-9.587-.297-2.261.274-9.596-.08-11.845 0-.415.003-2.897.653-3.309.614.671.437 6.43.422 7.304.561a19.1 19.1 0 0 0 2.578.264l2.439.092a63.33 63.33 0 0 0 2.504.033 48.51 48.51 0 0 0 4.997-.308c1.683-.182 3.333-.504 4.919-.959zm58.597 21.957c-4.824-.725-4.735-.866-9.587-.297-2.261.274-9.596-.08-11.844 0-.415.003-2.897.653-3.309.614.67.437 6.429.422 7.303.561a19.07 19.07 0 0 0 2.578.264l2.44.091c.836.03 1.667.037 2.503.033a48.37 48.37 0 0 0 4.998-.307 29.34 29.34 0 0 0 4.918-.959zm232.597-40.945c4.824-.725 4.736-.866 9.587-.296 2.261.274 9.596-.08 11.844 0 .415.003 2.897.653 3.309.614-.67.437-6.429.422-7.303.561a19.23 19.23 0 0 1-2.578.264l-2.439.092a63.38 63.38 0 0 1-2.504.033 48.53 48.53 0 0 1-4.998-.308 29.29 29.29 0 0 1-4.918-.959z"/><use xlink:href="#C"/><use xlink:href="#C" x="-155.959" y="35.618"/><path d="M369.037 16.835c-1.078-.368-2.37-.243-3.539-.396-1.132-.156-9.243.022-10.394 0s-1.704-.106-2.842 0c-1.173.102-4.684.361-5.791.666 1.109.305 4.827.319 5.999.436 1.137.125 4.409-.019 5.558 0s6.484-.173 7.625-.246a23.71 23.71 0 0 0 3.384-.461zm89.808 1.038c-1.078-.368-2.37-.243-3.539-.396-1.133-.156-9.243.022-10.395 0-1.146-.026-1.704-.106-2.842 0-1.172.102-4.684.361-5.79.666 1.108.305 4.826.319 5.998.436 1.137.125 4.41-.019 5.558 0s6.484-.173 7.625-.246a23.62 23.62 0 0 0 3.385-.461zm-79.169 81.473c-1.078-.368-2.37-.243-3.539-.396-1.133-.156-9.243.022-10.395 0-1.146-.026-1.704-.106-2.842 0-1.172.102-4.684.361-5.79.666 1.108.305 4.826.319 5.998.436 1.137.124 4.41-.019 5.558 0s6.484-.174 7.625-.246 2.279-.227 3.385-.461zm160.6-63.755c-.849-.465-3.246-.721-4.24-.985-.961-.261-3.87-.221-4.883-.33s-2.879-.195-3.896-.128c-1.069.061-3.155 0-6.062.71 1.918.275 5.057.08 6.062.275.946.196 2.924.352 3.896.458.983.108 3.584.003 4.577 0h4.546zM372.2 52.717l-7.673-.853-7.693-.447-7.77-.044a67.01 67.01 0 0 0-7.789.611l7.68.827 7.686.432 7.731.055a69.62 69.62 0 0 0 7.828-.582zm-75.829 41.971l-7.673-.853-7.693-.447-7.77-.044a67.01 67.01 0 0 0-7.789.611l7.679.827 7.687.432 7.731.055a69.62 69.62 0 0 0 7.828-.582zM193.98 96.657l-7.673-.853-7.693-.447-7.77-.044a66.99 66.99 0 0 0-7.789.611l7.68.827 7.686.432 7.731.055a69.69 69.69 0 0 0 7.828-.582zm24.362 36.324l-5.968-.665c-2.004-.159-4.563.094-6.567.032l-6.043-.035a52.05 52.05 0 0 0-6.058.477l5.973.644 5.978.336c2.002.073 4.593-.292 6.597-.336 2.05-.038 4.089-.189 6.088-.453zm320.732 7.854l4.144-.671 4.154-.352 4.196-.034a25.05 25.05 0 0 1 4.207.481l-4.147.651-4.151.34-4.175.043a26.08 26.08 0 0 1-4.228-.458zM507.736 76.17c2.452-.359 5.089-.28 7.599-.473l7.504-.527c2.511-.091 5.774.281 8.288.344l7.236.365-7.454.804c-2.502.192-5.575-.082-8.07 0l-7.504.053c-2.56-.047-5.105-.236-7.599-.566zM341.094 8.987c2.218-.498 1.65-.576 3.949-.792 2.281-.225 5.927-.234 8.227-.282l8.372-.302c2.31.104 10.581-.062 12.843.302-2.261.352-4.316.934-6.618 1.074-2.281.152-10.761.31-13.038.359a175.21 175.21 0 0 1-6.84.014 89.97 89.97 0 0 1-6.895-.372zm100.792 58.128l-8.332-.596c-2.771-.103-5.585.395-8.357.409s-5.501-.46-8.272-.325l-8.322.718 8.324.725c2.772.13 5.531-.181 8.31-.197l8.344.107 8.305-.842zm67.087 23.48l8.332-.596c2.772-.103 5.585.395 8.358.409l8.272-.325 8.322.718-8.324.725c-2.772.13-5.531-.181-8.31-.197s-5.572.272-8.344.107l-8.306-.842zm-102.089-8.133c2.762-.305 6.627.092 9.417-.001 2.771-.103 2.794-.61 5.567-.595l9.978.084 8.322.718-8.324.725c-2.772.13-5.531-.182-8.31-.197s-5.572.272-8.344.107l-8.306-.842zM528.73 56.811l8.332-.596c2.771-.103 5.585.395 8.357.41l8.273-.325 8.322.718-8.325.725c-2.771.13-5.531-.181-8.31-.197s-5.571.272-8.343.107l-8.306-.842zm-163.837 3.265l-9.945-.498-9.921-.169-4.951.047-5.009.295-4.893.379c-1.639.11-10.269 1.005-11.907.896 1.563.482 8.704.583 10.391.693 1.668.125 4.839-.511 6.516-.52l4.905.006 4.958.044c3.31.001 6.625-.06 9.938-.224a101.11 101.11 0 0 0 9.918-.949zm-176.647 22.52l-9.944-.498-9.922-.169-4.951.047-5.008.295-4.894.379c-1.638.11-10.268 1.005-11.907.896 1.563.482 8.705.583 10.391.693 1.669.125 4.839-.511 6.516-.52l4.906.006 4.958.044c3.309.001 6.625-.06 9.938-.224a101.15 101.15 0 0 0 9.917-.949zm-6.303 41.584l-9.945-.499-9.921-.17-4.952.047c-1.642.038-5.844-.183-7.48-.047l-5.937.467c-1.638.11-6.753 1.259-8.391 1.15 1.563.483 8.704.584 10.391.694 1.668.126 4.839-.511 6.516-.52l4.905.006c1.608.038 4.35-.008 6-.005 3.31.001 8.191.17 11.504.006 3.331-.154 4.036-.651 7.31-1.129zm12.86-7.486l-9.945-.498-9.921-.169-4.951.047-5.009.295-4.893.378c-1.638.11-10.269 1.005-11.907.896 1.563.482 8.704.583 10.391.694 1.668.125 4.839-.511 6.516-.52l4.905.006 4.958.044c3.31.001 6.625-.06 9.939-.224 3.33-.154 6.643-.471 9.917-.949zm208.24-56.128c-1.344-.469-2.732-1.14-4.172-1.146-2.519-.01-5.469.408-6.912.245-1.458-.17-6.44-.324-7.915-.305-2.105.026-5.556.494-6.995.84 1.393.36 6.524.053 7.964.293 1.403.24 4.645-.131 6.074.025 1.437.166 6.027.284 7.481.32a23.9 23.9 0 0 0 4.475-.271zM322.39 1.704c-1.345-.469-2.733-1.14-4.173-1.146-2.518-.01-5.468.408-6.912.245-1.457-.169-6.439-.324-7.914-.305-2.106.026-5.556.494-6.996.84 1.394.36 6.525.053 7.965.293 1.403.24 4.644-.131 6.073.025 1.438.166 6.028.284 7.482.32a23.89 23.89 0 0 0 4.475-.271zm170.261 16.48c-1.345-.469-2.733-1.14-4.173-1.146-2.518-.01-5.468.409-6.912.245-1.457-.169-6.439-.324-7.915-.305-2.105.026-5.555.494-6.995.84 1.393.36 6.524.053 7.964.293 1.404.24 4.645-.131 6.074.025 1.438.166 6.027.284 7.482.32a23.87 23.87 0 0 0 4.475-.271zm-79.169 81.47c-1.345-.469-2.733-1.14-4.173-1.146-2.518-.01-5.468.408-6.912.245-1.457-.169-6.439-.324-7.915-.305-2.105.026-5.555.494-6.995.84 1.393.36 6.524.053 7.964.293 1.404.24 4.645-.131 6.074.025 1.438.166 6.027.284 7.482.32a23.89 23.89 0 0 0 4.475-.271zm-49.378-32.173c-1.841-.439-2.113-.887-4.036-1.047-1.904-.17-5.936.065-7.854.063-1.906-.007-4.294-.44-6.19-.293-1.921.141-4.676.873-6.538 1.249 1.871.344 6.989.198 8.911.311l6.219.133 5.721-.046 3.767-.369zm184.798 23.344c1.841-.439 2.113-.887 4.036-1.047 1.904-.171 5.936.064 7.854.063 1.906-.007 4.294-.44 6.19-.293 1.921.141 4.676.873 6.538 1.249-1.872.344-6.989.198-8.912.311l-6.218.133c-1.89.007-3.827.061-5.721-.046l-3.767-.369zm-45-7.642c-1.841-.44-2.114-.888-4.036-1.049-1.904-.171-19.91.126-21.828.125-1.906-.007-4.047.172-5.943.319-1.921.142-4.923.261-6.785.638 1.872.344 6.989.198 8.912.311 1.897.12 4.328.126 6.218.133l19.694-.107c1.927-.097 1.874-.093 3.768-.37zm-11.385 29.462c1.841-.44 3.818-.604 6.076-.604l22.637-.001c1.907-.006 1.908-.147 3.804 0l6.075.638c-1.872.344-6.989.198-8.912.311-1.897.12-5.292-.318-7.183-.311l-18.73.336-3.767-.369zM337.183 17.362c-1.835-.348-2.101-.693-4.021-.828-1.901-.142-5.937.013-7.855 0-1.906-.017-14.535 0-17.627-.526-1.923.096-5.06.903-6.928 1.18 1.867.275 6.986.195 8.907.293 1.895.104 16.139.123 18.03.14s3.826.07 5.721 0c1.927-.062 1.874-.06 3.773-.26zm256.675 52.821c-1.834-.348-2.1-.693-4.02-.828-1.902-.142-5.937.013-7.855 0-1.906-.017-14.535 0-17.627-.526-1.923.097-5.06.903-6.928 1.18 1.867.275 6.986.195 8.907.293 1.895.104 16.139.123 18.029.14s3.826.07 5.721 0c1.928-.062 1.875-.06 3.773-.26zM448.277 51.582l-16.402 1.201c-5.443.399-11.179-.333-16.671-.084s-11.015.366-16.537.242c-5.526-.089-12.267.658-17.683-.158 5.512.095 12.216-1.132 17.678-1.271l16.388-.641c5.468-.249 11.204.601 16.706.491a194.07 194.07 0 0 1 16.521.22zm3.835 67.253l16.403 1.201c5.443.4 11.179-.333 16.671-.084s11.014.366 16.536.242c5.527-.089 12.267.658 17.684-.158-5.381-1.271-12.216-1.131-17.679-1.271l-16.388-.641c-5.467-.249-11.203.601-16.705.491-5.508-.161-11.025-.087-16.522.22zm-157.719-17.754l-16.403 1.202c-5.443.399-11.179-.334-16.671-.085s-11.015.367-16.537.242c-5.526-.089-12.266.658-17.683-.157 5.512.095 12.216-1.132 17.678-1.271l16.389-.641c5.467-.25 11.203.6 16.705.49 5.508-.161 11.025-.087 16.522.22zm-23.009-76.423l14.176.084c5.443.399 11.178-.333 16.671-.084s11.019.082 16.541-.042l17.684-.157c-5.201-.392-12.216-1.131-17.679-1.271l-22.127-.426c-3.371.275-7.889 1.231-13.391 1.121-5.508-.161-6.378.467-11.875.774zm78.922 66.315l14.176.084c5.443.399 11.178-.333 16.671-.084s11.019.082 16.541-.042l17.684-.157c-5.201-.392-12.216-1.131-17.679-1.27l-22.127-.426c-3.371.275-7.889 1.231-13.391 1.121-5.508-.161-6.378.467-11.875.775zm63.583-63.495l14.176.084c5.443.399 11.178-.333 16.671-.084s11.019.082 16.541-.042l17.684-.157c-3.84-.785-12.85-1.287-18.313-1.426s-15.995.89-21.462.641c-3.371.274-7.979 0-14.102 0-4.607 0-5.698.678-11.195.985zm112.939 92.345l14.176.085c5.443.399 11.179-.333 16.671-.085s11.02.083 16.542-.042l17.683-.157c-3.839-.786-12.85-1.287-18.313-1.426s-15.994.889-21.462.64c-3.371.275-7.979 0-14.102 0-4.607 0-5.698.678-11.195.985zm-90.133-44.709c-2.36-.452-2.694-.419-5.118-.612l-8.69-.37c-2.411-.04-7.787-.104-10.206 0-2.431.099-5.682.842-8.071 1.191 2.381.366 7.978-.145 10.402.001 2.401.159 5.685-.041 8.091 0s6.062.206 8.474.14c2.429-.055 2.713-.094 5.118-.35zm133.722 29.323c-2.36-.452-2.694-.419-5.118-.612l-8.691-.37c-2.41-.039-7.786-.103-10.205 0-2.432.099-5.682.842-8.072 1.191 2.382.366 7.979-.145 10.403.001 2.401.159 5.685-.041 8.091 0s6.062.206 8.474.14c2.428-.055 2.713-.093 5.118-.35zm-9.525-6.686c-2.361-.452-2.695-.419-5.119-.612l-8.69-.37c-2.411-.04-7.787-.104-10.205-.001-2.432.099-5.683.842-8.072 1.191 2.382.366 7.978-.145 10.403.001 2.401.159 5.685-.041 8.091 0s6.061.206 8.473.14c2.429-.056 2.714-.094 5.119-.35zM399.167 75.09c-1.314-.45-3.123-.706-4.484-.706h-4.847a40.8 40.8 0 0 0-4.25-.198 22.87 22.87 0 0 0-4.325.396c1.32.436 2.275.257 3.68.508 1.369.255 3.495.14 4.895.275 1.406.14 3.831.001 5.249 0 1.457.009 2.562-.275 4.082-.275zm133.722 29.322c-1.314-.45-3.124-.707-4.485-.707h-4.846a41.25 41.25 0 0 0-4.251-.198 22.99 22.99 0 0 0-4.324.396c1.32.436 2.275.257 3.68.509 1.369.255 3.495.139 4.895.274s3.83.001 5.249 0c1.457.009 2.561-.274 4.082-.274zm-131.618 2.528c-1.314-.45-3.124-.706-4.485-.706h-4.846c-1.409-.14-2.829-.206-4.251-.198-1.458-.005-2.911.128-4.324.396 1.32.436 2.274.257 3.68.508 1.369.255 3.495.14 4.895.275s3.83 0 5.248 0c1.458.009 2.562-.275 4.083-.275zm120.608 32.904c-1.314-.45-3.401-.49-4.762-.49-1.824 0-3.855-.504-5.257-.643-1.409-.14-5.356.239-6.778.247-1.458-.005-2.911.128-4.324.396 1.32.436 2.274.257 3.68.508 1.369.256 6.71.122 8.11.257 1.406.14 3.831.001 5.249 0 1.457.009 2.562-.275 4.082-.275zm-167.121-27.142c1.905-.358 2.438-.207 4.391-.367 1.923-.169 5.337.046 7.276 0l13.631-.411c1.97.086 3.219.056 5.133.411a56.4 56.4 0 0 1-5.789.777c-1.93.169-11.038.276-12.975.323a77.64 77.64 0 0 1-5.828-.074 42.6 42.6 0 0 1-5.839-.659zm65.497-.467c-1.21-.348-3.007-.34-4.295-.457l-3.959-.207c-1.228-.028-4.865.168-6.092.206-1.272.033-4.956-.131-6.216 0 1.083.563 7.865.514 9.154.733 1.25.23 2.645-.018 3.933 0 1.268.024 2.458-.134 3.713-.275 1.283-.136 2.556.353 3.762 0zm10.952 5.522l-5.266-.235-5.199-.157-5.24-.078c-1.781-.011-3.561.033-5.325.132l5.169.529 5.266.258 5.333-.022c1.791-.056 3.558-.2 5.262-.427h0zm-300.843 38.179l-5.266-.235-5.198-.157-5.241-.078c-1.781-.011-3.561.033-5.325.132l5.169.529 5.266.259 5.333-.022 5.262-.428h0zm430.916-22.121l-4.824-.47c-1.737-.066-10.937-.042-12.674-.084s-3.474.184-5.232.181c-1.781-.011-3.897.274-5.661.373 1.688.228 3.751.164 5.505.288 1.741.128 3.491-.044 5.258 0 1.776.047 10.593.201 12.367.14a52.67 52.67 0 0 0 5.261-.428zM350.398 75.033c-1.946-.441-3.107-1.025-5.116-1.264-1.99-.248-3.514.132-5.538 0-2.013-.134-5.334.016-7.36 0-2.035-.028-5.191.066-7.212.244 1.957.44 5.193.433 7.212.672 1.99.249 3.867.211 5.871.341l6.022.226 6.121-.22zm100.199 24.908c-1.946-.441-3.108-1.025-5.117-1.264-1.99-.248-3.514.132-5.538 0-2.013-.134-5.334.016-7.36 0-2.035-.028-5.191.066-7.212.244 1.957.44 5.193.433 7.212.672 1.99.249 3.867.211 5.872.341l6.022.227 6.121-.22zm77.946 34.351c-1.946-.44-3.107-1.023-5.117-1.262-1.99-.248-3.513.132-5.538 0-2.013-.133-11.729-.227-13.755-.243-2.035-.028-5.19.065-7.211.243 1.956.44 5.192.433 7.211.672 1.99.248 3.867.211 5.872.341s10.412.453 12.417.469c2.045.028 4.09-.045 6.121-.22zm-164.362-16.765c-1.099-.239-1.77-.174-2.927-.285-1.125-.113-2.509.033-3.649 0-1.149-.034-2.227-.397-3.371-.331-1.18.06-1.705.211-2.816.449 1.099.239 2.235.416 3.392.527l3.401.218 3.444-.049c1.179-.06 1.414-.292 2.526-.529zm10.774-43.092a15.68 15.68 0 0 0-2.907-.622c-.942-.118-1.894.012-2.849 0h-4.545l-5.474.621c.89.375 3.762.462 4.763.622.953.158 4.279-.011 5.256 0 .984.01 1.926.337 2.89.192a10.98 10.98 0 0 0 2.866-.814zm65.22 32.194c-.93-.295-1.906-.504-2.906-.622-.942-.117-1.894.012-2.849 0-.962-.013-12.097-.106-13.048 0-1.011.101-11.043.303-11.968.621.89.375 3.761.462 4.762.622.954.158 19.277-.011 20.254.001.983.01 1.926.336 2.89.192 1.011-.147 1.981-.422 2.865-.814zM350.71 1.383a15.68 15.68 0 0 0-2.907-.622c-.942-.118-1.894.012-2.849 0h-4.545l-5.474.621c.89.375 3.762.462 4.763.622.953.158 4.279-.011 5.256 0 .983.01 1.926.337 2.89.193 1.012-.147 1.981-.422 2.866-.814zm48.662 65.568c-1.944-.374-3.409-.308-5.404-.477-2.62.24-3.683-.021-5.666-.077l-9.008-.037a46.02 46.02 0 0 0-5.974.604c1.942.383 3.918.664 5.913.839 1.988.18 6.214-.246 8.196-.194l5.964-.039c2.013-.078 4.014-.285 5.979-.619zm79.131 23.958c1.944-.375 3.409-.308 5.404-.477 2.62.24 3.683-.021 5.666-.077l9.008-.037a46.02 46.02 0 0 1 5.974.604c-1.942.383-3.918.664-5.913.839-1.988.18-6.214-.246-8.196-.194s-3.963.049-5.964-.039c-2.013-.078-4.014-.285-5.979-.618zm116.784 42.123c-1.944-.375-3.409-.308-5.404-.477-2.62.24-3.683-.022-5.666-.077l-9.008-.037c-2.011.071-4.01.273-5.974.603a55.5 55.5 0 0 0 5.913.839c1.988.181 6.214-.246 8.196-.194l5.964-.039c2.013-.078 4.014-.285 5.979-.618zM496.862 76.1c-1.944-.374-3.408-.308-5.404-.477-2.62.24-3.683-.021-5.666-.077l-9.008-.037a46.02 46.02 0 0 0-5.974.604 55.73 55.73 0 0 0 5.913.839c1.988.18 6.214-.246 8.197-.194l5.963-.039c2.014-.078 4.014-.285 5.979-.618z"/><path d="M330.844 152.064l-.207 4.466 3.414.527-.299-4.702 1.969-2.94s1.864.373 3.971-.238 3.871-3.035 4.205-3.405c0-1.201 1.831-3.002 2.746-3.752 0 0-1.914-.525-3.23 0-1.194.475-4.251-1.341-3.096-1.386 4.781-.187 6.501-1.851 6.501-1.851l-7.695-.228s1.194-.214 8.594-2.02c1.564-.382.19-1.013.19-1.013s-6.566.374-12.186-.257c-.9-.102 10.922-1.815 10.922-1.815l.477-.437s-1.846-.31-3.707-.718c-7.692 1.155-11.481-1.072-11.481-1.072 7.654-.422 13.166-2.868 13.166-2.868s-.947-.734-3.23-.509c-4.143.407-10.533-.26-10.533-.26 1.79-2.526 8.777-1.643 8.777-1.643-.77-1.232-4.037-1.834-9.284-2.514.045-.728-1.998-3.129-2.745-3.226l-3.402.051s-2.229-.051-2.229 1.783c-4.459 2.004-1.86 3.925-3.44 4.221s-6.741 2.675-4.357 5.601c0 0-1.457 8.482 1.85 11.951 2.363 2.479 8.176 3.464 8.176 3.464s.967 1.946 1.969 2.887c1.452 1.362 4.194 1.903 4.194 1.903zm-7.234-28.261c-.245 1.971-1.289 3.205-3.159 3.783-5.021 1.55-3.335 4.273-3.335 4.273s0 7.264 2.913 11.747c-1.017-.543-1.027-.655-1.65-1.121-2.773-2.071-2.071-10.801-2.071-10.801s-1.229-3.023 3.405-4.586c1.909-.643 3.178-1.324 3.897-3.295zm9.867 25.374l.574-3.693c.49.289 1.154 1.053.936 1.349-.478.647-1.052 1.901-1.51 2.344zm-5.394-1.442s2.129 2.478 3.222 1.986v-3.487c-.918 1.501-3.222 1.501-3.222 1.501z" class="C"/><path d="M335.721 118.386c-3.242-.038-11.04 1.868-11.04 1.868l3.402-.051c2.168-.032 7.275-1.392 7.275-1.392 3.959 1.462 12.072 8.706 14.507 15.588.498 1.961.931 6.139-1.313 7.159s-2.208.733-1.909.462c-.915.75-2.746 2.551-2.746 3.752.418-.462 2.388-1.616 5.192-3.233 2.244-1.293 2.129-5.966 1.791-8.14-2.149-7.298-10.842-14.339-15.159-16.013zm47.451 17.065c-.245 1.316-1.435 2.315-2.866 2.315-1.354 0-2.492-.893-2.818-2.104 1.548.097 4.852.19 5.684-.211zm-.119-1.389c0-1.121-1.489-1.93-2.747-1.93-1.354 0-2.492.894-2.818 2.104l1.532-.031 4.033-.143z"/><path d="M390.509 116.448l3.306.448 2.817-.448.202 6.235 4.336.204 2.533 1.29h-12.645l.597.442h12.868l.898.496-12.818.319.843.442 12.852-.264 1.145.668-13.26.445 1.229.713 13.412-.324 2.212 1.411-14.957-.17.755 1.291h14.553l.389 1.246-7.253.317v1.032l-1.335-1.032h-5.88l.492 1.188 14.342-.334.433 1.382-3.078.18v2.209l-.954-2.209-3.057.216-7.09.395.527 1.868 14.368-.367.443 1.416-5.191.203.281 1.97s-.542-1.766-2.285-1.97c-2.547-.056-7.195.204-7.195.204l.668 1.766h14.465l.597 2.111h-4.494v4.586l-25.49 5.464v-8.22h-9.34v10.598l-9.023 3.329V141.45l3.804-12.721 6.869-3.614-7.759 3.24-3.967 13.095h-3.441c1.545-4.348 3.441-8.005 4.494-13.808 7.082-2.527 11.412-4.314 13.517-4.755 0 0 5.812 3.393 11.06 5.842l4.108 12.708 2.598.013s-1.873-3.314-4.564-12.925c-4.36-1.8-11.165-5.842-11.165-5.842h7.794l.434-6.235zm5.628.658l-2.01.343v.388l1.5-.104.217 4.346.293.09v-5.063zm-11.644 17.669c0 2.399-1.708 4.144-4.187 4.144-3.204.119-4.24-1.868-4.24-3.97 0-2.399 1.861-4.114 4.24-4.343 3.116.229 3.726 1.352 4.187 4.169z" class="C"/><path d="M376.417 145.389v6.335l2.827-3.566-2.827-2.769zm6.829-1.103l-3.458 2.904-3.371-3.006 6.829.102zm-3.125 4.245l-3.353 4.06v1.036l6.32-1.903-2.967-3.193zm.474-.645l2.985 2.412v-5.265l-2.985 2.853zm-87.074 1.112v2.172h-2.384v-2.512c-1.754 0-5.176-.678-4.839-3.392.42-3.393 5.61-4.206 6.802-4.477.954-.217 4.111.567 5.05 2.51.649 1.344.112 2.443 0 3.8s-3.133 1.832-4.629 1.899zm11.454 1.296v1.94l1.683.221v-2.402c1.238 0 3.655-.479 3.417-2.395-.297-2.395-2.756-3.656-3.598-3.847-.673-.154-3.199.326-3.862 1.698-.459.949-.988 1.962-.909 2.92s2.212 1.817 3.269 1.865zm171.624-5.795v2.675l2.321.304v-3.31c1.707 0 5.039-.661 4.711-3.303-.409-3.302-3.8-5.04-4.96-5.304-.929-.212-4.411.45-5.325 2.342-.632 1.308-1.362 2.705-1.253 4.026s3.05 2.504 4.506 2.57z"/><path d="M420.672 142.999s-1.378.352-2.034-.251 1.28-4.808 0-8.356c1.94.887 1.94 0 3.202.359 2.406-2.435 2.002-4.368 3.469-5.611.927-.785 13.426-1.444 16.542-.69.194.237 1.949 1.41 2.274 3.53-1.623 3.015-.084 5.809-.165 7.308.505.551.565 1.831.642 2.173-.184.418-.569-.806-.569-.806.037-.544 0-.754-.073-1.367.004-.355-.874-2.977-.871-5.819-.076 1.519-.151 2.368.161 4.143l.575 1.913-.736 3.768h-1.341l.606-3.392a7.88 7.88 0 0 1-.929-.481l-1.062 3.873h-1.472l.909-3.392c-.548-.307-1.705-1.239-1.947-2.512l-2.824.977-4.218-.089.767 2.378.519 3.517h-1.515l-.735-2.889-1.385-2.386-.402 2.627-.94 2.648h-1.601l.733-2.648.194-2.627s-1.137.072-1.749-.252c-.745 2.843-4.025 4.354-4.025 4.354zm3.223-8.248c-.246 1.239-1.293 2.203-2.055 2.638-.517-.839 1.002-.975 2.055-2.638zm16.064-4.479s-7.608-1.132-11.497 0c2.943-1.34 10.972-1.725 12.963-1.307.709.829 1.188 2.437.929 3.4 0-.39-2.395-2.093-2.395-2.093zm23.48 13.613l1.159-.143c.123-1.233.143-4.266-.468-4.82-.371.264-1.16-.055-1.357.263-.247-1.01-.873-3.073-1.406-3.245-.666-.215-8.508-.668-10.284-.239s-1.035 6.538-1.233 7.421c-.157.706-.065.374 0 .119.148-1.304.434-4.251.395-5.607.214.7.597 2.353.419 3.364l-.419.907.419 2.147h.765l-.346-1.932c.142-.061.329-.154.529-.275l.606 2.207h.838l-.517-1.932c.312-.175.971-.706 1.109-1.432l1.924.716 2.639-.215-.987 1.36-.296 2.004h.863l.42-1.646.789-1.36.764 3.006h.913l-.419-3.006.887-.143 2.294 2.481zm-1.751-4.7c.181.397.651 1.255 1.085 1.503s-.543-.899-1.085-1.503zm-9.914-2.553c.552-.42 5.047-.175 7.226 0-1.677-.763-6.092-.931-7.226-.692-.908.191-.839 1.336-.691 1.885 0-.222.139-.773.691-1.193z" class="C"/><path d="M459 136.632c-2.179-.175-6.674-.42-7.226 0s-.691.971-.691 1.193c-.148-.549-.217-1.694.691-1.885 1.134-.239 5.549-.071 7.226.692zm2.688 2.553c.181.397.651 1.255 1.085 1.503s-.543-.899-1.085-1.503zm-33.645 5.873c-5.375.223-10.805.585-16.271 1.178 1.047.225 2.464.456 4.159.641 6 .656 15.489.738 24.424-2.055a276.03 276.03 0 0 0-12.312.236zm-65.812 13.555l-.005.197 1.886-.905c-.547-.082-.521-1.822-.44-2.682-1.217 1.413-1.411 2.827-1.441 3.39z"/><path d="M358.897 153.593c1.573 3.532 1.715 5.526 1.59 6.081l1.739-.864.005-.197c-.029-1.827-2.209-4.089-3.334-5.02z"/><path d="M348.04 163.063c4.462-.746 8.826-1.476 12.447-3.389l1.739-.864 1.886-.905c16.543-7.787 33.701-12.057 50.19-13.956 2.542.764 8.831 1.622 13.644-1.063a199.89 199.89 0 0 1 37.975 2.076s3.293-.405 3.504-1.628c.877.901 1.264 2.41 1.264 2.41 10.557 1.868 19.565 4.384 26.377 6.901-1.31.58-2.674.185-3.838-.152-.873-.252-1.634-.473-2.175-.225-1.688-.322-4.848-1.205-8.273-2.163-4.691-1.311-9.88-2.761-12.478-3.102-9.186-1.206-18.929-2.145-29.947-2.181a276.03 276.03 0 0 0-12.312.236c-5.375.223-10.805.585-16.271 1.178-9.781 1.06-17.82 3.736-27.208 6.862-6.527 2.173-13.707 4.563-22.577 6.778-.296.152-.537.344-.813.564-.831.662-1.977 1.576-5.858 2.392-4.631 1.55-8.414 1.872-12.12 2.187-2.14.182-4.253.362-6.489.774 3.575-1.433 7.49-2.088 11.333-2.73z" class="C"/><path d="M241.149 152.999l3.369-.46c3.854-.535 8.143-1.131 12.418-1.443-6.583-2.931-13.413.164-15.787 1.903z"/><path d="M411.122 155.227c-.695.299-1.866.607-2.704.607-1.148 0-10.688.85-14.481 1.801 4.284-4.394 13.414-3.975 14.481-3.975.437 0 1.293-.205 1.791-.419 2.009-.864 9.619-.735 16.677.42-10.429.543-13.265.491-15.764 1.566zm-32.507 9.491c-9.024 4.282-27.42 4.416-29.386 6.93-.001-1.596 5.665-3.352 6.074-3.804 13.201-1.903 19.942-5.232 23.312-3.126z" class="C"/><path d="M402.007 163.488c.467.441-1.148.755-1.399.329-1.719.217-3.846-.358-5.439.239.017-.978-1.189-2.945-1.794-3.806.773 3.295 0 4.163 0 4.163s-1.644-.539-2.703-.596c.913.544-3.487 2.668-3.487 2.668s.432-1.955-.481-4.211c-.611 3.139-1.885 4.68-1.56 4.864-4.02 1.314-4.759 3.574-15.784 4.51 2.352 0 8.984.425 9.971 0 1.639-.705 5.066-2.964 6.762-3.532 1.796-.602 4.714-1.09 6.532-1.631 2.066-.615 4.709.578 6.712-.219 1.208-.482 2.314-.003 3.497-.639 1.931-2.225 4.283.136 5.709-1.994-2.233-.86-5.759-.563-6.536-.145z"/><path d="M413.555 162.955c4.277.152 9.378-1.342 12.423-1.342 2.346 0 20.66-.154 24.206 1.341-5.582.68-21.792.833-24.206.833-3.041 0-8.006 0-12.423-.832z" class="C"/><path d="M462.375 163.689c-4.164 0-5.151 0 .404-2.076 1.404 1.071 3.532 1.311 4.893 1.465l.011.001c.891.101 2.584.3 3.839.151 2.406.798 3.569 1.353 5.967 1.705 1.185.174 2.253.612 3.441.752.931.109 1.613.597 2.474.792.56.126 1.12.111 1.674.292l2.966 1.029-25.669-4.111zm-177.795-1.128l.093.004c.394.017.901.039 1.388.143 2.043.44 4.173.326 6.24.682 1.531.264 9.183 2.176 9.183 2.176l-12.842-.408a15.69 15.69 0 0 1-3.068-.327c-.289-.062-.612-.077-1.067-.097l-.03-.001c-.423-.019-.98-.044-1.518-.187-3.142-.839-7.593-.439-10.708.119-4.4.788-29.813 2.747-29.813 2.747l29.404-4.885c4.24-.759 8.488-.154 12.738.034z"/><path d="M242.997 160.047l-20.351 2.661c17.4-6.703 34.501-4.224 34.501-4.224l-14.15 1.563zm28.159-3.228c3.371 1.597 5.484 4.552 5.879 5.461l.065.15c.24.553-.029 1.19-.601 1.423s-1.231-.028-1.471-.581l-.058-.133c-.394-.909-1.286-2.549-3.814-6.32z" class="C"/><path d="M281.514 155.393c-1.439 2.563-2.055 5.546-3.49 7.993-.306.522-.991.706-1.531.409s-.729-.959-.423-1.481c1.491-2.544 3.454-4.682 5.444-6.921zm170.987.482c-2.474 0-4.86.815-7.303.815-3.59 0-7.101.266-10.719.09 6.805-1.72 7.068-1.347 10.719-2.264 2.435 0 4.832-.815 7.303-.815h4.143c2.378 0 4.716.543 7.092.543 3.643 0 2.669.917 9.789.917 1.457.627 5.362.867 7.618 1.802 1.413.865 1.957.576 6.901 3.552-2.627-.394-6.901-3.125-10.684-1.889 0-1.019-1.208-1.074-3.835-1.236-3.248-.201-6.535-1.515-9.789-1.515h-7.092-4.143z" class="C"/><path d="M450.834 150.338c1.571 2.276 2.115 2.42 3.133 3.318-.277.537-1.323 1.07-1.878.802-.193-.691-1.141-1.717-1.255-4.12zm20.688 1.267c-1.571 2.276-2.115 2.42-3.133 3.319.277.537 1.323 1.07 1.878.801.194-.69 1.141-1.716 1.255-4.12z" class="C"/><path d="M472.725 152.716c-1.545 1.036-2.405 2.496-2.405 3.057.277.537 1.288.591 1.843.323-.105-1.138-.105-2.14.562-3.38zm-19.521 1.307c.669.364 1.512.712 2.054 0 .778-1.023.219-1.579.684-3.192-.965.679-.948 2.522-2.738 3.192zm-182.118-2.961h11.832s-.772-8.22-11.13-10.167c-.274-.052-.503.311-1.068 0s-.751-.629-1.144-.669c-8.435 0-12.991 11.6-12.991 11.6s6.066-.764 14.501-.764zm9.655-1.342c-4.157-5.108-7.408-7.472-9.655-7.472 2.142.305 4.108 4.008 5.161 5.944-1.159-3.363 4.494 1.528 4.494 1.528z" class="C"/><path d="M335.654 158.076s4.342 2.718 8.216 2.718 6.671 1.902 1.755-2.718c-1.644-1.545-1.755-3.057-4.494-4.415-3.862.883-5.477 4.415-5.477 4.415zm55.412-41.896l2.749.373 2.322-.284-2.322-.358-2.749.269z"/><path d="M339.156 158.251c-18.06-5.025-37.174-7.103-54.761-7.505-9.98-.228-18.981-.268-27.459.35-4.275.312-8.564.908-12.418 1.443l-3.369.46c-3.071.404-28.399 4.137-49.073 7.318l1.113.538c3.902-.558 8.984-.771 13.117-1.371 22.769-3.308 47.245-6.863 53.58-6.231 34.132-1.985 54.097 1.268 69.851 5.23.317.209-2.977.141-7.551.047-8.853-.181-22.502-.461-24.03.973 15.168.142 30.546 1.609 38.996 2.416l3.207.302c-1.567-2.371 1.21-1.592 4.678-.619 3.03.851 6.589 1.849 8.242 1.026-3.691-1.553-6.511-2.306-9.802-3.185l-4.321-1.192zm194.878 10.236l-3.557 1.882-6.71 3.286-2.399 1.254c-5.968 3.203-13 5.293-19.4 7.52-.863.3-1.771.614-2.54 1.109-.653.421-1.122.989-1.885 1.272-.689.255-1.44.389-2.045.503-.649.123-1.49.197-2.025.611-4.581 3.54-11.233 4.179-16.397 6.912-.599.317-4.398 1.79-4.398 1.79l8.442-5.078c5.039-2.667 7.104-1.839 11.566-5.288.888-.685 1.883-1.627 2.969-1.831.665-.125.588.303 1.003.149.86-.319 2.292-.894 3.142-1.302.645-.311 1.411-.61 2.168-.873 2.28-.794 3.835-1.307 6.075-2.207 2.175-.874 3.925-2.243 6.206-2.894 3.099-.885 3.215-.851 6.549-2.181 2.845-1.136 4.113-1.228 7.7-3.469 2.505-.776 5.536-1.165 5.536-1.165zm59.934-9.859c-7.195-.154-12.216-.506-20.968.778-9.699 2.465-18.705 3.05-28.296 5.795l-5.072 1.493s.464-2.629 5.505-4.241c6.805-2.177 7.035-.66 12.113-1.709 5.091-1.051 11.854-1.846 15.157-3.33 2.356-.159 17.819-.248 21.561-1.234 3.638.078 6.765 3.657 10.397 3.847 4.751.249 6.087 1.105 10.793 1.105.684 0 15.342 3.292 15.342 3.292l-12-1.449c-4.791 0-7.945-1.564-12.681-1.813-3.636-.19-8.256-2.456-11.851-2.534zm-39.969 20.729c-4.497 1.483-9.324 1.722-13.68 3.592-7.925 1.909-17.826 7.098-24.439 9.796-.45.183-2.335 1.1-2.781 1.283-3.564 1.464-6.664 1.624-9.867 3.646-.572.361-2.505.747-2.505.747l2.659-1.614c3.403-2.147 4.777-2.416 8.35-3.883.454-.186 2.95-1.011 3.402-1.195 6.274-2.561 11.195-5.497 19.761-8.78 4.051 0 4.732-1.228 9.401-2.632 4.451-1.91 5.278-1.238 9.866-2.748.682-.225 1.32-.149 2.01-.329 5.72-1.485 11.188-2.04 16.947-3.584 2.783-1.165 4.422-1.524 6.556-1.524 3.12 0 6.573.36 9.742 0 3.138-.356 5.517-1.762 8.813-1.762l12.123 1.105c2.287 0 2.314-.835 4.423-.598 2.132.241 4.174 1.195 4.174 1.195s-.553.239-1.237.239c-2.237 0-.072.236-2.164 0-2.131-.24-1.309.18-3.433.18-19.51.714-39.466.714-58.121 6.866z" class="C"/><path d="M553.999 173.357l.167 4.212c.682-.225 1.32-.149 2.01-.329-.08-1.351-1.775-3.406-2.177-3.883z"/><path d="M610.125 180.153c-3.015-.433-2.412-1.628-6.633-.164 0 0-4.106.207-8.041 1.165-3.95.962-7.73 2.674-8.535 2.674-1.608 0-1.954.707-3.186 1.21 5.348-.794 8.771-2.229 12.046-2.876 4.735-.935 8.745-1.037 14.349-2.009zm34.542-9.118c3.045.148 2.697-1.138 6.537 1.1 0 0 3.984.985 7.646 2.672 3.676 1.695 7.033 4.092 7.823 4.246 1.577.306 1.771 1.065 2.876 1.792-5.081-1.796-8.145-3.854-11.223-5.111-4.452-1.817-8.363-2.681-13.659-4.699zM615 172.54c3.015-.433 2.412-1.628 6.633-.164 0 0 4.106.207 8.041 1.165 3.95.961 7.73 2.673 8.535 2.673 1.608 0 1.954.708 3.186 1.21-5.348-.793-8.771-2.229-12.046-2.875-4.735-.935-8.746-1.038-14.349-2.009zm-30.846-5.683l-.732 5.096-.696.657c-.234.62-.278 1.036-1.253 1.036-.757 0-.77-1.046-.68-1.23l.495-.851c.233-.621.448-2.106 2.866-4.708zm25.669-1.116c0 2.448.996 4.142 1.328 4.719l.666 1.207c.331.577 1.085.785 1.682.465s1.014-.274.682-.851c0 0-.31-1.252-.682-1.986-.894-1.762-1.682-1.554-3.676-3.554zm-173.328 12.814c-1.577 0-7.205-.05-7.886 0-2.753.205-6.519 1.014-9.27 1.26-6.606.589-6.07.463-12.873.503-.683.004-8.407.189-8.411-.471s6.491-.78 7.174-.784c6.692-.039 7.209-1.034 13.768-1.619 2.776-.248 10.447-1.398 10.447-1.398s5.288 1.398 7.051 2.509z" class="C"/><path d="M412.266 176.631c-.261.608.36 2.342.36 2.342s.896.146 1.151-.448c.338-.787.68-2.39.68-2.39s.421-2.24 1.256-3.644c-2.443 1.792-3.087 2.485-3.447 4.14z" class="C"/><path d="M412.617 179.078s.405-.174.405-1.001c0-2.046-1.02-1.703-3.834-4.989 1.979 4.511 3.429 5.99 3.429 5.99zm213.111 47.902l-.557-3.764-.619-4.122-.927-4.481c-.557 3.226-6.49 6.395-11.628 6.751-36.704 2.541-60.55-3.615-81.742-9.086-9.199-2.375-17.898-4.621-26.93-5.97-.662-.099-1.267-.456-1.871-.812-.598-.353-1.194-.704-1.84-.801-.924-.139-2.077-.151-3.225-.164-1.141-.013-2.276-.025-3.175-.161l-71.901-11.505c-4.847-.823-9.423-1.81-13.858-2.767l-12.04-2.423-58.234-9.673c1.193-1.754-4.274-1.446-7.156-1.072-2.8-2.349-15.586-2.896-21.629-2.876-54.564-6.394-94.624-3.543-201.264 9.877l-.697 2.498c107.4-13.529 147.257-16.378 201.663-10.003 11.762 1.379 24.203 3.188 38.151 5.415l2.943 1.563h6.684l39.072 6.618.003.001h.002l26.36 4.504 27.647 4.756 43.28 7.41c10.048 1.686 19.893 3.843 30.31 6.125 26.464 5.798 56.622 12.405 103.178 14.162z" class="C"/><path d="M80.968 187.259L52 192.114c8.778-1.126 46.44-4.678 54.435-5.685l.697-2.498-26.165 3.328zm459.529-31.377c-8.695 2.852-19.938 6.811-28.933 10.322l-17.065 4.508 16.15-6.22c6.367-2.485 10.043-4.216 15.564-6.259 1.409-.532 1.107-1.232.78-1.516-1.404-.315-3.143-.59-5.051-.835-1.052.132-3.31.226-3.928-.445l-16.112-1.527-3.835-1.135c2.487.437 7.338.742 14.662 1.03 1.505-.563 5.405-1.288 8.967.313l15.754.476c4.15-1.358 8.24-2.601 12.337-3.688 1.497-1.328 5.953-3.716 11.796-2.641l2.294-1.524 3.747.593c1.469-.189 2.949-.352 4.445-.487l3.807-1.421 3.647.991c9.289-.235 74.118 7.351 130.313 44.701.088.037.179.071.269.103 1.635.581 3.463.478 0 0l-.785-.103c-47.43-25.721-85.065-39.342-135.073-42.33-13.404-.801-29.027 5.545-33.75 7.094zm-44.161 17.386c-23.757 10.148-34.822 14.459-67.449 16.968-.804 0 5.104-1.146 5.536-1.434 21.279-2.149 44.057-7.648 46.512-11.471 1.461-2.276 8.721-2.868 15.401-4.063z"/><path d="M190.588 159.732c-2.66-1.172-5.347-2.357-8.269-2.357-1.239 0-1.855.358-2.507.738-.42.244-.854.497-1.479.669l-1.805.59c-2.284.797-5.022 1.752-7.322.765-3.875-1.664-6.78-1.806-11.133-1.806-.16 0-.324-.001-.489-.002-1.854-.013-3.982-.028-5.201 1.542-.258.333-.728.851-1.303 1.485-2.322 2.562-6.362 7.019-5.13 8.805l47.254-9.321c-.874-.339-1.743-.723-2.616-1.108zm-33.257-.385c2.577-.14 8.214-.036 10.143 1.493-1.958-.159-6.729-.681-10.143-1.493z" class="C"/><path d="M530.415 147.816c.712.806.557 1.971 1.423 6.751-.908.32-2.474 0-2.474 0s-.275-4.344 1.051-6.751z"/><path d="M534.838 150.654c.183 0 .343-.288.483-.76 1.25-4.215-3.097-8.261-7.387-6.83-1.552.518-2.253 2.077-2.373 3.658l-.126 1.655c-.092 1.205.608 2.336 1.75 2.829l2.736 1.18c1.484 0 3.432-1.732 4.917-1.732z"/><path d="M109.739 182.09c21.712-9.233 54.128-23.019 107.03-19.816-28.547.294-57.942 7.099-81.265 13.921-1.023.299-.879 1.633.188 1.695 6.139.359 15.221.29 26.525-.619l-55.093 6.646.269-.831 2.346-.996z" class="C"/></g><g fill="#e11f1f"><path d="M361.147 83.068l-.217.406-.472.951c-.718 1.5-1.168 2.892-1.351 4.177-.02.137.01-.13 0 0-.084 1.083.116 2.302.69 2.855.437.392 1.085.724 1.943.995.847.261 1.644.19 2.391-.214 3.732-2.423 6.175-5.762 7.718-9.834.084-.223.77-1.492.574-1.318-.85 1.735-3.753 5.93-5.536 7.368.349-.437 1.503-1.972 1.927-2.927-1.059 1.302-2.452 2.625-3.479 3.499s-1.818 1.317-2.373 1.329c-.32-.04-.469-.325-.448-.855.035-.543.15-1.137.346-1.781s.384-1.149.564-1.515c2.777.078 4.651-3.024 5.241-4.585l.521-.424c-1.37 4.582-4.412 5.249-5.762 5.009 2.989.895 5.335-2.364 6.342-5.009.375-.953.543-1.819.575-2.213.033-.509-.231-.888-.794-1.139l-.588-.253c-.624-.312-1.153-.323-1.657-.421s-1.049.028-1.635.377c-.873.568-1.784 1.485-2.731 2.75-.645.854-1.234 1.764-1.766 2.731-.004.007-.007.013-.011.019.002.004.001.009-.012.022zm5.027-1.751c.531-.709.965-1.204 1.303-1.488-.071.559-.268 1.22-.59 1.983-.309.75-.709 1.419-1.201 2.008-.491.578-1.021.873-1.588.887.015-.185.233-.62.652-1.303.431-.685.906-1.381 1.424-2.088z" class="C"/><path d="M354.852 85.76c1.273-.874 1.69-1.886 1.996-2.631l.025-.062c-.023.273-.17 1.212-.789 1.931-.386.367-.714.535-1.232.761z"/><g class="C"><path d="M378.491 84.189c1.066-.294 2.541-1.085 3.248-1.871.272-.333.281-.91.247-1.113-.499.647-1.142.902-1.401.949l.157-.073c.427-.224.971-.691 1.214-.921-.128-.12-.347-.128-.654.087-.813.629-1.995 1.075-3.072 1.29-1.077.204-2.117.115-3.074-.167.593-1.45 1.414-2.912 2.464-4.385s2.194-2.706 3.433-3.698c.314-.326.524-.818.223-1.251-.491.358-2.502 2.103-3.884 4.163 2.348-3.609 3.661-4.787 3.661-4.787l-1.201-.314c-.635-.135-1.093-.121-1.455.108-1.151.935-2.188 2.2-3.356 4.09a51.71 51.71 0 0 0-3.235 6.116l-2.477 6.158c-.663 1.895-1.071 3.339-1.224 4.333a5.5 5.5 0 0 0 .055 2.16c.147.715.676 1.142 1.587 1.28.812.093 1.541.048 2.185-.136.657-.174 1.232-.613 1.726-1.317.43-.616.882-1.412 1.356-2.389s.855-1.994 1.145-3.05c.303-1.07.4-2.04.292-2.909-.095-.882-.497-1.543-1.204-1.982a10.47 10.47 0 0 0 3.244-.372zm-5.279 6.63c-.567 1.355-1.289 2.4-1.945 3.227-.033-.638.101-1.258.244-1.925l.054-.253a16.57 16.57 0 0 1 .632-2.246l.409-1.169.563-1.515.483-1.144c.312.477.458.969.437 1.476-.006.998-.298 2.182-.877 3.55zm-32.95-6.976c-.602.603-3.396 4.151-3.396 4.151l3.328-5.535.346-.674.001-.002 2.05-4.269c.295-.709.404-1.454-.572-1.276-.917.136-3.06 1.775-3.514 2.725l-.665 1.355-1.668 3.573-2.749 6.88c-.13.406-.105.736.075.988.193.251.455.43.787.538a1.48 1.48 0 0 0 .868.08c.297-.06.603-.288.919-.683.303-.405.826-1.032 1.569-1.882l2.545-2.675c.954-.922 1.88-1.68 2.778-2.275.899-.606 1.629-.764 2.253-.764.874.062 1.105 1.193.582 1.578-1.983 1.246-4.184 2.944-6.603 5.093-2.418 2.138-4.374 4.286-5.868 6.446-.99 1.557-1.344 2.76-1.063 3.607s1.015 1.238 2.2 1.169 2.627-.696 4.326-1.883c2.674-1.952 5.034-4.255 7.079-6.907 2.058-2.654 3.291-5.108 3.701-7.361.374-1.016 1.817-3.041 2.713-3.401a20.44 20.44 0 0 0-2.132.92l-.896.405c-.384-.571-.913-1.032-1.585-1.384-.66-.353-1.348-.53-2.063-.533a36.42 36.42 0 0 0 2.618-2.581c.905-.985 1.615-2.054 2.129-3.208.311-.853.257-1.672-.161-2.457-.405-.798-1.035-1.441-1.89-1.93-.842-.491-1.77-.713-2.782-.666-1.47.138-3.065.694-4.785 1.666-1.719.961-3.374 2.143-4.966 3.546-1.591 1.392-2.917 2.802-3.979 4.231s-1.656 2.667-1.786 3.715c-.056 1.062.276 1.823.996 2.283.72.449 1.475.618 2.267.507.804-.112 1.304-.49 1.5-1.134-1.139.257-1.659-.027-1.558-.854.102-.838.683-1.966 1.744-3.383 2.545-3.364 5.984-6.153 9.741-7.791 1.181-.526 2.029-.707 2.544-.543.575.272.695.819.36 1.64-.323.82-.92 1.772-1.79 2.856-.858 1.082-1.796 2.169-2.815 3.26l-2.733 2.837zm-1.721 12.617c-1.381 1.343-2.488 2.25-3.323 2.721.325-.981 1.049-2.132 2.17-3.454a41.28 41.28 0 0 1 3.75-3.858c1.367-1.249 2.568-2.231 3.605-2.946-.322.774-1.088 1.885-2.298 3.332a55.81 55.81 0 0 1-3.904 4.204zm-2.736-.912c1.592-1.943 5.351-6.106 8.092-7.777-1.917 1.15-5.759 4.023-8.092 7.777zm-1.824-4.787l5.215-11.724c.491-.57.91-.86 1.345-1.028l-6.56 12.752zm20.871-5.001c.491-.214.897-.473 1.232-.761.619-.719.766-1.658.789-1.931l-.025.062c-.306.745-.723 1.756-1.996 2.631z"/><path d="M358.798 89.311c-1.523 1.75-3.083 3.144-4.681 4.181-.747.403-1.544.475-2.39.214-.859-.271-1.507-.602-1.944-.995-.643-.619-.873-1.57-.69-2.855s.633-2.676 1.351-4.177l.21-.435a23.46 23.46 0 0 1 1.63-2.804l.638-.889c.948-1.265 1.8-2.182 2.674-2.75.586-.349 1.188-.474 1.692-.377s.942.246 1.566.557c0 0 .149.065.293.453.088-.313.462-.444.768-.206s.48.599.447 1.108c-.032.394-.235 1.159-.61 2.112-.725 1.905-4.212 6.386-6.342 5.009-.556 1.137-.902 2.081-.979 3.303-.022.53.197.808.517.849.555-.012 1.425-.414 2.452-1.288s2.087-1.951 3.146-3.253c.95-1.177 1.742-2.421 2.384-3.594l-.472.951c-.718 1.5-1.168 2.892-1.351 4.177-.033.039-.047.097-.067.173-.033.127-.079.306-.242.536zm-1.334-8.226c-.339.283-.773.779-1.303 1.488l-1.425 2.088c-.419.683-.637 1.118-.652 1.303a1.74 1.74 0 0 0 .768-.203c.518-.226.846-.394 1.232-.761 1.455-1.251 1.56-3.035 1.38-3.914zm-3.767.466c.578-.791 2.241-2.389 3.304-2.672-.614-.281-1.845.373-3.304 2.672z"/></g></g><defs ><path id="C" d="M323.504 33.27c-1.078-.368-2.37-.244-3.539-.396l-4.075-.389c-1.146-.026-1.704-.106-2.842 0l-5.79.667c1.108.305 4.826.319 5.998.436l3.432.216 3.432-.073c1.145-.073 2.278-.227 3.384-.461z"/></defs></svg>