<svg xmlns="http://www.w3.org/2000/svg" xmlns:xlink="http://www.w3.org/1999/xlink" width="345" height="74" fill="none" xmlns:v="https://vecta.io/nano"><style><![CDATA[.B{fill:#c0edc3}.C{fill-rule:evenodd}]]></style><mask id="A" maskUnits="userSpaceOnUse" x="0" y="0" width="345" height="74" mask-type="alpha"><path d="M0 0H345V74H0V0Z" fill="#e7f9e3"/></mask><g mask="url(#A)" class="B"><path d="M81.46 4.664c.945-.129 5.109-.219 6.068-.27l2.809-.132 2.809-.06 2.879.062c-.872.328-1.798.569-2.755.719-.944.155-1.967-.031-2.933 0H86.8c-.969-.084-3.21.128-4.123-.128l-1.217-.19zm2.008 30.881c.945-.129 5.109-.219 6.068-.27l2.809-.132 2.809-.06 2.879.062a14 14 0 0 1-2.755.719c-.944.155-1.967-.031-2.933 0h-3.537c-.969-.084-3.21.129-4.123-.128l-1.216-.19zM16.545 55.896c.945-.129 5.109-.219 6.068-.27.941-.058 1.513-.357 2.448-.389s2.229.205 3.17.197c.96-.016 2.372.06 3.048.462-1.216.19-2.091.041-3.048.19-.944.155-1.843.097-2.809.128h-3.537c-.969-.084-3.21.128-4.123-.128l-1.216-.19zM213.879 2.777l2.176-.251 4.257-.15 5.252-.062 2.879.062c-.872.327-1.922.429-2.879.578-.944.155-1.967-.031-2.933 0s-2.902.346-3.862.257c-.969-.084-2.886-.129-3.798-.385l-1.092-.05zm-76.101 18.158l2.176-.25 4.258-.15 5.252-.062 2.879.062c-.872.327-1.923.429-2.879.578-.944.155-1.967-.031-2.934 0s-2.902.346-3.862.257c-.969-.084-2.885-.129-3.798-.385l-1.092-.05zM42.031 23.64l2.176.25 4.258.15 5.252.062 2.879-.062c-.872-.328-1.922-.429-2.879-.578-.944-.155-1.967.031-2.933 0s-2.902-.346-3.862-.257c-.969.084-2.886.129-3.798.385l-1.092.05zM67.909 1.038L71.64.78l3.709-.05 3.709.118a35.54 35.54 0 0 1 3.72.39 36.04 36.04 0 0 1-3.717.4l-3.728.096-3.728-.166a28.85 28.85 0 0 1-3.695-.53h0zm198.515 26.439c2.636-.396 2.587-.473 5.238-.162 1.235.149 5.242-.044 6.471 0 .227.002 1.583.357 1.808.335-.367.239-3.513.231-3.991.307-.462.079-.934.128-1.408.144l-1.333.05-1.368.018a26.51 26.51 0 0 1-2.73-.168c-.919-.1-1.821-.275-2.687-.524zM47.369 2.016c.589-.201 1.295-.133 1.933-.217l2.226-.212c.626-.014.931-.058 1.553 0l3.164.364c-.606.167-2.637.174-3.277.238l-1.875.118a22.37 22.37 0 0 1-1.875-.04 12.89 12.89 0 0 1-1.849-.252zm40.246-.948c1.212-.272.902-.315 2.158-.433 1.246-.123 3.238-.128 4.494-.154l4.574-.165 7.017.165c-1.235.192-2.358.51-3.616.587l-7.123.196-3.737.008-3.767-.203zm32.201 34.274c-1.212-.272-.902-.315-2.158-.433-1.246-.123-3.238-.128-4.495-.154l-4.574-.165c-1.262.056-5.781-.034-7.016.165 1.235.192 2.357.51 3.615.587l7.123.196 3.737.008 3.768-.203zM201.921-.247c1.212-.272.901-.315 2.158-.433 1.245-.123 3.238-.128 4.494-.154l4.574-.165 7.017.165c-1.235.192-2.358.51-3.616.587l-7.123.196-3.737.008-3.767-.203zM71.257 9.086l4.536-.433c1.511-.092 3.059.143 4.573.115l4.509-.285 4.561.284-4.528.504c-1.511.107-3.025-.028-4.542 0l-4.554.167-4.555-.352zm2.886 30.487l4.536-.433c1.511-.092 3.059.143 4.573.115l4.51-.285 4.561.285-4.529.504c-1.51.107-3.025-.027-4.542 0l-4.554.167-4.555-.352zm-45.666-8.082l4.536-.433c1.511-.092 3.059.143 4.573.115l4.51-.285 4.561.284-4.529.504c-1.51.107-3.025-.028-4.542 0l-4.554.167-4.555-.352zm64.506-19.426l5.407-.48 5.407-.3 2.703-.078 2.744.056 2.685.104c.898.026 2.512 0 3.644.226-1.064.262-2.682.167-3.598.262l-2.734.2-2.676.106-2.703.128-5.431.086-5.447-.31zm172.002 23.878l5.407-.48 5.407-.3 2.703-.078 2.744.056 2.685.104c.898.026 2.512 0 3.644.226-1.064.263-2.682.167-3.599.263l-2.733.2-2.676.106-2.703.128-5.431.086-5.448-.31z"/><use xlink:href="#C"/><path d="M248.383 36.385c.736-.253 1.497-.617 2.284-.617l3.775.149c.797-.089 3.52-.163 4.326-.149a22.67 22.67 0 0 1 3.818.475c-.763.194-3.564.014-4.352.142-.768.128-2.537-.082-3.319 0-.786.088-3.294.142-4.088.158-.821.024-1.642-.029-2.444-.158z"/><use xlink:href="#C" x="-25.142" y="19.305"/><use xlink:href="#C" x="-36.383" y="43.321"/><path d="M57.93 43.027c.737-.253 1.498-.617 2.284-.617l3.775.149c.797-.089 3.52-.163 4.325-.149 1.15.019 3.033.282 3.819.475-.763.194-3.565.014-4.352.142-.768.128-2.537-.082-3.318 0-.786.088-3.294.142-4.089.158a13.04 13.04 0 0 1-2.444-.158zm19.069-26.631c1.002-.248 1.148-.494 2.197-.59 1.039-.101 3.244.009 4.292 0 1.041-.012 2.342-.26 3.379-.187 1.05.069 2.562.456 3.582.653-1.02.196-3.817.139-4.866.209l-3.396.1H79.06l-2.061-.185zm3.427 31.249c1.002-.248 1.148-.494 2.197-.59 1.039-.102 3.244.009 4.292 0 1.041-.012 2.342-.26 3.379-.187 1.05.069 2.562.456 3.582.653-1.02.196-3.817.139-4.866.209l-3.396.1h-3.126l-2.061-.185zm133.938-15.583c1.003-.19 1.148-.378 2.197-.452 1.039-.078 3.243.007 4.291 0l9.631-.287c1.051.053 2.765.493 3.785.645-1.02.15-3.817.107-4.866.16l-9.851.077h-3.125l-2.062-.142zM93.051 16.228l8.961-.657 8.973-.555 9.035-.132a67.77 67.77 0 0 1 8.986.743 210.03 210.03 0 0 0-8.984.038l-8.953.35-8.992.332a106.12 106.12 0 0 1-9.026-.12zm-93.199 20.1l8.962-.657 8.972-.554 9.035-.132a67.76 67.76 0 0 1 8.986.743 209.67 209.67 0 0 0-8.983.038l-8.954.35-8.991.332a106.15 106.15 0 0 1-9.027-.12zm77.764-16.615c1.29-.247 1.472-.229 2.797-.334l4.748-.202h5.576c1.329.054 3.105.46 4.41.651-1.301.2-4.359-.079-5.683 0-1.312.087-3.106-.022-4.421 0l-4.63.076-2.797-.191zM41.053 47.697c1.29-.247 1.472-.229 2.797-.334l4.748-.202h5.576c1.328.054 3.105.46 4.41.651-1.301.2-4.359-.079-5.684 0-1.312.087-3.106-.022-4.42 0l-4.629.077-2.797-.191zm-2.872-.154c-1.29-.247-1.472-.229-2.797-.334l-4.748-.202H25.06c-1.328.054-3.105.46-4.41.651 1.301.2 4.359-.079 5.684 0 1.312.087 3.106-.022 4.42 0l4.63.076 2.797-.191zm.101-12.325c1.29-.247 1.472-.229 2.797-.334l4.748-.202h5.576c1.329.054 3.105.46 4.41.651-1.301.2-4.359-.079-5.683 0-1.312.087-3.106-.022-4.42 0l-4.63.076-2.797-.191zM223.665-.892c1.29-.247 1.472-.229 2.797-.334l4.748-.202h5.576c1.328.054 3.104.46 4.409.651-1.301.2-4.359-.079-5.683 0-1.312.087-3.106-.022-4.421 0l-4.629.076-2.797-.191zm-107.627-.691c1.289-.247 1.472-.229 2.796-.334l8.093-.317 7.469.191c1.328.054 3.104.46 4.409.651-1.301.2-4.359-.079-5.683 0-1.312.087-4.998-.214-6.313-.191l-7.975.192-2.796-.191zm-80.865 7.26c1.29-.247 1.472-.229 2.797-.334l8.093-.317 7.468.191c1.328.054 3.105.46 4.41.651-1.301.2-4.359-.079-5.684 0-1.312.087-4.998-.214-6.313-.191l-7.975.192-2.797-.191zm3.819 10.715c1.29-.247 1.472-.229 2.797-.334l5.66-.317 7.468.191c1.328.054 3.105.46 4.41.651-1.301.2-4.359-.079-5.684 0-1.312.087-4.998-.214-6.313-.191l-5.542.192-2.797-.191zm178.625-9.864c1.289-.247 1.472-.229 2.796-.334 1.316-.109 6.675-.104 7.992-.126l7.755.125h5.204c-1.301.2-5.153.571-6.477.651-1.312.087-5.286-.148-6.6-.125h-7.874l-2.796-.191zM272.6 9.921c-1.29-.247-1.472-.229-2.796-.334l-8.094-.317c-1.317-.022-6.146.135-7.468.191-1.328.054-3.104.46-4.41.651 1.302.2 4.359-.079 5.684 0 1.312.087 4.998-.214 6.313-.191l7.975.192 2.796-.191zm-52.014 3.501c1.29-.247 1.473-.229 2.797-.334l8.093-.317 7.468.191c1.329.054 3.105.46 4.41.651-1.301.2-4.359-.079-5.683 0-1.312.087-4.999-.214-6.313-.191l-7.975.192-2.797-.191zM98.119 19.7c.718-.246 1.706-.386 2.45-.386h2.648a22.31 22.31 0 0 1 2.322-.108c.797-.003 1.591.07 2.363.216-.721.238-1.243.14-2.011.278-.748.14-1.909.076-2.674.15s-2.093 0-2.868 0c-.796.005-1.399-.15-2.23-.15zM56.285 51.814c.718-.246 1.706-.386 2.45-.386h2.648a22.3 22.3 0 0 1 2.322-.108c.797-.003 1.591.07 2.363.216-.721.238-1.243.141-2.011.278-.748.139-1.91.076-2.674.15s-2.093 0-2.868 0c-.796.005-1.4-.15-2.23-.15zm14.058 4.272c-.603-.204-1.433-.32-2.057-.32-.837 0-1.355-.016-2.223 0l-3.198.141c-.669-.002-1.336.058-1.984.179.606.198 1.043.117 1.688.23.628.116 2.851.227 2.851.227l3.05-.333c.669.004 1.175-.125 1.873-.125zm150.046-11.65c.717-.246 1.706-.386 2.45-.386h2.648a22.45 22.45 0 0 1 2.322-.108c.797-.003 1.591.07 2.362.216-.721.238-1.242.141-2.01.278-.748.139-1.91.076-2.674.15s-2.093 0-2.868 0c-.796.005-1.4-.15-2.23-.15zM45.134 9.054c.718-.246 1.706-.386 2.45-.386h2.648a22.29 22.29 0 0 1 2.322-.108 12.49 12.49 0 0 1 2.363.216c-.721.238-1.243.141-2.011.278-.748.139-1.91.076-2.674.15s-2.093 0-2.868 0c-.796.005-1.4-.15-2.23-.15zm5.152 3.544c.718-.246 1.707-.386 2.45-.386h2.648c.77-.076 1.546-.112 2.322-.108.797-.003 1.591.07 2.363.216-.721.238-1.243.14-2.011.278-.748.139-1.91.076-2.674.15s-2.093 0-2.868 0c-.796.005-1.4-.15-2.23-.15zm196.573-2.615c-.717-.246-1.706-.386-2.45-.386h-2.647a22.48 22.48 0 0 0-2.323-.108 12.49 12.49 0 0 0-2.362.216c.721.238 1.242.141 2.01.278.748.139 1.91.076 2.675.15s2.092 0 2.867 0c.796.005 1.4-.15 2.23-.15zm-.53 3.502a8.36 8.36 0 0 1 2.45-.386h2.648a22.31 22.31 0 0 1 2.322-.108c.797-.003 1.591.07 2.363.216-.721.238-1.243.141-2.011.278-.748.139-1.909.076-2.674.15s-2.093 0-2.868 0c-.796.005-1.399-.15-2.23-.15zm-10.405 7.101c.718-.246 1.706-.386 2.45-.386h2.648c.769-.076 1.545-.113 2.322-.108.797-.003 1.591.07 2.363.216-.722.238-1.243.14-2.011.278-.748.14-1.91.076-2.674.15s-2.093 0-2.868 0c-.796.005-1.4-.15-2.23-.15zm-135.033 2.032c1.04-.195 1.332-.113 2.399-.2 1.051-.092 2.915.025 3.975 0l3.527-.224c1.076.047 1.759.03 2.804.224-1.039.195-2.096.337-3.162.425l-3.169.176c-1.06.024-2.122.014-3.184-.04a23.23 23.23 0 0 1-3.19-.361zm-15.373.29c.661-.19 1.643-.186 2.346-.25l2.163-.113c.671-.015 2.658.092 3.329.112h3.396c-.592.308-4.297.281-5.001.401-.683.126-1.445-.01-2.148 0-.693.013-1.343-.073-2.029-.15-.701-.074-1.396.193-2.055 0zM74.132 52.969c.661-.19 1.643-.186 2.347-.25l2.163-.113c.671-.015 2.658.092 3.329.112h3.396c-.592.307-4.297.281-5.001.4-.683.126-1.445-.01-2.148 0-.693.013-1.343-.074-2.029-.15-.701-.074-1.396.193-2.055 0zm16.891-9.708l3.385-.151 3.341-.101 3.369-.05 3.422.085-3.322.34-3.385.166c-1.142.03-2.288.025-3.428-.014l-3.382-.275h0zm-31.629-7.749c1.081-.309 2.567-.67 3.683-.713h3.717l4.123-.262c1.144-.007 1.806.111 2.94.175l-3.322.34-3.385.166-3.667.094c-1.151-.036-2.805.013-4.089.2zM26.818 51.844l3.819-.39c1.116-.042 10.795-.001 11.911-.028s3.416.002 4.546 0c1.145-.007 1.806.111 2.94.175a52.32 52.32 0 0 1-3.322.34c-1.119.083-3.027.135-4.163.163-1.142.03-10.366-.097-11.506-.137-1.151-.036-3.008.139-4.224-.123zm85.714-8.831c1.064-.241 1.698-.56 2.796-.69 1.087-.136 1.919.072 3.025 0 1.1-.073 2.915.009 4.022 0l3.94.133c-1.07.24-2.837.237-3.94.367-1.088.136-2.113.116-3.208.186l-3.291.124a33.53 33.53 0 0 1-3.344-.12zm-3.204 3.647l2.016-.337c.615-.061.823.095 1.446.077h1.519c.645.033 1.385.038 1.992.168-.6.131-1.221.227-1.853.288l-1.858.119a22.4 22.4 0 0 1-1.882-.027c-.644-.033-.772-.16-1.38-.289zm-88.806-7.396l2.016-.337c.615-.061.823.095 1.446.077h1.519c.645.033 1.385.038 1.992.169-.6.131-1.221.227-1.853.288l-1.858.119a22.35 22.35 0 0 1-1.881-.027c-.644-.033-.773-.16-1.38-.289zm244.722-19.206l2.016-.337c.615-.061.823.095 1.446.077h1.519c.645.033 1.385.038 1.992.168-.6.131-1.221.227-1.853.288l-1.858.119a22.36 22.36 0 0 1-1.882-.027c-.644-.033-.772-.16-1.38-.289zm-153.896-.715c.508-.161 1.041-.276 1.588-.34.514-.064 1.035.006 1.556 0h2.484l2.99.34c-.486.205-2.055.252-2.602.34-.521.086-2.338-.006-2.872 0s-1.052.184-1.579.105a6 6 0 0 1-1.565-.445zm-72.663 4.344a8.65 8.65 0 0 0-1.588-.34c-.515-.064-1.035.006-1.557 0h-2.483l-2.991.34c.486.205 2.055.253 2.602.34.521.086 2.338-.006 2.872 0s1.052.184 1.579.105a5.99 5.99 0 0 0 1.566-.445zm197.931 20.738a16.71 16.71 0 0 1 2.485-.159l3.261-.194 4.57.375c-1.183.163-3.753.23-4.3.318-.521.086-2.889 0-3.531 0-.864 0-1.698-.142-2.485-.34z"/><use xlink:href="#D"/><path d="M137.875 29.497a16.71 16.71 0 0 1 2.485-.159l3.261-.194 4.57.375c-1.183.163-3.753.23-4.3.317-.521.086-2.889 0-3.531 0-.865 0-1.698-.142-2.485-.34z"/><use xlink:href="#D" x="99" y="-12.855"/><path d="M91.835 8.487c1.053-.23 1.854-.212 2.94-.33 1.436.097 2.011-.059 3.092-.115l4.918-.137a25.17 25.17 0 0 1 3.276.252 30.14 30.14 0 0 1-3.209.535c-1.081.124-3.399-.054-4.48 0l-3.258.056a25.76 25.76 0 0 1-3.279-.26zm4.643 30.881c1.053-.23 1.854-.212 2.94-.331 1.436.097 2.011-.059 3.092-.115l4.918-.137a25.22 25.22 0 0 1 3.277.252 30.16 30.16 0 0 1-3.209.535c-1.082.124-3.399-.054-4.481 0l-3.257.056a25.76 25.76 0 0 1-3.279-.26zM27.089 27.751c1.053-.23 1.854-.212 2.94-.33 1.436.097 2.011-.059 3.092-.115l4.918-.137a25.2 25.2 0 0 1 3.276.252 30.15 30.15 0 0 1-3.209.535c-1.081.124-3.399-.054-4.48 0l-3.258.056a25.54 25.54 0 0 1-3.279-.26zm226.272 16.62c1.053-.23 1.854-.212 2.94-.331 1.436.097 2.011-.059 3.092-.115l4.918-.137c1.1.013 2.196.098 3.276.252a30.17 30.17 0 0 1-3.208.535c-1.082.124-3.4-.054-4.481 0l-3.257.056a25.58 25.58 0 0 1-3.28-.26zm-2.332-41.999c-.945.129-5.109.219-6.067.27l-5.598.132-2.809.06c-.961.016-1.922-.005-2.879-.062a14.01 14.01 0 0 1 2.754-.719c.945-.155 1.967.031 2.934 0h6.326c.969.084 3.21-.128 4.123.128l1.216.19zM174.93 20.529c-.945.129-5.11.219-6.068.27l-5.598.132-2.809.06a37.76 37.76 0 0 1-2.879-.062c.872-.328 1.798-.569 2.755-.719.944-.155 1.967.031 2.933 0h6.327c.969.084 3.21-.128 4.122.128l1.217.19zm65.286 7.622c-.945-.129-5.109-.219-6.068-.27l-2.809-.132-2.808-.06a37.88 37.88 0 0 0-2.88.062 14.02 14.02 0 0 0 2.755.719c.944.155 1.967-.031 2.933 0h3.538c.969-.084 3.21.128 4.122-.128l1.217-.19zm-35.955-3.604c-.945-.129-5.11-.219-6.068-.27l-2.809-.132-2.809-.06a37.76 37.76 0 0 0-2.879.062 14 14 0 0 0 2.755.719c.944.155 1.967-.031 2.933 0h3.538c.969-.084 3.21.128 4.122-.128l1.217-.19zm30.142-14.424c-.945-.129-5.109-.219-6.067-.27l-2.809-.132-2.809-.06c-.96-.016-1.921.005-2.879.062.872.328 1.798.569 2.755.719.944.155 1.967-.031 2.933 0h3.537c.969-.084 3.211.128 4.123-.128l1.216-.19zM136.98 3.44c-2.635-.396-2.587-.473-5.237-.162-1.236.15-5.243-.044-6.472 0-.226.001-1.582.357-1.807.335.366.239 3.512.231 3.99.307a10.44 10.44 0 0 0 1.408.144l1.333.05 1.368.018c.914-.009 1.827-.065 2.73-.168a15.99 15.99 0 0 0 2.687-.524zm-5.812 18.932c-2.636-.396-2.587-.473-5.238-.162-1.235.149-5.243-.044-6.471 0-.227.001-1.583.357-1.808.335.366.239 3.513.231 3.99.307.463.079.934.128 1.409.144l1.333.05 1.367.018a26.51 26.51 0 0 0 2.731-.168c.919-.1 1.821-.275 2.687-.524zm-35.954 4.195c-2.636-.396-2.587-.473-5.238-.162-1.235.149-5.243-.044-6.471 0-.227.002-1.583.357-1.808.335.366.239 3.513.231 3.99.307a10.44 10.44 0 0 0 1.408.144l1.333.05 1.368.018a26.48 26.48 0 0 0 2.73-.168c.919-.1 1.821-.275 2.687-.524zm32.015 11.996c-2.636-.396-2.588-.473-5.238-.162-1.236.149-5.243-.044-6.471 0-.227.001-1.583.357-1.808.335.366.239 3.512.231 3.99.307a10.43 10.43 0 0 0 1.408.144l1.333.05 1.368.018a26.49 26.49 0 0 0 2.73-.168c.92-.1 1.821-.275 2.688-.524zm127.079-22.37c2.635-.396 2.587-.473 5.237-.162 1.236.149 5.243-.044 6.472 0 .226.001 1.582.357 1.807.335-.366.239-3.512.231-3.99.307a10.43 10.43 0 0 1-1.408.144l-1.333.05-1.368.018a26.51 26.51 0 0 1-2.73-.168c-.92-.1-1.821-.275-2.687-.524zm-206.77-3.556c-.589-.201-1.295-.133-1.933-.216l-2.226-.212c-.626-.014-.931-.058-1.553 0l-3.164.364c.606.167 2.637.174 3.277.238l1.875.118 1.875-.04a12.94 12.94 0 0 0 1.849-.252zm115.898 16.641c-.589-.201-1.295-.133-1.934-.216-.619-.085-5.05.012-5.679 0s-.931-.058-1.553 0l-3.163.364c.605.167 2.637.174 3.277.238.621.068 2.409-.011 3.037 0a110.4 110.4 0 0 0 4.165-.134c.626-.04 1.245-.124 1.85-.252zm-4.085-25.476l-4.193-.466-4.203-.244-4.245-.024a36.59 36.59 0 0 0-4.255.334l4.195.452 4.2.236 4.224.03c1.44-.026 2.873-.133 4.277-.318zm-41.429 22.931l-4.192-.466-4.203-.244-4.246-.024a36.6 36.6 0 0 0-4.255.334l4.196.452 4.199.236 4.224.03a38.04 38.04 0 0 0 4.277-.318zm-55.941 1.075l-4.192-.466-4.203-.244-4.245-.024a36.62 36.62 0 0 0-4.256.334l4.196.452 4.199.236 4.224.03a38.07 38.07 0 0 0 4.277-.318zm13.31 19.846l-3.26-.363c-1.095-.087-2.493.051-3.588.017l-3.302-.019a28.5 28.5 0 0 0-3.31.26l3.263.352 3.266.184c1.094.04 2.509-.16 3.604-.184a29.28 29.28 0 0 0 3.326-.248zm175.231 4.291l2.264-.367 2.27-.192 2.293-.019a13.74 13.74 0 0 1 2.298.263l-2.266.356-2.268.186-2.281.024a14.28 14.28 0 0 1-2.31-.25zM233.4 16.615c1.34-.196 2.781-.153 4.152-.259l4.1-.288c1.371-.05 3.154.154 4.528.188l3.953.199-4.072.439c-1.367.105-3.046-.045-4.409 0l-4.1.029c-1.399-.025-2.789-.129-4.152-.309zm-35.977-4.946l-4.552-.325c-1.514-.056-3.051.216-4.566.224s-3.005-.252-4.519-.178l-4.547.392 4.548.396c1.514.071 3.022-.099 4.54-.107l4.559.059 4.537-.46zm36.654 12.827l4.552-.325c1.514-.056 3.051.216 4.566.224l4.52-.178 4.546.392-4.548.396c-1.514.071-3.022-.099-4.54-.108s-3.044.148-4.559.059l-4.537-.46zM178.3 20.053c1.509-.167 3.621.05 5.145 0 1.514-.056 1.527-.333 3.041-.325l5.452.046 4.547.392-4.548.396c-1.514.071-3.022-.099-4.54-.108s-3.044.148-4.559.059l-4.538-.46zm66.571-14.015l4.552-.325c1.514-.056 3.051.216 4.566.224l4.519-.178 4.547.392-4.548.396c-1.514.071-3.022-.099-4.54-.107s-3.044.148-4.559.059l-4.537-.46zm-89.513 1.784l-5.433-.272-5.42-.092-2.706.026-2.736.161-2.673.207-6.506.489c.854.263 4.756.319 5.677.379.912.068 2.644-.279 3.56-.284l2.68.003 2.709.024 5.43-.122 5.418-.518zM58.847 20.126l-5.433-.272-5.42-.092-2.705.026-2.736.161-2.674.207-6.505.489c.854.263 4.755.319 5.677.379.912.068 2.644-.279 3.56-.284l2.68.003 2.709.024 5.43-.122 5.418-.518zm-3.443 22.719l-5.433-.273-5.421-.093-2.705.026c-.897.02-3.193-.1-4.087-.026l-3.244.255c-.895.06-3.689.688-4.584.629.854.264 4.756.319 5.677.379.912.068 2.644-.279 3.56-.284l2.68.003 3.278-.003 6.285.004c1.82-.084 2.205-.356 3.993-.617zm7.026-4.089l-5.433-.272-5.42-.092-2.705.026-2.736.161-2.674.207-6.505.489c.854.263 4.756.319 5.677.379.912.068 2.644-.279 3.56-.284l2.68.003 2.709.024 5.43-.122 5.418-.518zM176.202 8.09c-.734-.256-1.493-.623-2.279-.626-1.376-.006-2.988.223-3.777.134-.796-.093-3.518-.177-4.324-.167A22.72 22.72 0 0 0 162 7.89c.762.197 3.565.029 4.352.16.766.131 2.537-.072 3.318.014s3.293.155 4.087.175a13.05 13.05 0 0 0 2.445-.148zm5.703 21.356c-.735-.256-1.493-.623-2.28-.626-1.376-.006-2.988.223-3.776.134-.797-.093-3.519-.177-4.325-.167-1.15.015-3.035.27-3.822.459.762.197 3.565.029 4.352.16.766.131 2.537-.072 3.318.014.786.091 3.293.155 4.088.175a13.06 13.06 0 0 0 2.445-.148zm-26.977-17.578c-1.006-.24-1.155-.484-2.205-.572-1.041-.093-3.244.035-4.292.035-1.041-.004-2.346-.241-3.382-.16-1.049.077-2.554.477-3.572.682 1.023.188 3.819.108 4.869.17l3.398.073 3.125-.025 2.059-.202zm100.964 12.754c1.006-.24 1.154-.484 2.205-.572 1.04-.093 3.243.035 4.291.035 1.042-.004 2.346-.24 3.382-.16 1.049.077 2.555.477 3.572.682-1.023.188-3.819.108-4.869.17l-3.397.073c-1.033.004-2.091.033-3.126-.025l-2.058-.202zm-24.587-4.175c-1.006-.24-1.154-.485-2.205-.573-1.04-.093-10.877.069-11.925.068-1.042-.004-2.212.094-3.247.174-1.05.077-2.69.142-3.707.348 1.022.188 3.818.108 4.868.17 1.037.066 2.365.069 3.398.073l10.76-.059c1.052-.053 1.023-.051 2.058-.202zm-6.22 16.097c1.006-.24 2.087-.33 3.32-.33h12.368c1.042-.004 1.042-.08 2.078 0l3.319.348c-1.023.188-3.818.108-4.869.17-1.036.066-2.891-.174-3.924-.17l-10.233.184-2.059-.202zm55.368-23.2c-1.002-.19-1.147-.379-2.196-.452-1.039-.078-3.244.007-4.292 0-1.041-.009-7.941 0-9.631-.287-1.05.053-2.764.493-3.784.645 1.019.15 3.816.107 4.866.16l9.85.077h3.126l2.061-.142zM200.915 3.182l-8.962.656c-2.973.218-6.107-.182-9.108-.046l-9.034.132c-3.02-.049-6.702.359-9.662-.086 3.012.052 6.674-.618 9.659-.694l8.953-.35c2.988-.136 6.121.328 9.127.268l9.027.12zm2.096 36.744l8.961.656c2.974.218 6.108-.182 9.108-.046l9.035.132c3.019-.049 6.702.359 9.662-.086-2.94-.694-6.675-.618-9.659-.694l-8.954-.35c-2.987-.136-6.121.328-9.127.268a106.08 106.08 0 0 0-9.026.12zm-86.17-9.701l-8.962.656c-2.974.218-6.107-.182-9.108-.046l-9.035.132c-3.019-.049-6.702.359-9.661-.086 3.011.052 6.674-.618 9.659-.694l8.954-.35c2.987-.136 6.121.328 9.127.268l9.027.12zm30.548-5.522l7.745.046c2.974.218 6.107-.182 9.108-.046l9.037-.023 9.662-.086-9.659-.694-12.089-.233c-1.842.15-4.31.673-7.316.613-3.01-.088-3.485.255-6.488.423zm96.443 15.763l7.745.046c2.974.218 6.108-.182 9.108-.046l9.038-.023 9.661-.086c-2.098-.429-7.021-.703-10.005-.779s-8.739.486-11.726.35c-1.842.15-4.359 0-7.705 0-2.517 0-3.113.37-6.116.538zm-49.244-24.428c-1.29-.247-1.473-.229-2.797-.334l-4.748-.202h-5.576c-1.328.054-3.104.46-4.409.651 1.301.2 4.359-.079 5.683 0 1.312.087 3.106-.022 4.42 0l4.63.076 2.797-.191zm73.058 16.021c-1.289-.247-1.472-.229-2.796-.334l-4.748-.202h-5.576c-1.328.054-3.105.46-4.41.651 1.301.2 4.359-.079 5.684 0 1.311.087 3.106-.022 4.42 0l4.63.076 2.796-.191zm-5.204-3.653c-1.29-.247-1.472-.229-2.796-.334l-4.748-.202h-5.576c-1.329.054-3.105.46-4.41.651 1.301.2 4.359-.079 5.684 0 1.311.087 3.106-.022 4.42 0l4.63.076 2.796-.191zm-88.358-12.38c-.718-.246-1.707-.386-2.45-.386h-2.648a22.31 22.31 0 0 0-2.322-.108c-.797-.003-1.591.07-2.363.216.721.238 1.243.14 2.011.278.748.139 1.909.076 2.674.15s2.093 0 2.868 0c.796.005 1.399-.15 2.23-.15zm73.059 16.019c-.718-.246-1.707-.386-2.45-.386h-2.648a22.48 22.48 0 0 0-2.323-.108 12.49 12.49 0 0 0-2.362.216c.721.238 1.243.141 2.01.278.748.14 1.91.076 2.675.15s2.092 0 2.867 0c.797.005 1.4-.15 2.231-.15zm-71.91 1.382c-.717-.246-1.706-.386-2.45-.386h-2.647a22.48 22.48 0 0 0-2.323-.108c-.796-.003-1.59.07-2.362.216.721.238 1.242.141 2.01.278.748.139 1.91.076 2.675.15s2.092 0 2.867 0c.797.005 1.4-.15 2.23-.15zm65.895 17.977c-.718-.246-1.858-.268-2.602-.268-.996 0-2.106-.275-2.872-.351s-2.926.13-3.703.135c-.797-.003-1.591.07-2.363.216.722.238 1.243.141 2.011.278.748.139 3.666.067 4.431.14s2.093 0 2.868 0c.796.005 1.399-.15 2.23-.15zm-91.307-14.83c1.041-.195 1.332-.113 2.4-.2 1.05-.092 2.915.025 3.975 0l7.447-.224c1.076.047 1.759.03 2.804.224a30.8 30.8 0 0 1-3.162.425c-1.055.092-6.031.151-7.089.176a42.86 42.86 0 0 1-3.185-.04 23.17 23.17 0 0 1-3.19-.361zm35.784-.254c-.661-.19-1.642-.186-2.346-.25l-2.163-.113c-.671-.015-2.658.092-3.328.112-.695.018-2.708-.071-3.396 0 .591.307 4.296.281 5.001.401.683.126 1.445-.01 2.148 0 .694.013 1.344-.074 2.029-.15.701-.074 1.397.193 2.055 0zm5.984 3.016l-2.877-.128-2.84-.086-2.864-.042a46.66 46.66 0 0 0-2.909.072l2.824.289 2.877.141 2.914-.012 2.875-.234h0zM27.224 60.195l-2.877-.128-2.84-.086-2.863-.043c-.973-.006-1.945.018-2.909.072l2.824.289 2.877.141 2.914-.012 2.875-.234h0zm235.43-12.085l-2.635-.257-6.925-.046c-.949-.023-1.898.101-2.859.099-.973-.006-2.128.15-3.092.204.922.125 2.049.09 3.007.157.951.07 1.908-.024 2.873 0l6.757.076 2.874-.234zM147.439 15.994c-1.063-.241-1.697-.56-2.795-.69-1.087-.136-1.92.072-3.026 0-1.1-.073-2.914.009-4.021 0a46.19 46.19 0 0 0-3.94.133c1.069.24 2.837.237 3.94.367 1.087.136 2.113.116 3.208.186l3.29.124 3.344-.12zm54.744 13.609c-1.064-.241-1.698-.56-2.796-.69-1.087-.136-1.92.072-3.026 0-1.099-.073-2.914.009-4.021 0a46 46 0 0 0-3.94.133c1.069.24 2.837.237 3.94.367 1.088.136 2.113.115 3.208.186l3.29.124 3.345-.12zm42.586 18.768c-1.064-.24-1.698-.559-2.796-.69-1.087-.136-1.92.072-3.026 0l-7.515-.133a46.11 46.11 0 0 0-3.94.133c1.069.24 2.837.236 3.94.367 1.088.136 2.113.115 3.208.186l6.784.256 3.345-.12zm-89.8-9.16c-.6-.131-.967-.095-1.599-.156-.615-.061-1.371.018-1.994 0s-1.217-.217-1.842-.181c-.644.033-.931.115-1.538.246.6.131 1.221.227 1.853.288l1.858.119 1.882-.027c.644-.033.772-.16 1.38-.289zm5.887-23.544c-.508-.161-1.041-.275-1.588-.34-.514-.064-1.035.006-1.556 0h-2.483l-2.991.339c.486.205 2.055.253 2.602.34.521.086 2.338-.006 2.872 0s1.052.184 1.579.105a5.98 5.98 0 0 0 1.565-.445zm35.633 17.589a8.56 8.56 0 0 0-1.588-.34c-.514-.064-1.035.006-1.557 0h-7.128l-6.539.34c.486.205 2.055.252 2.602.34.521.086 10.532-.006 11.065 0 .538.006 1.053.184 1.58.105a6 6 0 0 0 1.565-.445zm-22.293-21.677c-1.062-.204-1.862-.168-2.952-.261-1.431.131-2.012-.012-3.095-.042l-4.922-.02a24.96 24.96 0 0 0-3.264.33c1.061.21 2.14.363 3.231.458s3.395-.135 4.478-.106l3.258-.021a25.4 25.4 0 0 0 3.266-.338zm43.234 13.089c1.062-.204 1.862-.168 2.952-.261 1.431.131 2.012-.012 3.095-.042l4.922-.02a24.96 24.96 0 0 1 3.264.33 30.39 30.39 0 0 1-3.231.458c-1.086.099-3.395-.134-4.478-.106a46.43 46.43 0 0 1-3.258-.021 25.4 25.4 0 0 1-3.266-.338zm63.803 23.014c-1.062-.205-1.862-.168-2.952-.261-1.431.131-2.012-.012-3.095-.042l-4.922-.02a25.08 25.08 0 0 0-3.264.33 30.34 30.34 0 0 0 3.231.458c1.091.095 3.395-.135 4.478-.106l3.258-.021a25.38 25.38 0 0 0 3.266-.338zm-53.774-31.105c-1.062-.205-1.862-.168-2.952-.261-1.432.131-2.013-.012-3.096-.042l-4.921-.02a25.08 25.08 0 0 0-3.264.33 30.46 30.46 0 0 0 3.23.458c1.086.098 3.395-.135 4.478-.106l3.259-.021c1.1-.043 2.192-.156 3.266-.338z"/><path d="M136.756 58.08l-.113 2.44 1.865.288-.163-2.569 1.075-1.606s1.019.204 2.17-.13 2.115-1.658 2.297-1.86c0-.656 1-1.64 1.5-2.05 0 0-1.045-.286-1.764 0-.653.26-2.323-.733-1.692-.757 2.612-.102 3.552-1.011 3.552-1.011l-4.204-.124s.652-.117 4.695-1.104c.855-.209.104-.553.104-.553s-3.587.204-6.658-.141c-.491-.055 5.967-.991 5.967-.991l.261-.239-2.025-.392c-4.203.631-6.273-.586-6.273-.586 4.182-.231 7.193-1.567 7.193-1.567s-.517-.401-1.764-.278c-2.264.223-5.755-.142-5.755-.142.978-1.38 4.795-.897 4.795-.897-.42-.673-2.206-1.002-5.072-1.374.025-.398-1.092-1.71-1.5-1.763l-1.858.028s-1.218-.028-1.218.974c-2.437 1.095-1.016 2.144-1.88 2.306s-3.683 1.461-2.38 3.06c0 0-.796 4.634 1.011 6.529 1.291 1.354 4.467 1.893 4.467 1.893s.528 1.063 1.076 1.577c.792.744 2.291 1.04 2.291 1.04zm-3.952-15.44c-.135 1.076-.705 1.751-1.727 2.066-2.743.847-1.822 2.334-1.822 2.334s0 3.969 1.592 6.418c-.556-.297-.561-.358-.902-.612-1.515-1.132-1.131-5.901-1.131-5.901s-.671-1.652 1.86-2.505c1.043-.352 1.736-.724 2.13-1.8zm5.39 13.863l.314-2.018c.268.158.63.576.511.737-.261.353-.575 1.039-.825 1.281zm-2.947-.788s1.163 1.354 1.761 1.085v-1.905c-.502.82-1.761.82-1.761.82z" class="C"/><path d="M139.42 39.68c-1.771-.021-6.031 1.02-6.031 1.02l1.858-.028c1.185-.018 3.975-.761 3.975-.761 2.163.799 6.596 4.757 7.926 8.516.272 1.072.509 3.354-.717 3.911s-1.207.4-1.044.252c-.5.41-1.5 1.394-1.5 2.05.229-.252 1.305-.883 2.837-1.766 1.226-.707 1.163-3.26.978-4.448-1.174-3.987-5.923-7.834-8.282-8.748zm25.925 9.323c-.134.719-.784 1.265-1.566 1.265-.739 0-1.361-.488-1.539-1.15.845.053 2.65.104 3.105-.116zm-.065-.759c0-.612-.814-1.054-1.501-1.054-.739 0-1.361.488-1.539 1.15l.836-.017 2.204-.078z"/><path d="M169.354 38.621l1.806.245 1.539-.245.11 3.406 2.369.111 1.384.705h-6.908l.326.241h7.03l.491.271-7.003.174.46.241 7.022-.144.625.365-7.244.243.671.39 7.328-.177 1.209.771-8.172-.093.412.705h7.951l.213.681-3.963.173v.564l-.729-.564h-3.213l.269.649 7.836-.183.236.755-1.681.099v1.207l-.521-1.207-1.671.118-3.873.216.288 1.021 7.85-.201.242.773-2.836.111.153 1.076s-.296-.965-1.248-1.076c-1.392-.031-3.931.111-3.931.111l.364.965h7.903l.327 1.153h-2.456v2.505l-13.926 2.985v-4.491h-5.103v5.79l-4.93 1.819v-8.602l2.079-6.95 3.753-1.974-4.24 1.77-2.167 7.154h-1.88c.844-2.375 1.88-4.373 2.455-7.544l7.385-2.598 6.043 3.192 2.244 6.943 1.42.007s-1.023-1.81-2.494-7.061c-2.382-.983-6.1-3.192-6.1-3.192h4.259l.237-3.406zm3.075.359l-1.099.188v.212l.82-.057.118 2.375.161.049V38.98zm-6.362 9.654c0 1.311-.933 2.264-2.288 2.264-1.75.065-2.316-1.021-2.316-2.169 0-1.311 1.016-2.248 2.316-2.373 1.702.125 2.036.739 2.288 2.278z" class="C"/><path d="M161.655 54.433v3.461l1.544-1.949-1.544-1.512zm3.731-.603l-1.89 1.587-1.841-1.642 3.731.055zm-1.708 2.32l-1.832 2.218v.566l3.453-1.039-1.621-1.744zm.259-.353l1.631 1.318v-2.876l-1.631 1.559zm-47.573.608v1.186h-1.302v-1.372c-.958 0-2.828-.371-2.644-1.853.23-1.853 3.065-2.298 3.716-2.446.522-.119 2.246.31 2.759 1.371.355.734.062 1.334 0 2.076s-1.711 1.001-2.529 1.038zm6.258.708v1.06l.92.121v-1.312c.676 0 1.996-.262 1.867-1.309-.163-1.309-1.506-1.997-1.966-2.102-.368-.084-1.748.178-2.11.928-.251.518-.54 1.072-.497 1.595s1.209.992 1.786 1.018zm93.767-3.166v1.461l1.268.166v-1.809c.932 0 2.753-.361 2.574-1.804-.224-1.804-2.076-2.754-2.71-2.898-.508-.115-2.41.246-2.91 1.28-.345.715-.744 1.478-.684 2.2s1.666 1.368 2.462 1.404z"/><path d="M185.833 53.127s-.753.193-1.111-.137.699-2.627 0-4.565c1.06.485 1.06 0 1.749.196 1.315-1.33 1.094-2.386 1.896-3.065.506-.429 7.335-.789 9.037-.377.106.129 1.065.77 1.242 1.928-.886 1.647-.045 3.174-.09 3.993.277.301.309 1 .351 1.187-.1.229-.311-.44-.311-.44.02-.297 0-.412-.04-.747.003-.194-.477-1.627-.475-3.179-.042.83-.083 1.293.087 2.263l.315 1.045-.402 2.059h-.733l.331-1.853a4.38 4.38 0 0 1-.508-.263l-.58 2.116h-.804l.497-1.853c-.3-.168-.932-.677-1.064-1.372l-1.543.533-2.305-.048.419 1.299.284 1.921h-.828l-.401-1.578-.757-1.304-.219 1.435-.514 1.447h-.875l.401-1.447.106-1.435s-.621.04-.956-.137c-.407 1.553-2.199 2.378-2.199 2.378zm1.761-4.506c-.134.677-.706 1.204-1.123 1.442-.282-.458.547-.533 1.123-1.442zm8.776-2.447s-4.156-.618-6.281 0c1.608-.732 5.995-.943 7.082-.714.388.453.65 1.331.508 1.858 0-.213-1.309-1.144-1.309-1.144zm12.829 7.437l.633-.078c.067-.674.078-2.331-.256-2.633-.202.144-.633-.03-.741.143-.135-.552-.477-1.679-.768-1.773-.364-.117-4.649-.365-5.619-.13s-.566 3.572-.673 4.054c-.087.386-.036.204 0 .065l.215-3.063c.117.382.326 1.285.229 1.838l-.229.495.229 1.173h.418l-.189-1.056c.078-.033.18-.084.289-.15l.331 1.206h.458l-.283-1.056c.171-.096.531-.386.607-.782l1.051.391 1.441-.117-.539.743-.161 1.095h.471l.229-.899.431-.743.418 1.642h.499l-.229-1.642.485-.078 1.253 1.355zm-.957-2.568c.099.217.356.686.593.822s-.297-.491-.593-.822zm-5.416-1.395c.301-.229 2.757-.096 3.947 0-.916-.417-3.328-.509-3.947-.378-.496.104-.459.73-.378 1.03 0-.122.076-.422.378-.652z" class="C"/><path d="M206.773 49.649c-1.19-.096-3.646-.229-3.947 0s-.378.53-.378.652c-.081-.3-.118-.926.378-1.03.619-.13 3.031-.039 3.947.378zm1.469 1.394c.099.217.356.686.593.822s-.297-.491-.593-.822zm-18.382 3.209l-8.89.643c.572.123 1.347.249 2.273.35 3.278.358 8.462.403 13.344-1.123a150.71 150.71 0 0 0-6.727.129zm-35.956 7.406a.96.96 0 0 1-.003.107l1.031-.494c-.299-.045-.285-.996-.241-1.466-.665.772-.771 1.545-.787 1.852z"/><path d="M152.082 58.915c.86 1.93.938 3.019.869 3.322l.95-.472.003-.107c-.016-.998-1.207-2.234-1.822-2.743z"/><path d="M146.151 64.089c2.437-.408 4.822-.806 6.8-1.852l.95-.472 1.031-.494c9.038-4.255 18.412-6.587 27.421-7.625 1.389.418 4.825.886 7.454-.581 7.502-.311 14.548.196 20.748 1.134 0 0 1.799-.221 1.914-.889.48.492.691 1.316.691 1.316 5.767 1.021 10.689 2.395 14.411 3.77-.716.317-1.461.101-2.097-.083-.477-.138-.893-.258-1.189-.123-.922-.176-2.648-.658-4.52-1.181-2.562-.716-5.397-1.509-6.816-1.695-5.019-.659-10.343-1.172-16.362-1.191a150.71 150.71 0 0 0-6.727.129c-2.936.122-5.903.32-8.89.643-5.343.579-9.735 2.041-14.864 3.749-3.567 1.187-7.489 2.493-12.336 3.704-.161.083-.293.188-.444.308-.454.362-1.08.861-3.2 1.306-2.53.847-4.597 1.023-6.622 1.195-1.169.099-2.323.197-3.545.423 1.953-.783 4.092-1.141 6.192-1.492z" class="C"/><path d="M87.751 58.591l1.841-.251 6.785-.788c-3.597-1.601-7.328.089-8.626 1.04z"/><path d="M180.615 59.808c-.379.163-1.019.332-1.477.332-.627 0-5.839.464-7.911.984 2.34-2.401 7.328-2.171 7.911-2.171.239 0 .706-.112.979-.229 1.097-.472 5.255-.401 9.111.23-5.698.297-7.247.268-8.613.855zm-17.76 5.185c-4.93 2.339-14.981 2.413-16.055 3.786 0-.872 3.095-1.832 3.319-2.078 7.212-1.04 10.895-2.858 12.736-1.708z" class="C"/><path d="M175.635 64.321c.255.241-.627.413-.764.18-.939.118-2.101-.195-2.971.131.009-.534-.65-1.609-.98-2.079.422 1.8 0 2.275 0 2.275s-.899-.295-1.477-.326c.498.298-1.906 1.458-1.906 1.458s.237-1.068-.262-2.301c-.334 1.715-1.03 2.557-.853 2.657-2.196.718-2.6 1.953-8.623 2.464h5.448c.895-.385 2.768-1.62 3.694-1.93.981-.329 2.576-.595 3.569-.891 1.128-.336 2.573.316 3.667-.12.66-.263 1.264-.002 1.91-.349 1.055-1.216 2.34.074 3.119-1.089-1.22-.47-3.146-.308-3.571-.079z"/><path d="M181.945 64.03c2.336.084 5.123-.733 6.787-.733 1.282 0 11.288-.084 13.225.733-3.05.371-11.906.455-13.225.455-1.662 0-4.374 0-6.787-.455z" class="C"/><path d="M208.617 64.431c-2.275 0-2.814 0 .221-1.134.767.585 1.93.716 2.673.801l.006.001c.487.055 1.412.164 2.098.082 1.314.436 1.95.74 3.26.932.647.095 1.231.334 1.88.41.509.06.881.326 1.352.433.305.069.611.061.914.16l1.621.562-14.025-2.246zm-97.138-.616l.051.002a4.57 4.57 0 0 1 .759.078c1.116.24 2.279.178 3.409.372.836.144 5.017 1.189 5.017 1.189l-7.016-.223c-.526 0-1.165-.069-1.677-.179-.157-.034-.334-.042-.583-.053l-.016-.001a3.88 3.88 0 0 1-.829-.102c-1.717-.458-4.149-.24-5.851.065-2.403.431-16.288 1.501-16.288 1.501l16.065-2.669c2.316-.415 4.637-.084 6.959.019z"/><path d="M88.761 62.441l-11.119 1.454c9.507-3.662 18.85-2.308 18.85-2.308l-7.73.854zm15.384-1.763c1.842.872 2.997 2.487 3.212 2.984l.036.082c.131.302-.016.651-.329.777a.62.62 0 0 1-.803-.318l-.032-.072c-.215-.497-.703-1.393-2.084-3.453z" class="C"/><path d="M109.804 59.898c-.786 1.4-1.122 3.03-1.906 4.367-.167.285-.542.385-.837.224s-.398-.524-.231-.81c.815-1.39 1.887-2.558 2.974-3.781zm93.419.264c-1.352 0-2.655.445-3.99.445l-5.857.049 5.857-1.237c1.33 0 2.64-.445 3.99-.445h2.263c1.3 0 2.577.297 3.875.297 1.991 0 1.458.501 5.348.501.796.342 2.93.473 4.162.985.772.472 1.07.314 3.77 1.941-1.434-.216-3.77-1.708-5.837-1.032 0-.557-.66-.587-2.095-.675-1.774-.11-3.57-.828-5.348-.828h-3.875-2.263z" class="C"/><path d="M202.312 57.137c.858 1.243 1.156 1.322 1.712 1.813-.152.293-.723.584-1.026.438-.106-.377-.624-.938-.686-2.251zm11.303.692c-.858 1.243-1.156 1.322-1.712 1.813.152.293.723.584 1.026.438.106-.377.624-.938.686-2.251z" class="C"/><path d="M214.272 58.436c-.844.566-1.314 1.364-1.314 1.67.152.293.704.323 1.007.176-.057-.622-.057-1.169.307-1.846zm-10.665.714c.365.199.826.389 1.122 0 .425-.559.12-.863.374-1.744-.528.371-.518 1.378-1.496 1.744zm-99.5-1.618h6.464s-.421-4.491-6.08-5.555c-.15-.028-.275.17-.584 0s-.41-.344-.625-.365c-4.608 0-7.097 6.338-7.097 6.338s3.314-.418 7.922-.418zm5.275-.733c-2.271-2.791-4.047-4.083-5.275-4.083 1.17.167 2.244 2.19 2.82 3.248-.633-1.837 2.455.835 2.455.835z" class="C"/><path d="M139.384 61.365s2.372 1.485 4.488 1.485 3.645 1.039.959-1.485c-.898-.844-.959-1.67-2.455-2.413-2.11.483-2.992 2.413-2.992 2.413zm30.274-22.891l1.502.204 1.269-.155-1.269-.196-1.502.147z"/><path d="M141.297 61.46c-9.867-2.745-20.31-3.881-29.919-4.1-5.452-.124-10.37-.146-15.002.191-2.336.17-4.679.496-6.785.788l-1.841.251c-1.678.221-15.516 2.26-26.811 3.998l.608.294c2.132-.305 4.908-.421 7.166-.749 12.44-1.807 25.812-3.749 29.273-3.404 18.648-1.084 29.556.693 38.163 2.858.173.114-1.627.077-4.125.026-4.838-.099-12.295-.252-13.129.531 8.287.078 16.689.88 21.305 1.32l1.752.165c-.856-1.295.661-.87 2.556-.338 1.656.465 3.6 1.01 4.503.56-2.017-.848-3.557-1.26-5.355-1.74l-2.361-.651zm106.472 5.593l-1.943 1.028-3.667 1.795-1.31.685c-3.261 1.75-7.103 2.892-10.599 4.108-.472.164-.968.336-1.388.606-.357.23-.613.54-1.03.695-.376.139-.787.213-1.117.275-.354.067-.814.108-1.106.333-2.504 1.934-6.138 2.284-8.959 3.777-.327.173-2.403.978-2.403.978l4.613-2.775c2.753-1.457 3.881-1.005 6.319-2.889.485-.375 1.028-.889 1.622-1.001.363-.068.321.166.547.082a24.12 24.12 0 0 0 1.717-.712c.353-.17.771-.333 1.185-.477 1.245-.434 2.095-.714 3.319-1.206 1.188-.477 2.144-1.226 3.391-1.581 1.692-.483 1.756-.465 3.577-1.192 1.555-.62 2.248-.671 4.207-1.895 1.369-.424 3.025-.637 3.025-.637zm32.745-5.387c-3.931-.084-6.674-.277-11.456.425-5.299 1.347-10.22 1.666-15.46 3.166l-2.771.816s.254-1.437 3.008-2.317c3.718-1.189 3.843-.36 6.618-.933 2.781-.575 6.476-1.009 8.281-1.819 1.287-.087 9.735-.136 11.78-.674 1.987.043 3.696 1.998 5.68 2.102 2.596.136 3.325.604 5.897.604.373 0 8.382 1.798 8.382 1.798l-6.556-.791c-2.618 0-4.341-.855-6.929-.99-1.986-.104-4.51-1.342-6.474-1.384zm-21.837 11.326c-2.457.81-5.095.941-7.475 1.963-4.329 1.043-9.738 3.877-13.352 5.352-.246.1-1.275.601-1.519.701-1.947.8-3.641.887-5.391 1.992-.313.197-1.369.408-1.369.408l1.453-.881c1.86-1.173 2.61-1.32 4.562-2.122.248-.102 1.612-.552 1.859-.653 3.428-1.399 6.116-3.003 10.796-4.797 2.214 0 2.586-.671 5.137-1.438 2.431-1.044 2.883-.677 5.39-1.501.373-.123.721-.082 1.098-.18 3.125-.812 6.113-1.115 9.259-1.959 1.521-.636 2.416-.832 3.582-.832 1.704 0 3.591.197 5.322 0 1.715-.195 3.015-.963 4.816-.963l6.623.604c1.249 0 1.264-.456 2.416-.326 1.165.131 2.281.653 2.281.653s-.303.131-.676.131c-1.222 0-.039.129-1.183 0-1.164-.131-.715.098-1.875.098-10.66.39-21.562.39-31.754 3.751z" class="C"/><path d="M258.677 69.713l.091 2.301c.373-.123.721-.082 1.098-.18-.044-.738-.97-1.861-1.189-2.122z"/><path d="M289.342 73.427c-1.648-.237-1.318-.89-3.625-.09 0 0-2.243.113-4.393.636-2.158.525-4.223 1.461-4.663 1.461-.878 0-1.067.386-1.74.661 2.922-.434 4.792-1.218 6.581-1.571 2.587-.511 4.778-.567 7.84-1.098zm18.871-4.982c1.663.081 1.473-.621 3.571.602 0 0 2.177.538 4.178 1.46 2.008.926 3.842 2.236 4.274 2.319.861.167.968.582 1.571.979-2.776-.981-4.45-2.105-6.132-2.792-2.432-.993-4.569-1.465-7.462-2.568zm-16.209.822c1.647-.237 1.318-.889 3.624-.09a27.04 27.04 0 0 0 4.393.636c2.158.525 4.223 1.461 4.664 1.461.878 0 1.067.387 1.74.661-2.922-.434-4.792-1.218-6.581-1.571-2.587-.511-4.778-.567-7.84-1.098zm-16.853-3.105l-.4 2.784-.38.359c-.128.339-.152.566-.684.566-.414 0-.421-.571-.372-.672l.27-.465c.128-.339.245-1.151 1.566-2.572zm14.025-.609c0 1.338.544 2.263.725 2.578l.364.66a.69.69 0 0 0 .919.254c.326-.175.554-.149.373-.465 0 0-.17-.684-.373-1.085-.488-.962-.919-.849-2.008-1.942zm-94.698 7.001c-.861 0-3.936-.028-4.308 0-1.504.112-3.562.554-5.065.688-3.609.322-3.316.253-7.033.275-.373.002-4.593.103-4.595-.257s3.546-.426 3.919-.428c3.656-.021 3.939-.565 7.522-.885l5.708-.764s2.889.764 3.852 1.371z" class="C"/><path d="M181.241 71.502c-.143.332.196 1.28.196 1.28s.49.08.629-.245c.185-.43.372-1.306.372-1.306s.23-1.224.686-1.991c-1.335.979-1.687 1.358-1.883 2.262z" class="C"/><path d="M181.433 72.839s.221-.095.221-.547c0-1.118-.557-.93-2.095-2.726 1.082 2.464 1.874 3.272 1.874 3.272zm116.432 26.172l-.304-2.056-.338-2.252-.507-2.448c-.304 1.763-3.545 3.494-6.353 3.689-20.053 1.388-33.081-1.975-44.659-4.964-5.026-1.297-9.778-2.525-14.713-3.262-.362-.054-.693-.249-1.022-.444s-.653-.385-1.006-.438c-.504-.076-1.135-.083-1.762-.09s-1.243-.014-1.734-.088l-39.284-6.285c-2.648-.45-5.147-.989-7.571-1.512l-6.578-1.323-31.816-5.285c.652-.958-2.335-.79-3.909-.585-1.53-1.284-8.516-1.582-11.817-1.571-29.812-3.493-51.698-1.936-109.96 5.396l-.381 1.365c58.678-7.392 80.454-8.948 110.178-5.465 6.426.753 13.223 1.742 20.844 2.959l1.608.854h3.651l21.347 3.616h.002.001l14.401 2.461 15.105 2.598 23.647 4.048c5.489.921 10.868 2.1 16.56 3.347 14.458 3.168 30.935 6.777 56.37 7.737z" class="C"/><path d="M.236 77.309l-15.826 2.652c4.796-.615 25.372-2.556 29.74-3.106l.381-1.365L.236 77.309zM251.3 60.167c-4.751 1.558-10.894 3.721-15.808 5.639l-9.324 2.463 8.824-3.398c3.479-1.357 5.487-2.303 8.504-3.42.769-.29.604-.673.425-.828-.767-.172-1.716-.322-2.759-.456-.575.072-1.808.123-2.146-.243-3.528-.358-7.388-.585-8.803-.834l-2.095-.62c1.359.239 4.009.405 8.011.563.822-.308 2.952-.704 4.898.171l8.608.26a123.59 123.59 0 0 1 6.74-2.015c.818-.726 3.252-2.03 6.445-1.443l1.253-.833 2.047.324a64.52 64.52 0 0 1 2.429-.266l2.08-.776 1.992.541c5.075-.128 40.495 4.017 71.197 24.423.048.02.097.039.147.056.893.317 1.891.261 0 0l-.429-.056c-25.914-14.053-46.475-21.494-73.797-23.127-7.323-.438-15.859 3.029-18.439 3.876zm-24.128 9.498c-12.979 5.544-19.025 7.899-36.851 9.27-.439 0 2.789-.626 3.025-.783 11.626-1.174 24.071-4.178 25.412-6.267.798-1.243 4.764-1.567 8.414-2.22z"/><path d="M60.126 62.27c-1.453-.641-2.921-1.288-4.518-1.288-.677 0-1.013.196-1.37.403-.229.133-.467.271-.808.366l-.986.322c-1.248.435-2.743.957-4 .418-2.117-.909-3.704-.987-6.082-.987-.088 0-.177-.001-.268-.001-1.013-.007-2.175-.015-2.841.843-.141.182-.398.465-.712.811-1.269 1.4-3.476 3.835-2.803 4.81l25.817-5.092-1.43-.605zm-18.17-.211c1.408-.076 4.488-.02 5.542.816-1.07-.087-3.677-.372-5.542-.816z" class="C"/><path d="M245.791 55.759c.388.441.304 1.077.777 3.689-.496.175-1.352 0-1.352 0s-.15-2.373.575-3.689z"/><path d="M248.207 57.309c.1 0 .188-.157.264-.415.683-2.303-1.692-4.513-4.036-3.731-.848.283-1.231 1.135-1.297 1.999l-.069.904c-.05.658.333 1.276.957 1.545l1.494.645c.811 0 1.876-.947 2.687-.947z"/><path d="M15.955 74.484c11.862-5.044 29.573-12.576 58.476-10.826-15.597.161-31.657 3.878-44.399 7.606-.559.163-.48.892.102.926 3.355.196 8.316.159 14.492-.338l-30.1 3.632.147-.454 1.282-.544z" class="C"/></g><g fill="#e11f1f"><path d="M177.647 22.068l-.217.406-.472.951c-.718 1.5-1.168 2.893-1.351 4.177-.02.138.01-.13 0 0-.084 1.083.116 2.302.69 2.855.437.392 1.085.724 1.943.995.847.261 1.644.19 2.391-.214 3.732-2.423 6.175-5.762 7.718-9.834.084-.223.77-1.492.574-1.318-.85 1.735-3.753 5.93-5.536 7.368.349-.437 1.503-1.972 1.927-2.927-1.059 1.302-2.452 2.625-3.479 3.499s-1.818 1.317-2.373 1.329c-.32-.04-.469-.325-.448-.855.035-.543.15-1.137.346-1.781s.384-1.149.564-1.515c2.777.078 4.651-3.024 5.241-4.585l.521-.424c-1.37 4.582-4.412 5.249-5.762 5.009 2.989.895 5.335-2.364 6.342-5.009.375-.953.543-1.819.575-2.213.033-.509-.231-.888-.794-1.139l-.588-.253c-.624-.312-1.153-.323-1.657-.421s-1.049.028-1.635.377c-.873.568-1.784 1.485-2.731 2.75-.645.854-1.234 1.764-1.766 2.731-.004.006-.007.013-.011.02.002.003.001.009-.012.022zm5.027-1.751c.531-.709.965-1.204 1.303-1.488-.071.559-.268 1.22-.59 1.983-.309.75-.709 1.419-1.201 2.008-.491.578-1.021.873-1.588.887.015-.185.233-.62.652-1.303.431-.685.906-1.381 1.424-2.088z" class="C"/><path d="M171.352 24.76c1.273-.874 1.69-1.886 1.996-2.631l.025-.062c-.023.273-.17 1.213-.789 1.931-.386.367-.714.536-1.232.761z"/><g class="C"><path d="M194.991 23.189c1.066-.294 2.541-1.085 3.248-1.871.272-.333.281-.91.247-1.113-.499.647-1.142.902-1.401.949l.157-.073c.427-.224.971-.691 1.214-.921-.128-.12-.347-.128-.654.087-.813.629-1.995 1.075-3.072 1.29-1.077.204-2.117.115-3.074-.167.593-1.45 1.414-2.912 2.464-4.385s2.194-2.706 3.433-3.698c.314-.326.524-.818.223-1.251-.491.358-2.502 2.103-3.884 4.163 2.348-3.609 3.661-4.787 3.661-4.787l-1.201-.314c-.635-.135-1.093-.121-1.455.108-1.151.936-2.188 2.2-3.356 4.09a51.71 51.71 0 0 0-3.235 6.116l-2.477 6.158c-.663 1.895-1.071 3.339-1.224 4.333a5.5 5.5 0 0 0 .055 2.16c.147.715.676 1.142 1.587 1.28.812.093 1.541.048 2.185-.136.657-.174 1.232-.613 1.726-1.317.43-.616.882-1.412 1.356-2.389s.855-1.993 1.145-3.05c.303-1.07.4-2.04.292-2.909-.095-.883-.497-1.543-1.204-1.982a10.47 10.47 0 0 0 3.244-.372zm-5.279 6.63c-.567 1.355-1.289 2.4-1.945 3.227-.033-.638.101-1.258.244-1.925l.054-.253a16.57 16.57 0 0 1 .632-2.246l.409-1.169.563-1.515.483-1.144c.312.477.458.969.437 1.476-.006.998-.298 2.182-.877 3.55zm-32.95-6.976c-.602.603-3.396 4.151-3.396 4.151l3.328-5.536.346-.674.001-.002 2.05-4.269c.295-.71.404-1.454-.572-1.276-.917.136-3.06 1.775-3.514 2.725l-.665 1.355-1.668 3.573-2.749 6.88c-.13.406-.105.736.075.988.193.251.455.43.787.538a1.48 1.48 0 0 0 .868.08c.297-.06.603-.288.919-.683.303-.405.826-1.032 1.569-1.882l2.545-2.675c.954-.922 1.88-1.68 2.778-2.275.899-.606 1.629-.764 2.253-.764.874.061 1.105 1.193.582 1.578-1.983 1.246-4.184 2.944-6.603 5.093-2.418 2.138-4.374 4.286-5.868 6.446-.99 1.557-1.344 2.76-1.063 3.608s1.015 1.237 2.2 1.169 2.627-.696 4.326-1.884c2.674-1.952 5.034-4.254 7.079-6.907 2.058-2.654 3.291-5.108 3.701-7.361.374-1.016 1.817-3.041 2.713-3.401a20.44 20.44 0 0 0-2.132.92l-.896.405c-.384-.571-.913-1.032-1.585-1.384-.66-.353-1.348-.53-2.063-.533a36.42 36.42 0 0 0 2.618-2.581c.905-.985 1.615-2.054 2.129-3.208.311-.853.257-1.672-.161-2.457-.405-.798-1.035-1.441-1.89-1.93-.842-.491-1.77-.713-2.782-.666-1.47.138-3.065.694-4.785 1.666-1.719.961-3.374 2.143-4.966 3.546-1.591 1.392-2.917 2.802-3.979 4.231s-1.656 2.667-1.786 3.715c-.056 1.062.276 1.823.996 2.283.72.449 1.475.618 2.267.507.804-.112 1.304-.49 1.5-1.134-1.139.257-1.659-.027-1.558-.854.102-.838.683-1.966 1.744-3.383 2.545-3.364 5.984-6.153 9.741-7.791 1.181-.527 2.029-.707 2.544-.543.575.272.695.819.36 1.64-.323.82-.92 1.772-1.79 2.856-.858 1.082-1.796 2.169-2.815 3.259l-2.733 2.837zm-1.721 12.617c-1.381 1.343-2.488 2.25-3.323 2.721.325-.981 1.049-2.132 2.17-3.454a41.28 41.28 0 0 1 3.75-3.858c1.367-1.249 2.568-2.231 3.605-2.946-.322.774-1.088 1.885-2.298 3.332a55.81 55.81 0 0 1-3.904 4.204zm-2.736-.912c1.592-1.943 5.351-6.105 8.092-7.777-1.917 1.15-5.759 4.023-8.092 7.777zm-1.824-4.787l5.215-11.724c.491-.57.91-.86 1.345-1.028l-6.56 12.752zm20.871-5.001c.491-.214.897-.474 1.232-.761.619-.718.766-1.658.789-1.931l-.025.062c-.306.744-.723 1.756-1.996 2.631z"/><path d="M175.298 28.311c-1.523 1.75-3.083 3.144-4.681 4.181-.747.403-1.544.474-2.39.214-.859-.271-1.507-.602-1.944-.995-.643-.619-.873-1.57-.69-2.855s.633-2.677 1.351-4.177l.21-.435a23.46 23.46 0 0 1 1.63-2.804l.638-.889c.948-1.265 1.8-2.182 2.674-2.75.586-.349 1.188-.474 1.692-.377s.942.246 1.566.558c0 0 .149.065.293.453.088-.313.462-.444.768-.206s.48.599.447 1.108c-.032.394-.235 1.159-.61 2.112-.725 1.905-4.212 6.386-6.342 5.009-.556 1.137-.902 2.081-.979 3.303-.022.53.197.808.517.849.555-.012 1.425-.414 2.452-1.288s2.087-1.951 3.146-3.253c.95-1.177 1.742-2.421 2.384-3.594l-.472.951c-.718 1.5-1.168 2.893-1.351 4.177-.033.039-.047.097-.067.173-.033.127-.079.306-.242.536zm-1.334-8.226c-.339.283-.773.779-1.303 1.488l-1.425 2.088c-.419.683-.637 1.117-.652 1.303a1.74 1.74 0 0 0 .768-.203c.518-.226.846-.394 1.232-.761 1.455-1.251 1.56-3.034 1.38-3.914zm-3.767.466c.578-.791 2.241-2.389 3.304-2.672-.614-.28-1.845.373-3.304 2.672z"/></g></g><defs ><path id="C" d="M75.637 12.273c.737-.253 1.498-.617 2.284-.617l3.775.149c.797-.089 3.52-.163 4.325-.149 1.15.019 3.033.282 3.819.475-.763.194-3.565.014-4.352.142-.768.128-2.537-.082-3.318 0-.786.088-3.294.142-4.089.158a13.05 13.05 0 0 1-2.444-.158z"/><path id="D" d="M150.987 33.134a16.71 16.71 0 0 1 2.485-.159l3.261-.194 4.57.375c-1.182.163-3.753.23-4.3.317-.521.086-2.889 0-3.531 0-.864 0-1.698-.142-2.485-.34z"/></defs></svg>