<svg width="174" height="24" viewBox="0 0 174 24" fill="none" xmlns="http://www.w3.org/2000/svg">
<path d="M0 4H12.0002V10L10.2002 12L12.0002 14.0312V20H0C0 20 0.587183 19.2649 1.28727 18.1583C3.12831 17.767 4.20006 17.3335 4.20006 17.3335H1.78642C1.91897 17.1039 2.05162 16.8647 2.18148 16.6182C3.47059 16.2952 4.20006 16.0001 4.20006 16.0001H2.49289C2.63487 15.7044 2.77006 15.4014 2.89409 15.0944C3.73602 14.8545 4.20006 14.6668 4.20006 14.6668H3.05837C3.38427 13.7711 3.60005 12.8552 3.60005 12C3.60005 11.1453 3.38448 10.2298 3.05884 9.33451H4.20006C4.20006 9.33451 3.73623 9.14689 2.89469 8.90708C2.77068 8.60002 2.6355 8.29694 2.49352 8.00118H4.20006C4.20006 8.00118 3.47089 7.70621 2.18227 7.38327C2.0524 7.13672 1.91974 6.89751 1.78717 6.66785H4.20006C4.20006 6.66785 3.12868 6.23445 1.28822 5.84317C0.587716 4.73578 0 4 0 4Z" fill="#2A6458"/>
<path d="M174.001 4H162V10L163.8 12L162 14V20H174.001C174.001 20 173.413 19.2649 172.713 18.1583C170.872 17.767 169.8 17.3334 169.8 17.3334H172.214C172.082 17.1038 171.949 16.8647 171.819 16.6182C170.53 16.2952 169.8 16.0001 169.8 16.0001H171.508C171.366 15.7044 171.23 15.4014 171.106 15.0944C170.265 14.8545 169.8 14.6668 169.8 14.6668H170.942C170.616 13.7711 170.4 12.8552 170.4 12C170.4 11.1453 170.616 10.2298 170.942 9.33451H169.8C169.8 9.33451 170.264 9.14689 171.106 8.90708C171.23 8.60002 171.365 8.29694 171.507 8.00118H169.8C169.8 8.00118 170.53 7.70621 171.818 7.38327C171.948 7.13672 172.081 6.89751 172.213 6.66785H169.8C169.8 6.66785 170.872 6.23445 172.712 5.84317C173.413 4.73578 174.001 4 174.001 4Z" fill="#2A6458"/>
<path d="M30.0004 4.57143V0H16.0004C16.0004 0 17.1204 0.909683 17.1204 1.71429V4.32196C17.3314 4.28626 17.5818 4.26092 17.5229 4.29464C17.2719 4.43844 17.1804 4.89094 17.127 5.15532L17.1204 5.18806L17.127 10L15.0004 12L17.1204 14V24H21.6004V14.2991H27.7604V14L30.0004 12L27.7604 10V9.72768H21.6004V4.57143H30.0004Z" fill="#2A6458"/>
<path fill-rule="evenodd" clip-rule="evenodd" d="M41.4978 16.5L46.3711 24H51.9942L46.7963 16.1675C47.0362 16.0764 47.269 15.9748 47.4942 15.8632C50.3442 14.452 52.0004 11.4585 52.0004 8.25C52.0004 3.64511 48.4559 0 43.747 0H35.4999L35.5006 10L33.0004 12L35.5006 14L35.4999 24H39.9983V16.5H41.4978ZM43.747 12C45.7602 12 47.1209 10.2331 47.1209 8.25C47.1209 6.26687 45.7602 4.5 43.747 4.5H39.9983V12H43.747Z" fill="#2A6458"/>
<path d="M57.4004 10L55.0004 12L57.4004 14V24H61.6004V14L64.0004 12L61.6004 10V0H57.4004V10Z" fill="#2A6458"/>
<path d="M83.3246 2.82968C81.4784 1.01111 79.0168 -0.0328864 76.199 0.000790451C72.9278 0.000790451 69.1711 2.92032 69.5591 6.60153C69.7859 8.62216 70.5956 10.0029 71.6645 10.9796L70.3676 12.2256L74.7843 13C77.2459 14.1787 79.2436 14.2463 79.5027 16.1659C79.6322 17.5803 78.4338 19.0621 76.4257 19.1968C74.5147 19.2979 72.8952 18.557 71.5349 15.2229L67.0004 17.1088C68.717 23.0024 73.6078 24.181 76.6848 23.979C83.7781 23.5412 84.685 18.2202 84.4907 15.6944C84.4259 14.7851 84.102 13.9768 83.5837 13.2359L85.0004 12L81.2841 11.0806C78.6761 10 77.2167 9 75.2011 7.67312L74.6915 7.97421L75.0598 7.54911C75.0598 7.54911 74.5728 6.99776 74.5147 6.70256C74.3852 6.16373 74.3528 5.15341 75.9075 4.78296C77.5047 4.69706 78.8678 5.19543 79.9171 6.09178C80.1019 6.24969 80.277 6.41994 80.442 6.60153L83.3246 2.82968Z" fill="#2A6458"/>
<path d="M104.464 2.82968C102.602 1.01111 100.119 -0.0328864 97.2774 0.000790451C93.9783 0.000790451 90.1896 2.92032 90.5809 6.60153C90.8096 8.62216 91.6263 10.0029 92.7042 10.9796L91.3963 12.2256L95.8506 13C98.3332 14.1787 100.348 14.2463 100.609 16.1659C100.74 17.5803 99.5313 19.0621 97.506 19.1968C95.5788 19.2979 93.9455 18.557 92.5735 15.2229L88.0004 17.1088C89.7316 23.0024 94.6641 24.181 97.7674 23.979C104.921 23.5412 105.836 18.2202 105.64 15.6944C105.574 14.7851 105.248 13.9768 104.725 13.2359L106 12.0572L102.406 11.0806C99.7757 10 98.3038 9 96.2711 7.67312L95.757 7.97421L96.1285 7.54911C96.1285 7.54911 95.6373 6.99776 95.5788 6.70256C95.4481 6.16373 95.4155 5.15341 96.9834 4.78296C98.5942 4.69706 99.9689 5.19543 101.027 6.09178C101.214 6.24969 101.39 6.41994 101.557 6.60153L104.464 2.82968Z" fill="#2A6458"/>
<path fill-rule="evenodd" clip-rule="evenodd" d="M111.001 10L109 12L111.001 14C111.405 20.1685 115.697 24 122 24C128.304 24 132.596 20.1685 133 14L135 12L132.989 10C132.584 3.83146 128.304 0 122 0C115.697 0 111.405 3.83146 111.001 10ZM128.236 12C128.236 8.02247 125.978 4.82023 122 4.82023C118.023 4.82023 115.731 8.02247 115.731 12C115.731 15.9775 118.023 19.2135 122 19.2135C125.978 19.2135 128.236 15.9775 128.236 12Z" fill="#2A6458"/>
<path d="M140.161 0V10L138 12L140.161 14V24H144.788V9.71428L152.306 24H156.933L157.086 14L159 12L156.933 10V1.71429C156.933 0.909683 158.09 0 158.09 0H152.306V12.74C152.347 12.764 152.4 12.8288 152.469 12.9464C152.845 13.5893 152.987 14.7024 153.011 15.1786C152.759 15.0079 152.457 14.3017 152.306 13.888V14.2857L144.788 0H140.161Z" fill="#2A6458"/>
</svg>
