<svg width="8" height="12" viewBox="0 0 8 12" fill="none" xmlns="http://www.w3.org/2000/svg">
<path d="M4.90822 9.07155C4.84291 6.26024 7.21029 5.90882 7.47152 3.6832C7.5205 3.34852 7.50417 2.98037 7.43887 2.57876C7.17764 1.00576 5.64292 -0.048483 3.84698 0.00171833C1.95308 0.00171833 0.581634 1.07269 0.5 3.29832H2.08369C2.21431 2.29428 3.04697 1.70859 3.86331 1.70859C4.92455 1.70859 5.80619 2.42815 5.6266 3.81707C5.16945 5.65781 2.91636 5.89209 3.04697 9.07155H4.90822ZM3.9776 12C4.58169 12 5.03884 11.5816 5.03884 10.9792C5.03884 10.3601 4.58169 9.95845 3.9776 9.95845C3.37351 9.95845 2.8837 10.3601 2.8837 10.9792C2.8837 11.5816 3.37351 12 3.9776 12Z" fill="#2A6458"/>
</svg>
