<svg xmlns="http://www.w3.org/2000/svg" width="326" height="127" fill="none" xmlns:v="https://vecta.io/nano"><style><![CDATA[.B{fill-rule:evenodd}.C{fill:#fffff5}.D{fill:#e11f1f}]]></style><path d="M262.875 102.75s1.063-4.687 0-14c-30.625-10.5-180.5-2.625-180.5-2.625L71.359 88.75l.141 14.273 191.375-.273z" fill="#f2d2ba"/><path d="M63 38.75l8.375 50 13.375-1.125 84.555 1.813.883 4.063.499-4.073 92.172-.677L253.625 62l-6-24-21.875.75H63z" fill="#ffe0c9"/><g fill="#edc5a7"><path d="M204.42 95.031c1.314-.435 3.123-.684 4.484-.684h4.847c1.408-.135 2.829-.199 4.25-.191a23.6 23.6 0 0 1 4.325.383c-1.321.422-2.275.249-3.68.492-1.369.247-3.496.135-4.895.266-1.406.135-3.831.001-5.249 0-1.458.008-2.562-.266-4.082-.266zm-77.175 3.629a31.7 31.7 0 0 1 4.548-.282l5.969-.344 8.365.665c-2.165.288-6.869.408-7.87.563-.954.153-5.289 0-6.464 0-1.582 0-3.108-.252-4.548-.602zm35.717-4.977a31.7 31.7 0 0 0-4.548-.282l-5.969-.344-8.365.665c2.165.288 6.869.408 7.87.563.954.153 5.289 0 6.464 0 1.582 0 3.108-.252 4.548-.602zm-50.544 2.536c-1.946-.426-3.107-.991-5.117-1.222-1.99-.24-3.513.127-5.538 0-2.013-.129-11.729-.22-13.755-.236-2.035-.027-5.19.063-7.212.236 1.957.425 5.192.419 7.212.65 1.99.24 3.867.204 5.871.33s10.412.439 12.417.455c2.045.027 4.09-.044 6.121-.213zm70.323.333c1.969-.304 3.163-.796 5.183-.901 2.001-.116 3.499.346 5.527.345 2.017-.004 11.72.511 13.743.622 2.033.1 5.177.387 7.183.685-1.979.303-5.208.094-7.238.2-2.001.116-3.872-.037-5.881-.037s-10.42-.21-12.421-.32a63.48 63.48 0 0 1-6.096-.594zm74.337-24.521l-66.64-1.508c-.751.205-38.567.872-75.254 1.474-.646.011-2.137.315-2.137.315s-1.341-.258-2.109-.246l-42.422.676-.234-1.469 43.283-.797 1.889.211 2.044-.284 74.941-1.38 66.312 2.008.328 1zM195.625 54.5c-1.1.3-89.964-.906-130.047-.281l-.234-1.469 129.844.375 56.031-.703.281 1.047c-22.125-.667-54.775.731-55.875 1.031z"/><path d="M63 53.25v-14.5l8.375 49.938.141 14.329L63 53.25zm107.265 43.188l-1.517-7.031 1.301.312 1.178-.312-.962 7.031zm86.813.4c-1.313-.435-3.401-.475-4.762-.475-1.824 0-3.855-.488-5.257-.622-1.409-.135-5.356.231-6.777.239a23.6 23.6 0 0 0-4.325.383c1.32.422 2.275.249 3.68.492 1.369.247 6.711.118 8.11.249 1.406.135 3.831.001 5.249 0 1.458.008 2.562-.266 4.082-.266z"/></g><path d="M115.438 53V39.406l1-2.656L120 40.875l5.562 3.688 5.5 2.313 3.813 2.438 4.375 5.375 4.125 5.125 9.063 4.938 13.75 2.688h13.187l8.875-6.312 6.625-8.062v15.063l-5.937 7.313-8 3.25-21.438-2.312-17.812-7.812-11.376-8.25-8.656-2.812-4.281-1.75-1.937-2.75z" class="C"/><path d="M115.5 36.875v3.781a22.42 22.42 0 0 0 3.797 10.859c-2.275-1.45-3.474-5.12-3.797-7.078v2.875c0 4.375 2.542 7.292 3.812 8.531-2.218-.672-3.562-3.219-3.812-4.719v1.563c0 3.187 3.834 5.419 8.177 7.145 3.881 1.543 8.41 3.107 10.488 6.95C138.437 74.687 154.972 83 169.659 83c18.359 0 25.185-11.406 25.185-14.812l-.007-1.452c-2.306 4.702-6.387 7.718-10.993 9.327 2.841-1.808 8.656-4.844 10.983-10.838l-.028-3.857c-1.08 3.414-4.934 6.968-9.612 8.602 2.834-1.803 8.657-6.469 9.597-10.693l-.023-3.236c-.73 3.773-5.855 8.867-9.855 9.992 2.417-1.538 8.25-6.25 9.843-11.84l-.03-7.535c-.396-5.636-10.821-19.367-47.313-19.042-1.906 1.37-6.25 1.151-6.906.542 1 .109 2.844-.094 3.5-.781-9.485-.612-28.5.688-28.5 9.5zm16.219 11.187c1.396.675 4.383 2.858 6.17 6.53-1.299-2.169-4.468-5.11-6.17-6.53zM117.125 39.5c1.104 2.375 5.569 7.413 14.594 8.563-7.975-2.2-13.052-6.625-14.594-8.562zm21.312 16.375c2.063 5.563 14.756 13.688 31.222 13-20.723 1.712-29.449-7.953-31.222-13z" class="B D"/><path d="M142.733 56.379c-3.978-4.284-6.115-8.547-14.327-12.004-20.807-8.761-2.196-15.189 14.327-13.392 12.958.115 39.2.187 47.767 15.486 6.426 23.561-34.982 23.68-47.767 9.911z" class="C"/><g class="D"><path d="M175.844 60.031c-1.98-1.129-2.024-2.695.203-4.633 2.534-2.205 10.797-2.315 11.234-.336.547 2.474-7.656 7.125-11.437 4.969zm-29.891-26.25c-1.708.275 1.969 3.203 5.337 3.111 4.446-.122 1.492-4.21-5.337-3.111zm-8.266 2.797c4.36-3.266 4.172-5.531 2.469-5.828 1.203-1.469 6.375-1.312 8.281-.203s-2.671 2.031-3.5 2.656c-.662.5-2.031 1.672-1.671 3.689-.985-2.033-.363-3.67.812-4.47 1.469-1 0-1.141-.281-.984-.683.379-.781.609-1.828 1.875-.891 1.077-3.558 3.208-4.282 3.266zm16.547-.625c1 7.406-9.703 3.766-9.297-1.187 1.594 2.359 7.876 5.14 9.297 1.188zm-5.64-3.344c.187-.125 9.406-1.094 16.031-.641-2.74-1.016-9.658-2.622-16.031.641z"/><path d="M155.828 38.359c-1.312 0-2.094 2.512.61 2.391 3.149-.141 4.372.17 7.199 1.273 3.222 1.258 4.004 3.695 4.004 3.695s13.246.908 14.734-3.572c.625-1.881-3.451-.498-6.098-.157-2.367.305-5.199.941-8.215.385-5.421-1-8.671-2.547-8.671-2.547s2.537.199 4.093-.172c-4.343-.234-6.343-1.297-7.656-1.297z" class="B"/><path d="M170.844 52.042c7.344.52 6.781 1.552-1.188 4.427-1.594.575 4.201 6.382-4.312 5.719-12.438-.969-16.969-4.344-18.563-9.625-.385-1.276-.27-3.515 1.344-3.484 2.385 3.002 11.994 9.123 22.719 2.964zm6.703-14.807c-3.614-1.468-13.688-4.625-19.719-4.625-8.484 0-3.969 2.375 0 2.156 7.525-.415 6.696 1.647 9.547 1.797-2.083.362-6.328-.172-9.159-.778-1.701-.364-4.41.581-1.357 1.778 4.576 1.793 9.317 1.239 14.25 1.219-1.687 1-3.281 1.484-7.781 1.813 5.406.875 11.226.776 14.453-.859.692-.35 1.266-1.891-.234-2.5z"/><path d="M139.25 31.813c-2.187-.875-16.5 1.406-17.656 4.406-.431 1.119.238 2.514 1.725 3.038 3.381-3.82 8.613-5.138 10.806-5.319 1.521-.245 3.65-.556 0 .156s-7.854 3.88-9.5 5.375c2.013 0 3.028-.572 4.139-1.197.544-.306 1.111-.626 1.83-.897.952-.359 1.939-.364 2.909-.369 1.256-.006 2.481-.012 3.56-.787 1.529-1.099 2.733-4.406 2.187-4.406z" class="B"/><path d="M154.031 44.188c2.11-1.719 7.719-.484 10.281 3.031-1.377-.29-4.453-1.719-6.669-1.558-2.112 0-3.975-1.177-3.612-1.474zm-4.906 1.203c-.313 4.734 7.05 9.047 15.75 6.047 1.307-.451 2.045-1.099 2.25-1.516-1.359-2.109-4.76-2.421-5.687-2.312-2.532.297-4.063.266-6.157-1.578-2.312-1.437-4.219 0-6.156-.641zm21.766 12.703c-.453.609.703 2.563-.047 3.938 1.25 0 2.369-1.147 2.594-2.547.281-1.75.593-2.414 2.609-4.086-.396-.073-3.53.509-5.156 2.695zm-35.485-16.219c2.953 2.125.782 8.625 7.313 10.688 2.14 1.359 3.578-1.109 1.359-2.391-1.269-.733-.734-1.984-2.672-3.328s-2.873-3.235-3.719-4.406c-.624-.865-1.468-1.078-2.281-.562z"/><path d="M131.672 38.6c-1.784.209-3.261.382-4.078 2.026-.882 1.773.93 2.987 3.484 3.344 1.427.199 3.797 1.422 5.219 3.641.489-1.718.145-3.07-.578-4.281-.553-.926-1.094-.978-.766-2.172.543-1.975-.828-2.969-.828-2.969s3.562 2.359 4.781 4.719 4.406 5.5 7.25 5.594 1.915-3.343 1.532-6.172c-.891 1.859-4.451-3.432-5.75-5.103-2.893-.274-6.1.512-7.813.962-.856.225-1.683.322-2.453.412zm10.778-1.314c1.284.511 4.597 6.036 4.597 4.511.281-3.125-1.985-4.905-4.597-4.511z" class="B"/><path d="M153.428 41.243c-5.841 0-6.053 4.257-1.897 3.101 8.339-3.319 12.52-.387 15.86 4.734 5.286 1.851 17.434 4.215 23.734-1.141.667-.913.887-3.381-3.563-5.948-2.18 2.777-9.407 7.641-20.865 4.881-2.745-6.915-8.672-5.512-13.269-5.628z"/></g><path d="M220 24c-4.292 6.792-22.7 22.775-62 32.375l-.184.039-.16-.133c-5.234-9.5-7.402-10.073-9.276-11.5-1.806-.707-3.829-.948-5.95-.857l-9.48 2.089c-8.033 2.892-15.075 7.737-15.075 7.737l-.75-4.25 15.825-3.487c3.129-1.126 6.408-1.956 9.48-2.089l4.195-.924 1.937-1.875L220 24z" fill="#bababa"/><path d="M220 24c-4.292 6.792-22.7 22.775-62 32.375 0 0-3.205-7.002-6.875-10-2.372-1.938-5.416-2.592-8.695-2.451l-9.48 2.089c-8.033 2.892-15.075 7.737-15.075 7.737l-.75-4.25 15.825-3.487c3.129-1.126 6.408-1.956 9.48-2.089l4.195-.924 1.937-1.875L220 24z" fill="#dbdbdb"/><g class="B"><path d="M142.43 43.924c-3.072.132-6.351.962-9.48 2.089L117.125 49.5l.75 4.25s7.042-4.845 15.075-7.737l9.48-2.089zm26.419-7.663l-9.079 2.176-3.902 13.941 12.981-16.117zm.563 16.983l-5.775 1.672 15.988-13.042L174 43l15.136-11.601 18.188-4.36-19.199 11.211h6.5l-25.213 14.995zm44.25-27.726l-7.033 10.743C213.908 31.323 218.198 26.851 220 24l-6.338 1.519z" fill="url(#A)"/><path d="M158 56.375c39.3-9.6 57.708-25.583 62-32.375l-2.937.763-3.813 4.987-6.125 3.5-6.75 5.25-9.125 3.625-7.25 4.25-8.625 1.875-6.75 3.375-8 1.25-2.625 3.5z" fill="#eee"/></g><path d="M135.5 53c-12.593 1.567-13.531 3.5-16.156 4.406-4.081 1.409-6.469-5.937-5.188-8.656l3.407 6.438 3.5-2.187 12.812-1.812 17.625-3.461s.165 1.086-.187 1.492S146.35 51.65 135.5 53z" fill="#936746"/><path d="M151.501 47.75c0-1.875-1.938-5.875-3.313-6.875-11.25 1.583-33.062 5.275-34.062 7.875s1.937 8.313 4.625 7.5c2-1.8 10.75-3.583 14.875-4.25 4.6-.3 13.833-2.958 17.875-4.25z" fill="#b88a67"/><g fill="#eee"><ellipse cx="120.363" cy="50.603" rx="1.438" ry="1.242" transform="rotate(337.834 120.363 50.603)"/><ellipse cx="132.053" cy="47.601" rx="1.438" ry="1.242" transform="rotate(350.975 132.053 47.601)"/><ellipse cx="143.905" cy="45.352" rx="1.145" ry=".989" transform="rotate(350.975 143.905 45.352)"/></g><path d="M206.688 49.25c4.281 2.375 5.312 9.901 4.75 11.797-.271.313-.512-1.646-1-3.484-.657-2.469-2.542-6.333-3.75-8.312z" class="D"/><path d="M198.125 46.688c4.009 2.81 5.445 7.111 4.687 8.938-.302.282-.956.036-1.249-1.844-.395-2.524-2.443-4.999-3.438-7.094z" class="C"/><path d="M108.949 57.202c.101 4.895 6.274 9.322 8.213 9.71.403-.094-1.216-1.221-2.614-2.512-1.876-1.733-4.413-5.205-5.599-7.198zm13.631 6.135c1.842.591 4.336 4.728 4.264 5.507-.081.142-1.84-1.899-2.171-2.574-.444-.906-1.472-2.259-2.093-2.933zm2.326 13.288c.101 4.895 7.53 4.525 9.469 4.913.403-.094-1.216-1.221-2.614-2.512-1.876-1.733-5.669-.409-6.855-2.401z" class="D"/><path d="M216.219 76.656c-5.156-1.219-2.813-7.219-1.032-8.5 2.58-1.856 3.868-.125 7.188.875 4.15 1.25 2.811-1.156 6.888-.281s6.754 2.75 4.643 4.5 1.719 1.438 2.156 2.188c1.508 2.585-11.613.281-12.562.281-3.719 0-3.844 1.75-7.281.937z" fill="url(#B)"/><path d="M216.062 67.594c.001-3.834 2.727-6.809 5.344-7.437 4.703-1.13 7.591.733 8.481 2.698 2.984-.96 6.488-.928 6.488 2.583 0 5.642 4.937 1.063 4.937 3.688 0 4.025-8.75 6.75-7.937 4.438 1.301-3.703-7.424-1.249-8.375-.437-4.125 3.522-8.938-2.321-8.938-5.531z" class="C"/><path d="M233.718 72.634c0-1.232-1.192-2.188-2.335-2.39-2.054-.363-3.316.236-3.705.867-1.303-.308-2.834-.298-2.834.83 0 1.813-2.157.341-2.157 1.185 0 1.293 3.823 2.169 3.468 1.426-.569-1.19 3.243-.401 3.658-.141 1.802 1.132 3.905-.746 3.905-1.777z" fill="#f7f7ea"/><path d="M230.281 63.25c-1 1.135-2.681 3.813-1.406 5.438l1.406-5.437zm-11.719 1.219c-.625 1.385-1.119 4.388 1.906 5.313-.812-.708-2.331-2.762-1.906-5.312zm1.906-1.5c.875-2.094 7.032-1.937 6.469 2.625-.802-1.49-3.218-4.1-6.469-2.625zm17.401 5.604c-.198.971-.932 2.906-2.284 2.882l2.284-2.882z" fill="#dcdcc2"/><path d="M204.25 60.75c1.062 3.833 1.363 11.938-5.938 13.688 2.271-2.104 6.638-7.787 5.938-13.687zm-98.585-12.224c-2.759 2.865-5.93 7.34-.343 12.355-.995-2.932-1.001-6.792.343-12.355z" fill="#fff"/><path d="M84.155 67.036c2.077-5.79.463-9.074-.665-10.318l13.194-.582c-2.157 4.086-.4 8.534.739 10.488 0 0 .46 2.618-6.621 2.838-6.565.204-6.647-2.425-6.647-2.425z" fill="url(#C)"/><ellipse cx="90.042" cy="56.057" rx="6.671" ry="2.476" transform="rotate(358.22 90.042 56.057)" fill="#fff"/><ellipse cx="89.664" cy="55.644" rx="3.331" ry="1.236" transform="rotate(358.22 89.664 55.644)" fill="#bebea8"/><path d="M91.439 78.635c-5.79-2.077-9.074-.463-10.318.665l-.582-13.193c4.086 2.157 8.534.4 10.488-.739 0 0 2.618-.46 2.838 6.621.204 6.565-2.425 6.647-2.425 6.647z" fill="url(#D)"/><ellipse cx="80.459" cy="72.748" rx="6.671" ry="2.476" transform="rotate(268.22 80.459 72.748)" fill="#fff"/><ellipse cx="80.127" cy="72.748" rx="4.102" ry="1.523" transform="rotate(268.22 80.127 72.748)" fill="#a5a586"/><defs><linearGradient id="A" x1="168.562" y1="24" x2="168.562" y2="56.375" gradientUnits="userSpaceOnUse"><stop stop-color="#fff"/><stop offset="1" stop-color="#fff" stop-opacity="0"/></linearGradient><linearGradient id="B" x1="222.219" y1="67.323" x2="222.219" y2="78.868" gradientUnits="userSpaceOnUse"><stop stop-color="#f8f8c0"/><stop offset="1" stop-color="#fff"/></linearGradient><linearGradient id="C" x1="93.5" y1="58.625" x2="86.75" y2="60.438" gradientUnits="userSpaceOnUse"><stop stop-color="#e2e2be"/><stop offset="1" stop-color="#ffffeb"/></linearGradient><linearGradient id="D" x1="86.001" y1="76.75" x2="86.126" y2="66.938" gradientUnits="userSpaceOnUse"><stop stop-color="#e2e2be"/><stop offset="1" stop-color="#ffffeb"/></linearGradient></defs></svg>