<svg width="234" height="146" viewBox="0 0 234 146" fill="none" xmlns="http://www.w3.org/2000/svg">
<path d="M38.1602 22.8665V1.66708L39.7197 -2.47534L45.2754 3.9576L53.9501 9.70825L62.5273 13.3146L68.4729 17.1159L75.2958 25.4982L81.7287 33.4906L95.8617 41.1907L117.305 45.3818H137.871L151.711 35.5375L162.043 22.964V46.454L152.783 57.8578L140.307 62.9262L106.876 59.3199L79.097 47.1363L61.3577 34.2704L47.8583 29.8843L41.1817 27.1552L38.1602 22.8665Z" fill="#E7F9E3"/>
<path fill-rule="evenodd" clip-rule="evenodd" d="M38.2583 -2.28007C38.2583 -2.28007 38.0836 1.32055 38.2583 3.61676C38.8169 10.9561 41.621 16.8237 44.1796 20.5519C40.6317 18.2906 38.7619 12.5676 38.2583 9.51359V13.9972C38.2583 20.82 42.2221 25.3685 44.2039 27.3016C40.7438 26.2538 38.6482 22.282 38.2583 19.9427V22.3796C38.2583 27.3504 44.2374 30.8299 51.0097 33.5223C57.0625 35.9287 64.1264 38.367 67.3664 44.3612C74.0294 56.6885 99.8147 69.6518 122.719 69.6518C151.35 69.6518 161.995 51.8638 161.995 46.5517C161.995 46.0862 161.991 45.3085 161.985 44.2875C158.389 51.6201 152.023 56.3237 144.84 58.8328C149.271 56.0133 158.34 51.2789 161.969 41.9305L161.925 35.9154C160.24 41.2397 154.23 46.7817 146.936 49.3296C151.355 46.5172 160.435 39.2416 161.901 32.6535C161.889 31.007 161.877 29.3077 161.866 27.6068C160.728 33.4909 152.735 41.4346 146.497 43.189C150.266 40.7905 159.363 33.4422 161.847 24.7247C161.82 20.3129 161.8 16.0897 161.8 12.9737C161.183 4.18446 144.926 -17.2285 88.0151 -16.7224C85.0433 -14.5856 78.2693 -14.9268 77.2458 -15.8769C78.8053 -15.7064 81.6807 -16.0232 82.7041 -17.0953C67.9115 -18.0497 38.2583 -16.0229 38.2583 -2.28007ZM63.5515 15.1668C65.7294 16.2192 70.3877 19.6231 73.174 25.3503C71.1474 21.9676 66.2065 17.3816 63.5515 15.1668ZM40.7925 1.81356C42.5145 5.51737 49.477 13.3734 63.5515 15.1668C51.1145 11.7359 43.1967 4.83509 40.7925 1.81356ZM74.0294 27.3504C77.2458 36.0251 97.0407 48.696 122.719 47.6239C90.4022 50.2929 76.7939 35.2203 74.0294 27.3504Z" fill="#BFEDC3"/>
<path d="M80.7268 28.1373C74.5235 21.4567 71.1917 14.8087 58.3849 9.41641C25.9364 -4.246 54.9592 -14.2713 80.7268 -11.4687C100.935 -11.2888 141.859 -11.1775 155.22 12.6815C165.241 49.4244 100.666 49.6104 80.7268 28.1373Z" fill="#E7F9E3"/>
<path d="M132.364 33.8322C129.277 32.0718 129.208 29.6288 132.68 26.6073C136.632 23.1684 149.519 22.997 150.2 26.0834C151.052 29.9414 138.26 37.1948 132.364 33.8322Z" fill="#BFEDC3"/>
<path d="M85.749 -7.10453C83.0858 -6.67573 88.8193 -2.10927 94.0721 -2.25317C101.005 -2.4431 96.3983 -8.81919 85.749 -7.10453Z" fill="#BFEDC3"/>
<path d="M72.8588 -2.74282C79.6572 -7.83556 79.3648 -11.3688 76.7088 -11.8318C78.585 -14.1223 86.6506 -13.8786 89.6234 -12.1486C92.5962 -10.4186 85.4566 -8.98084 84.1651 -8.00615C83.132 -7.2264 80.9974 -5.39884 81.5578 -2.25317C80.0227 -5.42321 80.9925 -7.97689 82.8249 -9.22449C85.1155 -10.784 82.8249 -11.0033 82.3863 -10.7597C81.321 -10.1681 81.168 -9.80929 79.5354 -7.83555C78.1464 -6.15635 73.9878 -2.83216 72.8588 -2.74282Z" fill="#BFEDC3"/>
<path d="M98.6636 -3.71751C100.223 7.83238 83.5316 2.15483 84.1651 -5.5694C86.6506 -1.89013 96.4464 2.44604 98.6636 -3.71751Z" fill="#BFEDC3"/>
<path d="M89.8671 -8.93207C90.1595 -9.12701 104.536 -10.6377 114.868 -9.93114C110.594 -11.515 99.806 -14.0199 89.8671 -8.93207Z" fill="#BFEDC3"/>
<path fill-rule="evenodd" clip-rule="evenodd" d="M101.149 0.0348816C99.1023 0.0348816 97.8836 3.95183 102.099 3.76306C107.011 3.54316 108.918 4.02815 113.327 5.74891C118.352 7.71055 119.571 11.5118 119.571 11.5118C119.571 11.5118 140.228 12.928 142.549 5.94117C143.524 3.00768 137.167 5.16437 133.039 5.69663C129.348 6.17249 124.931 7.1647 120.229 6.29733C111.773 4.73775 106.705 2.3254 106.705 2.3254C106.705 2.3254 110.661 2.63515 113.089 2.05736C106.315 1.69185 103.196 0.0348816 101.149 0.0348816Z" fill="#BFEDC3"/>
<path d="M124.566 21.3731C136.019 22.1847 135.141 23.7929 122.714 28.2765C120.229 29.1732 129.265 38.2289 115.989 37.1948C96.5924 35.6841 89.526 30.4208 87.0406 22.1847C86.4398 20.1939 86.6198 16.7024 89.1361 16.7508C92.8563 21.4323 107.841 30.9775 124.566 21.3731Z" fill="#BFEDC3"/>
<path d="M135.019 -1.71938C129.384 -4.00884 113.674 -8.93207 104.268 -8.93207C91.0367 -8.93207 98.0788 -5.22826 104.268 -5.5694C116.003 -6.21623 114.711 -3.00028 119.157 -2.76719C115.908 -2.20225 109.288 -3.03521 104.873 -3.98028C102.221 -4.54812 97.9964 -3.07364 102.757 -1.20784C109.894 1.58876 117.287 0.724591 124.98 0.69297C122.349 2.25247 119.863 3.00785 112.845 3.51956C121.276 4.88413 130.353 4.7294 135.385 2.17937C136.464 1.63274 137.359 -0.769061 135.019 -1.71938Z" fill="#BFEDC3"/>
<path fill-rule="evenodd" clip-rule="evenodd" d="M75.2955 -10.175C71.8843 -11.5395 49.5639 -7.9821 47.7606 -3.30357C47.0881 -1.5585 48.1326 0.616837 50.4517 1.4342C55.7236 -4.52258 63.8826 -6.57795 67.3031 -6.86103C69.6748 -7.24274 72.9953 -7.72839 67.3031 -6.61736C61.6109 -5.50633 55.0545 -0.566221 52.4878 1.76495C55.6273 1.76495 57.2104 0.873599 58.9421 -0.101422C59.7908 -0.579298 60.6752 -1.07727 61.7961 -1.50025C63.2809 -2.06061 64.8211 -2.06804 66.3331 -2.07533C68.291 -2.08478 70.2018 -2.094 71.8843 -3.30339C74.2697 -5.01805 76.1475 -10.175 75.2955 -10.175Z" fill="#BFEDC3"/>
<path d="M98.3469 9.12384C101.636 6.44345 110.384 8.36855 114.38 13.8512C112.232 13.3991 107.436 11.1708 103.98 11.422C100.686 11.422 97.7797 9.58597 98.3469 9.12384Z" fill="#BFEDC3"/>
<path d="M90.6956 11.0001C90.2082 18.3834 101.69 25.1087 115.258 20.4302C117.296 19.7275 118.447 18.7161 118.767 18.0666C116.647 14.777 111.343 14.2906 109.897 14.4603C105.949 14.9232 103.561 14.8745 100.296 11.9992C96.6899 9.75739 93.7171 11.9992 90.6956 11.0001Z" fill="#BFEDC3"/>
<path d="M124.639 30.8106C123.932 31.761 125.736 34.8069 124.566 36.9512C126.515 36.9512 128.26 35.1626 128.611 32.9793C129.05 30.2502 129.537 29.2146 132.68 26.6073C132.063 26.4936 127.175 27.4007 124.639 30.8106Z" fill="#BFEDC3"/>
<path d="M69.3012 5.5175C73.9066 8.83144 70.5196 18.9682 80.705 22.1847C84.0433 24.3046 86.2852 20.4546 82.825 18.4565C80.8454 17.3134 81.6797 15.3618 78.6582 13.2663C75.6367 11.1707 74.1777 8.22107 72.8588 6.39472C71.8843 5.04542 70.5683 4.71338 69.3012 5.5175Z" fill="#BFEDC3"/>
<path fill-rule="evenodd" clip-rule="evenodd" d="M63.4769 0.409334C60.6951 0.735247 58.3919 1.00508 57.1176 3.56812C55.7428 6.33328 58.5688 8.22645 62.5515 8.7827C64.7766 9.09349 68.4727 11.0001 70.6901 14.4603C71.4524 11.7811 70.9167 9.67306 69.7885 7.78365C68.9261 6.33924 68.0828 6.25906 68.5945 4.39661C69.4409 1.31616 67.3031 -0.233157 67.3031 -0.233157C67.3031 -0.233157 72.8588 3.44629 74.7594 7.12573C76.6601 10.8052 81.631 15.703 86.0658 15.8492C90.5007 15.9954 89.0524 10.6349 88.4538 6.22415C87.0649 9.12384 81.5133 0.871995 79.488 -1.73363C74.9763 -2.1607 69.9742 -0.934669 67.3031 -0.233157C65.968 0.117478 64.6778 0.268632 63.4769 0.409334ZM80.2864 -1.63955C82.2889 -0.842337 87.4548 7.77305 87.4548 5.39566C87.8934 0.522225 84.3601 -2.25317 80.2864 -1.63955Z" fill="#BFEDC3"/>
<path d="M97.4055 4.53226C88.2975 4.53226 87.9664 11.1708 94.4481 9.36759C107.452 4.19231 113.973 8.76344 119.181 16.7508C127.425 19.6377 146.37 23.3237 156.195 14.972C157.234 13.5481 157.579 9.69955 150.639 5.69663C147.238 10.027 135.968 17.6121 118.1 13.3089C113.818 2.52483 104.575 4.71344 97.4055 4.53226Z" fill="#BFEDC3"/>
<path d="M232.491 11.2859C228.247 24.9426 219.021 39.53 211.897 46.1521C216.666 46.0653 224.061 41.4289 225.22 38.4469C223.861 38.4469 222.046 39.4093 221.271 39.4234C223.919 37.8227 227.935 34.5592 230.442 29.8284C228.679 30.2581 228.056 30.3111 226.96 30.9323C229.459 28.9775 233.647 23.3819 233.923 18.3654C232.354 18.9699 231.248 19.8938 231.248 19.8938C232.336 19.1452 233.492 14.7875 232.491 11.2859Z" fill="#BFEDC3"/>
<path d="M11.9422 85.3718C8.39314 87.1087 2.93496 85.6274 0.649502 84.6697C2.01673 80.2049 6.64284 76.9797 8.785 75.9252C8.42545 75.2204 6.45686 74.7187 5.51751 74.5559C10.2363 68.8256 17.0793 66.7016 19.911 66.3559L16.3068 65.7901C20.7407 59.5374 27.826 58.3378 30.8145 58.5197C30.7631 57.4402 28.83 56.7435 27.8699 56.53C41.8179 52.098 48.7645 58.2123 49.6926 61.7078C36.5124 62.9855 28.9273 70.3862 27.584 74.0425C37.7214 62.9254 54.8113 66.6237 63.0604 70.0805L62.9972 72.6359C56.8372 70.0545 54.7604 70.4017 53.1951 70.4804C54.2964 86.9368 35.8519 90.2276 37.3236 89.27C38.5011 88.504 39.1774 86.4994 39.3684 85.5929C32.9669 91.8524 21.7676 91.3783 23.0563 90.407C24.0872 89.6299 24.3388 88.0478 24.3357 87.3539C16.384 91.4523 6.91512 88.051 9.08683 87.8276C10.8242 87.6489 11.7143 86.1159 11.9422 85.3718Z" fill="#BFEDC3"/>
<path d="M182.318 90.4316C184.073 94.1802 186.045 104.887 172.424 106.019L170.186 109.442C169.169 109.592 168.16 109.756 167.16 109.933L170.607 105.234C168.319 101.511 166.978 92.9837 179.916 88.6643C179.05 89.7046 176.836 92.8991 176.532 93.6027C177.879 93.384 180.296 92.3758 182.318 90.4316Z" fill="#BFEDC3"/>
<path d="M157.267 87.4767C162.821 91.1263 165.868 101.582 152.982 106.424L149.495 114.503C148.068 114.988 146.721 115.475 145.468 115.953C147.019 113.026 150.139 106.887 150.213 105.75C147.709 103.789 144.585 98.1461 152.117 91.27C151.571 92.5067 150.517 95.2814 150.665 96.4859C152.665 95.3438 156.306 90.5398 157.267 87.4767Z" fill="#BFEDC3"/>
<path d="M211.097 115.688C207.435 117.968 198.13 118.576 189.787 110.593C186.11 110.153 179.387 110.092 171.101 111.325C169.822 111.515 168.506 111.736 167.158 111.992C163.006 112.778 158.551 113.888 153.955 115.421C150.173 116.683 146.295 118.23 142.41 120.119L139.068 118.676C140.734 117.871 142.906 116.931 145.468 115.953C146.721 115.475 148.068 114.988 149.495 114.503C154.571 112.778 160.661 111.083 167.16 109.933C168.16 109.756 169.169 109.592 170.186 109.442C176.603 108.5 183.317 108.145 189.774 108.848C191.776 105.609 198.631 101.932 210.038 113.145L202.496 108.463C203.981 109.695 207.302 112.555 211.097 115.688Z" fill="#BFEDC3"/>
<path d="M178.951 117.082C175.16 114.747 169.83 112.471 167.158 111.992C168.506 111.736 169.822 111.515 171.101 111.325C171.722 111.593 176.417 113.446 179.373 114.896C188.48 114.585 193.839 119.653 192.997 126.759C190.561 122.091 188.999 120.767 188.523 120.689C190.357 122.177 190.636 125.114 190.391 126.191C181.033 124.794 178.898 119.355 178.951 117.082Z" fill="#BFEDC3"/>
<path d="M142.41 120.119C146.295 118.23 150.173 116.683 153.955 115.421L163.728 119.236C169.634 119.143 180.526 122.537 176.846 136.863C177.159 135.165 177.117 130.675 174.45 126.3C174.33 128.056 174.409 132.229 175.69 134.868C171.506 133.63 163.064 129.216 162.766 121.464C159.344 119.964 150.483 117.594 142.41 120.119Z" fill="#BFEDC3"/>
<circle cx="217.861" cy="78.3298" r="4.9839" fill="#BFEDC3"/>
<circle cx="190.321" cy="28.4652" r="2.28796" fill="#BFEDC3"/>
<circle cx="100.101" cy="95.2194" r="2.28796" fill="#BFEDC3"/>
</svg>
