<svg width="344" height="208" viewBox="0 0 344 208" fill="none" xmlns="http://www.w3.org/2000/svg">
<g clip-path="url(#clip0_1973_20895)">
<path d="M55.3232 27.1262V-4.08201L57.619 -10.1802L65.7977 -0.710089L78.568 7.7556L91.1948 13.0646L99.9474 18.6605L109.991 31.0004L119.462 42.7662L140.267 54.1016L171.834 60.2715H202.11L222.485 45.7794L237.694 27.2697V61.8499L224.063 78.6378L205.697 86.099L156.481 80.7901L115.587 62.8543L89.4729 43.9141L69.6001 37.4572L59.7713 33.4396L55.3232 27.1262Z" fill="#E7F9E3"/>
<path fill-rule="evenodd" clip-rule="evenodd" d="M55.4669 -9.89267C55.4669 -9.89267 55.2096 -4.59212 55.4669 -1.2118C56.2891 9.59258 60.4172 18.2305 64.1837 23.7189C58.9608 20.39 56.2082 11.965 55.4669 7.46906V14.0694C55.4669 24.1135 61.302 30.8095 64.2195 33.6553C59.1258 32.1128 56.0408 26.2657 55.4669 22.8221V26.4094C55.4669 33.727 64.2688 38.8493 74.2384 42.8129C83.1489 46.3554 93.548 49.9449 98.3175 58.7691C108.126 76.9164 146.085 96 179.804 96C221.952 96 237.623 69.8138 237.623 61.9938C237.623 61.3085 237.617 60.1636 237.608 58.6606C232.314 69.4551 222.943 76.3794 212.369 80.0731C218.891 75.9224 232.242 68.9529 237.585 55.1909L237.52 46.3358C235.04 54.1738 226.192 62.3324 215.454 66.0832C221.96 61.943 235.327 51.2323 237.485 41.534C237.467 39.1101 237.45 36.6084 237.433 34.1046C235.757 42.7667 223.991 54.4608 214.808 57.0435C220.357 53.5126 233.748 42.6949 237.405 29.8618C237.365 23.367 237.336 17.1499 237.336 12.5628C236.428 -0.376081 212.495 -31.8987 128.715 -31.1535C124.34 -28.008 114.368 -28.5102 112.861 -29.9089C115.157 -29.6579 119.39 -30.1242 120.897 -31.7026C99.12 -33.1075 55.4669 -30.1238 55.4669 -9.89267ZM92.7015 15.7913C95.9077 17.3405 102.765 22.3516 106.867 30.7826C103.884 25.803 96.6101 19.0517 92.7015 15.7913ZM59.1975 -3.86634C61.7324 1.58613 71.9821 13.1511 92.7015 15.7913C74.3927 10.7405 62.7368 0.581726 59.1975 -3.86634ZM108.126 33.727C112.861 46.4973 142.002 65.1505 179.804 63.5722C132.229 67.5014 112.196 45.3126 108.126 33.727Z" fill="#BFEDC3"/>
<path d="M117.986 34.8856C108.854 25.0509 103.949 15.2642 85.0962 7.32603C37.328 -12.7867 80.0532 -27.5453 117.986 -23.4194C147.736 -23.1547 207.981 -22.9908 227.65 12.1327C242.402 66.2228 147.339 66.4966 117.986 34.8856Z" fill="#E7F9E3"/>
<path d="M194.003 43.2692C189.459 40.6778 189.358 37.0814 194.469 32.6333C200.287 27.5708 219.258 27.3185 220.261 31.8621C221.515 37.5415 202.684 48.2195 194.003 43.2692Z" fill="#BFEDC3"/>
<path d="M125.381 -16.9947C121.46 -16.3634 129.901 -9.64104 137.633 -9.85288C147.84 -10.1325 141.058 -19.5189 125.381 -16.9947Z" fill="#BFEDC3"/>
<path d="M106.405 -10.5737C116.413 -18.0709 115.982 -23.2722 112.072 -23.9538C114.835 -27.3258 126.708 -26.967 131.084 -24.4202C135.461 -21.8735 124.95 -19.7568 123.049 -18.322C121.528 -17.1741 118.386 -14.4837 119.211 -9.85288C116.951 -14.5196 118.379 -18.2789 121.076 -20.1155C124.448 -22.4113 121.076 -22.7341 120.43 -22.3756C118.862 -21.5046 118.637 -20.9764 116.233 -18.0708C114.189 -15.5988 108.067 -10.7052 106.405 -10.5737Z" fill="#BFEDC3"/>
<path d="M144.393 -12.0086C146.689 4.99431 122.116 -3.36376 123.049 -14.7348C126.708 -9.31843 141.129 -2.93506 144.393 -12.0086Z" fill="#BFEDC3"/>
<path d="M131.443 -19.6851C131.873 -19.972 153.038 -22.196 168.247 -21.1558C161.956 -23.4874 146.074 -27.1749 131.443 -19.6851Z" fill="#BFEDC3"/>
<path fill-rule="evenodd" clip-rule="evenodd" d="M148.052 -6.48458C145.038 -6.48458 143.244 -0.718348 149.451 -0.996237C156.68 -1.31996 159.488 -0.605989 165.978 1.92718C173.377 4.81495 175.171 10.4109 175.171 10.4109C175.171 10.4109 205.581 12.4956 208.998 2.21021C210.432 -2.10825 201.074 1.06666 194.997 1.85021C189.565 2.55074 183.062 4.0114 176.139 2.73452C163.692 0.438625 156.23 -3.11266 156.23 -3.11266C156.23 -3.11266 162.055 -2.65666 165.629 -3.50724C155.656 -4.04532 151.065 -6.48458 148.052 -6.48458Z" fill="#BFEDC3"/>
<path d="M182.524 24.9279C199.384 26.1226 198.092 28.4902 179.798 35.0905C176.139 36.4107 189.441 49.7417 169.898 48.2195C141.344 45.9955 130.941 38.2472 127.282 26.1226C126.398 23.192 126.663 18.052 130.367 18.1233C135.843 25.0151 157.902 39.0668 182.524 24.9279Z" fill="#BFEDC3"/>
<path d="M197.913 -9.06708C189.617 -12.4374 166.49 -19.6851 152.643 -19.6851C133.165 -19.6851 143.532 -14.2326 152.643 -14.7348C169.919 -15.687 168.016 -10.9527 174.561 -10.6096C169.779 -9.77791 160.033 -11.0041 153.534 -12.3954C149.629 -13.2313 143.41 -11.0607 150.419 -8.31403C160.924 -4.19708 171.809 -5.46924 183.134 -5.51579C179.26 -3.22002 175.601 -2.108 165.27 -1.3547C177.681 0.65411 191.043 0.426336 198.451 -3.32763C200.039 -4.13234 201.357 -7.66809 197.913 -9.06708Z" fill="#BFEDC3"/>
<path fill-rule="evenodd" clip-rule="evenodd" d="M109.992 -21.5148C104.97 -23.5236 72.1118 -18.2866 69.457 -11.3992C68.4671 -8.83023 70.0048 -5.62787 73.4187 -4.42461C81.1796 -13.1937 93.1906 -16.2195 98.2261 -16.6362C101.718 -17.1981 106.606 -17.9131 98.2261 -16.2775C89.8465 -14.6419 80.1946 -7.36948 76.4161 -3.9377C81.0379 -3.9377 83.3683 -5.24989 85.9176 -6.68524C87.167 -7.38873 88.469 -8.12181 90.119 -8.74449C92.305 -9.5694 94.5722 -9.58034 96.7981 -9.59108C99.6805 -9.60499 102.493 -9.61856 104.97 -11.3989C108.482 -13.9231 111.246 -21.5148 109.992 -21.5148Z" fill="#BFEDC3"/>
<path d="M143.926 6.8955C148.769 2.94963 161.647 5.78361 167.53 13.8548C164.367 13.1892 157.306 9.90895 152.219 10.2787C147.37 10.2787 143.091 7.57581 143.926 6.8955Z" fill="#BFEDC3"/>
<path d="M132.663 9.65761C131.945 20.5267 148.848 30.4272 168.821 23.5399C171.821 22.5055 173.517 21.0164 173.987 20.0604C170.866 15.2177 163.059 14.5016 160.93 14.7514C155.118 15.4329 151.603 15.3612 146.796 11.1283C141.487 7.82816 137.111 11.1283 132.663 9.65761Z" fill="#BFEDC3"/>
<path d="M182.632 38.8212C181.592 40.2202 184.246 44.7041 182.524 47.8608C185.394 47.8608 187.962 45.2278 188.479 42.0137C189.125 37.9961 189.842 36.4716 194.469 32.6333C193.561 32.4659 186.365 33.8013 182.632 38.8212Z" fill="#BFEDC3"/>
<path d="M101.168 1.58651C107.947 6.46504 102.961 21.3876 117.955 26.1226C122.87 29.2435 126.17 23.5758 121.076 20.6343C118.162 18.9515 119.39 16.0786 114.942 12.9937C110.494 9.90871 108.346 5.56651 106.405 2.87789C104.97 0.891554 103.033 0.402754 101.168 1.58651Z" fill="#BFEDC3"/>
<path fill-rule="evenodd" clip-rule="evenodd" d="M92.5934 -5.93334C88.4982 -5.45356 85.1077 -5.05632 83.2317 -1.28321C81.2079 2.78745 85.3681 5.57442 91.2311 6.3933C94.5068 6.85081 99.9479 9.65761 103.212 14.7514C104.334 10.8074 103.546 7.70402 101.885 4.92257C100.615 2.79623 99.3739 2.67819 100.127 -0.0635757C101.373 -4.59838 98.2261 -6.87917 98.2261 -6.87917C98.2261 -6.87917 106.405 -1.46257 109.203 3.95404C112.001 9.37064 119.319 16.5808 125.847 16.796C132.376 17.0113 130.244 9.12003 129.363 2.62679C127.318 6.8955 119.145 -5.25225 116.164 -9.08805C109.522 -9.71675 102.158 -7.91188 98.2261 -6.87917C96.2606 -6.36299 94.3613 -6.14047 92.5934 -5.93334ZM117.339 -8.94955C120.287 -7.77596 127.892 4.90697 127.892 1.40716C128.538 -5.76715 123.336 -9.85288 117.339 -8.94955Z" fill="#BFEDC3"/>
<path d="M142.541 0.136124C129.132 0.136124 128.645 9.90895 138.187 7.25433C157.331 -0.364336 166.93 6.36494 174.597 18.1233C186.733 22.3733 214.622 27.7995 229.085 15.5047C230.616 13.4085 231.123 7.74302 220.907 1.85021C215.9 8.22512 199.31 19.3912 173.005 13.0564C166.701 -2.81907 153.095 0.402834 142.541 0.136124Z" fill="#BFEDC3"/>
<path d="M341.403 10.0779C335.156 30.1822 321.574 51.6567 311.087 61.4052C318.107 61.2775 328.993 54.4522 330.699 50.0623C328.699 50.0623 326.026 51.479 324.886 51.4998C328.784 49.1433 334.697 44.339 338.386 37.3748C335.792 38.0073 334.875 38.0853 333.261 38.9998C336.94 36.1221 343.105 27.8846 343.512 20.4997C341.202 21.3897 339.574 22.7498 339.574 22.7498C341.175 21.6477 342.877 15.2327 341.403 10.0779Z" fill="#BFEDC3"/>
<path d="M16.7279 119.142C11.5032 121.699 3.46812 119.518 0.103638 118.108C2.11636 111.535 8.92658 106.787 12.0801 105.235C11.5508 104.197 8.65279 103.459 7.26995 103.219C14.2165 94.7835 24.2903 91.6568 28.4589 91.1479L23.1531 90.315C29.6803 81.1102 40.1109 79.3443 44.5103 79.6119C44.4346 78.0228 41.5889 76.9972 40.1755 76.683C60.7086 70.1585 70.9349 79.1594 72.3012 84.3053C52.8982 86.1862 41.7321 97.081 39.7546 102.463C54.6781 86.0978 79.8366 91.5421 91.9803 96.631L91.8872 100.393C82.8189 96.5926 79.7617 97.1037 77.4574 97.2196C79.0785 121.446 51.9259 126.29 54.0926 124.88C55.8259 123.753 56.8215 120.802 57.1026 119.467C47.6789 128.682 31.1921 127.984 33.0892 126.554C34.6068 125.41 34.9772 123.081 34.9727 122.059C23.2667 128.093 9.32741 123.086 12.5244 122.757C15.0821 122.494 16.3924 120.237 16.7279 119.142Z" fill="#BFEDC3"/>
<path d="M267.543 126.59C270.126 132.109 273.029 147.871 252.978 149.536L249.683 154.576C248.185 154.796 246.699 155.038 245.227 155.298L250.302 148.381C246.934 142.9 244.96 130.347 264.007 123.989C262.731 125.52 259.472 130.223 259.025 131.258C261.007 130.937 264.566 129.452 267.543 126.59Z" fill="#BFEDC3"/>
<path d="M230.664 122.24C238.84 127.613 243.326 143.004 224.356 150.134L219.222 162.026C217.122 162.74 215.14 163.457 213.295 164.161C215.578 159.852 220.171 150.815 220.279 149.141C216.594 146.253 211.995 137.947 223.082 127.824C222.279 129.645 220.727 133.73 220.945 135.503C223.889 133.822 229.25 126.749 230.664 122.24Z" fill="#BFEDC3"/>
<path d="M309.908 163.771C304.517 167.127 290.819 168.023 278.537 156.27C273.125 155.622 263.228 155.533 251.03 157.348C249.147 157.628 247.21 157.953 245.225 158.329C239.112 159.487 232.555 161.122 225.789 163.378C220.221 165.235 214.512 167.514 208.793 170.294L203.873 168.17C206.326 166.985 209.523 165.601 213.295 164.161C215.14 163.457 217.122 162.74 219.222 162.026C226.696 159.487 235.661 156.992 245.227 155.298C246.699 155.038 248.185 154.796 249.683 154.576C259.129 153.189 269.013 152.667 278.519 153.702C281.465 148.933 291.557 143.521 308.35 160.027L297.246 153.134C299.433 154.949 304.322 159.158 309.908 163.771Z" fill="#BFEDC3"/>
<path d="M262.586 165.824C257.005 162.385 249.158 159.035 245.225 158.329C247.21 157.953 249.147 157.628 251.03 157.348C251.944 157.743 258.855 160.47 263.207 162.605C276.614 162.147 284.503 169.608 283.263 180.069C279.677 173.197 277.378 171.248 276.677 171.133C279.377 173.323 279.787 177.647 279.427 179.232C265.651 177.176 262.507 169.169 262.586 165.824Z" fill="#BFEDC3"/>
<path d="M208.793 170.294C214.512 167.514 220.221 165.235 225.789 163.378L240.175 168.994C248.87 168.856 264.904 173.854 259.486 194.943C259.947 192.443 259.886 185.833 255.96 179.392C255.783 181.978 255.899 188.121 257.785 192.007C251.626 190.184 239.198 183.686 238.759 172.274C233.722 170.065 220.678 166.577 208.793 170.294Z" fill="#BFEDC3"/>
<circle cx="319.867" cy="108.775" r="7.33692" fill="#BFEDC3"/>
<circle cx="279.323" cy="35.3682" r="3.36816" fill="#BFEDC3"/>
<circle cx="146.509" cy="133.639" r="3.36816" fill="#BFEDC3"/>
</g>
<defs>
<clipPath id="clip0_1973_20895">
<rect width="344" height="208" fill="white"/>
</clipPath>
</defs>
</svg>
