<svg width="476" height="376" viewBox="0 0 476 376" fill="none" xmlns="http://www.w3.org/2000/svg">
<g clip-path="url(#clip0_1995_21095)">
<path d="M412.006 375.5H-114.756C-110.164 373.291 -95.5115 370.165 -84.0225 368.014C-84.36 361.17 -81.1381 354.829 -79.2818 352.289C-80.6916 357.458 -79.0618 363.623 -77.7588 366.88C-77.5611 366.846 -77.3657 366.812 -77.1728 366.778L-75.6603 353.77L-72.8703 366.063C-70.6383 355.09 -73.8003 345.943 -75.6603 342.741C-71.8122 345.323 -64.6377 353.288 -64.3799 365.574C-63.3478 365.663 -62.0479 365.753 -59.8387 365.724C-59.6845 361.146 -61.0145 348.986 -74.1788 325.128C-67.4443 331.753 -54.0556 349.086 -54.2591 365.515C-52.743 365.45 -51.2216 365.392 -49.6965 365.339C-50.4721 358.08 -46.9987 351.18 -45.0423 348.503C-45.7932 352.348 -46.6914 360.141 -45.3978 365.207C-29.5057 364.771 -13.4258 364.929 0.676933 365.22C3.8661 361.369 16.534 352.719 36.112 353.691C26.3672 355.054 19.3645 359.924 13.4315 365.521C17.593 365.629 21.4654 365.735 24.9711 365.824C29.0199 361.689 33.5719 357.637 38.9104 355.501C36.1119 361.016 32.2435 363.705 30.5974 365.954C33.4072 366.012 36.4129 366.034 39.5871 366.028C40.9488 361.306 45.0834 354.593 45.0834 354.593L44.8328 365.995C45.4048 365.99 45.9813 365.983 46.5622 365.976C47.3206 359.907 48.5699 344.318 45.0834 323.566C51.5091 343.695 53.2258 351.435 52.7677 365.877C53.0149 365.872 53.2628 365.867 53.5113 365.862L57.7586 351.795L56.6676 365.796C58.6596 365.752 60.6878 365.703 62.7479 365.65C62.9071 359.493 61.8412 349.881 60.2278 345.869C64.7398 349.541 66.5554 359.171 67.7732 365.515C67.7971 365.514 67.821 365.513 67.845 365.513C67.2052 357.749 69.365 345.304 69.7753 340.107C70.1513 345.538 69.8403 357.47 71.3557 365.413C71.94 365.396 72.5264 365.379 73.1145 365.361C73.4701 356.024 76.9284 345.884 78.006 342.247C77.2557 350.406 76.8506 359.382 77.1351 365.242C78.0086 365.216 78.8855 365.189 79.7657 365.162L79.3229 360.026L82.865 365.068C84.5048 365.019 86.1543 364.969 87.8119 364.919C88.8923 364.886 89.9761 364.854 91.0628 364.821C91.4789 364.809 91.8955 364.797 92.3125 364.784C93.1718 364.759 94.0328 364.734 94.8953 364.709C96.7755 364.654 98.6626 364.6 100.554 364.548C102.959 364.482 105.371 364.418 107.784 364.359C108.396 354.553 115.048 337.645 115.62 335.501C113.605 346.703 112.856 355.144 113.127 361.593C118.872 354.566 118.441 346.946 118.007 343.235C120.559 350.727 120.413 358.48 119.798 364.098C121.056 364.076 122.312 364.055 123.565 364.035C124.722 354.28 124.303 340.821 122.945 334.84C129.032 344.718 128.447 356.543 127.161 363.985C127.983 363.974 128.803 363.965 129.621 363.956C129.163 355.915 131.232 346.059 131.67 342.247C132.388 346.827 132.566 357.206 134.055 363.919C134.518 363.916 134.98 363.914 135.442 363.912C134.969 350.637 138.013 335.21 140.065 328.255C137.053 338.672 140.978 354.201 140.214 363.901C140.813 363.902 141.411 363.902 142.008 363.904C140.39 354.49 142.98 342.215 143.851 337.309C143.851 337.309 147.4 355.573 148.625 358.053C149.201 349.246 154.304 350.563 151.423 324.801C158.598 340.139 153.428 352.602 154.383 361.314C155.844 358.351 157.051 355.877 157.02 355.008C157.115 357.691 157.006 361.298 156.758 364.101C157.443 364.119 158.125 364.138 158.804 364.158C158.889 356.255 159.843 347.117 160.477 343.235C159.947 351.507 161.193 359.505 162.103 364.267C162.44 364.28 162.776 364.292 163.111 364.306C164.317 364.353 165.52 364.396 166.721 364.436C167.473 354.178 165.541 336.29 164.263 328.255C167.874 335.128 169.948 353.928 170.759 364.557C172.228 364.596 173.692 364.63 175.151 364.659L172.823 344.058C174.342 348.161 176.598 357.201 176.969 364.692C178.275 364.714 179.577 364.732 180.874 364.746C182.128 364.759 183.379 364.768 184.624 364.774C185.502 364.778 186.377 364.78 187.25 364.78C188.756 364.78 190.255 364.775 191.746 364.765C193.296 364.754 194.838 364.737 196.371 364.715C196.849 364.708 197.326 364.7 197.803 364.692C198.663 364.678 199.521 364.661 200.375 364.643C201.003 364.63 201.628 364.616 202.252 364.601C204.954 364.535 207.625 364.452 210.264 364.352C210.001 355.519 215.089 337.32 217.927 329.901C215.395 341.873 215.696 356.728 216.325 364.091C218.153 364.002 219.964 363.906 221.755 363.801C220.36 354.354 225.597 340.002 226.766 335.768C226.836 335.462 226.907 335.152 226.981 334.84C226.953 335.046 226.878 335.36 226.766 335.768C222.869 352.845 224.366 360.285 225.059 363.599C225.791 363.552 226.519 363.503 227.243 363.454C227.503 357.508 227.205 351.938 226.981 350.51C228.301 352.885 229.645 358.946 230.529 363.218C231.372 363.155 232.209 363.09 233.041 363.024C232.829 357.67 233.244 349.52 233.565 345.869C233.82 350.304 234.135 357.94 234.147 362.934C235.156 362.851 236.158 362.766 237.152 362.678C237.156 358.464 237.355 353.181 237.516 350.51L239.259 362.487C239.449 362.47 239.638 362.452 239.827 362.434C240.819 352.003 241.612 337.266 241.961 329.901C244.202 335.665 244.864 351.403 244.948 361.924C246.448 361.765 247.928 361.601 249.386 361.432C250.61 353.004 250.359 344.368 250.027 341.754C251.751 348.447 252.674 356.351 253.083 360.985C253.94 360.877 254.789 360.767 255.629 360.656C255.071 354.455 255.372 347.282 255.715 343.891C255.724 343.647 255.748 343.427 255.788 343.235C255.764 343.434 255.739 343.653 255.715 343.891C255.598 347.153 258.134 354.789 259.699 360.093C260.775 359.937 261.835 359.779 262.879 359.618C262.328 350.898 259.223 336.661 257.377 330.273C263.558 339.106 265.144 352.627 265.209 359.249C266.397 359.056 267.563 358.86 268.707 358.659L270.274 345.21V358.38C274.356 347.187 275.706 335.06 275.871 331.712C278.882 339.564 277.56 351.026 275.958 357.683C276.468 357.647 276.98 357.619 277.495 357.596C277.775 353.678 279.304 348.279 283.772 344.058C282.698 345.587 281.056 351.052 281.044 357.539C282.889 357.557 284.76 357.646 286.648 357.795C289.297 350.039 292.461 335.205 290.686 322C291.908 328.5 293.565 345.466 291.586 358.31C313.461 361.11 336.924 370.521 352.169 370.152C360.07 362.778 359.741 342.058 358.589 335.254C360.376 339.437 362.692 351.155 361.425 361.555C363.384 356.787 365.837 352.865 367.313 352.044C364.543 356.839 363.167 365.691 362.626 370.321C363.556 370.363 364.503 370.412 365.464 370.466C366.23 367.607 368.219 360.573 368.63 355.501V370.661C369.978 370.751 371.346 370.85 372.726 370.957C371.407 366.35 370.797 358.07 374.721 353.527C374.227 355.829 373.536 366.592 374.721 370.152C374.841 370.515 374.937 370.843 375.01 371.142C375.542 371.186 376.075 371.231 376.609 371.278C377.679 366.202 378.311 354.168 378.507 350.398C381.589 359.074 381.678 368.376 381.218 371.7C382.956 371.868 384.691 372.044 386.408 372.225V361.921C388.724 363.686 389.739 369.881 390.073 372.624C398.759 373.596 406.71 374.672 412.006 375.5Z" fill="#BFEDC3"/>
<path d="M203.625 345.869C204.375 354.429 200.375 363.901 200.375 364.643C201.003 364.63 201.628 364.616 202.252 364.601C204.954 362.335 204.293 351.169 203.625 345.869Z" fill="#BFEDC3"/>
<path d="M196.371 361.314V364.715C196.849 364.708 197.326 364.7 197.803 364.692L196.371 361.314Z" fill="#BFEDC3"/>
<path d="M185.125 355.008C184.51 356.145 184.281 357.887 184.25 359.646C184.215 361.606 184.427 363.586 184.624 364.774C185.502 364.778 186.377 364.78 187.25 364.78L185.125 355.008Z" fill="#BFEDC3"/>
<path d="M191.746 364.765C193.296 364.754 194.838 364.737 196.371 364.715C196.371 363.985 190.25 353.125 194.75 326.375C192.207 336.965 188.046 359.469 191.746 364.765Z" fill="#BFEDC3"/>
<path fill-rule="evenodd" clip-rule="evenodd" d="M184.25 359.646C184.215 361.606 184.427 363.586 184.624 364.774C183.379 364.768 182.128 364.759 180.874 364.746C178.873 362.595 177.874 346.936 177.625 339.375C177.66 339.499 177.843 339.964 178.129 340.689C179.456 344.061 183 353.065 184.25 359.646ZM180.874 358.38L179.625 350.51L180.874 352.125V358.38Z" fill="#BFEDC3"/>
<path d="M94.8953 364.709C96.7755 364.654 98.6626 364.6 100.554 364.548C102 352.75 101.625 344.438 97.375 328.255C99.1632 337.216 97.2247 351.996 94.8953 364.709Z" fill="#BFEDC3"/>
<path d="M92.3125 364.784C93.1718 364.759 94.0328 364.734 94.8953 364.709L92.3125 358.375V364.784Z" fill="#BFEDC3"/>
<path d="M88.8125 344.438C87.4371 349.821 85.3115 361.454 87.8119 364.919C88.8923 364.886 89.9761 364.854 91.0628 364.821C87.9967 361.02 88.2851 349.648 88.8125 344.438Z" fill="#BFEDC3"/>
<path d="M305.839 297.61C301.308 299.672 298.339 302.047 298.589 303.61C296.256 300.985 296.934 293.169 300.964 291.235C304.994 289.3 307.589 291.235 307.589 291.235C307.589 291.235 303.87 292.016 303.026 293.485C305.214 292.235 306.433 292.016 310.339 292.235L310.339 292.254C310.339 293.204 310.34 295.561 305.839 297.61Z" fill="#BFEDC3"/>
<path d="M255.989 306.066C264.329 309.862 269.793 314.234 269.333 317.11C273.627 312.278 272.379 297.893 264.961 294.332C257.544 290.772 252.768 294.332 252.768 294.332C252.768 294.332 259.612 295.77 261.165 298.474C257.139 296.173 254.896 295.77 247.706 296.173L247.706 296.208C247.706 297.957 247.705 302.295 255.989 306.066Z" fill="#BFEDC3"/>
<path d="M363.75 319C368.95 317.6 377.917 308.417 381.75 304C381.75 304 384.875 304 381.75 309.25C378.625 314.5 369.167 318 363.75 319Z" fill="#BFEDC3"/>
<path d="M440.19 376.469L442.146 341.915L437.501 342.893L423.321 340.775H417.535C416.421 345.773 414.219 356.4 410.771 357.644C405.8 359.437 391.419 359.654 386.079 363.837C380.739 368.02 382.33 374.35 383.226 376.469H440.19Z" fill="#BFEDC3"/>
<path d="M489.82 354.139L487.049 344.931L512.393 335.233L519.402 365.06C519.402 365.06 502.134 375.113 489.82 377.039C481.456 378.348 468.142 377.039 468.142 377.039C468.142 377.039 464.752 370.659 468.142 366.934C473.156 361.425 489.005 359.763 489.005 359.763L489.82 354.139Z" fill="#BFEDC3"/>
<path fill-rule="evenodd" clip-rule="evenodd" d="M477.107 55.8742C468.251 60.9268 452.284 70.0215 449.48 70.869C448.014 68.9403 445.259 63.9421 445.976 59.3784L449.48 58.482L449.888 47.3174L444.672 44.8726C444.292 42.0747 443.499 36.3485 443.368 35.8269C443.238 35.3054 441.358 31.535 440.435 29.7149L439.212 24.1734V20.3432L438.397 19.2023V15.8611L438.049 13.3673C441.129 13.8497 445.622 12.6774 447.484 12.031C444.224 12.8133 439.742 12.5742 437.908 12.3569C433.616 9.20581 432.509 3.59513 437.175 2.41474C443.939 0.703563 461.426 -3.0154 467.693 3.59513C469.655 5.66466 470.788 9.36727 470.669 15.8611V17.8169C472.95 17.1378 477.009 17.6214 474.988 24.9883C474.988 25.4773 473.684 31.8338 470.669 30.7744L477.107 55.8742Z" fill="#BFEDC3"/>
<path fill-rule="evenodd" clip-rule="evenodd" d="M476.778 57.4643C464.253 64.6116 453.505 70.2854 449.48 72.3359C445.634 69.0761 444.672 62.3394 444.672 59.3784C431.047 63.4857 425.25 70.1627 424.055 72.9878L419.246 118.706L423.321 117.239L425.032 114.386L431.776 112.249L430.248 72.3359C431.369 69.5983 435.578 63.4224 443.639 59.8176C439.398 61.8695 437.409 66.0512 436.93 68.0168L438.519 110.112L439.946 109.66L440.924 111.453L459.912 106.482L439.946 113.001L439.049 110.801L426.01 115.772L425.032 117.809L396.51 126.121L391.05 115.772L387.464 113.001C384.791 112.545 383.036 110.149 382.493 109.008C384.188 110.898 385.97 111.751 386.649 111.942L411.097 27.8406L402.459 24.5809L381.76 101.755L380.374 109.008V113.571L382.9 115.772L382.493 117.809L377.685 114.386L378.826 113.571L376.544 111.942L372.551 114.386L369.536 129.544L367.987 131.011L369.536 135.819L380.945 139.405L371.817 137.53L369.536 148.451L363.016 149.591L359.675 147.065L357.556 148.451L358.615 153.666L355.03 154.4L353.807 158.067L357.556 162.304L355.03 164.016L354.622 167.846L357.556 169.883L355.845 170.861V174.936H362.527L322.921 323.905L295.947 317.549C292.304 319.861 290.235 345.649 289.616 353.369C289.53 354.439 289.472 355.162 289.441 355.427C289.435 355.464 289.431 355.497 289.428 355.525C289.431 355.507 289.436 355.474 289.441 355.427C289.806 353.176 295.368 335.252 298.148 326.432C299.517 325.715 300.674 327.274 301.081 328.143C297.822 331.207 295.811 352.89 295.214 363.348C295.458 361.637 304.341 329.61 305.889 328.143C307.128 326.97 308.959 328.904 309.72 330.017C307.764 333.612 304.432 355.851 302.864 367.577C302.764 368.083 302.711 368.472 302.711 368.727C302.76 368.356 302.811 367.973 302.864 367.577C304.011 361.747 311.355 340.383 315.18 329.61L319.988 331.566L309.72 370.683C310.046 371.443 310.763 372.72 311.023 371.742C311.284 370.764 319.716 344.985 323.899 332.218L327.974 332.951C326.67 335.396 319.01 374.676 319.988 373.698C320.77 372.916 328.246 347.294 331.886 334.581L335.797 335.885C334.754 337.58 330.147 363.756 327.974 376.632C328.756 375.067 336.123 349.359 339.709 336.7L344.11 338.004C344.11 339.438 338.568 365.657 335.797 378.587C337.362 376.892 345.142 351.695 348.836 339.308L352.259 340.775C350.466 345.012 344.11 380.38 344.11 381.684C347.239 376.469 354.541 347.566 357.801 333.766L330.093 325.78L374.914 151.221L376.544 149.591L371.002 173.387C373.089 171.823 376.218 169.041 377.522 167.846L411.097 160.838V165.238L426.907 162.63L427.722 159.045L436.36 156.274L437.664 163.445V175.343L415.987 236.3L412.727 250.154L414.105 310.785L440.924 315.512L414.194 314.697H411.749L414.194 339.308L447.28 340.775L451.681 316.49L446.465 315.512L449.888 261.4L444.183 260.422L449.648 258.636L448.91 250.154L458.363 188.382L450.703 250.154L451.681 260.422L474.662 320.238L503.347 313.556L473.195 323.335L484.278 343.708L515.245 332.625L511.008 310.785L506.444 312.741L491.775 260.422H488.679L491.775 255.533C502.598 207.419 505.086 172.355 504.977 160.838L502.859 153.503L500.577 147.31L491.775 117.646L471.565 140.464L491.775 114.875L508.237 76.8995C504.819 62.2968 493.635 57.2156 485.285 56.0697C478.267 58.1818 473.866 66.0011 472.543 69.6467L468.224 72.9878L465.29 78.8554C461.662 69.786 470.216 61.62 476.778 57.4643ZM472.543 72.3359L457.222 99.5546C457.222 99.5546 464.401 85.2343 469.12 73.8027L472.543 70.869V72.3359Z" fill="#BFEDC3"/>
</g>
<defs>
<clipPath id="clip0_1995_21095">
<rect width="476" height="376" fill="white"/>
</clipPath>
</defs>
</svg>
