<svg width="178" height="84" viewBox="0 0 178 84" fill="none" xmlns="http://www.w3.org/2000/svg">
<g clip-path="url(#clip0_2062_22098)">
<path fill-rule="evenodd" clip-rule="evenodd" d="M54 0C26 6.5 0 32.5 0 60.5C0 79.5538 15.4462 95 34.5 95C53.5538 95 69 79.5538 69 60.5C69 44.0222 57.4481 30.2425 42.001 26.8177C42.1052 17.6339 50.0263 5.13263 54 0ZM5 60.5C5 40.5 20 21.8333 27.5 15C13.5 28.2 8 50.8333 7 60.5H5Z" fill="#BFEDC3"/>
<path d="M152 31C161.188 33.5 172.5 47.3 172.5 60.5C172.5 60.5 171.875 61.1094 170.984 60.7656C169.172 48.7031 165.938 38.875 152 31Z" fill="#BFEDC3"/>
<path fill-rule="evenodd" clip-rule="evenodd" d="M163 0C135 6.5 109 32.5 109 60.5C109 79.5538 124.446 95 143.5 95C162.554 95 178 79.5538 178 60.5C178 44.0222 166.448 30.2425 151.001 26.8177C151.105 17.6339 159.026 5.13263 163 0ZM151.001 26.8177L149.5 28.2188C146.312 18.5 154.375 7.9375 157.25 6.5625C154.468 9.06709 148.656 16.5625 151.001 26.8177ZM172.5 60.5C172.5 47.3 161.188 33.5 152 31C165.938 38.875 169.172 48.7031 170.984 60.7656C171.875 61.1094 172.5 60.5 172.5 60.5ZM170.062 67.0625C170.542 67 171.562 66.975 171.812 67.375C170.875 72.5833 166.1 84.4375 154.5 90.1875C158.625 87.9167 167.513 80.1125 170.062 67.0625Z" fill="#BFEDC3"/>
</g>
<defs>
<clipPath id="clip0_2062_22098">
<rect width="178" height="84" fill="white"/>
</clipPath>
</defs>
</svg>
