<svg width="345" height="217" viewBox="0 0 345 217" fill="none" xmlns="http://www.w3.org/2000/svg">
<g clip-path="url(#clip0_2332_27817)">
<path d="M307.34 218.726H0C2.67924 217.437 11.2281 215.614 17.9314 214.359C17.7345 210.366 19.6143 206.666 20.6974 205.184C19.8749 208.2 20.8257 211.797 21.586 213.697C21.7014 213.677 21.8153 213.657 21.9279 213.638L22.8104 206.048L24.4382 213.22C25.7405 206.818 23.8956 201.481 22.8104 199.613C25.0555 201.12 29.2415 205.767 29.3919 212.935C29.9941 212.987 30.7526 213.039 32.0415 213.023C32.1315 210.352 31.3555 203.257 23.6748 189.337C27.604 193.202 35.4156 203.315 35.297 212.901C36.1815 212.863 37.0692 212.829 37.959 212.798C37.5065 208.562 39.533 204.537 40.6745 202.975C40.2364 205.218 39.7123 209.765 40.4671 212.721C49.7394 212.467 59.1212 212.559 67.3495 212.728C69.2102 210.482 76.6013 205.435 88.0241 206.002C82.3385 206.797 78.2527 209.639 74.7911 212.904C77.2192 212.967 79.4785 213.029 81.5239 213.081C83.8862 210.669 86.5421 208.304 89.6568 207.058C88.0241 210.276 85.767 211.844 84.8066 213.157C86.446 213.191 88.1997 213.204 90.0517 213.2C90.8462 210.445 93.2585 206.529 93.2585 206.529L93.1123 213.181C93.446 213.178 93.7824 213.174 94.1213 213.17C94.5638 209.628 95.2927 200.533 93.2585 188.426C97.0076 200.17 98.0092 204.686 97.7419 213.112C97.8861 213.109 98.0308 213.106 98.1758 213.103L100.654 204.896L100.017 213.065C101.18 213.039 102.363 213.01 103.565 212.979C103.658 209.387 103.036 203.779 102.094 201.438C104.727 203.581 105.786 209.199 106.497 212.9C106.511 212.9 106.525 212.9 106.539 212.899C106.165 208.37 107.426 201.109 107.665 198.077C107.884 201.245 107.703 208.207 108.587 212.841C108.928 212.831 109.27 212.821 109.613 212.811C109.821 207.363 111.838 201.447 112.467 199.325C112.029 204.085 111.793 209.323 111.959 212.741C112.469 212.726 112.98 212.711 113.494 212.695L113.236 209.698L115.302 212.64C116.259 212.611 117.221 212.582 118.189 212.553C118.819 212.534 119.451 212.515 120.085 212.496C120.328 212.489 120.571 212.482 120.814 212.474C121.316 212.46 121.818 212.445 122.321 212.43C123.418 212.398 124.519 212.367 125.623 212.337C127.026 212.298 128.433 212.261 129.841 212.226C130.199 206.505 134.08 196.64 134.413 195.389C133.237 201.925 132.8 206.85 132.959 210.613C136.311 206.513 136.059 202.066 135.806 199.901C137.295 204.273 137.21 208.796 136.851 212.074C137.585 212.061 138.317 212.049 139.049 212.037C139.724 206.346 139.479 198.493 138.687 195.003C142.238 200.767 141.897 207.666 141.147 212.008C141.626 212.002 142.105 211.996 142.582 211.991C142.315 207.3 143.522 201.549 143.777 199.325C144.197 201.997 144.301 208.053 145.169 211.97C145.439 211.968 145.709 211.967 145.978 211.965C145.703 204.22 147.478 195.219 148.676 191.162C146.918 197.239 149.208 206.299 148.762 211.959C149.112 211.959 149.461 211.96 149.809 211.961C148.865 206.468 150.376 199.306 150.885 196.444C150.885 196.444 152.955 207.1 153.67 208.547C154.006 203.409 156.983 204.177 155.303 189.146C159.489 198.095 156.473 205.366 157.029 210.45C157.882 208.721 158.586 207.277 158.568 206.77C158.623 208.336 158.56 210.44 158.415 212.076C158.815 212.086 159.213 212.097 159.609 212.109C159.659 207.498 160.215 202.166 160.585 199.901C160.276 204.728 161.003 209.394 161.534 212.173C161.73 212.18 161.926 212.187 162.122 212.195C162.826 212.223 163.528 212.248 164.228 212.271C164.667 206.286 163.54 195.849 162.794 191.162C164.901 195.171 166.111 206.14 166.584 212.342C167.441 212.365 168.295 212.385 169.147 212.401L167.788 200.382C168.675 202.775 169.991 208.05 170.207 212.421C170.969 212.434 171.729 212.444 172.486 212.452C173.218 212.46 173.947 212.465 174.674 212.468C175.186 212.471 175.697 212.472 176.206 212.472C177.084 212.472 177.959 212.469 178.829 212.463C179.733 212.457 180.633 212.447 181.527 212.434C181.806 212.43 182.085 212.425 182.363 212.421C182.865 212.412 183.365 212.403 183.864 212.392C184.23 212.384 184.595 212.376 184.959 212.367C186.535 212.329 188.094 212.28 189.633 212.222C189.48 207.068 192.449 196.45 194.104 192.122C192.627 199.107 192.803 207.774 193.17 212.07C194.236 212.018 195.293 211.962 196.338 211.901C195.524 206.389 198.58 198.015 199.261 195.545C199.302 195.366 199.344 195.186 199.387 195.003C199.371 195.124 199.327 195.307 199.261 195.545C196.988 205.508 197.861 209.849 198.266 211.783C198.692 211.755 199.117 211.727 199.54 211.698C199.692 208.229 199.518 204.979 199.387 204.146C200.157 205.532 200.941 209.068 201.457 211.561C201.949 211.524 202.437 211.486 202.923 211.447C202.799 208.324 203.041 203.568 203.229 201.438C203.377 204.026 203.561 208.481 203.568 211.395C204.157 211.347 204.741 211.297 205.321 211.246C205.323 208.787 205.439 205.704 205.534 204.146L206.551 211.134C206.661 211.124 206.772 211.114 206.882 211.103C207.461 205.017 207.923 196.419 208.127 192.122C209.434 195.484 209.821 204.667 209.87 210.805C210.745 210.713 211.608 210.617 212.459 210.518C213.173 205.601 213.027 200.563 212.833 199.037C213.839 202.942 214.378 207.554 214.616 210.258C215.116 210.195 215.611 210.131 216.102 210.066C215.776 206.448 215.952 202.262 216.152 200.284C216.157 200.142 216.171 200.014 216.194 199.901C216.18 200.018 216.166 200.146 216.152 200.284C216.083 202.188 217.563 206.642 218.477 209.737C219.104 209.646 219.722 209.554 220.332 209.46C220.01 204.373 218.199 196.066 217.122 192.339C220.728 197.492 221.653 205.381 221.691 209.245C222.384 209.132 223.065 209.018 223.732 208.901L224.646 201.054V208.738C227.028 202.207 227.816 195.132 227.912 193.178C229.669 197.76 228.897 204.447 227.963 208.331C228.26 208.31 228.559 208.294 228.859 208.281C229.023 205.995 229.915 202.844 232.522 200.382C231.895 201.274 230.937 204.462 230.93 208.247C232.007 208.257 233.098 208.309 234.2 208.396C235.745 203.871 237.592 195.216 236.556 187.512C237.269 191.304 238.235 201.203 237.081 208.697C249.844 210.33 263.533 215.822 272.428 215.606C277.038 211.304 276.846 199.215 276.174 195.245C277.216 197.686 278.568 204.523 277.828 210.59C278.972 207.809 280.403 205.52 281.264 205.041C279.648 207.839 278.845 213.003 278.529 215.705C279.072 215.73 279.624 215.758 280.185 215.789C280.632 214.121 281.792 210.017 282.032 207.058V215.903C282.819 215.956 283.617 216.013 284.422 216.076C283.653 213.388 283.297 208.557 285.586 205.906C285.298 207.25 284.895 213.529 285.586 215.606C285.656 215.818 285.712 216.01 285.755 216.184C286.065 216.209 286.376 216.236 286.688 216.263C287.312 213.302 287.681 206.28 287.795 204.081C289.593 209.143 289.645 214.57 289.377 216.51C290.391 216.607 291.403 216.71 292.405 216.816V210.804C293.756 211.833 294.349 215.448 294.543 217.048C299.611 217.615 304.25 218.243 307.34 218.726Z" fill="#BFEDC3"/>
<path d="M185.76 201.438C186.197 206.432 183.864 211.959 183.864 212.392C184.23 212.384 184.595 212.376 184.959 212.367C186.535 211.045 186.15 204.53 185.76 201.438Z" fill="#BFEDC3"/>
<path d="M181.527 210.45V212.434C181.806 212.43 182.085 212.425 182.363 212.421L181.527 210.45Z" fill="#BFEDC3"/>
<path d="M174.966 206.77C174.607 207.434 174.474 208.45 174.456 209.476C174.435 210.62 174.559 211.775 174.674 212.468C175.186 212.471 175.697 212.472 176.206 212.472L174.966 206.77Z" fill="#BFEDC3"/>
<path d="M178.829 212.463C179.733 212.457 180.633 212.447 181.527 212.434C181.527 212.008 177.956 205.672 180.582 190.064C179.098 196.243 176.67 209.373 178.829 212.463Z" fill="#BFEDC3"/>
<path fill-rule="evenodd" clip-rule="evenodd" d="M174.456 209.476C174.435 210.62 174.559 211.775 174.674 212.468C173.947 212.465 173.218 212.46 172.486 212.452C171.318 211.197 170.735 202.061 170.59 197.649C170.611 197.722 170.717 197.993 170.884 198.416C171.658 200.383 173.726 205.637 174.456 209.476ZM172.486 208.738L171.757 204.146L172.486 205.088V208.738Z" fill="#BFEDC3"/>
<path d="M122.321 212.43C123.418 212.398 124.519 212.367 125.623 212.337C126.467 205.453 126.248 200.603 123.768 191.162C124.811 196.39 123.68 205.013 122.321 212.43Z" fill="#BFEDC3"/>
<path d="M120.814 212.474C121.316 212.46 121.818 212.445 122.321 212.43L120.814 208.735V212.474Z" fill="#BFEDC3"/>
<path d="M118.772 200.603C117.97 203.744 116.73 210.531 118.189 212.553C118.819 212.534 119.451 212.515 120.085 212.496C118.296 210.278 118.465 203.643 118.772 200.603Z" fill="#BFEDC3"/>
<path d="M245.397 173.281C242.753 174.485 241.021 175.87 241.167 176.782C239.806 175.25 240.201 170.691 242.553 169.562C244.904 168.433 246.418 169.562 246.418 169.562C246.418 169.562 244.248 170.018 243.756 170.875C245.032 170.145 245.743 170.018 248.022 170.145L248.022 170.156C248.023 170.711 248.023 172.086 245.397 173.281Z" fill="#BFEDC3"/>
<path d="M216.311 178.215C221.178 180.43 224.366 182.981 224.097 184.659C226.603 181.84 225.875 173.447 221.547 171.369C217.219 169.292 214.432 171.369 214.432 171.369C214.432 171.369 218.426 172.208 219.332 173.785C216.983 172.443 215.674 172.208 211.479 172.443L211.479 172.464C211.479 173.484 211.478 176.015 216.311 178.215Z" fill="#BFEDC3"/>
<path d="M279.185 185.762C282.219 184.945 287.451 179.587 289.687 177.01C289.687 177.01 291.51 177.01 289.687 180.073C287.864 183.136 282.345 185.178 279.185 185.762Z" fill="#BFEDC3"/>
<path d="M323.784 219.292L324.925 199.131L322.215 199.702L313.942 198.466H310.566C309.916 201.382 308.631 207.583 306.619 208.308C303.719 209.354 295.328 209.481 292.212 211.922C289.097 214.362 290.025 218.055 290.548 219.292H323.784Z" fill="#BFEDC3"/>
<path d="M352.74 206.264L351.124 200.891L365.911 195.233L370 212.635C370 212.635 359.925 218.5 352.74 219.624C347.86 220.388 340.093 219.624 340.093 219.624C340.093 219.624 338.115 215.902 340.093 213.729C343.018 210.515 352.265 209.544 352.265 209.544L352.74 206.264Z" fill="#BFEDC3"/>
<path fill-rule="evenodd" clip-rule="evenodd" d="M345.323 32.2402C340.156 35.1882 330.84 40.4945 329.204 40.9889C328.348 39.8637 326.741 36.9474 327.16 34.2848L329.204 33.7617L329.442 27.2478L326.399 25.8213C326.177 24.1889 325.714 20.8479 325.638 20.5436C325.562 20.2393 324.465 18.0394 323.927 16.9776L323.213 13.7443V11.5096L322.738 10.8439V8.8945L322.535 7.43952C324.331 7.72092 326.953 7.03698 328.039 6.65983C326.138 7.11628 323.522 6.97678 322.453 6.84997C319.948 5.01147 319.302 1.73791 322.025 1.04921C325.971 0.0508163 336.174 -2.11902 339.831 1.73791C340.975 2.94538 341.636 5.10567 341.567 8.8945V10.0356C342.898 9.63941 345.266 9.92153 344.087 14.2198C344.087 14.5051 343.326 18.2138 341.567 17.5957L345.323 32.2402Z" fill="#BFEDC3"/>
<path fill-rule="evenodd" clip-rule="evenodd" d="M345.131 33.1679C337.824 37.338 331.553 40.6485 329.204 41.8448C326.96 39.9429 326.399 36.0123 326.399 34.2848C318.449 36.6812 315.067 40.5769 314.37 42.2252L311.564 68.8993L313.942 68.0434L314.94 66.3793L318.874 65.1323L317.983 41.8448C318.637 40.2475 321.093 36.6442 325.796 34.541C323.322 35.7382 322.161 38.178 321.882 39.3249L322.809 63.8854L323.641 63.6215L324.212 64.6675L335.29 61.7672L323.641 65.5709L323.118 64.2872L315.511 67.1876L314.94 68.3762L298.299 73.2261L295.113 67.1876L293.021 65.5709C291.461 65.3047 290.437 63.9068 290.12 63.2411C291.109 64.3442 292.149 64.8419 292.545 64.9528L306.81 15.884L301.769 13.9821L289.692 59.0094L288.884 63.2411V65.9038L290.358 67.1876L290.12 68.3762L287.315 66.3793L287.981 65.9038L286.649 64.9528L284.32 66.3793L282.56 75.2231L281.657 76.0789L282.56 78.8842L289.217 80.9763L283.892 79.8827L282.56 86.254L278.757 86.9197L276.807 85.4457L275.571 86.254L276.189 89.2971L274.097 89.725L273.384 91.8646L275.571 94.3371L274.097 95.3356L273.859 97.5703L275.571 98.759L274.572 99.3295V101.707H278.471L255.363 188.623L239.625 184.915C237.5 186.264 236.292 201.31 235.931 205.814C235.881 206.438 235.847 206.86 235.829 207.015C235.826 207.036 235.823 207.055 235.821 207.072C235.823 207.062 235.826 207.042 235.829 207.015C236.042 205.702 239.287 195.244 240.909 190.097C241.708 189.679 242.383 190.589 242.621 191.096C240.719 192.884 239.546 205.535 239.197 211.636C239.34 210.638 244.522 191.952 245.426 191.096C246.149 190.411 247.217 191.54 247.661 192.19C246.52 194.287 244.575 207.262 243.66 214.104C243.602 214.399 243.572 214.626 243.572 214.775C243.6 214.558 243.63 214.335 243.66 214.104C244.33 210.702 248.615 198.238 250.846 191.952L253.652 193.093L247.661 215.916C247.851 216.359 248.269 217.104 248.421 216.534C248.573 215.963 253.493 200.922 255.934 193.473L258.311 193.901C257.55 195.328 253.081 218.246 253.652 217.675C254.108 217.219 258.47 202.27 260.593 194.852L262.876 195.613C262.267 196.602 259.579 211.874 258.311 219.387C258.768 218.474 263.066 203.474 265.158 196.088L267.726 196.849C267.726 197.686 264.492 212.984 262.876 220.528C263.789 219.539 268.328 204.837 270.483 197.61L272.48 198.466C271.434 200.938 267.726 221.574 267.726 222.335C269.551 219.292 273.812 202.428 275.714 194.377L259.547 189.717L285.698 87.8707L286.649 86.9197L283.416 100.804C284.633 99.8906 286.459 98.2676 287.22 97.5703L306.81 93.4812V96.0488L316.034 94.5273L316.509 92.4352L321.549 90.8186L322.31 95.0028V101.945L309.662 137.51L307.76 145.593L308.564 180.968L324.212 183.726L308.616 183.251H307.19L308.616 197.61L327.921 198.466L330.488 184.297L327.445 183.726L329.442 152.155L326.114 151.584L329.302 150.542L328.871 145.593L334.387 109.552L329.918 145.593L330.488 151.584L343.896 186.484L360.633 182.585L343.041 188.291L349.507 200.178L367.575 193.711L365.103 180.968L362.44 182.109L353.881 151.584H352.075L353.881 148.731C360.196 120.659 361.647 100.201 361.584 93.4812L360.348 89.202L359.017 85.5884L353.881 68.2811L342.09 81.5944L353.881 66.6645L363.486 44.5074C361.492 35.9875 354.966 33.0229 350.095 32.3543C346 33.5866 343.432 38.1488 342.66 40.2758L340.14 42.2252L338.429 45.6487C336.312 40.3571 341.303 35.5926 345.131 33.1679ZM342.66 41.8448L333.721 57.7256C333.721 57.7256 337.91 49.3704 340.663 42.7007L342.66 40.9889V41.8448Z" fill="#BFEDC3"/>
</g>
<defs>
<clipPath id="clip0_2332_27817">
<rect width="345" height="217" fill="white"/>
</clipPath>
</defs>
</svg>
