<svg width="200" height="109" viewBox="0 0 200 109" fill="none" xmlns="http://www.w3.org/2000/svg">
<g clip-path="url(#clip0_2061_22047)">
<path d="M119.141 8.50586C119.141 19.0771 110.571 27.6465 100 27.6465C89.4287 27.6465 80.8594 19.0771 80.8594 8.50586C80.8594 -2.06543 89.4287 -10.6348 100 -10.6348C110.571 -10.6348 119.141 -2.06543 119.141 8.50586Z" fill="#BFEDC3"/>
<path d="M144.763 -25.3598C143.843 -27.8531 142.375 -30.1099 140.468 -31.9623C138.616 -33.8696 136.36 -35.3375 133.866 -36.2576C131.842 -37.0435 128.803 -37.9788 123.204 -38.2336C117.148 -38.5098 115.332 -38.5693 100 -38.5693C84.6667 -38.5693 82.8509 -38.5114 76.7962 -38.2352C71.1978 -37.9788 68.1567 -37.0435 66.1349 -36.2576C63.6401 -35.3375 61.3833 -33.8696 59.5324 -31.9623C57.6251 -30.1099 56.1572 -27.8546 55.2355 -25.3598C54.4497 -23.3365 53.5143 -20.2954 53.2595 -14.697C52.9833 -8.64227 52.9238 -6.82648 52.9238 8.50708C52.9238 23.8391 52.9833 25.6549 53.2595 31.7111C53.5143 37.3096 54.4497 40.3491 55.2355 42.3724C56.1572 44.8672 57.6235 47.1225 59.5309 48.9749C61.3833 50.8823 63.6385 52.3502 66.1334 53.2703C68.1567 54.0576 71.1978 54.993 76.7962 55.2478C82.8509 55.524 84.6652 55.582 99.9987 55.582C115.334 55.582 117.15 55.524 123.203 55.2478C128.801 54.993 131.842 54.0576 133.866 53.2703C138.874 51.3385 142.832 47.3804 144.763 42.3724C145.549 40.3491 146.485 37.3096 146.741 31.7111C147.017 25.6549 147.075 23.8391 147.075 8.50708C147.075 -6.82648 147.017 -8.64227 146.741 -14.697C146.486 -20.2954 145.551 -23.3365 144.763 -25.3598ZM100 37.9916C83.7145 37.9916 70.5126 24.7913 70.5126 8.50555C70.5126 -7.78015 83.7145 -20.9805 100 -20.9805C116.284 -20.9805 129.486 -7.78015 129.486 8.50555C129.486 24.7913 116.284 37.9916 100 37.9916ZM130.652 -15.2554C126.847 -15.2554 123.761 -18.3408 123.761 -22.1463C123.761 -25.9518 126.847 -29.0372 130.652 -29.0372C134.458 -29.0372 137.543 -25.9518 137.543 -22.1463C137.541 -18.3408 134.458 -15.2554 130.652 -15.2554Z" fill="#BFEDC3"/>
<path fill-rule="evenodd" clip-rule="evenodd" d="M100 -91.4941C44.78 -91.4941 0 -46.7142 0 8.50586C0 10.859 0.0813205 13.1933 0.241304 15.5059C0.283773 16.1198 0.331786 16.7321 0.385292 17.343C1.49162 19.9086 7.09209 16.4318 10.1785 14.0059L1.11799 23.5059C2.66192 33.7656 5.76511 43.5153 10.1785 52.5059L24.5 54.0059L11.5 55.1014C19.5006 70.263 31.2833 83.1208 45.5917 92.4185C54.1146 94.4556 72.5769 98.0222 80.277 96.5316C74.7754 97.7065 62.2593 98.9455 50.6665 95.5059C65.2244 103.78 82.0613 108.506 100 108.506C113.304 108.506 126.001 105.907 137.613 101.189L104.5 103.506C117.69 100.747 144.812 95.458 147.784 96.3682C162.694 88.241 175.307 76.4294 184.399 62.1575C158.67 73.5887 148.122 74.3708 145.231 73.0641C149.682 73.9479 173.219 65.2769 185.5 60.3898C187.813 56.5875 189.879 52.6188 191.676 48.5059L185.5 46.1188H192.683C196.325 37.1548 198.705 27.5435 199.6 17.5059L196 15.5059L199.851 14.0059C199.95 12.185 200 10.3513 200 8.50586C200 -46.7142 155.22 -91.4941 100 -91.4941ZM157.076 32.1799C156.798 38.2925 155.826 42.4658 154.407 46.1188C151.424 53.8321 145.326 59.9295 137.613 62.9126C133.961 64.3317 129.787 65.3021 123.676 65.5814C117.552 65.8606 115.596 65.9277 100.002 65.9277C84.4055 65.9277 82.4509 65.8606 76.326 65.5814C70.2148 65.3021 66.04 64.3317 62.3886 62.9126C58.5556 61.4706 55.0858 59.2108 52.2171 56.2888C49.2966 53.4216 47.0367 49.9503 45.5948 46.1188L35.5 44.5059H45.0107C43.9104 41.2258 43.1638 37.4132 42.926 32.1814C42.6437 26.0565 42.5781 24.1003 42.5781 8.50586C42.5781 -7.08862 42.6437 -9.0448 42.9245 -15.1682C43.2022 -21.2808 44.1727 -25.4541 45.5917 -29.1071C47.0337 -32.9385 49.295 -36.4099 52.2171 -39.277C55.0842 -42.1991 58.5556 -44.4589 62.3871 -45.9009C66.04 -47.3199 70.2133 -48.2904 76.326 -48.5696C82.4493 -48.8489 84.4055 -48.916 100 -48.916C115.594 -48.916 117.551 -48.8489 123.674 -48.5681C129.787 -48.2904 133.96 -47.3199 137.613 -45.9024C141.444 -44.4604 144.916 -42.1991 147.784 -39.277C150.705 -36.4084 152.966 -32.9385 154.407 -29.1071C155.827 -25.4541 156.798 -21.2808 157.077 -15.1682C157.356 -9.0448 157.422 -7.08862 157.422 8.50586C157.422 18.1542 157.397 22.5819 157.311 26.0059L164.5 27.0059H157.284C157.233 28.6923 157.165 30.2234 157.076 32.1799ZM101 96.3682C102.167 93.5807 104.4 87.8059 104 87.0059C103.6 86.2059 101.833 92.9141 101 96.3682Z" fill="#BFEDC3"/>
</g>
<defs>
<clipPath id="clip0_2061_22047">
<rect width="200" height="109" fill="white"/>
</clipPath>
</defs>
</svg>
