<svg xmlns="http://www.w3.org/2000/svg" xmlns:xlink="http://www.w3.org/1999/xlink" width="326" height="127" fill="none" xmlns:v="https://vecta.io/nano"><style><![CDATA[.B{fill-rule:evenodd}.C{stroke-width:2}.D{stroke-linejoin:round}.E{fill:#fffff5}.F{stroke-linecap:round}]]></style><path d="M100.931 93.415v-2.811l60.25 5.063 52.375 25.5v3.312a1 1 0 0 1-1 1h-80.809a3.9 3.9 0 0 1-2.277-.723c-12.42-8.931-22.981-21.915-27.885-29.166a3.87 3.87 0 0 1-.654-2.174z" fill="#0c0c0c"/><path d="M270.556 24.667c-28 0-61.5 3.5-61.5 3.5l4 4 3 4 62-1s-1-10.5-7.5-10.5z" fill="#e6e6e6"/><path d="M213.306 32.542s40.375-4.25 64-2c3.5 51.5-1.75 87.375-1.75 87.375l-61.555 5.25-.695-90.625z" fill="url(#B)"/><rect x="220.133" y="37.097" width="50.875" height="3.232" rx="1.616" transform="rotate(357.387 220.133 37.097)" fill="url(#C)"/><rect x="220.133" y="51.645" width="50.875" height="3.232" rx="1.616" transform="rotate(357.387 220.133 51.645)" fill="url(#D)"/><rect x="220.133" y="66.191" width="50.875" height="3.232" rx="1.616" transform="rotate(357.387 220.133 66.191)" fill="url(#E)"/><rect x="220.133" y="80.739" width="50.875" height="3.232" rx="1.616" transform="rotate(357.387 220.133 80.739)" fill="url(#F)"/><rect x="220.133" y="95.287" width="50.875" height="3.232" rx="1.616" transform="rotate(357.387 220.133 95.287)" fill="url(#G)"/><rect x="220.133" y="109.835" width="50.875" height="3.232" rx="1.616" transform="rotate(357.387 220.133 109.835)" fill="url(#H)"/><path d="M212.556 32.792s43.54-4.206 62.211-3.295c1.475.072 2.614 1.266 2.707 2.74 2.68 42.569-.572 74.605-1.616 83.317-.167 1.394-1.296 2.442-2.695 2.553l-60.607 4.811V32.792z" stroke="#a3a2a2" class="C"/><path d="M212.931 33.167c-27.5-13-36.625-22-57.875-22.875 8.75 20.5 2 97.75 2 97.75l55.25 15.125s3.125-50.25.625-90z" fill="url(#I)"/><path d="M105.316 15.235s29.489.306 58.739 2.056c4.5 41-2.875 79-2.875 79s-15.203 2.328-54.703 2.328c-5.047-41.078-1.161-83.385-1.161-83.385z" fill="#b1b1b1"/><path d="M101.806 90.667s34.13-6.794 58.625 2.125c23 8.375 52.375 29.625 52.375 29.625s-51.125 2.25-80.25 1.25c-10.375-9.125-30.75-33-30.75-33z" fill="url(#J)"/><path d="M212.034 88.042c0 3.875-1.978 9-1.978 9-16.604 2.625-36.423 3.981-74.063 3.25 0 0 .813-6.125.813-8.25 15.639.794 35.375 2.479 75.228-4zm0 0c-7-3.937-20.016-13.913-22.916-15.812-45.026 8.885-65.875 6.5-79.812 4.813m96.212 6.871c-44.837 6.129-66.087 3.691-80.962 2.941m72.575-9.365c-43.513 7.053-65.513 5.49-79.95 4.365" stroke="url(#K)" class="C D F"/><path d="M114.556 66.042c48.609-4.666 45.875-31.375 45.875-31.375s49 9.375 50.875 41.625c-13.875 27.625-75 17.875-75 17.875s-15.625-11.25-21.75-28.125z" class="E"/><path d="M117.579 66.693c44.367-4.259 41.871-28.637 41.871-28.637s39.932 0 41.643 29.435c-2.966 32.402-58.475 40.425-58.475 40.425s4.072-9.623-5.625-17.563c-6.577-5.385-15.731-13.513-19.414-23.661z" fill="url(#L)"/><path d="M113.837 63.044V49.45l1-2.656 3.562 4.125 5.563 3.688 5.5 2.313 3.812 2.438 4.375 5.375 4.125 5.125 9.063 4.938 13.75 2.688h13.187l8.875-6.312 6.625-8.062v15.062l-5.937 7.313-8 3.25-21.438-2.312-17.812-7.812-11.375-8.25-8.656-2.812-4.282-1.75-1.937-2.75z" class="E"/><path d="M113.899 46.919V50.7a22.44 22.44 0 0 0 3.797 10.859c-2.275-1.45-3.474-5.12-3.797-7.078v2.875c0 4.375 2.542 7.292 3.813 8.531-2.219-.672-3.563-3.219-3.813-4.719v1.563c0 3.188 3.834 5.419 8.177 7.145 3.881 1.543 8.411 3.107 10.488 6.95 4.273 7.905 20.807 16.217 35.494 16.217 18.359 0 25.185-11.406 25.185-14.812l-.006-1.452c-2.306 4.702-6.388 7.718-10.994 9.327 2.841-1.808 8.656-4.844 10.984-10.838l-.028-3.857c-1.081 3.414-4.935 6.968-9.612 8.602 2.834-1.803 8.656-6.469 9.596-10.693l-.023-3.236c-.729 3.773-5.854 8.867-9.854 9.992 2.417-1.538 8.25-6.25 9.843-11.84l-.031-7.535c-.395-5.636-10.82-19.367-47.313-19.042-1.906 1.37-6.249 1.151-6.906.542 1 .109 2.844-.094 3.5-.781-9.485-.612-28.5.688-28.5 9.5zm16.219 11.188c1.397.675 4.384 2.858 6.17 6.53-1.299-2.169-4.467-5.11-6.17-6.53zm-14.594-8.562c1.105 2.375 5.569 7.413 14.594 8.563-7.975-2.2-13.052-6.625-14.594-8.562zm21.313 16.375c2.062 5.563 14.755 13.688 31.221 13-20.722 1.712-29.448-7.954-31.221-13z" fill="#e11f1f" class="B"/><path d="M141.132 66.423c-3.978-4.284-6.114-8.547-14.326-12.004-20.807-8.761-2.197-15.189 14.326-13.392 12.958.115 39.2.187 47.767 15.486 6.426 23.561-34.982 23.68-47.767 9.911z" class="E"/><g fill="#e11f1f"><path d="M174.243 70.075c-1.979-1.129-2.023-2.695.203-4.633 2.534-2.205 10.798-2.315 11.235-.336.546 2.474-7.657 7.125-11.438 4.969zm-29.89-26.25c-1.708.275 1.968 3.203 5.337 3.111 4.445-.122 1.491-4.21-5.337-3.111zm-8.266 2.797c4.359-3.266 4.172-5.531 2.469-5.828 1.203-1.469 6.375-1.313 8.281-.203s-2.672 2.031-3.5 2.656c-.663.5-2.031 1.672-1.672 3.689-.984-2.033-.362-3.67.813-4.47 1.468-1 0-1.141-.282-.984-.683.379-.781.609-1.828 1.875-.891 1.077-3.557 3.208-4.281 3.266zm16.547-.625c1 7.406-9.703 3.766-9.297-1.187 1.594 2.359 7.875 5.14 9.297 1.188zm-5.641-3.344c.188-.125 9.406-1.094 16.031-.641-2.74-1.016-9.658-2.622-16.031.641z"/><path d="M154.228 48.403c-1.313 0-2.094 2.512.609 2.391 3.149-.141 4.372.17 7.199 1.273 3.223 1.258 4.004 3.695 4.004 3.695s13.246.908 14.734-3.572c.625-1.881-3.451-.498-6.098-.157-2.366.305-5.199.941-8.214.385-5.422-1-8.672-2.547-8.672-2.547s2.537.199 4.094-.172c-4.344-.234-6.344-1.297-7.656-1.297z" class="B"/><path d="M169.243 62.086c7.344.52 6.781 1.552-1.187 4.427-1.594.575 4.2 6.382-4.313 5.719-12.437-.969-16.969-4.344-18.562-9.625-.386-1.276-.27-3.515 1.343-3.484 2.386 3.002 11.994 9.123 22.719 2.964zm6.703-14.808c-3.613-1.468-13.687-4.625-19.718-4.625-8.485 0-3.969 2.375 0 2.156 7.525-.415 6.696 1.647 9.546 1.797-2.083.362-6.328-.172-9.158-.778-1.701-.364-4.41.581-1.357 1.778 4.576 1.793 9.317 1.239 14.25 1.219-1.688 1-3.281 1.484-7.781 1.813 5.406.875 11.226.776 14.453-.859.691-.35 1.265-1.891-.235-2.5z"/><path d="M137.649 41.856c-2.187-.875-16.499 1.406-17.656 4.406-.431 1.119.239 2.514 1.726 3.038 3.38-3.82 8.612-5.138 10.805-5.319 1.521-.245 3.65-.556 0 .156s-7.854 3.88-9.5 5.375c2.014 0 3.029-.572 4.139-1.197.544-.306 1.111-.626 1.83-.897.952-.359 1.94-.364 2.909-.369 1.256-.006 2.481-.012 3.56-.787 1.53-1.099 2.734-4.406 2.187-4.406z" class="B"/><path d="M152.431 54.231c2.109-1.719 7.718-.484 10.281 3.031-1.378-.29-4.453-1.719-6.669-1.558-2.112 0-3.976-1.177-3.612-1.474zm-4.907 1.204c-.312 4.734 7.05 9.047 15.75 6.047 1.307-.45 2.046-1.099 2.25-1.516-1.359-2.109-4.76-2.421-5.687-2.312-2.531.297-4.063.266-6.156-1.578-2.313-1.437-4.219 0-6.157-.641zm21.766 12.703c-.453.609.703 2.563-.047 3.938 1.25 0 2.369-1.147 2.594-2.547.281-1.75.594-2.414 2.609-4.086-.396-.073-3.53.509-5.156 2.695zm-35.484-16.219c2.953 2.125.781 8.625 7.312 10.688 2.141 1.359 3.578-1.109 1.36-2.391-1.27-.733-.735-1.984-2.672-3.328s-2.873-3.235-3.719-4.406c-.625-.865-1.469-1.078-2.281-.562z"/><path d="M130.071 48.643c-1.784.209-3.261.382-4.078 2.026-.881 1.773.931 2.987 3.485 3.344 1.426.199 3.796 1.422 5.218 3.641.489-1.718.146-3.07-.578-4.281-.553-.926-1.094-.978-.765-2.172.542-1.975-.829-2.969-.829-2.969s3.563 2.359 4.782 4.719 4.406 5.5 7.25 5.594 1.915-3.343 1.531-6.172c-.891 1.859-4.451-3.432-5.749-5.103-2.893-.274-6.101.512-7.814.962-.856.225-1.683.322-2.453.412zm10.779-1.314c1.284.511 4.596 6.036 4.596 4.511.282-3.125-1.984-4.905-4.596-4.511z" class="B"/><path d="M151.827 51.287c-5.84 0-6.053 4.257-1.896 3.101 8.338-3.318 12.52-.387 15.859 4.734 5.286 1.851 17.434 4.215 23.734-1.141.667-.913.888-3.381-3.562-5.948-2.181 2.777-9.407 7.641-20.865 4.881-2.746-6.915-8.673-5.512-13.27-5.628z"/></g><path d="M152.899 43.823c-6.6 6-19.573 3.365-22.656 1.406l.375-11.062 79.125-4.312c1 4.563-3.812 13.813-12.625 10-6.564 14.919-34.155 17.985-44.219 3.969z" fill="url(#M)"/><g fill="#fff"><path d="M187.145 32.789c-5.214 12.878-18.37 13.284-24.878 2.94-.4-.38-.379.401 0 0s-.4-.38 0 0c11.664 11.053 22.883 1.414 24.878-2.94z" class="B"/><path d="M130.776 34.416a1 1 0 0 1 1.406.153c1.013 1.26 5.672 3.426 8.822 2.307-3.525 3.072-9.068.579-10.381-1.053a1 1 0 0 1 .153-1.406zm79.311-6.53c.552 0-.188.698-.188 1.25 1.438 4.125-5.125 17.469-13.062 10.313 1.719 19.031-37.845 18.844-44.437 5.276-6.895 5.578-20.214 3.598-21.875 1.192-.308-.446-.308-1.094-.308-1.38 2.043 1.93 12.86 4.403 22.684-1.899 8.324 9.788 40.53 15.217 43.155-5.336 6.559 5.284 11.718-2.697 13.031-8.416a1 1 0 0 1 1-1z"/></g><path d="M130.402 33.17c-16.597-17.253-29.597-29.253-29.597-29.253s-1.469 56.075-.045 86.555c.029.632.204 1.227.531 1.769 8.909 14.804 29.389 31.55 29.389 31.55s-3-64.125-.278-90.622z" fill="url(#N)"/><mask id="A" maskUnits="userSpaceOnUse" x="100.048" y="17.087" width="29.746" height="84.842" fill="#000"><path fill="#fff" d="M100.048 17.087h29.746v84.842h-29.746z"/><path d="M112.127 52.107l.307.348.722.756c1.139 1.151 2.207 1.884 3.205 2.201.107.034-.101-.019 0 0 .845.159 1.81-.12 2.273-.995.329-.667.622-1.663.878-2.987.248-1.305.233-2.543-.045-3.711-1.71-5.847-4.202-9.719-7.315-12.216-.171-.137-1.131-1.232-1.004-.924 1.316 1.362 4.457 5.971 5.493 8.771-.325-.553-1.469-2.381-2.197-3.062.967 1.675 1.933 3.868 2.566 5.483s.94 2.852.921 3.713c-.048.495-.279.719-.693.672-.424-.067-.884-.261-1.378-.582s-.881-.625-1.159-.912c.202-4.303-2.134-7.288-3.327-8.243l-.306-.819c3.522 2.242 3.889 6.975 3.633 9.062.854-4.611-1.581-8.331-3.603-9.96-.728-.605-1.398-.888-1.706-.948-.397-.065-.708.335-.933 1.201l-.228.904c-.276.959-.312 1.778-.414 2.557s-.032 1.627.212 2.544c.401 1.369 1.073 2.804 2.016 4.305.637 1.022 1.32 1.957 2.051 2.808l.015.017c.002-.003.007-.002.016.019zm-1.116-7.838c-.528-.841-.895-1.527-1.099-2.058.434.125.943.447 1.524.966.572.499 1.076 1.137 1.513 1.914.428.776.632 1.605.614 2.485-.144-.029-.474-.377-.988-1.044a38.12 38.12 0 0 1-1.564-2.262z" class="B"/><path d="M113.917 61.934c-.621-1.995-1.393-2.667-1.961-3.161l-.047-.041c.213.043.942.295 1.474 1.274.268.607.383 1.12.534 1.928z"/><g class="B"><path d="M113.89 25.252c-.176-1.66-.721-3.967-1.301-5.083-.247-.43-.699-.459-.859-.411.481.79.649 1.793.672 2.196l-.049-.245c-.154-.667-.492-1.523-.66-1.905-.1.195-.118.534.035 1.016.452 1.276.741 3.12.854 4.795a19.74 19.74 0 0 1-.287 4.761c-1.107-.957-2.21-2.268-3.312-3.933a26.11 26.11 0 0 1-2.724-5.416c-.239-.495-.614-.833-.969-.378.256.77 1.521 3.932 3.065 6.128-2.709-3.733-3.565-5.798-3.565-5.798l-.307 1.854c-.139.982-.151 1.691.01 2.258.675 1.809 1.613 3.448 3.035 5.308a42.86 42.86 0 0 0 4.629 5.172c1.674 1.608 3.241 2.941 4.701 3.999 1.451 1.076 2.563 1.745 3.334 2.009a2.25 2.25 0 0 0 1.696-.029c.568-.211.93-1.02 1.084-2.427.115-1.257.116-2.388.005-3.392-.103-1.023-.418-1.925-.945-2.709-.46-.683-1.061-1.404-1.803-2.163s-1.519-1.378-2.332-1.854c-.824-.497-1.579-.672-2.266-.527-.696.125-1.235.731-1.615 1.816.092-1.699.05-3.379-.126-5.039zm4.928 8.354c1.033.913 1.815 2.06 2.431 3.098-.502.034-.981-.188-1.497-.428l-.196-.09c-.601-.271-1.177-.617-1.728-1.037l-.896-.664-1.159-.912-.872-.778c.389-.472.783-.685 1.179-.638.782.034 1.695.517 2.738 1.451zm-7.148 50.893c.442.95 3.081 5.371 3.081 5.371l-4.17-5.301-.51-.553-.002-.001-3.242-3.288c-.541-.475-1.119-.664-1.029.855.059 1.425 1.235 4.789 1.957 5.517l1.028 1.065 2.716 2.677 5.253 4.438c.312.213.572.183.779-.091.206-.293.36-.694.462-1.205a4.45 4.45 0 0 0 .107-1.344c-.032-.462-.195-.943-.489-1.442l-1.395-2.481-1.967-4.014a35.27 35.27 0 0 1-1.642-4.366c-.429-1.409-.515-2.544-.484-3.511.093-1.354.992-1.682 1.267-.863.876 3.106 2.094 6.562 3.656 10.366 1.552 3.804 3.137 6.891 4.753 9.262 1.171 1.574 2.095 2.154 2.774 1.74s1.022-1.54 1.028-3.379-.411-4.091-1.256-6.754c-1.393-4.195-3.078-7.912-5.053-11.151-1.976-3.258-3.836-5.233-5.581-5.927-.778-.606-2.292-2.895-2.528-4.293.162 1.076.375 2.248.613 3.33l.271 1.398c-.467.582-.855 1.389-1.165 2.422a12.28 12.28 0 0 0-.523 3.184 55.95 55.95 0 0 0-1.89-4.124c-.726-1.429-1.528-2.557-2.406-3.383-.653-.504-1.297-.443-1.934.185-.646.608-1.182 1.568-1.609 2.88-.428 1.293-.649 2.725-.664 4.295.034 2.283.388 4.769 1.062 7.459.666 2.69 1.508 5.286 2.527 7.789 1.01 2.502 2.048 4.594 3.114 6.276s2.006 2.637 2.821 2.865c.829.114 1.443-.381 1.84-1.484.389-1.104.56-2.271.513-3.501-.047-1.249-.318-2.034-.812-2.355.144 1.773-.106 2.57-.749 2.392-.652-.178-1.506-1.108-2.563-2.79-2.507-4.032-4.518-9.434-5.611-15.299-.352-1.844-.451-3.164-.295-3.958.242-.884.677-1.056 1.304-.515.626.522 1.342 1.471 2.147 2.848.805 1.358 1.609 2.84 2.412 4.447l2.084 4.309zm9.802 2.994c.982 2.175 1.637 3.915 1.964 5.221-.753-.53-1.618-1.681-2.597-3.453-.988-1.792-1.933-3.763-2.833-5.913-.91-2.15-1.618-4.038-2.126-5.663.591.519 1.422 1.735 2.495 3.647s2.105 3.966 3.097 6.16zm-.854 4.217c-1.442-2.517-4.513-8.452-5.684-12.743.804 3.002 2.86 9.031 5.684 12.743zm-3.845 2.705l-8.924-8.387c-.422-.775-.628-1.432-.738-2.11l9.662 10.497zm-2.856-32.481c-.143-.766-.326-1.402-.534-1.928-.532-.979-1.261-1.231-1.474-1.274l.047.041c.568.494 1.34 1.166 1.961 3.161z"/><path d="M116.901 55.909a38.01 38.01 0 0 1 3.039 7.364c.278 1.169.293 2.406.046 3.711-.256 1.324-.549 2.32-.879 2.987-.518.98-1.276 1.312-2.273.995s-2.066-1.05-3.205-2.201l-.331-.337a21.26 21.26 0 0 1-2.115-2.6l-.664-1.011c-.944-1.501-1.619-2.846-2.02-4.215-.243-.917-.311-1.855-.209-2.634s.241-1.453.517-2.412c0 0 .059-.229.37-.443-.241-.145-.324-.729-.122-1.196s.494-.729.891-.664c.307.059.897.394 1.625.999 1.456 1.173 4.791 6.694 3.603 9.96.863.891 1.585 1.452 2.539 1.603.415.047.644-.285.692-.78.018-.861-.252-2.22-.885-3.834s-1.423-3.285-2.39-4.961a25.02 25.02 0 0 0-2.696-3.787 19.14 19.14 0 0 0 .722.756c1.139 1.151 2.207 1.884 3.205 2.201.029.052.073.076.132.109.098.054.236.13.408.388zm-6.516 1.857c.205.531.571 1.217 1.1 2.058a38.09 38.09 0 0 0 1.564 2.262c.514.667.843 1.015.988 1.044a4.95 4.95 0 0 0-.12-1.197c-.151-.808-.266-1.321-.534-1.928-.906-2.287-2.299-2.497-2.998-2.239zm.173 5.851c-.59-.918-1.758-3.535-1.926-5.191-.251.945.199 2.869 1.926 5.191z"/></g></mask><path d="M113.917 61.934l-.478.148.969-.24-.491.092zm-2.008-3.202l.098-.49-1.844-.369 1.418 1.236.328-.377zm1.247-5.52l.355-.352-.003-.003-.352.355zm-1.973 12.617l.496-.064-.001-.01-.002-.01-.493.083zm1.251-13.374l-.37.335h0l.37-.335zm-.323-.367l.378-.326-.361-.419-.38.402.363.344zm1.272 7.917l.457-.202-.008-.019-.01-.018-.439.239zm1.42 18.455l.485-.121-.971.239.486-.119zm.131.506l-.483.132.966-.261-.483.129zm-2.978-20.194l-.328.377h0l.328-.377zm4.556-3.837c-.889-.282-1.89-.955-3.001-2.076l-.711.704c1.168 1.179 2.304 1.975 3.409 2.326l.303-.953zm-4.836 10.81l-.005-.029-.008-.033c-.002-.005-.004-.014-.008-.025-.002-.005-.004-.013-.008-.022l-.016-.036c-.003-.007-.011-.021-.015-.029l-.026-.041-.052-.062c-.022-.021-.079-.065-.114-.087a.88.88 0 0 0-.24-.062c-.076.005-.215.048-.276.082a.89.89 0 0 0-.139.136.82.82 0 0 0-.051.095l-.02.06a.33.33 0 0 0-.008.039c-.002.007-.004.021-.005.027l-.003.046v.037l.002.025.003.024.003.022.004.022.005.02.007.026.014.04.019.042.018.034a.61.61 0 0 0 .035.049c.013.017.048.053.07.073.031.024.11.07.158.09a.88.88 0 0 0 .279.014c.067-.021.181-.083.226-.121.031-.031.078-.093.095-.121l.036-.078.014-.05c.003-.009.006-.026.007-.034l.004-.024.003-.042v-.035l-.001-.024-.003-.023-.993.12-.002-.027-.001-.03.002-.04.005-.041c.002-.008.005-.024.007-.034l.015-.05.036-.079a.89.89 0 0 1 .095-.12c.045-.037.158-.1.226-.121.074-.012.215-.003.278.014a.89.89 0 0 1 .159.09c.021.019.056.056.07.073l.034.049a.47.47 0 0 1 .019.034l.011.024.017.042.008.027.006.024.005.023.003.023.001.024c0 .004.001.011.001.02l-.002.043-.006.047-.009.039a.69.69 0 0 1-.019.06c-.01.021-.035.069-.051.095-.025.034-.094.103-.139.136a.88.88 0 0 1-.277.082.88.88 0 0 1-.239-.062.91.91 0 0 1-.115-.087l-.051-.062-.027-.041-.015-.029c-.002-.006-.007-.016-.009-.021l-.015-.038-.007-.025-.006-.022-.005-.022.986-.166zm.19-43.924l.043.215.986-.163-.055-.276-.974.225zm-1.308 36.414c.257-.095.762-.114 1.308.344.557.466 1.189 1.459 1.559 3.446l.983-.183c-.392-2.108-1.096-3.357-1.9-4.03-.814-.682-1.694-.737-2.296-.516l.346.938zm1.506-5.445l.739.776.705-.709-.703-.737-.741.671zm-.316-1.046c-.047.049-.072.096-.081.112l-.013.027c.012-.025.022-.043.037-.065s.042-.061.091-.103a.5.5 0 0 1 .278-.117c.29-.026.438.189.455.212.035.052.052.097.055.106l.012.037-.972.235c.003.012.01.044.023.078.005.013.023.061.06.114a.5.5 0 0 0 .457.214c.135-.012.229-.074.28-.117s.079-.084.092-.104.025-.041.03-.051l.009-.019c.005-.01-.003.007-.01.022s-.032.059-.078.107l-.725-.688zm1.057.376l-.316-.358-.757.653.332.376.741-.671zm-.994 7.102c.09.018.682.192 1.133 1.022l.878-.477c-.612-1.127-1.478-1.458-1.815-1.525l-.196.98zm1.115.985c.243.552.35 1.016.499 1.818l.983-.183c-.151-.815-.275-1.376-.568-2.039l-.914.404zm2.49 18.627l-.127-.492-.972.237.134.519.965-.263zm-1.098-.253l.133.514.966-.259-.129-.497-.97.242zm-2.737-19.473l.047.041.657-.754-.047-.041-.657.754zm.047.041c.28.244.577.503.882.931s.632 1.046.929 2.002l.955-.297c-.323-1.039-.693-1.756-1.07-2.285s-.752-.854-1.039-1.105l-.657.754zm3.123 30.72l-.81.587 1.668-1.099-.858.512zm-3.081-5.371l.907-.422-.002-.003-.905.425zm-2.084-4.309l.896-.443-.002-.004-.894.447zm-2.412-4.447l-.863.505.003.005.86-.51zm-2.147-2.848l-.653.757.006.006.007.006.64-.769zm-1.304.515l-.965-.264-.009.036-.008.037.982.192zm.295 3.958l.983-.183v-.005l-.983.188zm2.809 3.358l.66-.751h0l-.66.751zm3.754 3.843l-.734.679h0l.734-.679zm12.855 8.145l-.576.817 2.199 1.55-.653-2.61-.97.243zm-1.964-5.221l.911-.412h0l-.911.412zm-5.592-9.808l.661-.751-2.678-2.354 1.063 3.403.954-.298zm2.126 5.663l.922-.386-.001-.003-.921.389zm2.833 5.913l-.876.483h.001l.875-.484zm-11.21 3.407l-.849.528.002.004.847-.532zm2.563 2.79l.267-.964-.003-.001-.264.965zm.749-2.392l.544-.839-1.705-1.107.164 2.026.997-.081zm.812 2.355l-.999.038h0l.999-.038zm-.513 3.501l.941.339.003-.007-.944-.332zm-1.84 1.484l-.269.963.065.019.068.009.136-.991zm-5.935-9.141l.927-.374-.001-.003-.926.377zm-2.527-7.789l.971-.24-.001-.003-.97.243zm-1.062-7.459l-1-.01v.012.012l1-.015zm.664-4.295l.949.314.002-.004-.951-.309zm1.609-2.88l.686.728.008-.008.009-.008-.703-.712zm1.934-.185l.685-.728-.035-.033-.038-.03-.612.791zm2.406 3.383l-.891.453h0l.891-.453zm1.89 4.124l-.925.379 1.925-.345-1-.034zm.523-3.184l.956.293.002-.005-.958-.287zm1.165-2.422l.78.626.291-.363-.09-.457-.981.193zm-.271-1.398l.982-.188-.003-.013-.002-.013-.977.214zm1.915.964l-.615.789.113.088.132.053.37-.929zm5.581 5.927l-.855.519.001.002.854-.521zm5.053 11.151l.954-.302-.005-.013-.949.315zm-2.546 8.393l-.826.563.012.017.012.016.802-.597zm-4.753-9.262l.926-.378-.001-.002-.925.38zm-3.656-10.366l.963-.271-.007-.024-.008-.023-.948.318zm-1.267.863l-.997-.068-.001.018-.001.018.999.033zm.484 3.511l.959-.286-.002-.005-.957.291zm1.642 4.366l-.913.409.002.004.911-.414zm1.967 4.014l-.882.472h.001l.881-.472zm1.395 2.481l.862-.507-.007-.013-.008-.012-.847.532zm.382 2.785l-.973-.232-.005.019-.003.019.981.194zm-.462 1.205l.797.604.01-.014.01-.014-.817-.577zm-.779.091l-.601.799.018.014.02.013.563-.826zm-5.253-4.438l-.674.738.003.003.671-.741zm.628-38.733l-.914.406.065.146.107.118.742-.67zm4.774 3.801l.881-.474-.023-.042-.026-.04-.832.556zm3.039 7.364l.973-.232-.006-.025-.007-.024-.96.281zm.046 3.711l.982.19v-.004l-.982-.186zm-.879 2.987l.884.467.007-.012.005-.012-.896-.443zm-5.478-1.206l.711-.704-.006-.006-.705.709zm-3.11-3.948l.849-.529-.003-.004-.846.532zm-2.02-4.215l-.966.257.003.012.004.012.959-.281zm.308-5.045l.961.277.004-.014.003-.014-.968-.249zm1.139-2.303l.19-.982-.014-.003-.013-.002-.163.987zm1.625.999l-.639.769.006.005.006.005.627-.779zm3.603 9.96l-.94-.342-.214.588.436.45.718-.696zm2.539 1.603l-.156.988.021.003.022.002.113-.993zm.692-.78l.995.096.004-.037v-.037l-.999-.022zm-3.275-8.795l.866-.5-.002-.003-.864.503zm-4.745 1.524l-.346-.938-.952.351.365.947.933-.36zm1.1 2.058l-.847.532.005.008.842-.541zm1.564 2.262l-.801.6.008.01.793-.61zm.988 1.044l-.197.98 1.172.235.024-1.195-.999-.02zm-.12-1.197l-.983.183.003.02.005.02.975-.222zm-2.769-27.356l-.925.38.073.177.132.138.72-.695zm1.004.924l.625-.78h0l-.625.78zm7.315 12.216l.973-.231-.006-.025-.007-.024-.96.281zm.045 3.711l.982.19.001-.004-.983-.186zm-.878 2.987l.884.467.006-.012.006-.012-.896-.443zm-2.273.995l.185-.983h0l-.185.983zm-6.316-6.149l.849-.529-.002-.004-.847.532zm-2.016-4.305l-.967.257.004.012.003.012.96-.281zm.202-5.101l.961.277.004-.014.004-.015-.969-.248zm.228-.904l-.968-.252-.002.009.97.242zm.933-1.201l.19-.982-.014-.003-.013-.002-.163.987zm1.706.948l-.64.769.006.005.006.005.628-.779zm3.603 9.96l-.999-.047-.021.432.301.311.719-.696zm2.537 1.495l-.156.988.021.003.021.002.114-.994zm.693-.672l.996.096.003-.037.001-.037-1-.022zm-3.487-9.196l.684-.73-1.55 1.23.866-.5zm-4.532 1.925l.277-.961-1.934-.557.724 1.878.933-.36zm1.099 2.058l-.846.532.005.008.841-.541zm1.564 2.262l-.8.6.008.01.792-.61zm.988 1.044l-.196.98 1.171.235.025-1.195-1-.02zm-.614-2.485l.876-.483-.004-.008-.872.49zm-1.513-1.914l-.666.746.009.007.657-.754zm.292-22.358l-.954.302.005.016.006.016.943-.334zm.861-.651l.888-.461-.01-.019-.011-.018-.867.498zm1.427 10.122l-.998-.054 1.942.384-.944-.33zm1.615-1.816l.177.984.015-.003.015-.003-.207-.978zm2.266.527l-.517.856.011.006.506-.863zm4.135 4.018l.83-.558-.001-.001-.829.559zm.945 2.709l-.995.1.001.01.994-.11zm-.005 3.392l.994.109.001-.009.001-.009-.996-.091zm-1.084 2.427l-.347-.938-.017.006-.017.007.381.925zm-1.696.029l.346-.938-.011-.004-.012-.004-.323.946zm-3.334-2.009l.595-.803-.009-.007-.586.81zm-4.701-3.998l.693-.721-.005-.004-.688.725zm-4.629-5.172l.796-.605-.002-.002-.794.607zm-3.035-5.308l-.962.273.011.039.014.038.937-.349zm-.01-2.258l-.987-.163-.002.012-.002.012.991.139zm.807-2.183l-.789-.614-.328.422.168.507.949-.315zm.969.378l.939-.345-.017-.046-.021-.044-.901.435zm6.036 9.349l-.654.756 1.324 1.144.314-1.721-.984-.179zm.287-4.76l.998-.062v-.005l-.998.068zm8.667 11.089l.067.998 1.621-.11-.828-1.398-.86.51zm-2.431-3.098l-.667.745.005.004.662-.749zm-2.738-1.451l-.115.993.036.004.036.002.043-.999zm-1.179.638l-.771-.637-.565.683.611.642.725-.689zm.872.778l.638-.77-.008-.007-.63.777zm1.159.912l.607-.795-.008-.006-.599.801zm.896.664l.606-.795-.015-.012-.016-.011-.575.818zm1.728 1.037l.416-.91-.005-.002-.411.912zm-6.258 32.243l-.722.692h0l.722-.692zm-4.943-41.653l-.809.587 1.627-1.163-.818.575zm2.713 12.822l.537-.843-2.516-1.602 1.042 2.795.937-.349zm.306.819l-.937.349.096.259.216.173.625-.781zm5.267 2.932l-.863.506 1.8-.853-.937.347zm-4.545 8.722l.758-.652h0l-.758.652zm-7.306-31.093l.924-.383-1.339-3.228-.572 3.448.987.163zm6.903-1.174l.916-.402-.844-1.925-.961 1.869.889.457zm.709 2.15l-.981.191 1.979-.25-.998.058zm-.049-.245l.979-.201-.002-.012-.003-.012-.974.224zm7.399 14.567l-.421.907h0l.421-.907zm-7.318 16.179l.756-.655h0l-.756.655zm-.323-.367l-.758.653.722.838.761-.803-.725-.688zm-.381-32.33l-.285-.959-1.245.37.676 1.109.854-.521zm-3.975 67.34l-.71.704h0l.71-.704zm-1.957-5.517l.999-.042v-.009l-.001-.009-.998.059zm7.585-21.575l-.93.368h0l.93-.368zm-4.6 28.158l.725-.689h0l-.725.689zm11.835 3.547l-.796.605 1.663-1.102-.867.497zm-10.549-7.695l-.735.678.001.001.734-.679zm4.865-5.048l.965-.263-1.931.522.966-.259zm-7.085 7.061l-.878.478.076.141.117.11.685-.729zm8.924 8.387l-.685.729 1.42-1.406-.735.677zm-9.662-10.497l.736-.677-2.254-2.45.531 3.286.987-.16zm2.96.099l.735-.678-.001-.001-.734.679zm-.894-28.902l.566.825 1.282-.879-1.332-.802-.516.857zm1.381 8.503l-.802.597 1.643-1.138-.841.541zm-1.926-5.191l.995-.101-1.962-.156.967.257zm7.861-2.905l.484-.875h0l-.484.875zm-1.742 34.349l.858-.512-.029-.049-.084-.141-.304-.512-.952-1.618-1.663-2.959-1.814.844c.246.528 1.048 1.923 1.75 3.124l.958 1.629.306.515.085.143.022.038c.008.013.008.013.867-.5zm-2.176-5.796l-2.093-4.328-1.792.887 2.075 4.291 1.81-.851zm-2.095-4.331l-2.445-4.509-1.721 1.02 2.377 4.384 1.789-.894zm-2.442-4.504c-.819-1.4-1.606-2.474-2.371-3.112l-1.28 1.537c.488.406 1.133 1.23 1.924 2.584l1.727-1.01zm-2.358-3.1c-.372-.321-1.046-.754-1.817-.45-.696.275-.973.979-1.105 1.458l1.929.529c.045-.164.084-.237.095-.254s-.041.071-.184.128a.55.55 0 0 1-.209.039.41.41 0 0 1-.125-.019c-.028-.01.008-.004.11.085l1.306-1.514zm-2.939 1.08c-.196 1.002-.058 2.49.295 4.338l1.965-.375c-.352-1.841-.412-2.991-.297-3.578l-1.963-.384zm21.665 19.253c-.349-1.392-1.032-3.196-2.023-5.39l-1.822.823c.973 2.155 1.599 3.832 1.905 5.052l1.94-.486zm-2.023-5.39l-3.136-6.238-1.744.978 3.058 6.083 1.822-.824zm-3.136-6.238l-1.475-2.422c-.429-.628-.841-1.144-1.231-1.488l-1.321 1.502c.2.176.499.527.902 1.115.393.575.853 1.329 1.381 2.271l1.744-.978zm-4.321-2.86c.52 1.665 1.241 3.584 2.159 5.755l1.842-.779-2.092-5.572-1.909.596zm2.157 5.752l2.88 6.009 1.751-.966c-.968-1.756-1.898-3.695-2.786-5.816l-1.845.773zm2.881 6.01c.984 1.782 1.941 3.115 2.896 3.787l1.152-1.635c-.551-.388-1.325-1.358-2.298-3.119l-1.75.967zM108.782 93.2c.545.867 1.059 1.576 1.544 2.103.461.501.996.953 1.602 1.119l.528-1.929c-.046-.013-.264-.115-.657-.543-.37-.403-.811-.999-1.323-1.814l-1.694 1.064zm3.144 3.221c.375.104.834.093 1.245-.192.369-.256.55-.634.645-.938.186-.596.195-1.405.122-2.307l-1.994.162c.071.87.026 1.346-.037 1.548-.03.095-.023-.006.123-.108.188-.13.375-.108.429-.093l-.533 1.928zm.47-2.517c.001 0 .02.012.052.058s.077.129.122.259c.091.265.163.666.184 1.237l1.999-.075c-.026-.678-.113-1.294-.293-1.814s-.477-1.019-.975-1.342l-1.089 1.678zm.358 1.554c.042 1.111-.112 2.151-.457 3.131l1.887.664a10.41 10.41 0 0 0 .569-3.87l-1.999.075zm-.455 3.124c-.164.458-.334.67-.445.759-.078.063-.157.096-.318.073l-.272 1.981c.669.092 1.31-.066 1.846-.498.503-.406.839-.993 1.071-1.639l-1.882-.678zm-.63.861c-.169-.047-.461-.207-.873-.626-.403-.409-.861-1.004-1.373-1.811l-1.689 1.07c.554.875 1.099 1.598 1.637 2.144.528.536 1.113.968 1.76 1.148l.538-1.926zm-2.246-2.437c-1.024-1.617-2.036-3.651-3.031-6.115l-1.854.748c1.025 2.54 2.089 4.69 3.196 6.438l1.689-1.07zm-3.032-6.118c-1-2.457-1.828-5.008-2.482-7.652l-1.942.48c.677 2.735 1.534 5.377 2.572 7.926l1.852-.754zm-2.483-7.655c-.659-2.631-1-5.04-1.032-7.231l-2 .029c.035 2.374.403 4.938 1.092 7.688l1.94-.486zm-1.032-7.207c.014-1.482.223-2.81.613-3.991l-1.898-.628c-.465 1.405-.699 2.941-.715 4.6l2 .019zm.615-3.996c.401-1.233.87-2.015 1.344-2.461l-1.371-1.457c-.818.77-1.422 1.908-1.875 3.299l1.902.619zm1.361-2.478c.216-.213.333-.231.353-.233.006-.001.084-.013.267.128l1.223-1.583c-.471-.363-1.041-.597-1.68-.536-.625.06-1.147.386-1.568.8l1.405 1.424zm.546-.169c.771.726 1.51 1.749 2.2 3.107l1.783-.906c-.762-1.5-1.628-2.732-2.613-3.658l-1.37 1.457zm5.981 6.813a11.28 11.28 0 0 1 .479-2.925l-1.912-.585c-.338 1.101-.525 2.25-.566 3.442l1.999.069zm.481-2.931c.288-.96.628-1.636.987-2.083l-1.559-1.253c-.576.716-1.012 1.655-1.344 2.761l1.916.574zm1.188-2.902l-.27-1.393-1.964.376.272 1.403 1.962-.386zm.293.688c1.42.564 3.136 2.285 5.096 5.516l1.71-1.037c-1.992-3.285-3.997-5.515-6.067-6.337l-.739 1.859zm5.097 5.518c1.93 3.164 3.585 6.81 4.958 10.946l1.898-.63c-1.413-4.256-3.128-8.044-5.148-11.356l-1.708 1.041zm4.954 10.932c.827 2.61 1.216 4.752 1.209 6.448l2 .007c.008-1.982-.441-4.343-1.302-7.06l-1.907.604zm1.209 6.448c-.003.87-.087 1.504-.219 1.937-.133.439-.281.563-.33.593l1.041 1.708c.63-.384.994-1.03 1.203-1.718.211-.693.302-1.543.305-2.512l-2-.007zm-.549 2.529c.104-.063.13.058-.15-.118-.305-.191-.74-.611-1.3-1.365l-1.605 1.193c.61.82 1.222 1.477 1.842 1.866.645.405 1.472.609 2.254.132l-1.041-1.708zm-1.426-1.45c-1.564-2.294-3.118-5.313-4.654-9.077l-1.852.756c1.569 3.844 3.184 7 4.853 9.448l1.653-1.127zm-4.655-9.079c-1.551-3.778-2.755-7.197-3.618-10.258l-1.925.543c.888 3.152 2.12 6.644 3.693 10.475l1.85-.759zm-6.847-9.157c-.035 1.064.062 2.31.527 3.835l1.913-.583c-.394-1.292-.47-2.317-.441-3.187l-1.999-.066zm.525 3.83c.434 1.455.997 2.952 1.687 4.489l1.825-.819c-.658-1.467-1.189-2.881-1.595-4.242l-1.917.572zm1.689 4.493c.681 1.499 1.346 2.857 1.996 4.072l1.764-.943c-.626-1.171-1.272-2.489-1.939-3.956l-1.821.827zm1.997 4.073c.628 1.174 1.108 2.028 1.43 2.541l1.693-1.064c-.282-.448-.732-1.248-1.36-2.421l-1.763.944zm1.415 2.516c.234.398.333.73.352 1.004l1.995-.138c-.045-.65-.271-1.28-.624-1.88l-1.723 1.014zm.352 1.004c.025.365-.003.711-.082 1.042l1.945.464c.128-.536.171-1.086.132-1.645l-1.995.138zm-.09 1.08c-.086.43-.2.684-.298.822l1.634 1.154c.315-.447.508-.996.625-1.587l-1.961-.389zm-.278.795c.007-.009.113-.136.331-.162.197-.023.295.06.251.03l-1.127 1.652c.268.183.652.358 1.108.304.477-.056.817-.334 1.031-.617l-1.594-1.208zm.62-.104c-1.362-1.027-3.089-2.485-5.184-4.381l-1.342 1.483c2.116 1.915 3.892 3.417 5.323 4.496l1.203-1.597zm-1.334-38.098a37.08 37.08 0 0 1 2.96 7.171l1.92-.561a39.07 39.07 0 0 0-3.118-7.557l-1.762.947zm2.947 7.122c.242 1.018.26 2.111.036 3.293l1.965.373c.271-1.429.259-2.809-.055-4.129l-1.946.463zm.037 3.29c-.25 1.295-.523 2.187-.794 2.734l1.793.886c.39-.788.703-1.887.965-3.241l-1.964-.38zm-.781 2.71c-.189.358-.363.487-.474.535-.102.045-.281.079-.612-.026l-.606 1.906c.667.212 1.365.239 2.021-.048.646-.283 1.111-.811 1.439-1.433l-1.768-.934zm-1.086.509c-.782-.248-1.715-.859-2.798-1.952l-1.421 1.407c1.197 1.208 2.4 2.065 3.613 2.45l.606-1.906zm-5.772-5.728c-.916-1.459-1.541-2.717-1.906-3.964l-1.919.562c.436 1.49 1.162 2.922 2.132 4.466l1.693-1.064zm-1.899-3.94c-.215-.809-.267-1.614-.184-2.247l-1.983-.26c-.122.925-.039 1.994.234 3.02l1.933-.513zm-.184-2.247c.094-.724.222-1.349.486-2.265l-1.922-.554a16.28 16.28 0 0 0-.547 2.559l1.983.26zm.691-3.783c.03-.069.055-.112.072-.137s.019-.02-.001-.005-.063.042-.122.058a.34.34 0 0 1-.138.009l.325-1.974a1.64 1.64 0 0 0-1.298.332c-.328.257-.536.605-.674.922l1.836.794zm-.216-.079c-.023-.005.079.02.328.169a7.12 7.12 0 0 1 .847.617l1.278-1.538c-.394-.328-.764-.594-1.093-.792-.305-.184-.651-.356-.981-.42l-.379 1.964zM117.6 66.81c.54.062 1.034-.141 1.367-.542.29-.351.399-.78.433-1.135l-1.991-.192c-.006.061-.015.094-.019.106s.002-.013.036-.054a.48.48 0 0 1 .192-.136c.09-.036.167-.038.209-.033l-.227 1.987zm1.804-1.752c.023-1.045-.295-2.544-.953-4.221l-1.862.73c.608 1.551.831 2.771.816 3.448l1.999.043zm-.953-4.221c-.65-1.659-1.462-3.376-2.455-5.096l-1.732 1a35.82 35.82 0 0 1 2.325 4.826l1.862-.73zm-8.999-2.712c.239.62.645 1.369 1.186 2.231l1.693-1.064c-.515-.82-.842-1.443-1.013-1.886l-1.866.719zm1.191 2.239c.54.839 1.075 1.613 1.606 2.321l1.6-1.2a37.14 37.14 0 0 1-1.523-2.203l-1.683 1.081zm1.613 2.332c.265.344.5.628.699.838a3.08 3.08 0 0 0 .316.297c.079.063.285.223.569.28l.393-1.961c.125.025.208.07.236.086.034.019.051.033.047.031s-.042-.036-.108-.106a9.22 9.22 0 0 1-.567-.685l-1.585 1.221zm6.238-14.747c.242 1.018.26 2.111.036 3.293l1.965.373c.271-1.429.259-2.809-.055-4.129l-1.946.463zm.037 3.29c-.251 1.295-.523 2.187-.794 2.734l1.793.886c.389-.788.703-1.887.964-3.24l-1.963-.38zm-7.639-2.509c-.906-1.441-1.534-2.792-1.903-4.054l-1.92.562c.432 1.476 1.149 2.995 2.13 4.556l1.693-1.064zm-1.897-4.029c-.216-.817-.269-1.532-.187-2.157l-1.983-.26c-.122.932-.033 1.913.237 2.93l1.933-.513zm-.187-2.157c.114-.872.136-1.548.384-2.41l-1.922-.554c-.304 1.055-.355 2.019-.445 2.704l1.983.26zm.392-2.439l.229-.91-1.94-.485-.227.899 1.938.495zm.227-.9c.048-.183.095-.322.138-.424s.077-.152.086-.164-.024.035-.112.077c-.101.048-.213.06-.309.045l.325-1.974c-.659-.108-1.172.223-1.483.625-.28.36-.456.833-.581 1.312l1.936.503zm-.224-.471a.51.51 0 0 1 .036.01 1.32 1.32 0 0 1 .094.032c.078.029.177.073.294.133a4.69 4.69 0 0 1 .831.559l1.279-1.538c-.817-.679-1.637-1.061-2.155-1.161l-.379 1.964zm4.779 10.622c.349.36.802.711 1.333 1.056l1.089-1.678c-.458-.297-.778-.555-.985-.769l-1.437 1.391zm1.333 1.056c.571.37 1.163.636 1.767.731l.312-1.975c-.244-.039-.571-.162-.99-.433l-1.089 1.678zm1.809.737c.41.047.903-.029 1.294-.408.358-.347.474-.8.509-1.161l-1.991-.192c-.013.134-.036.04.09-.083a.53.53 0 0 1 .225-.129c.068-.019.108-.013.1-.014l-.227 1.987zm1.807-1.643c.023-1.069-.348-2.462-.99-4.1l-1.862.73c.624 1.591.867 2.674.852 3.326l2 .043zm-.99-4.1c-.641-1.637-1.628-3.881-2.63-5.618l-1.733 1c.932 1.614 1.877 3.756 2.501 5.348l1.862-.73zm-8.962-2.833c.238.62.644 1.369 1.186 2.231l1.693-1.064c-.515-.82-.843-1.443-1.013-1.885l-1.866.719zm1.191 2.239a39.1 39.1 0 0 0 1.605 2.321l1.6-1.2c-.498-.665-1.006-1.399-1.522-2.203l-1.683 1.081zm1.613 2.332c.265.344.5.628.698.839.099.104.206.208.317.296.078.063.284.223.569.28l.393-1.961a.79.79 0 0 1 .236.086c.034.019.05.033.047.031-.008-.006-.042-.036-.109-.106a9.76 9.76 0 0 1-.567-.685l-1.584 1.221zm2.78.455c.022-1.057-.226-2.059-.738-2.988l-1.752.965c.344.624.505 1.278.49 1.982l2 .041zm-.742-2.995c-.483-.859-1.056-1.592-1.728-2.177l-1.314 1.507c.472.412.908.955 1.298 1.65l1.744-.98zm-1.719-2.17c-.624-.556-1.266-.994-1.913-1.18l-.554 1.922c.222.064.596.27 1.135.751l1.332-1.493zm-.4-21.801c.235.453.494 1.219.719 2.119.221.885.392 1.831.475 2.608l1.988-.211c-.093-.882-.283-1.92-.523-2.882-.237-.947-.54-1.893-.884-2.556l-1.775.922zm1.194 4.727c.17 1.606.211 3.232.122 4.879l1.997.108a32.49 32.49 0 0 0-.131-5.198l-1.988.211zm2.064 5.264c.34-.97.691-1.134.848-1.162l-.354-1.968c-1.235.222-1.961 1.268-2.381 2.47l1.887.661zm.878-1.168c.36-.076.855-.009 1.542.405l1.033-1.712c-.959-.579-1.974-.864-2.988-.65l.413 1.957zm1.553.412c.728.427 1.436.987 2.123 1.69l1.431-1.397c-.796-.815-1.643-1.491-2.543-2.018l-1.011 1.726zm2.123 1.69c.711.728 1.27 1.403 1.69 2.024l1.657-1.119c-.502-.744-1.144-1.512-1.916-2.303l-1.431 1.397zm1.689 2.023c.426.635.691 1.377.779 2.251l1.99-.2c-.118-1.172-.483-2.235-1.11-3.166l-1.659 1.116zm.78 2.261c.102.923.103 1.985-.007 3.191l1.992.181c.119-1.308.123-2.507.003-3.592l-1.988.221zm-.005 3.172c-.072.654-.185 1.093-.306 1.364s-.196.259-.131.235l.694 1.876c.633-.234 1.024-.758 1.263-1.294s.386-1.208.468-1.961l-1.988-.218zm-.471 1.612c-.324.134-.63.14-.969.015l-.693 1.876c.806.297 1.631.285 2.424-.042l-.762-1.849zm-.992.007c-.613-.209-1.617-.795-3.062-1.865l-1.191 1.607c1.459 1.081 2.677 1.834 3.607 2.151l.646-1.893zm-3.071-1.872c-1.413-1.024-2.945-2.325-4.594-3.91l-1.386 1.442c1.699 1.632 3.301 2.996 4.807 4.087l1.173-1.62zm-4.599-3.914c-1.634-1.552-3.141-3.235-4.521-5.052l-1.592 1.21c1.444 1.901 3.023 3.666 4.736 5.292l1.377-1.45zm-4.523-5.054c-1.374-1.798-2.258-3.351-2.892-5.05l-1.874.699c.716 1.919 1.709 3.644 3.177 5.566l1.589-1.215zm-2.867-4.974c-.101-.357-.116-.893.018-1.845l-1.981-.279c-.142 1.011-.181 1.894.039 2.67l1.924-.546zm.624-3.553c-.022.023-.036.037-.057.052-.041.031-.107.07-.197.095a.66.66 0 0 1-.477-.046c-.079-.042-.1-.079-.076-.05.019.024.051.072.087.148l1.801-.871c-.144-.297-.414-.749-.872-.993-.266-.141-.617-.221-.998-.116-.36.1-.616.331-.789.552l1.578 1.229zm-.758.108a27.09 27.09 0 0 0 2.828 5.623l1.668-1.103c-1.056-1.598-1.93-3.334-2.619-5.21l-1.877.69zm2.828 5.623c1.135 1.716 2.296 3.104 3.492 4.138l1.308-1.513c-1.017-.88-2.064-2.113-3.132-3.728l-1.668 1.103zm5.13 3.561c.282-1.549.412-3.24.301-5.002l-1.996.125a18.7 18.7 0 0 1-.273 4.518l1.968.359zm.301-5.008c-.116-1.715-.414-3.661-.91-5.061l-1.885.668c.408 1.153.689 2.894.8 4.529l1.995-.136zm8.529 10.647c-.635-1.071-1.48-2.322-2.629-3.337l-1.324 1.499c.917.811 1.637 1.853 2.232 2.858l1.721-1.02zm-2.624-3.333c-1.095-.979-2.226-1.655-3.362-1.704l-.086 1.998c.429.019 1.122.309 2.114 1.197l1.334-1.49zm-3.29-1.699c-.886-.103-1.581.409-2.065.995l1.542 1.274c.141-.171.242-.244.292-.271.038-.021.031-.008.001-.011l.23-1.987zm-2.019 2.321c.239.251.568.542.967.865l1.26-1.553c-.374-.304-.627-.531-.778-.69l-1.449 1.378zm.959.859c.39.324.79.639 1.199.944l1.197-1.602a28.17 28.17 0 0 1-1.12-.881l-1.276 1.54zm1.191.938l.926.687 1.151-1.636c-.195-.137-.481-.349-.864-.642l-1.213 1.59zm.895.664c.609.465 1.251.85 1.925 1.154l.821-1.823c-.528-.238-1.039-.544-1.533-.921l-1.213 1.59zm-5.216 29.315c-.217-.313-.43-.637-.637-.97l-1.698 1.057c.225.361.455.712.692 1.053l1.643-1.14zm2.32 4.074c-.241-.188-.737-.783-1.229-1.584-.487-.793-.841-1.582-.927-2.087l-1.972.333c.151.894.671 1.949 1.195 2.801.518.845 1.168 1.697 1.704 2.115l1.229-1.578zm-4.131-3.356a53.48 53.48 0 0 0 .625 3.395l1.954-.429c-.233-1.058-.442-2.208-.601-3.264l-1.978.297zm.168.421c.687.99 1.425 1.898 2.214 2.722l1.444-1.384c-.712-.743-1.384-1.569-2.015-2.478l-1.643 1.14zm3.972 1.657c-.106-.105-.21-.211-.314-.319l-1.444 1.384.348.354 1.41-1.419zm-2.262-33.858c.007.015.019.048.032.093a.94.94 0 0 1 .032.26.99.99 0 0 1-1.043.972.96.96 0 0 1-.333-.079.89.89 0 0 1-.115-.06c-.021-.013-.035-.024-.042-.029l.065.062.153.154.361.377c.087.091.236.248.344.334l1.251-1.56c.023.018-.012-.013-.149-.156l-.373-.389c-.117-.12-.268-.273-.393-.375-.033-.027-.086-.069-.15-.11-.032-.02-.084-.051-.15-.08-.055-.024-.186-.077-.36-.086a1.01 1.01 0 0 0-.795.32 1.02 1.02 0 0 0-.271.677c-.003.23.075.408.087.437l1.849-.761zm3.621 14.584c.143-1.162.111-3.005-.431-4.873-.543-1.874-1.627-3.862-3.657-5.154l-1.074 1.687c1.493.95 2.354 2.45 2.81 4.024.458 1.581.481 3.148.367 4.072l1.985.244zm-5.562-8.834l.306.819 1.874-.699-.306-.819-1.874.699zm.618 1.25c.995.796 3.138 3.493 2.953 7.415l1.998.094c.22-4.684-2.31-7.957-3.702-9.071l-1.249 1.562zm-.321-5.925c.589.609 1.66 2.034 2.731 3.694s2.064 3.434 2.544 4.729l1.875-.694c-.556-1.505-1.649-3.431-2.739-5.12s-2.244-3.245-2.972-3.999l-1.439 1.39zm7.075 7.57a29.32 29.32 0 0 0-.984-1.54c-.415-.608-.938-1.32-1.391-1.745l-1.367 1.46c.274.257.687.799 1.107 1.413a27.1 27.1 0 0 1 .91 1.425l1.725-1.013zm-5.977-6.56c2.91 2.334 5.311 6.006 6.981 11.716l1.92-.561c-1.75-5.984-4.334-10.056-7.65-12.715l-1.251 1.56zm4.65 20.112c1.148.216 2.62-.144 3.342-1.511l-1.769-.934c-.203.384-.662.582-1.203.48l-.37 1.965zm-6.979-6.603c.661 1.062 1.374 2.039 2.14 2.931l1.517-1.303a21.76 21.76 0 0 1-1.96-2.685l-1.697 1.057zm7.349 4.638c-.011-.002-.025-.005-.039-.007s-.036-.006-.067-.009a1.02 1.02 0 0 0-.085-.005c-.02 0-.055-.001-.098.003a.96.96 0 0 0-.088.011.98.98 0 0 0-.148.036c-.032.011-.071.025-.115.046s-.096.049-.153.089a1.01 1.01 0 0 0-.358.465 1.02 1.02 0 0 0-.063.363c.002.119.024.223.053.309s.065.153.097.205.065.094.093.126a.99.99 0 0 0 .136.131c.034.027.065.047.086.061a.94.94 0 0 0 .097.054c.021.011.04.019.052.024a.75.75 0 0 0 .033.013c.017.006.031.011.04.014a.8.8 0 0 0 .044.014 1.16 1.16 0 0 0 .053.015l.056.013c.01.002.028.006.05.01.011.002.031.005.055.008.012.001.03.003.051.005a1.04 1.04 0 0 0 .099.001 1 1 0 0 0 .09-.007c.036-.005.091-.013.158-.033.034-.01.076-.025.124-.046a1 1 0 0 0 .169-.096c.063-.044.136-.107.206-.194a1.01 1.01 0 0 0 .215-.702.99.99 0 0 0-.068-.292 1 1 0 0 0-.097-.184 1.05 1.05 0 0 0-.086-.112c-.049-.055-.095-.094-.124-.117a.94.94 0 0 0-.078-.056c-.037-.025-.069-.042-.087-.051s-.037-.018-.048-.023c-.023-.01-.041-.018-.052-.022-.021-.008-.04-.015-.051-.018l-.034-.011-.606 1.906c-.004-.001-.016-.005-.033-.012-.008-.003-.025-.01-.046-.019l-.046-.022a1.1 1.1 0 0 1-.086-.05 1.11 1.11 0 0 1-.077-.055c-.029-.023-.074-.062-.123-.116-.026-.028-.056-.065-.087-.112s-.066-.108-.097-.184-.059-.176-.068-.292a.99.99 0 0 1 .216-.702c.069-.087.143-.149.206-.194s.121-.075.168-.096.09-.036.124-.046c.067-.02.122-.028.157-.033a.99.99 0 0 1 .091-.007.98.98 0 0 1 .096.001c.021.001.039.003.05.004.023.003.041.005.05.007.019.003.033.006.037.007l.02.004c.021.006.031.009.046.014l.035.012c.008.003.018.007.031.012s.029.013.05.023.054.027.096.053a1.04 1.04 0 0 1 .085.061c.033.025.083.069.136.131.028.032.061.074.093.126a1.03 1.03 0 0 1 .097.205c.029.085.051.19.053.309a1 1 0 0 1-.063.363 1.01 1.01 0 0 1-.358.465c-.057.04-.11.069-.153.089a.97.97 0 0 1-.114.045 1 1 0 0 1-.148.036c-.036.006-.066.009-.088.011a1 1 0 0 1-.096.003.98.98 0 0 1-.08-.005c-.026-.003-.045-.006-.049-.006l.363-1.967zm-11.077-31.435l.307-1.854-1.973-.327-.307 1.854 1.973.327zm-.679-2.017l-.924.384.016.037.038.086a11.3 11.3 0 0 0 .147.312c.131.27.332.662.618 1.171.572 1.017 1.484 2.499 2.861 4.396l1.619-1.175c-1.333-1.836-2.203-3.253-2.737-4.202a21.23 21.23 0 0 1-.563-1.066 7.75 7.75 0 0 1-.121-.258c-.013-.027-.021-.047-.026-.058s-.004-.01-.928.373zm4.383 5.223c-1.467-2.085-2.695-5.147-2.933-5.867l-1.899.629c.272.82 1.575 4.083 3.196 6.389l1.636-1.151zm3.508-5.683c-.054-.169-.065-.275-.066-.326s.012-.017-.033.069l-1.778-.915c-.277.539-.215 1.19-.03 1.775l1.907-.604zm.646.967c-.174-.758-.542-1.681-.718-2.082l-1.832.803c.16.363.469 1.152.601 1.728l1.949-.449zm5.814 15.611l.19.088.842-1.814-.201-.093-.831 1.819zm.19.088c.457.212 1.18.573 1.985.519l-.135-1.995c-.198.013-.433-.07-1.008-.337l-.842 1.814zm-5.947-15.42l-.052-.255-1.959.402.048.236 1.963-.383zm1.652 41.388c.01-.489-.037-.97-.144-1.439l-1.95.444a3.93 3.93 0 0 1 .095.954l1.999.041zm-.58 1.758c.893.922 1.809 1.69 3.101 1.895l.312-1.975c-.615-.097-1.144-.451-1.977-1.311l-1.436 1.391zm-3.071-12.132l.293.332 1.512-1.309-.32-.363-1.485 1.339zm-.048-.054c.006.006.011.012.016.018l1.515-1.305c-.004-.006-.009-.011-.014-.016l-1.517 1.303zm1.499.053c-.115.121-.376.327-.768.31a1 1 0 0 1-.653-.284.98.98 0 0 1-.157-.201.97.97 0 0 1-.045-.087l1.828-.811a1.04 1.04 0 0 0-.223-.326c-.081-.08-.305-.272-.66-.288a1 1 0 0 0-.773.312l1.451 1.376zm3.158 2.962a25.99 25.99 0 0 0-2.804-3.938l-1.512 1.309c.849.98 1.747 2.191 2.588 3.635l1.728-1.006zM113.4 21.896c-.029-.497-.22-1.679-.817-2.658l-1.707 1.041c.366.601.51 1.425.528 1.734l1.996-.116zm-1.386-1.179a.58.58 0 0 1-.108.022.33.33 0 0 1-.049.002c-.019-.001-.034-.004-.048-.008s-.034-.014-.053-.029-.031-.031-.034-.037l1.734-.996a1.83 1.83 0 0 0-1.011-.834c-.329-.11-.694-.128-1-.037l.569 1.917zm-4.416 51.774c.654 1.288 1.276 2.637 1.856 4.05l1.85-.759a56.56 56.56 0 0 0-1.923-4.197l-1.783.906zm6.74 3.155c-.123-.367-.367-.756-.795-.974-.457-.233-.95-.18-1.336.032-.706.388-1.025 1.229-1.081 2.054l1.995.137a1.25 1.25 0 0 1 .1-.452c.038-.08.043-.039-.051.013-.116.064-.327.103-.535-.003-.179-.091-.207-.215-.193-.171l1.896-.636zm-7.542 5.876c-.02-.336.005-.486.015-.525.012-.045-.042.205-.352.334-.141.058-.268.06-.347.049-.038-.005-.067-.013-.084-.018s-.027-.01-.029-.011.014.007.048.031a1.69 1.69 0 0 1 .121.097l1.319-1.503c-.166-.146-.384-.315-.635-.433-.23-.109-.674-.26-1.158-.059-.512.212-.728.669-.816 1.001-.089.338-.103.733-.078 1.157l1.996-.118zm1.669 4.872c-.054-.054-.203-.268-.411-.7-.193-.399-.396-.896-.583-1.426-.385-1.093-.651-2.173-.674-2.729l-1.998.084c.036.869.388 2.183.786 3.311.205.58.435 1.149.668 1.631.216.448.485.928.792 1.238l1.42-1.408zm-5.43-8.843c1.111 5.963 3.16 11.487 5.745 15.644l1.698-1.056c-2.429-3.908-4.402-9.187-5.477-14.954l-1.966.366zm11.716 12.319l.809-.587-.031-.043-.088-.121-.323-.441-1.086-1.448c-.851-1.118-1.919-2.479-2.717-3.341l-1.468 1.358c.725.784 1.741 2.074 2.594 3.195l1.068 1.425.317.433.086.117c.009.013.017.023.022.03s.007.01.817-.577zm-7.706-2.068l1.014 1.051 1.449-1.379-1.043-1.08-1.42 1.408zm1.014 1.051a48.43 48.43 0 0 0 2.766 2.726l1.349-1.476a46.66 46.66 0 0 1-2.666-2.628l-1.449 1.379zm-1.891-7.375c1.056.927 1.917 1.859 3.166 3.215l1.471-1.356c-1.237-1.341-2.169-2.353-3.318-3.362l-1.319 1.503zm15.317 9.735c-1.434-2.505-4.451-8.348-5.586-12.51l-1.93.526c1.206 4.421 4.333 10.449 5.781 12.977l1.735-.994zm-7.517-11.988c.811 3.028 2.907 9.216 5.854 13.09l1.592-1.211c-2.701-3.551-4.717-9.421-5.514-12.397l-1.932.517zm-6.804 7.531l8.924 8.387 1.369-1.457-8.923-8.387-1.37 1.457zm10.344 6.981l-9.661-10.497-1.472 1.354 9.662 10.497 1.471-1.354zm-11.384-9.66c.128.789.37 1.554.847 2.429l1.756-.956c-.367-.675-.537-1.224-.629-1.792l-1.974.319zm5.191-.187l-.509-.552-1.47 1.356.511.554 1.468-1.358zm-.51-.553l-.001-.001-1.469 1.357.001.001 1.469-1.357zm-.335-43.859c1.814 1.461 4.018 4.838 3.247 8.999l1.967.364c.937-5.06-1.728-9.124-3.959-10.921l-1.255 1.557zm.474 15.554c.249.201.664.67 1.145 1.376.467.687.954 1.538 1.363 2.45s.729 1.865.879 2.754c.152.896.12 1.664-.097 2.261l1.88.684c.377-1.036.374-2.184.189-3.278-.186-1.102-.569-2.218-1.026-3.238s-1.004-1.976-1.535-2.757c-.517-.761-1.064-1.422-1.543-1.808l-1.255 1.557zm-2.137.525l.968.25c-.005.019-.006.024-.008.029a.19.19 0 0 1-.008.026c-.005.016-.011.03-.016.042-.01.024-.019.04-.025.05-.014.023-.014.012.025-.015l-1.131-1.649c-.273.187-.458.397-.579.588a1.53 1.53 0 0 0-.134.254c-.016.037-.028.07-.038.1-.005.015-.009.029-.013.041-.006.021-.007.024-.007.027-.002.008-.003.008.966.257zm.886-1.3c.086.052.143.11.178.153s.054.079.063.098c.017.035.013.043.009.014s-.003-.062.003-.104.016-.077.027-.103l-1.836-.794c-.176.407-.224.848-.18 1.23a1.97 1.97 0 0 0 .165.604 1.41 1.41 0 0 0 .539.615l1.032-1.713zm5.207 7.493c-.152-.818-.351-1.518-.587-2.114l-1.86.737c.181.457.348 1.029.481 1.743l1.966-.366zm-4.169-3.047c.074-.027.293-.064.588.1s.74.575 1.134 1.569l1.86-.737c-.513-1.293-1.216-2.131-2.02-2.579s-1.629-.461-2.254-.23l.692 1.877zm.668 4.371c-.246-.383-.658-1.201-1.033-2.146-.377-.951-.669-1.917-.739-2.605l-1.99.202c.098.968.473 2.139.87 3.14.399 1.008.866 1.957 1.21 2.491l1.682-1.082zm-3.734-4.907c-.196.74-.088 1.674.239 2.653.337 1.006.936 2.161 1.852 3.392l1.605-1.194c-.812-1.091-1.302-2.059-1.559-2.831-.268-.8-.258-1.3-.204-1.506l-1.933-.514zm7.822-2.27c.19.341.506.488.523.497l.967-1.75c-.018-.01-.017-.01-.014-.008s.027.016.055.037c.065.049.15.131.216.25l-1.747.974zm.523.497l.026.015c-.025-.02-.008-.009.034.053l1.663-1.111c-.288-.431-.569-.604-.756-.707l-.967 1.75z" fill="url(#O)" mask="url(#A)"/><path d="M100.556 3.667s44.625-1.5 73.75 0c26.25 13.25 38.875 28.875 38.875 28.875l-82.563.875c-20.375-17.625-30.062-29.75-30.062-29.75z" fill="url(#P)"/><path d="M122.306 3.164l-21.75.503s2.242 2.806 6.838 7.681l14.912-8.184zm32.515-.082l-32.515 9.585h18.5l-18.5 13.34 2.469 2.249 30.046-8.088-6.015-7.5 11.25-3.75 14.25-5.25c-6.011-.31-12.683-.491-19.485-.585zm5.235 30.155l31.14-19.645a148.19 148.19 0 0 0-7.339-4.676l-23.801 24.321z" fill="url(#Q)" class="B"/><path d="M212.805 32.542l-82.875 1.375c-.687 6.313.365 61.49 1.281 89.156h81.594V32.542z" stroke="#a3a2a2" class="C D"/><path d="M213.274 87.667l-1.281 7.313h-.469l.188-8.312 1.562 1z" fill="#fff"/><path d="M88.57 47.046c.89 3.321-1.081 6.735-4.402 7.625s-6.735-1.081-7.625-4.402c-.596-2.226.092-4.494 1.611-6.015l-2.794-10.427 6.014-1.611 2.794 10.427c2.076.558 3.806 2.178 4.403 4.404z" fill="#4cb461"/><path d="M81.373 32.216l2.794 10.427c2.076.558 3.806 2.178 4.403 4.404.89 3.321-1.081 6.735-4.402 7.625s-6.735-1.081-7.625-4.402c-.596-2.226.092-4.494 1.611-6.015l-2.794-10.427m6.014-1.611l-5.801-21.65c-.445-1.661-2.152-2.646-3.813-2.201s-2.646 2.152-2.201 3.813l5.801 21.65m6.014-1.611l-6.014 1.611" stroke="#4cb461" class="C"/><g fill="#4cb461"><use xlink:href="#U"/><use xlink:href="#U" x="-7.091" y="-26.46"/><path d="M68.465 22.53a1 1 0 1 1-.518-1.932l.518 1.932zm1.804-.483l-1.804.483-.518-1.932 1.804-.483.518 1.932z"/><use xlink:href="#U" x="-3.545" y="-13.231"/><path d="M72.01 35.76a1 1 0 1 1-.518-1.932l.518 1.932zm1.804-.483l-1.804.483-.518-1.932 1.804-.483.518 1.932z"/><ellipse rx="13.903" ry="14" transform="matrix(-.998342 -.057562 -.057562 .998342 63.3408 82.5398)"/></g><path d="M48 86.876l5.188-1.342m26.275-7.095c-.4 0-5.213 1.408-5.213 1.408M60.313 68.251l.75 2.658m4.813 23.155l.563 2.595" stroke="#fffff5" class="C D F"/><path d="M65.474 83.149c.073 1.271-.823 2.356-2.001 2.424s-2.193-.907-2.266-2.178.823-2.356 2.001-2.424 2.193.907 2.266 2.178z" class="E"/><path d="M66.43 72.713l-3.562 11.063 6.688 3.188" stroke="#fffff5" class="C D F"/><path d="M234.556 62.737c32.25-12.821 16.25-50.571-4-44 4-11.821-14.75-19.321-22-4.821-2.333 4.583-6.125 18.25-36.5 18.25 8.917 5.583 26.1 23.8 23.5 52 1.667-5.37 10.4-13.323 32-2.179 14.75 1.679 18.25-16.821 7-19.25z" fill="url(#R)"/><path d="M225.805 23.198s8-7.687 18.578-4.088c20.857 10.294 5.172 38.619-11.765 42.994 14.5 9.063.812 21.938-14.313 19.012 20.188 5.051 28.625-11.262 19.153-18.474 16.718-7.423 26.782-33.598 7.977-45.232-3.887-2.405-9.431-4.231-14.317-1.899 0-6.062-3.71-9.382-9.413-10.246-9.556-1.448-13.231 6.541-15.938 14.319 3.565-6.098 7.451-13.582 15.638-12.342 9.259 1.403 4.4 15.956 4.4 15.956z" fill="#a6f4f0" class="B"/><path d="M227.351 65.632c-.942 3.387-4.219 6.328-9.309 5.749 7.454.849 11.311-12.788 1.076-11.807 18.459-6.026 14.69-33.442-1.076-23.219 1.373-6.337-3.604-14.415-8.425-12.968-1.666.836-3.154 2.241-4.162 4.257 1.252-2.504 2.7-3.819 4.162-4.257 5.388-2.704 12.64.541 11.564 8.322 18.088-2.67 16.483 20.329 3.821 26.692 2.337 1.573 3.083 4.593 2.349 7.231z" fill="#fff"/><ellipse rx="7.414" ry="8.765" transform="matrix(.917242 .546566 -.014935 .990779 116.595 54.3346)" fill="url(#S)"/><g fill="#2a6458"><path d="M119.731 59.135l-8.147-6.455c.07.017.294.14.469.242-.01-.127.034-.201.061-.224-.018.075.013.206.035.28l.022-.209.053.255a1.01 1.01 0 0 0-.062-.452c.061.093.179.324.193.548l.071.058c-.002-.08-.033-.315-.256-.904.11.201.331.676.342.968l.07.053c-.018-.14.03-.221.058-.245a.94.94 0 0 0 .008.295l.713.565c.046-.03.235-.03.538.227-.149-.095-.253-.093-.341-.066l.179.147a.28.28 0 0 1 .207-.014c-.038.065-.096.065-.12.086l.139.111c.018-.068.076-.138.076-.138l.006.201.026.021c.007-.099.013-.364-.058-.779.116.44.149.599.154.853l.066-.191-.006.238.094.072c-.002-.108-.027-.294-.055-.386.073.121.109.316.133.445-.015-.146.008-.343.01-.431l.045.473.027.021c-.002-.163.043-.303.057-.355l.005.402.041.031-.011-.098.059.134.385.293c.001-.168.09-.39.097-.421-.022.176-.026.318-.017.437.083-.056.07-.198.06-.269.046.166.05.303.045.396l.058.045a2.47 2.47 0 0 0-.033-.531 1.17 1.17 0 0 1 .089.574l.038.03c-.014-.15.01-.301.014-.364l.055.418.021.017a2.04 2.04 0 0 1 .042-.583c-.038.15.036.476.032.641l.028.022c-.033-.189-.003-.377.006-.454l.091.431c.002-.151.082-.065.016-.562.124.363.054.523.076.691.02-.035.037-.065.035-.081a1.72 1.72 0 0 1 .004.16l.032.026c-.006-.141.002-.293.008-.355a2.23 2.23 0 0 0 .043.397l.071.06c.003-.175-.041-.519-.068-.679.062.168.109.53.131.73l.068.056-.053-.398c.027.092.069.282.081.421l.515.402c-.012-.162.052-.425.09-.524a2.54 2.54 0 0 0 .003.593l.084.061c-.03-.187.04-.38.054-.441-.046.258-.017.41-.003.478l.033.024a2.07 2.07 0 0 0-.014-.235 2.24 2.24 0 0 1 .065.271l.039.027a3.24 3.24 0 0 1-.006-.301l.023.313.046.032-.004-.214.036.236c.016-.169.016-.423.015-.551.04.131.063.421.073.611l.068.046c.012-.136.001-.294-.006-.345a3.78 3.78 0 0 1 .063.382l.039.025c-.014-.118-.015-.243-.012-.3 0 .057.046.225.075.339l.048.031c-.015-.163-.075-.456-.109-.594a1.92 1.92 0 0 1 .145.616l.054.032.013-.222.011.236c.054-.151.064-.352.064-.41.053.178.042.367.023.467l.024.017c.001-.067.02-.145.086-.166-.016.014-.037.092-.031.208l.086.073c.035-.107.072-.334.033-.592.025.132.064.456.044.662l.947.955c.116-.035.094-.411.07-.547a1.69 1.69 0 0 1 .066.506c.026-.062.061-.102.083-.098-.039.052-.053.194-.057.27l.044.037c.009-.042.034-.144.036-.23l.013.272.064.056c-.025-.099-.041-.255.016-.288-.006.035-.008.22.014.298l.005.021.025.022c.012-.078.012-.286.012-.351a1.38 1.38 0 0 1 .059.415l.081.073-.008-.185c.037.06.058.184.065.237l.342.32z"/><path d="M117.906 55.655c-.255.057-.728-.071-.728-.071-.049.003-.103.019-.124.066 0 0-.006-.031-.024-.039s-.019.033-.019.033-.036-.037-.052-.103c-.013.052-.044.028-.044.028s-.017-.111-.055-.184l-.055-.096-.403-.27-.002-.212-.05-.121h0 0 0c-.046-.109-.083-.198-.097-.27l.07.361.009.197.02.12h0 0c.029.154.058.311.049.467-.022.369.182.941.182.941l-.424-.336s.062-.303-.223-.905c-.022-.14-.098-.377-.182-.616-.058-.098-.092-.205-.139-.354h0 0l-.097-.296c-.253-.445-.537-1.242-.544-1.386.004.347.238.896.502 1.342.094.253.198.651.19.707-.009.029-.017.044-.026.061l-.013.024a.8.8 0 0 0-.09-.21c.025.064.078.211.067.261l-.029.071c-.002-.044-.027-.091-.027-.091s.019.099-.007.106c-.017.005-.058-.02-.058-.02-.1-.065-.21-.15-.326-.252-.092-.085-.39-.368-.52-.539.151.146.352.253.409.127-.059.011-.179-.084-.179-.084-.01.057-.055.095-.26-.081l-.23-.298s.045-.033.074-.092l.01-.022c-.04-.071-.073-.109-.106-.147s-.071-.082-.112-.167c-.101.001-.164-.303-.164-.303s-.016.271.241.515c-.01.146-.182.009-.216-.019l-.003-.002c-.11-.298-.277-.502-.277-.502s.234.413.212.549c.073.035.253.121.359.116-.112.044-.263.006-.42-.046 0 0 .011-.064-.017-.107.001.037-.021.101-.021.101-.022.093-.051.198-.118.257.002.013-.017.049-.017.049s-.014-.068-.023-.051-.007.078-.007.078-.027-.046-.033-.043l-.024.02-.022-.002c-.057-.005-.16-.013-.265-.064 0 0 .028-.024.019-.061-.021.029-.073.033-.073.033l-.13.082-.221-.175c.007-.019.012-.041.012-.068-.019-.039-.05-.091-.069-.108-.014-.013-.027-.015-.042-.016s-.022-.002-.036-.009c.021-.002.058-.035.057-.096-.005-.007-.012-.015-.018-.022-.117-.133-.187-.131-.215-.111-.002-.014-.002-.027-.002-.04l.023-.472c.003-.058-.004-.124-.021-.195l-.096-.417c.025-.021.081-.028.148.047.114.127.24.119.254.047l.003-.016c.012-.066.023-.128.125-.089.112.043.104-.047.096-.128h0l-.002-.028c-.071.033-.115-.029-.151-.079-.025-.035-.046-.064-.069-.052-.066.034-.283-.047-.39-.191.011-.008.023-.014.035-.019l-.101-.16c-.064-.1-.051-.306.186-.072 0 0-.126-.007-.131.051.022-.021.074-.003.074-.003l.108.109c.058.056.169.136.177.121l-.096-.085h0l-.047-.043c.087-.02.224.008.224.008a.59.59 0 0 1 .182.128.61.61 0 0 0-.148-.18l.131-.203c-.002-.031.006-.03.014-.029.017-.021.007-.039-.008-.06.013-.005.049-.022.056-.036.032.008.018-.032.006-.068l-.003-.008c-.007-.014-.002-.04.027-.006.011-.021.009-.031.005-.053v-.003l-.001-.003a1.04 1.04 0 0 1 .099-.125c.002.004.007.01.017.018.04.032.071.018.069-.019-.001-.013.002-.02.004-.025s.004-.011-.021-.032c.228-.222.576-.354.876-.205-.079.024-.19.13-.271.468.204-.225.339-.184.473-.144l.07.02c.014-.006.005-.039-.005-.069s-.019-.061 0-.058c.213.034.639.476.842.698l-.287-.402c.271.27.412.469.511.608l.022.031c.006-.097.13-.058.22.044l.593.73s-.276-.444-.287-.574c-.007-.091.219.041.392.154l.021.014.172.119-.044-.032.037.025.848.59.666.391c.233.222.723.946.722 1.619l-.012.371-.007.084-.029.326h0l-.058 1.233.109.65c-.036-.053-.103-.186-.151-.412.029.211.027.337.027.337-.047-.178-.05-.218-.06-.374l-.004-.064c-.022.09-.019.251.07.553-.057-.116-.218-.598-.083-.827-.01-.212-.001-.362.015-.623l.003-.055-.028.076h0l-.104.259-.099.222.12-.13c0 .012-.005.035-.01.059h0c-.006.026-.012.053-.01.068a.51.51 0 0 1 .004.144l-.3.686-.049.125-.001-.003-.079.261-.453-.359.177-.303.084-.793-.008-.034c-.037-.169-.072-.33-.09-.724l-.005-.117s-.056.103-.051.207.041.387.154.668l-.163-.306-.052-.072-.057-.186-.011.02-.028-.135s.059-.047.086-.09zm.497 1.974l.035.403.372.294-.018-.254-.035-.092.02-.125-.046-.062.032-.137-.043-.617c-.045.19-.252.538-.252.538l-.01.05c-.017.003-.044.001-.055.001zm-3.048-6.366l-.069-.053.069.053zm-.682-.531l-.01-.005zm-.04 3.404c-.003.059 0 .122.009.189.059.434-.074.624-.074.624l.388.308s-.047-.401.189-.578a.53.53 0 0 1 .01-.066 4.64 4.64 0 0 1-.522-.476zm4.075-.284s-.251-.344-.663-.665a.46.46 0 0 0 .171.086c.04.011.073.02.133.074.184.194.359.505.359.505zm-2.157-.295c.042-.097.045-.193.039-.323-.008.168-.047.341-.047.341.047-.039.109-.166.119-.261l-.111.243zm-.086.08a.61.61 0 0 0 .091-.32c-.038.2-.052.233-.075.283l-.016.037zm-.004.356c-.101.022-.155.11-.196.182l.022-.03c.03-.041.049-.067.174-.152zm-.16.047c.062-.083.188-.132.276-.14-.108.035-.282.149-.282.149.019-.077.093-.188.153-.215l-.147.207zm-.089.004c.01-.053.023-.13.09-.166-.001.043-.047.11-.09.166zm-2.994-1.369l-.031.028c-.047.04-.082.041-.116.032.062.055.134.091.185.044.026-.024.038-.074.048-.113.006-.028.012-.05.02-.055-.034-.005-.068.027-.106.062zm.104.265c-.032.049-.142-.071-.16-.118.056.03.118.029.128-.028 0 0 .065.096.032.146zm2.022-1.1c-.222-.153-.333-.17-.396-.179-.026-.004-.044-.007-.058-.018-.032.014-.101.073-.114.196-.008.036-.022.066-.046.088 0 0 .13-.002.168-.124s.135-.15.446.037zm-.41-.341h0c-.123-.045-.153.129-.153.221-.022-.227.055-.321.096-.339-.06.016-.163.106-.096.339.037-.177.139-.216.153-.221zm.922 2.473l-.113-.384s-.038-.063-.058-.111c-.037-.087-.111-.312-.111-.312l.063.286a3.43 3.43 0 0 0 .074.257c.037.104.145.264.145.264zm-.527-.641c.024.093.287.483.287.483l-.319-.862c-.013.018-.014.078-.007.151a1.45 1.45 0 0 0 .074.241l-.052-.088.017.075zm.547.381c-.02-.063-.013-.109-.007-.155s.014-.097-.015-.163c.087.156.122.327.105.383-.025.084-.052.145-.052.145s-.003-.125-.031-.21zm-.222-.903c-.011.202.061.533.11.651.028-.144.008-.347-.005-.431l-.001.383-.036-.195-.068-.409zm2.865 3.021c.171-.103.279-.184.385-.551.014-.029-.043-.105-.057-.061-.029-.014-.05.029-.024.088-.062.241-.216.447-.291.512.044-.043.103-.169.13-.264.037-.131.056-.404.056-.404l-.089.349c-.008.031-.023.048-.04.066-.033.038-.073.082-.07.264zm-.909-.911c.207.164.358-.305.358-.305s-.073.151-.219.198c-.029.009-.065-.009-.1-.026-.029-.015-.057-.029-.078-.025l-.456.098s.394-.02.495.061zm-.497-.113c.112-.038.342-.12.362-.145a3.6 3.6 0 0 0 .156-.295l-.192.249-.326.191zm-.012-.009l.331-.332-.223.111c-.008.003-.075.149-.108.222zm-1.14.425a.96.96 0 0 0-.049-.167c-.024-.069-.041-.115-.012-.141.049.157.126.172.126.172.051.072.05.138.041.158s-.019.029-.032.031l-.057-.112.024.104c-.015-.009-.029-.025-.041-.045zm.23-.798l.08.285-.03.201-.011-.233-.039-.252zm-.561-.317a1.32 1.32 0 0 0 .166.51c-.007-.011-.027-.079-.052-.162h0 0l-.114-.347zm-.261.14l-.103-.08c-.112-.087-.122-.095-.21-.064-.049.017-.17-.023-.218-.073s-.061-.093-.073-.139a.41.41 0 0 0-.051-.129c-.057-.091-.225-.406-.225-.406s.185.305.246.3c.022.033.158.202.216.247a1.54 1.54 0 0 1-.167-.229c.164.157.223.179.262.193.015.006.027.01.041.021l.019.015c.086.069.168.135.097-.131a.86.86 0 0 0 .062.137.8.8 0 0 1 .104.338zm-1.37-3.388h0 0 0c-.063.037-.409.241-.482.461.015-.204.104-.273.16-.317.046-.036.07-.055.009-.118.075-.022.323-.032.323-.032l-.01.006zm-.315 2.629c-.041-.013-.172-.117-.249-.208 0-.02.034-.025.074.029l.002.003c.021.03.067.092.173.176zm-.051-.173c-.025-.022-.045-.04-.062-.045-.023-.006-.049-.001-.049-.001a.9.9 0 0 0 .12.114c.056.037.086.035.125.032l.014-.001c-.064-.023-.111-.066-.148-.1zm.055-1.114s-.035-.01-.054.001c-.03.008-.095.066-.089.23-.03-.059-.032-.181-.023-.183-.033.007-.068-.001-.105-.008a.5.5 0 0 0-.083-.012c.121.005.232-.063.281-.098.038-.027.134.038.153.135.036.186.044.451-.092.378a.24.24 0 0 1-.097-.149c.094.093.132-.012.132-.012l-.096-.064c.036.017.1-.067.1-.067s-.031-.026-.083-.034c.045-.028.05-.07.053-.099zm-.101.46a.25.25 0 0 1-.098-.107c-.03-.058-.031-.091-.027-.11l.025.066a.91.91 0 0 0 .1.15zm.973.123c-.005.08.042.191.098.324l.054.129a.76.76 0 0 1 .06.242c.024-.109.026-.229.027-.317l.005-.106c-.044.012-.039.17-.034.299l.002.124c.003-.102-.1-.444-.212-.695zm1.867.408a.64.64 0 0 0 .017.366c.081-.152.043-.424.007-.552 0 0 0 .09-.024.186zm-.118.352a.61.61 0 0 0-.045-.138c-.024-.057-.045-.107-.034-.187.034-.232-.036-.502-.036-.502a2.45 2.45 0 0 1 .115.827zm-1.765-.585c.099.207.145.36.152.488-.123-.177-.308-.654-.263-.96 0 0 .033.308.111.472zm-.433-.818c.035-.03.096-.153.151-.265l.079-.155-.11.102s-.026.011-.052.03c-.072.052-.187.35-.187.35l.119-.063zm-.107-.165l-.003.007-.002.006c-.022.053-.055.134-.097.185l.042-.236.003-.031c.01-.094.017-.159.097-.174.026-.005.054-.014.082-.024h0 0c.033-.011.065-.022.086-.022-.126.089-.151.151-.208.288zm.525-.294l-.284.443c.067-.14.217-.424.284-.443zm3.703 4.666c.069-.128.068-.285.066-.481-.001-.175-.002-.382.045-.628-.178.371-.142.767-.116 1.054l.005.056zm.211-1.904c.034.147.062.268.033.407.036-.068.059-.225-.022-.489s-.051-.316-.051-.316-.038.011.005.239l.035.159zm.077-.204c-.037-.139.003-.262.003-.262s.002.199.067.281.097.147.108.236c.018.161-.017.24-.057.331h0 0 0l-.023.053c.012-.228-.031-.387-.094-.624l-.004-.014zm.287.344c.007-.131.021-.388-.046-.544-.005.037.027.452.043.606a.7.7 0 0 0 .04-.369l-.001.007-.039.362.003-.062h0zm.017.389c.012-.025.026-.122.032-.216s.07-.127.07-.127a1.15 1.15 0 0 1-.004.12l-.003.057c-.003.049-.047.104-.076.141h0l-.019.025z" class="B"/></g><ellipse rx="5.54" ry="6.626" transform="matrix(.917242 .546566 -.014935 .990779 116.108 54.1482)" stroke="#2a6458" stroke-width=".4"/><path d="M112.746 59.359l6.263-3.18-2.975-1.142 6.109-2.605c-1.207-2.875-3.175-5.446-5.417-6.782l-3.98 13.708zm-1.533-2.742c-.916-2.048-1.449-4.275-1.418-6.334.06-3.961 2.187-6.065 5.042-5.416l-2.403 3.84-1.221 7.911z" fill="url(#T)" class="B"/><defs><linearGradient id="B" x1="251.403" y1="29.32" x2="251.403" y2="123.167" xlink:href="#V"><stop stop-color="#fdfdfd"/><stop offset="1" stop-color="#f1f1f1"/></linearGradient><linearGradient id="C" x1="245.57" y1="37.097" x2="245.57" y2="40.328" xlink:href="#V"><stop stop-color="#ddd"/><stop offset="1" stop-color="#ddd" stop-opacity="0"/></linearGradient><linearGradient id="D" x1="245.57" y1="51.645" x2="245.57" y2="54.876" xlink:href="#V"><stop stop-color="#ddd"/><stop offset="1" stop-color="#ddd" stop-opacity="0"/></linearGradient><linearGradient id="E" x1="245.57" y1="66.191" x2="245.57" y2="69.423" xlink:href="#V"><stop stop-color="#ddd"/><stop offset="1" stop-color="#ddd" stop-opacity="0"/></linearGradient><linearGradient id="F" x1="245.57" y1="80.739" x2="245.57" y2="83.971" xlink:href="#V"><stop stop-color="#ddd"/><stop offset="1" stop-color="#ddd" stop-opacity="0"/></linearGradient><linearGradient id="G" x1="245.57" y1="95.287" x2="245.57" y2="98.519" xlink:href="#V"><stop stop-color="#ddd"/><stop offset="1" stop-color="#ddd" stop-opacity="0"/></linearGradient><linearGradient id="H" x1="245.57" y1="109.835" x2="245.57" y2="113.067" xlink:href="#V"><stop stop-color="#ddd"/><stop offset="1" stop-color="#ddd" stop-opacity="0"/></linearGradient><linearGradient id="I" x1="163.056" y1="45.167" x2="210.806" y2="52.917" xlink:href="#V"><stop stop-color="#c1bdbd"/><stop offset="1" stop-color="#dcdcdc"/></linearGradient><linearGradient id="J" x1="152.681" y1="94.417" x2="152.681" y2="124.542" xlink:href="#V"><stop stop-color="#635e5e"/><stop offset=".481" stop-color="#7c7979"/><stop offset="1" stop-color="#989595"/></linearGradient><linearGradient id="K" x1="170.681" y1="105.542" x2="124.681" y2="46.042" xlink:href="#V"><stop stop-color="#fff"/><stop offset="1" stop-color="#fff" stop-opacity="0"/></linearGradient><linearGradient id="L" x1="195.431" y1="69.042" x2="159.336" y2="92.277" xlink:href="#V"><stop stop-color="#f3f3ee"/><stop offset="1" stop-color="#f4f4ef"/></linearGradient><linearGradient id="M" x1="150.181" y1="35.542" x2="225.243" y2="35.23" xlink:href="#V"><stop stop-color="#abf5f0"/><stop offset="1" stop-color="#abf5f0" stop-opacity="0"/></linearGradient><linearGradient id="N" x1="84.306" y1="19.667" x2="109.493" y2="124.167" xlink:href="#V"><stop stop-color="#f3f3f3"/><stop offset="1" stop-color="#cfcfcf"/></linearGradient><linearGradient id="O" x1="102.405" y1="59.774" x2="126.705" y2="60.573" xlink:href="#V"><stop stop-color="#f7f7f7"/><stop offset="1" stop-color="#f7f7f7" stop-opacity="0"/></linearGradient><linearGradient id="P" x1="146.847" y1="8.166" x2="146.847" y2="21.666" xlink:href="#V"><stop stop-color="#f4f1f1"/><stop offset="1" stop-color="#e5e5e5"/></linearGradient><linearGradient id="Q" x1="162.056" y1="5.417" x2="131.806" y2="39.167" xlink:href="#V"><stop stop-color="#fcfcfc"/><stop offset="1" stop-color="#fff" stop-opacity="0"/></linearGradient><linearGradient id="R" x1="243.806" y1="24.167" x2="199.056" y2="57.417" xlink:href="#V"><stop stop-color="#a6f4f0"/><stop offset="1" stop-color="#a6f4f0" stop-opacity="0"/></linearGradient><linearGradient id="S" x1="1.024" y1="7.463" x2="12.068" y2="13.37" xlink:href="#V"><stop stop-color="#fff"/><stop offset="1" stop-color="#c0ebb7"/></linearGradient><linearGradient id="T" x1="116.726" y1="45.651" x2="109.021" y2="58.583" xlink:href="#V"><stop stop-color="#fffff5"/><stop offset="1" stop-color="#fffff5" stop-opacity="0"/></linearGradient><path id="U" d="M71.979 42.859a1 1 0 1 1-.518-1.932l.518 1.932zm3.608-.967l-3.608.967-.518-1.932 3.608-.967.518 1.932z"/><linearGradient id="V" gradientUnits="userSpaceOnUse"/></defs></svg>