<svg width="57" height="44" viewBox="0 0 57 44" fill="none" xmlns="http://www.w3.org/2000/svg">
<path fill-rule="evenodd" clip-rule="evenodd" d="M56.1892 39.0016C58.9306 42.5474 54.0131 45.3318 51.9046 43.3285C50.7107 42.1942 49.9417 40.6151 48.7218 39.5388C44.9575 36.2173 40.6027 32.68 36.8611 27.0562C37.8402 24.2924 39.473 23.0431 40.1994 22.7473L40.3559 22.9062C46.8243 28.4679 53.0979 35.0032 56.1892 39.0016ZM41.6216 28.7216C41.6216 29.01 41.8614 29.2438 42.1572 29.2438C42.453 29.2438 42.6928 29.01 42.6928 28.7216C42.6928 28.4331 42.453 28.1993 42.1572 28.1993C41.8614 28.1993 41.6216 28.4331 41.6216 28.7216ZM46.1728 33.1651C46.1728 33.4535 46.4126 33.6873 46.7084 33.6873C47.0042 33.6873 47.244 33.4535 47.244 33.1651C47.244 32.8767 47.0042 32.6429 46.7084 32.6429C46.4126 32.6429 46.1728 32.8767 46.1728 33.1651ZM51.6509 38.7331C51.3552 38.7331 51.1154 38.4993 51.1154 38.2109C51.1154 37.9224 51.3552 37.6886 51.6509 37.6886C51.9467 37.6886 52.1865 37.9224 52.1865 38.2109C52.1865 38.4993 51.9467 38.7331 51.6509 38.7331Z" fill="#BFEDC3"/>
<path fill-rule="evenodd" clip-rule="evenodd" d="M36.1614 27.2189C31.7941 28.5663 29.0617 32.919 27.5471 36.2949C20.4602 34.9264 15.164 30.6188 11.4604 25.5335C7.98463 20.7612 6.16972 15.0104 5.33544 10.2163C5.0826 10.3236 4.83344 10.4266 4.58859 10.5252L4.37738 10.6158C6.10935 20.5827 13.4468 33.8028 27.4604 36.4902C26.4505 38.7862 26.0135 40.5832 26.0135 40.5832C23.7441 40.4145 21.5645 39.8808 19.4996 39.0582C19.5695 38.3778 19.7397 36.9277 19.8621 36.5696C19.5844 37.0878 19.0098 38.264 18.9329 38.8239C11.7672 35.7551 6.04114 29.2197 2.83104 22.5018C3.59602 21.4703 4.34582 20.8436 4.9273 20.3065C3.96326 20.5159 2.83104 21.1122 2.45684 21.6924C2.28156 21.3002 2.11498 20.9078 1.95731 20.5159C2.32594 20.2692 2.76205 20.1424 3.35118 20.0827C2.83104 19.9559 2.31829 20.0379 1.83018 20.1951C0.708817 17.321 0.0706482 14.4823 0 11.9362C1.08713 11.7768 2.71132 11.2811 4.58859 10.5252L5.33359 10.2057L5.33544 10.2163C9.56004 8.42396 14.8108 5.44317 18.1484 2.06258C19.0933 1.10559 20.729 1.07129 21.5746 2.117C26.5848 8.31295 33.1496 15.5296 39.816 22.3207C37.383 23.8426 36.3808 25.8672 36.1614 27.2189ZM17.8422 7.37062C17.8422 8.27705 18.5958 9.01185 19.5254 9.01185C20.4551 9.01185 21.2087 8.27705 21.2087 7.37062C21.2087 6.46419 20.4551 5.72939 19.5254 5.72939C18.5958 5.72939 17.8422 6.46419 17.8422 7.37062Z" fill="#BFEDC3"/>
</svg>
