<svg width="240" height="168" viewBox="0 0 240 168" fill="none" xmlns="http://www.w3.org/2000/svg">
<g clip-path="url(#clip0_2001_21339)">
<path fill-rule="evenodd" clip-rule="evenodd" d="M199.416 76.7812C198.509 76.169 197.855 75.7646 197.519 75.6183L166.698 71.9971C166.534 71.8621 166.334 71.6889 166.135 71.5177L166.135 71.5176L166.135 71.5176L166.135 71.5175L166.135 71.5172C165.943 71.3512 165.753 71.1871 165.6 71.0615L166.338 71.1477L166.338 71.1477C170.023 71.5779 174.877 72.1446 179.666 72.7455C179.915 72.7767 180.164 72.8081 180.413 72.8395L164.543 70.568C163.645 70.4799 162.549 71.0738 161.47 72.872L137.211 113.304C136.055 115.308 135.217 120.339 141.117 124.432C144.641 126.877 146.525 127.896 147.721 128.543C149.029 129.25 149.516 129.513 150.424 130.708C152.163 132.997 163.596 145.182 171.551 151.062C174.775 153.653 176.793 152.636 177.399 151.804L200.316 113.609C202.36 110.202 204.751 103.682 198.963 99.0334C198.832 98.9365 197.9 98.1317 196.43 96.8622L196.429 96.8619C194.259 94.9879 190.916 92.1014 187.246 88.9845C198.164 98.0368 208.569 106.368 211.463 106.633C213.122 106.345 215.106 106.131 217.262 106.001C222.616 104.763 233.405 102.501 233.795 102.957L233.671 103.163L218.497 106.582C218.551 106.723 218.538 106.888 218.446 107.022C213.762 113.847 206.552 124.441 200.335 133.775C197.226 138.441 194.367 142.791 192.197 146.196C191.112 147.899 190.2 149.363 189.517 150.511C188.953 151.458 188.556 152.17 188.342 152.62C189.989 152.436 191.628 152.24 193.163 152.056C195.818 151.739 198.164 151.459 199.718 151.336C205.526 150.878 209.208 150.39 210.307 149.251C211.12 148.408 220.592 132.376 226.845 121.791L226.845 121.79L226.846 121.79L226.846 121.789L226.847 121.788L226.847 121.788L226.847 121.788L226.849 121.784C229.043 118.07 230.841 115.028 231.728 113.548C234.982 108.126 234.29 103.847 233.795 102.957L233.943 102.868C231.156 100.695 227.622 97.9532 223.853 95.0511C205.814 96.9964 197.562 89.5253 193.748 86.0719C193.494 85.842 193.26 85.63 193.043 85.4398C200.537 92.0376 212.502 95.6933 222.5 94.9642L199.41 77.1334C199.41 77.1334 186.914 75.1346 186.067 76.2343C186.523 77.6318 189.603 82.4105 193.043 85.4398C189.087 81.9566 183.503 75.1713 183.503 75.1713C188.473 75.243 196.927 76.4199 199.416 76.7812ZM204.334 80.2829C209.468 84.0444 216.634 89.4964 223.189 94.5398C218.154 90.9579 210.174 84.9089 204.334 80.2829ZM187.343 152.533C187.317 152.599 187.306 152.668 187.31 152.734C181.501 153.365 175.819 153.798 174.371 153.004C176.32 153.537 177.59 152.48 177.981 151.885L200.532 113.782C203.555 109.48 206.861 107.369 211.431 106.972L217.495 106.73C212.807 113.564 205.691 124.021 199.545 133.248C196.435 137.917 193.572 142.273 191.397 145.686C190.309 147.392 189.392 148.866 188.701 150.026C188.018 151.174 187.537 152.046 187.343 152.533ZM174.499 78.3742C173.241 77.3373 172.058 76.3627 170.99 75.4839C172.121 76.4091 173.295 77.3766 174.499 78.3742ZM210.388 145.772L215.515 137.228L211.873 141.683L210.388 145.772ZM193.745 94.9342L166.131 72.5685L166.208 73.0057L166.15 74.5252L167.192 75.6132L167.599 76.549L168.676 76.8324L180.573 85.6475L185.302 89.177L187.184 90.9978L193.745 94.9342ZM148.43 125.673C145.093 124.409 140.527 120.689 140.72 118.522C140.885 116.674 147.538 105.579 152.699 96.9725C154.023 94.7648 155.249 92.7208 156.242 91.0385C156.242 91.0385 141.983 115.926 142.027 118.822C142.071 121.718 146.38 124.742 148.43 125.673ZM167.466 145.533C164.468 143.153 155.567 134.624 151.492 130.657C151.492 130.657 156.521 134.171 159.426 136.801C162.862 139.912 167.466 145.533 167.466 145.533Z" fill="#BFEDC3"/>
<path fill-rule="evenodd" clip-rule="evenodd" d="M68.2231 24.9112C68.7207 25.1642 69.0627 25.3555 69.2113 25.4693L78.4535 38.3135C78.5544 38.3533 78.6812 38.3998 78.8066 38.4458C78.9283 38.4904 79.0485 38.5345 79.1424 38.5715L78.9214 38.2639L78.9214 38.2639C77.8176 36.7276 76.3637 34.704 74.9104 32.7173L74.6837 32.4077L79.624 38.9206C79.8855 39.2991 79.892 39.9347 79.3573 40.8608L67.3357 61.6828C66.7285 62.6941 64.6929 64.3126 61.4081 62.6955C59.4461 61.7296 58.5256 61.1418 57.941 60.7684C57.3021 60.3604 57.0643 60.2086 56.3067 60.0994C54.8559 59.8904 46.5937 57.8092 42.0041 55.7181C40.0509 54.922 40.0046 53.7706 40.2255 53.2944L51.5818 33.6248C52.5949 31.87 54.9102 29.1907 58.415 30.6205C58.4906 30.655 59.0801 30.8713 60.0101 31.2126L60.0101 31.2126C61.3827 31.7164 63.4968 32.4923 65.7948 33.3572C59.0569 30.7298 52.7676 28.1534 51.9333 26.9286C51.6509 26.1175 51.2552 25.1802 50.7798 24.1869C50.0065 21.4938 48.345 16.1239 48.0452 16.0625L47.9838 16.1689L50.2149 23.7794C50.1384 23.7899 50.0681 23.8368 50.031 23.9112C48.147 27.6884 45.2085 33.5249 42.5863 38.6065C41.2751 41.1474 40.0435 43.4985 39.0625 45.3088C38.572 46.2141 38.1448 46.9827 37.8022 47.5717C37.5198 48.057 37.3007 48.4098 37.1531 48.617C36.8278 47.837 36.5097 47.0585 36.2117 46.329C35.6961 45.0669 35.2403 43.9513 34.9103 43.2282C33.677 40.5256 32.9833 38.7632 33.2194 37.9915C33.394 37.4203 38.198 29.2286 41.3694 23.8208L41.3695 23.8206C42.4827 21.9225 43.3946 20.3674 43.8346 19.6053C45.4468 16.813 47.5256 16.0622 48.0452 16.0625L48.048 15.9746C49.7066 16.6792 51.8034 17.5763 54.0299 18.5383C57.627 27.0615 63.0001 28.8915 65.4838 29.7373C65.649 29.7936 65.8015 29.8456 65.9398 29.8948C61.1437 28.1868 56.5529 23.7577 54.4034 19.1199L68.0673 25.0007C68.0673 25.0007 72.051 30.077 71.7705 30.7269C71.0347 30.8696 68.1418 30.679 65.9398 29.8948C68.4718 30.7965 72.8789 31.6068 72.8789 31.6068C71.6169 29.4089 69.0004 25.9318 68.2231 24.9112ZM65.4408 23.5835C62.4943 22.2262 58.2941 20.3826 54.4262 18.7096C57.2685 20.0671 61.935 22.1253 65.4408 23.5835ZM37.4388 49.0412C37.4159 49.0691 37.3882 49.0906 37.3578 49.1055C38.5141 51.8517 39.7278 54.4923 40.44 54.9416C39.7199 54.2046 39.8768 53.3768 40.0452 53.0549L51.4513 33.5713C52.6212 31.1589 52.744 29.1623 51.7899 27.0269L50.3966 24.2623C48.5099 28.0438 45.6088 33.8044 43.0163 38.8284C41.7045 41.3703 40.4712 43.7248 39.488 45.5393C38.9964 46.4465 38.5666 47.22 38.2204 47.815C37.8778 48.4039 37.608 48.8339 37.4388 49.0412ZM75.8368 37.2629C76.298 37.4462 76.7236 37.6183 77.1342 37.7843L73.6798 36.414C74.4535 36.7184 75.1808 37.0046 75.8368 37.2629ZM34.7502 37.0943L37.2906 32.6942L36.2056 35.4202L34.7502 37.0943ZM61.5339 31.9323L78.3391 38.7077L78.1253 38.7819L77.4622 39.1837L76.7193 38.9885L76.2014 39.0387L75.8084 38.6285L68.9341 35.5064L66.19 34.2713L64.9125 33.883L61.5339 31.9323ZM59.0449 59.7422C60.4345 60.9169 63.2229 62.0321 64.141 61.4098C64.9241 60.8789 68.2238 55.1668 70.7836 50.7357C71.4402 49.5991 72.0481 48.5467 72.5523 47.6877C72.5523 47.6877 64.9857 60.2042 63.6838 60.9013C62.3818 61.5984 59.9672 60.426 59.0449 59.7422ZM45.4795 56.1706C47.2828 56.9184 53.288 58.7756 56.0651 59.6107C56.0651 59.6107 53.2541 58.2384 51.3626 57.5941C49.1251 56.832 45.4795 56.1706 45.4795 56.1706Z" fill="#BFEDC3"/>
<path fill-rule="evenodd" clip-rule="evenodd" d="M-0.964495 109.118C-0.780012 108.755 -0.64053 108.506 -0.557537 108.398L8.79333 101.669C8.82234 101.596 8.8562 101.503 8.88967 101.412C8.92215 101.323 8.95427 101.236 8.98122 101.167L8.75727 101.328L8.75721 101.328C7.63874 102.132 6.16551 103.19 4.71915 104.249L4.49377 104.414L9.23538 100.817C9.51093 100.626 9.97366 100.622 10.6478 101.011L25.8068 109.763C26.5431 110.205 27.7214 111.687 26.5441 114.079C25.8409 115.507 25.413 116.177 25.1412 116.603C24.8441 117.068 24.7336 117.241 24.6541 117.792C24.5019 118.849 22.9868 124.864 21.4644 128.205C20.8848 129.627 20.0465 129.661 19.6998 129.5L5.37984 121.232C4.10229 120.495 2.15171 118.809 3.19266 116.258C3.21776 116.203 3.37527 115.773 3.62373 115.096L3.62375 115.096C3.99048 114.097 4.55534 112.558 5.18507 110.885C3.27225 115.79 1.3965 120.369 0.504857 120.976C-0.085671 121.182 -0.76807 121.47 -1.49119 121.816C-3.45182 122.379 -7.36129 123.589 -7.40596 123.807L-7.32853 123.852L-1.78716 122.227C-1.77947 122.283 -1.74533 122.334 -1.69125 122.361C1.0587 123.733 5.30779 125.872 9.00732 127.781C10.8572 128.736 12.5689 129.632 13.8868 130.346C14.5459 130.703 15.1055 131.014 15.5342 131.264C15.8876 131.47 16.1445 131.629 16.2953 131.737C15.7274 131.973 15.1606 132.205 14.6293 132.422L14.6289 132.422C13.71 132.798 12.8978 133.129 12.3714 133.37C10.4038 134.268 9.12076 134.773 8.55894 134.601C8.14309 134.474 2.1791 130.976 -1.75787 128.667C-3.13974 127.857 -4.27189 127.193 -4.82674 126.872C-6.85957 125.699 -7.40621 124.185 -7.40596 123.807L-7.46999 123.805C-6.95709 122.598 -6.30403 121.071 -5.60378 119.451C0.602294 116.832 1.93465 112.92 2.5505 111.111C2.59148 110.991 2.62929 110.88 2.66515 110.779C1.42166 114.271 -1.80285 117.613 -5.17931 119.178L-0.897883 109.231C-0.897883 109.231 2.79777 106.33 3.27091 106.535C3.37481 107.07 3.23606 109.176 2.66515 110.779C3.32161 108.936 3.91154 105.728 3.91154 105.728C2.31032 106.647 -0.223329 108.554 -0.964495 109.118ZM-1.92159 111.123C-2.91283 113.274 -4.26332 116.351 -5.48715 119.181C-4.49646 117.108 -2.98694 113.686 -1.92159 111.123ZM16.6041 131.528C16.6244 131.545 16.6401 131.565 16.6509 131.588C18.65 130.746 20.572 129.862 20.8991 129.344C20.3626 129.868 19.7598 129.754 19.5255 129.631L5.34088 121.327C3.58465 120.476 2.13104 120.386 0.576399 121.081L-1.43559 122.095C1.31745 123.468 5.51127 125.58 9.16887 127.468C11.0195 128.423 12.7336 129.321 14.0546 130.037C14.715 130.394 15.2782 130.707 15.7114 130.959C16.1401 131.209 16.4532 131.405 16.6041 131.528ZM7.41046 105.144L8.02852 103.574C7.8282 104.078 7.62166 104.604 7.41046 105.144ZM7.90576 133.486L4.70235 131.637L6.687 132.427L7.90576 133.486ZM4.14769 113.987L9.08032 101.752L9.13436 101.908L9.42687 102.391L9.28475 102.932L9.32131 103.309L9.02267 103.595L6.74973 108.599L5.85054 110.597L5.56783 111.527L4.14769 113.987ZM24.394 115.799C25.2493 114.787 26.0612 112.757 25.6081 112.089C25.2216 111.519 21.063 109.116 17.837 107.253C17.0096 106.775 16.2434 106.332 15.6181 105.965C15.6181 105.965 24.7304 111.474 25.2379 112.422C25.7454 113.37 24.8918 115.128 24.394 115.799ZM21.7938 125.675C22.3382 124.362 23.6903 119.99 24.2983 117.968C24.2983 117.968 23.2993 120.015 22.8302 121.392C22.2753 123.021 21.7938 125.675 21.7938 125.675Z" fill="#BFEDC3"/>
<path d="M118.114 89.5548L112.089 79.12L110.144 77.5242L109.238 82.2695L106.602 87.5653L103.405 91.7779L101.559 95.3386L100.583 101.403L99.6878 107.166L94.9195 114.972L85.5558 123.129L75.4329 128.973L65.8227 128.061L57.1641 124.808L63.8395 136.37L71.638 139.352L79.2193 138.301L94.6502 127.026L104.861 113.134L109.936 101.76L115.335 95.7651L117.845 92.5244L118.114 89.5548Z" fill="#E7F9E3"/>
<path fill-rule="evenodd" clip-rule="evenodd" d="M110.92 77.2049C110.92 77.2049 112.029 78.9275 112.596 80.1074C114.406 83.8787 114.694 87.5638 114.494 90.1259C115.597 88.0046 114.891 84.6563 114.271 83.0099L115.546 85.2168C117.484 88.5752 116.826 91.9405 116.4 93.4552C117.805 91.9561 117.708 89.4056 117.235 88.1434L117.928 89.3428C119.34 91.7895 117.386 95.2014 114.818 98.4512C112.522 101.356 109.738 104.563 109.847 108.435C110.071 116.396 101.062 130.104 89.7883 136.613C75.6957 144.75 65.4011 139.019 63.8915 136.405C63.7592 136.175 63.54 135.792 63.2529 135.287C67.107 137.874 71.5768 138.381 75.8254 137.575C72.8433 137.446 67.034 137.693 62.5908 134.123L60.9031 131.149C63.2455 133.291 67.7789 134.311 72.0932 133.492C69.1187 133.364 62.5817 132.363 59.988 129.537C59.5259 128.723 59.0489 127.883 58.5712 127.043C60.8036 129.616 66.9951 131.254 70.5641 130.345C68.0273 130.236 61.4614 129.204 57.7613 125.619C56.521 123.44 55.3307 121.355 54.4452 119.821C52.251 115.32 54.168 100.16 82.3244 84.2361C84.3944 84.4433 87.6318 82.3504 87.8655 81.5918C87.1463 82.119 85.641 82.7801 84.8326 82.5433C91.8426 77.8697 107.014 70.4404 110.92 77.2049ZM103.428 92.9804C102.655 94.1174 101.33 97.1167 101.586 100.727C101.622 98.4866 102.751 94.8251 103.428 92.9804ZM110.836 79.94C111.041 82.2524 109.846 88.0979 103.428 92.9804C108.575 87.7573 110.511 82.1105 110.836 79.94ZM101.733 101.955C102.615 107.139 96.4726 119.001 83.5284 125.771C100.194 117.901 102.609 106.614 101.733 101.955Z" fill="#BFEDC3"/>
<path d="M98.6595 104.245C99.8144 99.1943 99.5651 94.9751 104.336 88.6815C116.426 72.7353 99.291 76.0484 87.4042 84.7506C77.5083 90.582 57.3965 102.267 57.6002 117.808C63.1095 138.741 94.9475 120.481 98.6595 104.245Z" fill="#E7F9E3"/>
<path d="M74.8616 121.723C75.8808 119.979 75.2204 118.757 72.6526 118.257C69.73 117.687 63.3383 121.265 63.88 122.978C64.557 125.119 72.9147 125.054 74.8616 121.723Z" fill="#BFEDC3"/>
<path d="M86.1727 88.326C87.6054 87.7802 86.081 91.6572 83.4546 93.0792C79.9879 94.956 80.4437 90.5083 86.1727 88.326Z" fill="#BFEDC3"/>
<path d="M93.757 86.8097C88.9634 86.2349 88.1033 84.4127 89.2791 83.43C87.7046 82.8358 83.8038 85.2478 82.8322 86.9442C81.8606 88.6405 85.7834 87.3193 86.6961 87.4321C87.4262 87.5223 88.9962 87.8152 89.6143 89.5228C89.4691 87.5262 88.266 86.5449 87.0095 86.4515C85.4389 86.3348 86.504 85.5759 86.7891 85.5712C87.4816 85.5597 87.6589 85.6928 89.0234 86.2003C90.1843 86.6321 93.1759 87.0866 93.757 86.8097Z" fill="#BFEDC3"/>
<path d="M80.7784 93.6632C83.293 99.7915 89.8955 92.2534 87.3886 88.6315C87.2107 91.1488 83.6214 96.0669 80.7784 93.6632Z" fill="#BFEDC3"/>
<path d="M83.6264 88.5967C83.427 88.5838 75.9213 91.9258 71.0366 95.2097C72.69 93.2156 77.2884 88.9168 83.6264 88.5967Z" fill="#BFEDC3"/>
<path fill-rule="evenodd" clip-rule="evenodd" d="M80.6214 96.2166C81.6288 95.6349 83.3418 97.2166 81.2131 98.3217C78.7332 99.6091 77.9322 100.39 76.2512 102.49C74.3349 104.884 74.8155 107.101 74.8155 107.101C74.8155 107.101 65.05 113.668 61.922 110.889C60.6086 109.722 64.3504 108.977 66.5335 108.066C68.4853 107.251 70.9416 106.484 73.0098 104.721C76.7285 101.551 78.5377 98.9228 78.5377 98.9228C78.5377 98.9228 76.6782 100.2 75.3191 100.605C78.5495 98.5002 79.6139 96.7982 80.6214 96.2166Z" fill="#BFEDC3"/>
<path d="M75.159 113.374C69.7525 117.028 70.6414 117.571 78.0324 116.246C79.5107 115.981 77.6365 123.006 83.8772 118.725C92.9951 112.469 94.9776 107.87 93.8604 103.11C93.5904 101.959 92.5096 100.292 91.2848 101.031C90.784 104.392 86.121 113.349 75.159 113.374Z" fill="#BFEDC3"/>
<path d="M63.4512 104.978C65.5745 102.25 71.9082 95.3622 76.5379 92.6892C83.0506 88.9291 80.6369 92.7534 77.4935 94.3444C71.5333 97.361 73.0836 98.5765 70.9614 99.9547C72.721 99.3096 75.7429 97.0182 77.6472 95.2985C78.7914 94.2653 81.2898 93.7905 79.4766 96.0619C76.7588 99.4664 72.874 101.142 69.0783 103.313C70.8168 103.333 72.2549 102.998 75.8546 101.256C72.0924 104.323 67.5808 106.826 64.3793 107.001C63.693 107.039 62.5698 106.111 63.4512 104.978Z" fill="#BFEDC3"/>
<path fill-rule="evenodd" clip-rule="evenodd" d="M90.4455 83.8439C91.7368 82.2029 103.734 77.6108 105.951 79.4012C106.778 80.0691 106.882 81.4366 105.973 82.498C101.686 81.0641 97.0854 82.3711 95.3213 83.2038C94.0454 83.6899 92.273 84.3945 95.3906 83.3237C98.5081 82.253 103.139 82.8214 105.065 83.2394C103.52 84.1316 102.487 84.1428 101.358 84.1549C100.804 84.1609 100.227 84.1671 99.5554 84.2775C98.6653 84.4236 97.9051 84.8577 97.1588 85.2838C96.1924 85.8355 95.2492 86.374 94.0774 86.2568C92.4159 86.0908 90.0262 84.086 90.4455 83.8439Z" fill="#BFEDC3"/>
<path d="M84.5836 99.894C82.2027 99.5094 78.4439 102.943 78.035 106.777C78.964 105.944 80.6916 103.484 82.4641 102.626C84.0853 101.69 84.9941 99.9603 84.5836 99.894Z" fill="#BFEDC3"/>
<path d="M88.8829 98.6431C91.221 102.139 87.4807 108.712 79.4728 110.265C78.2701 110.498 77.4158 110.328 77.074 110.099C77.1827 107.877 79.6548 106.131 80.415 105.803C82.4896 104.909 83.6511 104.206 84.4412 101.863C85.5792 99.7349 87.6796 99.9936 88.8829 98.6431Z" fill="#BFEDC3"/>
<path d="M77.805 118.04C78.423 118.307 78.401 120.319 79.5861 121.042C78.6266 121.596 77.2595 121.212 76.4664 120.237C75.4749 119.018 74.9407 118.647 72.6526 118.257C72.9241 118.025 75.5877 117.083 77.805 118.04Z" fill="#BFEDC3"/>
<path d="M97.8556 89.8646C96.5305 92.8045 101.078 96.8315 96.9789 101.309C95.9382 103.301 93.7406 102.043 94.8759 100.077C95.5255 98.9514 94.5602 98.2279 95.4519 96.3378C96.3437 94.4476 96.2236 92.5811 96.3538 91.3074C96.45 90.3663 97.0034 89.8289 97.8556 89.8646Z" fill="#BFEDC3"/>
<path fill-rule="evenodd" clip-rule="evenodd" d="M99.2708 85.6951C100.733 85.0649 101.943 84.5433 103.299 85.4427C104.761 86.4131 103.908 88.148 102.106 89.5536C101.099 90.3389 99.8214 92.3278 99.7133 94.6611C98.5767 93.559 98.2413 92.3691 98.2597 91.1185C98.2737 90.1625 98.666 89.8833 97.8849 89.112C96.5929 87.8363 97.2048 86.4662 97.2048 86.4662C97.2048 86.4662 95.5159 89.8561 95.626 92.2073C95.736 94.5586 94.6812 98.382 92.5398 99.7142C90.3984 101.047 89.5879 97.9964 88.6291 95.6552C90.1368 96.6878 90.5244 91.0484 90.7808 89.1904C92.8802 87.698 95.6907 86.88 97.2048 86.4662C97.9616 86.2593 98.6396 85.9671 99.2708 85.6951ZM90.4146 89.4635C89.6554 90.425 89.561 96.1337 88.8854 94.9635C87.2846 92.6894 88.235 90.3192 90.4146 89.4635Z" fill="#BFEDC3"/>
<path d="M83.7421 97.3664C88.2252 94.7781 90.2748 97.9516 86.5719 98.906C78.7002 100.054 76.7897 104.157 76.4962 109.569C73.2586 113.333 64.9812 120.531 57.7718 119.212C56.8554 118.806 55.5922 117.01 57.8705 113.068C60.7753 114.232 68.4778 114.763 76.0502 107.567C75.0933 101.042 80.2646 99.493 83.7421 97.3664Z" fill="#BFEDC3"/>
<path fill-rule="evenodd" clip-rule="evenodd" d="M128.898 28.0619L129.688 26.4821C127.625 25.2314 123.671 21.6373 124.356 17.2664C125.212 11.8029 131.202 10.0914 133.835 10.6838C136.468 11.2763 141.405 13.1852 140.286 19.0437C139.167 24.9023 132.518 28.0619 128.898 28.0619ZM132.321 13.3827C133.045 16.0377 133.861 22.0849 131.333 25.0339C133.374 23.103 136.428 18.0695 132.321 13.3827Z" fill="#BFEDC3"/>
<path fill-rule="evenodd" clip-rule="evenodd" d="M165.695 21.611C171.224 25.6922 189.063 32.4064 192.815 27.2062C194.658 23.7832 187.483 13.8435 165.695 21.611ZM178.465 21.611C181.954 22.4667 189.353 24.481 191.038 25.6922C189.611 24.1562 185.1 21.1897 178.465 21.611Z" fill="#BFEDC3"/>
<path fill-rule="evenodd" clip-rule="evenodd" d="M104.625 22C113.358 25.9935 135.165 33.5386 148.646 29.6417C162.127 25.7448 167.165 18.1002 167.999 14.765C163.391 10.3547 155.992 1.20487 163.259 -0.111655C170.526 -1.42818 170.676 6.97562 169.842 11.3421C174.845 5.81269 185.495 -3.42929 188.076 3.83791C190.656 11.1051 176.468 14.1507 169.052 14.765C166.852 19.8982 161.447 26.3928 152.231 29.9832C161.436 29.1892 179.189 30.7081 176.556 43.1361C175.086 48.0292 168.236 55.3534 152.595 45.5058C150.549 44.3953 146.242 40.1244 145.379 31.9254C135.197 33.8343 121.614 32.4103 104.147 24.244C103.562 22.75 104.625 22 104.625 22ZM173.456 10.2679C176.638 8.14821 183.35 3.67799 185.772 4.23286C188.172 4.78289 178.338 8.77913 172.343 11.0032C172.629 10.8186 173.008 10.5664 173.456 10.2679ZM154.175 31.9254C158.494 33.1987 167.806 36.9207 170.5 41.6221C169.14 38.3899 163.97 31.9254 154.175 31.9254Z" fill="#BFEDC3"/>
<path fill-rule="evenodd" clip-rule="evenodd" d="M129.907 51.8022C140.527 57.7046 155.182 66.646 138.989 81.3252C138.261 80.7026 137.206 80.1073 136.013 79.4345C128.875 76.0625 122.12 71.5972 129.313 54.9948C121.719 44.5312 115.062 36.9062 102.25 36.9062C101.031 36.9062 101.25 35.5 102.25 35.5C114.875 35.5 121.65 43.8682 123.752 45.8866C125.988 40.4399 133.685 34.6193 138.068 39.5256C142.426 44.4047 130.2 47.9659 123.931 46.0587C124.529 46.6337 125.133 47.2198 125.748 47.8164C127.07 49.0985 128.442 50.4291 129.907 51.8022ZM131 58.375C130.771 61.4375 131.3 68.6375 135.25 72.9375C134.913 72.5499 132.276 63.0677 131 58.375Z" fill="#BFEDC3"/>
</g>
<defs>
<clipPath id="clip0_2001_21339">
<rect width="240" height="168" fill="white"/>
</clipPath>
</defs>
</svg>
