<svg xmlns="http://www.w3.org/2000/svg" xmlns:xlink="http://www.w3.org/1999/xlink" width="326" height="127" fill="none" xmlns:v="https://vecta.io/nano"><style><![CDATA[.B{fill-rule:evenodd}]]></style><path d="M84 59.75c62.5-6 98.25-39.75 98.25-39.75s45.178.471 60.75 20c-10.75 45.25-94.75 68-94.75 68S91.131 94.813 84 59.75z" fill="url(#A)"/><use xlink:href="#G" fill="#0c0c0c"/><path d="M131.188 60.5V46.906l1-2.656 3.562 4.125 5.562 3.688 5.5 2.313 3.813 2.438L155 62.188l4.125 5.125 9.063 4.938 13.75 2.688h13.187L204 68.625l6.625-8.062v15.063l-5.937 7.313-8 3.25-21.438-2.312-17.812-7.812-11.376-8.25L137.406 65l-4.281-1.75-1.937-2.75z" fill="#fffff5"/><path d="M131.25 44.375v3.781a22.42 22.42 0 0 0 3.797 10.859c-2.275-1.45-3.474-5.12-3.797-7.078v2.875c0 4.375 2.542 7.292 3.812 8.531-2.218-.672-3.562-3.219-3.812-4.719v1.563c0 3.187 3.834 5.419 8.177 7.145 3.881 1.543 8.41 3.106 10.488 6.95 4.272 7.905 20.807 16.217 35.494 16.217 18.359 0 25.185-11.406 25.185-14.812l-.007-1.452c-2.306 4.702-6.387 7.718-10.993 9.327 2.841-1.808 8.656-4.844 10.983-10.838l-.028-3.857c-1.08 3.414-4.934 6.968-9.612 8.602 2.834-1.803 8.657-6.469 9.597-10.693l-.023-3.236c-.73 3.773-5.855 8.867-9.855 9.992 2.417-1.538 8.25-6.25 9.843-11.84l-.03-7.535c-.396-5.636-10.821-19.367-47.313-19.042-1.906 1.37-6.25 1.151-6.906.542 1 .109 2.844-.094 3.5-.781-9.485-.612-28.5.688-28.5 9.5zm16.219 11.187c1.396.675 4.383 2.858 6.17 6.53-1.299-2.169-4.468-5.11-6.17-6.53zM132.875 47c1.104 2.375 5.569 7.413 14.594 8.563-7.975-2.2-13.052-6.625-14.594-8.562zm21.312 16.375c2.063 5.563 14.756 13.688 31.222 13-20.723 1.712-29.449-7.954-31.222-13z" fill="#e11f1f" class="B"/><path d="M158.483 63.879c-3.978-4.284-6.115-8.547-14.327-12.004-20.807-8.761-2.196-15.189 14.327-13.392 12.958.115 39.2.187 47.767 15.486 6.426 23.561-34.982 23.68-47.767 9.911z" fill="#fffff5"/><g fill="#e11f1f"><path d="M191.594 67.531c-1.98-1.129-2.024-2.695.203-4.633 2.534-2.205 10.797-2.315 11.234-.336.547 2.474-7.656 7.125-11.437 4.969zm-29.891-26.25c-1.708.275 1.969 3.203 5.337 3.111 4.446-.122 1.492-4.21-5.337-3.111zm-8.266 2.797c4.36-3.266 4.172-5.531 2.469-5.828 1.203-1.469 6.375-1.312 8.281-.203s-2.671 2.031-3.5 2.656c-.662.5-2.031 1.672-1.671 3.689-.985-2.033-.363-3.67.812-4.47 1.469-1 0-1.141-.281-.984-.683.379-.781.609-1.828 1.875-.891 1.077-3.558 3.208-4.282 3.266zm16.547-.625c1 7.406-9.703 3.766-9.297-1.187 1.594 2.359 7.876 5.14 9.297 1.188zm-5.64-3.343c.187-.125 9.406-1.094 16.031-.641-2.74-1.016-9.658-2.622-16.031.641z"/><path d="M171.578 45.859c-1.312 0-2.094 2.512.61 2.391 3.149-.141 4.372.17 7.199 1.273 3.222 1.258 4.004 3.695 4.004 3.695s13.246.908 14.734-3.572c.625-1.881-3.451-.498-6.098-.157-2.367.305-5.199.941-8.215.385-5.421-1-8.671-2.547-8.671-2.547s2.537.199 4.093-.172c-4.343-.234-6.343-1.297-7.656-1.297z" class="B"/><path d="M186.594 59.542c7.344.52 6.781 1.552-1.188 4.427-1.594.575 4.201 6.382-4.312 5.719-12.438-.969-16.969-4.344-18.563-9.625-.385-1.276-.27-3.515 1.344-3.484 2.385 3.002 11.994 9.123 22.719 2.964zm6.703-14.807c-3.614-1.468-13.688-4.625-19.719-4.625-8.484 0-3.969 2.375 0 2.156 7.525-.415 6.696 1.647 9.547 1.797-2.083.362-6.328-.172-9.159-.778-1.701-.364-4.41.581-1.357 1.778 4.576 1.793 9.317 1.239 14.25 1.219-1.687 1-3.281 1.484-7.781 1.813 5.406.875 11.226.776 14.453-.859.692-.35 1.266-1.891-.234-2.5z"/><path d="M155 39.313c-2.187-.875-16.5 1.406-17.656 4.406-.431 1.119.238 2.514 1.725 3.038 3.381-3.82 8.613-5.138 10.806-5.319 1.521-.245 3.65-.556 0 .156s-7.854 3.88-9.5 5.375c2.013 0 3.028-.572 4.139-1.197.544-.306 1.111-.626 1.83-.897.952-.359 1.939-.364 2.909-.369 1.256-.006 2.481-.012 3.56-.787 1.529-1.099 2.733-4.406 2.187-4.406z" class="B"/><path d="M169.781 51.688c2.11-1.719 7.719-.484 10.281 3.031-1.377-.29-4.453-1.719-6.669-1.558-2.112 0-3.975-1.177-3.612-1.474zm-4.906 1.203c-.313 4.734 7.05 9.047 15.75 6.047 1.307-.451 2.045-1.099 2.25-1.516-1.359-2.109-4.76-2.421-5.687-2.312-2.532.297-4.063.266-6.157-1.578-2.312-1.437-4.219 0-6.156-.641zm21.766 12.703c-.453.609.703 2.563-.047 3.938 1.25 0 2.369-1.147 2.594-2.547.281-1.75.593-2.414 2.609-4.086-.396-.073-3.53.509-5.156 2.695zm-35.485-16.219c2.953 2.125.782 8.625 7.313 10.688 2.14 1.359 3.578-1.109 1.359-2.391-1.269-.733-.734-1.984-2.672-3.328s-2.873-3.235-3.719-4.406c-.624-.865-1.468-1.078-2.281-.562z"/><path d="M147.422 46.1c-1.784.209-3.261.382-4.078 2.026-.882 1.773.93 2.987 3.484 3.344 1.427.199 3.797 1.422 5.219 3.641.489-1.718.145-3.07-.578-4.281-.553-.926-1.094-.978-.766-2.172.543-1.975-.828-2.969-.828-2.969s3.562 2.359 4.781 4.719 4.406 5.5 7.25 5.594 1.915-3.343 1.532-6.172c-.891 1.859-4.451-3.432-5.75-5.103-2.893-.274-6.1.512-7.813.962-.856.225-1.683.322-2.453.412zm10.778-1.314c1.284.511 4.597 6.036 4.597 4.511.281-3.125-1.985-4.905-4.597-4.511z" class="B"/><path d="M169.178 48.743c-5.841 0-6.053 4.257-1.897 3.101 8.339-3.319 12.52-.387 15.86 4.734 5.286 1.851 17.434 4.215 23.734-1.141.667-.913.887-3.381-3.563-5.948-2.18 2.777-9.407 7.641-20.865 4.881-2.745-6.915-8.672-5.512-13.269-5.628z"/></g><path d="M119.562 63.438c-1.75-2.7-4.781-13.719-5.093-16.656 11.625 5.25 44.406 25.906 65.469 38.094.312 6.375 3.468 10.125-.969 11.656-8.469.469-39.719-18.719-59.407-33.094z" fill="url(#B)"/><path d="M230.625 56.563c-8.063 10.188-38.563 25.563-50.719 28.25.375 4.75-.437 10.073-1.062 11.781 15.218-1.344 42.823-20.906 45.594-25.656 2-2.45 5.062-10.458 6.187-14.375z" fill="#282828"/><use xlink:href="#G" stroke="#0c0c0c" stroke-linejoin="round"/><use xlink:href="#G" fill="url(#C)"/><path d="M165.25 30.875L122.375 46.5c1.9 4.6 7.458 5.167 10 4.875l32.875-20.5z" fill="url(#D)"/><path d="M152.875 57.25s11.65-25.875 22.75-23.875 14.958 5.167 15.5 6.5l-38.25 17.375z" fill="url(#D)"/><path d="M204.375 61.125l7.875-11.75c6.625 0 10.125 4.375 9.375 4.5-.6.1-11.75 4.875-17.25 7.25z" fill="url(#D)"/><path d="M169.5 72.625c10.125-12 19.625-22.125 19.625-22.125l10-10.625s3.25 19.75-.625 33.375c-5 6.25-13.75 6.25-13.75 6.25L190 62.75l-10.375 18.125s-7.84-3.69-10.125-8.25z" fill="url(#D)"/><path d="M120.213 56.077a1.69 1.69 0 0 1 2.234-1.861h0a1.69 1.69 0 0 1 1.115 1.495l.321 5.791a1.38 1.38 0 0 1-2.116 1.235h0c-.329-.211-.553-.551-.616-.936l-.938-5.724zm53.357 30.048c.413-.938 0-2.034-.928-2.467h0c-1.077-.502-2.344.104-2.628 1.258l-1.2 4.875a1.45 1.45 0 0 0 .642 1.577h0a1.45 1.45 0 0 0 2.092-.647l2.022-4.596zm-43.668-24.593c.082-1.306 1.497-2.082 2.642-1.448h0a1.78 1.78 0 0 1 .909 1.748l-.482 4.505c-.158 1.481-2.021 2.041-2.97.892h0a1.68 1.68 0 0 1-.381-1.176l.282-4.521zM159.836 79.8a2 2 0 0 1 2.972-1.22h0a2 2 0 0 1 .729 2.659l-1.862 3.467a1.52 1.52 0 0 1-2.286.467h0a1.52 1.52 0 0 1-.523-1.56l.97-3.814zm-19.988-12.285a2.15 2.15 0 0 1 2.997-1.771h0a2.15 2.15 0 0 1 1.225 2.509l-1.043 4.045a1.82 1.82 0 0 1-2.573 1.172h0a1.82 1.82 0 0 1-.997-1.796l.391-4.159zm9.966 6.599c.285-1.391 1.801-2.145 3.082-1.531h0c1.067.511 1.533 1.778 1.052 2.858l-1.454 3.264c-.409.917-1.491 1.321-2.4.895h0c-.752-.352-1.164-1.173-.997-1.986l.717-3.5z" fill="#282828"/><ellipse cx="172.688" cy="45.561" rx="14.063" ry="6.186" fill="url(#E)"/><g fill="#2a6458"><path d="M178.168 46.668l-11.167 1.094c.075-.051.353-.14.575-.204-.077-.128-.074-.254-.061-.305.023.1.121.212.182.271l-.09-.251.185.225a.97.97 0 0 0-.298-.432 1 1 0 0 1 .473.405l.098-.007c-.044-.086-.197-.312-.721-.733.211.11.673.408.837.717l.095-.013c-.091-.135-.088-.271-.074-.326a1.02 1.02 0 0 0 .164.314l.977-.095c.028-.079.208-.268.633-.29a.53.53 0 0 0-.36.269l.248-.018c.043-.086.098-.172.189-.223-.002.109-.057.168-.068.213l.191-.017c-.02-.091-.001-.226-.001-.226l.112.215.036-.004c-.046-.116-.18-.411-.466-.793.342.365.458.506.597.778l-.039-.275.121.265.127-.015c-.06-.116-.181-.294-.257-.366.134.06.271.237.362.353-.092-.145-.174-.383-.218-.481.063.101.179.326.293.472l.037-.005c-.089-.176-.119-.374-.134-.444.068.155.152.324.218.434l.055-.007-.062-.096.126.087.521-.065c-.087-.185-.12-.517-.13-.558a2.63 2.63 0 0 0 .215.495c.05-.144-.037-.286-.085-.355a1.24 1.24 0 0 1 .252.388l.08-.009a2.65 2.65 0 0 0-.313-.547 1.14 1.14 0 0 1 .388.538l.052-.006c-.092-.15-.149-.339-.179-.412l.273.402.029-.003a2.56 2.56 0 0 1-.268-.679c.043.202.286.485.369.669l.038-.004c-.131-.173-.202-.409-.234-.503l.314.38c-.078-.167.044-.152-.282-.63.31.273.328.518.438.679 0-.059.001-.108-.009-.124.03.05.064.118.088.171l.044-.003c-.079-.149-.153-.322-.179-.396a2.17 2.17 0 0 0 .25.392l.022-.001.078-.005c-.09-.194-.314-.526-.424-.674.147.122.384.47.51.668l.095-.007-.261-.382c.074.074.215.239.299.379l.703-.075c-.097-.165-.175-.518-.191-.663.069.23.228.508.316.645l.113-.017c-.127-.175-.163-.455-.182-.537a1.35 1.35 0 0 0 .25.526l.044-.007c-.055-.112-.119-.216-.138-.242a1.98 1.98 0 0 1 .206.231l.051-.009c-.06-.1-.134-.254-.165-.323l.187.319.061-.011-.117-.229.16.221c-.074-.2-.209-.478-.277-.617.107.104.282.398.392.595l.089-.018a2.07 2.07 0 0 0-.188-.371c.105.122.206.269.262.355l.05-.011a2.44 2.44 0 0 1-.17-.315c.031.061.163.2.251.296l.062-.015a5.04 5.04 0 0 0-.417-.54c.221.153.394.404.463.528l.068-.018-.105-.256.135.247a1.92 1.92 0 0 0-.155-.512c.145.141.234.359.269.487l.032-.005c-.035-.074-.058-.179-.006-.267-.007.031.014.137.08.259l.122-.007c-.024-.151-.109-.436-.282-.68.092.12.302.435.392.68.492.007 1.086.135 1.405.096.092-.155-.127-.543-.222-.669.081.075.25.29.33.488-.007-.094.005-.172.028-.191-.01.096.052.265.088.353l.061-.003c-.013-.055-.043-.191-.086-.288l.156.285.089-.003c-.075-.084-.173-.238-.136-.331.013.044.109.248.17.312.007.007.012.013.017.018l.035-.001c-.029-.097-.14-.325-.174-.396.154.157.252.331.276.394l.115-.001-.105-.193c.067.028.152.142.187.193l.495.008z"/><path d="M174.592 44.689c-.213.317-.731.651-.731.651-.045.053-.088.124-.083.197 0 0-.022-.029-.043-.019s-.001.056-.001.056-.054-.005-.104-.062c.015.07-.027.074-.027.074s-.075-.105-.15-.147c-.049-.027-.103-.05-.103-.05l-.527.108-.114-.231-.111-.082h0 0c-.102-.073-.184-.133-.236-.198l.258.324.113.207h0l.082.11h0c.109.14.22.282.293.462.174.426.671.846.671.846l-.581.057s-.102-.394-.691-.766c-.095-.131-.292-.315-.499-.491-.106-.049-.195-.133-.319-.249l-.249-.227c-.476-.234-1.167-.82-1.25-.972.187.376.7.742 1.186.966.224.182.534.513.556.583a.59.59 0 0 1 .007.094h0 0a.5.5 0 0 1 .001.039.62.62 0 0 0-.197-.139c.058.044.185.153.202.218l.01.107c-.025-.046-.075-.072-.075-.072s.071.09.05.124c-.014.022-.065.036-.065.036a2.35 2.35 0 0 1-.435.051c-.119-.002-.57-.013-.789-.07.218.009.469-.076.457-.27-.051.071-.215.087-.215.087.021.073-.002.159-.294.173l-.372-.095s.026-.082.022-.176c.002-.008.003-.015.004-.023a.46.46 0 0 0-.185-.065c-.056-.009-.112-.018-.196-.07-.095.102-.316-.168-.316-.168s.128.311.502.322c.068.169-.168.191-.215.195h-.004c-.263-.215-.53-.271-.53-.271s.442.217.493.387c.088-.035.307-.122.404-.234-.083.163-.247.272-.426.373 0 0-.023-.081-.073-.1a.55.55 0 0 1 .034.132c.028.123.057.267.024.399.009.012.01.071.01.071s-.05-.06-.05-.032.035.093.035.093-.049-.024-.054-.014l-.012.046-.022.02a.93.93 0 0 1-.286.195s.014-.054-.014-.087c-.005.053-.053.109-.053.109l-.08.22-.302.03c-.004-.027-.012-.057-.025-.087-.039-.023-.096-.049-.122-.048s-.035.012-.049.024-.023.02-.039.026c.018-.023.036-.096.003-.163l-.029-.006c-.183-.029-.247.044-.263.094-.009-.013-.017-.027-.023-.041l-.227-.538c-.028-.066-.07-.131-.123-.193l-.312-.361c.012-.047.062-.112.165-.097.175.025.291-.11.266-.202l-.005-.021c-.024-.084-.046-.164.072-.224.129-.065.074-.155.023-.236-.005-.01-.011-.019-.017-.028-.05.107-.124.084-.185.064-.042-.013-.077-.024-.093.012-.045.103-.294.232-.472.182.006-.019.014-.038.023-.055l-.18-.074c-.115-.044-.211-.284.138-.264 0 0-.123.118-.098.187.01-.045.069-.078.069-.078l.164.012c.081.003.229-.022.229-.047-.038.004-.089.003-.137.003-.024 0-.047 0-.067 0 .073-.109.217-.215.217-.215.028-.016.116-.047.241-.043a.44.44 0 0 0-.237-.049l.017-.353c-.017-.032-.009-.039-.001-.046s.01-.008.009-.018c-.004-.021-.023-.031-.048-.039.01-.018.035-.073.034-.095.035-.024 0-.053-.03-.08l-.007-.006c-.014-.008-.023-.042.023-.034-.002-.033-.008-.042-.024-.063l-.002-.003-.002-.003a2.03 2.03 0 0 1 .028-.236c.004.003.012.003.025.002.055-.005.077-.052.056-.09-.008-.014-.009-.024-.01-.031-.001-.013-.001-.017-.037-.013.101-.47.362-.962.725-1.1-.062.106-.111.334-.01.782.075-.45.226-.541.374-.63l.078-.049c.01-.021-.016-.046-.041-.07s-.05-.048-.031-.063c.221-.176.86-.119 1.171-.081l-.486-.153a2.97 2.97 0 0 1 .807.154l.037.012c-.045-.113.093-.194.233-.173.667.101.95.205.95.205s-.497-.209-.576-.341c-.052-.088.202-.166.421-.216l.1-.02.188-.036-.022.004 1.131-.207.84-.239c.339.01 1.188.311 1.543 1.047l.185.417.038.099.144.386h0c.162.441.349.953.597 1.406l.447.601c-.063-.022-.197-.1-.362-.299a2.62 2.62 0 0 1 .204.341c-.139-.147-.162-.188-.254-.349l-.038-.066c.027.12.114.293.358.535-.115-.07-.523-.436-.515-.822-.122-.221-.193-.395-.315-.695l-.026-.064.013.111.039.388.022.341.045-.262c.007.012.014.043.022.074s.017.07.026.084c.036.055.066.102.08.153l.077 1.05.019.187-.002-.003.063.365-.621.061.008-.509-.339-.95-.025-.03c-.125-.148-.243-.289-.469-.701l-.066-.122s.001.168.061.277a2.03 2.03 0 0 0 .499.576c-.119-.055-.225-.114-.317-.172l-.087-.026-.153-.147v.033l-.097-.12s.031-.109.034-.185zm1.516 1.661l.246.407.51-.05-.151-.26-.082-.065-.047-.157-.077-.022-.042-.182-.367-.632c.057.253.045.84.045.84l.017.065c-.015.021-.042.047-.052.056zm-7.2-3.807l-.006.002zm1.764 3.761a1.24 1.24 0 0 0 .109.198c.286.415.259.756.259.756l.533-.052s-.257-.392-.126-.821a.62.62 0 0 1-.025-.084c-.201.026-.557.03-.75.003zm3.731-4.388s-.422-.125-.984-.063c.115-.018.165-.05.209-.078s.08-.051.166-.052c.278.028.609.193.609.193zm-2.21 1.836c-.012-.147-.059-.256-.133-.392.081.191.134.42.134.42a.86.86 0 0 0-.024-.405l.023.377zm-.04.174c.001-.119-.001-.272-.082-.442.069.257.073.307.077.385h0l.005.057zm.184.393c-.083.125-.089.276-.09.395l.005-.055h0 0c.007-.074.011-.123.085-.34zm-.127.212c.015-.154.109-.333.188-.43-.084.146-.19.445-.19.445-.022-.103-.01-.299.033-.389l-.031.374zm-.083.093c0-.005-.003-.012-.005-.022-.014-.046-.042-.143.004-.25.021.049.013.168.001.272zm-3.573 1.499l-.015.063c-.023.09-.056.126-.093.151.089-.002.176-.034.2-.137.012-.052-.003-.118-.015-.171-.008-.037-.015-.067-.009-.08-.035.029-.05.098-.068.174zm.239.185c-.005.087-.173.065-.215.032.069-.024.128-.086.108-.159 0 0 .112.041.107.127zm1.343-3.225c-.292.055-.406.147-.471.2-.027.022-.046.037-.065.039-.023.048-.058.181-.005.328.012.047.014.095.003.142 0 0 .123-.133.094-.303s.05-.3.444-.405zm-.57.037v-.001c-.141.074-.078.294-.028.395-.142-.226-.118-.405-.088-.467-.049.078-.1.279.088.467-.059-.23.017-.375.028-.394zm2.185 1.781l-.31-.307s-.07-.03-.115-.063c-.081-.058-.271-.231-.271-.231l.212.25a2.42 2.42 0 0 0 .206.208c.09.077.278.144.278.144zm-.841-.173c.072.077.529.241.529.241s-.536-.39-.759-.622c-.003.033.028.099.073.172.025.044.143.144.198.189l-.096-.044.055.065zm.723-.131c-.053-.048-.071-.106-.089-.162-.019-.061-.037-.12-.1-.163.166.084.289.236.302.314l.027.211s-.068-.134-.14-.199zm-.689-.765c.096.232.34.521.449.601-.05-.185-.176-.388-.233-.466l.202.42-.138-.176-.28-.379zm4.324.436c.109-.283.169-.481.076-.988-.002-.045-.097-.071-.086-.01-.035.014-.033.083.023.12a2.26 2.26 0 0 1-.006.851c.019-.091.008-.286-.017-.418-.033-.18-.159-.497-.159-.497l.099.471c.009.041.004.075-.002.112-.013.075-.027.163.072.358zm-1.346-.087c.282-.028.179-.692.179-.692s.01.238-.104.436c-.023.039-.067.055-.109.071-.036.013-.07.026-.088.051l-.382.563s.364-.415.504-.429zm-.534.375l.269-.521c.006-.047-.003-.338-.008-.478l-.051.464-.21.535zm-.015.002l.138-.694-.153.344c-.006.011.007.238.015.35zm-.862 1.606c-.046-.06-.094-.101-.134-.134-.06-.051-.1-.085-.086-.142.129.122.211.062.211.062.086.027.12.102.122.131s-.003.052-.014.067l-.114-.066.079.089c-.02.005-.042.002-.064-.008zm-.202-1.104l.226.232.077.25-.133-.244-.17-.237zm-.702.215c.042.078.188.266.427.391-.012-.006-.067-.059-.135-.125h0 0 0 0l-.292-.266zm-.315.431h0c-.152.016-.166.017-.233.139-.038.069-.175.145-.247.139s-.107-.041-.142-.079c-.028-.031-.059-.064-.118-.089-.101-.044-.428-.219-.428-.219s.338.148.392.082c.039.013.258.062.337.053-.056-.009-.19-.038-.281-.084.24.007.308-.028.352-.051.018-.009.032-.016.051-.018l.026-.002c.118-.01.231-.02.023-.241.044.04.087.064.13.088a.65.65 0 0 1 .278.266l-.14.017h0 0 0 0 0 0 0 0 0 0 0 0 0 0 0 0 0 0 0 0 0 0 0 0 0 0zm-2.954-2.349c-.04.104-.262.672-.215.986-.094-.238-.046-.403-.015-.507.025-.086.038-.13-.054-.138.059-.099.29-.358.29-.358l-.006.016zm1.09 3.189a.74.74 0 0 1-.347.022c-.011-.021.019-.061.085-.042l.003.001c.037.011.113.033.259.019zm-.141-.137c-.035 0-.064.001-.082.012-.025.016-.047.049-.047.049s.115.017.175.004c.072-.015.099-.047.136-.09l.012-.014c-.073.038-.141.039-.194.039zm-.536-1.274s-.038.023-.051.055c-.024.039-.055.167.036.34a.36.36 0 0 1-.118-.177c-.028.04-.064.067-.104.096h0a.69.69 0 0 0-.085.069c.117-.115.187-.302.215-.388.022-.068.148-.093.217-.006.132.167.28.449.112.505-.038.013-.128-.003-.171-.066.139.008.119-.145.119-.145l-.125.025c.043-.017.059-.172.059-.172s-.043.002-.096.045a.22.22 0 0 0-.002-.161c-.003-.007-.005-.014-.006-.02zm.147.604c-.029.013-.089.015-.149-.019s-.078-.069-.084-.093c0 0 .034.031.059.048.061.04.174.064.174.064zm.992-.84c.037.093.14.168.264.256l.119.087c.136.104.185.205.185.205-.034-.144-.096-.277-.141-.374h0l-.051-.12c-.036.057.053.224.125.361l.067.133c-.051-.114-.329-.385-.568-.549zm1.993-1.422c.036.163.095.276.209.383-.003-.247-.184-.507-.286-.61 0 0 .049.098.077.227zm.073.504a.49.49 0 0 0-.115-.106c-.054-.038-.1-.072-.131-.17-.091-.288-.301-.513-.301-.513a2.36 2.36 0 0 1 .547.789zm-1.989 1.126c.204.128.328.249.402.382-.21-.07-.639-.408-.758-.787 0 0 .195.304.356.405zm-.841-.901h0l-.006-.249-.05.222s-.02.038-.035.085c-.041.129.007.569.007.569l.08-.188c.018-.069.011-.263.004-.44zm-.193.367l.001.011.001.009c.007.08.019.202.006.299l-.085-.3-.013-.037c-.041-.113-.068-.19 0-.287.022-.031.044-.071.065-.108h0a.64.64 0 0 1 .071-.11c-.073.222-.064.316-.046.523zm.345-.848l-.036.769c-.011-.219-.019-.68.036-.769zm5.991 1.396c-.003-.208-.087-.378-.192-.592-.093-.19-.204-.415-.289-.732.026.584.27.98.447 1.268l.034.056zm-.806-2.293c.11.127.2.231.246.412-.001-.111-.063-.305-.279-.512s-.215-.296-.215-.296-.031.051.131.257l.117.139zm-.034-.3c-.109-.115-.136-.29-.136-.29s.107.216.212.24.17.063.227.15c.103.158.111.279.121.418l.006.081c-.109-.261-.233-.392-.419-.588l-.011-.011zm.455.089c-.063-.15-.185-.445-.332-.549.015.046.264.468.362.619.001-.143-.093-.363-.158-.443l.003.008.155.435c-.008-.016-.018-.04-.03-.071zm.221.408c-.002-.04-.04-.16-.084-.268s0-.209 0-.209c.013.02.037.078.06.135h0l.026.066c.024.056.011.16.003.23h0l-.005.047z" class="B"/></g><path d="M183.3 45.063c0 .568-.261 1.125-.764 1.648s-1.244 1.006-2.173 1.415c-1.857.817-4.437 1.328-7.298 1.328s-5.44-.51-7.297-1.328c-.929-.409-1.669-.89-2.173-1.415s-.764-1.08-.764-1.648.261-1.125.764-1.648 1.244-1.006 2.173-1.415c1.857-.817 4.437-1.328 7.297-1.328s5.441.51 7.298 1.328c.929.409 1.669.89 2.173 1.415s.764 1.08.764 1.648z" stroke="#2a6458" stroke-width=".4"/><path d="M161.406 49.125c-2.344-5 .656-7.229 2.531-8.312-.937.104-3.319.819-4.969 3.219s.771 4.365 2.438 5.094z" fill="url(#F)"/><path d="M181.875 41.063c-3.325-1.925-8.636-1.844-10.875-1.562-5.675.375-6.865 7.49-6.75 11 7.26-2.344 20.95-7.513 17.625-9.437z" fill="url(#F)"/><defs><linearGradient id="A" x1="158.75" y1="18.25" x2="163.5" y2="108" xlink:href="#H"><stop stop-color="#f8f7eb"/><stop offset="1" stop-color="#e7f9e3"/></linearGradient><linearGradient id="B" x1="117.75" y1="55.25" x2="176.25" y2="94.75" xlink:href="#H"><stop stop-color="#535353"/><stop offset="1" stop-color="#3c3c3c"/></linearGradient><linearGradient id="C" x1="172.345" y1="24.75" x2="172.345" y2="84.982" xlink:href="#H"><stop stop-color="#fffff5"/><stop offset="1" stop-color="#fffff5" stop-opacity="0"/></linearGradient><linearGradient id="D" x1="180.75" y1="35.375" x2="172.05" y2="80.875" xlink:href="#H"><stop stop-color="#fffff5"/><stop offset="1" stop-color="#fffff5" stop-opacity="0"/></linearGradient><linearGradient id="E" x1="174" y1="41.438" x2="159.094" y2="45.938" xlink:href="#H"><stop stop-color="#e7f9e3"/><stop offset="1" stop-color="#a9c8a2"/></linearGradient><linearGradient id="F" x1="165.218" y1="41.375" x2="170.402" y2="50.5" xlink:href="#H"><stop stop-color="#fffff5"/><stop offset="1" stop-color="#fffff5" stop-opacity="0"/></linearGradient><path id="G" d="M179.008 84.332c-22.543-12.903-39.082-24.837-63.222-36.516-1.419-.687-1.546-2.666-.197-3.481 14.702-8.867 32.243-16.092 46.385-19.434.431-.102.864-.106 1.295-.007 17.773 4.065 48.866 18.403 65.626 28.841 1.678 1.045 1.822 3.402.291 4.653-16.837 13.764-35.088 22.05-47.796 26.195-.792.258-1.659.162-2.382-.252z"/><linearGradient id="H" gradientUnits="userSpaceOnUse"/></defs></svg>