<svg xmlns="http://www.w3.org/2000/svg" xmlns:xlink="http://www.w3.org/1999/xlink" width="326" height="127" fill="none" xmlns:v="https://vecta.io/nano"><style><![CDATA[.B{fill-rule:evenodd}.C{fill:#a6f4f0}]]></style><g class="C"><path d="M112.609 97.812c1.709 5.792 9.375 17.813 26.375 19.563-9.146-.104-27.225-4.163-26.375-19.563z"/><path d="M94.422 67c-6.35 5.773-7.25 24.25 19.25 28.5 4.458 4.916 17.712 15.162 35.062 16.812-7.487-.159-24.447-3.066-32.589-13.407l-.089-.114c19.857 25.454 50.239 18.243 74.432 12.501 8.937-2.122 17.029-4.042 23.434-4.042 18 0 19.75-19.75 0-19.75-13.051 0-14.158-5.047-15.323-10.359-.844-3.846-1.718-7.831-7.177-10.141-22.616-9.568-80.5-15-97 0zm112.812 25.25h-4.125v-.625c0-1.139.924-2.062 2.063-2.062h0c1.139 0 2.062.923 2.062 2.063v.625zM94.488 75.074c.616 4.381 4.14 12.432 14.184 13.676-4.518-3.032-13.333-9.796-14.184-13.676zm80.144 35.848c2.968-.224 9.181-.87 11.915-1.797 3.5-1.188-.268-3.219-11.915 1.797zm-74.71-46.11c-.833.375-2.437 1.413-2.187 2.563.313 1.438 5.407-3.75 2.188-2.562zm89.437 6.063c1.146.792 3.563 3.588 4.063 8.438-.802-2.135-2.738-6.812-4.063-8.437zm34.063 22.75c.708 2.729-1.05 8.7-13.75 10.75 4-.75 12.35-3.95 13.75-10.75z" class="B"/><path d="M218.547 86.062c3.759.135 15.812 1.437 13 15.313 6.375-7.75-1.75-16.313-13-15.313zM90.547 67c-3.708 2.125-9.875 11.188-.937 18.875-1.875-2.812-4.263-14.175.937-18.875zm125.73-13.381a6.23 6.23 0 0 0 4.402 7.625 6.23 6.23 0 0 0 7.626-4.402c.596-2.226-.093-4.493-1.612-6.015l2.794-10.427-6.014-1.611-2.793 10.427c-2.077.558-3.807 2.178-4.403 4.404z"/></g><path d="M223.473 38.788l-2.793 10.427c-2.077.558-3.807 2.178-4.403 4.404-.89 3.321 1.081 6.735 4.402 7.625a6.23 6.23 0 0 0 7.626-4.402c.596-2.226-.093-4.493-1.612-6.015l2.794-10.427m-6.014-1.611l5.801-21.65c.445-1.661 2.152-2.646 3.813-2.201s2.646 2.152 2.201 3.813l-5.801 21.65m-6.014-1.611l6.014 1.611" stroke="#a6f4f0" stroke-width="2"/><g class="C"><path d="M232.868 49.431a1 1 0 1 0 .518-1.932l-.518 1.932zm-3.608-.967l3.608.967.518-1.932-3.609-.967-.517 1.932zm10.699-25.493a1 1 0 1 0 .517-1.932l-.517 1.932zm-3.608-.967l3.608.967.517-1.932-3.608-.967-.517 1.932z"/><use xlink:href="#B"/><path d="M236.413 36.2a1 1 0 1 0 .518-1.932l-.518 1.932zm-3.608-.967l3.608.967.518-1.932-3.609-.967-.517 1.932z"/><use xlink:href="#B" x="-3.545" y="13.229"/><path d="M123.661 19.494c0 .86-.697 1.557-1.557 1.557s-1.557-.697-1.557-1.557.697-2.088 1.557-2.088 1.557 1.228 1.557 2.088zm24.046 13.438c0 .86-.697 1.557-1.557 1.557s-1.557-.697-1.557-1.557.875-2.119 1.735-2.119 1.379 1.259 1.379 2.119z"/></g><path d="M105.109 74V60.406l1-2.656 3.563 4.125 5.562 3.688 5.5 2.313 3.813 2.438 4.375 5.375 4.125 5.125 9.062 4.938 13.75 2.688h13.188l8.875-6.312 6.625-8.062v15.063l-5.938 7.313-8 3.25-21.437-2.312-17.813-7.812-11.375-8.25-8.656-2.812-4.281-1.75-1.938-2.75z" fill="#fffff5"/><path d="M105.172 57.875v3.781a22.42 22.42 0 0 0 3.797 10.859c-2.275-1.45-3.474-5.12-3.797-7.078v2.875c0 4.375 2.542 7.292 3.812 8.531-2.218-.672-3.562-3.219-3.812-4.719v1.563c0 3.187 3.834 5.419 8.176 7.145 3.882 1.543 8.411 3.106 10.489 6.95C128.109 95.687 144.644 104 159.331 104c18.359 0 25.185-11.407 25.185-14.813l-.007-1.452c-2.306 4.702-6.387 7.718-10.993 9.327 2.841-1.808 8.656-4.844 10.983-10.838l-.028-3.857c-1.08 3.414-4.935 6.968-9.612 8.602 2.834-1.803 8.657-6.469 9.597-10.693l-.023-3.236c-.73 3.773-5.855 8.867-9.855 9.992 2.417-1.538 8.25-6.25 9.843-11.84l-.03-7.535c-.396-5.636-10.821-19.367-47.314-19.042-1.905 1.37-6.249 1.151-6.905.542 1 .109 2.844-.094 3.5-.781-9.486-.612-28.5.688-28.5 9.5zm16.219 11.187c1.396.675 4.383 2.858 6.17 6.53-1.3-2.169-4.468-5.11-6.17-6.53zM106.797 60.5c1.104 2.375 5.569 7.412 14.594 8.563-7.975-2.2-13.052-6.625-14.594-8.562zm21.312 16.375c2.063 5.563 14.756 13.688 31.222 13-20.723 1.712-29.449-7.954-31.222-13z" fill="#e11f1f" class="B"/><path d="M132.404 77.379c-3.977-4.284-6.114-8.547-14.326-12.004-20.807-8.761-2.197-15.189 14.326-13.392 12.959.115 39.2.187 47.768 15.486 6.426 23.561-34.982 23.68-47.768 9.911z" fill="#fffff5"/><g fill="#e11f1f"><path d="M165.516 81.031c-1.98-1.129-2.024-2.695.203-4.633 2.534-2.205 10.797-2.315 11.234-.336.546 2.474-7.656 7.125-11.437 4.969zm-29.891-26.25c-1.708.275 1.969 3.203 5.337 3.111 4.446-.122 1.492-4.21-5.337-3.111zm-8.266 2.797c4.36-3.266 4.172-5.531 2.469-5.828 1.203-1.469 6.375-1.312 8.281-.203s-2.672 2.031-3.5 2.656c-.662.5-2.031 1.672-1.672 3.689-.984-2.033-.362-3.67.813-4.47 1.469-1 0-1.141-.281-.984-.683.379-.782.609-1.828 1.875-.891 1.077-3.558 3.208-4.282 3.266zm16.547-.625c1 7.406-9.703 3.766-9.297-1.187 1.594 2.359 7.875 5.14 9.297 1.188zm-5.64-3.343c.187-.125 9.406-1.094 16.031-.641-2.741-1.016-9.658-2.622-16.031.641z"/><path d="M145.5 59.359c-1.312 0-2.094 2.512.609 2.391 3.15-.141 4.373.17 7.2 1.273 3.222 1.258 4.003 3.695 4.003 3.695s13.247.908 14.735-3.572c.625-1.881-3.451-.498-6.098-.157-2.367.305-5.199.941-8.215.385-5.422-1-8.672-2.547-8.672-2.547s2.538.199 4.094-.172c-4.344-.234-6.344-1.297-7.656-1.297z" class="B"/><path d="M160.516 73.042c7.343.52 6.781 1.552-1.188 4.427-1.594.575 4.201 6.382-4.312 5.719-12.438-.969-16.969-4.344-18.563-9.625-.385-1.276-.27-3.515 1.344-3.484 2.385 3.002 11.994 9.123 22.719 2.964zm6.703-14.807c-3.614-1.468-13.688-4.625-19.719-4.625-8.484 0-3.969 2.375 0 2.156 7.525-.415 6.696 1.647 9.547 1.797-2.083.362-6.328-.172-9.159-.778-1.701-.364-4.41.581-1.357 1.778 4.576 1.793 9.317 1.239 14.25 1.219-1.687 1-3.281 1.484-7.781 1.813 5.406.875 11.226.776 14.453-.859.692-.35 1.266-1.891-.234-2.5z"/><path d="M128.922 52.813c-2.187-.875-16.5 1.406-17.656 4.406-.432 1.119.238 2.514 1.725 3.038 3.381-3.82 8.613-5.138 10.806-5.319 1.521-.245 3.65-.556 0 .156s-7.854 3.88-9.5 5.375c2.013 0 3.028-.572 4.139-1.197.544-.306 1.111-.626 1.83-.897.952-.359 1.939-.364 2.909-.369 1.255-.006 2.481-.012 3.56-.787 1.529-1.099 2.733-4.406 2.187-4.406z" class="B"/><path d="M143.703 65.188c2.109-1.719 7.719-.484 10.281 3.031-1.377-.29-4.453-1.719-6.669-1.558-2.112 0-3.976-1.177-3.612-1.474zm-4.906 1.203c-.313 4.734 7.05 9.047 15.75 6.047 1.307-.451 2.045-1.099 2.25-1.516-1.359-2.109-4.76-2.421-5.688-2.312-2.531.297-4.062.266-6.156-1.578-2.312-1.437-4.219 0-6.156-.641zm21.766 12.703c-.454.609.703 2.563-.047 3.938 1.25 0 2.368-1.147 2.593-2.547.282-1.75.594-2.414 2.61-4.086-.396-.073-3.53.509-5.156 2.695zm-35.485-16.219c2.953 2.125.781 8.625 7.313 10.688 2.14 1.359 3.578-1.109 1.359-2.391-1.269-.733-.734-1.984-2.672-3.328s-2.873-3.235-3.719-4.406c-.624-.865-1.468-1.078-2.281-.562z"/><path d="M121.343 59.6c-1.783.209-3.26.382-4.077 2.026-.882 1.773.93 2.987 3.484 3.344 1.427.199 3.797 1.422 5.219 3.641.489-1.718.145-3.07-.578-4.281-.553-.926-1.094-.978-.766-2.172.543-1.975-.828-2.969-.828-2.969s3.562 2.359 4.781 4.719 4.406 5.5 7.25 5.594 1.915-3.344 1.531-6.172c-.89 1.859-4.45-3.432-5.749-5.103-2.893-.274-6.1.512-7.813.962-.856.225-1.684.322-2.454.412zm10.779-1.314c1.284.511 4.597 6.036 4.597 4.511.281-3.125-1.985-4.905-4.597-4.511z" class="B"/><path d="M143.099 62.243c-5.84 0-6.052 4.257-1.896 3.101 8.339-3.319 12.52-.387 15.859 4.734 5.287 1.851 17.435 4.215 23.735-1.141.667-.913.887-3.381-3.563-5.948-2.181 2.777-9.407 7.64-20.865 4.881-2.746-6.915-8.672-5.512-13.27-5.628z"/></g><path d="M106.21 57.857l15.704-9.185c4.007-.405 7.98-.684 11.945-.203l-27.649 9.388zm46.236-8.648L124.797 55c.477 0 5.85 1.797 10.08 3.244.917.314.89 1.616-.039 1.895l-17.824 5.36c.983.539 1.897 1.096 2.753 1.668l40.252-2.561c1.016-.065 1.297-1.429.389-1.89l-7.174-3.643c-1.013-.515-.519-2.052.605-1.88l27.354 4.191c-6.64-8.473-18.013-11.26-28.747-12.176zm31.946 23.199c-23.095 11.717-49.686 9.498-49.686 9.498 8.957 6.503 26.64 8.668 38.333 4.015 6.198-2.466 10.713-6.847 11.353-13.513z" fill="url(#A)" class="B"/><path d="M139.469 69.996c-4-.625-14.25 1.875-9.25 7.375 5.919 6.51 19.178-1.245 22.347-6.116.376-.577-.107-1.215-.795-1.18-2.834.145-9.239.4-12.302-.079z" fill="url(#A)"/><g class="C"><path d="M204.785 28.458c1.502 2.619-.389 5.884-3.408 5.884-3.099 0-4.978-3.419-3.317-6.035 1.852-3.919 5.144-3.651 6.725.151z"/><path d="M134.61 34.25c-.719-3.562-4.035-8.969-4.035-8.969s-3.246 5.563-3.996 8.969.456 5.969 3.656 5.969 5.094-2.406 4.375-5.969zm-5.875-2.594c-.552 1.083-1.45 3.781-.625 5.906l.625-5.906z" class="B"/><path d="M155.485 14.375s2.5 6.5 2.675 8.444-.582 3.658-2.261 3.658-2.261-1.683-2.261-3.658 1.847-8.444 1.847-8.444zm-51.11 9.25s2.095 4.507 2.095 5.916-.354 3.391-2.095 3.391-2.344-1.854-2.096-3.391c.487-3.01 2.096-5.916 2.096-5.916z"/><path d="M175.416 28.052l6.632 19.271c1.812 4.604-.676 10.354-6.188 10.354s-10.187-4.073-8.062-9.875 7.618-19.75 7.618-19.75zm-1.1 26.784c-2.893.124-4.688-2.836-4.448-5.721.235-2.832 1.014-6.354 3.242-8.688-1.969 2.983-2.301 6.444-2.196 8.973.095 2.314 1.495 4.467 3.695 5.19.27.088.499.136.657.118a5.08 5.08 0 0 1-.95.128z" class="B"/></g><defs><linearGradient id="A" x1="153.672" y1="48.215" x2="126.672" y2="68.313" gradientUnits="userSpaceOnUse"><stop stop-color="#a6f4f0" stop-opacity=".9"/><stop offset="1" stop-color="#fff" stop-opacity=".65"/></linearGradient><path id="B" d="M236.381 29.103a1 1 0 1 0 .518-1.932l-.518 1.932zm-1.804-.483l1.804.483.518-1.932-1.804-.483-.518 1.932z"/></defs></svg>