<svg width="591" height="372" viewBox="0 0 591 372" fill="none" xmlns="http://www.w3.org/2000/svg">
<path d="M526.762 375.684H0C4.59205 373.475 19.2443 370.349 30.7334 368.198C30.3958 361.354 33.6178 355.013 35.4741 352.473C34.0643 357.642 35.694 363.807 36.9971 367.064C37.1948 367.03 37.3901 366.996 37.583 366.962L39.0956 353.954L41.8856 366.247C44.1176 355.274 40.9556 346.127 39.0956 342.925C42.9436 345.507 50.1182 353.472 50.376 365.758C51.408 365.847 52.708 365.937 54.9172 365.908C55.0714 361.33 53.7413 349.17 40.5771 325.311C47.3115 331.936 60.7002 349.269 60.4968 365.699C62.0128 365.634 63.5343 365.576 65.0593 365.523C64.2838 358.263 67.7571 351.364 69.7136 348.687C68.9626 352.532 68.0645 360.325 69.358 365.39C85.2502 364.955 101.33 365.113 115.433 365.403C118.622 361.553 131.29 352.902 150.868 353.874C141.123 355.237 134.12 360.108 128.187 365.705C132.349 365.813 136.221 365.919 139.727 366.008C143.776 361.873 148.328 357.821 153.666 355.685C150.868 361.2 146.999 363.888 145.353 366.138C148.163 366.195 151.169 366.218 154.343 366.212C155.705 361.489 159.839 354.777 159.839 354.777L159.589 366.179C160.161 366.173 160.737 366.167 161.318 366.16C162.076 360.09 163.326 344.502 159.839 323.75C166.265 343.879 167.982 351.619 167.524 366.061C167.771 366.056 168.019 366.051 168.267 366.046L172.514 351.979L171.424 365.98C173.415 365.936 175.444 365.887 177.504 365.834C177.663 359.677 176.597 350.065 174.984 346.053C179.496 349.725 181.311 359.355 182.529 365.698C182.553 365.698 182.577 365.697 182.601 365.696C181.961 357.933 184.121 345.488 184.531 340.291C184.907 345.722 184.596 357.653 186.112 365.596C186.696 365.58 187.282 365.562 187.87 365.545C188.226 356.208 191.684 346.068 192.762 342.431C192.012 350.59 191.606 359.566 191.891 365.426C192.764 365.399 193.641 365.373 194.522 365.346L194.079 360.209L197.621 365.252C199.261 365.203 200.91 365.152 202.568 365.103C203.648 365.07 204.732 365.037 205.819 365.005C206.235 364.993 206.651 364.98 207.068 364.968C207.928 364.943 208.789 364.917 209.651 364.892C211.531 364.838 213.418 364.784 215.31 364.732C217.715 364.666 220.127 364.602 222.54 364.543C223.152 354.737 229.804 337.829 230.376 335.685C228.361 346.887 227.612 355.328 227.883 361.777C233.628 354.75 233.197 347.129 232.763 343.419C235.315 350.911 235.169 358.664 234.554 364.282C235.812 364.259 237.068 364.238 238.321 364.219C239.478 354.464 239.059 341.005 237.701 335.024C243.788 344.902 243.202 356.727 241.917 364.169C242.739 364.158 243.559 364.149 244.377 364.14C243.919 356.099 245.988 346.243 246.426 342.431C247.144 347.011 247.322 357.39 248.811 364.103C249.274 364.1 249.736 364.098 250.198 364.096C249.725 350.82 252.769 335.394 254.821 328.439C251.809 338.855 255.734 354.385 254.97 364.085C255.569 364.085 256.167 364.086 256.764 364.088C255.146 354.674 257.736 342.399 258.607 337.493C258.607 337.493 262.156 355.757 263.381 358.237C263.957 349.43 269.06 350.747 266.179 324.985C273.354 340.323 268.184 352.786 269.138 361.498C270.6 358.534 271.807 356.061 271.776 355.191C271.871 357.875 271.762 361.482 271.514 364.285C272.199 364.303 272.881 364.322 273.56 364.342C273.645 356.438 274.599 347.301 275.233 343.419C274.703 351.691 275.949 359.689 276.858 364.451C277.196 364.464 277.532 364.476 277.867 364.489C279.073 364.537 280.276 364.58 281.477 364.62C282.229 354.362 280.297 336.474 279.019 328.439C282.63 335.312 284.704 354.112 285.515 364.741C286.984 364.78 288.448 364.814 289.907 364.843L287.579 344.242C289.098 348.344 291.354 357.385 291.725 364.876C293.031 364.898 294.333 364.916 295.63 364.929C296.884 364.943 298.135 364.952 299.38 364.958C300.258 364.961 301.133 364.964 302.006 364.964C303.512 364.964 305.011 364.959 306.502 364.949C308.052 364.938 309.594 364.921 311.127 364.899C311.605 364.892 312.082 364.884 312.559 364.876C313.419 364.862 314.277 364.845 315.131 364.827C315.759 364.814 316.384 364.8 317.008 364.784C319.71 364.719 322.381 364.636 325.02 364.536C324.757 355.703 329.845 337.504 332.683 330.085C330.15 342.057 330.452 356.912 331.081 364.275C332.909 364.186 334.719 364.089 336.511 363.985C335.116 354.538 340.353 340.186 341.522 335.952C341.592 335.646 341.663 335.336 341.737 335.024C341.709 335.23 341.634 335.544 341.522 335.952C337.625 353.029 339.122 360.469 339.815 363.783C340.546 363.736 341.275 363.687 341.999 363.638C342.259 357.692 341.961 352.121 341.737 350.694C343.057 353.069 344.401 359.13 345.285 363.402C346.127 363.339 346.965 363.274 347.797 363.208C347.585 357.854 348 349.704 348.321 346.053C348.576 350.487 348.891 358.124 348.902 363.118C349.912 363.035 350.914 362.95 351.908 362.862C351.911 358.648 352.111 353.364 352.272 350.694L354.015 362.671C354.205 362.654 354.394 362.636 354.583 362.618C355.575 352.186 356.367 337.45 356.716 330.085C358.958 335.848 359.62 351.587 359.703 362.107C361.204 361.949 362.684 361.785 364.142 361.616C365.366 353.188 365.115 344.552 364.782 341.937C366.506 348.631 367.43 356.535 367.839 361.169C368.696 361.061 369.545 360.951 370.385 360.84C369.826 354.639 370.128 347.466 370.471 344.075C370.48 343.831 370.504 343.611 370.544 343.419C370.52 343.618 370.495 343.837 370.471 344.075C370.354 347.337 372.89 354.972 374.455 360.276C375.53 360.121 376.591 359.963 377.635 359.802C377.084 351.082 373.979 336.845 372.133 330.457C378.314 339.29 379.9 352.81 379.965 359.433C381.153 359.24 382.319 359.043 383.463 358.843L385.03 345.394V358.564C389.112 347.371 390.462 335.244 390.627 331.896C393.638 339.748 392.316 351.209 390.714 357.867C391.224 357.831 391.736 357.803 392.251 357.78C392.53 353.862 394.06 348.463 398.528 344.242C397.453 345.771 395.812 351.235 395.799 357.723C397.645 357.741 399.516 357.83 401.404 357.979C404.052 350.223 407.217 335.389 405.442 322.184C406.664 328.684 408.321 345.65 406.342 358.494C428.216 361.293 451.68 370.705 466.925 370.336C474.826 362.962 474.497 342.242 473.345 335.438C475.132 339.621 477.448 351.339 476.181 361.738C478.14 356.971 480.593 353.048 482.069 352.228C479.299 357.022 477.923 365.875 477.382 370.505C478.312 370.547 479.259 370.596 480.22 370.65C480.985 367.791 482.975 360.757 483.386 355.685V370.845C484.734 370.935 486.102 371.034 487.482 371.141C486.163 366.534 485.553 358.254 489.477 353.711C488.983 356.013 488.292 366.776 489.477 370.336C489.597 370.698 489.693 371.027 489.766 371.325C490.298 371.37 490.831 371.415 491.365 371.461C492.434 366.386 493.067 354.352 493.263 350.582C496.345 359.257 496.434 368.559 495.974 371.884C497.712 372.052 499.447 372.227 501.164 372.409V362.105C503.48 363.869 504.495 370.065 504.829 372.808C513.514 373.779 521.466 374.855 526.762 375.684Z" fill="#BFEDC3"/>
<path d="M318.381 346.053C319.131 354.613 315.131 364.085 315.131 364.827C315.759 364.814 316.384 364.8 317.008 364.784C319.71 362.518 319.049 351.352 318.381 346.053Z" fill="#BFEDC3"/>
<path d="M311.127 361.498V364.899C311.605 364.892 312.082 364.884 312.559 364.876L311.127 361.498Z" fill="#BFEDC3"/>
<path d="M299.881 355.191C299.266 356.329 299.037 358.071 299.006 359.83C298.971 361.79 299.183 363.77 299.38 364.958C300.258 364.961 301.133 364.964 302.006 364.964L299.881 355.191Z" fill="#BFEDC3"/>
<path d="M306.502 364.949C308.052 364.938 309.594 364.921 311.127 364.899C311.127 364.169 305.006 353.309 309.506 326.559C306.963 337.149 302.801 359.653 306.502 364.949Z" fill="#BFEDC3"/>
<path fill-rule="evenodd" clip-rule="evenodd" d="M299.006 359.83C298.971 361.79 299.183 363.77 299.38 364.958C298.135 364.952 296.884 364.943 295.63 364.929C293.629 362.779 292.63 347.12 292.381 339.559C292.416 339.683 292.599 340.147 292.885 340.873C294.212 344.245 297.756 353.249 299.006 359.83ZM295.63 358.564L294.381 350.694L295.63 352.309V358.564Z" fill="#BFEDC3"/>
<path d="M209.651 364.892C211.531 364.838 213.418 364.784 215.31 364.732C216.756 352.934 216.381 344.621 212.131 328.439C213.919 337.4 211.981 352.18 209.651 364.892Z" fill="#BFEDC3"/>
<path d="M207.068 364.968C207.928 364.943 208.789 364.917 209.651 364.892L207.068 358.559V364.968Z" fill="#BFEDC3"/>
<path d="M203.568 344.621C202.193 350.005 200.067 361.637 202.568 365.103C203.648 365.07 204.732 365.037 205.819 365.005C202.753 361.204 203.041 349.832 203.568 344.621Z" fill="#BFEDC3"/>
<path d="M420.595 297.793C416.064 299.856 413.095 302.231 413.345 303.793C411.012 301.168 411.69 293.353 415.72 291.418C419.75 289.484 422.345 291.418 422.345 291.418C422.345 291.418 418.626 292.2 417.783 293.668C419.97 292.418 421.189 292.2 425.095 292.418L425.095 292.438C425.095 293.388 425.096 295.745 420.595 297.793Z" fill="#BFEDC3"/>
<path d="M370.744 306.25C379.085 310.046 384.549 314.417 384.089 317.293C388.383 312.462 387.135 298.077 379.717 294.516C372.299 290.956 367.523 294.516 367.523 294.516C367.523 294.516 374.368 295.954 375.921 298.658C371.895 296.357 369.652 295.954 362.462 296.357L362.462 296.392C362.462 298.141 362.461 302.479 370.744 306.25Z" fill="#BFEDC3"/>
<path d="M478.506 319.184C483.706 317.784 492.673 308.601 496.506 304.184C496.506 304.184 499.631 304.184 496.506 309.434C493.381 314.684 483.923 318.184 478.506 319.184Z" fill="#BFEDC3"/>
<path d="M554.946 376.652L556.901 342.099L552.256 343.077L538.076 340.958H532.29C531.177 345.956 528.975 356.584 525.527 357.827C520.555 359.62 506.174 359.838 500.834 364.021C495.494 368.204 497.085 374.533 497.982 376.652H554.946Z" fill="#BFEDC3"/>
<path d="M604.575 354.323L601.804 345.114L627.149 335.417L634.157 365.243C634.157 365.243 616.889 375.296 604.575 377.223C596.211 378.531 582.898 377.223 582.898 377.223C582.898 377.223 579.507 370.843 582.898 367.118C587.912 361.609 603.76 359.946 603.76 359.946L604.575 354.323Z" fill="#BFEDC3"/>
<path fill-rule="evenodd" clip-rule="evenodd" d="M591.862 56.0578C583.006 61.1104 567.039 70.2051 564.236 71.0526C562.769 69.1239 560.014 64.1257 560.732 59.562L564.236 58.6656L564.643 47.501L559.428 45.0562C559.047 42.2583 558.254 36.5321 558.124 36.0105C557.993 35.489 556.114 31.7186 555.19 29.8985L553.968 24.357V20.5268L553.153 19.3859V16.0447L552.805 13.5509C555.884 14.0332 560.377 12.861 562.239 12.2146C558.979 12.9969 554.497 12.7578 552.664 12.5405C548.372 9.38941 547.264 3.77873 551.93 2.59833C558.694 0.887157 576.181 -2.83181 582.449 3.77873C584.411 5.84825 585.544 9.55086 585.424 16.0447V18.0005C587.706 17.3214 591.764 17.8049 589.743 25.1719C589.743 25.6609 588.439 32.0174 585.424 30.958L591.862 56.0578Z" fill="#BFEDC3"/>
<path fill-rule="evenodd" clip-rule="evenodd" d="M591.534 57.6479C579.009 64.7952 568.261 70.469 564.236 72.5195C560.389 69.2597 559.428 62.523 559.428 59.562C545.802 63.6693 540.005 70.3463 538.81 73.1714L534.002 118.889L538.076 117.422L539.788 114.57L546.531 112.433L545.003 72.5195C546.125 69.7819 550.333 63.606 558.394 60.0012C554.154 62.0531 552.165 66.2348 551.686 68.2004L553.274 110.296L554.701 109.843L555.679 111.636L574.667 106.665L554.701 113.185L553.805 110.984L540.766 115.955L539.788 117.993L511.265 126.305L505.805 115.955L502.219 113.185C499.546 112.728 497.792 110.332 497.248 109.191C498.943 111.082 500.725 111.935 501.405 112.125L525.853 28.0242L517.214 24.7645L496.515 101.939L495.13 109.191V113.755L497.656 115.955L497.248 117.993L492.44 114.57L493.581 113.755L491.299 112.125L487.306 114.57L484.291 129.728L482.743 131.195L484.291 136.003L495.7 139.588L486.573 137.714L484.291 148.634L477.771 149.775L474.43 147.249L472.311 148.634L473.371 153.85L469.785 154.583L468.563 158.25L472.311 162.488L469.785 164.199L469.378 168.029L472.311 170.067L470.6 171.045V175.119H477.283L437.677 324.089L410.703 317.733C407.059 320.045 404.99 345.832 404.371 353.553C404.285 354.622 404.227 355.345 404.197 355.611C404.191 355.648 404.186 355.68 404.183 355.708C404.187 355.691 404.191 355.658 404.197 355.611C404.561 353.36 410.123 335.435 412.903 326.615C414.272 325.898 415.429 327.457 415.837 328.327C412.577 331.391 410.567 353.074 409.969 363.532C410.214 361.82 419.096 329.794 420.645 328.327C421.883 327.153 423.714 329.087 424.475 330.201C422.52 333.796 419.187 356.034 417.619 367.761C417.519 368.267 417.467 368.655 417.467 368.91C417.515 368.54 417.566 368.156 417.619 367.761C418.767 361.93 426.111 340.567 429.935 329.794L434.743 331.749L424.475 370.866C424.801 371.627 425.518 372.904 425.779 371.926C426.04 370.948 434.471 345.169 438.655 332.401L442.729 333.135C441.426 335.58 433.765 374.859 434.743 373.881C435.525 373.099 443.001 347.478 446.641 334.765L450.553 336.069C449.51 337.764 444.903 363.939 442.729 376.815C443.512 375.251 450.879 349.542 454.464 336.884L458.865 338.187C458.865 339.622 453.324 365.841 450.553 378.771C452.117 377.076 459.897 351.878 463.592 339.491L467.014 340.958C465.222 345.196 458.865 380.564 458.865 381.868C461.994 376.652 469.296 347.749 472.556 333.95L444.848 325.963L489.67 151.405L491.299 149.775L485.758 173.571C487.844 172.006 490.973 169.225 492.277 168.029L525.853 161.021V165.422L541.662 162.814L542.477 159.228L551.115 156.458L552.419 163.629V175.527L530.742 236.484L527.482 250.338L528.86 310.969L555.679 315.695L528.949 314.88H526.504L528.949 339.491L562.036 340.958L566.436 316.673L561.221 315.695L564.643 261.584L558.939 260.606L564.403 258.82L563.665 250.338L573.119 188.566L565.458 250.338L566.436 260.606L589.417 320.422L618.103 313.739L587.95 323.519L599.033 343.892L630.001 332.809L625.763 310.969L621.2 312.924L606.531 260.606H603.434L606.531 255.716C617.353 207.603 619.841 172.539 619.733 161.021L617.614 153.687L615.332 147.493L606.531 117.83L586.32 140.648L606.531 115.059L622.992 77.0831C619.575 62.4804 608.391 57.3992 600.04 56.2533C593.023 58.3654 588.622 66.1847 587.298 69.8303L582.979 73.1714L580.045 79.039C576.418 69.9696 584.971 61.8036 591.534 57.6479ZM587.298 72.5195L571.978 99.7382C571.978 99.7382 579.156 85.4179 583.876 73.9863L587.298 71.0526V72.5195Z" fill="#BFEDC3"/>
</svg>
