<svg width="90" height="90" viewBox="0 0 90 90" fill="none" xmlns="http://www.w3.org/2000/svg">
<path fill-rule="evenodd" clip-rule="evenodd" d="M37.9806 76.1718L25.1807 69.8593L11.6454 75.2542C8.89503 76.4435 6.94667 74.1101 8.62091 71.6249L11.6126 66.5077L13.2619 53.0155L13.4338 46.703L10.9963 43.7343L11.9714 38.2043L14.5173 34.1126C14.5173 34.1126 15.323 31.2281 14.551 29.9414C11.8386 25.4208 9.66815 16.1718 9.66815 16.1718L10.4181 11.6718L11.6369 11.2343L27.2575 13.9302L39.1577 12.2888L42.9544 13.023L46.8944 15.2745L51.215 16.4843L59.418 14.2031L79.3711 10L81.8555 10.5469L82.4196 13.1829L79.6586 28.1712L75.6917 34.8319L74.9805 37.1087V47.0821C74.9805 47.4531 74.9461 47.8233 74.8777 48.1879L73.5895 55.0584C73.5225 55.4155 73.5045 55.7801 73.536 56.1421L74.7463 76.4999L73.3556 79.8749L55.694 73.8127L39.3116 75.3971L37.9806 76.1718ZM80.4023 11.9998L59.1929 16.024L51.215 17.5155L45.9021 17.0109L41.9621 14.7595L39.431 14.27L27.5308 15.9114L13.0431 14.203C13.0431 14.203 13.7052 24.6444 16.266 28.9124C17.424 30.8424 16.2154 35.1692 16.2154 35.1692L13.6695 39.2609L12.4494 43.5312L14.0275 46.5155L14.4049 51.5155L13.0119 66.3437L12.0275 67.6952L9.15234 71.953C8.59427 72.7814 9.9348 73.8149 10.8516 73.4185L22.8765 68.2185L31.139 60.2943L25.1807 68.6222L36.9338 73.703L39.1213 73.8905L56.2822 71.9011L71.9367 76.7178L71.5435 56.3153C71.4963 55.7724 71.5233 55.2255 71.6237 54.6898L72.9119 47.8193C72.9575 47.5762 72.9805 47.3294 72.9805 47.0821L73.168 35.2968L77.7037 27.7437L80.4023 11.9998Z" fill="#BFEDC3"/>
<path d="M25.6693 29.5648L21.8244 29.8593L25.2916 31.5288L38.9806 34.7343L25.6693 29.5648Z" fill="#BFEDC3"/>
<path d="M70.6671 19.2738L72.5744 16.0307L69.2938 17.8198L60.2535 27.7334L70.6671 19.2738Z" fill="#BFEDC3"/>
<path d="M62.8555 46.9688L61.4492 47.0821L62.1836 47.8193L67.8867 48.8281L71.2461 48.0469L69.3555 46.4218L62.8555 46.9688Z" fill="#BFEDC3"/>
<path d="M62.2544 62.4136L51.8244 50.203L60.7065 63.6801L64.1994 66.6405L62.2544 62.4136Z" fill="#BFEDC3"/>
<path d="M22.8765 53.3593L25.8869 50.8593L23.8244 50.5468L15.5431 53.7655L22.8765 53.3593Z" fill="#BFEDC3"/>
<path fill-rule="evenodd" clip-rule="evenodd" d="M42.7612 28.7342C46.1362 24.5466 53.0665 23.3761 58.2963 26.3121C67.3235 31.3798 66.3635 44.6716 56.7018 48.3895L51.9423 50.2211L40.835 59.4057C37.4539 62.2016 32.5206 62.0448 29.3238 59.0398C26.0218 55.9358 25.4069 50.4354 28.23 46.8903L42.7612 28.7342ZM45.2925 40.0761L52.5779 31.0118L49.0737 39.7341L56.472 39.9165L45.9748 42.3031L33.3085 54.7876L43.7612 40.7966L45.2925 40.0761ZM29.6675 47.6716L43.7612 29.9841C40.5633 34.6924 33.3925 44.9652 30.2925 48.3895C27.1925 51.8139 28.5842 56.4627 29.6675 58.3591C26.2175 53.3591 28.23 49.1508 29.6675 47.6716Z" fill="#BFEDC3"/>
<path fill-rule="evenodd" clip-rule="evenodd" d="M15.418 16.5469L17.0273 16.0156L27.2305 19.6406L17.3711 19.8906L18.1449 25.0333L15.3086 18.1562L15.418 16.5469Z" fill="#BFEDC3"/>
</svg>
