<svg width="90" height="90" viewBox="0 0 90 90" fill="none" xmlns="http://www.w3.org/2000/svg">
<path fill-rule="evenodd" clip-rule="evenodd" d="M44.9572 69.25C54.9404 70.0001 63.2696 59.6875 58.4571 49.625L48.3949 25.25L36.2696 49.625C31.2658 58.2917 37.6846 68.7036 44.9572 69.25ZM44.9572 39.8749C41.0165 44.3572 34.082 57.0625 39.2695 61.3125C39.2695 56 42.299 43.7857 44.9572 39.8749Z" fill="#BFEDC3"/>
<path fill-rule="evenodd" clip-rule="evenodd" d="M75.6916 41.3303L72.1177 32.2529C72.1177 32.2529 70.2792 36.5397 68.2429 40.3618C66.2067 44.184 69.0605 47.5132 72.0363 47.255C74.8686 47.0093 76.5205 44.0888 75.6916 41.3303ZM72.2808 35.1066C72.2808 35.1066 71.1122 37.8244 69.5767 40.8411C68.0411 43.8578 70.4871 45.8745 71.9413 45.8282C74.0748 45.7603 75.2704 43.7355 74.6532 41.5572L72.2808 35.1066Z" fill="#BFEDC3"/>
<path d="M70.3514 42.0505C69.9709 42.9383 69.7562 44.8254 71.9413 45.2711C71.2166 44.9585 69.884 43.8768 70.3514 42.0505Z" fill="#BFEDC3"/>
<path fill-rule="evenodd" clip-rule="evenodd" d="M31.1516 32.1127L26.7763 21C26.7763 21 24.5256 26.248 22.0328 30.9271C19.54 35.6062 23.0337 39.682 26.6767 39.3659C30.1441 39.0651 32.1664 35.4898 31.1516 32.1127ZM26.976 24.4935C26.976 24.4935 25.5454 27.8207 23.6655 31.5138C21.7857 35.207 24.7802 37.6758 26.5604 37.6191C29.1722 37.536 30.6359 35.0572 29.8803 32.3905L26.976 24.4935Z" fill="#BFEDC3"/>
<path d="M24.614 32.9944C24.1482 34.0813 23.8854 36.3914 26.5604 36.9371C25.6732 36.5545 24.0418 35.2302 24.614 32.9944Z" fill="#BFEDC3"/>
<path fill-rule="evenodd" clip-rule="evenodd" d="M21.032 63.48L18.3823 56.75C18.3823 56.75 17.0192 59.9283 15.5095 62.762C13.9999 65.5958 16.1157 68.0641 18.322 67.8727C20.4219 67.6905 21.6466 65.5252 21.032 63.48ZM18.5032 58.8657C18.5032 58.8657 17.6368 60.8807 16.4984 63.1173C15.3599 65.354 17.1734 66.8492 18.2516 66.8148C19.8333 66.7645 20.7197 65.2633 20.2622 63.6482L18.5032 58.8657Z" fill="#BFEDC3"/>
<path d="M17.0728 64.014C16.7907 64.6722 16.6315 66.0713 18.2516 66.4018C17.7142 66.17 16.7262 65.3681 17.0728 64.014Z" fill="#BFEDC3"/>
</svg>
