<svg width="90" height="90" viewBox="0 0 90 90" fill="none" xmlns="http://www.w3.org/2000/svg">
<path d="M22.6814 43.7134C21.9658 56.1257 31.3779 66.764 43.7041 67.4747C56.0303 68.1854 66.6028 58.6994 67.3184 46.287C68.0341 33.8747 58.6219 23.2364 46.2957 22.5257C37.5082 22.019 29.6119 26.6949 25.5431 33.9189C23.9047 36.8279 22.8869 40.15 22.6814 43.7134Z" fill="#BFEDC3"/>
<path fill-rule="evenodd" clip-rule="evenodd" d="M39.629 21.664C40.4868 21.4223 41.3783 21.9207 41.6204 22.7772V29.8843L38.5142 23.6524C38.2722 22.7959 38.7713 21.9057 39.629 21.664Z" fill="#FFFFF5"/>
<path d="M68.0279 39.5905C68.2696 40.4482 67.7712 41.3398 66.9147 41.5818L59.8076 41.5818L66.0395 38.4756C66.896 38.2336 67.7862 38.7327 68.0279 39.5905Z" fill="#FFFFF5"/>
<path d="M50.7206 68.3546C49.8628 68.5962 48.9713 68.0978 48.7292 67.2413L48.7292 60.1343L51.8354 66.3661C52.0775 67.2226 51.5783 68.1129 50.7206 68.3546Z" fill="#FFFFF5"/>
<path d="M22.0561 51.9325C21.8144 51.0747 22.3128 50.1832 23.1693 49.9412L30.2764 49.9412L24.0445 53.0473C23.188 53.2894 22.2978 52.7902 22.0561 51.9325Z" fill="#FFFFF5"/>
<path d="M48.6183 46.4493C48.7362 48.493 47.1347 50.2476 45.0413 50.3683C42.9479 50.489 41.1554 48.9301 41.0376 46.8864C40.9197 44.8428 42.5212 43.0882 44.6146 42.9675C46.708 42.8468 48.5005 44.4057 48.6183 46.4493Z" fill="#FFFFF5"/>
<path d="M48.6181 46.4495C48.6291 46.6398 48.6252 46.8276 48.6073 47.0118C48.4561 48.5719 47.3065 49.8744 45.7608 50.2594C45.5291 50.3171 45.2885 50.3542 45.0411 50.3684C42.9477 50.4891 41.1552 48.9303 41.0374 46.8866C40.9392 45.1834 42.0352 43.6809 43.6149 43.1578C43.9306 43.0532 44.2657 42.9878 44.6144 42.9677C45.5122 42.9159 46.3547 43.1731 47.0335 43.645C47.9373 44.2734 48.5508 45.2824 48.6181 46.4495Z" fill="#FFFFF5"/>
<path d="M50.7427 28.8709V27.4932L49.2397 28.8709L43.6149 43.1578C43.9306 43.0532 44.2657 42.9878 44.6144 42.9677C46.0762 42.6717 46.9496 42.8444 47.2035 42.9677L50.7427 28.8709Z" fill="#FFFFF5"/>
<path d="M56.7391 52.5038L55.2316 51.0012L49.6314 47.6286C49.1191 48.6096 47.6276 50.5093 45.7608 50.2594L54.6147 52.197L56.7391 52.5038Z" fill="#FFFFF5"/>
<path fill-rule="evenodd" clip-rule="evenodd" d="M44.1875 76.25C61.6535 76.25 76.0625 61.966 76.0625 44.5C76.0625 27.034 62.2941 13.375 44.8281 13.375C41.1304 13.375 37.5808 14.0096 34.2825 15.1759C22.0015 19.5185 13.2031 31.2318 13.2031 45C13.2031 62.466 26.7215 76.25 44.1875 76.25ZM74.0625 44.1875C74.0625 60.5489 61.1896 74.625 44.8281 74.625C28.4667 74.625 14.9375 61.3614 14.9375 45C14.9375 33.225 27.375 22.3438 29.0687 20.3621C30.9346 18.1789 34.2825 15.1759 34.2825 15.1759L44.8281 15.375C61.1896 15.375 74.0625 27.8261 74.0625 44.1875Z" fill="#BFEDC3"/>
</svg>
