<svg width="90" height="90" viewBox="0 0 90 90" fill="none" xmlns="http://www.w3.org/2000/svg">
<path fill-rule="evenodd" clip-rule="evenodd" d="M36.2117 46.0582L40.5274 47.2146L36.9909 60.413L37.5278 60.9508C39.2103 62.6361 39.9693 65.1436 39.3102 67.6036C38.326 71.2766 34.5506 73.4563 30.8776 72.4721C28.8987 71.9419 27.3532 70.6013 26.5025 68.9031C26.8972 63.3619 29.5847 60.1051 30.8791 59.1693L31.613 58.972L36.2117 46.0582Z" fill="#BFEDC3"/>
<path d="M48.511 11.0626C42.9376 9.1877 40.5273 11.5627 36.9908 26.4375L29.4516 56.8576C26.6154 57.8753 24.0905 60.2397 23.2504 63.3752C21.8896 68.4538 25.1089 74.1394 30.1875 75.5002C35.2662 76.861 40.7017 73.3914 42.0625 68.3127C42.9027 65.1773 41.8673 61.962 39.9199 59.6625L51.469 17.6252C52.4846 13.6095 47.7816 9.96881 45.1566 12.5313C47.6879 12.5313 49.4377 13.9377 48.5111 17.4188L44.6409 31.8626L47.1944 33.184L44.3247 33.0429L41.2094 44.6694L36.9909 43.5391L36.2117 46.0582L40.5274 47.2146L36.9909 60.413L37.5278 60.9508C39.2103 62.6361 39.9693 65.1436 39.3102 67.6036C38.326 71.2766 34.5506 73.4563 30.8776 72.4721C28.8987 71.9419 27.3532 70.6013 26.5025 68.9031C25.7743 67.4494 25.5552 65.7336 26.0091 64.0396C26.6683 61.5796 28.5793 59.7876 30.8791 59.1693L31.613 58.972L39.8608 27.2076C42.3125 14.8752 42.3128 10.0627 48.511 11.0626Z" fill="#BFEDC3"/>
<path fill-rule="evenodd" clip-rule="evenodd" d="M51.1811 57.9709L41.8398 56.9084L42.5218 54.3632L51.1811 57.9709Z" fill="#BFEDC3"/>
<path fill-rule="evenodd" clip-rule="evenodd" d="M60.5224 23.1092L51.1811 22.0467L51.8631 19.5015L60.5224 23.1092Z" fill="#BFEDC3"/>
<path fill-rule="evenodd" clip-rule="evenodd" d="M55.8101 31.1877L48.8457 30.7621L49.5277 28.2169L55.8101 31.1877Z" fill="#BFEDC3"/>
<path fill-rule="evenodd" clip-rule="evenodd" d="M55.8518 40.54L46.5105 39.4775L47.1925 36.9323L55.8518 40.54Z" fill="#BFEDC3"/>
<path fill-rule="evenodd" clip-rule="evenodd" d="M51.1396 48.6186L44.1753 48.193L44.8572 45.6478L51.1396 48.6186Z" fill="#BFEDC3"/>
<path fill-rule="evenodd" clip-rule="evenodd" d="M26.582 29.0845L22.0841 26.0008L16.6657 26.0008L12.1678 29.0845L14.1836 26.0008L14.8373 25.0008L14.1836 24.0008L12.1677 20.917L16.6657 24.0008L22.0841 24.0008L26.582 20.917L24.5662 24.0008L23.9125 25.0008L24.5662 26.0008L26.582 29.0845Z" fill="#BFEDC3"/>
<path d="M14.8373 25.0008L14.1836 24.0008L10 25.0008L14.1836 26.0008L14.8373 25.0008Z" fill="#BFEDC3"/>
<path d="M24.5662 24.0008L23.9125 25.0008L24.5662 26.0008L29 25.0008L24.5662 24.0008Z" fill="#BFEDC3"/>
<path fill-rule="evenodd" clip-rule="evenodd" d="M15.4165 32.083L18.5002 27.585L18.5002 22.1667L15.4165 17.6687L18.5002 19.6846L19.5002 20.3383L20.5002 19.6846L23.584 17.6687L20.5002 22.1667L20.5002 27.585L23.584 32.0829L20.5002 30.0671L19.5002 29.4135L18.5002 30.0672L15.4165 32.083Z" fill="#BFEDC3"/>
<path d="M19.5002 20.3383L20.5002 19.6846L19.5002 15.501L18.5002 19.6846L19.5002 20.3383Z" fill="#BFEDC3"/>
<path d="M20.5002 30.0671L19.5002 29.4135L18.5002 30.0672L19.5002 34.501L20.5002 30.0671Z" fill="#BFEDC3"/>
</svg>
