<svg width="68" height="68" viewBox="0 0 68 68" fill="none" xmlns="http://www.w3.org/2000/svg">
<path fill-rule="evenodd" clip-rule="evenodd" d="M56.5957 33.5773C56.5957 46.2467 46.1438 56.608 33.4743 56.608C20.8049 56.608 10.999 46.6094 10.999 33.94C10.999 23.9529 17.3812 15.4563 26.2895 12.3063C26.2895 12.3063 23.861 14.4847 22.5075 16.0683C22.3483 16.2546 22.0581 16.5494 21.6736 16.9399C19.0918 19.5627 12.2571 26.5058 12.2571 33.94C12.2571 45.8082 22.0708 55.4293 33.939 55.4293C45.8072 55.4293 55.145 45.2188 55.145 33.3506C55.145 21.4825 45.8072 12.4508 33.939 12.4508L26.2895 12.3063C28.682 11.4603 31.2568 11 33.939 11C46.6085 11 56.5957 20.9079 56.5957 33.5773ZM31.6123 17.82L31.6059 17.7982C32.7087 17.6281 33.8457 17.5708 35.0041 17.6376C41.9722 18.0393 47.6565 22.8149 49.5802 29.1647C49.4956 29.1693 49.4102 29.1833 49.3253 29.2073L44.8049 31.4604H49.9601C50.0052 31.4477 50.0489 31.4325 50.0911 31.415C50.2634 32.5369 50.3215 33.6941 50.2535 34.8735C49.854 41.8011 45.2217 47.4721 39.034 49.4841C39.0317 49.4747 39.0293 49.4652 39.0268 49.4558C39.0253 49.45 39.0237 49.4442 39.022 49.4384L36.7689 44.9179V50.042C35.5892 50.2427 34.369 50.3143 33.1242 50.2426C26.5428 49.8631 21.1066 45.5818 18.9027 39.7575L23.3836 37.5241L18.2359 37.5241C17.9145 36.0769 17.7852 34.5609 17.8748 33.0066C18.0239 30.4219 18.7622 28.0121 19.9506 25.902C21.9878 22.2851 25.3475 19.5489 29.3296 18.3215C29.3368 18.366 29.3466 18.4105 29.3591 18.4549L31.6123 22.9753V17.82ZM34.6158 37.7548C34.4477 37.7966 34.2732 37.8236 34.0937 37.8339C33.7867 37.8516 33.4887 37.8195 33.2078 37.7448C32.0991 37.4499 31.2576 36.491 31.1894 35.3082C31.1181 34.0727 31.9132 32.9829 33.0591 32.6034L37.1392 22.24L38.2294 21.2407V22.24L35.6622 32.4655C35.4779 32.3761 34.8444 32.2508 33.7841 32.4655C34.0214 32.4518 34.2534 32.4679 34.4762 32.5104C34.6245 32.5387 34.7687 32.5787 34.9078 32.6295C35.8972 32.9904 36.6252 33.8946 36.6884 34.9912C36.7638 36.2984 35.8694 37.4425 34.6158 37.7548C35.9699 37.9359 37.0517 36.558 37.4233 35.8464L41.4855 38.2928L42.579 39.3828L41.0381 39.1603L34.6158 37.7548Z" fill="#BFEDC3"/>
</svg>
