<svg width="68" height="68" viewBox="0 0 68 68" fill="none" xmlns="http://www.w3.org/2000/svg">
<path fill-rule="evenodd" clip-rule="evenodd" d="M35.3835 22.6633C37.9234 11.9803 39.6545 10.2745 43.6572 11.6211C39.7589 10.9922 39.2743 13.5647 38.0315 20.1621L38.0315 20.1622L38.0313 20.1634C37.855 21.0993 37.6634 22.1161 37.4447 23.2163L31.5212 46.0293L34.824 36.7547L35.3836 34.9455L38.4132 35.7573L40.6506 27.4072L42.7117 27.5086L37.4872 46.5252C38.8857 48.1767 39.6294 50.4859 39.026 52.7377C38.0486 56.3852 34.1449 58.8771 30.4974 57.8997C26.85 56.9224 24.5379 52.8391 25.5152 49.1916C26.1186 46.9398 27.932 45.2416 29.9689 44.5107L35.3835 22.6633ZM42.7117 27.5086L40.8778 26.5595L43.6573 16.1861C44.3228 13.6859 43.0661 12.6759 41.2481 12.6759C43.1334 10.8355 46.511 13.4503 45.7816 16.3343L42.7117 27.5086ZM27.8509 53.1618C28.1344 49.1821 30.0645 46.843 30.9941 46.171C29.3424 46.615 27.9699 47.902 27.4965 49.6688C27.1705 50.8854 27.3279 52.1177 27.8509 53.1618ZM52.2837 20.2727L45.5749 19.5096L46.0647 17.6816L52.2837 20.2727ZM38.866 44.547L39.3558 42.7191L45.5749 45.3101L38.866 44.547ZM43.8976 25.769L48.8994 26.0746L44.3874 23.941L43.8976 25.769ZM42.2205 32.0283L42.7103 30.2004L48.9293 32.7914L42.2205 32.0283ZM40.5433 38.2877L45.5451 38.5934L41.0331 36.4598L40.5433 38.2877ZM24.6777 22.3499L27.9081 24.5647L26.4604 22.3499L29.6447 21.6317L26.4603 20.9135L27.9081 18.6988L24.6777 20.9135H23.5402V19.5962L25.7549 16.3657L23.5402 17.8135L22.822 14.8089L22.1038 17.8135L19.8891 16.3658L22.1038 19.5962V20.9135H20.7863L17.5559 18.6988L19.0037 20.9135L15.999 21.6317L19.0037 22.3499L17.5559 24.5647L20.7863 22.3499H22.1038V23.4876L19.8891 26.718L22.1038 25.2702L22.822 28.4546L23.5402 25.2702L25.7549 26.7179L23.5402 23.4876V22.3499H24.6777Z" fill="#BFEDC3"/>
</svg>
