<svg width="68" height="68" viewBox="0 0 68 68" fill="none" xmlns="http://www.w3.org/2000/svg">
<path fill-rule="evenodd" clip-rule="evenodd" d="M24.1324 25.6601L21.1165 18C21.1165 18 19.5651 21.6175 17.8468 24.8428C16.1285 28.0682 18.5367 30.8776 21.0478 30.6597C23.4379 30.4524 24.8319 27.9879 24.1324 25.6601ZM21.2541 20.4081C21.2541 20.4081 20.268 22.7015 18.9722 25.2472C17.6765 27.7929 19.7406 29.4948 20.9677 29.4557C22.768 29.3983 23.777 27.6897 23.2561 25.8515L21.2541 20.4081ZM19.626 26.2678C19.305 27.017 19.1238 28.6094 20.9677 28.9855C20.3561 28.7218 19.2316 27.809 19.626 26.2678ZM42.9543 37.7314C46.2716 44.6675 40.5302 51.7761 33.6487 51.259C28.6357 50.8824 24.2112 43.7054 27.6603 37.7314L36.0184 20.9296L42.9543 37.7314ZM33.6487 31.0106C30.9324 34.1003 26.1524 42.8581 29.7282 45.7877C29.7282 42.1257 31.8164 33.7063 33.6487 31.0106ZM52.3706 25.7569L54.8341 32.014C55.4055 33.9155 54.2669 35.9285 52.3145 36.0979C50.2633 36.2759 48.2961 33.981 49.6997 31.3464C51.1033 28.7118 52.3706 25.7569 52.3706 25.7569ZM50.6191 31.6768C51.6775 29.5973 52.483 27.7239 52.483 27.7239L54.1183 32.1704C54.5438 33.6719 53.7197 35.0676 52.2491 35.1144C51.2467 35.1463 49.5606 33.7562 50.6191 31.6768ZM51.1531 32.5104C50.8909 33.1224 50.7429 34.4231 52.2491 34.7304C51.7495 34.5149 50.8309 33.7693 51.1531 32.5104ZM15.3305 42.6427L17.1569 47.2818C17.5806 48.6915 16.7364 50.1841 15.2889 50.3097C13.7681 50.4416 12.3096 48.7402 13.3503 46.7868C14.3909 44.8335 15.3305 42.6427 15.3305 42.6427ZM14.0319 47.0318C14.8166 45.49 15.4138 44.1011 15.4138 44.1011L16.6263 47.3977C16.9417 48.511 16.3307 49.5457 15.2404 49.5805C14.4972 49.6041 13.2471 48.5735 14.0319 47.0318ZM14.4278 47.6498C14.2334 48.1036 14.1236 49.0679 15.2404 49.2957C14.87 49.136 14.1889 48.5832 14.4278 47.6498Z" fill="#BFEDC3"/>
</svg>
