<svg width="68" height="67" viewBox="0 0 68 67" fill="none" xmlns="http://www.w3.org/2000/svg">
<path fill-rule="evenodd" clip-rule="evenodd" d="M28.9167 54.7267L20.0716 50.3646L10.7183 54.0926C8.81771 54.9145 7.47134 53.302 8.62829 51.5847L10.6956 48.0485L11.8353 38.725L11.9541 34.3629L10.2697 32.3114L10.9436 28.49L12.7029 25.6625C12.7029 25.6625 13.2597 23.6693 12.7262 22.7801C10.8518 19.6562 9.35196 13.2649 9.35196 13.2649L9.87023 10.1552L10.7124 9.85292L21.5067 11.7159L29.7301 10.5816L32.3538 11.089L35.0764 12.6448L38.0621 13.4808L43.7306 11.9045L57.5188 9L59.2356 9.37791L59.6254 11.1995L57.7174 21.5569L54.9762 26.1596L54.4847 27.7329V34.6249C54.4847 34.8812 54.4609 35.137 54.4137 35.389L53.5235 40.1367C53.4772 40.3835 53.4648 40.6354 53.4865 40.8856L54.3229 54.9534L53.3619 57.2856L41.1572 53.0965L29.8365 54.1914L28.9167 54.7267ZM58.2314 10.3819L43.575 13.1628L38.0621 14.1935L34.3907 13.8448L31.6681 12.289L29.919 11.9507L21.6956 13.085L11.6842 11.9044C11.6842 11.9044 12.1417 19.1197 13.9113 22.0691C14.7115 23.4028 13.8763 26.3927 13.8763 26.3927L12.117 29.2202L11.2739 32.171L12.3644 34.2333L12.6252 37.6885L11.6626 47.9352L10.9824 48.8691L8.99552 51.8114C8.60987 52.3839 9.53623 53.098 10.1698 52.8241L18.4793 49.2307L24.1622 43.7805C23.7254 43.5409 23.3124 43.2432 22.9346 42.888C20.6528 40.7431 20.2278 36.9422 22.1787 34.4924L29.0133 25.9529L20.1482 23.8771L17.7523 22.7234L20.4092 22.5199L29.0693 25.883L32.2202 21.946C34.5524 19.0522 39.3415 18.2434 42.9554 20.2722C43.4597 20.5553 43.9189 20.8755 44.3334 21.2264L50.5551 14.4037L52.8221 13.1674L51.5041 15.4085L44.3378 21.2301C49.0463 25.2208 47.9885 33.1676 41.8536 35.5284L38.5646 36.7941L38.5232 36.8283L45.6906 45.2194L47.0347 48.1403L44.621 46.0945L38.5173 36.8332L30.8892 43.1409C28.9542 44.741 26.2836 44.9416 24.1682 43.7838L20.0716 49.5097L28.1933 53.0207L29.7049 53.1503L41.5636 51.7755L52.3814 55.104L52.1097 41.0053C52.0771 40.6301 52.0957 40.2522 52.1651 39.882L53.0553 35.1343C53.0868 34.9663 53.1027 34.7958 53.1027 34.6249L53.2322 26.4808L56.3665 21.2614L58.2314 10.3819ZM46.106 34.5465L45.1342 34.6249L45.6417 35.1343L49.5827 35.8314L51.9042 35.2915L50.5977 34.1686L46.106 34.5465ZM18.4793 38.9626L20.5596 37.235L19.1343 37.019L13.4118 39.2433L18.4793 38.9626ZM33.9694 29.7836L39.0038 23.5198L36.5824 29.5472L41.6948 29.6733L34.4409 31.3225L25.6881 39.9496L32.9113 30.2814L33.9694 29.7836ZM23.1721 35.0323L32.9113 22.8097C30.7014 26.0633 25.7461 33.1621 23.6039 35.5284C21.4618 37.8947 22.4234 41.1072 23.1721 42.4177C20.788 38.9625 22.1787 36.0544 23.1721 35.0323ZM14.4381 13.1568L13.326 13.5239L13.2504 14.636L15.2104 19.3883L14.6757 15.8345L21.4888 15.6618L14.4381 13.1568Z" fill="#BFEDC3"/>
</svg>
