<svg width="90" height="90" viewBox="0 0 90 90" fill="none" xmlns="http://www.w3.org/2000/svg">
<path fill-rule="evenodd" clip-rule="evenodd" d="M34.5573 26.9585H31.7825L29.5 26.125L29.0078 46.1875L34.5573 40.4683V26.9585ZM29.0858 47.1928L29.0078 60.0625H62.3669L62.3672 37.4185L60.75 39.125L51.2469 46.5609V37.4185L49.5 39.4375L40.1275 46.5606V37.4185L38.625 39.4375L29.0858 47.1928ZM42.3592 49.7622H32.1878V52.5445H42.3592V49.7622ZM46.7785 49.7622H56.9499V52.5445H46.7785V49.7622Z" fill="#BFEDC3"/>
<path d="M41.125 25.438C38.425 26.038 36.125 26.1463 35.3125 26.1255C35.3125 25.2713 35.7375 23.038 37.4375 20.938C39.5625 18.313 43.75 17.3755 50.8125 20.938C56.4625 23.788 52.0833 25.5838 49.1875 26.1255C47.625 25.6463 43.825 24.838 41.125 25.438Z" fill="#BFEDC3"/>
<path d="M57.8962 34.8385L57.909 34.7632L34.5266 57.3406L24.8574 67.2246L24.5813 67.5069L24.2428 67.3037L21.7428 65.8037L21.1863 65.4699L21.651 65.0169L66.026 21.7669L66.875 20.9395V22.125V24.1183L67.1521 24.0258L67.668 24.8496L59.0131 33.6968L57.8962 34.8385Z" fill="#BFEDC3" stroke="#FFFFF5"/>
<path fill-rule="evenodd" clip-rule="evenodd" d="M13.1953 44.3672C13.1953 61.8332 27.4793 76.2422 44.9453 76.2422C62.4113 76.2422 76.0703 62.4738 76.0703 45.0078C76.0703 41.3101 75.4357 37.7605 74.2694 34.4622C69.9268 22.1812 58.2136 13.3828 44.4453 13.3828C26.9793 13.3828 13.1953 26.9012 13.1953 44.3672ZM45.2578 74.2422C28.8964 74.2422 14.8203 61.3692 14.8203 45.0078C14.8203 28.6464 28.0839 15.1172 44.4453 15.1172C56.2203 15.1172 67.1016 27.5547 69.0832 29.2484C71.2664 31.1143 74.2694 34.4622 74.2694 34.4622L74.0703 45.0078C74.0703 61.3692 61.6192 74.2422 45.2578 74.2422Z" fill="#BFEDC3"/>
</svg>
