<svg width="90" height="90" viewBox="0 0 90 90" fill="none" xmlns="http://www.w3.org/2000/svg">
<path fill-rule="evenodd" clip-rule="evenodd" d="M55.6247 35.25L44.9995 53.75L33.3983 33.6562C27.0623 23.25 35.3127 12.4375 45.6248 12.4375C55.9369 12.4375 60.7807 26.3194 55.6247 35.25ZM44.9997 28C46.7946 28 48.2497 26.1699 48.2497 24.375C48.2497 22.5801 46.7946 20.6875 44.9997 20.6875C43.2047 20.6875 41.3122 23.0801 41.3122 24.875C41.3122 26.6699 43.2047 28 44.9997 28ZM40.4372 42.75L35.5622 33.875H37.3122L40.9997 41.4375L44.4372 50.8125L40.4372 42.75Z" fill="#BFEDC3"/>
<path fill-rule="evenodd" clip-rule="evenodd" d="M44.875 61.4375L25.875 71.9375L37.6875 60.8125L35.5 58.125L27.1875 50.0625L24.6562 47.4375L22.125 44.8125L25.4699 46.957L36.5915 54.0873L45.1875 57.375L52.875 52L64.125 45.125L67.5625 43.625L64.8125 45.7973L53.25 56.5L48.5625 58.75L65.25 72.375L68.8669 75.056H67.0625L62.9375 72.375L44.875 61.4375Z" fill="#BFEDC3"/>
<path d="M25.875 71.9375L27.875 67.1875L21 75.0625L33.375 72.9375L25.875 71.9375Z" fill="#BFEDC3"/>
<path d="M64.8125 51L67.5625 43.625L64.8125 45.7973V51Z" fill="#BFEDC3"/>
<path d="M64.125 45.125L67.5625 43.625L55.3125 44.4375L64.125 45.125Z" fill="#BFEDC3"/>
<path d="M32.5625 45.7973L22.125 44.8125L25.4699 46.957L32.5625 45.7973Z" fill="#BFEDC3"/>
<path d="M24.6562 47.4375L22.125 44.8125L24.6562 52V47.4375Z" fill="#BFEDC3"/>
<path d="M67.0625 75.056L62.9375 72.375L57.625 72.9375L67.0625 75.056Z" fill="#BFEDC3"/>
<path d="M68.8669 75.056C67.5625 72.5 65.375 69.2708 63.625 66.625L65.25 72.375L68.8669 75.056Z" fill="#BFEDC3"/>
<path d="M45 63.5693C47.5479 63.5693 49.8969 63.217 51.6439 62.6184C52.5125 62.3207 53.2872 61.9437 53.8646 61.4759C54.4337 61.0149 54.9375 60.3556 54.9375 59.5068C54.9375 58.6581 54.4337 57.9988 53.8646 57.5378C53.2872 57.0699 52.5125 56.693 51.6439 56.3953C49.8969 55.7967 47.5479 55.4443 45 55.4443C42.4521 55.4443 40.1031 55.7967 38.3561 56.3953C37.4875 56.693 36.7128 57.0699 36.1354 57.5378C35.5663 57.9988 35.0625 58.6581 35.0625 59.5068C35.0625 60.3556 35.5663 61.0149 36.1354 61.4759C36.7128 61.9437 37.4875 62.3207 38.3561 62.6184C40.1031 63.217 42.4521 63.5693 45 63.5693Z" fill="#BFEDC3" stroke="#FFFFF5" stroke-width="2"/>
<path d="M79.125 42.0625C79.125 43.2394 76.3408 44.1934 72.9062 44.1934C69.4717 44.1934 67.3125 43.2394 67.3125 42.0625C67.3125 40.8857 69.4717 39.9316 72.9062 39.9316C76.3408 39.9316 79.125 40.8857 79.125 42.0625Z" fill="#BFEDC3"/>
<path d="M22.9375 42.0625C22.9375 43.2394 20.5283 44.1934 17.0938 44.1934C13.6592 44.1934 10.875 43.2394 10.875 42.0625C10.875 40.8857 13.6592 39.9316 17.0938 39.9316C20.5283 39.9316 22.9375 40.8857 22.9375 42.0625Z" fill="#BFEDC3"/>
<path d="M22.875 77.3125C22.875 78.4894 20.5283 79.4434 17.0938 79.4434C13.6592 79.4434 10.875 78.4894 10.875 77.3125C10.875 76.1357 13.6592 75.1816 17.0938 75.1816C20.5283 75.1816 22.875 76.1357 22.875 77.3125Z" fill="#BFEDC3"/>
<path d="M78.625 77.3125C78.625 78.4894 76.3408 79.4434 72.9062 79.4434C69.4717 79.4434 66.6875 78.4894 66.6875 77.3125C66.6875 76.1357 69.4717 75.1816 72.9062 75.1816C76.3408 75.1816 78.625 76.1357 78.625 77.3125Z" fill="#BFEDC3"/>
</svg>
