<svg width="90" height="90" viewBox="0 0 90 90" fill="none" xmlns="http://www.w3.org/2000/svg">
<path fill-rule="evenodd" clip-rule="evenodd" d="M11.5 59.75C21.7595 59.2789 32.4996 59.8881 40.625 61.5843C40.9897 61.6604 41.3491 61.7387 41.703 61.8193C41.9965 61.886 42.2862 61.9543 42.5719 62.0241C43.3547 62.2153 44.1076 62.4178 44.8274 62.6316C45.2527 62.4034 45.6845 62.1803 46.1222 61.9628C55.6465 57.2292 68.0006 55.1105 77.923 59.3421C71.75 74.5 56.4496 81.6875 44.9997 81.6875C31.8941 81.6875 16.3887 72.4031 11.5 59.75ZM65.125 73.75C60.5931 69.7216 55.2268 66.7681 49.9217 64.693C49.3007 64.4501 48.6804 64.2192 48.0625 64C48.4492 63.7913 48.836 63.5875 49.2235 63.3888C56.7274 59.5419 64.4765 57.6504 76.125 60.5625C74.1826 64.4751 68.4819 71.0537 65.125 73.75ZM44.562 65.6847C51.1272 67.6876 59.203 70.7237 65.125 73.75C59.7543 77.4298 50.3799 80.125 43.875 80.125C32.8128 79.625 21.0928 71.4784 15.3125 62.6316C17.7628 62.5856 20.1886 62.5959 22.5632 62.6649L36.5 63L44.562 65.6847Z" fill="#BFEDC3"/>
<path d="M40.625 58.9375C40.5104 59.6732 40.35 61.2324 40.625 61.5843C40.9897 61.6604 41.3491 61.7387 41.703 61.8193C41.1404 61.3746 40.7499 59.7128 40.625 58.9375Z" fill="#BFEDC3"/>
<path d="M44.8274 62.6316C44.705 62.4818 44.5445 62.2753 44.3595 62.0241C43.7187 61.1538 42.7846 59.7481 42.125 58.3125C41.9854 59.3361 41.8794 61.5114 42.5719 62.0241C43.3547 62.2153 44.1076 62.4178 44.8274 62.6316Z" fill="#BFEDC3"/>
<path d="M44.3595 62.0241C44.5445 62.2753 44.705 62.4818 44.8274 62.6316C45.2527 62.4034 45.6845 62.1803 46.1222 61.9628C45.9773 61.2981 45.7375 59.6375 45.9375 58.3125C46.1375 56.9875 46.0208 54.4479 45.9375 53.3438C45.7604 53.9583 45.3375 55.7125 45.0625 57.8125C44.7875 59.9125 44.4793 61.4952 44.3595 62.0241Z" fill="#BFEDC3"/>
<path d="M48.0625 64C48.6804 64.2192 49.3007 64.4501 49.9217 64.693C53.0312 64.924 60.275 65.2474 64.375 64.693C68.475 64.1386 71.4583 63.0878 72.4375 62.6316C70.4792 62.8794 65.8875 63.4375 63.1875 63.6875C60.4875 63.9375 56.4375 64.2083 54.75 64.3125L49.2235 63.3888C48.836 63.5875 48.4492 63.7913 48.0625 64Z" fill="#BFEDC3"/>
<path d="M36.3293 67.6596L36.3715 67.6614C36.5495 67.6693 36.7787 67.6794 36.9985 67.7283C37.9213 67.9333 38.8834 67.8804 39.8171 68.0466C40.5085 68.1697 43.9654 69.0625 43.9654 69.0625C43.9654 69.0625 39.241 68.8722 38.1643 68.8722C37.7294 68.8722 37.2014 68.8131 36.7784 68.7191C36.6481 68.6902 36.5018 68.6835 36.2964 68.6741L36.283 68.6735C36.0918 68.6648 35.8401 68.653 35.5975 68.5861C34.1781 68.1945 32.1672 68.3811 30.7603 68.6417C28.7729 69.0097 20.7949 67.6436 20.7949 67.6436C20.7949 67.6436 28.7016 67.8373 30.5755 67.6436C32.4908 67.2889 34.4097 67.5718 36.3293 67.6596Z" fill="#BFEDC3"/>
<path fill-rule="evenodd" clip-rule="evenodd" d="M30.2658 64.9786C31.7883 65.724 32.7431 67.1038 32.9213 67.5284C32.9311 67.5517 32.9409 67.575 32.9506 67.5981C33.0591 67.8565 32.9376 68.154 32.6792 68.2626C32.4208 68.3711 32.1233 68.2496 32.0148 67.9912C32.0061 67.9705 31.9974 67.9499 31.9888 67.9293C31.8106 67.5048 31.4077 66.7392 30.2658 64.9786Z" fill="#BFEDC3"/>
<path fill-rule="evenodd" clip-rule="evenodd" d="M34.9444 64.3125C34.2945 65.5092 34.0163 66.9022 33.3683 68.0447C33.23 68.2885 32.9203 68.3741 32.6765 68.2358C32.4327 68.0975 32.3471 67.7878 32.4854 67.544C33.159 66.3563 34.0458 65.3581 34.9444 64.3125Z" fill="#BFEDC3"/>
<path fill-rule="evenodd" clip-rule="evenodd" d="M45.6885 22.4375C48.25 3.56253 70.0625 2.43752 76.5008 19.25C79.4591 20 83.6875 27.3125 77.1258 33.25C84.0625 32.3751 82.5618 54.4376 68 55.2501C68 55.2501 66.4063 55.2501 65.3282 57.0001C65.3013 56.9907 65.2739 56.9813 65.246 56.9718C65.0235 55.5729 64.5673 52.6681 64.143 49.8724C70.157 47.3703 72.563 42.5626 74.188 38.1251C69.5005 43.5626 66.1255 45.3126 63.5678 45.7501C63.4004 44.2047 63.2521 41.6851 63.0835 38.8226C62.9347 36.296 62.7702 33.5022 62.563 30.8751C66.6568 29.0001 69.8755 25.1876 69.8755 25.1876C69.8755 25.1876 64.2784 28.628 62.1674 29.4106C62.0024 27.2857 61.5554 24.4976 61.1459 21.9435C60.7932 19.7434 60.4683 17.717 60.3755 16.4376C60.245 18.1341 60.3323 20.8352 60.4259 23.7332C60.5237 26.7574 60.6283 29.9961 60.4997 32.5317C59.7083 32.4795 56.8693 32.1751 54.4693 31.3751C55.4199 32.5134 58.3171 33.9411 60.2193 34.6251C60.026 39.2689 60.1082 44.2796 60.3755 45.7501C56.4224 45.7501 53.7707 44.1852 52.6157 42.5806C52.1881 39.6235 50.7847 36.2574 47.2503 31.4375C48.3135 29.5 48.3135 25.4375 45.6885 22.4375ZM52.7362 43.726C52.8635 45.6329 52.6263 47.4195 52.3642 49.393C52.3055 49.8348 52.2456 50.286 52.1883 50.75C59.0635 50.0625 58.0008 56.5833 57.2508 58C57.7719 57.4337 58.3794 57.0405 59.0284 56.7784C59.6831 54.3752 60.5235 50.5034 60.5184 47.5628C56.3771 47.6114 53.8509 45.6643 52.7362 43.726Z" fill="#BFEDC3"/>
<path d="M54.75 72.5045C51.7158 73.2225 48.5003 72.0715 43.5899 73.2225C40.9952 73.8307 36.9984 74.4378 29.4512 73.2225C38.9514 71.9649 37.8356 73.9199 45.1941 71.875L54.75 72.5045Z" fill="#BFEDC3"/>
<path d="M47.1875 23.5L43.0625 14.25L41.5 16.0938L47.1875 26.1875C48.3125 27.0208 50.6375 28.7625 50.9375 29.0625C51.3125 29.4375 49.5 37.4375 49.5 38.3125C49.5 39.1875 53.5625 45.5 53.5625 46.5V51.5625C59.375 47.5 59.4062 40.4375 55.0625 35.875C56.5 27.0625 49.3958 23.2708 47.1875 23.5Z" fill="#FFFFF5"/>
<path fill-rule="evenodd" clip-rule="evenodd" d="M34.9997 60.563C34.9997 58.938 35.9975 56.2809 39.8752 56.5629C42.6252 56.7629 44.1043 55.188 44.5002 54.3755C45.3866 53.3021 46.1052 52.6468 47.5269 52.3838C46.8492 44.2783 45.0165 38.0053 43.9375 35.3998C45.0399 37.1836 46.9469 41.0489 48.162 45.6451C49.27 45.0892 50.724 43.3171 51.3125 42.5005C50.7625 43.9505 49.2659 46.384 48.5864 47.4195C48.9208 48.9852 49.1598 50.6116 49.2502 52.2505C50.5622 53.7505 52.9685 52.5005 52.7502 50.938C57.6872 49.2505 58.6247 39.313 53.4899 36.583C53.2432 36.493 51.9499 36.8005 49.75 38.0005C50.2403 37.4229 51.9988 35.9442 54.1105 35.3998C55.148 32.0206 52.7387 25.4327 47.2502 24.938C46.7997 25.115 46.3868 25.2159 45.9559 25.3212C44.3837 25.7052 42.5707 26.1482 37.8125 30.563C39.8752 26.688 42.0625 24.6255 46.2504 22.7379C39.375 6.31295 16.9375 8.00046 15.1877 26.063C10.7085 30.0838 4.48693 40.0442 13.9369 51.0942C13.2813 54.063 15.6565 55.2817 17.8125 54.3755C17.625 57.2817 21.2813 58.188 23.3747 56.5629C23.9615 59.4661 28.4858 60.2326 30.1904 57.2335C30.3388 54.9506 30.4158 52.178 30.4712 49.1897C22.5484 47.3412 17.8747 42.7505 17.1872 39.7505C18.5872 42.6005 26.6247 46.4959 30.5159 46.4959C30.5237 45.9842 30.5312 45.4688 30.5389 44.9509C30.5917 41.3624 30.6462 37.6564 30.7776 34.2467C27.9999 31.5937 24.6247 27.0005 23.9372 21.8755C24.7879 25.2819 28.993 29.3751 30.9271 31.1249C31.1071 28.067 31.3799 25.4031 31.8124 23.5005L34.0676 49.8803C35.5033 49.7969 38.7497 49.3166 40.2497 48.063C39.4092 49.1354 37.033 51.4336 34.2528 52.0467L34.9746 60.4895C34.9917 60.537 34.9997 60.563 34.9997 60.563Z" fill="#BFEDC3"/>
</svg>
