<svg width="29" height="25" viewBox="0 0 29 25" fill="none" xmlns="http://www.w3.org/2000/svg">
<path fill-rule="evenodd" clip-rule="evenodd" d="M9.99959 9C10.9755 8.02408 12.9996 5.22464 12.9996 3.84448C12.9996 3.28515 12.9094 2.72948 12.7325 2.19886C12.3829 1.14986 13.0886 0 14.2433 0C15.5607 0 16.2265 0.680638 16.6404 1.92235C16.8783 2.63611 16.9996 3.38357 16.9996 4.13594C16.9996 4.88832 16.4996 9 16.4996 9H22.9996H26.9996C28.1042 9 28.9996 9.89543 28.9996 11C28.9996 12.1046 28.1042 13 26.9996 13H25.9996H22.9996H21.9996L25.8746 13.5L25.9996 13C27.1042 13 27.9996 13.8954 27.9996 15C27.9996 16.1046 27.1042 17 25.9996 17H24.9996H21.9996H20.9996L24.8746 17.5L24.9996 17C26.1042 17 26.9996 17.8954 26.9996 19C26.9996 20.1046 26.1042 21 24.9996 21H23.9996H20.9996H19.9996L23.8746 21.5L23.9996 21C25.1042 21 25.9996 21.8954 25.9996 23C25.9996 24.1046 25.1042 25 23.9996 25H22.9996H19.9996H11.9996C10.895 25 9.99959 24.1046 9.99959 23V9ZM2.57229 10C1.43974 10 0.533144 10.9396 0.573567 12.0714L0.93071 22.0714C0.969142 23.1475 1.85265 24 2.92944 24H7.99959V10H2.57229Z" fill="#BFEDC3"/>
</svg>
