<svg width="16" height="28" viewBox="0 0 16 28" fill="none" xmlns="http://www.w3.org/2000/svg">
<path d="M7.5085 19.3629C6.23401 19.3629 5.16317 18.2766 5.35916 16.9621C5.4613 16.2772 5.61284 15.6787 5.8138 15.1667C6.22245 14.1254 6.96764 13.103 8.04936 12.0995C9.1431 11.0833 9.87025 10.2616 10.2308 9.63441C10.5914 8.99462 10.7717 8.32348 10.7717 7.62097C10.7717 5.5009 9.8342 4.44086 7.95921 4.44086C7.0698 4.44086 6.35466 4.72939 5.8138 5.30645C5.76482 5.35874 5.718 5.41291 5.67335 5.46896C4.87291 6.4738 3.98581 7.6586 2.73379 7.6586H2.08813C0.804193 7.6586 -0.282021 6.54306 0.0656049 5.25302C0.411767 3.96842 1.0478 2.89483 1.9737 2.03226C3.44003 0.677419 5.4352 0 7.95921 0C10.5073 0 12.4844 0.646057 13.8906 1.93817C15.2969 3.21774 16 5.03047 16 7.37634C16 8.44265 15.7716 9.45251 15.3149 10.4059C14.8582 11.3468 14.0589 12.3943 12.9171 13.5484L11.4568 14.9973C10.5433 15.9131 10.0205 16.9857 9.88828 18.2151C9.84771 18.8608 9.33406 19.3629 8.71406 19.3629H7.5085ZM4.678 25.1398C4.678 24.2993 4.94843 23.6093 5.48929 23.0699C6.04217 22.5179 6.74528 22.2419 7.59864 22.2419C8.452 22.2419 9.14911 22.5179 9.68997 23.0699C10.2428 23.6093 10.5193 24.2993 10.5193 25.1398C10.5193 25.9677 10.2489 26.6514 9.70799 27.1909C9.17915 27.7303 8.47604 28 7.59864 28C6.72125 28 6.01212 27.7303 5.47126 27.1909C4.94242 26.6514 4.678 25.9677 4.678 25.1398Z" fill="#BFEDC3"/>
</svg>
