<svg width="199" height="194" viewBox="0 0 199 194" fill="none" xmlns="http://www.w3.org/2000/svg">
<rect x="127" y="5" width="10" height="189" fill="#BFEDC3"/>
<rect x="127" y="5" width="10" height="55" fill="#4CB461"/>
<path d="M108.776 46.536C108.392 45.496 107.592 44.68 106.36 44.68C104.568 44.68 103.56 46.28 103.56 48.056C103.56 49.832 104.616 51.384 106.36 51.384C107.592 51.384 108.392 50.616 108.776 49.592C109.16 50.984 110.248 52.104 111.864 52.104C113.976 52.104 115.24 50.216 115.24 48.056C115.24 45.88 113.976 43.992 111.864 43.992C110.216 44.008 109.176 45.112 108.776 46.536ZM108.488 48.072C108.488 49.352 107.752 50.648 106.392 50.648C104.984 50.648 104.232 49.336 104.232 48.056C104.232 46.744 104.968 45.448 106.376 45.448C107.768 45.448 108.488 46.744 108.488 48.072ZM114.536 48.056C114.536 49.672 113.592 51.304 111.848 51.304C110.056 51.304 109.16 49.704 109.16 48.072C109.16 46.424 110.056 44.792 111.848 44.792C113.592 44.792 114.536 46.424 114.536 48.056ZM103.656 37.6057C103.656 39.9257 105.128 41.7337 107.512 41.7337L111.32 41.7337C113.72 41.7337 115.176 39.9257 115.176 37.6057C115.176 35.3177 113.72 33.5097 111.32 33.5097L107.512 33.5097C105.128 33.5097 103.656 35.3177 103.656 37.6057ZM114.44 37.6057C114.44 39.0777 113.752 40.2617 112.52 40.7257C112.104 40.8857 111.656 40.9657 111.16 40.9657L107.672 40.9657C107.176 40.9657 106.728 40.8857 106.328 40.7257C105.064 40.2617 104.376 39.0777 104.376 37.6057C104.376 36.1497 105.064 34.9657 106.328 34.5017C106.728 34.3417 107.176 34.2617 107.672 34.2617L111.16 34.2617C111.656 34.2617 112.104 34.3417 112.52 34.5017C113.752 34.9657 114.44 36.1497 114.44 37.6057ZM103.656 26.8208C103.656 29.1408 105.128 30.9488 107.512 30.9487L111.32 30.9487C113.72 30.9487 115.176 29.1407 115.176 26.8207C115.176 24.5327 113.72 22.7247 111.32 22.7247L107.512 22.7247C105.128 22.7247 103.656 24.5327 103.656 26.8208ZM114.44 26.8207C114.44 28.2927 113.752 29.4767 112.52 29.9407C112.104 30.1007 111.656 30.1807 111.16 30.1807L107.672 30.1807C107.176 30.1807 106.728 30.1007 106.328 29.9407C105.064 29.4767 104.376 28.2927 104.376 26.8208C104.376 25.3647 105.064 24.1807 106.328 23.7167C106.728 23.5568 107.176 23.4767 107.672 23.4767L111.16 23.4767C111.656 23.4767 112.104 23.5567 112.52 23.7167C113.752 24.1807 114.44 25.3647 114.44 26.8207Z" fill="#0C0C0C"/>
<path d="M156.208 163.312C159.088 163.312 159.376 166.176 157.728 168L152.784 173.824V174H159.696V173.28H156.336L154.048 173.328L156.192 170.88C156.944 170 157.568 169.232 158.288 168.416C160.32 166.064 159.568 162.576 156.192 162.64C154.064 162.656 153.024 163.696 153.024 165.6H153.712C153.712 164.064 154.592 163.312 156.208 163.312ZM166.097 162.656C163.777 162.656 161.969 164.128 161.969 166.512V170.32C161.969 172.72 163.777 174.176 166.097 174.176C168.385 174.176 170.193 172.72 170.193 170.32V166.512C170.193 164.128 168.385 162.656 166.097 162.656ZM166.097 173.44C164.625 173.44 163.441 172.752 162.977 171.52C162.817 171.104 162.737 170.656 162.737 170.16V166.672C162.737 166.176 162.817 165.728 162.977 165.328C163.441 164.064 164.625 163.376 166.097 163.376C167.553 163.376 168.737 164.064 169.201 165.328C169.361 165.728 169.441 166.176 169.441 166.672V170.16C169.441 170.656 169.361 171.104 169.201 171.52C168.737 172.752 167.553 173.44 166.097 173.44ZM175.762 163.312C178.642 163.312 178.93 166.176 177.282 168L172.338 173.824V174H179.25V173.28H175.89L173.602 173.328L175.746 170.88C176.498 170 177.122 169.232 177.842 168.416C179.874 166.064 179.122 162.576 175.746 162.64C173.618 162.656 172.578 163.696 172.578 165.6H173.266C173.266 164.064 174.146 163.312 175.762 163.312ZM185.652 162.656C183.332 162.656 181.524 164.128 181.524 166.512V170.32C181.524 172.72 183.332 174.176 185.652 174.176C187.94 174.176 189.748 172.72 189.748 170.32V166.512C189.748 164.128 187.94 162.656 185.652 162.656ZM185.652 173.44C184.18 173.44 182.996 172.752 182.532 171.52C182.372 171.104 182.292 170.656 182.292 170.16V166.672C182.292 166.176 182.372 165.728 182.532 165.328C182.996 164.064 184.18 163.376 185.652 163.376C187.108 163.376 188.292 164.064 188.756 165.328C188.916 165.728 188.996 166.176 188.996 166.672V170.16C188.996 170.656 188.916 171.104 188.756 171.52C188.292 172.752 187.108 173.44 185.652 173.44ZM192.133 168.48H194.533V170.864H195.189V168.48H197.573V167.824H195.189V165.408H194.533V167.824H192.133V168.48Z" fill="#0C0C0C"/>
<path d="M115 13.936L107.976 13.936L107.976 9.552L107.288 9.552L107.288 14.704L115 14.704L115 13.936ZM113.608 2.466C114.824 2.514 115.288 2.178 115.08 0.866L114.552 0.897999C114.68 1.922 114.152 1.874 113.224 1.874L109.704 1.858C107.784 1.858 107.112 3.442 107.112 5.106C107.112 6.114 107.352 7.138 107.752 7.858L108.392 7.682C108.008 7.026 107.8 6.098 107.8 5.202C107.8 3.97 108.184 2.594 109.688 2.594L110.872 2.594C110.408 3.474 110.2 4.498 110.2 5.458C110.2 7.01 111.048 8.45 112.792 8.45C114.264 8.45 115.128 7.058 115.128 5.714C115.128 4.434 114.728 3.074 113.608 2.466ZM112.584 2.594C113.912 2.93 114.472 4.338 114.472 5.586C114.472 6.658 113.944 7.65 112.76 7.698C111.48 7.746 110.84 6.514 110.84 5.362C110.824 4.45 111.096 3.426 111.544 2.594L112.584 2.594Z" fill="#0C0C0C"/>
<rect x="77" y="60" width="10" height="134" fill="#BFEDC3"/>
<path d="M53.768 106.944L59.32 110.656C59.976 111.12 60.696 111.344 61.512 111.344C63.848 111.344 65.128 109.504 65.128 107.344C65.128 105.168 63.848 103.328 61.512 103.328C59.256 103.328 57.864 105.12 57.912 107.248C57.912 107.904 58.072 108.64 58.392 109.2L53.768 106.032L53.768 106.944ZM64.424 107.344C64.424 109.072 63.368 110.544 61.512 110.544C59.656 110.544 58.616 109.088 58.616 107.36C58.616 105.616 59.656 104.112 61.512 104.112C63.368 104.112 64.424 105.584 64.424 107.344ZM53.656 97.1839C53.656 99.5039 55.128 101.312 57.512 101.312L61.32 101.312C63.72 101.312 65.176 99.5039 65.176 97.1839C65.176 94.8959 63.72 93.0879 61.32 93.0879L57.512 93.0879C55.128 93.0879 53.656 94.8959 53.656 97.1839ZM64.44 97.1839C64.44 98.6559 63.752 99.8399 62.52 100.304C62.104 100.464 61.656 100.544 61.16 100.544L57.672 100.544C57.176 100.544 56.728 100.464 56.328 100.304C55.064 99.8399 54.376 98.6559 54.376 97.1839C54.376 95.7279 55.064 94.5439 56.328 94.0799C56.728 93.9199 57.176 93.8399 57.672 93.8399L61.16 93.8399C61.656 93.8399 62.104 93.9199 62.52 94.0799C63.752 94.5439 64.44 95.7279 64.44 97.1839ZM53.656 86.3989C53.656 88.7189 55.128 90.5269 57.512 90.5269L61.32 90.5269C63.72 90.5269 65.176 88.7189 65.176 86.3989C65.176 84.1109 63.72 82.3029 61.32 82.3029L57.512 82.3029C55.128 82.3029 53.656 84.1109 53.656 86.3989ZM64.44 86.3989C64.44 87.8709 63.752 89.0549 62.52 89.5189C62.104 89.6789 61.656 89.7589 61.16 89.7589L57.672 89.7589C57.176 89.7589 56.728 89.6789 56.328 89.5189C55.064 89.0549 54.376 87.8709 54.376 86.3989C54.376 84.9429 55.064 83.7589 56.328 83.2949C56.728 83.1349 57.176 83.0549 57.672 83.0549L61.16 83.0549C61.656 83.0549 62.104 83.1349 62.52 83.2949C63.752 83.7589 64.44 84.9429 64.44 86.3989Z" fill="#0C0C0C"/>
<path d="M65 73.936L57.976 73.936L57.976 69.552L57.288 69.552L57.288 74.704L65 74.704L65 73.936ZM63.608 62.466C64.824 62.514 65.288 62.178 65.08 60.866L64.552 60.898C64.68 61.922 64.152 61.874 63.224 61.874L59.704 61.858C57.784 61.858 57.112 63.442 57.112 65.106C57.112 66.114 57.352 67.138 57.752 67.858L58.392 67.682C58.008 67.026 57.8 66.098 57.8 65.202C57.8 63.97 58.184 62.594 59.688 62.594L60.872 62.594C60.408 63.474 60.2 64.498 60.2 65.458C60.2 67.01 61.048 68.45 62.792 68.45C64.264 68.45 65.128 67.058 65.128 65.714C65.128 64.434 64.728 63.074 63.608 62.466ZM62.584 62.594C63.912 62.93 64.472 64.338 64.472 65.586C64.472 66.658 63.944 67.65 62.76 67.698C61.48 67.746 60.84 66.514 60.84 65.362C60.824 64.45 61.096 63.426 61.544 62.594L62.584 62.594Z" fill="#0C0C0C"/>
<rect x="27" y="94" width="10" height="100" fill="#BFEDC3"/>
<path d="M4.504 171.952L4.504 166.192L3.8 166.192L3.8 172.656L8.92 172.656C8.648 171.68 8.424 170.496 8.488 169.408C8.584 167.744 9.336 166.304 11.496 166.304C13.48 166.304 14.44 167.904 14.44 169.376C14.44 170.848 13.832 171.952 12.248 172.288L12.248 173.008C14.168 172.704 15.16 171.28 15.16 169.408C15.16 167.184 13.624 165.536 11.496 165.536C8.888 165.536 7.912 167.392 7.816 169.392C7.768 170.272 7.864 171.168 8.12 171.952L4.504 171.952ZM3.656 159.215C3.656 161.535 5.128 163.343 7.512 163.343L11.32 163.343C13.72 163.343 15.176 161.535 15.176 159.215C15.176 156.927 13.72 155.119 11.32 155.119L7.512 155.119C5.128 155.119 3.656 156.927 3.656 159.215ZM14.44 159.215C14.44 160.687 13.752 161.871 12.52 162.335C12.104 162.495 11.656 162.575 11.16 162.575L7.672 162.575C7.176 162.575 6.728 162.495 6.328 162.335C5.064 161.871 4.376 160.687 4.376 159.215C4.376 157.759 5.064 156.575 6.328 156.111C6.728 155.951 7.176 155.871 7.672 155.871L11.16 155.871C11.656 155.871 12.104 155.951 12.52 156.111C13.752 156.575 14.44 157.759 14.44 159.215ZM3.656 148.43C3.656 150.75 5.128 152.558 7.512 152.558L11.32 152.558C13.72 152.558 15.176 150.75 15.176 148.43C15.176 146.142 13.72 144.334 11.32 144.334L7.512 144.334C5.128 144.334 3.656 146.142 3.656 148.43ZM14.44 148.43C14.44 149.902 13.752 151.086 12.52 151.55C12.104 151.71 11.656 151.79 11.16 151.79L7.672 151.79C7.176 151.79 6.728 151.71 6.328 151.55C5.064 151.086 4.376 149.902 4.376 148.43C4.376 146.974 5.064 145.79 6.328 145.326C6.728 145.166 7.176 145.086 7.672 145.086L11.16 145.086C11.656 145.086 12.104 145.166 12.52 145.326C13.752 145.79 14.44 146.974 14.44 148.43Z" fill="#0C0C0C"/>
<path d="M15 135.936L7.976 135.936L7.976 131.552L7.288 131.552L7.288 136.704L15 136.704L15 135.936ZM11.128 122.444C5.8 122.444 5.8 130.54 11.128 130.54C16.44 130.54 16.44 122.444 11.128 122.444ZM11.128 129.772C6.728 129.772 6.728 123.212 11.128 123.212C15.528 123.212 15.496 129.772 11.128 129.772ZM7.976 114.736L15 114.736L15 113.984L7.288 113.984C7.288 115.68 7.288 117.36 7.288 119.056L12.6 119.696C13.864 119.856 14.664 120.016 14.392 121.552L15 121.552C15.304 119.568 14.488 119.168 12.648 118.96L7.976 118.4L7.976 114.736ZM11.128 103.656C5.8 103.656 5.8 111.752 11.128 111.752C16.44 111.752 16.44 103.656 11.128 103.656ZM11.128 110.984C6.728 110.984 6.728 104.424 11.128 104.424C15.528 104.424 15.496 110.984 11.128 110.984ZM9.224 95.5994C7.432 95.5994 7.288 97.3594 7.288 98.7194L7.288 101.423C9.88 101.423 12.456 101.423 15.016 101.423L15.016 98.4474C15.016 96.9594 14.776 95.1194 12.856 95.1194C11.72 95.1194 11.112 95.7274 10.888 96.8634C10.648 96.0314 10.136 95.5994 9.224 95.5994ZM14.344 100.671L11.304 100.671L11.304 98.6714C11.304 97.5194 11.272 95.8874 12.824 95.8874C14.296 95.8874 14.344 97.3914 14.344 98.4954L14.344 100.671ZM10.648 100.671L7.96 100.671L7.96 98.6874C7.96 97.6954 7.976 96.3514 9.288 96.3514C10.6 96.3514 10.648 97.6954 10.648 98.6874L10.648 100.671Z" fill="#0C0C0C"/>
</svg>
