<svg xmlns="http://www.w3.org/2000/svg" xmlns:xlink="http://www.w3.org/1999/xlink" width="326" height="128" fill="none" xmlns:v="https://vecta.io/nano"><path d="M69.213 110.991c1.802 1.053 5.611 4.036 6.46 7.565l.967-.285c-.561-1.512-.192-3.179.082-3.858.048.864.279 2.582.832 3.596.114.208.241.387.383.523l-1.173.035-.123-.296-.967.285.005.024-1.126.811s.009-.159-.063-.486l-.981.214.154.685c-.209.858-.89 2.035-1.945-.119l-.882.387.034.254c-.117.72-.87.908-1.232.912a4.22 4.22 0 0 1-.202-.529c-.444-1.447-.099-2.98.161-3.625-.021 1.184.663 2.415 1.119 3.042l.12-.054-.383-2.867 1.265 2.48c-.118-2.471-1.293-4.257-1.865-4.842.964.344 2.933 1.659 3.656 4.276.226-.037.509-.088.981-.214-.216-.989-1.161-3.521-5.277-7.914z" fill="#4ba25c"/><path d="M117 111.75l-46 11.375V127l74.875.25v-21.562l-1.906.328L117 111.75z" fill="#3f834c"/><path d="M81.375 117.51c-.034-.053-.016-.179.057-.358.391-.967 2.362-3.486 6.314-4.53-1.851.887-2.935 2.297-3.76 3.784l-.486.933c-.894 1.812-2.257.85-2.125.171zm4.923-1.773c.543-1.077 1.192-2.17 2.118-2.931-.208 1.272-.807 2.051-.992 2.602l-1.721 1.555.595-1.226zm2.918-.882c-.028-1.025.37-2.62.37-2.62l.67 2.282.21.716s-.41.373-.739.451c-.366.088-.497-.292-.512-.829z" fill="#4ba25c"/><path fill-rule="evenodd" d="M239.409 108.042l6.841 1.208v8.875l-7.165-.762.324-9.321zm-95.393-1.995l.46 6.496c-21.814 2.048-42.538 5.301-56.903 8.668-6.3 1.037-9.761.508-14.073 3.289 4.781 0 8.567-2.119 14.073-3.289 13.677-1.523 35.497-4.356 57.095-5.96l.285 4.53-43.015 5.657 46.269-4.939.543 6.501h-3.25-92c17.882-9.404 52.255-17.405 90.516-20.953zM238.75 127h7.5v-4.437c-2.07-.289-4.524-.593-7.315-.897L238.75 127z" fill="url(#A)"/><path d="M140.875 98.267c-2.047 1.5-3.594 5.282-3.691 8.508.003.024 2.285-.149 2.285-.149l1.812-.203c.362-.028.947-.044 1.25-.125.688 0 1.25 0 1.437-.125-.124-.891-.921-2.083-1.568-2.5.241.828.336 1.878.131 2.625l-.888-2.208-.362 2.333c-.766-2.352-.243-4.005.084-4.754-.779.664-1.951 2.421-1.896 4.957-.149-1-1.031-4.25 1.406-8.359z" fill="#4cad60"/><path d="M145.5 84.07l9.058-3.085L157.625 127H145.5V84.07z" fill="#b11e1e"/><path d="M179.875 28.5l27.75-14.875-19.563 17.625L184.875 63l-6.25.875 1.25-35.375z" fill="#791919"/><path d="M194.375 29.688H216.5l-1.125 13.938L200.125 48l-5.75-18.312z" fill="url(#B)"/><path d="M145.25 60.125L178.75 20 209.5 7.625l-1 4.375-27.812 15.938L178 66l-2 9.125-30.75-6.375v-8.625z" fill="#570e0e"/><path d="M238.938 51.75l-6.75-23.5-23.563-20.031-.437 3.844 20.25 20.5 8.5 27.313 2 .5V51.75z" fill="#751616"/><path d="M176.188 72.313l1.5-9.875 2.937 64.564H168.5l7.688-54.689zm46.187 9.132l9.058-3.085L228.75 127h-12.125l5.75-45.554z" fill="#b11e1e"/><path d="M183.375 63.875l43 .563-5.25 62.555h-15.75-22V63.875z" fill="url(#C)"/><path d="M237.961 96.852l2.398-1.711-1.047 31.797h-1.624l.273-30.086z" fill="#3f834c"/><g fill-rule="evenodd"><path d="M212.781 36.688c-.352-3.312-2.954-5.766-6.045-5.684l.311 1.794-1.002-1.735c-2.912.426-5.313 3.009-5.36 6.192l12.096-.567zm.091.594l-12.185.238a6.54 6.54 0 0 0 .755 2.877l2.308-.318-2 .844c1.179 1.818 3.196 3.008 5.325 2.952 3.263-.086 5.892-3.005 5.797-6.592z" fill="url(#D)"/><path d="M208.625 11.688L179.5 27.5l-2 33V127h7.5l1.5-53.5 1.5 1 .443 46.501L225 72.5V76l-36.5 51h29l3.25-41.25 2.625-2.875L220.75 127h.75l3.5-45-1 45h14.5V60.5L228 30l-19.375-18.312zM185 66.188V70.5h40V68l-40-1.812zM181.75 29l25.188-14.75-22.563 16.25-1.875 31.469-2.625.937L181.75 29zm24.96 1.003c3.879-.102 7.055 3.179 7.162 7.252s-2.891 7.516-6.771 7.618c-3.863.102-7.306-3.238-7.414-7.328-.108-4.106 3.175-7.441 7.023-7.542z" fill="url(#D)"/><path d="M175.5 127l1.438-63.156-2.153.547-1.223 5.421-.312-5.031L145.5 68v59h3.75V87.25l3.875 39.75H175.5z" fill="url(#D)"/></g><path d="M172.5 60.5l-33.5 6L149.25 29l59.781-25L238.5 27.5l9.875 33H238.5l-7-31.5-22.469-19.969L179.5 27.5l-7 33z" fill="#7b5d65"/><path d="M172.5 60.5l-33.5 6 8.781-32.281L179.5 27.5l-7 33zM238.969 29l9.406 31.5H238.5l-7-31.5h7.469z" fill="#655059"/><path d="M147.781 34.219L149.25 29l10.25-.508 32.25-15.867-28.307 15.671L179.5 27.5l-10.638 2.253-2.846 2.122v-1.519l-13.484 2.856-2.907 8.288 1.19-7.924-3.034.643z" fill="#7d6e75"/><path d="M241.257 94.485l-.991.702-1.766 31.811h24.012l-1.907-1.949a4 4 0 0 1 .313-5.882l.379-.312c2.425-2.002 1.697-5.892-1.288-6.881l-2.321-.77a4 4 0 0 1-2.726-3.454l-.203-2.359a4 4 0 0 0-3.232-3.586l-1.35-.258c-1.823-.35-3.114-1.986-3.028-3.841.142-3.108-3.354-5.019-5.892-3.22z" fill="url(#E)"/><path d="M243.139 108.88c-1.06-1.718-.527-3.97 1.191-5.03 1.061 1.718.527 3.97-1.191 5.03zm.718 1.208c1.526-1.321 3.834-1.155 5.156.371-1.526 1.321-3.835 1.155-5.156-.371zm1.554-1.834c.346-1.989 2.238-3.321 4.227-2.976-.345 1.989-2.238 3.321-4.227 2.976z" fill="#51b966"/><g fill="#3f834c"><ellipse rx="2.938" ry=".625" transform="matrix(.973126 -.230272 .230271 .973127 89.5005 118.311)"/><ellipse cx="115.043" cy="119.557" rx="2.167" ry=".625" transform="rotate(356.53 115.043 119.557)"/><ellipse cx="142.856" cy="108.247" rx="2.167" ry=".625" transform="rotate(356.53 142.856 108.247)"/><ellipse cx="141.22" cy="111.386" rx="1.611" ry=".465" transform="rotate(356.53 141.22 111.386)"/><ellipse cx="128.2" cy="113.359" rx="6.999" ry=".554" transform="rotate(356.53 128.2 113.359)"/><ellipse cx="109.592" cy="114.542" rx="3.221" ry=".625" transform="rotate(356.53 109.592 114.542)"/><ellipse cx="93.749" cy="114.542" rx="3.221" ry=".625" transform="rotate(356.53 93.749 114.542)"/></g><path d="M132.894 110.742h-3.535l-.161-2.413-.517-10.848 3.874 2.149.009.302.174 6.232-.377 1.426.423.225-.253 1.236.304.563.059 1.128z" fill="url(#F)"/><path d="M109.797 97.781c.45-2.534.193-6.797.193-6.797l-3.828-1.083-3.303-.935-4.878-1.38c0 .988.121 1.875.321 2.67.773 3.066 2.733 4.774 3.553 5.727 0 0 3.68 5.998 4.068 8.796 2.542 3.299 1.791 7.053 1.791 7.053h4.032s-1.756-4.254-1.368-7.652c.206-1.808-.193-3.202-.427-4.671a10.8 10.8 0 0 1-.154-1.727z" fill="url(#F)"/><path d="M94.508 98.181c-.451-2.534-.194-6.797-.194-6.797l3.988-1.129 4.557-1.29 3.464-.98c0 .686-.058 1.324-.161 1.915-.615 3.544-2.827 5.453-3.713 6.481 0 0-3.68 5.997-4.067 8.796-2.41 3.199-2.13 7.053-2.13 7.053h-3.693s1.404-3.255 1.017-6.653c-.083-.73-.038-1.478.068-2.226l.402-2.094c.235-1.082.463-2.127.463-3.077z" fill="url(#F)"/><path d="M75.901 95.382s.44-.637.773-1l-1.039-.212s-.508.212-.739.55c.085-.55 1.32-1.362 1.32-1.362-2.228-.412-2.458 1.499-1.864 1.924l.92.707c.329-.352.63-.607.63-.607z" fill="url(#F)"/><path d="M134.419 100.811c.376 1.65.977 2.351 1.308 2.568l-.78-4.95c0-4.796 1.043-10.299 1.573-14.31-.421 2.943-1.098 5.36-1.931 7.663-.31 2.717-.492 4.171-.484 6.081-1.441 2.949-.068 6.067.435 6.691-.738-2.036-.69-3.429-.435-4.373.045 1.768 0 2.012.435 3.399 0 0 .073-1.118-.121-2.768z" fill="url(#F)"/><path fill-rule="evenodd" d="M109.951 99.508a10.8 10.8 0 0 1-.154-1.727c.45-2.534.193-6.797.193-6.797l-3.828-1.083c.103-.592.161-1.229.161-1.915l-3.464.98-4.878-1.38c0 .988.121 1.875.321 2.67l-3.988 1.129s-.257 4.263.194 6.797c0 .95-.227 1.995-.463 3.077l-.402 2.094c2.828 1.082 5.675 1.363 7.994 1.064 0 0 .391-.069.557-.225.262-.245.121-.987.121-.987a.94.94 0 0 0 .23.612l.316-.827c.126-.51-.323-1.44-.546-1.822.315.188.654.773.799 1.212l.137-.3c.311-.695.57-1.274 1.316-1.499 1.498-.451 3.54-.809 5.384-1.072zm19.747 7.244l-.5 1.577-.517-10.848 3.874 2.149.009.302-2.866 6.82z" fill="url(#F)"/><path d="M128.681 97.481l3.874 2.149.009.302.257-.614c.305-.609.279-1.12.218-1.762-.02-.214.261-1.037.255-1.249l-1.235 1.974 1.077-2.636 1.145-3.003.001-.002.307-.858c.833-2.303 1.51-4.719 1.931-7.663l.105-.787.288-3.342c.31-5.917-4.196-8.863-6.392-9.196l-6.391 1.2c-3.106.207-5.62.468-8.111.726-5.216.542-10.331 1.073-20.556 1.073l-2.518 1.599c-3.734.642-8.656 6.407-10.931 10.783l.004.025.004.023c.026.17.037.244-.074.502-.272-.094-.339.175-.272.244l.024.051c.106.226.225.48-.09.637-.074.174-.435.572-.563.706.133.081.223.174.17.337-.025.076-.071.104-.119.133-.078.047-.159.096-.159.354l-1.383 2.697a1.94 1.94 0 0 1 1.383.552c-.809-.12-1.499.05-1.743.15 0 0-1.698.902-2.52 1.799-.332.363-.773 1-.773 1s-.3.254-.63.607c-.274.293-.567.654-.726.993-.397.846-.282 2.26-.221 2.79.016.14.044.278.079.414l.915 3.619c.129.512.168 1.044.115 1.57l-.439 4.304c-.072.709.319 1.382.96 1.65l.72.3h3.295l1.32-1.627s.52-.4.738-.8c.069.269-.218.675-.218.675 1.016-.28 2.027-.925 2.589-1.283l.214-.135.143-.203c.03-.051.061-.101.099-.141.069-.071.309.15.309.15s0-.518.103-.737.212.281.212.281.204-.448.188-.55c.692-.988 1.021-2.111 1.277-3.079 0 0 .254-.725.254-1.037.26.184.12.824.12.824 1.852-.766 3.609-1.649 4.795-3.323-.303.824-.876 1.58-.876 1.58a18.19 18.19 0 0 0 2.409 1.129c.1-.703.253-1.406.402-2.094.235-1.082.463-2.127.463-3.077-.451-2.534-.194-6.797-.194-6.797l3.988-1.129c-.2-.795-.321-1.682-.321-2.67l4.878 1.38 3.464-.98c0 .686-.058 1.324-.161 1.915l3.828 1.083s.257 4.263-.193 6.797a10.8 10.8 0 0 0 .154 1.727c2.447-.349 4.543-.527 4.543-.527a5 5 0 0 0 .496.462c.344.376.46 1.237.46 1.237s.29 0 .448-.55c.121.475.46.55.46.55s.036-.365.206-.425c.178-.063.217.175.217.175.23-.565.771-1.078 1.259-1.449 0 0 4.613-2.174 7.155-4.448-.293.577-.891 1.393-.891 1.393l.213.993.12-.255.473 1.242.481.268a10.36 10.36 0 0 0 1.468 1.556c-.988-1.679-1.21-3.913-1.21-4.798s.593-2.174.593-2.174v.987c0 3.333.272 4.504.559 5.734l.058.251c0 .494-1.186 7.546-1.186 7.546l-1.889 3.899h4.31l.904-2.847-.517-10.848z" fill="url(#F)"/><path d="M111.746 111.831h-4.032l-.199 1.876v.984h.946v-.984l.378.984 1.767.102 1.468-.307-.634-2.255.306-.4z" fill="url(#F)"/><path d="M96.251 112.231h-3.693l-1.324 1.681v.451l.876.328.448-.779v.983h1.085l2.15-.204.199-1.927.259-.533z" fill="url(#F)"/><path d="M132.894 110.742h-3.535s-.232.798-.277 1.325c-.034.383 0 .984 0 .984h.972v-.666l.12-.318.099.671.079.313h2.033c.253 0 .491-.115.648-.313 0 0 .049-.476-.249-1.542l.11-.454z" fill="url(#F)"/><path d="M128.294 111.176h-4.31s-1.088 1.322-1.477 2.08c-.114.223-.097.697-.097.697s.654.131.933 0c.07-.513.318-.851.318-.851s-.01.62.109.933c.407.205 2.581.399 3.296 0 .546-1.517.546-2.31.546-2.31l.682-.549z" fill="url(#F)"/><path d="M81.306 101.327c.366.447.235 1.159-.293 1.591s-1.252.42-1.618-.027c.471-.338.999-.827.999-.827l.911-.737z" fill="#9d9d9d"/><path d="M95.531 85.406c-.225-3.55.698-6.542 1.188-7l7.094.344c-.427.271-1.769.981-3.719 1.656s-3.854 3.781-4.563 5zm-4.749-3.687c2.525-3.2 7.052-4.792 9-5.188l3.563.969h4.125l5.906 1.406c.525.125.448-.885.344-1.406l-1.531-2.844 11.437-1.312 7.219-1.688-6.813.406-23.562 1.719h-5.125s-1.783 1.398-2.781 2.438c-1.77 1.843-2.937 4.167-3.437 5.5s-.869 3.2 1.656 0z" fill="#fffff5"/><path fill-rule="evenodd" d="M125.424 94.78c-2.553 2.213-7.186 4.329-7.186 4.329-.491.361-1.034.86-1.265 1.41 0 0-.04-.231-.219-.17-.171.058-.206.413-.206.413s-.341-.073-.463-.535c-.158.535-.449.535-.449.535s-.117-.838-.463-1.204c-.227-.24-.498-.45-.498-.45l-3.874.421.08-1.807-.443-.694c-.404-.621-.734-1.128-.843-1.647l.532 2.609v1.63h0c.033.298.089.591.145.885h0c.215 1.125.433 2.267.268 3.662-.389 3.308 1.375 6.81 1.375 6.81h-4.05s.754-3.016-1.799-6.226c-.15-1.051-.793-2.566-1.526-4.03l-.028.012c-.495-.458-.781-1.149-1.179-2.109l-.831-1.875c-2.3-2.095-4.754-6.98-4.754-8.171-.122 2.943 1.946 6.056 4.357 8.082.823 1.525 1.672 4.223 1.565 4.758-.013.062-.015.107-.009.137-.098.175-.186.367-.28.568h0l-.136.292c-.146-.428-.487-.997-.803-1.179.224.371.675 1.276.548 1.773l-.317.805c0-.365-.231-.596-.231-.596s.141.722-.122.96c-.167.152-.559.219-.559.219-.945.118-1.978.143-3.061.061-.782-.101-3.722-.51-4.969-1.096-.007-.003-.013-.006-.02-.01 1.435.237 3.399-.211 4.025-1.675-.596.495-1.739.495-1.739.495-.129.562-.591 1.187-2.57 1.074-.711-.277-1.419-.604-2.116-.983 0 0 .465-.594.779-1.296.042-.055.079-.112.112-.169l-.028-.032.016-.041-.023.032c-.334-.379-.644-.48-.957-.581-.334-.108-.67-.217-1.039-.667-.997.693-1.488-1.483-1.488-1.483s-.276 2.419 2.156 2.772c-.164 1.316-1.804 1.304-2.127 1.301h-.029c-.956-1.799-2.522-2.414-2.522-2.414s2.138 1.94 1.858 3.253c.706-.195 2.472-.684 3.521-1.451-1.14 1.154-2.62 1.852-4.167 2.472 0 0 .141-.623-.12-.802 0 .304-.255 1.009-.255 1.009-.257.943-.588 2.036-1.283 2.998.017.099-.188.535-.188.535s-.109-.487-.213-.274-.103.717-.103.717-.241-.215-.31-.145a.7.7 0 0 0-.1.137l-.144.197-.215.132c-.564.348-1.58.975-2.6 1.248 0 0 .288-.395.219-.657-.219.39-.741.779-.741.779l-1.326 1.583h-2.108c.072-.203.132-.434.152-.669-.177-.2-.457-.434-.634-.452-.141-.015-.269.063-.41.147-.108.066-.224.135-.356.169a1.92 1.92 0 0 0 .613-1.213l-.175-.064c-1.103-.347-1.791.146-2.078.509-.011-.106-.011-.215 0-.325l.441-4.188a4.28 4.28 0 0 0-.115-1.528l-.762-2.921c.251-.342.817-.791 1.445-.606 1.07.317 2.322-.608 2.493-1.313l.037-.159c.15-.648.292-1.258 1.288-1.617 1.089-.392 1.047-1.103 1.009-1.747h0l-.011-.223c-.718.761-1.127.532-1.459.346-.23-.129-.423-.237-.657.019-.672.739-2.787 1.519-3.782 1.012l.353-.397-.924-.688c-.596-.413-.365-2.274 1.873-1.873 0 0-1.24.79-1.326 1.326.231-.328.742-.535.742-.535l1.044.207c.016-.004.027-.002.038 0 .486.078 1.556 0 1.642-.182-.26 0-.599-.039-.913-.075l-.447-.047c.88-.762 2.212-1.448 2.212-1.448.245-.097.939-.263 1.751-.146a1.98 1.98 0 0 0-1.39-.537l1.39-2.625c0-.252.082-.299.16-.345.048-.028.095-.055.12-.129.054-.159-.037-.249-.17-.328.129-.131.491-.518.566-.687.317-.153.197-.4.091-.62l-.024-.049c-.067-.067 0-.328.274-.237.112-.251.1-.323.074-.488l-.004-.023-.004-.024 1.037-1.745c.018.023.066.035.161.035.383 0 .693-.33.693-.632 0-.108.03-.185.052-.24.039-.099.049-.125-.197-.125l-.058.002c2.426-3.44 5.927-6.919 8.834-7.689-.797.746-1.944 2.41-2.897 5.835 2.125-3.307 3.449-3.874 4.754-4.432h0c.23-.099.46-.197.694-.31.142-.148.058-.357-.021-.555-.081-.203-.157-.393.021-.491 2.097-1.151 6.123-.261 8.038.255-.857-.569-1.82-1.169-2.663-1.496 2.564.474 3.869 1.222 4.783 1.745l.203.116c.109-.876 1.315-1.379 2.164-1.119 4.05 1.24 5.545 2.226 5.545 2.226s-2.53-1.926-2.578-2.967c-.031-.693 1.94-1.093 3.565-1.304l.726-.071c.672-.051 1.192-.098 1.376-.132l-.163.011.09-.009 8.147-.707 6.421-1.167c2.205.324 6.731 3.191 6.42 8.95-.063 1.16-.161 2.239-.29 3.253l-.105.766-.444 2.991h0 0 0 0c-.526 3.412-1.136 7.374-1.136 10.935l.783 4.818c-.332-.211-.936-.894-1.313-2.499.195 1.605.122 2.693.122 2.693-.39-1.2-.397-1.521-.426-2.788l-.012-.519c-.255.918-.304 2.274.438 4.256-.506-.608-1.885-3.642-.438-6.512-.007-1.739.153-3.09.428-5.423h0l.059-.495-.31.837c-.36.981-.681 1.852-1.15 2.923l-1.082 2.566 1.24-1.921c.003.098-.059.331-.122.57h0c-.071.264-.144.537-.133.646.043.438.068.813-.026 1.202l-3.282 7.893-.55 1.41-.001-.021-.908 2.77h-4.329l1.897-3.794 1.192-7.345-.058-.244c-.288-1.197-.562-2.337-.562-5.581v-.961s-.596 1.255-.596 2.116.224 3.035 1.216 4.669c-.592-.494-1.079-1.012-1.475-1.514l-.483-.261-.475-1.208-.121.248-.214-.967s.601-.794.895-1.356zm4.025 13.511l.158 3.221h3.551l-.059-2.055-.306-.547.255-1.204-.425-.219.378-1.388-.144-4.986c-.539 1.934-2.739 6.301-2.739 6.301l-.122.499c-.172.142-.448.317-.547.378zm-33.86-33.697h-.029l-.019.012.049-.012zm-1.931 29.377c-.049.524-.056 1.046.005 1.558.389 3.308-1.021 5.837-1.021 5.837h3.71s-.281-3.113 2.14-6.226a5.55 5.55 0 0 1 .136-.643c-1.42.047-3.794-.186-4.969-.526zm40.545-30.045s-2.338-1.239-6.274-1.192c.819-.049 1.269-.251 1.659-.427s.715-.321 1.284-.267c1.739.413 3.331 1.885 3.331 1.885zm-21.256 12.092c.458-1.109.536-1.954.536-3.024-.154 1.486-.626 3.235-.626 3.235.486-.657 1.161-2.163 1.3-3.04l-1.21 2.829zm-.893 1.269c.438-.888.976-2.032 1.056-3.359-.469 1.968-.629 2.346-.877 2.928h0 0v.001l-.001.001h0v.001h0l-.178.427zm-.201 3.071c-1.005.87-1.586 1.993-2.025 2.881l.233-.404h0c.312-.55.515-.907 1.792-2.477zm-1.61 1.488c.659-1.138 1.929-2.403 2.802-3.072-1.085 1.026-2.865 3.185-2.865 3.185.226-.785 1.012-2.237 1.623-2.881l-1.56 2.768zm-.84.467h0c.079-.354.244-1.1.931-1.861-.034.379-.523 1.266-.973 2.031a1.48 1.48 0 0 0 .042-.169h0 0zm-29.099 8.751h0l-.324.456c-.479.657-.827.899-1.161 1.061.59.051 1.283-.127 1.815-.878.268-.379.41-.886.522-1.285.08-.284.144-.513.228-.604-.335.192-.69.697-1.079 1.25h0zm.912 1.56c-.347.645-1.383.357-1.539.08.544-.126 1.156-.548 1.288-1.11 0 0 .598.386.251 1.03zm20.545-23.104c-2.131.197-3.223.803-3.839 1.145-.259.144-.434.241-.567.241a5.06 5.06 0 0 0-1.223 2.449c-.094.36-.252.717-.496 1.062 0 0 1.295-.903 1.719-2.195s1.414-2.204 4.406-2.703zm-3.909-.14l.006-.006c-1.197.448-1.577 2.14-1.617 2.93-.117-1.79.689-3.113 1.107-3.551-.604.543-1.671 2.014-1.107 3.551.443-1.76 1.475-2.789 1.612-2.925zm8.013 14.903l-.94-2.523s-.353-.278-.532-.554c-.321-.494-.954-1.922-.954-1.922l.496 2.017a11.92 11.92 0 0 0 .61 1.705c.32.642 1.32 1.276 1.32 1.276zm-4.931-1.91c.193.63 2.627 2.189 2.627 2.189s-2.138-3.303-2.773-5.204c-.141.245-.177.762-.142 1.339.01.351.423 1.183.629 1.555l-.474-.401c.039.186.084.363.133.523zm5.253-.45c-.174-.398-.086-.843 0-1.274.094-.471.185-.927-.073-1.292.791.746 1.058 1.971.864 2.566-.292.891-.584 1.593-.584 1.593s.031-1.05-.207-1.593zm-1.794-6.214c-.2 1.8.367 4.143.797 4.816.341-1.42.239-3.024.146-3.648-.082.833-.212 2.463-.182 3.283-.053-.355-.159-.86-.275-1.415h0 0 0 0c-.224-1.064-.486-2.31-.486-3.035zm27.026 6.421c1.745-2.037 2.856-3.466 4.074-7.32.152-.34-.383-.602-.535-.134-.282.079-.517.596-.282.917-.724 2.479-2.352 5.294-3.117 6.351.453-.665 1.09-2.134 1.404-3.137.43-1.371.742-3.832.742-3.832l-1.046 3.592c-.09.315-.247.561-.421.832-.351.549-.768 1.2-.819 2.73zm-8.591-1.634c1.972 0 3.686-5.034 3.686-5.034s-.789 1.785-2.265 3.182c-.289.273-.641.364-.977.45-.283.072-.554.142-.764.314-.794.649-4.562 3.921-4.562 3.921s3.911-2.834 4.882-2.834zm-4.882 2.408c1.131-1.086 3.446-3.346 3.66-3.697s1.208-2.529 1.678-3.575l-2.018 3.429-3.32 3.843zm-.109 0l3.429-5.083-2.262 2.456c-.078.078-.811 1.783-1.167 2.626zm-11.504 11.362c-.092-.481-.263-.822-.404-1.102-.212-.422-.354-.707-.055-1.124.414 1.01 1.168.62 1.168.62.471.268.428.848.337 1.071s-.21.382-.337.487l-.514-.572.197.722c-.146.024-.285-.014-.392-.102zm2.651-8.391l.657 1.897-.39 1.921v-1.921l-.267-1.897zm-5.423 1.094c0 .616.282 2.126 1.41 3.234-.055-.056-.227-.492-.441-1.034h0c-.311-.786-.71-1.797-.969-2.201zm-2.651 2.967c-.406.016-.726.018-.989.02-1.064.008-1.163.009-2.046.867-.499.486-1.679.957-2.131.855-.478-.109-.561-.384-.655-.697-.075-.25-.157-.523-.454-.753-.516-.401-2.043-1.946-2.043-1.946s1.696 1.356 2.298.9c.207.128 1.476.654 2.031.645-.337-.107-1.118-.423-1.551-.829 1.556.228 2.134.015 2.511-.124.149-.055.267-.098.402-.098l.18.001c.821.01 1.602.019 1.023-1.783.146.334.343.541.545.754.387.407.79.831.878 2.189zM88.875 80.249c-.642.745-4.161 4.827-4.989 7.21.239-1.845 1.155-3.043 1.731-3.796.479-.626.721-.943.142-1.068.753-.698 3.216-2.463 3.216-2.463-.007.009-.041.049-.1.117zm-4.32 24.611c-.401.165-1.653.169-2.373-.091 0-.164.347-.441.714-.249l.018.009c.202.107.627.331 1.642.331zm-.434-1.126c-.236-.023-.426-.042-.587.032-.228.104-.492.329-.492.329s.702.209 1.144.158c.531-.06.83-.281 1.226-.573l.132-.098c-.619.232-1.073.187-1.423.152zm1.054-9.903s-.335.145-.536.373c-.301.273-.966 1.207-.988 2.569-.264-.304-.231-1.335-.142-1.41-.329.28-.669.454-1.033.639-.258.131-.529.269-.816.456 1.193-.775 2.329-2.115 2.826-2.741.39-.491 1.313-.583 1.455.114.273 1.344.234 3.559-1.082 3.855-.299.067-.834-.116-.891-.62.891.158 1.31-.999 1.31-.999s-.704.097-.917.097c.344-.097 1.016-1.244 1.016-1.244s-.295-.016-.803.268c.453-.537.523-.935.571-1.204.01-.057.019-.108.031-.154zm-1.207 4.618c-.242.073-.647.045-.921-.248a.77.77 0 0 1-.217-.756s.111.257.217.399c.257.345.921.606.921.606zm9.596-5.544c-.094.725.322 1.355.82 2.108.154.232.315.476.471.739.525.879.486 1.665.486 1.665.294-1.1.364-2.135.416-2.895.027-.397.049-.718.095-.935-.443.398-.46 1.711-.474 2.786-.005.402-.01.77-.037 1.044.074-.892-.79-3.114-1.777-4.512zm18.326-9.162c-.353 1.246-.364 2.127 0 3.012.874-1.848.617-3.919.315-4.762 0 0-.036.765-.315 1.75zm-1.337 3.815c-.078-.417-.236-.656-.381-.875-.216-.326-.402-.607-.251-1.367.441-2.214-.133-4.049-.133-4.049.507.738 1.141 4.282.765 6.291zm-17.231 6.954c.886 1.102 1.271 2.102 1.281 3.146-1.139-.679-2.752-3.512-2.169-6.43 0 0 .187 2.414.887 3.284zm-2.302-7.345h0 0 0 0l.858-1.861-1.139 1.622s-.269.271-.538.612c-.733.93-2.011 4.259-2.011 4.259l1.211-1.346c.364-.498 1.019-1.954 1.618-3.286zm-2.604 2.6l-.032.08-.026.066c-.24.602-.608 1.522-1.042 2.237.243-.949.397-1.557.523-2.303l.047-.285c.14-.873.235-1.469 1.036-2.141.259-.217.549-.495.825-.759.339-.324.655-.627.861-.767-1.285 1.608-1.567 2.314-2.19 3.873zm5.344-6.079c-.828 1.67-2.59 5.151-3.021 5.715.723-1.646 2.34-5.092 3.021-5.715zm34.583 14.811c.733-1.557.795-2.889.873-4.562.07-1.489.152-3.249.732-5.677-1.939 4.379-1.76 7.518-1.63 9.797l.025.442zm2.956-17.711c.27 1.029.491 1.868.144 3.253.389-.827.688-2.325 0-4.025s-.352-2.365-.352-2.365-.39.359-.061 2.013c.082.414.178.78.269 1.124zm.862-2.267c-.304-.936.146-2.262.146-2.262s-.073 1.69.535 1.946.9.596.96 1.289c.11 1.252-.274 2.169-.71 3.209l-.25.609c.217-2.028-.131-3.096-.651-4.697l-.03-.094zm2.688.995c.13-1.169.385-3.458-.208-4.339-.066.353.055 3.684.152 4.888.526-1.07.7-2.778.56-3.423l-.008.063c-.084.634-.345 2.618-.552 3.36.009-.123.03-.312.056-.547v-.001-.001h0zm-.013 3.212c.134-.298.316-1.222.413-2.061s.754-1.563.754-1.563c.018.162-.037.611-.092 1.052h0 0l-.06.51c-.046.432-.504 1.2-.813 1.717l-.202.344z" fill="url(#G)"/><defs><linearGradient id="A" x1="149.875" y1="104.088" x2="149.875" y2="127" xlink:href="#H"><stop stop-color="#4cb461"/><stop offset="1" stop-color="#499859"/></linearGradient><linearGradient id="B" x1="199.812" y1="38.844" x2="213.437" y2="40.938" xlink:href="#H"><stop stop-color="#b37b7b"/><stop offset="1" stop-color="#a33"/></linearGradient><linearGradient id="C" x1="205.063" y1="63.875" x2="205.063" y2="126.992" xlink:href="#H"><stop stop-color="#fff9f9"/><stop offset="1" stop-color="#f35252"/></linearGradient><linearGradient id="D" x1="169" y1="113.5" x2="203" y2="-2.5" xlink:href="#H"><stop stop-color="#e11f1f"/><stop offset="1" stop-color="#6c1212"/></linearGradient><linearGradient id="E" x1="252.688" y1="90.063" x2="252.688" y2="126.998" xlink:href="#H"><stop stop-color="#4cb461"/><stop offset="1" stop-color="#499558"/></linearGradient><linearGradient id="F" x1="94.625" y1="100.374" x2="76.125" y2="98.374" xlink:href="#H"><stop offset=".382" stop-color="#484848"/><stop offset="1" stop-color="#fffff5"/></linearGradient><linearGradient id="G" x1="105.641" y1="71.676" x2="105.641" y2="111.512" xlink:href="#H"><stop stop-color="#303030"/><stop offset="1" stop-color="#050505"/></linearGradient><linearGradient id="H" gradientUnits="userSpaceOnUse"/></defs></svg>