<svg width="90" height="90" viewBox="0 0 90 90" fill="none" xmlns="http://www.w3.org/2000/svg">
<path d="M15.125 48.5H16.1875H27.5H39.25H50.875H62.0625H73.446H74.875V76.2422H15.125V48.5Z" fill="#BFEDC3"/>
<path d="M62.0625 48.5H73.446C70.8641 48.1074 68.9582 45.6758 68.25 44.3125C66.6 47.3125 63.4375 48.3542 62.0625 48.5Z" fill="#BFEDC3"/>
<path d="M56.5 43.875C56.3333 45.0833 54.975 47.7 50.875 48.5H62.0625C59.0125 48.5 57.0833 45.4167 56.5 43.875Z" fill="#BFEDC3"/>
<path d="M45 43.875C45 46.575 41.1667 48.0833 39.25 48.5H50.875C47.125 48.5 45.3958 45.4167 45 43.875Z" fill="#BFEDC3"/>
<path d="M33.4375 43.875C33.4375 46.675 29.4792 48.125 27.5 48.5H39.25C35.75 48.5 33.9167 45.4167 33.4375 43.875Z" fill="#BFEDC3"/>
<path d="M22 43.375C22 46.075 18.125 47.9167 16.1875 48.5H27.5C23.7 48.5 22.25 45.0833 22 43.375Z" fill="#BFEDC3"/>
<rect x="13.8125" y="27.4375" width="62.4375" height="0.945312" fill="#BFEDC3"/>
<rect x="15.125" y="15.1875" width="59.75" height="10.1875" fill="#BFEDC3"/>
<path d="M35.7999 22.0163C35.4773 22.2684 34.9836 22.1952 34.7637 21.8117C34.6491 21.6118 34.5648 21.4248 34.5107 21.2507C34.4006 20.8967 34.3796 20.4811 34.4476 20.0039C34.5161 19.5209 34.5317 19.1616 34.4944 18.9257C34.4545 18.6865 34.3625 18.4748 34.2185 18.2905C33.7838 17.7343 33.3292 17.6417 32.8546 18.0125C32.6295 18.1885 32.5077 18.4056 32.4891 18.664C32.4874 18.6874 32.4867 18.7109 32.4869 18.7344C32.4903 19.1563 32.5087 19.6426 32.1918 19.8903L32.0284 20.018C31.7034 20.272 31.1998 20.1942 31.0233 19.787C30.8475 19.3815 30.7884 18.974 30.8459 18.5646C30.9392 17.9191 31.3053 17.3468 31.9442 16.8475C32.5891 16.3435 33.222 16.1219 33.8428 16.1827C34.461 16.2403 35.0107 16.5767 35.4916 17.1921C35.7102 17.4719 35.8595 17.782 35.9393 18.1224C36.0166 18.4596 36.0291 18.8925 35.9767 19.4211L35.9042 20.0901C35.8607 20.511 35.9483 20.8958 36.1669 21.2445C36.289 21.4219 36.262 21.6552 36.105 21.7779L35.7999 22.0163ZM36.2679 24.0917C36.0956 23.8712 36.0226 23.6367 36.0489 23.3882C36.0756 23.1341 36.197 22.9226 36.413 22.7538C36.629 22.585 36.862 22.5195 37.1121 22.5573C37.3626 22.5895 37.574 22.7158 37.7463 22.9363C37.9161 23.1535 37.9878 23.3863 37.9615 23.6348C37.9383 23.881 37.8156 24.0908 37.5935 24.2643C37.3715 24.4379 37.1367 24.5074 36.8892 24.4729C36.6448 24.436 36.4377 24.3089 36.2679 24.0917Z" fill="#FFFFF5"/>
<path d="M46.4087 22.174C45.9827 22.2624 45.5466 21.9603 45.5176 21.4913C45.5025 21.2469 45.5102 21.029 45.5405 20.8377C45.6023 20.4486 45.7778 20.0427 46.0673 19.62C46.3598 19.1921 46.5438 18.8569 46.6192 18.6146C46.6937 18.368 46.7057 18.1229 46.6552 17.8795C46.5028 17.145 46.1133 16.8428 45.4865 16.9728C45.1892 17.0345 44.9709 17.1841 44.8316 17.4215C44.819 17.4431 44.8073 17.4651 44.7964 17.4876C44.6011 17.8912 44.3897 18.3633 43.9712 18.4501L43.7554 18.4949C43.3262 18.5839 42.883 18.2728 42.9064 17.8017C42.9298 17.3327 43.0652 16.9166 43.3127 16.5535C43.7054 15.9824 44.3236 15.6093 45.1673 15.4343C46.019 15.2575 46.7263 15.3442 47.2892 15.6944C47.8513 16.0401 48.2166 16.6194 48.3853 17.4321C48.4619 17.8016 48.4582 18.1673 48.3741 18.5293C48.289 18.8869 48.0972 19.3053 47.7985 19.7843L47.4145 20.3876C47.1751 20.7682 47.0774 21.1761 47.1216 21.6112C47.1545 21.8378 47.0189 22.0473 46.8116 22.0903L46.4087 22.174ZM45.8779 24.3717C45.8174 24.0805 45.8582 23.8227 46.0002 23.5983C46.1454 23.3688 46.3605 23.2244 46.6458 23.1652C46.931 23.106 47.1839 23.1532 47.4043 23.307C47.6279 23.4555 47.7699 23.6754 47.8304 23.9666C47.8899 24.2534 47.8486 24.5091 47.7066 24.7335C47.5686 24.957 47.353 25.0992 47.0597 25.1601C46.7665 25.221 46.51 25.1767 46.2905 25.0273C46.0749 24.8771 45.9374 24.6586 45.8779 24.3717Z" fill="#FFFFF5"/>
<path d="M57.0066 21.9034C56.6614 21.6875 56.5622 21.201 56.8462 20.8653C56.9941 20.6903 57.1403 20.5479 57.2847 20.4383C57.5782 20.2152 57.9597 20.0545 58.4289 19.956C58.9036 19.8561 59.2449 19.7487 59.4527 19.6337C59.6628 19.5152 59.8295 19.3573 59.9529 19.1601C60.3252 18.565 60.2575 18.1085 59.7497 17.7908C59.5088 17.64 59.2644 17.5999 59.0166 17.6702C58.9941 17.6766 58.9719 17.6839 58.95 17.692C58.5567 17.8385 58.1083 18.0207 57.7692 17.8086L57.5944 17.6992C57.2466 17.4816 57.1484 16.9844 57.4691 16.6811C57.7885 16.3791 58.1493 16.1855 58.5516 16.1003C59.1867 15.9684 59.8461 16.1164 60.5297 16.5441C61.2198 16.9759 61.6419 17.4923 61.7958 18.0933C61.9519 18.6908 61.8239 19.3189 61.4119 19.9774C61.2246 20.2768 60.9854 20.5216 60.6942 20.7118C60.4052 20.8986 60.0048 21.0572 59.4928 21.1877L58.8428 21.347C58.4345 21.4493 58.1045 21.6618 57.8528 21.9845C57.7284 22.1589 57.5011 22.2128 57.3331 22.1077L57.0066 21.9034ZM55.2253 23.0455C55.3729 22.8096 55.5674 22.6617 55.8086 22.6019C56.0553 22.5407 56.2942 22.5823 56.5253 22.727C56.7565 22.8716 56.8968 23.0672 56.9463 23.3138C57.0013 23.5589 56.955 23.7994 56.8074 24.0354C56.662 24.2678 56.4686 24.4139 56.2274 24.4737C55.9894 24.5355 55.7516 24.4921 55.514 24.3434C55.2763 24.1947 55.1316 23.9988 55.0799 23.7558C55.0314 23.5147 55.0799 23.278 55.2253 23.0455Z" fill="#FFFFF5"/>
<path fill-rule="evenodd" clip-rule="evenodd" d="M21.672 38.6875H20.4339C20.4339 37.9875 22.1716 31.526 23.0404 28.3828H24.5391L21.672 38.6875ZM32.4237 39L33.5315 28.3828H34.7696L33.5315 39H32.4237ZM44.7394 39L45.1303 28.3828H45.9123V39H44.7394ZM56.5988 39V28.3828H57.4459V39H56.5988ZM68.4583 38.6875L67.8719 28.3828H68.9145L69.3706 38.6875H68.4583Z" fill="#BFEDC3"/>
<path d="M80.1875 39.625L76.2778 28.3828H74.7791L78.2326 38.375L69.3706 38.6875H68.4583L57.4459 39H56.5988H45.9123H44.7394H33.5315H32.4237L21.672 38.6875H20.4339L11.7022 38.375L15.0255 28.3828H13.7222L9.8125 39.625H80.1875Z" fill="#BFEDC3"/>
<path fill-rule="evenodd" clip-rule="evenodd" d="M21.375 39H9.8125V41.7764C9.8125 45.4897 12.6247 48.5 16.0938 48.5C18.6897 48.5 20.9179 46.8143 21.875 44.4096C22.8321 46.8143 25.0603 48.5 27.6562 48.5C30.2522 48.5 32.4804 46.8143 33.4375 44.4096C34.3946 46.8143 36.6228 48.5 39.2188 48.5C41.8147 48.5 44.0429 46.8143 45 44.4096C45.9571 46.8143 48.1853 48.5 50.7812 48.5C53.3772 48.5 55.6054 46.8143 56.5625 44.4096C57.5196 46.8143 59.7478 48.5 62.3438 48.5C64.9397 48.5 67.1679 46.8143 68.125 44.4096C69.0821 46.8143 71.3103 48.5 73.9062 48.5C77.3753 48.5 80.1875 45.4897 80.1875 41.7764H79.1875C79.1875 44.8986 76.823 47.4296 73.9062 47.4296C70.9895 47.4296 68.625 44.8986 68.625 41.7764H67.625C67.625 44.8986 65.2605 47.4296 62.3438 47.4296C59.427 47.4296 57.0625 44.8986 57.0625 41.7764H56.0625C56.0625 44.8986 53.698 47.4296 50.7812 47.4296C47.8645 47.4296 45.5 44.8986 45.5 41.7764H44.5C44.5 44.8986 42.1355 47.4296 39.2188 47.4296C36.302 47.4296 33.9375 44.8986 33.9375 41.7764H32.9375C32.9375 44.8986 30.573 47.4296 27.6562 47.4296C24.7395 47.4296 22.375 44.8986 22.375 41.7764H21.375C21.375 44.8986 19.0105 47.4296 16.0938 47.4296C13.177 47.4296 10.8125 44.8986 10.8125 41.7764V39.6875L21.375 40.0704H22.375H32.9375H33.9375H44.5H45.5H56.0625H57.0625H67.625H68.625L79.1875 39.6875H80.1875V39H68.625H67.625H57.0625H56.0625H45.5H44.5H33.9375H32.9375H22.375H21.375Z" fill="#BFEDC3"/>
<path d="M79.1875 41.7764H80.1875V39.6875H79.1875V41.7764Z" fill="#BFEDC3"/>
<rect x="40.375" y="58.1172" width="9.25" height="18.125" fill="#FFFFF5"/>
<rect x="19.0625" y="25.375" width="1.5625" height="2.0625" fill="#BFEDC3"/>
<rect x="67.375" y="25.375" width="1.5625" height="2.0625" fill="#BFEDC3"/>
<rect x="44.625" y="25.375" width="1.5625" height="2.0625" fill="#BFEDC3"/>
<rect x="54.25" y="57.875" width="14.875" height="8.375" fill="#FFFFF5"/>
<rect x="20.5" y="57.875" width="14.875" height="8.375" fill="#FFFFF5"/>
</svg>
