<svg width="90" height="90" viewBox="0 0 90 90" fill="none" xmlns="http://www.w3.org/2000/svg">
<path d="M69.6719 68.7812C69.6719 69.9358 68.6995 70.8717 67.5 70.8717C66.3005 70.8717 65.3281 69.9358 65.3281 68.7812C65.3281 67.6267 66.3005 66.6908 67.5 66.6908C68.6995 66.6908 69.6719 67.6267 69.6719 68.7812Z" fill="#BFEDC3"/>
<path fill-rule="evenodd" clip-rule="evenodd" d="M67.5 76C71.6421 76 75 72.7681 75 68.7812C75 64.7944 71.6421 61.5625 67.5 61.5625C63.3579 61.5625 60 64.7944 60 68.7812C60 72.7681 63.3579 76 67.5 76ZM67.5 73.9547C70.4685 73.9547 72.875 71.6385 72.875 68.7812C72.875 65.924 70.4685 63.6078 67.5 63.6078C64.5315 63.6078 62.125 65.924 62.125 68.7812C62.125 71.6385 64.5315 73.9547 67.5 73.9547ZM69.6719 68.7812C69.6719 69.9358 68.6995 70.8717 67.5 70.8717C66.3005 70.8717 65.3281 69.9358 65.3281 68.7812C65.3281 67.6267 66.3005 66.6908 67.5 66.6908C68.6995 66.6908 69.6719 67.6267 69.6719 68.7812Z" fill="#BFEDC3"/>
<path d="M27.3495 68.5C27.3495 69.6995 26.4095 70.6719 25.25 70.6719C24.0905 70.6719 23.1505 69.6995 23.1505 68.5C23.1505 67.3005 24.0905 66.3281 25.25 66.3281C26.4095 66.3281 27.3495 67.3005 27.3495 68.5Z" fill="#BFEDC3"/>
<path fill-rule="evenodd" clip-rule="evenodd" d="M25.25 76C29.2541 76 32.5 72.6421 32.5 68.5C32.5 64.3579 29.2541 61 25.25 61C21.2459 61 18 64.3579 18 68.5C18 72.6421 21.2459 76 25.25 76ZM25.25 73.875C28.1196 73.875 30.4458 71.4685 30.4458 68.5C30.4458 65.5315 28.1196 63.125 25.25 63.125C22.3804 63.125 20.0542 65.5315 20.0542 68.5C20.0542 71.4685 22.3804 73.875 25.25 73.875ZM27.3495 68.5C27.3495 69.6995 26.4095 70.6719 25.25 70.6719C24.0905 70.6719 23.1505 69.6995 23.1505 68.5C23.1505 67.3005 24.0905 66.3281 25.25 66.3281C26.4095 66.3281 27.3495 67.3005 27.3495 68.5Z" fill="#BFEDC3"/>
<path fill-rule="evenodd" clip-rule="evenodd" d="M82.2819 58.413L83.3125 58.8125L83.0312 61.2188L82.5316 61.8784L82.7812 65.3438L78.3125 65.1875L77.5938 67.1875L78 69H76.9871C76.9957 68.8344 76.9871 69.1677 76.9871 69C76.6875 64.4375 72.9967 59.375 67.75 59.375C62.5033 59.375 58 63.7812 58 68.5C58 68.6677 58.0043 68.8344 58.0129 69H55V36C55 36 62.625 35.5 70.4375 37.6875C77.8638 41.2392 82 54.5 82 54.5L82.2819 58.413ZM57.0625 37.6875C59.9375 37.6875 66.1987 37.8249 70.0625 39.3438C70.2042 39.4699 70.3556 39.6022 70.5151 39.7416C72.7127 41.6623 76.4516 44.9302 77.5938 52.0625H68.4062L61.25 53.5L57.5312 53.3438L57.0625 37.6875ZM71.4375 53.75H67.0625L68 53.3438L70.8125 53.125L71.4375 53.75Z" fill="#BFEDC3"/>
<path d="M16.7188 45.4375L15.8438 49.75L16.3438 50.5938L43.6562 51.0625L46.0938 50.5938L45.8125 38.3125L44.5938 39.0312L39.625 37.4062L21.2812 38.0938L19.0938 38.5312H17.0625L16.7188 45.4375Z" fill="#BFEDC3"/>
<path fill-rule="evenodd" clip-rule="evenodd" d="M8.9375 29.5L7.46875 31.1875V67.4375L10 69H16.0129C16.0129 63.7533 20.0938 58.875 25.8125 59.1875C31.0592 59.1875 34.9871 63.7533 34.9871 69H54V36H53.375L54 29L29.25 29.9375L8.9375 29.5ZM19.875 37.4062L16 37L14.625 50.5938L14.4688 52L16.3438 51.5L32.9375 52L44.0625 52.3125L47 52V37L45.2812 37.4062L39.625 36.4688L21.2812 37L19.875 37.4062Z" fill="#BFEDC3"/>
<path fill-rule="evenodd" clip-rule="evenodd" d="M16.7188 45.4375L15.8438 49.75L16.3438 50.5938L43.6562 51.0625L46.0938 50.5938L45.8125 38.3125L44.5938 39.0312L39.625 37.4062L21.2812 38.0938L19.0938 38.5312H17.0625L16.7188 45.4375Z" fill="#BFEDC3"/>
<path d="M37.9483 46.6052C37.4597 46.4942 37.1473 45.9693 37.341 45.4641C37.442 45.2009 37.5541 44.9762 37.6773 44.7903C37.9279 44.4122 38.3059 44.0708 38.8111 43.7662C39.3221 43.4577 39.675 43.1945 39.8698 42.9767C40.0658 42.7539 40.1955 42.5029 40.2589 42.2238C40.4502 41.3814 40.1865 40.8786 39.4677 40.7153C39.1268 40.6379 38.8266 40.6903 38.5672 40.8725C38.5437 40.889 38.5208 40.9064 38.4987 40.9248C38.1011 41.2544 37.6542 41.6479 37.1742 41.5389L36.9267 41.4827C36.4345 41.3709 36.1188 40.8331 36.3685 40.3507C36.6171 39.8705 36.9578 39.4993 37.3906 39.2372C38.075 38.8265 38.9009 38.731 39.8685 38.9508C40.8453 39.1727 41.5449 39.6015 41.9674 40.2374C42.391 40.8682 42.4969 41.6497 42.2852 42.5818C42.189 43.0055 42.0103 43.3869 41.7492 43.7259C41.4892 44.06 41.0882 44.4066 40.5464 44.7658L39.8558 45.2143C39.423 45.4987 39.1258 45.8793 38.9641 46.3563C38.8903 46.6093 38.6481 46.7641 38.4104 46.7101L37.9483 46.6052ZM36.3419 48.6541C36.4177 48.3201 36.5837 48.0695 36.8397 47.9023C37.1014 47.7311 37.3959 47.6827 37.723 47.757C38.0501 47.8313 38.2925 48.0016 38.45 48.268C38.6133 48.5305 38.657 48.8287 38.5811 49.1627C38.5064 49.4917 38.341 49.7398 38.085 49.907C37.8336 50.0753 37.5397 50.1213 37.2034 50.0449C36.867 49.9685 36.6195 49.7996 36.4609 49.5381C36.3068 49.2777 36.2672 48.9831 36.3419 48.6541Z" fill="#FFFFF5"/>
<path d="M29.9907 46.6212C29.5647 46.7096 29.1287 46.4075 29.0997 45.9385C29.0846 45.6942 29.0922 45.4763 29.1225 45.285C29.1843 44.8959 29.3599 44.49 29.6493 44.0672C29.9418 43.6393 30.1258 43.3042 30.2012 43.0619C30.2758 42.8152 30.2878 42.5702 30.2373 42.3268C30.0849 41.5923 29.6953 41.2901 29.0686 41.4201C28.7713 41.4818 28.553 41.6314 28.4137 41.8688C28.4011 41.8903 28.3893 41.9123 28.3784 41.9348C28.1831 42.3385 27.9718 42.8105 27.5533 42.8974L27.3374 42.9421C26.9083 43.0312 26.465 42.7201 26.4885 42.249C26.5118 41.7799 26.6472 41.3639 26.8947 41.0008C27.2874 40.4297 27.9056 40.0566 28.7493 39.8815C29.601 39.7048 30.3083 39.7915 30.8713 40.1416C31.4333 40.4874 31.7986 41.0667 31.9673 41.8794C32.0439 42.2488 32.0402 42.6146 31.9561 42.9765C31.8711 43.3342 31.6792 43.7525 31.3805 44.2316L30.9966 44.8349C30.7571 45.2155 30.6594 45.6234 30.7036 46.0585C30.7365 46.285 30.6009 46.4946 30.3937 46.5376L29.9907 46.6212ZM29.4599 48.819C29.3995 48.5278 29.4403 48.27 29.5823 48.0456C29.7274 47.816 29.9426 47.6716 30.2278 47.6124C30.513 47.5533 30.7659 47.6005 30.9864 47.7542C31.21 47.9028 31.352 48.1226 31.4124 48.4138C31.4719 48.7007 31.4307 48.9563 31.2887 49.1807C31.1507 49.4043 30.935 49.5465 30.6418 49.6074C30.3485 49.6682 30.0921 49.624 29.8725 49.4746C29.657 49.3244 29.5194 49.1059 29.4599 48.819Z" fill="#FFFFF5"/>
<path d="M22.8377 46.3201C22.5406 46.3817 22.2366 46.1711 22.2164 45.8441C22.2059 45.6737 22.2112 45.5218 22.2324 45.3884C22.2754 45.1171 22.3978 44.8341 22.5996 44.5394C22.8036 44.241 22.9319 44.0074 22.9845 43.8384C23.0364 43.6664 23.0448 43.4956 23.0096 43.3259C22.9033 42.8137 22.6317 42.603 22.1947 42.6937C21.9874 42.7367 21.8352 42.841 21.7381 43.0065C21.7293 43.0215 21.7211 43.0369 21.7135 43.0526C21.5774 43.334 21.43 43.6631 21.1382 43.7237L20.9877 43.7549C20.6885 43.817 20.3794 43.6001 20.3958 43.2716C20.4121 42.9446 20.5065 42.6545 20.679 42.4013C20.9529 42.0031 21.3839 41.743 21.9721 41.6209C22.566 41.4977 23.0591 41.5582 23.4516 41.8023C23.8435 42.0434 24.0982 42.4473 24.2158 43.0139C24.2693 43.2715 24.2667 43.5265 24.208 43.7789C24.1487 44.0283 24.015 44.3199 23.8067 44.654L23.539 45.0746C23.372 45.34 23.3039 45.6244 23.3348 45.9277C23.3577 46.0857 23.2631 46.2318 23.1186 46.2618L22.8377 46.3201ZM22.4676 47.8525C22.4255 47.6494 22.4539 47.4697 22.5529 47.3132C22.6541 47.1531 22.8041 47.0525 23.003 47.0112C23.2019 46.9699 23.3782 47.0029 23.5319 47.1101C23.6878 47.2136 23.7868 47.3669 23.8289 47.57C23.8704 47.77 23.8417 47.9482 23.7427 48.1047C23.6465 48.2605 23.4961 48.3597 23.2916 48.4021C23.0871 48.4446 22.9084 48.4137 22.7553 48.3096C22.605 48.2048 22.5091 48.0525 22.4676 47.8525Z" fill="#FFFFF5"/>
<path d="M79 66L84 66.3125V69H79L78.6875 67.3438L79 66Z" fill="#BFEDC3"/>
</svg>
