<svg xmlns="http://www.w3.org/2000/svg" xmlns:xlink="http://www.w3.org/1999/xlink" width="326" height="127" fill="none" xmlns:v="https://vecta.io/nano"><path d="M118.58 31.958l2.913 2.624 3.394-1.961-1.594 3.582 2.913 2.624-3.898-.41L120.713 42l-.815-3.836-3.898-.41 3.395-1.961-.815-3.836z" fill="url(#A)"/><path d="M135.282 16.108l2.135 3.289 3.786-1.015-2.467 3.048 2.135 3.289-3.659-1.405-2.467 3.048.205-3.916-3.659-1.405 3.786-1.015.205-3.916z" fill="url(#A)"/><path d="M158.5 9l1.212 3.73h3.919l-3.171 2.305 1.212 3.73-3.172-2.305-3.171 2.305 1.211-3.73-3.171-2.305h3.92L158.5 9z" fill="url(#A)"/><path d="M180.694 16.108l.205 3.916 3.787 1.015-3.66 1.405.205 3.916-2.466-3.048-3.66 1.405 2.135-3.289-2.467-3.048 3.786 1.015 2.135-3.289z" fill="url(#A)"/><path d="M198.42 31.957l-.815 3.836L201 37.754l-3.898.41-.815 3.836-1.595-3.582-3.898.41 2.913-2.624-1.594-3.583 3.394 1.961 2.913-2.624z" fill="url(#A)"/><g fill-rule="evenodd"><path d="M133 81.383c1.287-.138 3.311-2.949 3.973-5.228.828-2.849-1.692-5.044-3.106-5.355s-4.247-.508-5.037 2.593 2.411 7.167 4.17 7.991zm.988-8.928c-.956 1.125-2.729 3.877-2.173 5.885-.551-1.403-.889-4.543 2.173-5.885z" fill="url(#B)"/><path d="M115.902 68.855c-3.615.724-13.809-.075-14.448-3.455-.117-2.082 5.632-5.278 14.448 3.455zm-6.204-2.907c-1.889-.378-5.942-1.084-7.036-.879 1.042-.422 3.909-.836 7.036.879z" fill="url(#B)"/><path d="M145.481 82.946c-5.151-.048-17.463-1.346-23.125-6.308s-6.369-9.822-6.015-11.632c3.243-1.094 8.92-3.854 5.689-6.148s-5.216 1.755-5.805 4.066c-1.172-3.825-4.242-10.739-7.15-7.796s3.292 7.652 6.755 9.639c-.1 2.995 1.047 7.38 4.707 11.222-4.291-2.481-13.261-5.784-14.811.852-.4 2.712 1.261 7.829 11.101 6.605 1.246-.074 4.311-1.168 6.596-4.955 4.512 3.245 11.435 5.645 21.779 5.654.624-.593.279-1.199.279-1.199zm-30.767-21.367c-1.064-1.754-3.307-5.454-4.609-5.735-1.291-.279 2.576 3.901 4.982 6.346l-.373-.611zm4.436 14.91c-2.388-.365-7.759-.676-10.137.995 1.396-1.261 5.379-3.224 10.137-.995z" fill="url(#B)"/><path d="M126.415 91.668c-6.503.45-15.657 1.458-11.132 12.275.495-.137 1.143-.186 1.876-.241 4.235-.013 8.533-.645 8.818-10.347 6.071-3.355 11.04-5.544 17.264-2.627.593.277.806-.456.321-.683-6.134-2.874-11.33-.351-12.81.151.153-3.155-2.261-7.734-5.507-6.349-3.228 1.378 1.901 5.891 5.38 6.391l-1.282.44-2.928.99zm-2.027 2.944c-.586 1.54-2.482 4.917-5.379 6.107.251-.112 3.691-4.118 5.379-6.107z" fill="url(#B)"/><path d="M196.234 78.763c-1.285.153-3.886-2.136-5.04-4.209-1.443-2.592-.444-5.991 1.525-7.179 1.24-.748 4.256-.971 5.718 1.875s-.673 8.317-2.203 9.513zm-1.828-8.857c-.781 1.132 1.563 4.231 1.469 6.313.225-1.49-.906-5.18-1.469-6.313z" fill="url(#C)"/><path d="M179.792 85.865c5.011-1.197 16.721-5.211 21.133-11.311s4.015-10.996 3.266-12.682c-3.405-.342-12.094-3.46-8.442-4.997 2.969-1.25 7.001.82 8.09 2.942.289-3.99 1.473-7.15 4.441-7.15 4.137 0-.712 6.149-3.644 8.858.766 2.897.627 7.427-2.083 11.99 3.629-3.377 11.635-8.599 14.627-2.476.995 2.554 0 6.966-8.18 8.337-1.885.316-5.875-.612-8.702-2.777-3.673 4.171-9.885 8.055-19.967 10.373-.741-.438-.539-1.106-.539-1.106zm25.255-26.982c.68-1.719 1.336-3.273 1.89-3.625 1.116-.707-.169 1.064-1.968 3.984.06-.173-.013-.085.078-.359zm-1.208 15.992c2.348.5 7.692-.562 10.281-2.476-5.401 1.115-7.151 1.82-10.281 2.476z" fill="url(#C)"/><path d="M183.328 85.694c3.492 2.577 14.758 6.818 17.127 3.534 1.164-2.162-3.367-8.439-17.127-3.534zm8.065 0c2.203.54 6.876 1.813 7.94 2.577-.901-.97-3.75-2.843-7.94-2.577z" fill="url(#D)"/></g><path d="M181.008 35.672c.359-.203 1.508-.288 1.984.352C183.945 37.477 184 40 184 40s-.594-3.063-2.992-4.328z" fill="#c4c4c4"/><path d="M184.065 113.001V40.133s-.118-2.961-1.016-3.999h-3.641l-.203.734-.096-.734h-.203l-.164.473-.187-.473L163 36l-8.726.334c-16.406.821-21.21 7.799-21.21 7.799s-1.127 54.056.186 59.055 3.332 9.813 7.75 9.813h43.065z" fill="url(#E)"/><path fill-rule="evenodd" d="M184.064 100.562V113h-43.065c-4.418 0-6.437-4.812-7.75-9.812-.458-1.748-.28-2.235-.281-2.782l51.096.156z" fill="url(#F)"/><path d="M163 36c-9 .5-26 4-29.938 11.563l-.07-3.672C132.992 37.5 156.5 36 163 36z" fill="url(#G)"/><path d="M163 36c-13.5 0-30.5 2-30.008 8.023.008-1.023.74-2.859 3.352-1.975C140.211 38.169 156.907 36.497 163 36z" fill="#e9e9e9"/><path d="M151.75 105.125c16.188 1.187 36.625 1.25 44.562-.687-.5 4.5-3.894 8.562-8.312 8.562h-39s1.189-5.016 2.75-7.875z" fill="url(#H)"/><path d="M141 113h8l2.562-7.625c-1 3-6.144 7.625-10.562 7.625z" fill="url(#I)"/><path d="M149.688 53.633c0 2.209-1.791 4.375-4 4.375S141 56.467 141 54.258s1.916-4.812 4.125-4.812 4.563 1.978 4.563 4.188zm11.31 42.055c0-3.863 3.171-6.908 7.066-6.908a7.5 7.5 0 0 1 3.404.818l.591-.899c-1.242-.724-2.665-1.145-4.14-1.145-4.409 0-7.765 3.761-7.765 8.133s3.664 8.249 8.143 7.917c4.376-.324 7.982-3.544 7.982-7.917 0-2.71-1.518-5.186-3.723-6.676l-.757.766c2.097 1.203 3.55 3.381 3.55 5.91 0 3.863-3.565 7.326-7.459 7.326s-6.892-3.463-6.892-7.326z" fill="#c4c4c4"/><path d="M166.674 98.197l4.149-5.236h1.443l-3.969 7.25h-.721l-.902-2.014zm-.361-.604l-1.782-3.382.519-.847 2.855 2.269-1.592 1.96z" fill="#4cb461"/><path d="M153.5 50.758l2.906.188 19.094-.187v1l-18.75.344-2.875-.156-.375-1.187zm0 5.969l4.031-.187 6.063.188v1l-6.063-.219h-3.125l-.906-.781zm0-2.969l10.844.25 8.687-.531h1.031l.188 1.625-9.094.25-11.656-.594v-1z" fill="#c4c4c4"/><path d="M142.172 65.47l17.417.144 13.954-.305h1.656l.301 3.665-14.606.144-18.722.252V65.47z" fill="url(#J)"/><path d="M142.172 78.349l17.417.144 5.723-.305h9.887l.301 3.665-14.606.144-18.722.252v-3.898z" fill="url(#J)"/><path d="M142.668 71.942l16.269-.657 14.813.67 1.449-.162.301 3.665h-19.25l-13.582.381v-3.898z" fill="url(#J)"/><defs><linearGradient id="A" x1="158.5" y1="9" x2="158.5" y2="42" xlink:href="#K"><stop stop-color="#4dab60"/><stop offset="1" stop-color="#4b9c5b"/></linearGradient><linearGradient id="B" x1="129.837" y1="62.433" x2="111.268" y2="102.062" xlink:href="#K"><stop stop-color="#4cab60"/><stop offset="1" stop-color="#4a995a"/></linearGradient><linearGradient id="C" x1="190.462" y1="62.378" x2="217.41" y2="96.861" xlink:href="#K"><stop stop-color="#4cab60"/><stop offset="1" stop-color="#4a995a"/></linearGradient><linearGradient id="D" x1="205.787" y1="62.404" x2="205.787" y2="113.921" xlink:href="#K"><stop stop-color="#4cab60"/><stop offset="1" stop-color="#4a995a"/></linearGradient><linearGradient id="E" x1="158.34" y1="35.996" x2="158.34" y2="113.001" xlink:href="#K"><stop stop-color="#e2e2e2"/><stop offset="1" stop-color="#d8d8d8"/></linearGradient><linearGradient id="F" x1="146.374" y1="110.75" x2="146.374" y2="104.75" xlink:href="#K"><stop stop-color="#cfcfcf"/><stop offset="1" stop-color="#b8b8b8" stop-opacity="0"/></linearGradient><linearGradient id="G" x1="135.088" y1="41.563" x2="143.517" y2="48.663" xlink:href="#K"><stop stop-color="#b0b0b0"/><stop offset="1" stop-color="#b0b0b0" stop-opacity="0"/></linearGradient><linearGradient id="H" x1="172.656" y1="104.438" x2="172.656" y2="113" xlink:href="#K"><stop stop-color="#c9c2c2"/><stop offset="1" stop-color="#9e9e9e"/></linearGradient><linearGradient id="I" x1="146.281" y1="113" x2="146.281" y2="105.375" xlink:href="#K"><stop stop-color="#a4a4a4"/><stop offset="1" stop-color="#bbb6b6"/></linearGradient><linearGradient id="J" x1="158.836" y1="65.309" x2="158.836" y2="82.248" xlink:href="#K"><stop stop-color="#d6d6d6"/><stop offset="1" stop-color="#c6c6c6"/></linearGradient><linearGradient id="K" gradientUnits="userSpaceOnUse"/></defs></svg>