<svg width="90" height="90" viewBox="0 0 90 90" fill="none" xmlns="http://www.w3.org/2000/svg">
<path d="M15.4844 71.0469C15.4844 72.7296 14.1202 74.0938 12.4375 74.0938C10.7548 74.0938 9.39062 72.7296 9.39062 71.0469C9.39062 69.3641 10.7548 68 12.4375 68C14.1202 68 15.4844 69.3641 15.4844 71.0469Z" fill="#BFEDC3"/>
<path d="M79.9062 71.0469C79.9062 72.7469 78.5281 74.125 76.8281 74.125C75.1281 74.125 73.75 72.7469 73.75 71.0469C73.75 69.3469 75.1281 67.9688 76.8281 67.9688C78.5281 67.9688 79.9062 69.3469 79.9062 71.0469Z" fill="#BFEDC3"/>
<path d="M12.5 74.1244C14.1625 74.0911 15.5 72.733 15.5 71.0625C15.5 69.392 14.1625 68.0339 12.5 68.0006V74.1244Z" fill="#BFEDC3"/>
<path d="M44.6328 74.125C46.3242 74.125 47.6953 72.7539 47.6953 71.0625C47.6953 69.3711 46.3242 68 44.6328 68C42.9414 68 41.5703 69.3711 41.5703 71.0625C41.5703 72.7539 42.9414 74.125 44.6328 74.125Z" fill="#BFEDC3"/>
<path fill-rule="evenodd" clip-rule="evenodd" d="M12.5 66.0004C15.2671 66.0339 17.5 68.2874 17.5 71.0625C17.5 73.8376 15.2671 76.0911 12.5 76.1246V76.2422H77.1875V76.1124C77.0688 76.1208 76.949 76.125 76.8281 76.125C74.0322 76.125 71.7656 73.8584 71.7656 71.0625C71.7656 68.2666 74.0322 66 76.8281 66C76.949 66 77.0688 66.0042 77.1875 66.0126V66H76.8281H44.6328L12.5 66.0004ZM44.6328 66C47.4288 66 49.6953 68.2666 49.6953 71.0625C49.6953 73.8584 47.4288 76.125 44.6328 76.125C41.8369 76.125 39.5703 73.8584 39.5703 71.0625C39.5703 68.2666 41.8369 66 44.6328 66Z" fill="#BFEDC3"/>
<path d="M77.1875 68.0209C77.0696 68.0071 76.9497 68 76.8281 68C75.1367 68 73.7656 69.3711 73.7656 71.0625C73.7656 72.7539 75.1367 74.125 76.8281 74.125C76.9497 74.125 77.0696 74.1179 77.1875 74.1041V68.0209Z" fill="#BFEDC3"/>
<rect x="9.39062" y="13.3828" width="70.5156" height="2.99219" fill="#BFEDC3"/>
<path d="M16.3145 16.375H18.935C18.935 16.375 19.0168 20.3421 18.935 22.1983C17.9068 22.1073 16.3145 22.1073 16.3145 22.1073V16.375Z" fill="#BFEDC3"/>
<path d="M16.3145 46.5845H18.935L18.8622 42.4351L18.4163 41.1431L17.9068 42.608L17.1607 41.043L16.4509 42.0712C16.4296 44.529 16.3145 46.5845 16.3145 46.5845Z" fill="#BFEDC3"/>
<path d="M25.5233 23.3589C18.4992 22.3444 15.1614 22.6714 9.98229 23.3589C8.01701 28.6044 11.2559 35.5558 15.1614 38.7232C15.9402 39.3549 16.1756 40.0181 16.4945 40.9169L16.4971 40.9244L17.2069 40.0509L17.8438 41.7069L18.2805 40.2147L18.9539 41.5249C19.1467 40.7854 19.8224 39.2589 20.8104 38.1035C21.8198 36.9229 25.5153 32.2038 25.9538 29.1631C26.0072 28.7933 26.024 28.4199 26.0511 28.0472C26.1198 27.1019 26.1608 25.115 25.5233 23.3589Z" fill="#BFEDC3"/>
<path d="M18.0985 47.3479C18.0985 47.6808 17.9033 48.0632 17.6067 48.4235C17.0261 49.129 16.0572 49.75 15.4052 49.75C14.4203 49.75 13.8584 48.5876 13.8584 47.6026C13.8584 46.6177 15.3302 45.5645 16.3151 45.5645C17.3001 45.5645 18.0985 46.3629 18.0985 47.3479Z" fill="#BFEDC3"/>
<path fill-rule="evenodd" clip-rule="evenodd" d="M19.4452 49.4224C20.4301 49.4224 21.2104 48.5876 21.2104 47.6026C21.2104 46.6177 19.9206 45.5645 18.9356 45.5645C17.9507 45.5645 17.1522 46.3629 17.1522 47.3479C17.1522 47.7122 17.3313 48.091 17.6067 48.4235C17.9033 48.0632 18.0985 47.6808 18.0985 47.3479C18.2805 48.2869 18.0743 48.6879 17.9484 48.7711C18.3956 49.1576 18.9596 49.4224 19.4452 49.4224Z" fill="#BFEDC3"/>
<path d="M43.5762 16.375H46.1967C46.1967 16.375 46.2786 20.3421 46.1967 22.1983C45.1685 22.1073 43.5762 22.1073 43.5762 22.1073V16.375Z" fill="#BFEDC3"/>
<path d="M43.5762 46.5845H46.1967L46.1239 42.4351L45.678 41.1431L45.1685 42.608L44.4224 41.043L43.7127 42.0712C43.6913 44.529 43.5762 46.5845 43.5762 46.5845Z" fill="#BFEDC3"/>
<path d="M52.785 23.3589C45.7609 22.3444 42.4232 22.6714 37.244 23.3589C35.2787 28.6044 38.5176 35.5557 42.4232 38.7232C43.2019 39.3548 43.4373 40.0181 43.7562 40.9169L43.7589 40.9244L44.4686 40.0509L45.1055 41.7069L45.5423 40.2147L46.2156 41.5249C46.4085 40.7854 47.0841 39.2589 48.0721 38.1035C49.0815 36.9229 52.777 32.2038 53.2155 29.1631C53.2689 28.7933 53.2857 28.4199 53.3128 28.0472C53.3815 27.1019 53.4225 25.115 52.785 23.3589Z" fill="#BFEDC3"/>
<path d="M45.3602 47.3478C45.3602 47.6808 45.165 48.0632 44.8684 48.4235C44.2878 49.129 43.3189 49.75 42.6669 49.75C41.682 49.75 41.1201 48.5876 41.1201 47.6026C41.1201 46.6177 42.5919 45.5645 43.5768 45.5645C44.5618 45.5645 45.3602 46.3629 45.3602 47.3478Z" fill="#BFEDC3"/>
<path fill-rule="evenodd" clip-rule="evenodd" d="M46.7069 49.4224C47.6918 49.4224 48.4721 48.5876 48.4721 47.6026C48.4721 46.6177 47.1823 45.5645 46.1973 45.5645C45.2124 45.5645 44.4139 46.3629 44.4139 47.3478C44.4139 47.7122 44.593 48.091 44.8684 48.4235C45.165 48.0632 45.3602 47.6808 45.3602 47.3478C45.5422 48.2869 45.336 48.6879 45.2101 48.7711C45.6573 49.1576 46.2213 49.4224 46.7069 49.4224Z" fill="#BFEDC3"/>
<path d="M70.1328 16.375H72.7533C72.7533 16.375 72.8352 20.3421 72.7533 22.1983C71.7251 22.1073 70.1328 22.1073 70.1328 22.1073V16.375Z" fill="#BFEDC3"/>
<path d="M70.1328 46.5845H72.7533L72.6805 42.4351L72.2347 41.1431L71.7251 42.608L70.979 41.043L70.2693 42.0712C70.248 44.529 70.1328 46.5845 70.1328 46.5845Z" fill="#BFEDC3"/>
<path d="M79.3417 23.3589C72.3176 22.3444 68.9798 22.6714 63.8006 23.3589C61.8354 28.6044 65.0743 35.5557 68.9798 38.7232C69.7586 39.3548 69.9939 40.0181 70.3128 40.9169L70.3155 40.9244L71.0252 40.0509L71.6621 41.7069L72.0989 40.2147L72.7722 41.5249C72.9651 40.7854 73.6408 39.2589 74.6287 38.1035C75.6382 36.9229 79.3336 32.2038 79.7722 29.1631C79.8255 28.7933 79.8424 28.4199 79.8695 28.0472C79.9382 27.1019 79.9792 25.115 79.3417 23.3589Z" fill="#BFEDC3"/>
<path d="M71.9169 47.3478C71.9169 47.6808 71.7216 48.0632 71.4251 48.4235C70.8445 49.129 69.8755 49.75 69.2236 49.75C68.2386 49.75 67.6768 48.5876 67.6768 47.6026C67.6768 46.6177 69.1485 45.5645 70.1335 45.5645C71.1184 45.5645 71.9169 46.3629 71.9169 47.3478Z" fill="#BFEDC3"/>
<path fill-rule="evenodd" clip-rule="evenodd" d="M73.2635 49.4224C74.2485 49.4224 75.0287 48.5876 75.0287 47.6026C75.0287 46.6177 73.7389 45.5645 72.754 45.5645C71.769 45.5645 70.9706 46.3629 70.9706 47.3478C70.9706 47.7122 71.1496 48.091 71.4251 48.4235C71.7216 48.0632 71.9169 47.6808 71.9169 47.3478C72.0989 48.2869 71.8926 48.6879 71.7668 48.7711C72.2139 49.1576 72.778 49.4224 73.2635 49.4224Z" fill="#BFEDC3"/>
<path d="M59.7473 58.1558C59.2497 58.4497 58.572 58.2571 58.3343 57.6801C58.2105 57.3794 58.1265 57.1023 58.0826 56.8487C57.9932 56.3332 58.0397 55.7476 58.2221 55.0921C58.4062 54.4287 58.4936 53.9285 58.4844 53.5915C58.4723 53.2495 58.3822 52.9364 58.2143 52.6521C57.7075 51.7943 57.0881 51.5816 56.3562 52.014C56.0089 52.2191 55.7987 52.5008 55.7256 52.859C55.7189 52.8915 55.7136 52.9242 55.7096 52.9572C55.6373 53.5484 55.5742 54.2324 55.0855 54.5211L54.8334 54.67C54.3322 54.9661 53.6415 54.7653 53.4688 54.1631C53.2969 53.5635 53.2885 52.9824 53.4438 52.4198C53.6923 51.5335 54.3093 50.7992 55.2946 50.2171C56.2893 49.6295 57.2155 49.4349 58.0734 49.6334C58.9282 49.8268 59.636 50.3981 60.1968 51.3473C60.4517 51.7788 60.6039 52.2401 60.6536 52.7312C60.7002 53.2172 60.6386 53.8254 60.4687 54.5557L60.245 55.4788C60.1073 56.06 60.1596 56.6146 60.4019 57.1425C60.5404 57.4131 60.4599 57.7348 60.2179 57.8778L59.7473 58.1558ZM60.0232 61.146C59.8223 60.806 59.763 60.4644 59.8451 60.1214C59.929 59.7706 60.1375 59.4967 60.4707 59.2999C60.8038 59.1031 61.1419 59.054 61.485 59.1526C61.8298 59.2434 62.1026 59.4588 62.3035 59.7989C62.5015 60.1339 62.5593 60.4729 62.4771 60.8159C62.3996 61.1561 62.1896 61.4274 61.8471 61.6298C61.5046 61.8321 61.1633 61.8865 60.8232 61.793C60.4878 61.6967 60.2212 61.4811 60.0232 61.146Z" fill="#BFEDC3"/>
<path d="M55.1285 42.4355C54.7387 42.1722 54.6439 41.6065 54.9854 41.2304C55.1633 41.0344 55.3378 40.876 55.509 40.7552C55.857 40.5096 56.3038 40.3395 56.8496 40.2449C57.4018 40.1488 57.8001 40.0386 58.0448 39.9143C58.2921 39.786 58.491 39.6105 58.6414 39.3878C59.0955 38.7158 59.0359 38.186 58.4624 37.7985C58.1904 37.6148 57.9099 37.5584 57.6209 37.6296C57.5947 37.636 57.5688 37.6435 57.5432 37.6521C57.0831 37.8052 56.5581 37.9974 56.1752 37.7387L55.9777 37.6053C55.585 37.34 55.4918 36.7619 55.8744 36.4248C56.2554 36.0891 56.6799 35.8802 57.1478 35.7982C57.8864 35.6717 58.6417 35.8693 59.4136 36.3908C60.1929 36.9174 60.6592 37.5307 60.8125 38.2309C60.9685 38.9271 60.7953 39.647 60.2928 40.3907C60.0644 40.7287 59.7783 41.0016 59.4344 41.2094C59.0932 41.4133 58.6244 41.5802 58.028 41.7101L57.271 41.8676C56.7955 41.9691 56.4059 42.2011 56.1021 42.5635C55.9514 42.7598 55.6868 42.8128 55.4972 42.6847L55.1285 42.4355ZM53.0255 43.6819C53.2055 43.4154 53.436 43.2526 53.7169 43.1934C54.0042 43.1326 54.2784 43.1905 54.5394 43.3668C54.8004 43.5431 54.9544 43.7747 55.0016 44.0614C55.0552 44.3467 54.9919 44.6225 54.8119 44.8889C54.6346 45.1514 54.4054 45.3122 54.1245 45.3715C53.8472 45.4332 53.5744 45.3734 53.3061 45.1921C53.0377 45.0107 52.8786 44.7787 52.8288 44.4959C52.7826 44.2157 52.8481 43.9443 53.0255 43.6819Z" fill="#BFEDC3"/>
<path d="M30.0448 53.4318C29.2142 53.2674 28.6615 52.3954 28.965 51.5327C29.1231 51.0832 29.3019 50.6984 29.5014 50.3785C29.9069 49.7278 30.5293 49.1333 31.3685 48.5949C32.2172 48.0495 32.801 47.5883 33.1199 47.211C33.4405 46.8254 33.6477 46.3952 33.7416 45.9207C34.0251 44.4885 33.5558 43.6514 32.3338 43.4096C31.7542 43.2948 31.2495 43.3975 30.8198 43.7175C30.7809 43.7465 30.7432 43.7771 30.7066 43.8092C30.0505 44.3847 29.3139 45.0707 28.4979 44.9092L28.0771 44.8259C27.2403 44.6602 26.6815 43.7665 27.0806 42.9399C27.478 42.1167 28.0361 41.4735 28.7548 41.0103C29.8917 40.2842 31.2826 40.084 32.9276 40.4096C34.5883 40.7383 35.7905 41.4298 36.5343 42.4841C37.2797 43.5299 37.4956 44.8452 37.1819 46.4299C37.0393 47.1502 36.7554 47.803 36.3303 48.3881C35.9068 48.9648 35.2458 49.5693 34.3473 50.2016L33.2018 50.992C32.484 51.4928 31.9999 52.15 31.7493 52.9634C31.6365 53.3944 31.2346 53.6673 30.8305 53.5873L30.0448 53.4318ZM27.4276 56.9692C27.54 56.4014 27.8085 55.9702 28.2331 55.6755C28.6673 55.374 29.1624 55.2783 29.7186 55.3883C30.2748 55.4984 30.6922 55.7748 30.9709 56.2174C31.2591 56.6532 31.347 57.1549 31.2346 57.7227C31.1239 58.282 30.8562 58.709 30.4316 59.0036C30.0148 59.2998 29.5205 59.3913 28.9487 59.2781C28.3768 59.1649 27.9507 58.8913 27.6703 58.4571C27.3978 58.0245 27.3169 57.5285 27.4276 56.9692Z" fill="#BFEDC3"/>
</svg>
