<svg width="90" height="90" viewBox="0 0 90 90" fill="none" xmlns="http://www.w3.org/2000/svg">
<path fill-rule="evenodd" clip-rule="evenodd" d="M67.3494 61.1478C73.8286 57.7843 75.6478 45.6243 71.9411 38.4839C62.114 19.5541 33.1123 25.0855 31.2064 55.9839C42.0853 53.3381 52.0634 54.9398 59.0855 57.3125C50.5201 54.8686 40.5717 55.6376 33.6111 56.9877C37.7463 68.5326 38.1881 74.4234 37.892 75.9257C39.6264 75.5296 41.4605 74.7794 43.3468 73.6083L67.3494 61.1478ZM63.6992 59.151C65.1893 59.8467 66.4201 60.536 67.3494 61.1478C66.2394 60.3627 65.0578 59.6793 63.8216 59.0875C72.069 54.806 71.9191 45.7574 70.5783 40.7124C73.4186 51.6234 62.0044 58.297 62.0044 58.297L61.9001 58.3631L41.4572 71.3187L63.6992 59.151ZM28.6735 58.1681C29.74 57.8547 30.9961 57.5351 32.3997 57.2347C36.0258 67.9906 35.845 74.4033 35.3013 76.2652C25.992 76.5512 20.781 66.2775 28.6735 58.1681ZM53.3801 35.4992C56.0515 34.0434 59.6612 34.3649 61.7921 38.4696C60.2321 35.9146 57.4558 34.6919 53.9152 36.53C50.8228 38.1353 51.4424 41.7595 52.2942 43.4003C53.2115 45.1673 55.9315 47.7511 58.9318 46.1936C62.2598 44.4659 63.1561 41.5471 61.7921 38.4696C63.8656 42.4636 62.2047 45.8963 59.4861 47.2612C56.7922 48.6136 52.4884 48.2307 50.4719 44.3463C48.3601 40.2784 50.7329 36.9417 53.3801 35.4992ZM33.8891 52.4642C34.9388 45.8437 36.9764 38.9207 42.9686 35.2492C37.6298 39.1891 37.0726 48.9188 37.621 52.0458L33.8891 52.4642ZM57.5718 42.7635C56.6569 43.2385 55.5302 42.8819 55.0552 41.9669C54.5802 41.052 54.9369 39.9253 55.8518 39.4503C56.7668 38.9753 57.8935 39.332 58.3684 40.2469C58.8434 41.1619 58.4868 42.2886 57.5718 42.7635Z" fill="#2A6458"/>
<path fill-rule="evenodd" clip-rule="evenodd" d="M41.9806 35.7818L33.0879 20.0109L13.0113 31.3314C12.345 31.7072 12.1094 32.5519 12.4851 33.2183L20.0172 46.5761C20.3929 47.2425 21.2377 47.4781 21.904 47.1023L41.9806 35.7818Z" fill="#2A6458"/>
<path fill-rule="evenodd" clip-rule="evenodd" d="M44.495 22.8573L45.0468 20.935C46.8246 21.4453 47.8637 23.288 47.3803 25.0733L44.5677 35.4617C44.3308 36.3369 43.7527 37.0804 42.9629 37.5257L22.8863 48.8463C21.2578 49.7645 19.1933 49.1888 18.275 47.5603L10.7429 34.2024C9.82469 32.5739 10.4004 30.5094 12.0289 29.5911L32.1055 18.2706C32.8953 17.8252 33.8307 17.7154 34.7022 17.9655M45.0468 20.935L44.495 22.8573L34.1504 19.8879C33.7938 19.7855 33.411 19.8305 33.0879 20.0127L13.0113 31.3332C12.3449 31.709 12.1093 32.5537 12.4851 33.2201L20.0171 46.5779C20.3929 47.2443 21.2376 47.4799 21.904 47.1041L41.9806 35.7836C42.3037 35.6014 42.5403 35.2971 42.6372 34.939L45.4498 24.5507C45.6476 23.8201 45.2224 23.0661 44.495 22.8573M45.0468 20.935L34.7022 17.9655L45.0468 20.935ZM41.6595 25.572C41.4919 25.2748 41.115 25.1697 40.8178 25.3373C40.5205 25.5049 40.4154 25.8818 40.583 26.179C40.7506 26.4763 41.1275 26.5814 41.4248 26.4138C41.722 26.2462 41.8271 25.8693 41.6595 25.572ZM41.8001 27.0794C41.1352 27.4543 40.2923 27.2192 39.9174 26.5544C39.5425 25.8895 39.7775 25.0466 40.4424 24.6717C41.1073 24.2967 41.9502 24.5318 42.3251 25.1967C42.7 25.8616 42.465 26.7045 41.8001 27.0794Z" fill="#E7F9E3"/>
<path fill-rule="evenodd" clip-rule="evenodd" d="M37.8762 15.8649C37.5401 15.6605 37.1361 15.5994 36.7546 15.6954L13.0559 21.6593C12.2694 21.8572 11.7922 22.6553 11.9901 23.4419L15.9581 39.2096C16.1561 39.9962 16.9542 40.4734 17.7408 40.2754L41.4394 34.3116C41.8209 34.2156 42.1479 33.9706 42.3472 33.6315L48.1287 23.7934C48.4399 23.2639 48.3817 22.6182 48.0297 22.1574C47.666 22.3646 46.2344 25.4688 43.6172 26.2109C42.4536 26.5409 41.2419 25.8327 40.8906 24.7422C40.5134 23.5711 41.333 22.1412 42.5391 21.8984C43.4166 21.7218 44.193 22.2894 44.6441 22.8055L46.3465 21.0166L37.8762 15.8649Z" fill="#2A6458"/>
<path fill-rule="evenodd" clip-rule="evenodd" d="M36.2663 13.7558C37.1672 13.5291 38.1214 13.6732 38.9152 14.156L48.6647 20.0857L47.6254 21.7944L37.8759 15.8648C37.5398 15.6604 37.1358 15.5993 36.7544 15.6953L13.0557 21.6591C12.2691 21.8571 11.7919 22.6552 11.9899 23.4417L15.9579 39.2095C16.1558 39.9961 16.9539 40.4733 17.7405 40.2753L41.4392 34.3115C41.8206 34.2155 42.1476 33.9705 42.3469 33.6314L48.1284 23.7933M48.1284 23.7933C48.535 23.1015 48.311 22.2114 47.6254 21.7944L48.6647 20.0857C50.2839 21.0705 50.8129 23.1726 49.8527 24.8066L44.0712 34.6447C43.6005 35.4456 42.8282 36.0243 41.9273 36.251L18.2286 42.2149C16.3708 42.6824 14.4859 41.5554 14.0184 39.6976L10.0503 23.9298C9.58284 22.0721 10.7099 20.1871 12.5676 19.7196L36.2663 13.7558M43.8494 23.8074C43.7774 23.5211 43.4868 23.3473 43.2005 23.4194C42.9142 23.4915 42.7405 23.782 42.8125 24.0683C42.8846 24.3547 43.1751 24.5284 43.4614 24.4563C43.7478 24.3843 43.9215 24.0937 43.8494 23.8074ZM43.6886 25.3589C42.9037 25.5564 42.1074 25.0803 41.9099 24.2955C41.7124 23.5106 42.1885 22.7143 42.9733 22.5168C43.7582 22.3193 44.5545 22.7954 44.752 23.5802C44.9495 24.3651 44.4734 25.1614 43.6886 25.3589Z" fill="#E7F9E3"/>
<path d="M21.6557 32.8753L19.7974 33.3286L20.1226 34.6617L18.6683 35.0165L18.3431 33.6834L17.1601 33.9719L16.8743 32.8004L18.0574 32.5118L17.9067 31.8943L16.7236 32.1829L16.4379 31.0114L17.6209 30.7228L16.6186 26.6138L19.8331 25.8296C20.7604 25.6034 21.5601 25.6652 22.2324 26.0148C22.9037 26.3606 23.337 26.9336 23.5322 27.7339C23.7312 28.5495 23.6239 29.2544 23.2103 29.8485C22.7959 30.4388 22.1207 30.8542 21.1847 31.0947L19.361 31.5396L19.5117 32.1571L21.37 31.7038L21.6557 32.8753ZM19.0753 30.368L20.8124 29.9443C21.3356 29.8167 21.7062 29.5979 21.9241 29.2879C22.142 28.9779 22.1922 28.5825 22.0749 28.1016C21.9698 27.6707 21.7474 27.3519 21.4076 27.1454C21.0716 26.9379 20.6637 26.8866 20.1838 26.9915L18.3601 27.4363L19.0753 30.368Z" fill="#E7F9E3"/>
<path d="M29.5854 31.0589L27.7271 31.5122L28.0523 32.8453L26.598 33.2001L26.2728 31.867L25.0897 32.1555L24.804 30.984L25.987 30.6954L25.8364 30.0779L24.6533 30.3665L24.3676 29.195L25.5506 28.9064L24.5483 24.7973L27.7628 24.0132C28.69 23.787 29.4898 23.8488 30.1621 24.1984C30.8334 24.5442 31.2667 25.1172 31.4619 25.9175C31.6609 26.7331 31.5536 27.438 31.14 28.0321C30.7256 28.6224 30.0504 29.0378 29.1144 29.2783L27.2907 29.7232L27.4414 30.3407L29.2997 29.8874L29.5854 31.0589ZM27.005 28.5516L28.7421 28.1279C29.2653 28.0002 29.6359 27.7814 29.8538 27.4715C30.0716 27.1615 30.1219 26.7661 30.0046 26.2852C29.8995 25.8543 29.6771 25.5355 29.3373 25.329C29.0013 25.1215 28.5934 25.0702 28.1135 25.175L26.2898 25.6199L27.005 28.5516Z" fill="#E7F9E3"/>
<path d="M37.5932 29.5823L35.7349 30.0356L36.0601 31.3688L34.6058 31.7235L34.2806 30.3904L33.0976 30.679L32.8118 29.5074L33.9949 29.2189L33.8442 28.6013L32.6611 28.8899L32.3754 27.7184L33.5584 27.4298L32.5561 23.3208L35.7706 22.5367C36.6979 22.3105 37.4976 22.3722 38.1699 22.7218C38.8412 23.0676 39.2745 23.6406 39.4697 24.4409C39.6687 25.2565 39.5614 25.9614 39.1478 26.5555C38.7334 27.1458 38.0582 27.5612 37.1222 27.8017L35.2985 28.2466L35.4492 28.8641L37.3075 28.4108L37.5932 29.5823ZM35.0128 27.0751L36.7499 26.6513C37.2731 26.5237 37.6437 26.3049 37.8616 25.9949C38.0795 25.685 38.1297 25.2895 38.0124 24.8086C37.9073 24.3777 37.6849 24.059 37.3451 23.8524C37.0091 23.645 36.6012 23.5936 36.1213 23.6985L34.2976 24.1433L35.0128 27.0751Z" fill="#E7F9E3"/>
<path fill-rule="evenodd" clip-rule="evenodd" d="M55.1999 16.3777C51.9601 17.2306 48.1882 19.6204 44.2051 24.3908C43.8512 24.8148 43.2205 24.8715 42.7966 24.5175C42.3727 24.1636 42.3159 23.5329 42.6699 23.109C46.8275 18.1296 50.9305 15.4335 54.6908 14.4436C58.4716 13.4483 61.8359 14.1998 64.3985 15.9793C69.4447 19.4835 71.3283 26.9894 67.1973 32.3305L65.6153 31.1069C68.953 26.7914 67.4929 20.5631 63.2578 17.6221C61.1797 16.1791 58.4191 15.5303 55.1999 16.3777Z" fill="#2A6458"/>
</svg>
