<svg width="90" height="90" viewBox="0 0 90 90" fill="none" xmlns="http://www.w3.org/2000/svg">
<g clip-path="url(#clip0_2146_29805)">
<circle cx="44" cy="77.0859" r="25.3125" fill="#BFEDC3"/>
<circle cx="44.4219" cy="77.5078" r="6.32812" fill="#FFFFF5"/>
<path d="M42.3125 47.5547L47.375 52.6172H42.3128L42.3125 47.5547Z" fill="#BFEDC3"/>
<path d="M48.416 47.7832L52.1179 53.9113L47.2033 52.6983L48.416 47.7832Z" fill="#BFEDC3"/>
<path d="M54.0205 49.2422L56.4214 55.9871L51.8488 53.8152L54.0205 49.2422Z" fill="#BFEDC3"/>
<path d="M59.4746 51.9551L60.4032 59.0541L56.3897 55.9691L59.4746 51.9551Z" fill="#BFEDC3"/>
<path d="M64.2275 55.7441L63.6457 62.8799L60.3689 59.0213L64.2275 55.7441Z" fill="#BFEDC3"/>
<path d="M23.7715 96.7422L24.3534 89.6064L27.6301 93.465L23.7715 96.7422Z" fill="#BFEDC3"/>
<path d="M67.9199 60.2051L65.922 67.0801L63.4836 62.6439L67.9199 60.2051Z" fill="#BFEDC3"/>
<path d="M20.0781 92.2793L22.0761 85.4043L24.5144 89.8404L20.0781 92.2793Z" fill="#BFEDC3"/>
<path d="M70.7578 65.5938L67.3586 71.8948L65.9078 67.045L70.7578 65.5938Z" fill="#BFEDC3"/>
<path d="M17.2402 86.8887L20.6394 80.5876L22.0903 85.4374L17.2402 86.8887Z" fill="#BFEDC3"/>
<path d="M72.2852 70.8301L67.7591 76.3774L67.2485 71.341L72.2852 70.8301Z" fill="#BFEDC3"/>
<path d="M15.7139 81.6543L20.24 76.107L20.7505 81.1434L15.7139 81.6543Z" fill="#BFEDC3"/>
<path d="M72.7959 76.5996L67.2514 81.1291L67.7589 76.0924L72.7959 76.5996Z" fill="#BFEDC3"/>
<path d="M15.2031 75.8848L20.7477 71.3553L20.2402 76.392L15.2031 75.8848Z" fill="#BFEDC3"/>
<path d="M72.0771 82.6484L65.704 85.9105L67.2595 81.0932L72.0771 82.6484Z" fill="#BFEDC3"/>
<path d="M15.9219 69.8359L22.295 66.5739L20.7396 71.3912L15.9219 69.8359Z" fill="#BFEDC3"/>
<path d="M70.2461 88.0957L63.3522 90.0274L65.8331 85.6149L70.2461 88.0957Z" fill="#BFEDC3"/>
<path d="M17.7529 64.3887L24.6469 62.457L22.1659 66.8695L17.7529 64.3887Z" fill="#BFEDC3"/>
<path d="M67.3428 93.1074L60.2017 93.6206L63.5154 89.7938L67.3428 93.1074Z" fill="#BFEDC3"/>
<path d="M20.6553 59.377L27.7963 58.8637L24.4826 62.6906L20.6553 59.377Z" fill="#BFEDC3"/>
<path d="M24.9092 54.6797L31.9896 55.7407L27.9191 58.7502L24.9092 54.6797Z" fill="#BFEDC3"/>
<path d="M29.9883 51.082L36.6754 53.6394L32.0535 55.7041L29.9883 51.082Z" fill="#BFEDC3"/>
<path d="M35.9248 48.5977L41.8772 52.5759L36.9122 53.5629L35.9248 48.5977Z" fill="#BFEDC3"/>
<rect x="7" y="76" width="75" height="14" fill="#FFFFF5"/>
<rect x="7" y="13.3828" width="70.5156" height="2.99219" fill="#BFEDC3"/>
<path d="M32.8251 30.896C32.1059 30.7833 31.6012 30.0531 31.8324 29.3017C31.9528 28.91 32.0932 28.5734 32.2535 28.2917C32.5796 27.7188 33.0939 27.1867 33.7963 26.6954C34.5067 26.1978 34.9924 25.7815 35.2533 25.4465C35.5155 25.1042 35.6787 24.7276 35.7432 24.3167C35.9375 23.0766 35.5057 22.3737 34.4476 22.2078C33.9457 22.1291 33.5157 22.2346 33.1576 22.5243C33.1251 22.5506 33.0937 22.5781 33.0634 22.6069C32.5196 23.1239 31.9103 23.7384 31.2038 23.6277L30.8395 23.5706C30.1149 23.457 29.6042 22.7084 29.9187 21.9846C30.2318 21.2638 30.6892 20.6922 31.2907 20.2695C32.2424 19.6068 33.4304 19.387 34.8548 19.6103C36.2927 19.8357 37.3492 20.3885 38.0243 21.2686C38.7005 22.1414 38.9311 23.2639 38.716 24.6361C38.6182 25.2597 38.3968 25.8302 38.0516 26.3475C37.7076 26.8574 37.1605 27.3994 36.4104 27.9734L35.4535 28.6918C34.854 29.1466 34.4606 29.7277 34.2733 30.4351C34.1912 30.8092 33.8553 31.0575 33.5055 31.0026L32.8251 30.896ZM30.6982 34.0246C30.7753 33.533 30.9911 33.1533 31.3458 32.8856C31.7084 32.6117 32.1305 32.5125 32.612 32.588C33.0936 32.6634 33.4617 32.8865 33.7163 33.2572C33.9788 33.6216 34.0716 34.0497 33.9945 34.5413C33.9186 35.0256 33.7033 35.4015 33.3486 35.6692C33.0007 35.938 32.5792 36.0335 32.0841 35.9559C31.589 35.8783 31.2135 35.6578 30.9578 35.2945C30.7088 34.9322 30.6223 34.5089 30.6982 34.0246Z" fill="#BFEDC3"/>
<path d="M53.7432 32.4396C53.441 32.7913 52.8765 32.8199 52.547 32.4429C52.3753 32.2464 52.24 32.0575 52.1412 31.8762C51.9402 31.5076 51.8244 31.0507 51.7938 30.5056C51.7625 29.9541 51.6998 29.5516 51.6059 29.2979C51.5084 29.0412 51.3591 28.8266 51.1582 28.654C50.5518 28.133 50.0263 28.1313 49.5819 28.6487C49.371 28.8941 49.284 29.1624 49.3208 29.4534C49.3242 29.4798 49.3286 29.506 49.334 29.5321C49.4317 29.9999 49.5603 30.5358 49.2635 30.8813L49.1104 31.0595C48.806 31.4138 48.2295 31.4395 47.9429 31.0265C47.6575 30.6154 47.5012 30.1761 47.474 29.7086C47.4341 28.9711 47.7133 28.254 48.3116 27.5575C48.9157 26.8543 49.5692 26.4675 50.2721 26.3969C50.9715 26.3233 51.6567 26.5746 52.3277 27.1511C52.6327 27.4131 52.8674 27.7242 53.0318 28.0845C53.1926 28.4417 53.3028 28.9197 53.3622 29.5184L53.4305 30.2774C53.4759 30.7545 53.6587 31.1623 53.979 31.5009C54.1541 31.6707 54.1759 31.9359 54.029 32.1069L53.7432 32.4396ZM54.7245 34.6402C54.4841 34.4337 54.3509 34.1895 54.3248 33.9077C54.298 33.6195 54.3857 33.3577 54.588 33.1222C54.7903 32.8867 55.0345 32.7621 55.3206 32.7485C55.606 32.7285 55.8689 32.8217 56.1093 33.0282C56.3461 33.2317 56.4776 33.4743 56.5036 33.7561C56.5326 34.0346 56.443 34.2949 56.235 34.537C56.027 34.7791 55.7818 34.9086 55.4993 34.9253C55.2196 34.9387 54.9614 34.8436 54.7245 34.6402Z" fill="#BFEDC3"/>
<path d="M8.82879 66.8121C8.4018 66.6313 8.20271 66.1022 8.46157 65.6736C8.59646 65.4502 8.7352 65.2639 8.87778 65.1146C9.16773 64.8109 9.56766 64.5616 10.0776 64.3665C10.5933 64.1687 10.9577 63.9865 11.1707 63.8198C11.3856 63.6488 11.5446 63.4413 11.6479 63.1973C11.9595 62.4611 11.8012 61.9601 11.173 61.6942C10.875 61.5681 10.593 61.5669 10.327 61.6905C10.3029 61.7018 10.2793 61.7139 10.2561 61.7271C9.84022 61.9625 9.36888 62.2481 8.94942 62.0706L8.73311 61.979C8.30295 61.797 8.103 61.2556 8.40908 60.8569C8.71386 60.4599 9.08474 60.1773 9.52172 60.009C10.2121 59.7465 10.9801 59.7942 11.8257 60.1521C12.6794 60.5134 13.2468 61.0181 13.5281 61.6662C13.8111 62.31 13.7802 63.0391 13.4354 63.8538C13.2787 64.224 13.0538 64.5423 12.7606 64.8087C12.4693 65.0706 12.0476 65.321 11.4954 65.5599L10.7932 65.856C10.3526 66.0444 10.0198 66.3427 9.79479 66.7509C9.68629 66.9694 9.44041 67.0709 9.23269 66.983L8.82879 66.8121ZM7.03142 68.4167C7.15495 68.1249 7.34697 67.9236 7.60745 67.813C7.87381 67.6997 8.14994 67.7036 8.43584 67.8246C8.72173 67.9456 8.91472 68.1403 9.01479 68.4087C9.12074 68.6744 9.11194 68.9532 8.98841 69.245C8.86672 69.5326 8.67563 69.7316 8.41514 69.8423C8.15868 69.9546 7.88347 69.9485 7.58952 69.8241C7.29557 69.6997 7.09764 69.5055 6.99572 69.2415C6.89783 68.9792 6.90973 68.7043 7.03142 68.4167Z" fill="#BFEDC3"/>
<path d="M14.8394 16.375H18.1659C18.1659 16.375 18.4714 21.7146 18.3674 24.0708C16.7212 23.7733 14.5195 24.2692 14.5195 24.2692L14.8394 16.375Z" fill="#BFEDC3"/>
<path fill-rule="evenodd" clip-rule="evenodd" d="M25.0913 32.1628C25.0913 28.6719 20.3313 25.2207 16.4842 25.2207C6.28514 25.2207 2.24299 38.7479 14.9365 46.3644C16.2106 41.1644 19.0887 37.2825 21.6428 34.825C18.7185 37.9218 16.853 42.3134 15.8924 45.565C21.7032 46.3536 24.3006 47.464 24.873 47.9206C25.087 47.0972 25.1727 46.1536 25.0913 45.095V32.1628ZM23.4396 33.272C24.0632 32.7929 24.6269 32.4224 25.0913 32.1628C24.5135 32.4609 23.9632 32.8118 23.4396 33.2061C23.4396 28.7625 19.5663 26.8325 17.1298 26.29C22.3862 27.4886 22.7038 33.8032 22.7038 33.8032L22.7088 33.862L23.7032 45.3925L23.4396 33.272ZM15.3055 47.9206C15.4074 47.3989 15.5486 46.7954 15.7303 46.1335C21.0941 46.9644 23.7759 48.454 24.4463 49.0949C22.5166 53.1089 17.0083 53.0569 15.3055 47.9206ZM11.1281 32.4405C11.0988 30.986 12.0306 29.5248 14.2421 29.5248C12.814 29.624 11.6834 30.5329 11.6834 32.4405C11.6834 34.1066 13.3581 34.6421 14.2421 34.6421C15.1942 34.6421 16.89 34.057 16.89 32.4405C16.89 30.6474 15.8487 29.624 14.2421 29.5248C16.394 29.5248 17.4849 30.986 17.4652 32.4405C17.4457 33.8818 16.335 35.624 14.2421 35.624C12.0504 35.624 11.1571 33.8818 11.1281 32.4405ZM14.0338 44.4503C11.4553 42.5462 8.9661 40.1562 8.72809 36.8041C9.22395 39.938 13.2305 42.3181 14.6785 42.7743L14.0338 44.4503ZM15.1347 32.262C15.1347 32.7549 14.7351 33.1545 14.2421 33.1545C13.7492 33.1545 13.3496 32.7549 13.3496 32.262C13.3496 31.769 13.7492 31.3694 14.2421 31.3694C14.7351 31.3694 15.1347 31.769 15.1347 32.262Z" fill="#BFEDC3"/>
<path d="M67.2329 16.375H70.5594C70.5594 16.375 70.865 21.7146 70.761 24.0708C69.1147 23.7733 66.9131 24.2692 66.9131 24.2692L67.2329 16.375Z" fill="#BFEDC3"/>
<path fill-rule="evenodd" clip-rule="evenodd" d="M77.4848 32.1628C77.4848 28.6719 72.7249 25.2207 68.8778 25.2207C58.6787 25.2207 54.6365 38.7479 67.3301 46.3644C68.6041 41.1644 71.4823 37.2825 74.0364 34.825C71.112 37.9218 69.2465 42.3134 68.286 45.565C74.0968 46.3536 76.6942 47.464 77.2665 47.9206C77.4806 47.0972 77.5663 46.1536 77.4848 45.095V32.1628ZM75.8332 33.272C76.4567 32.7929 77.0205 32.4224 77.4848 32.1628C76.9071 32.4609 76.3567 32.8118 75.8332 33.2061C75.8332 28.7625 71.9599 26.8325 69.5233 26.29C74.7798 27.4886 75.0973 33.8032 75.0973 33.8032L75.1024 33.862L76.0968 45.3925L75.8332 33.272ZM67.699 47.9206C67.801 47.3989 67.9421 46.7954 68.1239 46.1335C73.4876 46.9644 76.1694 48.454 76.8398 49.0949C74.9101 53.1089 69.4018 53.0569 67.699 47.9206ZM63.5216 32.4405C63.4924 30.986 64.4241 29.5248 66.6357 29.5248C65.2076 29.624 64.077 30.5329 64.077 32.4405C64.077 34.1066 65.7516 34.6421 66.6357 34.6421C67.5877 34.6421 69.2836 34.057 69.2836 32.4405C69.2836 30.6474 68.2423 29.624 66.6357 29.5248C68.7876 29.5248 69.8785 30.986 69.8588 32.4405C69.8393 33.8818 68.7285 35.624 66.6357 35.624C64.4439 35.624 63.5506 33.8818 63.5216 32.4405ZM66.4274 44.4503C63.8489 42.5462 61.3597 40.1562 61.1216 36.8041C61.6175 39.938 65.6241 42.3181 67.072 42.7743L66.4274 44.4503ZM67.5282 32.262C67.5282 32.7549 67.1286 33.1545 66.6357 33.1545C66.1427 33.1545 65.7431 32.7549 65.7431 32.262C65.7431 31.769 66.1427 31.3694 66.6357 31.3694C67.1286 31.3694 67.5282 31.769 67.5282 32.262Z" fill="#BFEDC3"/>
</g>
<defs>
<clipPath id="clip0_2146_29805">
<rect width="90" height="90" fill="white"/>
</clipPath>
</defs>
</svg>
