<svg xmlns="http://www.w3.org/2000/svg" xmlns:xlink="http://www.w3.org/1999/xlink" width="326" height="127" fill="none" xmlns:v="https://vecta.io/nano"><g clip-path="url(#C)"><path d="M99.213 110.991c1.802 1.053 5.611 4.036 6.46 7.565l.967-.285c-.56-1.512-.192-3.179.082-3.858.048.864.279 2.582.832 3.596a2.13 2.13 0 0 0 .382.523l-1.173.035-.123-.296-.967.285.005.024-1.126.811s.009-.159-.062-.486l-.981.214a7.24 7.24 0 0 1 .154.685c-.209.858-.89 2.035-1.945-.119l-.883.387.034.254c-.117.72-.87.908-1.232.912a4.22 4.22 0 0 1-.202-.529c-.444-1.447-.099-2.98.161-3.625-.021 1.184.663 2.415 1.119 3.042l.12-.054-.383-2.867 1.266 2.48c-.119-2.471-1.293-4.257-1.865-4.842.964.344 2.933 1.659 3.656 4.276.226-.037.509-.088.981-.214-.216-.989-1.162-3.521-5.277-7.914z" fill="#4ba25c"/><path d="M147 111.75l-46 11.375V127l74.875.25 65.5-8.625-16.5-6.875-50.906-5.734L147 111.75z" fill="#3f834c"/><g fill="#4ba25c"><path d="M108.055 117.957c-.034-.053-.016-.179.057-.358.39-.966 2.362-3.486 6.314-4.529-1.851.886-2.935 2.296-3.76 3.783l-.486.933c-.894 1.812-2.258.85-2.125.171zm4.923-1.772c.544-1.078 1.192-2.171 2.118-2.932-.207 1.273-.806 2.051-.992 2.602l-1.721 1.555.595-1.225zm2.918-.883c-.028-1.024.37-2.619.37-2.619l.67 2.281.211.716s-.411.373-.74.451c-.366.088-.497-.292-.511-.829zm33.437-6.104c-.034-.053-.016-.179.057-.359.391-.966 2.362-3.486 6.314-4.529-1.85.886-2.935 2.297-3.76 3.784l-.486.933c-.894 1.811-2.257.849-2.125.171zm4.923-1.773c.544-1.077 1.193-2.17 2.119-2.932-.208 1.273-.807 2.052-.992 2.603l-1.721 1.555.594-1.226zm2.918-.883c-.028-1.024.37-2.619.37-2.619l.671 2.282.21.716s-.41.372-.739.451c-.366.087-.497-.293-.512-.83z"/></g><path fill-rule="evenodd" d="M83.5 127c17.882-9.404 54.244-20.035 90.516-20.953 40.742-1.033 75.109 8.328 102.234 20.953H175.5h-92zm20-2.501c4.312-2.781 7.773-2.251 14.073-3.289 35.175-8.245 72.816-13.21 108.302-4.461-36.209-5.058-72.281.45-108.302 4.461-5.506 1.17-9.292 3.289-14.073 3.289zm115.5-4.718c-29.335-1.608-58.106.62-87.062 5.656 28.883-1.805 58.132-5.656 87.062-5.656z" fill="url(#A)"/><g fill="#f1ca3f"><path d="M240 86.875c-.585 16.265-14.346 29.5-30.5 29.5s-27.75-12.596-27.75-28.75a39.99 39.99 0 0 1 .034-3.367c.242-4.589 1.281-8.722 2.946-12.335l.213-.453c4.994-10.381 15.217-16.345 26.432-16.345 16.154 0 29.25 14.375 28.625 31.75z"/><path d="M182.438 69.813l2.292 2.111.213-.453-1.818-2.658-.687 1zm-2.563 11.5l1.875 6.313.034-3.367-1.096-2.946h-.813zM224 122.562l-25.844-8.031L218 55.938l10.938 3.266 10.75 1.578-.626.563h-1.437l-2.156-.563-1.575.132 10.231 3.337C264.337 77.359 224 122.562 224 122.562z"/></g><path fill-rule="evenodd" d="M209.625 103.75c.33 4.741 3.836 13.964 14.666 18.669l-25.916-7.731c-5.083-1.542-15.475-8.513-16.375-24.063l4.38 3.46-1.755-3.46-2.125-1.562V87.5l3 2.188 2.75 5.875 6.465 5.813 4.097-4.75-.937-2.125.5-2.062L200 96.625l-4.25 5.625h1.062l-1.562 1.125.5.375 2.125-1.5 3.005-.601 1.932-3.024h1.688c-.75.771-2.25 2.4-2.25 2.75l2.717.875.595 2.188.626-.313v-1.482l3.437 1.107zm14.666 18.669l7.397 2.206c-2.78-.508-5.234-1.267-7.397-2.206z" fill="#d3c13f"/><g fill="#cbb93d"><path d="M200.844 56.406l-2.5 1.594 3.375-1.25v-.344-.937l.375-1.094-.219-1.062-1.031 3.094z"/><path fill-rule="evenodd" d="M218.219 58.969c-15.992 0-28.224 10.632-27.594 30.906 0 10.749 3.875 21.75 13.438 26.531l2.625.75c-10.5-.25-19.057-14.866-19.063-27.281-.578-18.829 10.357-29.972 24.931-32.229-1.331-.892-2.4-1.552-2.45-1.677s.04-4.896.894-6.688l3.906.75 1 5.656.254-2.625 1.465-2.469 4.313 2.156-2.844 4.469c5.009.378 9.445.972 15.547 4.016 0 0-3.749-1.661-6.313-2.016-2.722-.376-4.198-.345-6.571-.295l-3.538.045zm-2.469-1.671c0-.288-.562-2.777-.844-3.985l-1.125-2.531-1.75.281-.25 4.406 1.763 2.039a36.53 36.53 0 0 1 2.206-.21zm2.47-.079a38.48 38.48 0 0 0-1.531.03l-.529-.499.746-2.844 1-1.844 2.219 1.844-1.905 3.313z"/></g><path d="M267.625 95.5c-.585 16.265-14.346 29.5-30.5 29.5s-28-9.846-28-26C208.5 78.875 222.846 63.75 239 63.75s29.25 14.375 28.625 31.75z" fill="#d3c23f"/><path fill-rule="evenodd" d="M245.906 113.094c5.663-2.907 9.594-7.112 10.782-11.406 1.196-4.328-.339-9.283-2.334-13.227s-5.284-7.108-9.224-8.561c-3.897-1.437-8.557-1.251-13.484 1.7-6.776 4.057-8.753 11.138-7.106 16.223.818 2.525 2.515 4.543 4.966 5.564 2.458 1.023 6.173 1.927 10.556.207 3.409-1.338 5.225-3.624 5.719-5.25.498-1.637-.541-3.712-1.662-4.999s-2.886-2.119-4.952-1.953c-1.929.155-4.277 1.199-6.657 3.878-.266.3-.726.339-1.028.075a.7.7 0 0 1-.201-.762c1.459-4.086 3.492-6.69 6.438-6.926 3.043-.244 7.056 1.3 8.781 3.281s2.391 5.172 1.56 7.907c-.834 2.745-3.202 5.171-7.2 6.74-4.91 1.927-9.156 1.967-12.507.572s-5.612-4.154-6.667-7.409c-2.098-6.477-.635-16.506 7.283-21.247 5.666-3.393 10.177-1.954 14.969-.187 4.749 1.751 10.804 5.27 13.092 9.794s4.67 9.887 3.251 15.018c-1.423 5.149-7.154 9.241-13.469 12.5-7.512 3.877-13.991 4.439-21.531 1.203-2.951-1.267-7.611-2.513-9.999-4.592a20.1 20.1 0 0 0 3.792 4.592c4.332 3.897 10.573 6.172 18.051 6.172 14.537 0 27.41-11.034 27.937-25.687.571-15.865-11.789-30.25-26.062-30.25-17.475 0-27.294 16.647-26.872 33.375a34.3 34.3 0 0 0 .314 3.785c2.527 4.387 7.64 8.671 12.839 10.903 6.91 2.966 13.844 1.703 20.625-1.031zM209.125 99c-.368-11.844 4.45-21.957 11.77-28.273l.383-.325c5.049-4.216 11.24-6.652 17.722-6.652a26.95 26.95 0 0 1 3.704.255c9.583 1.328 17.702 7.738 21.893 16.6.78 1.65 1.424 3.384 1.916 5.187a32.39 32.39 0 0 1 1.112 9.708c-.585 16.265-14.346 29.5-30.5 29.5-14.327 0-25.264-7.744-27.556-20.765-.292-1.661-.444-3.407-.444-5.235z" fill="url(#B)"/><path d="M220.5 63.313l.395 7.414.383-.325-.184-1.621-.156-4.812-.438-.656z" fill="url(#B)"/><path d="M244.594 63.313c-.429.275-3.908.406-5.594.438a26.95 26.95 0 0 1 3.704.255l2.426-.255 1.401-1.187-.156-.344-1.781 1.094z" fill="url(#B)"/><path d="M270.375 91.392c-1-1.137-4.269-7.665-5.778-10.786.78 1.65 1.424 3.384 1.916 5.187l1.112 3.083 1.563 3.063 1.187-.546z" fill="url(#B)"/><g fill="#4cad60"><path d="M169.468 97.999c-1.687 2.719-2.187 5.548-2.284 8.774.003.024 2.284-.148 2.284-.148l1.813-.204c.361-.028.946-.044 1.25-.125.687 0 1.25 0 1.437-.125-.125-.891-.922-2.083-1.568-2.5.24.828.335 1.878.131 2.625l-.889-2.208-.361 2.333c-.766-2.352-.531-4.016-.531-4.922-.594.875-1.336 2.589-1.282 5.126-.149-1.001-.937-4.782 0-8.626zM149.97 99.97c-.501 4.061-.486 7.046.139 8.311-.89.266-2.546.266-2.546.266-.816-.083-1.417.173-1.844.141-.362-.028-1.468.299-1.984.422-.687 0-1.156.145-1.688.294.469-.834.844-1.701.985-2.967.656 1.032.499 1.925.703 2.673 0 0 .641-1.047.797-2.266.765.687 1.187 1.844 1.187 1.844.766-2.353.139-3.492-.189-4.242.78.664 1.579 2.398 2.033 4.101.149-1.001.656-4.61 2.407-8.577z"/></g><g fill="#3f834c"><ellipse rx="2.938" ry=".625" transform="matrix(.973126 -.230272 .230271 .973127 119.501 118.311)"/><ellipse cx="140.72" cy="121.059" rx="2.167" ry=".625" transform="rotate(356.53 140.72 121.059)"/><ellipse cx="172.856" cy="108.247" rx="2.167" ry=".625" transform="rotate(356.53 172.856 108.247)"/><ellipse cx="171.22" cy="111.386" rx="1.611" ry=".465" transform="rotate(356.53 171.22 111.386)"/><ellipse cx="156.637" cy="111.799" rx="6.999" ry=".554" transform="rotate(356.53 156.637 111.799)"/><ellipse cx="139.592" cy="114.542" rx="3.221" ry=".625" transform="rotate(356.53 139.592 114.542)"/><ellipse cx="123.749" cy="114.542" rx="3.221" ry=".625" transform="rotate(356.53 123.749 114.542)"/></g><g fill="#7d6e75"><use xlink:href="#D"/><path d="M153.966 89.74l1.133.303-1.4 5.222c-.393 1.467-1.128 1.946-1.128 1.946s-.389-.812-.004-2.25l1.399-5.222zm1.522-.578l1.132.303.89-3.32-1.133-.303-.889 3.32z"/></g><path d="M156.378 85.842l1.133.303 9.744-36.365c.083-.313-.102-.634-.415-.718s-.634.102-.718.415l-9.744 36.365z" fill="#570e0e"/><g fill="#7d6e75"><path d="M156.517 90.424l1.132.303-1.399 5.222c-.393 1.467-1.128 1.946-1.128 1.946s-.389-.812-.004-2.25l1.399-5.222zm2.551.684l1.132.303-1.399 5.222c-.393 1.467-1.128 1.946-1.128 1.946s-.389-.812-.005-2.25l1.4-5.222z"/><path d="M151.415 89.057a1.03 1.03 0 0 1 1.263-.729l6.792 1.82a1.03 1.03 0 0 1 .73 1.263l-8.785-2.354z"/></g><path d="M125.884 104.322s-.532-.657-.219-1.203c1.094-1.906 3.971-1.836 5.821-.736-.263-1.28-.965-4.092-1.665-5.092V95.76l.665 1.531.554 1.655.656 1.064v1.841c.85-1.518 4.044-1.626 5.344-2.074l1.634-.206-1.634-.343-1.5-2.219h.563l1.218 1.936 1.282.282c.037-1.258 2.712-3.418 2.875-4.5l1.187-1.5.344.531-1.037.901 5.888-.82.274-1.519.25.5v.976c4.101-.297 8.325.289 12.364 4.19l.167-1.729-.406-1.187.739-.411c-.036 1.239-.086 3.74 0 3.83a19.43 19.43 0 0 1 .426.456c1.525.279 4.051 1.544 4.421 4.486.1.795.043 1.711-.234 2.764 2.104 1.687 6.313 5.862 6.313 9.062h-54.5c0-1.122.403-2.369 1.097-3.597 1.193-2.114 3.024-4.837 5.265-6.39l-1.558.458-.407.5-.781.529.313-1.029 3.709-1.184a6.26 6.26 0 0 1 .572-.223z" fill="#f1ca3f"/><path d="M165.861 106.195c2.104 1.687 6.313 5.862 6.313 9.062 0 0-44.821 4.269-54.5 0 0-1.122.403-2.369 1.097-3.597.683-.041 1.559-.106 2.529-.193.017-.242.23-.969.334-1.302h.406v1.233c3.066-.299 6.782-.807 8.446-1.516l-1.508-1.404.906-1.196v.758l.963 1.675c2.643-1.337 3.514-4.147 7.808-2.963l2.073-1.587v.656l-1.835.999c3.366.999 3.018 2.45 2.406 3.062 1.875.396 6.162.95 8.312 0 1.301-.574 1.709-1.646 2.222-2.6l-3.137.383-.531-1.844h.531l.282.999h3.124c.519-.808 1.258-1.438 2.947-1.438 1.736 0 2.914-.946 4.232-1.743l-1.491-.208v-.203l2.575-.167c1.395-.62 3.093-.829 5.73.37.1.795.043 1.711-.234 2.764z" fill="#d3c13f"/></g><defs><linearGradient id="A" x1="179.875" y1="105.969" x2="179.875" y2="127" gradientUnits="userSpaceOnUse"><stop stop-color="#4cae60"/><stop offset="1" stop-color="#499759"/></linearGradient><linearGradient id="B" x1="245.375" y1="69.625" x2="191.5" y2="113.5" gradientUnits="userSpaceOnUse"><stop stop-color="#b1a235"/><stop offset="1" stop-color="#b1a235" stop-opacity="0"/></linearGradient><clipPath id="C"><path fill="#fff" d="M0 0h326v127H0z"/></clipPath><path id="D" d="M151.415 89.057l1.133.303-1.4 5.222c-.393 1.467-1.128 1.946-1.128 1.946s-.389-.812-.004-2.25l1.399-5.222z"/></defs></svg>