<svg xmlns="http://www.w3.org/2000/svg" xmlns:xlink="http://www.w3.org/1999/xlink" width="326" height="127" fill="none" xmlns:v="https://vecta.io/nano"><style><![CDATA[.B{fill-rule:evenodd}]]></style><path d="M77.75 68.75C140.25 62.75 176 29 176 29s45.178.471 60.75 20C226 94.25 142 117 142 117s-57.119-13.187-64.25-48.25z" fill="url(#A)"/><use xlink:href="#G" fill="#0c0c0c"/><path d="M124.938 69.5V55.906l1-2.656 3.562 4.125 5.562 3.688 5.5 2.313 3.813 2.438 4.375 5.375 4.125 5.125 9.063 4.938 13.75 2.688h13.187l8.875-6.312 6.625-8.062v15.063l-5.937 7.313-8 3.25L169 92.875l-17.812-7.812-11.376-8.25L131.156 74l-4.281-1.75-1.937-2.75z" fill="#fffff5"/><path d="M125 53.376v3.781a22.42 22.42 0 0 0 3.797 10.859c-2.275-1.45-3.474-5.12-3.797-7.078v2.875c0 4.375 2.542 7.292 3.812 8.531-2.218-.672-3.562-3.219-3.812-4.719v1.563c0 3.187 3.834 5.419 8.177 7.145 3.881 1.543 8.41 3.107 10.488 6.95 4.272 7.905 20.807 16.217 35.494 16.217 18.359 0 25.185-11.406 25.185-14.812l-.007-1.452c-2.306 4.702-6.387 7.718-10.993 9.327 2.841-1.808 8.656-4.844 10.983-10.838l-.028-3.857c-1.08 3.414-4.934 6.968-9.612 8.602 2.834-1.803 8.657-6.469 9.597-10.693l-.023-3.236c-.73 3.773-5.855 8.867-9.855 9.992 2.417-1.538 8.25-6.25 9.843-11.84l-.03-7.535c-.396-5.636-10.821-19.367-47.313-19.042-1.906 1.37-6.25 1.151-6.906.542 1 .109 2.844-.094 3.5-.781-9.485-.612-28.5.688-28.5 9.5zm16.219 11.187c1.396.675 4.383 2.858 6.17 6.53-1.299-2.169-4.468-5.11-6.17-6.53zm-14.594-8.563c1.104 2.375 5.569 7.413 14.594 8.563-7.975-2.2-13.052-6.625-14.594-8.563zm21.312 16.375c2.063 5.563 14.756 13.688 31.222 13-20.723 1.712-29.449-7.954-31.222-13z" fill="#e11f1f" class="B"/><path d="M152.233 72.881c-3.978-4.284-6.115-8.547-14.327-12.004-20.807-8.761-2.196-15.189 14.327-13.392 12.958.115 39.2.187 47.767 15.486 6.426 23.561-34.982 23.68-47.767 9.911z" fill="#fffff5"/><g fill="#e11f1f"><path d="M185.344 76.531c-1.98-1.129-2.024-2.695.203-4.633 2.534-2.205 10.797-2.315 11.234-.336.547 2.474-7.656 7.125-11.437 4.969zm-29.891-26.25c-1.708.275 1.969 3.203 5.337 3.111 4.446-.122 1.492-4.21-5.337-3.111zm-8.266 2.797c4.36-3.266 4.172-5.531 2.469-5.828 1.203-1.469 6.375-1.312 8.281-.203s-2.671 2.031-3.5 2.656c-.662.5-2.031 1.672-1.671 3.689-.985-2.033-.363-3.67.812-4.47 1.469-1 0-1.141-.281-.984-.683.379-.781.609-1.828 1.875-.891 1.077-3.558 3.208-4.282 3.266zm16.547-.625c1 7.406-9.703 3.766-9.297-1.187 1.594 2.359 7.876 5.14 9.297 1.188zm-5.64-3.343c.187-.125 9.406-1.094 16.031-.641-2.74-1.016-9.658-2.622-16.031.641z"/><path d="M165.328 54.859c-1.312 0-2.094 2.512.61 2.391 3.149-.141 4.372.17 7.199 1.273 3.222 1.258 4.004 3.695 4.004 3.695s13.246.908 14.734-3.572c.625-1.881-3.451-.498-6.098-.157-2.367.305-5.199.941-8.215.385-5.421-1-8.671-2.547-8.671-2.547s2.537.199 4.093-.172c-4.343-.234-6.343-1.297-7.656-1.297z" class="B"/><path d="M180.344 68.542c7.344.52 6.781 1.552-1.188 4.427-1.594.575 4.201 6.382-4.312 5.719-12.438-.969-16.969-4.344-18.563-9.625-.385-1.276-.27-3.515 1.344-3.484 2.385 3.002 11.994 9.123 22.719 2.964zm6.703-14.807c-3.614-1.468-13.688-4.625-19.719-4.625-8.484 0-3.969 2.375 0 2.156 7.525-.415 6.696 1.647 9.547 1.797-2.083.362-6.328-.172-9.159-.778-1.701-.364-4.41.581-1.357 1.778 4.576 1.793 9.317 1.239 14.25 1.219-1.687 1-3.281 1.484-7.781 1.813 5.406.875 11.226.776 14.453-.859.692-.35 1.266-1.891-.234-2.5z"/><path d="M148.75 48.313c-2.187-.875-16.5 1.406-17.656 4.406-.431 1.119.238 2.514 1.725 3.038 3.381-3.82 8.613-5.138 10.806-5.319 1.521-.245 3.65-.556 0 .156s-7.854 3.88-9.5 5.375c2.013 0 3.028-.572 4.139-1.197.544-.306 1.111-.626 1.83-.897.952-.359 1.939-.364 2.909-.369 1.256-.006 2.481-.012 3.56-.787 1.529-1.099 2.733-4.406 2.187-4.406z" class="B"/><path d="M163.531 60.688c2.11-1.719 7.719-.484 10.281 3.031-1.377-.29-4.453-1.719-6.669-1.558-2.112 0-3.975-1.177-3.612-1.474zm-4.906 1.203c-.313 4.734 7.05 9.047 15.75 6.047 1.307-.451 2.045-1.099 2.25-1.516-1.359-2.109-4.76-2.421-5.687-2.312-2.532.297-4.063.266-6.157-1.578-2.312-1.437-4.219 0-6.156-.641zm21.766 12.703c-.453.609.703 2.563-.047 3.938 1.25 0 2.369-1.147 2.594-2.547.281-1.75.593-2.414 2.609-4.086-.396-.073-3.53.509-5.156 2.695zm-35.485-16.219c2.953 2.125.782 8.625 7.313 10.688 2.14 1.359 3.578-1.109 1.359-2.391-1.269-.733-.734-1.984-2.672-3.328s-2.873-3.235-3.719-4.406c-.624-.865-1.468-1.078-2.281-.562z"/><path d="M141.172 55.1c-1.784.209-3.261.382-4.078 2.026-.882 1.773.93 2.987 3.484 3.344 1.427.199 3.797 1.422 5.219 3.641.489-1.718.145-3.07-.578-4.281-.553-.926-1.094-.978-.766-2.172.543-1.975-.828-2.969-.828-2.969s3.562 2.359 4.781 4.719 4.406 5.5 7.25 5.594 1.915-3.343 1.532-6.172c-.891 1.859-4.451-3.432-5.75-5.103-2.893-.274-6.1.512-7.813.962-.856.225-1.683.322-2.453.412zm10.778-1.314c1.284.511 4.597 6.036 4.597 4.511.281-3.125-1.985-4.905-4.597-4.511z" class="B"/><path d="M162.928 57.743c-5.841 0-6.053 4.257-1.897 3.101 8.339-3.319 12.52-.387 15.86 4.734 5.286 1.851 17.434 4.215 23.734-1.141.667-.913.887-3.381-3.563-5.948-2.18 2.777-9.407 7.64-20.865 4.881-2.745-6.915-8.672-5.512-13.269-5.628z"/></g><path d="M113.312 72.438c-1.75-2.7-4.781-13.719-5.093-16.656 11.625 5.25 44.406 25.906 65.469 38.094.312 6.375 3.468 10.125-.969 11.656C164.25 106 133 86.813 113.312 72.438z" fill="url(#B)"/><path d="M224.375 65.563c-8.063 10.188-38.563 25.563-50.719 28.25.375 4.75-.437 10.073-1.062 11.781 15.218-1.344 42.823-20.906 45.594-25.656 2-2.45 5.062-10.458 6.187-14.375z" fill="#282828"/><use xlink:href="#G" stroke="#0c0c0c" stroke-linejoin="round"/><use xlink:href="#G" fill="url(#C)"/><path d="M159 39.875L116.125 55.5c1.9 4.6 7.458 5.167 10 4.875L159 39.875z" fill="url(#D)"/><path d="M146.625 66.25s11.65-25.875 22.75-23.875 14.958 5.167 15.5 6.5l-38.25 17.375z" fill="url(#D)"/><path d="M198.125 70.125L206 58.375c6.625 0 10.125 4.375 9.375 4.5-.6.1-11.75 4.875-17.25 7.25z" fill="url(#D)"/><path d="M163.25 81.625c10.125-12 19.625-22.125 19.625-22.125l10-10.625s3.25 19.75-.625 33.375c-5 6.25-13.75 6.25-13.75 6.25l5.25-16.75-10.375 18.125s-7.84-3.69-10.125-8.25z" fill="url(#D)"/><path d="M113.963 65.077a1.69 1.69 0 0 1 2.234-1.861 1.69 1.69 0 0 1 1.115 1.495l.321 5.791a1.38 1.38 0 0 1-2.116 1.235c-.329-.211-.553-.551-.616-.936l-.938-5.724zm53.357 30.048c.413-.938 0-2.034-.928-2.467-1.077-.502-2.344.104-2.628 1.258l-1.2 4.875a1.45 1.45 0 0 0 2.734.93l2.022-4.596zm-43.668-24.593c.082-1.306 1.497-2.082 2.642-1.448a1.78 1.78 0 0 1 .909 1.748l-.482 4.505c-.158 1.481-2.021 2.041-2.97.892a1.68 1.68 0 0 1-.381-1.176l.282-4.522zM153.586 88.8a2 2 0 1 1 3.701 1.439l-1.862 3.467a1.52 1.52 0 0 1-2.809-1.092l.97-3.814zm-19.988-12.285a2.15 2.15 0 1 1 4.222.738l-1.043 4.045a1.82 1.82 0 0 1-2.573 1.172 1.82 1.82 0 0 1-.997-1.796l.391-4.159zm9.966 6.599c.285-1.391 1.801-2.145 3.082-1.531 1.067.511 1.533 1.778 1.052 2.858l-1.454 3.264c-.409.917-1.491 1.321-2.4.895-.752-.352-1.164-1.173-.997-1.986l.717-3.5z" fill="#282828"/><ellipse cx="166.438" cy="54.561" rx="14.063" ry="6.186" fill="url(#E)"/><g fill="#2a6458"><path d="M173.01 55.667l-11.235 1.094c.075-.051.356-.14.578-.204-.078-.128-.074-.253-.061-.305.023.1.122.212.183.271l-.09-.251.186.225a.98.98 0 0 0-.3-.432 1.01 1.01 0 0 1 .476.405.99.99 0 0 0 .098-.007c-.044-.086-.197-.312-.725-.733.212.11.677.408.842.717l.096-.013c-.092-.135-.089-.271-.075-.326.024.074.085.222.165.314l.983-.095c.028-.079.209-.268.637-.29-.194.046-.293.152-.362.269l.249-.018c.044-.086.099-.172.191-.223-.003.109-.057.168-.069.213l.192-.017c-.02-.091-.001-.226-.001-.226l.113.215.036-.004c-.046-.115-.18-.411-.469-.793.345.365.461.506.601.779l-.039-.275.121.265.128-.015c-.06-.116-.182-.294-.258-.366.134.06.273.237.364.353-.092-.145-.175-.383-.22-.481.064.101.181.326.295.472l.037-.005c-.088-.176-.119-.374-.134-.444.068.155.152.324.219.434l.055-.007-.062-.096.127.087.524-.065c-.088-.185-.12-.517-.13-.558.072.215.143.375.216.495.05-.144-.038-.286-.086-.355a1.25 1.25 0 0 1 .254.388l.08-.009c-.076-.186-.224-.437-.315-.547a1.14 1.14 0 0 1 .391.538l.052-.006c-.093-.15-.15-.339-.18-.412l.274.402.03-.003c-.147-.248-.242-.544-.27-.679.043.202.288.485.371.669l.039-.004c-.132-.173-.204-.409-.236-.503l.316.38c-.078-.167.044-.152-.283-.63.311.273.33.518.44.68 0-.059.001-.108-.009-.124a1.63 1.63 0 0 1 .088.171l.045-.003c-.08-.149-.154-.322-.181-.396a2.17 2.17 0 0 0 .252.392l.022-.001.078-.005c-.09-.194-.316-.526-.426-.674.148.122.387.47.514.668l.094-.007-.262-.382a2.39 2.39 0 0 1 .302.379l.706-.076c-.097-.165-.176-.518-.192-.663.069.23.229.508.319.645l.113-.017c-.128-.175-.164-.455-.183-.537.093.329.202.465.251.526l.045-.007c-.056-.112-.12-.216-.139-.242a1.97 1.97 0 0 1 .207.231l.051-.009c-.06-.1-.135-.254-.166-.323l.189.319.061-.011-.118-.229.161.221c-.075-.2-.21-.478-.279-.617.108.104.284.398.395.595l.089-.019c-.061-.161-.155-.322-.189-.371.106.122.207.269.264.355l.051-.011c-.076-.115-.144-.251-.172-.315.031.062.164.2.253.296l.062-.016a4.92 4.92 0 0 0-.42-.539c.223.153.397.404.466.528l.069-.018-.106-.256.136.247a1.91 1.91 0 0 0-.156-.512c.146.141.236.359.27.488l.032-.005c-.034-.074-.057-.179-.006-.267-.007.031.015.137.081.259l.123-.007a1.75 1.75 0 0 0-.284-.68c.093.119.304.435.394.68.496.007 1.093.135 1.415.096.092-.155-.129-.543-.224-.669.081.075.252.29.332.488-.007-.094.005-.172.028-.191-.01.096.052.265.088.353l.062-.003c-.013-.055-.043-.191-.087-.288l.157.285.09-.003c-.075-.084-.174-.238-.137-.331.013.044.11.248.172.312l.016.018.035-.001c-.029-.098-.14-.325-.175-.396.156.157.254.331.278.394l.116-.001-.106-.194c.067.028.153.143.189.193l.497.009z"/><path d="M169.412 53.687c-.214.317-.735.651-.735.651-.045.053-.089.124-.084.197 0 0-.022-.029-.043-.019s-.001.055-.001.055-.054-.005-.104-.061c.014.07-.028.074-.028.074s-.075-.105-.151-.146c-.049-.027-.103-.05-.103-.05l-.53.108-.115-.231-.112-.082h0 0 0 0 0c-.102-.073-.185-.133-.237-.197l.259.324.114.207h0l.083.111h0 0 0c.11.14.221.282.295.462.175.426.674.846.674.846l-.584.057s-.102-.394-.695-.766c-.096-.131-.294-.315-.502-.491-.107-.049-.197-.133-.321-.25l-.251-.227c-.479-.234-1.174-.82-1.258-.972.188.376.704.742 1.194.966.226.182.537.513.559.583a.59.59 0 0 1 .007.094c.001.013.001.026.001.039-.051-.052-.14-.12-.198-.139.058.044.186.153.203.218l.01.107c-.025-.046-.075-.072-.075-.072s.071.09.05.124c-.014.022-.066.036-.066.036-.128.028-.275.046-.437.051-.12-.002-.573-.012-.794-.069.22.009.472-.075.46-.27-.051.071-.216.087-.216.087.02.073-.003.159-.296.173l-.374-.095s.025-.082.022-.176c.002-.008.003-.015.004-.023a.47.47 0 0 0-.187-.065c-.055-.009-.112-.018-.196-.07-.096.102-.319-.168-.319-.168a.57.57 0 0 0 .505.322c.069.169-.169.191-.216.195h-.004c-.264-.215-.533-.272-.533-.272s.444.217.496.387c.088-.035.309-.122.407-.234-.084.163-.249.272-.429.373 0 0-.023-.081-.073-.1.021.039.033.132.033.132.029.123.058.267.025.399.009.012.01.071.01.071s-.05-.06-.05-.032.035.093.035.093-.05-.024-.055-.014l-.012.046-.021.02c-.058.052-.16.146-.289.195 0 0 .014-.054-.014-.087-.004.053-.052.109-.052.109l-.081.22-.305.03a.31.31 0 0 0-.024-.087c-.04-.023-.097-.049-.124-.049-.021 0-.034.012-.048.025h0c-.012.01-.023.02-.04.026.019-.023.036-.096.004-.163l-.03-.006c-.184-.029-.248.044-.265.094a.24.24 0 0 1-.022-.041l-.229-.538c-.028-.066-.07-.131-.124-.193l-.314-.361c.012-.047.063-.112.166-.097.177.025.293-.11.268-.202l-.005-.021c-.024-.084-.046-.164.073-.224.129-.065.074-.155.023-.236h0l-.017-.028c-.051.107-.126.083-.187.064-.042-.013-.077-.024-.093.012-.045.103-.296.232-.475.182.006-.019.014-.038.023-.055l-.182-.075c-.115-.044-.211-.284.14-.264 0 0-.124.118-.099.187.01-.045.07-.078.07-.078l.165.012c.081.002.23-.022.23-.047-.038.004-.089.003-.137.003-.025 0-.048 0-.068 0 .074-.109.218-.215.218-.215a.53.53 0 0 1 .243-.043c-.04-.021-.142-.061-.239-.049l.018-.353c-.018-.032-.01-.039-.002-.046s.01-.008.009-.018c-.004-.021-.023-.031-.048-.039.01-.018.035-.073.034-.095.035-.024 0-.054-.03-.08l-.007-.006c-.015-.008-.023-.042.023-.034-.002-.033-.008-.042-.024-.063l-.002-.003-.002-.003a2.03 2.03 0 0 1 .028-.236c.004.003.012.003.025.002.055-.005.077-.052.056-.09-.007-.014-.009-.024-.009-.031-.002-.013-.002-.017-.038-.013.102-.47.364-.962.73-1.1-.063.106-.112.334-.01.782.075-.45.227-.541.376-.63l.079-.049c.01-.021-.017-.046-.042-.07s-.05-.048-.031-.063c.222-.176.865-.119 1.178-.081l-.489-.153c.403.024.644.101.812.154l.038.012c-.046-.113.093-.194.234-.173.671.101.956.205.956.205s-.5-.209-.58-.341c-.053-.088.203-.166.423-.216l.102-.02.188-.036-.022.004 1.138-.207.846-.239c.341.01 1.195.311 1.552 1.047l.186.417.038.099.145.387h0c.163.441.352.953.6 1.406l.45.601c-.062-.022-.197-.1-.364-.299a2.66 2.66 0 0 1 .206.341 1.37 1.37 0 0 1-.257-.349l-.038-.066c.028.12.116.293.361.535-.115-.07-.527-.436-.518-.821-.123-.221-.194-.395-.317-.695l-.027-.064.014.111.038.388.024.341.044-.262a.31.31 0 0 1 .022.074h0c.009.035.017.07.026.084.037.055.067.102.081.153l.078 1.05.019.187-.002-.002.063.365-.625.061.009-.509-.342-.95-.025-.03a3.49 3.49 0 0 1-.471-.701l-.068-.122s.002.168.062.277.245.383.502.576c-.12-.055-.226-.114-.319-.172l-.088-.026-.153-.147v.033l-.098-.12s.031-.109.034-.185zm1.526 1.661l.248.407.512-.05-.152-.26-.082-.065-.048-.156-.076-.022-.043-.182-.369-.632c.057.253.045.839.045.839l.017.065c-.015.021-.042.047-.052.056zm-7.244-3.807l-.006.002zm1.775 3.761a1.17 1.17 0 0 0 .109.198c.288.415.261.756.261.756l.535-.052s-.258-.392-.126-.821c-.01-.026-.018-.054-.025-.084-.202.026-.561.03-.754.003zm3.753-4.389s-.424-.125-.989-.063c.115-.018.165-.05.209-.078s.081-.051.167-.052c.28.028.613.193.613.193zm-2.224 1.836c-.011-.147-.059-.256-.134-.392.082.191.136.42.136.42a.86.86 0 0 0-.025-.405l.023.377zm-.04.174c.001-.119-.001-.272-.082-.442.07.257.073.307.078.384h0l.004.057zm.186.393c-.084.125-.09.276-.091.395l.005-.054h0 0 0 0c.007-.074.011-.123.086-.34zm-.129.212a.93.93 0 0 1 .19-.43c-.085.146-.191.445-.191.445-.022-.103-.01-.299.033-.389l-.032.374zm-.088.071h0c-.014-.046-.042-.143.004-.25.022.049.013.168.002.272-.001-.005-.003-.012-.006-.022h0 0 0 0zm-3.589 1.521l-.015.063c-.024.09-.057.126-.094.151.089-.002.177-.034.201-.137.012-.052-.003-.118-.015-.171-.008-.037-.015-.067-.009-.08-.035.029-.051.098-.068.174zm.24.185c-.005.087-.174.065-.216.032.069-.024.128-.086.108-.159 0 0 .113.041.108.127zm1.351-3.225c-.294.055-.409.147-.474.2-.027.022-.046.037-.065.039-.024.048-.058.181-.005.329.011.047.014.095.002.142 0 0 .124-.133.095-.303s.05-.3.447-.405zm-.574.037h.001c-.142.074-.078.294-.029.395-.142-.226-.118-.405-.088-.467-.05.078-.101.279.088.467-.059-.23.018-.375.028-.394zm2.199 1.781l-.312-.307s-.071-.03-.116-.063c-.081-.058-.272-.231-.272-.231l.213.249c.049.058.163.17.207.208.091.077.28.144.28.144zm-.846-.173c.072.077.533.241.533.241s-.54-.39-.764-.623c-.004.033.027.099.073.172a1.21 1.21 0 0 0 .199.189l-.096-.044.055.065zm.727-.131c-.053-.048-.071-.106-.089-.162s-.038-.12-.101-.163c.167.084.291.236.304.314l.027.211s-.068-.134-.141-.2zm-.693-.764a1.86 1.86 0 0 0 .452.601c-.051-.185-.177-.388-.234-.466l.203.42-.139-.176h0l-.282-.379zm4.35.436c.11-.284.17-.481.077-.988-.002-.045-.098-.071-.087-.01-.035.014-.033.083.024.12a2.26 2.26 0 0 1-.006.851c.018-.091.008-.287-.017-.418-.034-.18-.161-.498-.161-.498l.1.471c.009.041.004.075-.002.112-.013.075-.027.163.072.358zm-1.354-.087c.284-.028.18-.691.18-.691s.011.238-.104.436c-.023.039-.068.055-.11.071-.036.013-.07.026-.088.051l-.385.563s.367-.415.507-.429zm-.537.375l.27-.521c.007-.048-.002-.339-.007-.478l-.052.464-.211.535zm-.015.002l.139-.694-.154.344c-.006.011.007.238.015.35zm-.867 1.606a.88.88 0 0 0-.135-.134c-.06-.051-.101-.085-.087-.142.131.123.212.062.212.062.087.027.121.102.124.131s-.004.052-.015.067l-.114-.066.079.089c-.02.005-.042.002-.064-.008zm-.204-1.104l.228.232.078.25-.134-.244-.172-.237zm-.706.215c.043.078.189.266.43.391-.012-.007-.068-.059-.136-.125l-.294-.266zm-.317.431h0c-.153.016-.167.017-.234.139-.039.069-.176.145-.248.139-.077-.007-.108-.041-.144-.079-.028-.031-.059-.064-.118-.089-.102-.044-.431-.218-.431-.218s.34.148.395.082c.039.013.259.062.338.053-.056-.009-.191-.038-.282-.084.241.007.309-.028.354-.051.018-.009.032-.016.051-.018l.026-.002c.12-.01.233-.02.023-.241.045.04.088.064.132.088.084.046.172.095.28.266l-.142.017zm-2.972-2.349h0c-.041.104-.263.672-.216.986-.095-.238-.046-.403-.016-.507.026-.086.039-.13-.054-.138.06-.099.292-.358.292-.358l-.006.016zm1.097 3.189c-.047.026-.227.045-.349.022-.012-.021.019-.061.085-.042l.004.001c.036.011.113.033.26.019zm-.142-.137c-.035 0-.064.001-.082.012-.026.016-.048.049-.048.049s.116.017.176.004c.072-.015.1-.047.137-.09l.012-.014c-.073.038-.142.039-.195.039zm-.54-1.273s-.038.023-.051.055c-.024.039-.055.167.037.34-.059-.035-.127-.166-.119-.177-.028.04-.065.067-.105.096a.71.71 0 0 0-.085.069c.118-.115.188-.301.216-.388.022-.068.149-.093.218-.006.133.167.282.449.113.505-.038.013-.128-.003-.172-.066.14.008.119-.145.119-.145l-.125.025c.043-.017.06-.172.06-.172s-.044.002-.098.045c.028-.075.011-.126-.001-.161l-.007-.02zm.149.604c-.03.013-.09.015-.15-.019s-.079-.069-.085-.093c0 0 .034.031.06.048.061.04.175.064.175.064zm.998-.839c.037.093.141.168.265.256l.12.087c.137.104.187.205.187.205-.035-.144-.097-.276-.143-.374h0l-.051-.12c-.036.057.053.224.126.361h0l.068.133c-.052-.114-.332-.385-.572-.548zm2.005-1.422c.036.163.096.276.21.383-.003-.247-.185-.507-.287-.61 0 0 .048.098.077.227zm.073.504c-.04-.052-.08-.08-.116-.106a.29.29 0 0 1-.132-.17c-.091-.288-.302-.513-.302-.513.125.087.464.528.55.789zm-2.001 1.126c.205.128.33.249.405.382-.212-.07-.643-.408-.763-.787 0 0 .196.304.358.405zm-.846-.901h0 0l-.006-.249-.051.222s-.02.038-.035.085c-.04.128.008.57.008.57l.08-.188c.018-.068.011-.263.004-.44zm-.194.367l.001.011.001.009h0c.007.08.019.202.006.299l-.086-.3-.013-.037c-.041-.113-.069-.19 0-.287.022-.031.045-.071.066-.108h0 0 0c.026-.046.051-.089.071-.11-.073.223-.065.316-.046.523zm.347-.848l-.037.769c-.01-.219-.018-.68.037-.769zm6.028 1.396c-.003-.208-.088-.378-.193-.592h0a3.78 3.78 0 0 1-.291-.732c.026.584.271.98.449 1.268l.035.056zm-.812-2.293c.111.127.202.23.249.411-.002-.111-.064-.305-.282-.511s-.216-.296-.216-.296-.031.051.132.257l.117.139zm-.034-.3c-.109-.115-.137-.289-.137-.289s.108.216.213.24.172.063.229.15c.104.158.112.279.122.418h0 0 0l.006.081c-.11-.261-.235-.392-.422-.588l-.011-.011zm.458.089c-.063-.15-.186-.445-.333-.549.015.046.265.468.363.619.001-.143-.093-.363-.158-.443l.003.008.155.435-.03-.071h0zm.223.408a1.24 1.24 0 0 0-.085-.268c-.044-.108 0-.209 0-.209.014.02.037.078.06.135h0 0 0l.027.066c.024.056.011.16.003.23a.31.31 0 0 0-.005.047z" class="B"/></g><path d="M177.05 54.063c0 .568-.261 1.125-.764 1.648s-1.244 1.006-2.173 1.415c-1.857.817-4.437 1.328-7.298 1.328s-5.44-.51-7.297-1.328c-.929-.409-1.669-.89-2.173-1.415s-.764-1.08-.764-1.648.261-1.125.764-1.648 1.244-1.006 2.173-1.415c1.857-.817 4.437-1.328 7.297-1.328s5.441.51 7.298 1.328c.929.409 1.669.89 2.173 1.415s.764 1.08.764 1.648z" stroke="#2a6458" stroke-width=".4"/><path d="M155.156 58.125c-2.344-5 .656-7.229 2.531-8.312-.937.104-3.319.819-4.969 3.219s.771 4.365 2.438 5.094z" fill="url(#F)"/><path d="M175.625 50.063c-3.325-1.925-8.636-1.844-10.875-1.562-5.675.375-6.865 7.49-6.75 11 7.26-2.344 20.95-7.513 17.625-9.437z" fill="url(#F)"/><defs><linearGradient id="A" x1="152.5" y1="27.25" x2="157.25" y2="117" xlink:href="#H"><stop stop-color="#f8f7eb"/><stop offset="1" stop-color="#e7f9e3"/></linearGradient><linearGradient id="B" x1="111.5" y1="64.25" x2="170" y2="103.75" xlink:href="#H"><stop stop-color="#535353"/><stop offset="1" stop-color="#3c3c3c"/></linearGradient><linearGradient id="C" x1="166.095" y1="33.75" x2="166.095" y2="93.982" xlink:href="#H"><stop stop-color="#fffff5"/><stop offset="1" stop-color="#fffff5" stop-opacity="0"/></linearGradient><linearGradient id="D" x1="174.5" y1="44.375" x2="165.8" y2="89.875" xlink:href="#H"><stop stop-color="#fffff5"/><stop offset="1" stop-color="#fffff5" stop-opacity="0"/></linearGradient><linearGradient id="E" x1="167.75" y1="50.438" x2="152.844" y2="54.938" xlink:href="#H"><stop stop-color="#e7f9e3"/><stop offset="1" stop-color="#a9c8a2"/></linearGradient><linearGradient id="F" x1="158.968" y1="50.375" x2="164.152" y2="59.5" xlink:href="#H"><stop stop-color="#fffff5"/><stop offset="1" stop-color="#fffff5" stop-opacity="0"/></linearGradient><path id="G" d="M172.758 93.332c-22.543-12.903-39.082-24.837-63.222-36.516-1.419-.687-1.546-2.666-.197-3.481 14.702-8.867 32.243-16.092 46.385-19.434.431-.102.864-.106 1.295-.008 17.773 4.065 48.866 18.403 65.626 28.841 1.678 1.045 1.822 3.402.291 4.653-16.837 13.764-35.088 22.05-47.796 26.195-.792.258-1.659.162-2.382-.252z"/><linearGradient id="H" gradientUnits="userSpaceOnUse"/></defs></svg>