<svg width="287" height="360" viewBox="0 0 287 360" fill="none" xmlns="http://www.w3.org/2000/svg">
<path d="M74.9882 241.922C62.8968 253.084 52.7993 264.913 46.9179 271.597C44.4228 274.432 44.2993 278.661 46.9179 290.444C52.5326 315.707 96.0412 352.8 102.457 352.399C108.873 351.998 123.109 317.311 144.362 300.469C161.364 286.995 224.429 266.35 254.237 257.662C214.137 215.637 164.612 193 160.001 193C155.39 193 157.996 199.638 144.362 201.622C130.728 203.605 89.6032 228.432 74.9882 241.922Z" fill="#BFEDC3"/>
<path d="M228.373 298.865C249.866 288.438 254.438 267.118 254.037 257.762C250.628 258.43 240.679 260.209 233.585 262.574C222.157 266.383 188.673 278.413 168.623 283.225C148.573 288.037 119.3 325.531 117.495 327.937C115.691 330.343 94.4374 352.8 103.661 353C112.884 353.201 151.981 331.145 163.41 325.531C174.839 319.917 184.663 321.321 188.473 319.917C192.282 318.514 201.505 311.897 228.373 298.865Z" fill="#BFEDC3"/>
<path fill-rule="evenodd" clip-rule="evenodd" d="M156.325 197.217C154.514 199.337 151.523 201.591 144.506 202.611C141.256 203.084 136.246 204.949 130.25 207.763C124.285 210.564 117.438 214.258 110.551 218.318C96.7575 226.448 82.8952 235.984 75.6664 242.657C64.8388 252.652 55.6151 263.186 49.5808 270.077C49.2493 270.455 47.5567 271.75 47.2447 272.106C57.1831 275.97 73.2578 280.412 86.377 287.875C93.2376 291.778 98.4141 296.996 103.627 301.253C108.727 305.417 113.899 309.78 115.764 314.012L124.319 321.228C129.916 313.388 136.4 305.502 143.741 299.685C148.095 296.235 154.474 291.845 163.252 287.875C190.064 276.875 229.682 263.838 252.374 257.165C232.693 236.809 210.868 221.099 193.292 210.426C184.335 204.987 176.49 200.861 170.606 198.099C167.664 196.717 165.22 195.68 163.379 194.991C162.457 194.647 161.698 194.393 161.108 194.227C160.49 194.053 160.141 194 160.001 194C159.55 194 159.234 194.08 158.988 194.195C158.737 194.312 158.507 194.49 158.256 194.755C157.996 195.03 157.744 195.366 157.426 195.798L157.377 195.864C157.08 196.268 156.737 196.734 156.325 197.217ZM123.161 322.868L114.112 315.235L114.019 315.015C112.39 311.169 104.744 306.428 99.627 302.25C94.5325 298.09 91.1843 295.498 84.377 291.625C71.074 284.057 57.1197 276.598 47.2447 272.793C46.4592 273.906 46.0127 275.347 46.0003 277.67C45.9855 280.433 46.5859 284.34 47.8941 290.227C49.2556 296.353 52.6888 304.019 57.627 311C62.5545 317.966 68.9318 324.176 75.0942 330.338C81.2563 336.5 87.4368 341.857 92.4635 345.641C94.9788 347.535 97.1882 349.022 98.9509 350.017C99.8331 350.516 100.584 350.88 101.193 351.112C101.828 351.353 102.211 351.412 102.395 351.401C102.642 351.385 103.027 351.25 103.577 350.849C104.115 350.456 104.732 349.865 105.43 349.074C106.825 347.491 108.437 345.226 110.276 342.461C111.523 340.587 112.871 338.486 114.314 336.236C116.955 332.121 119.916 327.507 123.161 322.868ZM158.141 192.383C158.688 192.128 159.299 192 160.001 192C160.438 192 161.016 192.124 161.649 192.302C162.311 192.488 163.127 192.762 164.08 193.118C165.986 193.831 168.481 194.891 171.457 196.288C177.409 199.083 185.316 203.243 194.33 208.717C212.353 219.662 234.835 235.879 254.961 256.971C255.202 257.224 255.293 257.584 255.203 257.921C255.112 258.259 254.977 260.274 254.642 260.372C224.065 268.045 193.697 277.215 164.923 290.229C156.162 294.191 149.13 297.966 144.983 301.253C137.589 307.112 130.02 314.791 124.319 322.868C120.888 327.729 119.581 333.563 116.814 337.875C115.362 340.139 113.222 341.643 111.942 343.568C110.097 346.341 108.421 348.704 106.93 350.396C106.184 351.242 105.459 351.951 104.756 352.464C104.065 352.969 103.31 353.347 102.52 353.397C101.901 353.436 101.193 353.252 100.482 352.981C99.7463 352.701 98.8995 352.285 97.9671 351.759C96.1004 350.704 93.8142 349.161 91.2606 347.239C86.1494 343.391 79.8988 337.971 73.68 331.752C67.4614 325.534 61.2559 318.498 56.246 311.416C51.2467 304.349 47.3876 297.166 45.9417 290.661C44.6314 284.765 43.9842 280.666 44.0003 277.66C44.0167 274.604 44.7194 272.581 46.1672 270.936C46.7605 270.262 47.3975 269.534 48.0756 268.76C54.1066 261.872 63.399 251.259 74.3099 241.188C81.6962 234.369 95.7036 224.747 109.535 216.595C116.46 212.514 123.363 208.787 129.4 205.953C135.407 203.133 140.65 201.151 144.218 200.632C150.835 199.669 153.357 197.612 154.805 195.918C155.168 195.492 155.473 195.078 155.776 194.666L155.816 194.612C156.122 194.196 156.445 193.76 156.802 193.382C157.169 192.994 157.598 192.637 158.141 192.383Z" fill="#E7F9E3"/>
<path d="M68.9706 254.559C68.7726 255.818 69.3657 265.846 65.0645 278.688L68.9706 254.559Z" fill="#E7F9E3"/>
<path d="M73.5329 252.624C73.5329 261.688 71.6478 275.711 68.9721 281.063C70.5262 271.941 72.5599 255.056 73.5329 252.624Z" fill="#E7F9E3"/>
<path d="M73.877 283.637C76.4107 274.042 78.3977 255.198 77.5869 250.495C75.7288 260.191 74.6878 279.177 73.877 283.637Z" fill="#E7F9E3"/>
<path d="M84.0733 245.833C84.276 256.137 82.2705 279.643 79.1895 286.373C79.9327 273.704 83.2625 246.887 84.0733 245.833Z" fill="#E7F9E3"/>
<path d="M92.5867 239.955C94.627 257.813 85.605 284.708 84.0645 288.438C85.8212 273.404 91.5326 241.009 92.5867 239.955Z" fill="#E7F9E3"/>
<path d="M100.939 237.063L89.9395 292.188C92.4394 283.776 101.953 264.076 100.939 237.063Z" fill="#E7F9E3"/>
<path d="M131.404 241.678C110.161 230.002 89.5645 231.063 86.502 232.938L89.8707 229.589C89.643 229.661 89.4439 229.719 89.2753 229.762C89.4618 229.707 89.6628 229.647 89.8776 229.582L91.1678 228.3C91.8459 228.303 92.5239 228.32 93.2013 228.351C104.432 223.848 128.189 208.625 140.322 205.293C134.808 213.919 106.362 224.258 93.7055 228.376C109.779 229.256 125.37 237.473 131.404 241.678Z" fill="#E7F9E3"/>
<path d="M152.096 220.438C144.596 220.219 139.782 217.787 134.689 217.062C136.077 216.75 137.716 215.933 139.504 215.238C141.162 214.594 145.575 217.544 152.096 220.438C154.704 221.286 157.314 220.781 159.658 224.594C149.127 222.875 154.371 221.447 152.096 220.438Z" fill="#E7F9E3"/>
<path d="M191.232 219.68C191.426 219.72 191.572 219.903 191.807 219.992C191.508 220.101 191.439 219.737 191.232 219.68C184.332 218.256 174.95 210.931 171.944 213.198C169.299 215.192 166.432 218.683 165.555 220.065C165.524 220.115 165.508 220.141 165.508 220.141C165.523 220.116 165.539 220.091 165.555 220.065C165.925 219.472 168.374 215.528 169.917 212.489C171.589 209.195 170.813 204.048 169.309 201.239C171.278 203.376 185.97 218.242 191.232 219.68Z" fill="#E7F9E3"/>
<path d="M129.502 278.938C132.564 262.5 162.502 254.363 165.252 253.738C165.252 253.738 145.502 259.625 133.627 282.25C136.066 271.313 132.439 274.563 132.439 274.563L129.502 278.938Z" fill="#E7F9E3"/>
<path d="M56.4048 295.697C53.3237 293.914 53.9048 286.508 54.5805 283.029C54.5169 286.117 55.7454 292.67 61.1683 294.177C65.4337 295.362 80.3755 311.638 93.377 322.125C98.1046 325.327 103.649 324.906 104.749 326.609C100.814 328.75 96.9052 324.971 93.377 322.125C79.9995 313.064 59.2504 297.345 56.4048 295.697Z" fill="#E7F9E3"/>
<path d="M174.252 219.786C170.684 224.205 158.377 230.438 150.939 231.063C159.814 231.438 163.614 230.691 165.252 231.063C159.814 239.5 141.775 245.816 136.066 247.049C166.552 242.59 174.184 226.289 174.252 219.786Z" fill="#E7F9E3"/>
<path d="M160.314 298.94L171.064 289.92C170.189 292.758 171.001 295.069 179.748 293.163C188.494 291.258 201.838 283.113 207.416 279.279L193.379 289.92L198.244 292.758C196.082 292.674 189.822 293.113 182.079 295.545C174.336 297.978 161.7 299.751 160.314 298.94Z" fill="#E7F9E3"/>
<path d="M190.491 306.339C166.572 312.258 141.742 331.575 132.316 340.494V341.71L142.35 336.339C150.762 328.94 172.025 313.231 189.781 309.582C207.538 305.934 227.315 293.94 234.983 288.4L241.064 285.664L233.869 286.677C229.375 290.765 214.409 300.42 190.491 306.339Z" fill="#E7F9E3"/>
<path d="M115.502 285.938C116.688 291.986 119.602 305.75 115.897 312.188C116.835 309.078 113.757 289.926 115.502 285.938Z" fill="#E7F9E3"/>
<path d="M118.564 289C119.002 310.813 118.821 310.122 114.985 314.346C114.283 316.931 113.525 320.958 112.692 325.384C111.013 334.309 109.028 344.859 106.573 348.5C110.538 343.61 115.438 336.3 120.78 328.332C124.185 323.253 127.769 317.908 131.404 312.75C140.769 301.009 152.614 294.351 159.396 291.226C153.557 293.668 144.165 297.727 137.189 301.375C135.174 302.429 128.283 309.031 121.252 311.75C122.252 302.75 121.252 295.063 118.564 289Z" fill="#E7F9E3"/>
<path d="M122.627 310.188C122.627 310.188 129.791 299.31 133.627 293.438C138.627 303.5 122.627 310.188 122.627 310.188Z" fill="#E7F9E3"/>
<path d="M99.005 298.09C99.005 298.09 104.1 279.012 107.039 271.613C108.314 286.373 99.005 298.09 99.005 298.09Z" fill="#E7F9E3"/>
<path d="M104.749 253.738C101.68 263.063 94.9395 295.563 94.9395 295.563C96.3545 296.375 97.7114 297.222 99.005 298.09C99.005 298.09 99.8145 278.188 104.749 253.738Z" fill="#E7F9E3"/>
<path d="M192.877 224.938C181.377 231.063 187.384 235.073 193.921 244.879C188.627 234.5 191.232 228.188 192.877 224.938Z" fill="#E7F9E3"/>
<path d="M193.921 244.879C196.771 245.918 204.358 247.218 211.908 244.106C210.027 246.682 204.324 251.356 196.556 249.439L195.624 252.168C202.321 253.984 217.023 254.863 222.25 243.854C221.506 242.591 219.501 241.949 214.439 240.719C209.968 237.847 200.124 230.289 197.657 221.407C196.508 225.11 195.283 234.5 198.721 244.106C193.596 232.625 196.018 223.695 197.283 220.625C194.861 224.258 188.78 234.801 193.921 244.879Z" fill="#E7F9E3"/>
<path d="M195.137 253.595C200.914 255.926 212.646 260.376 215.971 254.781C216.963 253.111 218.689 250.356 219.752 249.094C221.596 246.904 223.139 245.362 222.25 243.854C220.471 248.939 212.289 258.795 195.137 253.595Z" fill="#E7F9E3"/>
<path d="M159.346 195.531C161.502 205.062 139.86 215.067 134.689 217.062C136.494 211.846 158.846 204.188 159.346 195.531Z" fill="#E7F9E3"/>
<path fill-rule="evenodd" clip-rule="evenodd" d="M112.641 293.554C113.153 302.119 113.7 311.269 114.545 313.404C113.384 311.187 111.031 308.198 107.712 305.038L109.221 291.5L106.663 304.063C106.183 303.628 105.685 303.19 105.17 302.751C106.446 298.595 108.387 291.301 110.314 279.375C111.394 272.696 111.989 282.65 112.641 293.554Z" fill="#E7F9E3"/>
<path d="M285.656 336.45C270.231 350.778 247.762 362.643 233.814 365.878C239.966 369.261 252.805 368.76 256.47 365.802C254.735 364.806 251.712 364.705 250.713 364.156C255.267 364.052 262.786 362.828 269.452 358.624C266.887 357.881 266.053 357.493 264.199 357.483C268.821 356.818 278.269 352.742 282.297 346.539C279.851 346.161 277.762 346.531 277.762 346.531C279.699 346.372 284.369 341.655 285.656 336.45Z" fill="#BFEDC3"/>
<circle cx="244.368" cy="330.368" r="3.36816" fill="#BFEDC3"/>
<circle cx="208.58" cy="340.743" r="3.36816" fill="#BFEDC3"/>
<circle cx="200.368" cy="175.368" r="3.36816" fill="#BFEDC3"/>
<circle cx="213.5" cy="191.5" r="1.5" fill="#BFEDC3"/>
<circle cx="101.351" cy="164.705" r="1.5" fill="#BFEDC3"/>
<circle cx="275.668" cy="141.125" r="1.5" fill="#BFEDC3"/>
<path fill-rule="evenodd" clip-rule="evenodd" d="M11.5645 163.375C0.367505 178.228 20.4525 189.892 29.0647 181.5C33.9411 176.748 37.0821 170.134 42.0645 165.625C57.4394 151.712 75.2265 136.894 90.5084 113.336C86.5095 101.759 79.8403 96.5258 76.8735 95.2869L76.2345 95.9524C49.8149 119.25 24.1906 146.626 11.5645 163.375ZM71.0645 120.312C71.0645 121.521 70.0852 122.5 68.877 122.5C67.6689 122.5 66.6895 121.521 66.6895 120.312C66.6895 119.104 67.6689 118.125 68.877 118.125C70.0852 118.125 71.0645 119.104 71.0645 120.312ZM52.4756 138.926C52.4756 140.134 51.4962 141.114 50.2881 141.114C49.0799 141.114 48.1006 140.134 48.1006 138.926C48.1006 137.718 49.0799 136.739 50.2881 136.739C51.4962 136.739 52.4756 137.718 52.4756 138.926ZM30.1007 162.25C31.3088 162.25 32.2882 161.271 32.2882 160.062C32.2882 158.854 31.3088 157.875 30.1007 157.875C28.8926 157.875 27.9132 158.854 27.9132 160.062C27.9132 161.271 28.8926 162.25 30.1007 162.25Z" fill="#BFEDC3"/>
<path fill-rule="evenodd" clip-rule="evenodd" d="M93.3666 114.018C111.204 119.662 122.364 137.895 128.551 152.037C157.497 146.304 179.128 128.26 194.256 106.958C208.452 86.9671 215.865 62.8775 219.272 42.7955C220.305 43.2449 221.323 43.6764 222.323 44.0894L223.186 44.4689C216.111 86.2194 186.142 141.597 128.905 152.855C133.03 162.473 134.815 170 134.815 170C144.084 169.294 152.986 167.058 161.42 163.612C161.135 160.762 160.439 154.688 159.939 153.188C161.074 155.358 163.421 160.285 163.735 162.631C193.002 149.776 216.39 122.399 229.501 94.2583C226.377 89.9375 223.314 87.3125 220.939 85.0625C224.877 85.9397 229.501 88.4375 231.03 90.8679C231.746 89.225 232.426 87.5814 233.07 85.9397C231.564 84.9062 229.783 84.375 227.377 84.125C229.501 83.5938 231.596 83.9375 233.589 84.5958C238.169 72.5566 240.776 60.6654 241.065 50C236.624 49.3323 229.99 47.2557 222.323 44.0894L219.28 42.7509L219.272 42.7955C199.461 34.175 174.125 18.9923 161.434 2.24684C160.609 1.15899 158.964 1.11888 158.133 2.20168C137.139 29.5542 108.034 62.5802 78.4396 93.5C88.3771 99.875 92.4701 108.356 93.3666 114.018ZM168.19 30.875C168.19 34.672 165.112 37.75 161.315 37.75C157.518 37.75 154.44 34.672 154.44 30.875C154.44 27.078 157.518 24 161.315 24C165.112 24 168.19 27.078 168.19 30.875Z" fill="#BFEDC3"/>
<path d="M115.181 176.679C111.246 178.938 108.317 180.121 105.817 181.132C107.711 183.754 112.619 188.725 117.094 187.625C116.93 184.117 116.122 180.063 115.181 176.679Z" fill="#BFEDC3"/>
<path fill-rule="evenodd" clip-rule="evenodd" d="M105.375 181.328C102.428 182.673 98.9427 185.024 95.0938 188.844L98.02 204.594L115.181 189.327C110.326 189.013 106.621 183.863 105.375 181.328ZM101.344 186.562C100.604 188.229 99.175 192.975 99.375 198.625C100.031 195.458 101.344 188.612 101.344 186.562Z" fill="#BFEDC3"/>
<path fill-rule="evenodd" clip-rule="evenodd" d="M96.259 204.2L91.5 189.719L71.1562 184.594L74.2816 194.59L75.0316 196.918C75.6463 197.24 76.4423 197.653 77.3697 198.121C78.223 198.421 79.1861 198.729 80.207 199.055C82.2091 199.695 84.4335 200.406 86.4882 201.265C87.3882 201.641 88.2919 202.105 89.1779 202.56C90.4815 203.229 91.7469 203.878 92.9062 204.2C94.2393 204.57 95.2812 204.438 96.259 204.2ZM79.25 189.938C80.7604 192.568 84.1437 198.074 85.5938 199.055L79.25 189.938ZM83.875 191.406C84.625 193.662 86.5 198.482 88 199.719L83.875 191.406Z" fill="#BFEDC3"/>
<path fill-rule="evenodd" clip-rule="evenodd" d="M71.625 183.125C78.2194 176.396 87.091 172.656 92.5007 171.062C92.854 171.126 93.1814 171.189 93.4944 171.249C94.626 171.466 95.5704 171.647 96.875 171.714C97.1021 171.726 97.5699 171.923 98.0391 172.12L93.0781 172.969L99.2188 172.529C99.8021 172.556 100.282 172.534 100.758 172.513C101.354 172.486 101.944 172.459 102.72 172.529C105.996 172.824 110.354 174.009 114.406 175.812C111.788 177.282 109.359 178.186 107.313 178.947C106.621 179.205 105.972 179.446 105.375 179.688C104.704 179.977 103.934 180.267 103.099 180.582C99.8649 181.801 95.6397 183.394 92.2644 186.75L71.625 183.125ZM83.4643 179.684C83.5884 179.658 82.9635 179.969 83.4375 179.688C85.4365 178.501 93.0177 175.511 100.031 174.938C97.0449 175.798 92.5931 177.072 88.8101 178.154C86.6947 178.759 84.7884 179.304 83.4643 179.684ZM74.625 181.75C77.5 179.855 84.475 175.746 89.375 174.47C85.6146 176.564 77.4 180.95 74.625 181.75ZM103.906 177.031L86.4882 180.125C86.4882 180.125 95.9375 179.25 100.812 178.406C102.383 178.134 103.906 177.031 103.906 177.031Z" fill="#BFEDC3"/>
<path fill-rule="evenodd" clip-rule="evenodd" d="M262.632 147.722C263.862 146.659 264.6 146.529 265.058 146.709C267.762 147.772 268.689 150.232 269.625 152.719C270.269 154.429 270.918 156.152 272.152 157.442C274.825 160.234 276.021 161.621 277.168 163.094C276.155 164.101 275.35 164.886 274.681 165.538C272.522 167.643 271.776 168.371 270 170.75C269.758 171.075 268.918 172.428 268.08 173.78C267.231 175.149 266.383 176.516 266.156 176.813C263.687 180.047 261.336 181.584 258.469 182.625C256.465 176.032 254.226 170.71 251.958 167.238C251.132 165.974 251.146 164.283 251.924 162.989C252.529 161.983 253.017 160.948 253.504 159.916C254.152 158.541 254.798 157.17 255.719 155.875C255.413 156.457 255.339 157.941 255.41 159.905C255.111 165.64 255.261 173.464 257.312 176.656C256.625 172.334 255.583 164.695 255.41 159.905C255.439 159.35 255.573 158.894 255.701 158.457C255.928 157.686 256.138 156.973 255.719 155.875C256.197 155.203 256.784 154.539 257.35 153.899C257.828 153.358 258.291 152.834 258.66 152.337C260.136 150.35 261.458 148.737 262.632 147.722ZM262.632 147.722C260.563 153.649 260.62 160.44 260.906 163.094C261.156 175.393 259.969 179.677 259.344 180.281C260.277 177.243 259.909 172.739 259.503 167.765C259.379 166.242 259.251 164.676 259.156 163.094C258.831 157.695 261.338 150.596 262.632 147.722ZM264.062 148.063C263.708 155.146 263.481 170.163 265.406 173.563C265.406 169.625 263.562 162.738 264.062 148.063Z" fill="#BFEDC3"/>
<path fill-rule="evenodd" clip-rule="evenodd" d="M243 148.063C246.832 148.451 250.602 147.827 254.376 147.203C257.062 146.758 259.751 146.313 262.465 146.233C260.765 147.226 258.533 149.153 257.054 151.145C256.618 151.733 256.229 152.458 255.834 153.196C255.454 153.906 255.067 154.628 254.625 155.25C252.757 157.879 250.64 160.314 248.525 162.675C247.862 163.415 246.911 163.828 245.917 163.807V163.807C245.348 163.795 244.79 163.783 244.509 163.779C245.833 158.505 244.437 152.219 243 149.719C244.975 155.694 243.823 161.582 243 163.779C237.969 163.727 232.82 163.768 227.906 164.438C230.24 158.058 236.541 150.28 243 148.063ZM245.625 149.438C246.715 150.729 248.753 154.444 248.188 158.969L245.625 149.438Z" fill="#BFEDC3"/>
<path fill-rule="evenodd" clip-rule="evenodd" d="M257.048 183.025C254.382 175.436 250.652 170.629 248.004 167.609C247.272 166.774 246.212 166.314 245.103 166.25C243.319 166.148 241.518 165.94 239.714 165.731C235.821 165.28 231.908 164.827 228.089 165.434C228.202 165.642 228.449 165.936 228.702 166.236C228.969 166.555 229.244 166.881 229.375 167.125C231.344 166.916 236.419 166.751 240.969 167.765C238.046 167.52 231.703 167.176 229.71 167.765C230.059 168.447 230.389 169.14 230.725 169.844C231.44 171.342 232.178 172.889 233.164 174.482C234.267 176.26 235.393 177.899 236.485 179.178C237.601 180.485 238.584 181.297 239.376 181.589C241.31 182.302 245.269 182.819 249.216 183.047C251.167 183.16 253.073 183.2 254.667 183.164C255.614 183.142 256.419 183.094 257.048 183.025ZM243 168C243.234 170.862 242.981 177.245 240.094 179.875C242.158 178.521 245.629 174.25 243 168ZM246.898 174.004C246.201 176.294 244.909 178.894 242.844 179.594C243.973 178.559 245.926 176.348 246.898 174.004Z" fill="#BFEDC3"/>
<path d="M285.499 115.251L285.5 115.25C285.418 115.131 285.333 115.006 285.245 114.876C285.329 115.001 285.414 115.126 285.499 115.251Z" fill="#BFEDC3"/>
<path fill-rule="evenodd" clip-rule="evenodd" d="M267.752 120.196C266.456 120.473 265.388 120.7 264.687 120.875C264.687 120.875 257.125 106.875 255.781 103.625C258.256 102.17 260.335 100.749 262.689 98.8711C265.893 96.3151 269.141 93.7236 272.861 92.0645C275.815 101.288 281.372 111.089 284.25 115.435C280.205 117.543 272.469 119.191 267.752 120.196ZM268.771 96.5469L269 95.9379C269 97.758 265.799 108.576 264.062 115.125C263.581 116.886 264.452 113.655 264.062 115.125C262.592 112.291 266.388 102.874 268.771 96.5469ZM270.312 100.344L265.969 117.313C265.969 117.313 266.486 117.777 266.906 117.063C269.906 111.969 270.312 100.344 270.312 100.344ZM270.562 115.907L272.625 102.688C272.625 102.688 272.996 109.479 271.593 113.469C271.003 115.148 270.562 115.907 270.562 115.907Z" fill="#BFEDC3"/>
<path d="M263.363 121.331C263.363 121.331 256.875 110.594 252.406 106.594C250.895 108.364 247.713 112.542 245.89 114.956L244.553 116.802L248.844 124.473L263.363 121.331Z" fill="#BFEDC3"/>
<path fill-rule="evenodd" clip-rule="evenodd" d="M57.5111 344.141C59.4489 346.724 64.4948 352.95 68.095 356.604C70.8654 359.415 74.0361 361.751 75.7978 363.423L77.2196 364.773C74.7192 364.665 71.8627 364.258 68.9204 363.654C68.1848 363.503 67.4438 363.339 66.7016 363.166C60.8422 361.793 54.9119 359.758 50.99 357.861L50.9331 356.209C56.6342 358.966 68.2332 363.409 75.2951 363.956C73.6473 362.366 69.7226 359.188 67.616 357.05C64.021 353.402 58.3521 347.401 56.3469 344.728L57.5111 344.141Z" fill="#BFEDC3"/>
<path d="M58.758 346.585C53.6376 342.928 38.2576 331.879 42.4986 324.177C45.0843 319.481 53.2211 335.598 58.758 346.585Z" fill="#BFEDC3"/>
<path d="M63.9361 338.716C61.6579 338.252 59.8881 340.48 60.1929 342.79C61.2815 347.999 66.2699 352.143 68.0486 356.832L66.8886 344.832C66.7646 343.55 67.0004 342.196 66.5608 340.985C66.1532 339.863 65.1893 338.972 63.9361 338.716Z" fill="#BFEDC3"/>
<path fill-rule="evenodd" clip-rule="evenodd" d="M53.4462 358.234C47.3636 352.327 37.3612 338.823 34.6914 321.017C31.1455 297.367 1.57125 298.153 10.1136 323.12C18.7997 348.507 39.7592 359.796 53.9148 358.645C53.7595 358.509 53.6033 358.372 53.4462 358.234ZM39.0652 351.509C34.8468 351.064 22.747 337.215 19.517 320.644C18.3735 316.85 20.743 315.944 21.3573 320.23C23.4734 334.998 33.7674 348.922 39.0652 351.509Z" fill="#BFEDC3"/>
<path d="M24.75 361.125C41.75 369.375 68.095 363.48 68.9204 363.654C68.1848 363.503 67.4438 363.339 66.7016 363.166C55.4629 366.198 34.0511 363.069 24.75 361.125Z" fill="#BFEDC3"/>
<path d="M14.9375 359.719C19.1647 362.952 26.7725 364.139 33.219 363.844C28.4096 360.247 21.7967 355.546 20.3788 354.541C20.1926 354.409 20.0058 354.281 19.8087 354.167C14.49 351.066 10.0818 355.393 14.9375 359.719Z" fill="#BFEDC3"/>
<path fill-rule="evenodd" clip-rule="evenodd" d="M48.4311 254.16C48.3861 246.554 50.7856 235.995 54.668 232.855C60.2419 228.997 66.8307 234.198 61.6714 238.429C61.5558 238.524 61.4351 238.613 61.3162 238.704C60.0902 239.639 52.7221 245.552 48.4718 255.618L55.4015 236.341C53.365 239.986 49.1199 248.652 48.4311 254.16Z" fill="#BFEDC3"/>
</svg>
