<svg width="7" height="29" viewBox="0 0 7 29" fill="none" xmlns="http://www.w3.org/2000/svg">
<path d="M0.677734 26.14C0.677734 25.2995 0.948165 24.6096 1.48902 24.0701C2.0419 23.5182 2.74502 23.2422 3.59838 23.2422C4.45174 23.2422 5.14884 23.5182 5.6897 24.0701C6.24258 24.6096 6.51902 25.2995 6.51902 26.14C6.51902 26.968 6.24859 27.6517 5.70773 28.1911C5.17889 28.7305 4.47577 29.0003 3.59838 29.0003C2.72098 29.0003 2.01186 28.7305 1.471 28.1911C0.942155 27.6517 0.677734 26.968 0.677734 26.14Z" fill="#BFEDC3"/>
<path d="M0.504198 2.58412C0.390439 1.29746 1.50796 0.242019 2.78602 0.429052L4.86057 0.732644C5.8923 0.88363 6.63491 1.80195 6.56668 2.84243L5.8125 14.3438V18.2611C5.8125 19.5936 4.48984 20.5221 3.23663 20.0692V20.0692C2.53859 19.817 2.04809 19.1855 1.97644 18.4467L1.1875 10.3125L0.504198 2.58412Z" fill="#BFEDC3"/>
</svg>
