<svg width="173" height="171" viewBox="0 0 173 171" fill="none" xmlns="http://www.w3.org/2000/svg">
<path d="M45.602 49.648C48.9042 45.3655 51.3995 35.2482 49.1235 17.7123C46.8476 0.176328 68.0013 -5.13521 75.9269 8.56011C83.4107 21.4922 85.3521 46.4761 80.3981 60.6936L95.3457 56.9936C119.948 48.701 130.448 45.3079 138.948 44.701C161.65 43.0802 155.448 64.201 153.332 69.1626C169.124 74.0029 168.57 92.0626 166.319 100.487C175.824 112.329 170.078 125.816 166.017 131.079C171.485 129.811 176.604 145.169 168.501 151.525C162.018 156.61 145.201 162.185 137.602 164.336L130.362 164.341L113.533 168.322C63.0921 173.751 59.8442 164.11 56.4764 162.01C53.7821 160.33 22.167 161.418 18.4161 161.807C-1.29499 146.877 -3.45067 106.376 7.10865 93.5763C35.5552 90.7638 37.2817 81.9823 36.9267 78.7166C35.9417 65.7398 42.2998 53.9306 45.602 49.648Z" fill="#BFEDC3"/>
<path d="M74.8137 108.738C74.4306 111.669 71.4627 116.818 70.0266 119.026C79.3762 117.123 82.2279 109.254 82.4851 105.558C80.7142 110.562 76.8022 113.585 75.0675 114.47C79.292 111.77 82.1273 101.784 83.0168 97.1278L78.4097 107.248L78.4059 103.097C77.4166 105.63 75.4397 110.745 75.4464 110.942C75.4532 111.139 75.0274 109.555 74.8137 108.738Z" fill="#E7F9E3"/>
<path d="M88.0484 127.632C81.2608 120.145 77.5551 120.995 76.1558 119.577C82.8842 118.493 92.805 124.554 97.5915 128.202C97.8921 128.408 98.1392 128.599 98.3228 128.773C98.095 128.591 97.8508 128.4 97.5915 128.202C94.6703 126.203 86.6925 122.827 82.7206 121.257C84.9596 122.501 87.2053 126.025 88.0484 127.632Z" fill="#E7F9E3"/>
<path d="M36.4501 93.0005C34.6955 101.5 37.4502 122.5 43.9486 125.5C33.4494 123.5 32.9502 102.5 36.4501 93.0005Z" fill="#E7F9E3"/>
<path d="M57.4469 163.501C43.9461 157 46.0953 142.165 45.9486 139C46.8414 142.901 46.2864 148.15 51.947 153C51.947 153 58.216 163.348 57.4469 163.501Z" fill="#E7F9E3"/>
<path d="M81.7675 170.005C88.4486 168.201 91.9486 160.013 94.4487 159.201C95.3307 158.915 93.629 165.586 91.6297 167.289L103.449 164.201L99.4487 167.701C99.4487 167.701 101.449 167.313 106.949 164.84C106.449 166.701 108.063 168.892 110.747 168.603C114.004 168.251 118.449 166.701 118.449 165.201C118.449 163.701 117.21 161.866 117.21 161.866C117.21 161.866 119.852 164.903 121.135 163.805C121.4 163.578 120.614 163.076 119.867 161.763C120.431 162.2 121.495 162.405 122.267 162.789C122.926 163.117 122.917 162.568 122.808 162.307C122.057 160.496 118.409 158.247 118.409 158.247C118.409 158.247 121.686 159.354 123.08 160.93C123.495 161.398 124.023 162.225 124.023 162.225L127.323 162.73L124.864 160.565L126.196 160.013C124.731 159.289 121.088 156.637 118.243 151.823C115.398 147.009 116.617 143.132 117.582 141.796C115.591 140.457 110.816 135.836 107.643 128.061C104.469 120.287 107.937 116.951 110.738 116.102C102.68 121.976 112.942 137.56 120.124 139.493C122.321 140.085 131.965 139.304 136.169 138.605C137.246 138.355 137.949 138.201 137.949 138.201C137.652 138.324 137.022 138.463 136.169 138.605C132.6 139.432 124.923 141.305 125.072 142.093C125.336 143.482 125.869 144.541 127.779 147.869C124.99 144.905 123.043 141.717 123.043 141.717C123.043 141.717 122.776 142.577 123.239 143.696C121.869 142.422 121.864 141.581 121.864 141.581C120.268 143.054 117.641 147.028 119.895 151.138C122.148 155.248 126.331 157.98 128.141 158.832L127.214 156.594L133.887 160.945C132.801 159.73 130.45 156.751 129.737 154.549C130.788 156.382 133.735 160.246 137.112 161.043C140.489 161.841 148.567 159.26 151.641 157.236L150.668 153.987L152.559 157.043L162.605 152.285C163.354 151.683 164.237 148.437 163.31 144.875C164.096 146.094 164.966 150.338 164.654 151.279C164.167 152.746 172.556 150.313 172.625 142.574C170.842 132.478 167.323 130.725 163.58 132.277L161.556 133.116L162.55 135.514L160.611 132.946L158.694 133.741L160.085 137.097L157.185 133.867L145.931 135.786L157.037 132.305C157.721 131.044 158.977 127.98 158.53 125.818C158.839 126.938 159.323 129.657 158.796 131.574C159.161 131.277 159.925 130.446 160.054 129.494L160.26 130.969C161.638 128.369 164.129 122.442 163.073 119.533C163.813 121.493 164.712 126.347 162.39 130.084L163.108 130.007C163.478 129.184 163.866 128.244 164.252 127.216C166.721 120.64 169.071 110.489 165.709 104.518C165.134 103.498 164.393 102.599 163.457 101.862C163.259 101.913 162.983 102.196 163.459 102.922C163.252 103.175 162.814 103.639 162.722 103.478C162.63 103.316 161.249 102.007 160.57 101.373L149.888 105.802C151.858 104.881 155.937 102.757 156.492 101.628C157.048 100.499 156.802 98.5859 156.61 97.7708C157.084 98.5628 157.985 100.335 157.797 101.087C157.563 102.027 158.558 98.9299 158.319 97.3746C158.127 96.1303 158.705 99.285 159.018 101.018C160.475 100.629 167.553 95.5126 167.453 90.3374C167.45 90.2536 167.447 90.1728 167.443 90.0953C167.449 90.176 167.452 90.2567 167.453 90.3374C167.544 92.8128 167.414 97.9145 166.201 100.35C167.594 101.801 170.562 105.809 171.294 110.225C170.311 108.718 167.816 105.467 165.709 104.518C169.071 110.489 166.721 120.64 164.252 127.216C165.767 126.83 169.343 124.556 171.529 118.556C171.89 121.303 168.929 127.541 167.088 130.573C170.449 130.007 172.625 133.867 172.625 142.574C173.847 150.339 168.55 152.546 165.96 153.828L151.949 159.701L137.949 164.201L128.449 166.201L118.949 168.201L111.949 168.701L110.747 168.603C103.999 170.591 81.7675 170.005 81.7675 170.005Z" fill="#E7F9E3"/>
<path d="M140.949 108.701L114.949 115.201L145.931 105.802L140.949 108.701Z" fill="#E7F9E3"/>
<path d="M128.984 80.88C129.246 80.75 128.973 80.0898 128.698 80.1882C120.668 83.0564 103.95 89.7012 103.95 89.7012L113.45 87.2012C113.45 87.2012 114.457 88.0896 128.984 80.88Z" fill="#E7F9E3"/>
<path d="M137.281 76.3787C134.998 77.3462 130.363 79.2971 130.09 79.3605L130.465 80.2661C134.57 78.9638 136.72 77.1319 137.281 76.3787Z" fill="#E7F9E3"/>
<path d="M141.623 74.5786C141.863 74.4792 148.654 73.6927 146.996 65.3275L148.249 70.458C148.699 70.1882 149.574 68.9099 149.473 65.9552L150.899 67.3617C152.516 65.4253 155.571 60.891 156.165 56.8593C156.211 56.3349 156.244 55.8625 156.266 55.46C156.27 55.916 156.235 56.3842 156.165 56.8593C155.869 60.2168 155.043 65.7074 153.368 68.6482C155.386 69.3512 160.022 71.6579 162.415 75.2608C160.644 73.8514 156.037 70.9003 151.772 70.371C152.246 70.7364 153.166 71.4599 153.054 71.4313C152.943 71.4028 151.123 71.1396 150.227 71.0116L152.321 73.5772L149.152 71.9568C147.806 73.0036 144.417 74.9935 141.623 74.5786Z" fill="#E7F9E3"/>
<path d="M135.434 97.3721C135.611 97.7983 132.731 93.5611 132.62 93.2947L133.402 92.4709L135.434 97.3721Z" fill="#E7F9E3"/>
<path d="M138.34 99.7883C137.178 98.6719 135.249 93.2868 134.43 90.7337C136.303 95.2514 137.614 96.6558 138.035 96.7933C139.003 95.3932 138.254 92.3531 137.759 91.008C140.022 94.8396 139.089 98.458 138.34 99.7883Z" fill="#E7F9E3"/>
<path d="M142.48 129.725L139.272 119.879C140.249 118.201 141.814 124.33 142.475 127.604C142.475 127.604 143.421 124.541 142.654 122.691C142.411 122.105 142.962 121.158 143.427 122.371C144.652 125.328 142.965 127.984 142.48 129.725Z" fill="#E7F9E3"/>
<path d="M121.169 62.029C130.95 58.7013 117.448 67.3617 97.3072 71.461C91.9482 75.5002 94.9482 88.5002 101.948 89.7012C101.554 90.3122 101.11 90.9884 100.656 91.7196C96.299 100.41 104.807 111.663 108.759 114.433C109.21 114.646 109.678 114.858 110.162 115.069C109.834 115.069 109.347 114.845 108.759 114.433C92.827 106.898 97.035 97.559 100.656 91.7196C101.003 91.0287 101.43 90.3541 101.948 89.7012C93.4482 90.0002 89.9482 77.0077 97.3072 71.461L121.169 62.029Z" fill="#E7F9E3"/>
<path d="M77.4495 68.0003C77.0495 64.4003 79.1032 60.167 79.603 59.0003C82.5265 53.4003 83.3855 45.667 83.4496 42.5003L86.9487 56.0003C85.3487 57.2003 82.2821 62.167 80.9487 64.5003C80.9487 63.0003 81.4487 61.5003 81.9487 60.5003C79.4487 62.0003 78.2828 65.167 77.4495 68.0003Z" fill="#E7F9E3"/>
<path d="M141.449 45.5003L137.949 44.5003L139.449 44.0003L142.949 43.5003L143.949 45.5003C143.149 44.7003 140.615 44.167 139.449 44.0003L141.449 45.5003Z" fill="#E7F9E3"/>
<path d="M36.9487 80.5003C37.7487 76.9003 37.9482 72.5002 39.9482 72.0002C37.9482 73.0002 39.4482 76.5002 38.4482 81.0002C37.4482 85.5002 35.4482 86.0002 29.9482 89.5002C25.5482 92.3002 25.7819 98.0002 26.4488 100.5C23.6488 95.3003 27.282 90.3336 29.4486 88.5003C35.4486 85.3003 36.9487 81.8337 36.9487 80.5003Z" fill="#E7F9E3"/>
<path d="M31.4482 90.0002C29.9482 91.5003 27.3482 95.7003 28.9482 100.5C28.9482 98.3336 29.4482 93.2002 31.4482 90.0002Z" fill="#E7F9E3"/>
</svg>
